<svg width="450" height="782" viewBox="0 0 450 782" fill="none" xmlns="http://www.w3.org/2000/svg">
<path d="M295.78 91.4749L287.691 110.023L289.093 121.564L317.026 123.613L319.722 110.563L323.928 96.2188L312.496 92.5519L299.662 81.875L295.78 91.4749Z" fill="white"/>
<path d="M298.603 139.006C292.214 139.286 285.908 137.468 280.648 133.831C278.52 132.204 277.075 129.841 276.597 127.204C276.118 124.568 276.64 121.848 278.061 119.576C279.38 117.17 280.648 114.894 282.019 112.643C289.962 98.9053 296.843 87.0305 297.749 58.6758L305.51 58.9086C304.553 89.2295 296.869 102.501 288.72 116.524C287.452 118.748 286.133 120.973 284.865 123.302C283.597 125.63 284.193 126.743 285.564 127.855C290.919 132.331 305.407 132.667 313.608 127.286C314.189 113.928 317.169 100.783 322.404 88.4793C323.154 86.5389 323.853 84.6762 324.526 82.8135L331.847 85.4006C331.149 87.3151 330.424 89.2295 329.674 91.2216C324.489 103.306 321.636 116.262 321.266 129.407V131.192L319.869 132.331C313.72 136.859 306.236 139.208 298.603 139.006Z" fill="#077594"/>
<path d="M67.7754 305.483L66.0879 289.527L73.145 272.801L87.722 253.468L104.294 241.191L106.442 250.245L94.4734 286.15L98.6164 304.41L94.4734 310.701L77.5948 312.082L67.7754 305.483Z" fill="white"/>
<path d="M281.349 719.007L276.951 709.978C274.804 705.606 271.234 699.422 266.603 691.558C247.51 658.469 212.092 597.025 207.798 536.538C175.355 487.771 168.681 386.253 182.418 375.077L184.876 378.078L182.418 375.077C193.465 366.073 214.369 366.073 238.326 375.077C279.538 390.599 301.58 418.721 305.125 439.754C307.945 456.467 300.675 468.652 292.991 481.562C284.816 495.3 276.382 509.477 277.805 531.778C278.788 547.042 282.979 552.164 288.153 558.632C293.328 565.1 299.666 572.835 303.366 591.643C310.868 629.777 301.71 656.476 292.008 684.779C289.421 692.541 286.523 700.794 284.04 709.331L281.349 719.007ZM187.411 381.079C179.21 388.323 182.237 484.951 214.886 533.045L215.481 533.925V534.96C219.336 593.998 254.469 654.95 273.355 687.599C275.606 691.532 277.624 695.024 279.383 698.155C281.116 692.67 282.953 687.367 284.713 682.192C294.492 653.734 302.822 629.182 295.811 593.092C292.474 576.173 287.248 569.808 282.177 563.47C276.563 556.511 271.234 549.965 270.095 532.218C268.491 507.537 277.857 491.6 286.368 477.526C293.586 465.393 299.847 454.889 297.493 440.996C293.121 414.996 262.334 392.333 235.609 382.295C214.654 374.456 196.182 373.964 187.411 381.079Z" fill="#077594"/>
<path d="M135.355 624.835L129.689 619.661C122.212 612.883 114.839 606.338 107.724 600.025C74.7647 570.817 43.6159 543.109 4.08491 490.694L3.59336 490.047L3.41226 489.271C-2.12415 465.987 1.4978 458.019 3.41226 453.672C3.57725 453.344 3.72408 453.007 3.85207 452.663C7.16357 443.919 12.5448 440.375 30.3441 428.603C38.6228 423.17 49.9285 415.668 65.2442 404.957C106.25 376.24 175.636 370.859 183.656 375.361L185.778 376.576L185.622 379.008C183.785 408.605 183.475 421.204 189.943 467.358L190.176 468.988L189.141 470.282C185.157 475.456 167.538 486.684 152.921 489.426C141.95 491.481 130.762 492.142 119.625 491.392C114.891 491.237 109.51 491.082 102.835 491.082C102.063 491.119 101.299 491.249 100.558 491.47C104.361 495.273 107.388 498.171 110.415 501.068C114.994 505.466 119.729 510.02 127.309 517.755C146.842 537.702 142.832 566.263 138.77 596.507C137.838 603.233 136.881 610.167 136.183 617.203L135.355 624.835ZM10.8114 486.684C49.618 538.167 80.3788 565.41 112.925 594.23C118.28 598.964 123.765 603.854 129.353 608.847C129.922 604.294 130.517 599.818 131.138 595.446C135.174 565.927 138.692 540.418 121.824 523.188C114.322 515.427 109.613 511.029 105.086 506.682C101.748 503.448 98.4109 500.24 93.987 495.842C92.9765 494.996 92.2561 493.856 91.9267 492.58C91.5973 491.304 91.6754 489.957 92.1501 488.728C93.9869 484.33 100.688 483.321 102.887 483.321C109.691 483.321 115.124 483.476 119.91 483.631C130.473 484.356 141.084 483.756 151.498 481.846C162.685 479.125 173.118 473.926 182.026 466.634C176.257 425.24 175.921 411.451 177.706 381.777C164.253 380.354 104.93 386.692 69.7199 411.373C54.3266 422.161 42.9433 429.664 34.6645 435.149C16.917 446.842 13.502 449.248 11.1218 455.483C10.9666 455.897 10.7597 456.363 10.5268 456.906C9.07803 460.062 6.10285 466.685 10.8114 486.684Z" fill="#077594"/>
<path d="M268.461 107.524C262.33 112.543 262.847 111.87 260.053 115.285C256.587 119.657 243.936 137.146 242.771 142.553C247.221 144.39 282.432 106.334 280.285 104.626C278.224 104.152 276.082 104.167 274.029 104.67C271.976 105.173 270.069 106.151 268.461 107.524Z" fill="#E05E48"/>
<path d="M448.94 423.508C446.534 402.811 401.467 416.187 380.511 375.673C363.359 342.506 376.553 310.995 355.365 289.858C343.438 287.892 325.82 274.905 319.895 265.333C298.345 230.51 303.467 227.664 307.839 220.886C309.392 223.965 315.859 250.094 330.451 265.41C333.038 268.204 354.744 282.356 379.606 277.958C420.172 270.791 430.934 230.018 420.534 178.043C414.92 149.973 390.627 131.76 375.673 115.487C367.835 145.523 395.62 192.686 363.85 208.183C356.813 211.624 361.496 146.843 325.613 117.945C301.553 123.119 292.291 113.029 289.264 102.086C280.752 102.966 259.461 107.571 212.065 191.755C181.019 206.217 144.334 203.604 102.087 238.711C143.118 252.992 150.31 261.4 176.492 260.391C176.181 261.064 175.871 261.685 175.535 262.331C163.789 286.676 133.986 309.779 105.683 318.316C28.6904 341.6 1.03423 398.698 67.4971 408.141C87.1073 402.734 136.547 373.577 216.54 400.147C303.571 429.045 299.716 486.091 369.309 487.177C419.732 487.979 454.632 472.353 448.94 423.508Z" fill="#077594"/>
<path d="M322.741 95.8755C329.441 97.6606 341.497 98.2298 349.776 89.8734C355.788 83.5923 359.223 75.2825 359.4 66.5894C358.546 43.5124 335.754 11.4322 314.074 26.0494C312.366 26.1788 310.297 29.1539 309.288 30.1888C302.898 31.2754 300.103 31.0684 295.705 34.3282C291.773 37.2257 287.815 41.5721 289.341 45.1423C290.583 48.1175 293.92 47.2896 295.809 50.3165C294.283 56.2151 291.721 57.5604 291.876 64.0023C292.109 72.9537 296.87 77.4811 302.225 84.3887C305.924 89.0973 316.351 94.168 322.741 95.8755Z" fill="white"/>
<path d="M331.303 100.864C328.072 100.866 324.855 100.448 321.731 99.6226C315.108 97.8375 303.621 92.4563 299.275 86.9716C298.576 86.0661 297.878 85.2124 297.205 84.3845C292.574 78.7188 288.228 73.3893 287.995 64.2827C287.864 60.7674 288.658 57.2794 290.298 54.1671C290.686 53.3392 291.048 52.5372 291.384 51.58L290.789 51.2954C289.684 50.9079 288.67 50.2999 287.807 49.5083C286.944 48.7167 286.251 47.7579 285.77 46.6904C283.752 41.9301 286.521 36.3419 293.532 31.1677C297.039 28.6088 301.203 27.1013 305.536 26.8214L307.424 26.5626C308.725 24.7104 310.517 23.2587 312.599 22.3715C316.156 19.9825 320.305 18.6217 324.586 18.4391C328.868 18.2565 333.117 19.2592 336.866 21.3367C350.81 28.4254 362.737 48.6307 363.332 66.43C363.172 76.1635 359.326 85.4739 352.569 92.4822C349.768 95.2337 346.441 97.3938 342.788 98.8338C339.135 100.274 335.229 100.964 331.303 100.864ZM323.852 92.12C326.284 92.7668 338.754 95.5867 347.136 87.1527C352.378 81.6626 355.409 74.4309 355.648 66.8439C355.105 51.8387 344.912 34.2205 333.425 28.3736C330.786 26.8908 327.778 26.1953 324.756 26.3696C321.735 26.5438 318.826 27.5805 316.376 29.3567L315.522 29.9259H314.979C314.332 30.5044 313.735 31.1362 313.194 31.8145C312.806 32.2543 312.469 32.6682 312.185 32.9528L311.305 33.8583L310.063 34.0653L306.674 34.5827C303.604 34.6826 300.633 35.691 298.137 37.4802C293.946 40.5848 292.807 43.146 292.962 43.6893C293.296 43.9075 293.651 44.0897 294.023 44.2326C296.157 45.0315 297.973 46.5025 299.197 48.4237L300.077 49.8208L299.637 51.4248C299.081 53.4608 298.345 55.4435 297.438 57.3492C296.292 59.3813 295.737 61.6931 295.834 64.024C295.989 70.4917 298.887 74.0361 303.285 79.4173L305.458 82.0044C308.304 85.6263 317.669 90.3349 323.827 91.9906L323.852 92.12Z" fill="#077594"/>
<path d="M314.069 26.1534C317.95 23.8768 320.33 22.9195 327.962 25.2479C325.116 32.6988 327.367 36.8382 329.954 39.9686C333.059 43.7199 334.171 47.1349 347.909 53.8355C348.115 66.771 353.083 71.1174 356.213 73.4716C362.345 77.9215 360.87 77.2488 364.388 72.4627C369.123 65.9949 365.992 56.0863 371.167 46.2035C377.143 49.2822 379.549 59.7341 389.794 37.873C390.539 38.6763 391.491 39.2583 392.545 39.555C393.6 39.8517 394.716 39.8516 395.77 39.5546C397.6 39.2468 399.289 38.3763 400.601 37.064C401.913 35.7518 402.784 34.0632 403.092 32.2331C405.394 34.3546 407.205 35.0013 409.068 34.2252C411.37 33.2938 412.431 31.4053 412.405 27.24C412.708 27.8545 413.129 28.4029 413.645 28.8533C414.161 29.3037 414.761 29.6471 415.411 29.8637C416.061 30.0803 416.747 30.1657 417.43 30.115C418.113 30.0643 418.78 29.8785 419.39 29.5684C421.382 28.7147 422.159 26.6708 422.391 23.5922C424.608 24.8345 427.179 25.2904 429.687 24.8857C432.015 24.8857 435.663 20.3066 434.551 17.4866C433.438 14.6667 429.687 11.795 427.229 12.3124C426.376 12.4333 425.557 12.7246 424.819 13.1691C424.081 13.6136 423.44 14.2021 422.935 14.8995C423.05 14.3594 423.054 13.8013 422.945 13.2598C422.836 12.7183 422.617 12.2049 422.302 11.7514C421.987 11.2979 421.582 10.9139 421.112 10.6233C420.642 10.3326 420.118 10.1414 419.571 10.0616C418.409 9.95975 417.249 10.2766 416.301 10.955C415.352 11.6335 414.677 12.6287 414.397 13.7612C412.534 11.0188 412.353 5.99985 407.671 5.30133C405.084 4.93913 400.711 10.0616 399.366 13.2696C398.124 10.993 398.124 0.644531 387.465 0.644531C382.783 0.644531 380.842 3.87842 374.53 11.2775C368.82 7.78206 362.045 6.45101 355.437 7.52624C349.823 8.58696 348.141 8.92328 343.95 15.9343C334.326 15.3134 334.326 15.3134 326.306 17.2796C318.286 19.2458 313.5 24.7046 314.069 26.1534Z" fill="#077594"/>
<path d="M362.166 100.821L344.884 98.777C344.158 98.6549 343.463 98.3905 342.839 97.9989C342.216 97.6073 341.676 97.0963 341.25 96.4952C340.824 95.8942 340.522 95.2149 340.36 94.4966C340.198 93.7782 340.179 93.0348 340.305 92.3093L347.678 38.8596C347.732 38.1086 347.949 37.3784 348.314 36.72C348.679 36.0615 349.184 35.4907 349.792 35.0473C350.401 34.6038 351.098 34.2986 351.837 34.1527C352.576 34.0069 353.337 34.024 354.069 34.2028L370.057 38.5233C371.334 38.9318 372.424 39.7799 373.135 40.9167C373.846 42.0536 374.13 43.4056 373.938 44.7323L367.832 95.9312C367.797 96.6299 367.62 97.3141 367.313 97.9426C367.006 98.5711 366.575 99.1308 366.045 99.5878C365.515 100.045 364.899 100.39 364.232 100.602C363.565 100.814 362.863 100.888 362.166 100.821Z" fill="#E05E48"/>
<path d="M83.4565 317.927C82.7062 317.927 81.9301 317.927 81.1798 317.927C77.9994 317.849 74.8687 317.12 71.9809 315.785C69.0931 314.45 66.5095 312.538 64.3895 310.165C60.7934 305.664 59.681 299.636 61.078 292.288C64.7517 272.73 86.2506 246.212 101.618 237.287L108.215 233.715L107.206 239.279C110.181 247.195 111.449 251.283 108.215 257.983C105.017 265.155 102.421 272.579 100.454 280.181C97.401 290.167 99.6 295.16 101.385 299.17C102.912 302.689 105.033 307.475 99.807 312.39C95.2392 316.212 89.4067 318.187 83.4565 317.927ZM101.566 246.548C88.3203 256.405 71.5817 278.37 68.71 293.634C68.147 295.581 68.0105 297.626 68.3096 299.631C68.6087 301.635 69.3365 303.552 70.4433 305.25C71.9109 306.763 73.6627 307.972 75.5983 308.806C77.534 309.641 79.6154 310.085 81.7231 310.114C86.2445 310.673 90.8048 309.437 94.4258 306.673C95.6676 305.509 95.6676 305.509 94.2189 302.223C92.1751 297.592 89.0446 290.581 92.977 277.827C95.0663 269.846 97.8271 262.057 101.23 254.543C101.914 253.332 102.301 251.976 102.36 250.586C102.418 249.196 102.146 247.813 101.566 246.548Z" fill="#077594"/>
<path d="M373.471 114.298C369.098 113.988 353.291 98.1547 351.17 79.0101C350.368 71.8696 348.583 55.8813 358.414 49.2842C364.183 45.3776 373.678 44.9896 377.144 49.2842C381.284 54.4584 372.72 60.9779 372.151 79.5016C371.944 86.0729 373.108 87.2629 372.151 98.1805C371.453 106.175 371.194 109.486 373.471 114.298Z" fill="white"/>
<path d="M380.176 120.364L373.191 118.15C366.051 117.659 349.519 99.4197 347.32 79.3437C346.492 71.7118 344.5 53.8607 356.271 45.9442C363.386 41.158 375.105 40.4853 380.176 46.7203C383.643 50.9631 381.935 55.5941 380.176 60.4837C377.71 66.5415 376.335 72.9879 376.114 79.5248C376.055 81.3976 376.107 83.2722 376.27 85.1388C376.618 89.559 376.557 94.0017 376.089 98.4107C375.39 106.327 375.287 108.759 377.072 112.536L380.176 120.364ZM368.922 50.1094C365.968 50.0983 363.071 50.9234 360.566 52.4895C352.805 57.7931 354.331 72.3585 355.029 78.5676C356.531 88.5556 360.992 97.8644 367.836 105.292C367.836 103.119 368.069 100.713 368.327 97.8415C368.754 93.8368 368.815 89.8014 368.508 85.7856C368.331 83.6605 368.27 81.5272 368.327 79.3955C368.576 72.0181 370.117 64.7415 372.881 57.8966C374.278 54.0935 374.795 52.4637 374.174 51.7134C373.453 51.1038 372.616 50.6473 371.713 50.3715C370.81 50.0957 369.861 50.0066 368.922 50.1094Z" fill="#077594"/>
<path d="M145.909 732.051C161.639 674.514 168.624 652.601 169.711 611.207C156.775 616.795 143.038 625.436 132.301 616.795C133 633.353 130.283 638.967 124.98 657.154C121.668 668.486 104.283 678.446 103.351 690.993C101.98 710.319 127.748 735.595 145.909 732.051Z" fill="#077594"/>
<path d="M188.418 781.355C246.266 766.79 274.62 758.511 311.254 739.16C300 730.545 283.908 722.162 280.415 708.27C266.341 717.04 261.814 722.007 243.342 726.379C231.881 728.966 214.625 718.773 203.242 724.154C185.779 732.407 176.388 767.281 188.418 781.355Z" fill="#077594"/>
<path d="M339.789 125.446C339.235 123.622 338.261 121.952 336.944 120.573C335.627 119.194 334.006 118.142 332.209 117.504C321.007 119.651 303.155 128.991 294.773 142.935C275.137 175.636 289.961 209.812 303.983 230.897C306.053 233.484 309.908 235.269 312.366 232.785C304.32 206.5 293.454 200.033 298.343 175.222C302.974 151.731 320.23 138.253 335.287 128.318C337.152 130.368 338.88 132.537 340.462 134.812C340.659 131.674 340.432 128.524 339.789 125.446Z" fill="#E05E48"/>
</svg>
