<svg width="396" height="524" viewBox="0 0 396 524" fill="none" xmlns="http://www.w3.org/2000/svg">
<g clip-path="url(#clip0)">
<path fill-rule="evenodd" clip-rule="evenodd" d="M682.528 65.5066C684.812 66.3202 687.34 67.2204 690.173 68.232C749.638 82.2536 821.904 44.6515 869.296 19.9921C877.52 15.7125 884.996 11.8228 891.525 8.66035L733.836 213.737L345.135 213.737L344.503 215.443L11.288 215.443V215.102L-358.508 215.102L-530.789 86.3557C-459.184 20.1985 -366.77 4.9044 -317.852 4.9044C-289.088 4.9044 -233.073 10.5167 -131.677 49.3911C-115.488 55.5978 -107.525 56.5072 -93.8488 58.0692L-93.2017 58.1431C-38.7995 64.3605 -15.4849 49.8527 10.255 33.8357C23.0114 25.8978 36.3635 17.5893 54.3904 11.249C74.4795 3.57008 88.7634 2.82605 103.312 3.10854C137.71 3.77646 166.217 14.9157 208.393 31.3961L211.012 32.4195C214.751 33.8801 221.204 36.7884 228.893 40.2537C241.692 46.0226 257.917 53.3353 270.75 58.0832C295.387 65.2791 338.383 74.037 400.759 34.649C418.088 21.8369 436.641 11.4157 456.327 5.20101C483.757 -3.45848 532.886 -8.2693 642.501 49.6878C661.503 58.0199 664.082 58.9381 682.528 65.5066Z" fill="url(#paint0_linear)"/>
<path fill-rule="evenodd" clip-rule="evenodd" d="M316.326 89.6778C294.012 88.5431 269.274 78.9615 260.09 74.6815C189.88 41.9623 147.959 29.6709 113.876 26.9659C58.3812 22.5616 26.9175 50.0303 8.37067 66.2222C5.93329 68.3501 3.71899 70.2833 1.70251 71.9237C-14.3129 83.0029 -39.3 94.6196 -95.0498 85.0792C-113.667 81.8933 -120.61 79.0586 -127.368 76.2996C-129.713 75.3424 -132.035 74.3943 -134.815 73.4438C-229.676 41.0072 -285.811 29.2579 -312.298 29.991C-412.357 32.7606 -514.773 96.7923 -541.189 124.241L-422.459 217.396L25.4561 217.396L25.4719 217.487L348.674 217.487V225.11L840.323 225.11L895.811 37.6114C891.976 39.6656 887.745 42.0051 883.154 44.5429C837.147 69.9793 755.12 115.33 676.084 92.7936C659.373 85.9869 656.918 84.747 644.831 78.6417C643.207 77.8215 641.409 76.9134 639.379 75.8922C542.07 26.9314 487.429 24.094 460 32.7535C442.794 38.1852 425.69 48.5325 409.67 60.7484C366.193 89.7114 337.462 90.7525 316.326 89.6778Z" fill="url(#paint1_linear)"/>
<path fill-rule="evenodd" clip-rule="evenodd" d="M661.044 120.984C668.771 125.295 674.541 128.516 688.953 131.585C752.39 145.094 829.367 107.514 881.167 82.2254C883.339 81.1647 885.468 80.1257 887.549 79.1129L733.496 214.761L374.268 214.761L348.079 214.761L62.3417 214.761L62.517 215.102L-357.145 215.102L-538.129 156.677C-528.059 142.238 -385.126 64.2051 -318.325 64.2051C-289.527 64.2051 -231.093 64.2051 -131.895 108.658C-120.126 113.932 -102.99 119.344 -80.3453 121.792C-56.4685 124.373 -39.4236 124.249 -20.7261 117.314L-20.7482 117.287C-20.6723 117.271 -20.5964 117.254 -20.5204 117.238C-15.5758 115.392 -10.5135 113.069 -5.17706 110.194C-0.0387573 106.884 5.31165 102.76 11.02 98.3594C29.8101 83.8754 52.4786 66.4019 84.2258 65.1405C102.29 61.7322 145.234 61.0506 238.279 105.017C252.934 111.942 264.863 115.581 278.836 118.989C305.604 126.084 325.047 126.466 364.02 116.092C397.2 106.3 416.426 94.3986 435.074 82.8553C442.951 77.9788 450.726 73.1662 459.405 68.6036C484.866 55.2197 546.52 68.6036 645.582 113.09C652.327 116.119 656.959 118.704 661.044 120.984Z" fill="url(#paint2_linear)"/>
<path fill-rule="evenodd" clip-rule="evenodd" d="M-102.379 170.14C-114.909 166.551 -119.589 164.198 -125.756 161.096C-128.015 159.959 -130.474 158.723 -133.591 157.288C-232.125 111.943 -289.714 111.943 -318.478 111.943C-372.275 111.943 -476.054 169.155 -486.109 183.604L-356.463 214.761H-16.7972L0.811401 524L404.94 524V214.761L731.792 214.761L894.586 126.608C885.552 130.067 874.614 134.662 862.462 139.767C801.69 165.299 710.525 203.6 674.86 176.444C670.49 173.116 665.07 170.768 659.595 168.395C654.494 166.185 649.345 163.954 644.952 160.89C545.89 116.404 486.205 107.744 458.775 116.404C441.584 121.831 421.85 133.86 403.742 147.244C351.056 175.561 303.859 175.172 277.813 168.068C269.08 164.927 265.242 163.432 260.158 161.453L260.157 161.453C257.306 160.343 254.062 159.08 249.344 157.288C172.602 120.606 145.618 117.353 117.831 114.004C112.733 113.39 107.609 112.772 102.145 111.944C53.5125 113.156 38.0516 125.398 20.6832 139.151C10.3502 147.333 -0.657867 156.05 -19.7277 163.297L-19.7104 163.602C-49.196 175.433 -69.4866 174.559 -102.379 170.14Z" fill="url(#paint3_linear)"/>
</g>
<defs>
<linearGradient id="paint0_linear" x1="591.3" y1="253.483" x2="591.3" y2="3.70235" gradientUnits="userSpaceOnUse">
<stop stop-color="#FEE7BB"/>
<stop offset="1" stop-color="#FEE7BB"/>
</linearGradient>
<linearGradient id="paint1_linear" x1="594.977" y1="347.759" x2="594.977" y2="29.7485" gradientUnits="userSpaceOnUse">
<stop offset="0.75" stop-color="#FEF0D5"/>
<stop offset="0.959899" stop-color="#FCF3E1"/>
</linearGradient>
<linearGradient id="paint2_linear" x1="589.3" y1="337.301" x2="589.3" y2="65.2488" gradientUnits="userSpaceOnUse">
<stop offset="0.708333" stop-color="#FAF2DD"/>
<stop offset="0.885417" stop-color="#FEF7ED"/>
</linearGradient>
<linearGradient id="paint3_linear" x1="593.753" y1="881.923" x2="593.753" y2="115.455" gradientUnits="userSpaceOnUse">
<stop offset="0.682292" stop-color="#FAF1DF"/>
<stop offset="0.713011" stop-color="#F9F2E0"/>
<stop offset="0.918053" stop-color="#FCF9F2"/>
</linearGradient>
<clipPath id="clip0">
<rect width="395" height="524" fill="white" transform="translate(0.810547)"/>
</clipPath>
</defs>
</svg>
