<svg width="383" height="250" viewBox="0 0 383 250" fill="none" xmlns="http://www.w3.org/2000/svg">
<path d="M108.119 49.8713C108.271 49.858 108.423 49.8535 108.575 49.8577C112.154 49.9617 115.405 55.4239 117.988 65.6554C119.492 71.8337 120.55 78.1118 121.156 84.4416C120.611 83.9584 120.112 83.4258 119.665 82.8505C117.412 80.0752 114.673 77.7327 111.582 75.9372L111.188 75.7029C109.737 74.8438 108.094 73.8725 107.086 71.8764C105.799 69.3184 104.716 65.4257 104.705 65.3837L104.47 64.5397L103.828 65.1367C103.248 65.6749 103.346 66.7484 103.487 68.2395C103.63 69.9304 103.837 72.0372 103.047 73.675C101.726 76.4145 98.7291 78.7175 95.5884 79.4046C90.8462 80.4487 85.9576 77.5278 83.2094 74.7115C80.8646 72.318 79.6312 69.6411 80.055 67.8987C80.3541 66.6666 81.5068 65.9014 84.0803 64.2912C85.9858 63.0981 87.4046 62.0605 88.6552 61.1442C90.4332 59.8369 91.7207 58.8925 93.3363 58.3237C98.1582 56.6196 101.026 54.3525 103.332 52.5329C105.159 51.0858 106.524 50.0063 108.119 49.8713Z" fill="white"/>
<path d="M121.159 44.8569C121.336 44.8419 121.513 44.8269 121.687 44.8122C130.206 44.5695 133.972 55.4006 137.295 64.9554C138.3 67.855 139.263 70.6261 140.309 72.9368C139.715 72.5907 139.03 72.2096 138.269 71.7885C134.306 69.5926 128.316 66.2759 125.794 61.6981C125.006 60.2628 124.332 58.7681 123.777 57.2276C123.243 55.809 122.889 54.875 121.896 54.9126C121.794 54.9151 121.695 54.9406 121.605 54.9872C121.515 55.0338 121.436 55.1002 121.376 55.1815C121.122 55.5207 121.23 55.9472 121.427 56.7195C121.772 58.0899 122.42 60.6378 121.043 63.3605C120.178 65.0761 119.699 65.6165 119.304 65.7928C117.524 59.3206 115.681 54.4176 112.276 50.2608C113.627 47.5295 117.529 45.1642 121.159 44.8569Z" fill="white"/>
<path d="M122.342 86.1176L122.294 85.3469C121.729 78.6207 120.636 71.9493 119.024 65.3948C116.27 54.4994 112.766 48.9123 108.603 48.7827C106.42 48.7211 104.763 50.0288 102.665 51.688C100.423 53.4594 97.6478 55.683 92.98 57.3098C91.2152 57.9305 89.8032 58.964 88.0184 60.2754C86.7847 61.1795 85.3865 62.2083 83.5115 63.381C80.9648 64.9711 79.4431 65.9317 79.0163 67.6387C78.482 69.7618 79.8065 72.7558 82.4444 75.4494C85.3841 78.4602 90.6528 81.5702 95.8162 80.4405C99.2582 79.6851 102.55 77.1501 104.008 74.1312C104.855 72.3743 104.755 70.3049 104.586 68.5662C105.02 69.8635 105.536 71.1316 106.132 72.3626C107.278 74.6362 109.142 75.7387 110.641 76.6222L111.018 76.8545C114.008 78.5917 116.657 80.8584 118.836 83.5439C119.827 84.7167 120.545 85.5628 121.59 85.8885L122.342 86.1176ZM108.12 49.8732C108.272 49.8599 108.424 49.8554 108.576 49.8596C112.155 49.9636 115.406 55.4258 117.989 65.6573C119.493 71.8356 120.552 78.1138 121.157 84.4435C120.612 83.9603 120.113 83.4277 119.666 82.8524C117.413 80.0771 114.674 77.7346 111.583 75.9391L111.189 75.7048C109.738 74.8458 108.095 73.8744 107.087 71.8783C105.8 69.3203 104.717 65.4276 104.706 65.3856L104.471 64.5416L103.829 65.1386C103.249 65.6768 103.347 66.7503 103.488 68.2414C103.631 69.9323 103.838 72.0391 103.048 73.6769C101.727 76.4164 98.7302 78.7194 95.5894 79.4065C90.8472 80.4506 85.9587 77.5298 83.2104 74.7134C80.8657 72.3199 79.6323 69.6431 80.056 67.9006C80.3552 66.6686 81.5079 65.9033 84.0814 64.2931C85.9869 63.1 87.4057 62.0624 88.6562 61.1461C90.4342 59.8388 91.7217 58.8944 93.3373 58.3257C98.1592 56.6215 101.027 54.3544 103.333 52.5348C105.16 51.0877 106.525 50.0082 108.12 49.8732Z" fill="#077594"/>
<path d="M143.422 76.6249L142.148 74.2336C140.785 71.7141 139.591 68.27 138.322 64.625C134.881 54.7233 130.982 43.5 121.678 43.7626C117.886 43.8731 112.793 46.3427 111.151 50.1483L111.023 50.4519L111.234 50.7019C114.764 54.8694 116.603 59.8871 118.42 66.5952L118.545 67.056L119.017 66.9839C120.095 66.8176 120.748 66.3482 122.005 63.8569C122.998 61.8256 123.233 59.5066 122.669 57.3172L122.779 57.6077C123.353 59.1988 124.049 60.743 124.862 62.2262C127.532 67.07 133.683 70.4766 137.755 72.7311C139.298 73.5858 140.635 74.3259 141.322 74.889L143.422 76.6249ZM121.161 44.8632C121.338 44.8482 121.516 44.8332 121.689 44.8185C130.209 44.5758 133.975 55.4069 137.297 64.9617C138.303 67.8613 139.266 70.6324 140.311 72.9431C139.718 72.597 139.032 72.2159 138.272 71.7948C134.308 69.5989 128.319 66.2822 125.796 61.7044C125.008 60.2691 124.334 58.7744 123.779 57.2339C123.245 55.8153 122.891 54.8813 121.898 54.9189C121.797 54.9214 121.697 54.9469 121.607 54.9935C121.517 55.0401 121.439 55.1065 121.378 55.1878C121.125 55.527 121.232 55.9535 121.43 56.7258C121.774 58.0962 122.422 60.6441 121.046 63.3668C120.181 65.0824 119.702 65.6228 119.306 65.7991C117.526 59.3269 115.683 54.4239 112.279 50.2671C113.628 47.5252 117.53 45.1599 121.16 44.8526L121.161 44.8632Z" fill="#077594"/>
<path d="M94.5765 22.6496C97.5349 25.5017 100.139 27.2021 105.971 33.5561C109.184 37.0579 109.403 44.5761 112.543 44.928C112.947 44.976 113.709 45.3363 114.68 45.3826C113.904 46.2909 111.772 46.068 111.409 47.1376C111.068 48.1375 111.825 47.8414 112.821 49.2281C112.67 49.8049 112.093 50.1144 111.717 50.3105C108.295 52.0639 107.085 50.8953 104.598 52.3411C103.791 52.8486 99.9216 54.2472 98.3595 57.3463C94.1911 65.5894 91.9966 67.8816 89.5413 68.1894C86.2959 68.6104 85.5276 68.4755 82.8047 67.0137C82.3188 66.7119 81.7458 66.5815 81.177 66.6432C80.6083 66.705 80.0767 66.9553 79.6668 67.3543C78.6869 66.9981 77.6901 62.434 78.9066 58.7108C80.1825 54.8041 82.4512 54.1908 82.1881 51.082C82.0521 49.4761 82.2025 48.7636 82.0623 47.3188C83.6838 49.7043 85.9152 51.6114 88.5242 52.8413C94.6051 55.7183 97.8772 51.564 97.5708 51.7399C96.3002 52.4616 94.5491 52.9061 93.4895 52.7459C92.043 52.5292 89.3754 52.605 85.3377 49.2337C83.5631 47.8216 82.1909 45.9678 81.3588 43.8581C80.4359 41.3907 80.6904 39.2091 81.2277 34.8437C81.7551 30.5719 82.8035 28.7016 84.739 26.2599C85.4649 25.3452 86.1823 23.5708 87.9905 23.6748C89.5118 23.7638 90.1596 24.4158 91.5409 24.2418C93.0137 24.0529 93.6861 21.7895 94.5765 22.6496Z" fill="#077594"/>
<path d="M108.36 45.654L115.791 42.1688C115.829 42.1519 115.861 42.1249 115.884 42.0908C115.907 42.0567 115.92 42.0168 115.921 41.9757L116.805 30.3583C116.808 30.318 116.8 30.2777 116.782 30.2413C116.765 30.205 116.738 30.1738 116.705 30.1507C116.672 30.1277 116.633 30.1136 116.593 30.1098C116.553 30.1061 116.512 30.1127 116.475 30.1292L108.515 33.7663C108.475 33.7842 108.441 33.8128 108.417 33.8489C108.393 33.8851 108.38 33.9272 108.378 33.9707L108.03 45.4249C108.027 45.4655 108.034 45.5064 108.051 45.5433C108.069 45.5803 108.095 45.612 108.129 45.6353C108.162 45.6586 108.201 45.6725 108.242 45.6758C108.283 45.6791 108.324 45.6716 108.36 45.654Z" fill="#E05E48"/>
<path d="M107.846 45.6094L98.9325 46.0069C98.8308 46.011 98.7313 45.9764 98.6541 45.91C98.5769 45.8437 98.5278 45.7505 98.5166 45.6493L97.3849 33.4599C97.3818 33.4018 97.3916 33.3437 97.4134 33.2898C97.4352 33.2358 97.4686 33.1873 97.5111 33.1476C97.5537 33.1079 97.6045 33.078 97.6599 33.0601C97.7152 33.0421 97.7738 33.0365 97.8316 33.0437L108.46 33.8042C108.565 33.8079 108.664 33.8518 108.737 33.9268C108.81 34.0018 108.851 34.1021 108.851 34.2066L108.825 45.448C108.798 45.643 108.17 46.1032 107.846 45.6094Z" fill="#E05E48"/>
<path d="M114.203 35.8488C115.677 35.8097 117.477 39.2705 117.025 42.2399C116.79 43.6878 115.229 45.4409 114.681 45.3802C115.055 44.1489 115.124 44.0324 114.351 42.327C113.363 40.1471 112.307 39.9044 112.281 38.6178C112.254 37.3312 113.255 35.8755 114.203 35.8488Z" fill="white"/>
<path d="M114.759 45.9181C115.741 45.8349 117.321 43.8375 117.554 42.3255C117.912 39.971 116.991 37.4819 115.893 36.2396C115.352 35.6249 114.743 35.3087 114.19 35.3126C112.836 35.3451 111.719 37.1606 111.746 38.6221C111.763 39.4953 112.162 39.9935 112.625 40.572C113.125 41.1697 113.541 41.8322 113.863 42.5415C114.531 44.0202 114.52 44.0604 114.199 45.1229L113.984 45.8337L114.619 45.9049C114.665 45.9133 114.712 45.9177 114.759 45.9181ZM114.209 36.3856C114.385 36.4158 114.553 36.4806 114.703 36.5764C114.854 36.6722 114.983 36.797 115.085 36.9435C115.997 37.9766 116.785 40.1556 116.492 42.1797C116.329 42.9151 115.98 43.5962 115.478 44.1578C115.474 43.644 115.283 43.1246 114.831 42.1275C114.476 41.3361 114.012 40.5979 113.453 39.9342C113.014 39.3823 112.82 39.1167 112.81 38.6283C112.791 37.5946 113.627 36.4171 114.211 36.4034L114.209 36.3856Z" fill="#077594"/>
<path d="M97.6046 51.7262C98.0558 52.2486 101.538 50.8292 103.346 47.845C103.791 47.1147 105.132 44.9125 104.202 43.074C103.855 42.3894 103.1 41.575 102.161 41.5295C100.727 41.4546 100.198 42.7132 99.7986 44.0716C99.383 45.4884 99.6632 46.6893 99.3676 48.428C98.9757 50.7569 98.4954 50.6083 97.6046 51.7262Z" fill="white"/>
<path d="M98.0996 52.3612C99.4502 52.2469 102.259 50.6739 103.81 48.122C104.293 47.3349 105.754 44.9405 104.687 42.8352C104.28 42.0271 103.38 41.0572 102.2 40.9964C100.182 40.8959 99.5834 42.9387 99.2955 43.9235C99.0885 44.7132 98.9905 45.5275 99.0041 46.3438C99.003 47.0129 98.951 47.6809 98.8483 48.342C98.5883 49.91 98.3142 50.1724 97.8192 50.6927C97.5933 50.9145 97.3807 51.1495 97.1825 51.3964L96.905 51.7447L97.1973 52.077C97.3132 52.193 97.4555 52.2792 97.612 52.3281C97.7684 52.3771 97.9345 52.3873 98.0958 52.358L98.0996 52.3612ZM101.927 42.0656C101.999 42.0543 102.073 42.048 102.146 42.047C102.821 42.0828 103.446 42.7225 103.738 43.3047C104.535 44.876 103.306 46.8901 102.902 47.5527C101.959 49.0575 100.595 50.2528 98.9797 50.9907C99.3844 50.4995 99.6723 49.8932 99.9044 48.5026C100.014 47.7886 100.072 47.0678 100.079 46.3456C100.063 45.6227 100.146 44.9009 100.326 44.2005C100.762 42.7283 101.196 42.1274 101.927 42.0656Z" fill="#077594"/>
<path d="M142.005 74.0742C142.104 80.1353 140.753 82.2739 140.122 84.9443C145.738 84.1334 155.16 84.3105 160.574 82.7669C162.025 79.6165 160.088 74.6215 157.58 73.9305C155.073 73.2394 153.121 76.4965 148.728 76.647C145.146 76.7645 143.951 75.9767 142.005 74.0742Z" fill="#077594"/>
<path d="M121.731 85.0028C120.316 90.8921 118.677 92.616 117.397 95.0414C123.04 95.6527 132.122 98.1722 137.75 98.0278C139.94 95.3432 139.308 90.02 137.052 88.7257C134.797 87.4314 132.092 90.0988 127.806 89.1513C124.295 88.3739 123.135 87.3331 121.731 85.0028Z" fill="#077594"/>
<path d="M101.969 12.6598C101.632 11.5065 100.564 8.45872 97.6486 6.79183C93.2735 4.28455 88.1126 6.83498 87.0432 7.36107C81.9233 9.89017 82.5005 13.4187 78.3082 14.7589C73.559 16.2677 70.527 12.5043 67.7634 14.484C65.4411 16.1516 64.7772 20.8348 66.9129 23.8387C69.2337 27.0875 73.9722 27.097 76.7274 25.9034C80.3645 24.3317 80.0347 20.9 83.3955 20.3228C84.7291 20.0921 86.1824 20.3903 89.9225 19.8667C90.5928 19.7707 91.4384 19.6384 91.5964 19.143C91.8807 18.2835 89.6758 17.5419 89.0546 15.6023C88.4645 13.735 89.4641 11.1191 90.8826 10.7099C92.4546 10.259 93.4624 12.8014 96.4298 13.5249C98.5106 14.0236 100.487 13.3743 101.969 12.6598Z" fill="#077594"/>
<path d="M89.7274 16.7793C89.5724 18.449 89.7597 21.3786 88.4987 24.113C89.6395 26.2443 94.1099 27.4296 93.9334 25.3024C93.7089 22.6509 93.0944 20.6214 95.0801 16.3262" fill="white"/>
<path d="M92.8952 26.9466C93.0571 26.9343 93.2174 26.9052 93.3734 26.8598C93.7195 26.7746 94.0221 26.5647 94.2231 26.2704C94.4241 25.976 94.5095 25.6179 94.4629 25.2645C94.4311 24.8887 94.4002 24.5236 94.3699 24.1656C94.1357 21.9897 93.9339 20.111 95.5796 16.5657L94.61 16.1193C92.8417 19.9464 93.0705 22.0584 93.3095 24.291C93.3395 24.6455 93.3695 25 93.3995 25.3545C93.413 25.4073 93.4155 25.4624 93.4067 25.5162C93.3979 25.5701 93.378 25.6215 93.3483 25.6673C93.3187 25.7131 93.2798 25.7522 93.2343 25.7823C93.1887 25.8123 93.1375 25.8325 93.0837 25.8418C92.0805 26.1373 89.9366 25.2727 89.1107 24.0788C90.0492 21.9214 90.1402 19.7073 90.2037 18.0525C90.2214 17.5869 90.2371 17.1821 90.2721 16.8364L89.1928 16.7385C89.1589 17.0984 89.14 17.5499 89.122 18.012C89.0588 19.6275 88.9681 21.8451 88.0132 23.8932L87.898 24.135L88.0251 24.3706C88.9023 26.0029 91.3177 27.0802 92.8952 26.9466Z" fill="#077594"/>
<path d="M90.7924 17.6037C88.7008 15.8386 89.2105 11.5683 92.9257 10.4969C93.9504 10.2031 96.5105 9.40443 98.3951 10.748C101.515 12.983 100.274 19.1575 99.1452 19.6101C97.6526 20.2398 97.2406 19.2108 97.1198 18.7533C96.569 19.5854 96.4708 19.5223 95.6342 19.5931C94.6361 19.6151 93.648 19.3896 92.7582 18.9368C92.0724 18.5393 91.4155 18.0938 90.7924 17.6037Z" fill="white"/>
<path d="M98.467 20.3606C98.7732 20.3292 99.0725 20.2497 99.3539 20.1248C100.205 19.7636 100.685 18.0485 100.848 16.6887C100.963 15.6365 101.171 12.0701 98.7133 10.3216C96.672 8.85567 94.0132 9.62697 92.8738 9.95905L92.7867 9.98427C91.8925 10.2193 91.0804 10.6963 90.4396 11.3627C89.7988 12.0292 89.354 12.8593 89.1542 13.762C88.9671 14.5224 88.9895 15.3193 89.2188 16.068C89.4481 16.8167 89.8759 17.4894 90.4567 18.0146C91.1052 18.5275 91.7878 18.9957 92.4997 19.4162C93.4836 19.9193 94.5771 20.1702 95.6819 20.1465L95.845 20.1327C96.2705 20.1601 96.6909 20.0278 97.0239 19.7615C97.1708 19.9486 97.3582 20.0999 97.5719 20.2043C97.8507 20.3362 98.16 20.3903 98.467 20.3606ZM95.2484 10.5542C96.241 10.4246 97.2471 10.6548 98.0846 11.2031C99.8065 12.4391 99.8751 14.9788 99.8233 16.0115C99.736 17.7647 99.1882 19.0107 98.9331 19.1608C98.6551 19.3088 98.3307 19.3439 98.0274 19.2589C97.9249 19.1893 97.8375 19.0998 97.7704 18.9956C97.7034 18.8915 97.6579 18.7749 97.6369 18.6528L97.3294 17.5078L96.6742 18.4987C96.3104 19.0508 96.3068 19.0511 95.7668 19.0825L95.5789 19.0984C94.6929 19.1006 93.819 18.8932 93.0285 18.4931C92.3679 18.1049 91.7348 17.6718 91.1337 17.1968C90.7051 16.7937 90.3915 16.2837 90.2252 15.7193C90.0588 15.1549 90.0457 14.5564 90.187 13.9852C90.341 13.2692 90.6928 12.6108 91.2025 12.0848C91.7121 11.5588 92.3591 11.1864 93.0699 11.01L93.1605 10.9844C93.8404 10.7719 94.5399 10.6278 95.2484 10.5542Z" fill="#077594"/>
<path d="M88.3367 12.9626C87.8915 14.0714 88.2189 15.2397 89.069 15.5819C89.9191 15.9241 90.9665 15.307 91.4121 14.2018C91.8576 13.0966 91.5299 11.9247 90.6798 11.5825C89.8297 11.2404 88.7788 11.8577 88.3367 12.9626Z" fill="#E05E48"/>
<path d="M90.7018 12.8989C91.0613 10.5656 91.6637 9.24719 93.8514 7.63392C95.47 6.42584 96.6545 6.50052 97.6493 6.78047C97.6598 6.48325 96.9011 5.99766 95.9745 5.93328C93.7113 5.76783 91.842 7.30417 91.4769 7.6314C89.849 9.10804 89.2039 10.5979 89.2935 12.4575C89.4684 12.6488 89.6909 12.7903 89.9382 12.8679C90.1855 12.9454 90.449 12.9561 90.7018 12.8989Z" fill="#E05E48"/>
<path d="M337.714 107.711L344.792 109.436L348.994 111.664L355.97 117.642L361.815 119.582L362.39 122.869L360.573 126.999L356.824 129.773L352.449 131.386L348.268 131.695L343.532 131.254L339.978 132.724L334.904 132.766L327.847 133.578L320.452 134.874L313.539 136.508L302.589 139.273L295.05 139.747L291.547 139.09L290.899 135.392L294.042 133.995L303.276 131.107L319.207 125.352L328.03 122.536L324.024 119.003L319.873 114.648L317.264 114.258L315.302 117.566L312.273 124.449L307.025 128.333L300.256 130.789L293.61 131.529L299.638 122.427L303.078 115.473L305.163 110.449L308.357 106.925L312.927 104.007L318.823 103.821L326.723 105.402L337.714 107.711Z" fill="white"/>
<path d="M284.395 134.919C284.576 132.662 285.062 130.348 282.814 128.297C280.759 126.418 277.078 125.843 275.308 127.571C275.805 131.443 276.713 134.018 277.365 136.571C278.17 135.917 278.58 135.265 280.412 134.778C282.43 134.241 283.204 134.664 284.395 134.919Z" fill="#077594"/>
<path d="M351.581 132.208C346.504 133.098 340.594 131.851 335.708 128.72C328.323 124 325.077 121.686 320.273 116.212C318.915 114.664 318.2 115.284 317.625 115.781C316 117.187 315.386 118.749 314.674 120.543C314.292 121.567 313.849 122.567 313.349 123.538C309.882 130.004 301.003 131.418 295.689 132.264C294.657 132.427 293.752 132.571 293.053 132.725L290.845 133.208L292.397 131.563C293.905 129.972 294.355 129.232 295.45 127.445C296.142 126.326 297.092 124.801 298.705 122.375C300.648 119.466 302.225 116.329 303.401 113.034C304.429 110.342 305.241 108.215 307.578 106.345C311.117 103.507 312.12 103.073 315.869 102.926C320.151 102.734 322.487 103.39 325.448 104.216C327.854 104.926 330.305 105.473 332.785 105.852C333.555 105.969 334.362 106.128 335.143 106.285C336.38 106.57 337.636 106.764 338.902 106.865L339.076 106.869L339.226 106.96C339.837 107.316 341.015 107.598 342.26 107.9C345.304 108.637 349.067 109.538 349.831 112.506C353.214 114.829 356.768 116.892 360.463 118.678C362.372 119.617 363.172 120.004 363.262 120.781C363.576 123.202 362.646 125.565 360.569 127.62C358.905 129.198 356.957 130.445 354.827 131.297C353.78 131.713 352.692 132.019 351.581 132.208ZM318.328 113.857C319.132 113.717 320.159 113.968 321.317 115.29C326.025 120.656 329.04 122.781 336.458 127.545C342.068 131.137 349.074 132.099 354.307 130.001C358.114 128.471 362.365 125.211 361.888 121.035C361.242 120.601 360.557 120.227 359.842 119.919C356.005 118.065 352.316 115.916 348.811 113.492L348.57 113.325L348.52 113.04C348.117 110.737 344.678 109.91 341.926 109.243C340.611 108.925 339.466 108.648 338.676 108.238C337.391 108.129 336.116 107.933 334.858 107.651C334.092 107.498 333.301 107.343 332.567 107.231C330.028 106.844 327.519 106.285 325.057 105.558C322.219 104.764 319.976 104.138 315.916 104.329C312.501 104.481 311.733 104.803 308.439 107.443C306.398 109.081 305.682 110.954 304.689 113.544C303.479 116.933 301.855 120.16 299.852 123.15C298.267 125.551 297.326 127.067 296.641 128.184C296.072 129.167 295.44 130.112 294.749 131.013L295.469 130.887C300.532 130.078 308.995 128.734 312.109 122.882C312.589 121.958 313.013 121.006 313.378 120.031C314.124 118.131 314.83 116.345 316.695 114.734C317.15 114.299 317.714 113.995 318.328 113.857Z" fill="#077594"/>
<path d="M340.883 133.406C338.945 133.674 336.995 133.844 335.04 133.917C330.3 134.206 323.815 134.603 316.955 136.377C305.229 139.436 295.079 142.077 291.401 138.89C289.818 137.526 289.95 136.785 290.631 135.424C290.775 135.137 290.938 134.811 291.101 134.411L291.24 134.075L291.581 133.998C293.144 133.654 295.244 132.897 297.903 131.943C301.008 130.829 304.873 129.441 309.478 128.146C313.093 127.147 316.643 125.925 320.108 124.487C322.599 123.485 324.582 122.684 328.011 122.066L328.354 122.006L328.611 122.258C333.058 126.641 340.098 129.734 343.486 130.658L344.129 130.832L343.98 131.48C343.743 132.551 342.705 133.087 340.883 133.406ZM321.946 133.893C326.251 133.189 330.593 132.736 334.95 132.535C337.833 132.356 340.795 132.176 342.034 131.676C338.24 130.434 332.154 127.542 327.909 123.503C324.827 124.085 323.067 124.8 320.653 125.782C317.142 127.238 313.543 128.475 309.879 129.487C305.318 130.792 301.481 132.172 298.392 133.261C295.873 134.166 293.846 134.893 292.252 135.285C292.117 135.585 291.995 135.839 291.881 136.057C291.386 137.046 291.403 137.061 292.314 137.842C295.444 140.542 306.196 137.745 316.586 135.041C318.411 134.569 320.199 134.199 321.946 133.893Z" fill="#077594"/>
<path d="M358.746 64.5799C360.293 63.0531 360.972 60.9141 360.93 60.4086C360.183 59.4781 359.733 59.051 358.359 58.9415C360.631 57.0471 359.537 53.344 358.128 51.1993C356.617 48.8957 350.384 49.0182 346.429 52.0069C341.935 55.3942 340.442 62.4196 342.789 66.6286C345.281 71.0988 351.63 71.5573 351.511 74.5745C351.439 76.4088 349.054 77.1274 349.284 79.2486C349.441 80.6892 350.739 82.1032 352.068 82.2561C354.361 82.5264 356.765 79.0453 357.164 75.9508C357.392 74.142 356.765 73.9547 356.372 70.7831C356.003 67.7878 356.733 66.5632 358.746 64.5799Z" fill="#077594"/>
<path d="M376.424 101.564C374.658 103.921 370.149 109.989 363.288 111.293C357.597 112.372 353.986 113.726 347.307 109.246C353.076 112.771 360.809 110.854 366.988 107.776C370.362 106.096 373.767 103.161 375.621 99.564C380.879 89.3744 365.128 74.7428 363.245 73.3462C362.033 74.8641 360.644 75.9245 359.771 75.7237C358.933 75.1841 358.736 74.7057 358.437 73.7429C358.088 72.6189 355.324 81.3173 353.173 88.7303C352.328 91.6412 349.131 99.2621 345.428 101.326C344.32 101.945 342.301 102.758 341.914 103.477C341.296 104.593 342.826 106.787 344.343 108.057C344.146 108.686 351.297 117.904 359.329 119.713C363.7 120.695 361.684 124.978 359.692 127.478C361.29 129.632 369.559 128.835 374.028 124.659C381.692 117.501 379.916 102.66 376.424 101.564Z" fill="#077594"/>
<path d="M342.388 105.525L338.945 105.722C338.824 105.727 338.705 105.695 338.603 105.631C338.501 105.567 338.42 105.473 338.372 105.362L333.547 93.6879C333.513 93.6025 333.5 93.5102 333.508 93.4187C333.517 93.3271 333.547 93.2389 333.596 93.1613C333.645 93.0836 333.712 93.0187 333.791 92.9719C333.871 92.9251 333.96 92.8977 334.051 92.892L337.937 92.6393C338.062 92.6319 338.186 92.6647 338.291 92.7329C338.396 92.8011 338.476 92.9012 338.52 93.0183L342.909 104.744C342.94 104.83 342.951 104.922 342.94 105.013C342.929 105.104 342.897 105.191 342.847 105.267C342.796 105.343 342.728 105.406 342.648 105.451C342.568 105.496 342.479 105.521 342.388 105.525Z" fill="#E05E48"/>
<path d="M344.349 108.037C343.379 108.561 340.978 108.097 338.596 106.721C337.954 106.348 333.876 104.01 334.307 101.32C334.512 100.067 335.697 98.8515 336.563 98.9899C337.584 99.1647 337.157 101.008 338.847 102.899C340.135 104.339 340.446 103.428 342.406 105.487C343.125 106.28 343.775 107.133 344.349 108.037Z" fill="white"/>
<path d="M343.969 108.888C342.572 109.133 340.373 108.552 338.248 107.326C336.327 106.215 333.177 103.948 333.621 101.21C333.865 99.7129 335.282 98.0886 336.674 98.3011C337.595 98.4476 337.852 99.2515 338.102 100.029C338.337 100.916 338.77 101.739 339.369 102.435C339.675 102.814 340.079 103.103 340.537 103.27C341.081 103.504 341.757 103.792 342.912 105.012C343.667 105.839 344.348 106.73 344.946 107.677L345.334 108.317L344.688 108.667C344.462 108.779 344.219 108.854 343.969 108.888ZM336.363 99.6785C335.958 99.7495 335.147 100.511 334.998 101.435C334.665 103.471 337.931 105.52 338.946 106.121C340.705 107.136 342.235 107.529 343.184 107.554C342.79 107 342.361 106.472 341.902 105.971C340.943 104.961 340.458 104.756 339.985 104.538C339.34 104.289 338.77 103.88 338.326 103.35C337.588 102.512 337.051 101.517 336.755 100.441C336.688 100.167 336.58 99.9043 336.435 99.6625C336.41 99.6641 336.386 99.6695 336.363 99.6785Z" fill="#077594"/>
<path d="M291.989 132.03C290.601 133.334 289.475 135.244 285.851 136.045C283.297 136.612 282.32 135.174 280.361 135.867C277.364 136.933 275.13 141.931 276.552 144.275C280.289 143.998 287.558 143.408 294.338 141.339C292.92 138.514 292.436 135.326 291.989 132.03Z" fill="#077594"/>
<path d="M361.503 66.8958C361.508 66.0784 361.42 65.2631 361.24 64.4656C362.24 64.3966 363.514 62.5392 362.58 61.1886C361.363 59.4313 358.875 60.6985 359.136 62.3508C359.156 63.1291 358.95 63.4092 358.553 63.723C357.619 64.4526 356.967 61.3581 355.336 61.9588C354.243 62.3626 352.754 64.8308 352.498 65.6114C352.04 67.0359 352.006 69.0831 352.867 69.5159C353.329 69.7464 353.66 69.3169 354.937 69.2169C355.619 69.7555 356.365 70.7817 358.781 70.2771C359.932 70.0436 361.53 68.6635 361.503 66.8958Z" fill="white"/>
<path d="M358.666 71.0172C356.404 71.4134 355.401 70.5526 354.751 69.9731L354.722 69.9464C354.432 69.9901 354.145 70.0568 353.865 70.146C353.659 70.2365 353.436 70.2832 353.211 70.2831C352.985 70.283 352.763 70.2361 352.556 70.1453C351.211 69.4719 351.327 66.9646 351.842 65.3993C352.109 64.5847 353.694 61.8344 355.099 61.3158C356.505 60.7972 357.353 61.9434 357.885 62.6213C357.998 62.7607 358.149 62.9537 358.262 63.0719C358.395 62.9459 358.452 62.8085 358.444 62.4173C358.389 61.8693 358.519 61.3186 358.813 60.853C359.107 60.3873 359.548 60.0335 360.067 59.8478C360.612 59.6184 361.22 59.588 361.784 59.7621C362.349 59.9361 362.835 60.3034 363.156 60.7996C363.426 61.2052 363.581 61.6768 363.604 62.1638C363.627 62.6509 363.517 63.135 363.286 63.5643C363.019 64.141 362.581 64.6216 362.031 64.941C362.142 65.5834 362.197 66.2343 362.195 66.8862C362.223 69.0675 360.277 70.6819 358.923 70.9686L358.666 71.0172ZM354.309 68.5967C354.48 68.5666 354.672 68.533 354.89 68.5231L355.162 68.5003L355.376 68.6715C355.47 68.7435 355.566 68.8258 355.666 68.9143C356.259 69.4296 356.869 69.9665 358.644 69.5955C359.541 69.4065 360.826 68.2616 360.81 66.8954C360.815 66.1247 360.731 65.3559 360.561 64.6043L360.424 63.8251L361.21 63.7688C361.403 63.7022 361.578 63.5943 361.725 63.4525C361.871 63.3108 361.984 63.1387 362.057 62.9483C362.173 62.7382 362.232 62.5008 362.227 62.2606C362.221 62.0203 362.152 61.7858 362.026 61.5811C361.885 61.3433 361.662 61.1655 361.399 61.0812C361.136 60.9969 360.851 61.012 360.598 61.1237C360.367 61.199 360.167 61.3491 360.031 61.5505C359.895 61.7519 359.829 61.9929 359.845 62.2356L359.861 62.3249C359.886 63.357 359.555 63.8323 359.011 64.2602C358.894 64.3572 358.759 64.4298 358.613 64.4735C358.468 64.5172 358.315 64.5312 358.164 64.5146C357.586 64.4461 357.21 63.9743 356.813 63.4671C356.249 62.7523 355.949 62.4723 355.603 62.6178C354.849 62.8985 353.452 65.0216 353.188 65.8321C352.7 67.3325 352.91 68.7497 353.204 68.8963L353.479 68.8092C353.752 68.7241 354.029 68.6555 354.31 68.6036L354.309 68.5967Z" fill="#077594"/>
<path d="M358.363 70.9514C359.062 72.5978 358.573 73.2176 358.726 75.6459C359.872 77.0228 362.413 74.8656 362.842 73.8635C361.989 71.8586 361.521 71.4913 360.829 69.6174C360.079 69.9043 358.9 70.4222 358.363 70.9514Z" fill="white"/>
<path d="M360.092 76.5809L360.016 76.5941C359.704 76.6544 359.381 76.6295 359.081 76.522C358.782 76.4145 358.517 76.2284 358.314 75.9832L358.206 75.8534L358.194 75.6823C358.153 74.9635 358.153 74.243 358.195 73.5242C358.239 72.625 358.266 72.0966 357.872 71.1575L357.733 70.8281L357.983 70.5791C358.726 69.8512 360.328 69.245 360.641 69.1336L361.13 68.956L361.311 69.4443C361.588 70.1832 361.926 70.8979 362.322 71.5808C362.606 72.1112 362.931 72.7123 363.333 73.6571L363.418 73.8615L363.334 74.0638C362.955 74.9297 361.451 76.3428 360.092 76.5809ZM359.238 75.4216C359.328 75.4882 359.431 75.5349 359.541 75.5584C359.651 75.5819 359.764 75.5817 359.874 75.5578C360.774 75.4249 361.884 74.431 362.261 73.8378C361.925 73.0724 361.653 72.5682 361.391 72.08C361.069 71.5041 360.781 70.9094 360.53 70.2991C359.987 70.5124 359.469 70.7847 358.985 71.1111C359.251 71.9014 359.342 72.7405 359.25 73.5694C359.212 74.1861 359.209 74.8044 359.238 75.4216Z" fill="#077594"/>
<path d="M285.267 96.1105C284.492 95.4981 283.834 94.7497 283.326 93.9019C282.995 93.2178 282.862 92.4543 282.943 91.6985C282.513 91.1739 281.632 91.7247 280.966 91.2683C279.99 90.5968 280.084 88.1206 281.139 86.4628C282.424 84.4325 284.811 84.1073 285.257 84.0548C288.342 83.7086 291.794 85.9697 292.245 88.299C292.565 89.962 291.243 91.3418 291.783 91.7824C292.03 91.987 292.985 90.7804 294.574 91.5201C295.623 92.0028 295.875 93.8967 295.461 94.736C294.763 96.1578 293.09 96.3466 292.455 95.9427C292.254 95.8113 292.02 95.7383 291.781 95.7318C291.541 95.7254 291.304 95.7856 291.096 95.9059C289.396 96.9237 287.088 97.3014 285.267 96.1105Z" fill="white"/>
<path d="M287.854 97.6454C289.149 97.6294 290.417 97.2671 291.526 96.5962C291.608 96.5548 291.7 96.5359 291.793 96.5415C291.885 96.547 291.974 96.5767 292.051 96.6276C292.369 96.8016 292.719 96.9077 293.081 96.9393C293.442 96.9709 293.806 96.9273 294.149 96.8112C294.594 96.6901 295.008 96.4754 295.364 96.1813C295.72 95.8873 296.008 95.5208 296.211 95.1062C296.559 94.2359 296.57 93.2669 296.242 92.3887C296.144 92.0524 295.978 91.7395 295.756 91.469C295.533 91.1985 295.258 90.976 294.947 90.8149C294.259 90.473 293.468 90.4055 292.733 90.626C293.048 89.8503 293.146 89.0032 293.016 88.176C292.491 85.3273 288.588 82.9298 285.147 83.2971C284.402 83.3862 281.857 83.8217 280.425 86.0618C279.234 87.9452 278.993 90.925 280.472 91.9428C280.929 92.2217 281.468 92.3347 281.999 92.2628H282.078C282.103 92.9747 282.282 93.6726 282.602 94.3088C283.17 95.2689 283.916 96.1113 284.8 96.7903C285.709 97.3748 286.773 97.6727 287.854 97.6454ZM291.757 94.9436C291.388 94.9441 291.025 95.0437 290.708 95.2321C289.375 96.0453 287.366 96.528 285.718 95.4472C285.05 94.9075 284.48 94.2561 284.034 93.5219C283.798 93.0046 283.693 92.4369 283.73 91.8693L283.809 91.5021L283.578 91.2031C283.38 90.9916 283.132 90.8329 282.858 90.7413C282.583 90.6497 282.289 90.6281 282.004 90.6784C281.817 90.71 281.626 90.6919 281.448 90.626C280.997 90.3165 280.892 88.3911 281.842 86.8907C282.891 85.2486 284.816 84.9129 285.383 84.8447C288.121 84.5352 291.154 86.6179 291.505 88.4593C291.574 89.1114 291.463 89.7699 291.185 90.3637C290.954 90.988 290.66 91.8431 291.321 92.4044C291.511 92.5223 291.732 92.5808 291.956 92.5723C292.179 92.5639 292.395 92.489 292.575 92.3572C292.815 92.1921 293.094 92.0934 293.385 92.0713C293.675 92.0492 293.966 92.1044 294.228 92.2313C294.467 92.3813 294.638 92.6184 294.705 92.8923C294.886 93.372 294.901 93.8984 294.747 94.3875C294.645 94.6009 294.498 94.7902 294.317 94.943C294.137 95.0958 293.925 95.2087 293.698 95.2741C293.436 95.364 293.152 95.364 292.89 95.2741C292.547 95.0549 292.148 94.94 291.741 94.9436H291.757Z" fill="#077594"/>
<path d="M315.133 156.439C317.331 155.002 324.754 155.605 326.517 159.917C327.204 161.591 327.015 163.899 325.992 164.434C324.87 165.022 324.77 162.257 321.029 161.245C318.931 160.678 317.793 161.192 316.832 160.3C315.657 159.209 315.526 158.443 315.133 156.439Z" fill="white"/>
<path d="M325.709 165.312C325.944 165.304 326.172 165.239 326.376 165.123C327.855 164.346 328.065 161.571 327.262 159.609C326.496 157.747 324.707 156.293 322.221 155.522C319.472 154.667 316.24 154.772 314.719 155.774L314.278 156.057L314.378 156.582L315.133 156.44L314.367 156.634C314.74 158.623 314.928 159.62 316.292 160.879C317.058 161.587 317.903 161.645 318.795 161.708C319.48 161.735 320.161 161.836 320.825 162.007C322.163 162.342 323.339 163.139 324.146 164.257C324.54 164.719 325.027 165.312 325.709 165.312ZM318.407 156.53C319.544 156.537 320.674 156.714 321.759 157.054C322.929 157.421 325.017 158.318 325.804 160.233C326.365 161.603 326.171 163.276 325.736 163.691C325.636 163.591 325.494 163.418 325.379 163.281C324.363 161.909 322.904 160.929 321.25 160.506C320.486 160.307 319.704 160.19 318.916 160.155C318.097 160.102 317.719 160.065 317.373 159.745C316.492 158.927 316.324 158.381 316.03 156.897C316.796 156.642 317.6 156.518 318.407 156.53Z" fill="#077594"/>
<path d="M253.281 143.754C252.269 142.237 246.655 140.081 242.941 142.972C241.808 143.853 240.475 145.595 240.942 146.88C241.519 148.491 243.838 149.294 245.989 148.454C246.718 148.16 247.065 147.143 248.644 146.004C251.655 143.832 252.363 144.95 253.281 143.754Z" fill="white"/>
<path d="M244.199 149.578C244.918 149.578 245.63 149.441 246.297 149.174C246.798 148.934 247.23 148.574 247.556 148.125C248.016 147.566 248.545 147.067 249.13 146.64C250.002 145.935 251.035 145.456 252.136 145.245C252.489 145.21 252.83 145.102 253.139 144.929C253.448 144.756 253.717 144.52 253.93 144.238L254.271 143.792L253.962 143.325C253.248 142.276 251.234 141.226 249.067 140.901C247.929 140.675 246.756 140.687 245.623 140.938C244.49 141.188 243.421 141.67 242.483 142.354C241.408 143.194 239.551 145.271 240.227 147.155C240.4 147.601 240.661 148.008 240.994 148.352C241.328 148.695 241.727 148.968 242.169 149.153C242.808 149.436 243.5 149.581 244.199 149.578ZM252.026 143.65L251.801 143.697C250.478 143.949 249.237 144.52 248.186 145.36C247.501 145.856 246.882 146.438 246.344 147.092C246.169 147.338 245.948 147.548 245.694 147.711C245.235 147.903 244.741 148.002 244.243 148.002C243.745 148.002 243.252 147.903 242.793 147.711C242.544 147.613 242.317 147.466 242.126 147.278C241.935 147.091 241.783 146.867 241.681 146.619C241.403 145.838 242.357 144.421 243.422 143.592C245.285 142.144 247.583 142.255 248.789 142.449C249.939 142.624 251.041 143.032 252.026 143.65Z" fill="#077594"/>
<path d="M282.975 176.214C283.437 179.792 285.409 187.194 290.44 195.1C292.896 198.961 309.363 216.95 316.398 223.807C315.785 216.557 316.398 199.334 307.978 193.862C305.439 192.451 303.21 190.541 301.426 188.249C299.684 185.935 300.796 183.438 299.264 181.35C295.356 176.02 282.608 173.234 282.975 176.214Z" fill="white"/>
<path d="M317.363 225.853L317.185 223.755C317.09 222.674 317.028 221.389 316.954 219.894C316.529 211.206 315.905 198.08 308.408 193.212L307.925 192.918C305.649 191.609 303.654 189.864 302.055 187.782C301.284 186.764 301.163 185.683 301.037 184.519C300.911 183.354 300.764 182.074 299.899 180.893C298.325 178.795 295.272 176.791 291.505 175.469C288.903 174.567 285.23 173.759 283.373 174.498C282.996 174.616 282.671 174.861 282.455 175.193C282.24 175.524 282.147 175.921 282.193 176.314C282.392 177.84 283.657 185.94 289.779 195.551C292.318 199.549 309.101 217.8 315.847 224.405L317.363 225.853ZM285.283 175.784C288.955 175.784 296.011 178.244 298.629 181.817C299.248 182.656 299.348 183.595 299.469 184.686C299.61 185.935 299.768 187.352 300.796 188.721C302.511 190.959 304.65 192.838 307.091 194.25C307.27 194.355 307.417 194.444 307.532 194.523C314.352 198.946 314.982 212.103 315.37 219.962C315.401 220.607 315.427 221.216 315.459 221.788C307.626 213.918 293.289 198.132 291.09 194.68C285.167 185.374 283.929 177.583 283.746 176.114C283.743 176.1 283.743 176.086 283.746 176.072C283.746 176.072 283.982 175.81 285.062 175.778L285.283 175.784Z" fill="#077594"/>
<path d="M275.089 171.67C271.757 179.187 254.891 178.411 250.909 183.699C249.66 185.357 253.008 187.088 256.937 192.502C262.456 200.094 262.241 213.094 264.282 216.724C258.548 211.105 248.517 203.493 239.415 189.318C238.22 187.563 237.581 185.489 237.581 183.366C237.581 181.243 238.22 179.169 239.415 177.414C244.918 169.666 252.882 165.301 253.579 165.117C264.245 162.352 276.259 169.026 275.089 171.67Z" fill="white"/>
<path d="M267.572 221.073L264.949 216.352C264.283 215.145 263.842 212.574 263.338 209.6C262.378 203.997 261.193 197.009 257.567 192.051C256.304 190.341 254.936 188.712 253.47 187.172C251.791 185.362 251.193 184.638 251.534 184.182C253.14 182.052 257.305 180.935 261.717 179.754C267.656 178.18 273.783 176.523 275.803 171.995C276.034 171.47 276.107 170.594 275.121 169.43C272.157 165.936 261.964 162.137 253.36 164.367C252.311 164.629 244.305 169.141 238.744 176.958C237.471 178.846 236.791 181.071 236.791 183.348C236.791 185.625 237.471 187.85 238.744 189.738C246.026 201.085 253.932 208.283 259.703 213.54C261.172 214.872 262.551 216.137 263.721 217.28L267.572 221.073ZM258.863 165.254C265.584 165.254 272.01 168.181 273.925 170.437C274.366 170.962 274.408 171.261 274.366 171.35C272.64 175.185 266.869 176.732 261.318 178.238C256.634 179.492 252.211 180.677 250.301 183.243C249.137 184.817 250.48 186.238 252.342 188.248C253.765 189.738 255.095 191.315 256.324 192.969C259.718 197.638 260.873 204.417 261.801 209.857C262.069 211.431 262.326 212.837 262.572 214.054C261.995 213.529 261.387 212.968 260.768 212.401C255.06 207.202 247.243 200.083 240.077 188.914C238.979 187.287 238.393 185.368 238.393 183.406C238.393 181.443 238.979 179.524 240.077 177.897C245.36 170.369 253.113 166.093 253.753 165.873C255.424 165.452 257.141 165.244 258.863 165.254Z" fill="#077594"/>
<path d="M290.408 102.41C290.062 102.828 289.629 103.164 289.138 103.395C288.647 103.625 288.112 103.744 287.569 103.743C286.476 103.771 285.41 103.398 284.574 102.693C281.652 106.89 279.805 116.229 272.759 126.485C265.819 136.584 255.851 142.565 253.28 143.755C255.835 146.226 262.487 145.455 269.953 142.507C271.086 144.479 267.33 149.023 260.688 152.065C254.76 154.783 252.179 152.726 246.969 155.36C241.618 158.062 234.866 163.896 236.162 167.793C238.26 174.089 256.968 166.802 278.793 175.295C294.295 181.334 299.478 190.74 310.836 189.46C320.164 188.411 326.968 180.647 326.171 176.749C325.531 173.601 319.398 174.954 311.356 169.614C303.067 164.121 298.592 150.859 297.92 146.914C296.582 144.033 297.721 144.621 293.881 136.699C292.978 134.842 290.25 130.524 291.257 130.115C291.63 129.963 296.577 139.154 297.946 143.157C301.755 154.379 309.362 156.488 315.133 156.441C313.312 153.686 306.66 146.431 301.094 131.395C296.115 117.907 292.511 105.783 290.408 102.41Z" fill="#077594"/>
<path d="M316.923 223.807C318.056 228.397 321.015 232.62 324.199 236.45C316.131 237.767 299.458 238.548 293.771 236.833C292.675 233.843 295.235 227.956 298.939 226.975C302.459 226.042 305.271 228.853 309.515 228.151C314.116 227.39 314.489 225.979 316.923 223.807Z" fill="#077594"/>
<path d="M264.245 216.723C267.917 218.695 270.157 220.217 275.262 220.841C273.457 226.523 270.278 234.082 262.304 237.104C260.945 237.629 255.032 237.382 250.117 236.894C247.814 233.804 249.172 227.698 252.939 226.187C256.612 224.718 260.079 226.544 262.241 224.839C264.402 223.134 264.423 221.602 264.245 216.723Z" fill="#077594"/>
<path d="M284.89 84.1114C286.952 81.7087 290.057 77.3596 293.016 77.5117C297.979 77.7793 300.828 84.4577 300.109 85.1134C299.679 85.5069 297.948 83.6917 297.732 85.0452C297.732 85.1869 299.306 85.2341 300.356 86.4355C302.785 89.2632 301.284 94.7769 300.098 95.055C299.264 95.2543 297.019 93.927 295.141 92.0174C294.27 91.1361 292.974 91.7761 291.699 92.0174C290.786 91.3616 291.358 88.3451 290.598 87.3221C288.819 84.9088 285.535 86.2938 284.89 84.1114Z" fill="#077594"/>
<path d="M289.338 109.954C289.579 109.388 291.085 104.414 292.165 105.49C293.125 106.539 294.51 107.756 294.641 109.571C294.641 110.279 294.689 111.518 294.18 111.67C293.998 111.231 293.784 110.807 293.54 110.4C291.043 112.651 290.523 115.972 290.392 120.284C290.308 123.348 290.78 128.762 291.672 130.619C291.111 130.939 291.079 130.755 290.906 130.619C287.633 128.248 287.213 114.996 289.338 109.954Z" fill="#E05E48"/>
<path d="M283.258 104.997C282.529 104.525 280.572 106.476 279.061 110.899C278.536 112.472 277.34 117.939 277.094 119.151C277.859 118.012 282.251 107.63 283.258 104.997Z" fill="#E05E48"/>
<path d="M286.804 97.2832C286.888 99.1666 286.017 100.683 285.309 103.138C285.912 104.911 289.097 103.663 289.857 102.849C289.752 100.562 289.621 98.9515 289.621 96.853C288.664 96.825 287.71 96.9708 286.804 97.2832Z" fill="white"/>
<path d="M286.804 104.835C288.147 104.794 289.432 104.277 290.429 103.377L290.645 103.141V102.816C290.613 102.186 290.582 101.609 290.555 101.063C290.477 99.6103 290.408 98.3617 290.408 96.8665V96.0796H289.622C288.549 96.06 287.482 96.2379 286.474 96.6042L286.002 96.8245V97.3492C286.054 98.4876 285.687 99.5263 285.225 100.838C285.01 101.457 284.764 102.16 284.533 102.936L284.465 103.172L284.548 103.409C284.668 103.768 284.883 104.087 285.172 104.331C285.461 104.576 285.811 104.736 286.185 104.794C286.39 104.828 286.597 104.842 286.804 104.835ZM289.06 102.511C288.494 102.91 287.266 103.393 286.505 103.235C286.375 103.217 286.254 103.158 286.159 103.068C286.348 102.438 286.547 101.877 286.741 101.331C287.198 100.219 287.487 99.0448 287.596 97.8475C288.01 97.7588 288.429 97.7009 288.85 97.6744C288.85 98.8706 288.929 99.9408 288.992 101.147C289.013 101.578 289.039 102.029 289.06 102.511Z" fill="#077594"/>
<path d="M50.1806 100.377L35.0554 93.9127L17.8076 94.82L14.1657 98.3896L8.84007 101.38L5.41112 104.005L3.90469 105.799L3.28209 108.579L4.06266 111.437L6.68832 114.866L10.6397 119.776L19.9199 130.14L23.5068 133.153L24.1552 129.905L24.8811 125.253L25.0617 121.979L23.8393 118.628L22.0974 116.186L20.304 114.679L18.5363 112.705L18.5879 111.77L20.4847 111.405L26.0974 111.715L28.9295 111.402L33.7358 109.322L34.1003 111.218L35.2712 115.505L37.3259 120.779L38.3418 127.873L40.2933 135.018L43.6479 142.24L45.7284 147.046L47.4702 149.488L49.1057 145.356L50.1702 143.069L51.3122 139.379L51.467 136.573L51.6219 133.766L51.3865 129.531L50.5543 127.608L48.4222 123.738L48.0577 121.841L47.7707 118.541L48.861 115.786L50.9384 112.148L53.0158 108.509L53.1449 106.171L50.1806 100.377Z" fill="white"/>
<path d="M55.5564 47.3597L54.038 50.3763L54.1654 52.3123L58.8014 52.9106L59.3708 50.7608L60.2036 48.4091L58.3323 47.6929L56.2917 45.7956L55.5564 47.3597Z" fill="white"/>
<path d="M55.5919 55.3072C54.5247 55.2951 53.4907 54.9343 52.6475 54.2798C52.3078 53.989 52.0888 53.5819 52.0334 53.1382C51.9779 52.6945 52.0899 52.246 52.3475 51.8805C52.5895 51.4917 52.8217 51.124 53.0709 50.7615C54.5208 48.5453 55.7768 46.6297 56.1885 41.9129L57.4797 42.0231C57.0413 47.0671 55.6388 49.2081 54.1518 51.4698C53.9201 51.8289 53.6798 52.1876 53.4471 52.5639C53.2144 52.9403 53.3034 53.1311 53.5216 53.3291C54.3729 54.1242 56.7841 54.3135 58.2003 53.4922C58.4199 51.2715 59.0373 49.1083 60.023 47.1062C60.1659 46.7898 60.2994 46.4858 60.4286 46.1816L61.6249 46.68C61.4909 46.9926 61.3526 47.305 61.2092 47.6301C60.234 49.5962 59.6394 51.729 59.4569 53.9161L59.4405 54.2136L59.1972 54.3905C58.1308 55.0885 56.8622 55.4111 55.5919 55.3072Z" fill="#077594"/>
<path d="M15.5923 80.9265L15.4578 78.2521L16.7877 75.5298L19.3946 72.442L22.2691 70.5486L22.5438 72.0772L20.2191 77.9504L20.7416 81.0313L19.9933 82.0416L17.1679 82.1165L15.5923 80.9265Z" fill="white"/>
<path d="M47.3788 151.798L46.7289 150.252C46.4113 149.504 45.8732 148.441 45.1738 147.088C42.2964 141.398 36.9594 130.833 36.8 120.714C31.8422 112.289 31.6636 95.3101 34.0556 93.574L34.4376 94.0967L34.0556 93.574C35.9793 92.1752 39.4628 92.3675 43.3722 94.0881C50.0973 97.0539 53.5118 101.943 53.909 105.481C54.2253 108.292 52.9017 110.255 51.5026 112.336C50.0139 114.55 48.478 116.835 48.51 120.564C48.5335 123.117 49.1848 124.009 49.9876 125.135C50.7903 126.26 51.7754 127.607 52.219 130.776C53.1185 137.2 51.3468 141.564 49.4698 146.192C48.9673 147.461 48.4085 148.81 47.9161 150.21L47.3788 151.798ZM34.8325 94.6201C33.3992 95.7518 33.0149 111.882 38.0134 120.197L38.1045 120.349L38.095 120.522C38.1944 130.395 43.4885 140.876 46.3354 146.49C46.6743 147.166 46.9785 147.767 47.2429 148.305C47.5822 147.407 47.937 146.54 48.2778 145.694C50.1692 141.041 51.7832 137.026 50.9468 130.948C50.5462 128.097 49.7339 126.989 48.9472 125.886C48.0756 124.675 47.2477 123.535 47.2212 120.567C47.1809 116.439 48.8882 113.87 50.436 111.603C51.7504 109.647 52.8903 107.954 52.6258 105.617C52.1363 101.244 47.2144 97.1845 42.8532 95.266C39.4331 93.767 36.3594 93.5152 34.8325 94.6201Z" fill="#077594"/>
<path d="M23.9166 134.761L23.0201 133.847C21.8365 132.649 20.6679 131.49 19.5404 130.373C14.3165 125.202 9.38059 120.298 3.27506 111.2L3.19909 111.088L3.17605 110.957C2.46758 107.026 3.14444 105.731 3.50345 105.025C3.53396 104.971 3.56152 104.917 3.58602 104.861C4.21828 103.434 5.14761 102.893 8.22201 101.095C9.65157 100.266 11.6046 99.1192 14.2554 97.4752C21.3528 93.0669 32.965 92.8083 34.2601 93.6322L34.6025 93.8543L34.5542 94.2581C33.9759 99.1733 33.8083 101.27 34.4617 109.021L34.4855 109.295L34.3011 109.501C33.5896 110.326 30.5504 112.035 28.0893 112.358C26.2421 112.599 24.3717 112.607 22.5227 112.379C21.7351 112.31 20.8398 112.234 19.7275 112.173C19.5986 112.172 19.47 112.187 19.3446 112.217C19.9433 112.886 20.4211 113.396 20.8989 113.907C21.6215 114.682 22.3686 115.484 23.5606 116.843C26.6322 120.347 25.7013 125.069 24.7463 130.072C24.5292 131.184 24.3059 132.331 24.1248 133.497L23.9166 134.761ZM4.43286 110.594C10.4262 119.53 15.3018 124.353 20.4603 129.455C21.3092 130.293 22.1782 131.158 23.0635 132.042C23.2002 131.288 23.3405 130.548 23.4842 129.825C24.4282 124.943 25.2492 120.724 22.5967 117.698C21.4178 116.336 20.6736 115.559 19.9591 114.793C19.4327 114.224 18.9061 113.659 18.2093 112.885C18.0487 112.735 17.9391 112.538 17.896 112.322C17.8528 112.107 17.8782 111.883 17.9686 111.682C18.3152 110.966 19.4411 110.86 19.8075 110.88C20.9414 110.943 21.8453 111.019 22.6415 111.088C24.395 111.306 26.1689 111.304 27.9219 111.082C29.8111 110.731 31.5974 109.961 33.1491 108.827C32.5684 101.876 32.6391 99.5752 33.2095 94.6466C30.9808 94.2858 21.0368 94.7965 14.9422 98.5856C12.2778 100.242 10.3118 101.387 8.88179 102.225C5.81673 104.011 5.22552 104.38 4.77154 105.397C4.74187 105.465 4.70309 105.541 4.6593 105.629C4.38884 106.142 3.83214 107.218 4.43286 110.594Z" fill="#077594"/>
<path d="M50.8548 49.7844C49.7868 50.5644 49.8792 50.4571 49.3822 51.0004C48.7643 51.6972 46.4953 54.4952 46.2515 55.3856C46.9762 55.7326 53.1938 49.7146 52.8517 49.4103C52.5127 49.3123 52.1555 49.2951 51.8088 49.3601C51.462 49.4251 51.1352 49.5704 50.8548 49.7844Z" fill="#E05E48"/>
<path d="M78.0233 104.097C77.8127 100.626 70.1795 102.441 67.06 95.4964C64.5066 89.8117 66.9952 84.6819 63.6586 80.9648C61.6892 80.5274 58.8727 78.2011 57.9735 76.5515C54.7025 70.5504 55.5823 70.1232 56.3732 69.0339C56.6036 69.5612 57.4411 73.975 59.7318 76.6615C60.1372 77.1509 63.6242 79.7088 67.8077 79.2045C74.6337 78.3834 76.8021 71.6878 75.547 62.9309C74.8696 58.2016 70.9889 54.943 68.6466 52.0937C67.0641 57.027 71.2606 65.1419 65.8239 67.4322C64.6196 67.9409 65.9957 57.1886 60.2818 52.0429C56.2247 52.6839 54.7741 50.9173 54.3703 49.0658C52.9438 49.1341 49.3533 49.7057 40.6809 63.2986C35.3744 65.4231 29.2851 64.6502 21.9219 70.1121C28.6282 72.8692 29.7494 74.3365 34.1217 74.4092C34.0638 74.5184 34.0063 74.619 33.9443 74.7237C31.7631 78.6726 26.5841 82.2484 21.7891 83.4108C8.74468 86.5829 3.61084 95.8434 14.5996 98.0283C17.9172 97.3076 26.4242 92.9035 39.5102 98.0668C53.7475 103.683 52.5804 113.154 64.1677 113.975C72.5629 114.572 78.5225 112.289 78.0233 104.097Z" fill="#077594"/>
<path d="M60.0081 48.3412C61.1083 48.7003 63.1121 48.906 64.5686 47.5896C65.6283 46.5982 66.2771 45.245 66.3865 43.798C66.4565 39.9445 62.9533 34.3889 59.2061 36.6254C58.9203 36.6313 58.5481 37.108 58.3704 37.2712C57.2955 37.3935 56.8318 37.3333 56.0689 37.8361C55.387 38.2828 54.6874 38.9707 54.9089 39.5797C55.0885 40.0869 55.6523 39.9796 55.9391 40.5014C55.6305 41.4703 55.1913 41.6709 55.158 42.7459C55.1144 44.2397 55.8661 45.0379 56.695 46.2383C57.2682 47.057 58.959 47.9979 60.0081 48.3412Z" fill="white"/>
<path d="M61.3899 49.2517C60.8514 49.2222 60.3191 49.1231 59.8061 48.9567C58.7189 48.5984 56.8542 47.596 56.1803 46.642C56.0722 46.4847 55.9637 46.336 55.8592 46.1919C55.1396 45.2051 54.4643 44.277 54.5093 42.7573C54.5198 42.1703 54.6842 41.5964 54.986 41.0928C55.0583 40.9584 55.126 40.8281 55.1909 40.6717L55.0943 40.6188C54.9138 40.544 54.7503 40.4334 54.6138 40.2935C54.4773 40.1537 54.3706 39.9875 54.3003 39.8052C54.0078 38.9934 54.5205 38.0876 55.7364 37.2898C56.3445 36.8957 57.0522 36.6828 57.7768 36.676L58.0939 36.6502C58.3276 36.3535 58.6396 36.1281 58.9947 35.9994C59.6096 35.634 60.3134 35.4454 61.0286 35.4543C61.7438 35.4633 62.4427 35.6694 63.0482 36.0501C65.3068 37.3596 67.1084 40.8364 67.0439 43.808C66.9278 45.4286 66.2012 46.9447 65.0108 48.0505C64.5186 48.4832 63.9444 48.8126 63.3224 49.019C62.7003 49.2253 62.0431 49.3045 61.3899 49.2517ZM60.2287 47.726C60.628 47.8561 62.68 48.4408 64.1545 47.1124C65.0785 46.2457 65.6501 45.0684 65.7596 43.8063C65.8071 41.3008 64.2705 38.2711 62.4101 37.1911C61.984 36.9198 61.4891 36.7762 60.984 36.7774C60.4788 36.7787 59.9846 36.9247 59.5599 37.1982L59.4124 37.2851L59.3219 37.2802C59.2088 37.3706 59.1035 37.4704 59.007 37.5785C58.9383 37.6482 58.8785 37.7141 58.8284 37.7589L58.6735 37.9017L58.4647 37.9247L57.8951 37.9798C57.3827 37.9682 56.8783 38.1089 56.4458 38.3841C55.7188 38.8629 55.5056 39.2793 55.5264 39.3713C55.58 39.4107 55.6375 39.4443 55.6982 39.4715C56.0464 39.6243 56.3355 39.8861 56.5219 40.2176L56.6556 40.4585L56.5676 40.7217C56.4562 41.0559 56.3153 41.3795 56.1467 41.6888C55.937 42.0168 55.8231 42.397 55.818 42.7863C55.7844 43.8655 56.2346 44.4828 56.918 45.42L57.2564 45.8711C57.6973 46.5009 59.2147 47.3717 60.2255 47.7042L60.2287 47.726Z" fill="#077594"/>
<path d="M59.2047 36.6419C59.8723 36.2982 60.2777 36.1606 61.5281 36.6188C60.9854 37.8343 61.3224 38.5448 61.7247 39.0902C62.2076 39.7439 62.3615 40.3232 64.5892 41.5662C64.5047 43.7237 65.2925 44.4937 65.7925 44.9148C66.7733 45.7127 66.5338 45.5871 67.1641 44.8218C68.0126 43.7876 67.582 42.1076 68.5352 40.5083C69.5028 41.0763 69.8076 42.8401 71.7159 39.2914C71.8326 39.4321 71.9859 39.5378 72.1589 39.597C72.3319 39.6561 72.5179 39.6663 72.6963 39.6265C73.0041 39.5921 73.2935 39.4625 73.5243 39.2559C73.755 39.0493 73.9156 38.7759 73.9837 38.4738C74.3479 38.8485 74.6438 38.9729 74.9613 38.8607C75.3536 38.7267 75.5477 38.4217 75.5817 37.7274C75.6265 37.8326 75.6916 37.9278 75.7735 38.0076C75.8554 38.0874 75.9522 38.1502 76.0585 38.1923C76.1648 38.2343 76.2784 38.2549 76.3927 38.2527C76.507 38.2505 76.6197 38.2257 76.7243 38.1796C77.0641 38.0557 77.2123 37.7222 77.2794 37.2113C77.6373 37.4388 78.0616 37.5384 78.4833 37.494C78.8713 37.5154 79.5213 36.7859 79.3618 36.3057C79.2024 35.8256 78.6037 35.3125 78.1893 35.3761C78.0461 35.3884 77.9068 35.4294 77.7798 35.4967C77.6527 35.564 77.5405 35.6562 77.4499 35.7678C77.4741 35.6788 77.4798 35.5858 77.4667 35.4946C77.4535 35.4034 77.4217 35.3158 77.3734 35.2373C77.325 35.1589 77.2611 35.0911 77.1855 35.0384C77.1099 34.9856 77.0242 34.949 76.9339 34.9306C76.7412 34.903 76.545 34.9451 76.3806 35.0494C76.2163 35.1538 76.0946 35.3134 76.0376 35.4995C75.7524 35.0254 75.7684 34.1874 74.9945 34.0279C74.5667 33.9438 73.791 34.7572 73.5373 35.2794C73.3513 34.8886 73.4465 33.1641 71.6703 33.0661C70.8899 33.023 70.5368 33.5441 69.4168 34.719C68.4974 34.084 67.3807 33.7999 66.2696 33.9183C65.3244 34.0434 65.041 34.084 64.2781 35.2138C62.6801 35.0218 62.6801 35.0218 61.3255 35.2757C59.9709 35.5296 59.1231 36.3953 59.2047 36.6419Z" fill="#077594"/>
<path d="M66.533 49.5272L63.6718 49.0276C63.5519 49.0006 63.4386 48.9502 63.3382 48.8792C63.2379 48.8082 63.1526 48.718 63.0872 48.614C63.0218 48.5099 62.9776 48.3939 62.9572 48.2727C62.9368 48.1515 62.9405 48.0275 62.9682 47.9077L64.6885 39.0685C64.7044 38.9438 64.7472 38.8242 64.8141 38.7178C64.881 38.6114 64.9703 38.5209 65.0758 38.4526C65.1813 38.3843 65.3004 38.3399 65.4248 38.3224C65.5492 38.3049 65.676 38.3147 65.7962 38.3512L68.4208 39.2183C68.6299 39.2981 68.8038 39.4494 68.9117 39.6454C69.0197 39.8414 69.0547 40.0693 69.0104 40.2886L67.5221 48.7645C67.5098 48.8806 67.4741 48.993 67.4171 49.0949C67.3601 49.1968 67.2831 49.2861 67.1907 49.3574C67.0982 49.4287 66.9922 49.4805 66.8792 49.5096C66.7662 49.5388 66.6484 49.5448 66.533 49.5272Z" fill="#E05E48"/>
<path d="M18.0911 83.1449C17.9661 83.138 17.8367 83.1309 17.7117 83.124C17.1824 83.0817 16.6674 82.9315 16.1985 82.6825C15.7295 82.4335 15.3166 82.091 14.9851 81.6762C14.4272 80.893 14.2973 79.8782 14.5977 78.6667C15.3897 75.4412 19.2163 71.2199 21.8592 69.8738L22.9915 69.3393L22.7721 70.2572C23.1951 71.6038 23.3688 72.2966 22.7683 73.3835C22.1694 74.5491 21.6685 75.7625 21.2707 77.0111C20.6702 78.6472 20.9907 79.4995 21.2513 80.1842C21.4733 80.7845 21.7828 81.6016 20.8667 82.3727C20.0704 82.9676 19.0803 83.2431 18.0911 83.1449ZM21.7654 71.4168C19.4674 72.9375 16.476 76.4438 15.8571 78.961C15.7454 79.2803 15.7038 79.6199 15.7352 79.9567C15.7666 80.2935 15.8703 80.6196 16.0391 80.9127C16.2698 81.1784 16.5506 81.3959 16.8655 81.5528C17.1804 81.7097 17.5231 81.8029 17.8741 81.827C18.6224 81.9617 19.3937 81.7978 20.0226 81.3704C20.2402 81.1878 20.2402 81.1878 20.029 80.627C19.731 79.8365 19.2738 78.6393 20.0464 76.5501C20.468 75.2394 20.9997 73.9668 21.6359 72.7458C21.761 72.5503 21.838 72.3279 21.8605 72.0969C21.883 71.8658 21.8505 71.6328 21.7654 71.4168Z" fill="#077594"/>
<path d="M68.2944 51.8746C67.5687 51.7826 65.0801 48.9988 64.9027 45.7889C64.8347 44.5916 64.6843 41.9109 66.3832 40.9019C67.3806 40.304 68.9664 40.3266 69.5046 41.0742C70.1468 41.9745 68.6598 42.9822 68.3946 46.0638C68.2997 47.1569 68.4827 47.366 68.2228 49.1765C68.0329 50.5023 67.9593 51.0517 68.2944 51.8746Z" fill="white"/>
<path d="M69.3533 52.9511L68.2097 52.518C67.0243 52.3704 64.4371 49.1789 64.2553 45.8132C64.1875 44.5337 64.0197 41.5407 66.0542 40.3297C67.2838 39.5975 69.243 39.5932 70.0306 40.6789C70.5693 41.4178 70.2422 42.1738 69.904 42.9725C69.4373 43.9593 69.1489 45.0209 69.0521 46.1082C69.0249 46.4197 69.0163 46.7326 69.0263 47.0451C69.0436 47.7849 68.9927 48.5247 68.8741 49.2551C68.6848 50.568 68.6452 50.9723 68.908 51.6181L69.3533 52.9511ZM68.1241 41.1401C67.6319 41.1111 67.1415 41.222 66.7096 41.4599C65.3675 42.2724 65.4879 44.7136 65.5472 45.7547C65.7056 47.433 66.3633 49.0253 67.4355 50.326C67.4555 49.9639 67.5164 49.5651 67.5859 49.0889C67.6939 48.4255 67.7411 47.7536 67.727 47.0815C67.7169 46.7258 67.7265 46.3697 67.7556 46.015C67.8649 44.7879 68.1887 43.5895 68.7121 42.4742C68.9798 41.8533 69.0811 41.5865 68.9845 41.4557C68.87 41.3475 68.7346 41.2637 68.5867 41.2095C68.4388 41.1552 68.2814 41.1316 68.1241 41.1401Z" fill="#077594"/>
<path d="M24.6886 152.731C27.839 143.287 29.2046 139.7 29.7663 132.812C27.5593 133.624 25.1906 134.938 23.4809 133.399C23.445 136.165 22.9407 137.075 21.8896 140.057C21.2336 141.915 18.2448 143.415 17.9742 145.498C17.568 148.705 21.6295 153.154 24.6886 152.731Z" fill="#077594"/>
<path d="M31.3192 161.334C41.0931 159.439 45.8944 158.32 52.1771 155.433C50.3809 153.893 47.7764 152.349 47.3222 150.001C44.8962 151.333 44.096 152.12 40.9776 152.678C39.0439 153.004 36.2621 151.147 34.3156 151.939C31.3296 153.153 29.4439 158.879 31.3192 161.334Z" fill="#077594"/>
<path d="M62.5803 53.4262C62.5048 53.117 62.3577 52.8299 62.151 52.5879C61.9443 52.3459 61.6837 52.1558 61.3901 52.0329C59.5036 52.2877 56.443 53.6799 54.9179 55.9266C51.3449 61.1954 53.5009 67.0269 55.6437 70.6695C55.9648 71.1197 56.5908 71.4526 57.0232 71.0613C55.9241 66.6071 54.1729 65.4294 55.2159 61.3399C56.2036 57.4678 59.2032 55.3804 61.8037 53.8633C62.0955 54.222 62.3636 54.5994 62.6062 54.993C62.668 54.472 62.6592 53.9449 62.5803 53.4262Z" fill="#E05E48"/>
<path d="M110.795 116.639C112.471 116.494 113.278 117.056 113.601 118.57C113.884 119.895 112.17 121.682 110.305 122.196C108.268 122.758 105.722 121.889 104.751 119.9C103.53 117.397 105.552 114.663 107.323 113.56C109.397 112.264 112.174 112.552 112.371 113.183C112.568 113.814 112.254 115.557 110.795 116.639Z" fill="#077594"/>
<path d="M119.164 158.763C113.159 174.989 111.68 179.391 107.571 200.709C103.556 221.537 104.551 228.436 105.512 234.839C100.091 232.127 93.4414 218.333 96.6508 202.326C97.4422 198.388 97.6739 197.795 98.9973 191.363C99.7759 181.576 96.445 179.3 97.3022 171.92C98.235 163.848 103.577 154.804 108.899 154.454C111.824 154.254 117.607 155.598 119.164 158.763Z" fill="white"/>
<path d="M106.278 235.885L105.239 235.364C102.215 233.853 99.1633 229.401 97.2683 223.745C95.0369 217.081 94.6058 209.429 96.055 202.198C96.4216 200.375 96.6695 199.261 96.9546 197.978C97.2951 196.445 97.6833 194.702 98.3844 191.273C98.7763 186.283 98.0958 183.354 97.4367 180.519C96.834 177.929 96.266 175.48 96.6861 171.847C97.212 167.626 98.661 163.574 100.932 159.972C103.338 156.206 106.149 154.036 108.846 153.857C111.65 153.675 117.92 154.883 119.706 158.512L119.819 158.741L119.732 158.981C113.702 175.268 112.283 179.459 108.165 200.826C104.145 221.685 105.189 228.63 106.1 234.753L106.278 235.885ZM112.039 155.296C111.016 155.086 109.971 155.001 108.927 155.042C104.222 155.361 98.8584 163.581 97.8876 171.979C97.4915 175.41 98.0133 177.65 98.617 180.247C99.2644 183.041 100.001 186.205 99.5892 191.402L99.5756 191.472C98.8664 194.943 98.4773 196.691 98.1355 198.231C97.8499 199.516 97.6029 200.626 97.239 202.435C94.1774 217.709 100.067 230.018 104.715 233.614C103.851 227.656 103.194 220.193 106.972 200.586C111.074 179.303 112.637 174.639 118.497 158.803C117.408 156.915 114.553 155.778 112.039 155.296Z" fill="#077594"/>
<path d="M91.5503 151.406C85.9692 160.427 83.0702 169.503 76.0273 181.833C72.6895 182.731 72.3671 180.363 66.3741 184.19C59.5558 188.545 52.4642 194.558 47.369 203.267C54.9761 200.183 62.1687 198.401 80.7741 190.438C85.8087 187.923 101.776 170.249 106.747 159.464C109.337 153.828 97.3698 148.832 91.5503 151.406Z" fill="white"/>
<path d="M45.9522 204.482L46.8449 202.96C51.2446 195.425 57.534 189.125 66.0569 183.691C70.1554 181.072 71.7846 181.235 73.3606 181.393C74.1186 181.506 74.8906 181.481 75.6387 181.32C79.021 175.379 81.3938 170.285 83.6862 165.366C85.9896 160.402 88.1817 155.698 91.0343 151.095L91.1313 150.936L91.3009 150.861C95.7399 148.896 102.809 150.996 105.927 154.114C107.671 155.854 108.157 157.841 107.297 159.706C102.295 170.556 86.2603 188.374 81.0458 190.967L81.0133 190.982C68.8846 196.167 61.6759 198.715 55.8852 200.753C52.8552 201.82 50.2393 202.744 47.6024 203.803L45.9522 204.482ZM91.9691 151.887C89.2004 156.386 87.051 160.996 84.7795 165.87C82.5552 170.639 80.0342 176.044 76.5566 182.135L76.4331 182.355L76.189 182.421C75.227 182.676 74.2217 182.732 73.2354 182.587C71.8042 182.444 70.4527 182.298 66.7059 184.701C58.9416 189.66 53.0872 195.349 48.8234 202.045C50.9333 201.229 53.078 200.476 55.4798 199.629C61.2521 197.596 68.4263 195.062 80.52 189.892C85.4962 187.385 101.399 169.637 106.2 159.208C107.014 157.441 106.039 155.922 105.076 154.959C102.013 151.9 95.5923 150.412 91.9691 151.887Z" fill="#077594"/>
<path d="M95.3875 125.599C93.6739 131.342 101.573 141.085 86.1949 144.701C85.8828 148.658 78.9395 151.415 75.5589 151.816C59.3898 153.736 117.657 189.26 121.584 170.279C123.811 159.53 121.663 136.098 117.347 130.003C116.49 128.792 113.718 122.979 110.588 119.924C108.938 120.372 107.775 121.325 106.055 121.213C104.109 121.084 104.64 119.739 102.464 118.817C99.0884 120.491 95.8864 123.921 95.3875 125.599Z" fill="#077594"/>
<path d="M110.904 123.123C113.746 121.471 119.684 130.598 123.717 128.847C128.919 126.589 130.209 119.815 137.968 119.952C135.059 123.963 135.782 123.091 134.671 129.306C134.094 132.533 133.623 136.701 127.93 139.927C123.584 142.389 117.186 139.428 113.646 136.947C106.712 132.119 108.21 124.686 110.904 123.123Z" fill="#077594"/>
<path d="M96.9644 123.243C92.8204 124.157 89.573 130.306 77.9022 133.499C68.268 136.144 66.1245 135.296 62.6903 134.46C61.9352 136.756 69.6177 143.81 78.2379 144.813C79.9946 145.018 90.5511 144.207 96.4857 137.572C101.194 132.322 99.4878 124.846 96.9644 123.243Z" fill="#077594"/>
<path d="M101.66 113.379C101.353 113.246 101.09 113.029 100.902 112.754C100.714 112.478 100.609 112.156 100.6 111.824C100.59 111.492 100.676 111.164 100.847 110.88C101.018 110.595 101.268 110.365 101.567 110.216C101.252 109.12 101.258 107.958 101.583 106.867C101.908 105.776 102.539 104.8 103.403 104.052C104.267 103.304 105.328 102.815 106.463 102.643C107.598 102.47 108.761 102.62 109.815 103.075C109.959 103.137 110.1 103.208 110.237 103.281C111.542 103.67 114.816 104.778 114.577 106.137C114.487 106.608 113.983 107.068 113.327 107.313C113.604 108.549 113.479 109.839 112.969 110.997C111.646 114.043 108.092 115.878 105.014 114.547C104.53 114.331 104.087 114.036 103.703 113.673C103.208 114.059 102.282 113.647 101.66 113.379Z" fill="white"/>
<path d="M105.986 115.429C105.573 115.35 105.171 115.227 104.786 115.06C104.361 114.881 103.965 114.641 103.612 114.347C102.91 114.549 102.06 114.179 101.461 113.92L101.43 113.914C101.061 113.754 100.739 113.502 100.497 113.182C100.255 112.862 100.101 112.486 100.049 112.09C99.9971 111.694 100.05 111.292 100.202 110.923C100.354 110.554 100.6 110.231 100.917 109.985C100.651 108.8 100.72 107.566 101.118 106.42C101.516 105.274 102.227 104.261 103.171 103.493C104.116 102.724 105.258 102.231 106.47 102.067C107.682 101.903 108.918 102.076 110.039 102.565C110.167 102.619 110.296 102.68 110.444 102.757C113.784 103.763 115.361 104.931 115.136 106.233C115.032 106.776 114.603 107.292 113.963 107.638C114.148 108.854 113.983 110.096 113.488 111.222C112.154 114.263 108.921 115.991 105.986 115.429ZM103.709 112.95L104.061 113.261C104.403 113.589 104.8 113.855 105.233 114.047C107.87 115.189 111.174 113.697 112.447 110.793C112.913 109.739 113.027 108.564 112.771 107.439L112.671 106.949L113.125 106.792C113.655 106.593 113.983 106.258 114.019 106.043C114.11 105.572 112.863 104.687 110.329 103.896L110.272 103.937L109.972 103.779C109.846 103.714 109.721 103.651 109.589 103.594C108.632 103.179 107.578 103.042 106.548 103.198C105.518 103.354 104.555 103.798 103.771 104.476C102.987 105.155 102.415 106.04 102.12 107.031C101.826 108.021 101.822 109.074 102.108 110.069L102.235 110.513L101.824 110.727C101.573 110.851 101.375 111.059 101.265 111.315C101.14 111.604 101.134 111.931 101.249 112.225C101.307 112.371 101.393 112.504 101.503 112.616C101.613 112.728 101.744 112.818 101.89 112.88L101.918 112.885C102.25 113.029 103.133 113.411 103.353 113.238L103.709 112.95Z" fill="#077594"/>
<path d="M108.901 114.703C108.51 116.436 108.632 119.839 109.257 120.679C107.977 122.534 104.133 122.283 102.727 119.847C102.908 118.994 104.971 117.139 103.941 114.17C105.958 114.854 107.709 115.011 108.901 114.703Z" fill="white"/>
<path d="M105.53 122.36C104.853 122.243 104.209 121.982 103.642 121.596C103.074 121.21 102.598 120.707 102.243 120.123L102.136 119.939L102.176 119.729C102.285 119.366 102.449 119.022 102.664 118.71C103.269 117.701 104.093 116.317 103.408 114.35L103.032 113.268L104.123 113.641C105.951 114.262 107.641 114.451 108.756 114.16L109.656 113.927L109.452 114.825C109.045 116.626 109.263 119.747 109.709 120.348L109.948 120.669L109.723 120.997C109.044 121.967 107.774 122.515 106.311 122.451C106.049 122.44 105.788 122.409 105.53 122.36ZM103.355 119.784C104.097 120.861 105.372 121.293 106.359 121.336C107.288 121.375 108.096 121.107 108.59 120.611C108.098 119.436 108.021 117.033 108.221 115.385C107.046 115.459 105.866 115.327 104.736 114.995C105.044 116.936 104.185 118.374 103.641 119.283C103.535 119.462 103.426 119.644 103.355 119.784Z" fill="#077594"/>
<path d="M137.965 119.956C139.206 118.92 141.439 118.142 143.491 118.191C145.289 118.233 148.837 118.578 149.837 121.227C150.487 122.982 149.754 124.671 148.593 125.152C147.79 125.486 145.608 124.336 144.059 122.636C142.857 121.322 139.643 120.277 137.965 119.956Z" fill="white"/>
<path d="M147.808 125.756C146.52 125.509 144.791 124.336 143.609 123.033C142.565 121.887 139.559 120.869 137.858 120.543L136.613 120.305L137.581 119.495C139.004 118.303 141.387 117.54 143.509 117.59C147.212 117.677 149.599 118.861 150.41 121.02C151.221 123.179 150.216 125.131 148.825 125.704C148.498 125.818 148.145 125.836 147.808 125.756ZM139.47 119.7C141.253 120.208 143.484 121.111 144.506 122.234C146.103 123.992 147.988 124.748 148.357 124.597C149.237 124.234 149.817 122.878 149.276 121.435C148.491 119.332 145.693 118.84 143.486 118.788C142.093 118.776 140.717 119.089 139.47 119.7Z" fill="#077594"/>
<path d="M62.7025 134.466C60.2045 132.524 57.4777 130.503 54.0419 131.887C52.8777 132.357 50.1237 133.706 50.0241 135.512C49.9126 137.843 51.953 139.859 54.1865 138.835C55.197 138.37 55.4633 138.523 57.1045 136.283C58.9834 133.754 60.7033 134.974 62.7025 134.466Z" fill="white"/>
<path d="M52.3886 139.647C51.9563 139.564 51.5454 139.394 51.1811 139.147C50.6003 138.732 50.1343 138.178 49.8264 137.537C49.5184 136.896 49.3786 136.189 49.4198 135.482C49.5246 133.288 52.523 131.847 53.8095 131.33C57.6781 129.77 60.7963 132.217 63.0726 134.005L64.034 134.76L62.8468 135.055C62.1959 135.196 61.528 135.245 60.8625 135.202C59.6369 135.17 58.688 135.146 57.5971 136.636C56.1561 138.602 55.6781 138.86 54.8193 139.215C54.704 139.263 54.5807 139.315 54.4415 139.386C53.8025 139.685 53.0843 139.776 52.3886 139.647ZM57.2978 132.115C56.2799 131.925 55.2291 132.039 54.2788 132.442C52.637 133.104 50.7004 134.314 50.6396 135.544C50.6065 136.046 50.7013 136.548 50.9151 137.005C51.129 137.462 51.4551 137.858 51.8634 138.158C52.1642 138.361 52.5143 138.48 52.877 138.503C53.2396 138.526 53.6016 138.453 53.9249 138.289C54.0788 138.219 54.2153 138.162 54.3415 138.108C54.9811 137.843 55.3023 137.709 56.6095 135.927C58.0734 133.931 59.5666 133.968 60.8833 134L61.084 134.007C59.8115 133.075 58.5857 132.362 57.2978 132.115Z" fill="#077594"/>
<path d="M105.583 233.247C106.702 235.735 107.662 237.195 109.132 237.865C111.128 238.774 114.672 236.659 117.482 236.717C121.059 236.792 123.302 242.498 122.376 245.041C117.281 246.937 105.043 247.108 100.282 244.403C102.493 241.644 104.364 236.586 105.583 233.247Z" fill="#077594"/>
<path d="M48.2011 203.669C45.7526 204.877 44.931 205.642 43.798 207.235C42.5339 209.011 43.433 209.976 47.2131 213.109C50.9932 216.241 44.8175 222.527 42.2103 221.708C30.5065 214.644 34.2046 203.687 36.712 198.867C39.6068 200.937 44.7815 202.59 48.2011 203.669Z" fill="#077594"/>
<path d="M110.332 103.893C110.554 103.75 111.61 103.008 111.651 100.261C111.686 97.9447 110.114 95.5012 108.512 95.4017C106.342 95.2715 102.3 97.2764 102.656 99.9946C101.284 97.9993 99.0691 98.0654 97.4695 98.7765C95.8699 99.4876 93.4031 101.999 94.7599 105.204C92.1099 104.892 90.7632 108.231 90.8406 109.717C90.9672 112.091 93.3152 115.408 96.8193 115.12C93.0003 116.036 92.7866 119.016 93.1921 120.475C93.6668 122.176 98.38 123.782 101.655 121.759C104.792 119.822 105.222 115.573 103.697 113.671C101.617 114.614 101.008 113.431 100.646 112.764C100.004 111.577 101.39 110.642 102.106 110.065C103.629 108.831 103.168 107.096 104.126 105.876C104.725 105.13 107.237 103.59 110.332 103.893Z" fill="#077594"/>
<path d="M224.241 56.8979C223.26 58.4661 222.412 60.3067 219.886 62.4363C219.834 65.0164 223.231 68.0863 224.14 65.9318C225.282 63.2366 225.752 60.9852 229.694 57.6292" fill="white"/>
<path d="M222.578 67.1597C221.054 66.7082 219.253 64.4799 219.297 62.4255L219.303 62.157L219.505 61.9875C221.026 60.6993 222.297 59.141 223.253 57.3911C223.416 57.116 223.574 56.8474 223.738 56.5848L224.735 57.2119C224.578 57.4643 224.423 57.7254 224.262 57.9929C223.29 59.7742 222.01 61.3687 220.48 62.7022C220.602 64.2531 222.06 65.8558 222.984 66.0518C223.247 66.1051 223.442 66.0687 223.596 65.7008C223.75 65.333 223.898 64.9715 224.043 64.6052C224.952 62.324 225.808 60.1664 229.308 57.183L230.07 58.0801C226.787 60.8698 226.025 62.8057 225.141 65.0451C224.995 65.4114 224.846 65.7766 224.686 66.1671C224.552 66.5561 224.278 66.8808 223.916 67.077C223.555 67.2732 223.133 67.3266 222.734 67.2265L222.578 67.1597Z" fill="#077594"/>
<path d="M186.597 86.3275L183.742 88.781L188.672 90.4587L189.039 89.2215L188.602 87.6162L186.597 86.3275Z" fill="white"/>
<path d="M231.728 52.2837C231.81 50.6254 230.756 48.9333 229.978 47.4133C229.382 46.2461 228.454 45.4552 227.99 45.5963C227.527 45.7374 228.315 47.1254 227.849 48.1173C226.415 46.8082 225.926 46.3193 223.411 45.7831C221.373 45.339 219.102 45.7348 219.087 46.8928C219.059 48.5469 222.782 48.8063 223.305 49.7064C218.551 49.3664 216.857 51.2269 216.819 51.8541C216.735 53.8764 219.117 53.0633 219.876 53.1693C218.808 54.0114 218.497 54.9633 218.694 55.3901C219.418 56.8983 221.536 54.9589 222.996 54.9779C224.972 54.8181 225.495 54.5595 225.748 54.4218C226.94 53.7556 226.888 53.0072 227.885 52.627C229.354 52.0633 232.006 53.1027 231.728 52.2837Z" fill="#077594"/>
<path d="M223.78 57.9287C222.549 58.6571 220.684 57.3227 220.621 56.5834C220.557 55.8441 220.361 53.1332 224.35 53.2259C224.635 51.9308 224.788 51.7468 225.534 51.5912C225.82 51.5467 226.111 51.5603 226.391 51.6313C226.672 51.7023 226.934 51.8293 227.164 52.0044C227.738 51.1306 227.968 51.1414 228.66 50.9778C228.897 50.9213 229.67 51.1051 230.647 51.8409C231.748 52.4248 233.562 54.5793 233.02 56.6133C232.893 57.099 232.592 57.5208 232.173 57.7986C231.755 58.0763 231.249 58.1905 230.752 58.1194C230.252 59.9322 228.417 60.4735 227.515 60.5213C226.897 60.6073 226.268 60.4941 225.719 60.1982C224.698 59.6663 223.78 57.9287 223.78 57.9287Z" fill="white"/>
<path d="M226.078 60.9997C225.856 60.9314 225.642 60.8404 225.438 60.7282C224.611 60.2867 223.894 59.2676 223.525 58.659C222.836 58.8004 222.119 58.6869 221.507 58.3396C220.797 57.9736 220.081 57.311 220.029 56.6408C219.997 56.1848 219.888 54.7975 220.878 53.7767C221.544 53.0773 222.557 52.6979 223.9 52.6538C224.168 51.6238 224.488 51.2355 225.424 51.0337C225.958 50.9235 226.513 50.9999 226.998 51.2501C227.162 51.0278 227.369 50.8408 227.607 50.7002C227.844 50.5597 228.108 50.4685 228.382 50.4321L228.535 50.3996C229.068 50.2711 230.046 50.6467 230.976 51.3357C232.27 52.0546 234.217 54.4369 233.598 56.7592C233.456 57.3069 233.142 57.7946 232.702 58.1506C232.262 58.5066 231.719 58.7121 231.154 58.7369C230.426 60.4742 228.585 61.0505 227.543 61.1142C227.052 61.1626 226.556 61.1239 226.078 60.9997ZM224.012 57.1125L224.3 57.6604C224.531 58.0973 225.285 59.3237 225.99 59.6961C226.443 59.9414 226.964 60.0312 227.474 59.9516C228.232 59.9061 229.775 59.438 230.178 57.9812L230.324 57.4882L230.84 57.5589C231.194 57.6064 231.553 57.5233 231.851 57.3251C232.148 57.127 232.363 56.8274 232.456 56.4822C232.91 54.7865 231.323 52.8715 230.394 52.3874L230.316 52.3354C229.879 51.9611 229.357 51.7021 228.795 51.5819L228.658 51.6151C228.158 51.7289 228.082 51.7476 227.681 52.3573L227.363 52.8362L226.855 52.518C226.691 52.3816 226.501 52.28 226.297 52.2194C226.092 52.1589 225.878 52.1406 225.666 52.1657C225.225 52.2725 225.172 52.2731 224.935 53.3492L224.826 53.8248L224.343 53.8125C223.122 53.7866 222.229 54.0379 221.728 54.569C221.129 55.2102 221.185 56.1398 221.214 56.5375C221.459 56.9206 221.823 57.2125 222.25 57.3682C222.441 57.4671 222.652 57.5217 222.867 57.528C223.082 57.5343 223.295 57.4921 223.492 57.4045L224.012 57.1125Z" fill="#077594"/>
<path d="M183.133 90.8116L182.961 90.605C182.425 89.9673 183.858 87.702 183.873 87.6779C184.878 86.2604 186.256 85.7966 187.756 86.3719C188.287 86.5742 188.746 86.9285 189.077 87.3905C189.408 87.8525 189.595 88.4018 189.615 88.9696C189.655 89.5793 189.52 90.3253 189.017 90.6019L188.737 90.7566L188.384 90.5661C186.373 89.4789 185.711 89.1969 185.491 89.1398C185.303 89.207 184.917 89.4895 184.098 90.3853C183.806 90.7081 183.674 90.8492 183.39 90.8427L183.133 90.8116ZM185.829 87.9832C186.737 88.3261 187.614 88.7448 188.451 89.2349C188.458 88.9944 188.424 88.7545 188.35 88.5254C188.275 88.2827 188.145 88.0605 187.971 87.876C187.796 87.6915 187.581 87.5497 187.343 87.4614C187.078 87.3432 186.788 87.2902 186.499 87.3069C186.209 87.3236 185.927 87.4095 185.677 87.5574C185.477 87.6817 185.294 87.8329 185.135 88.0067C185.219 87.9756 185.307 87.9535 185.396 87.9408C185.542 87.9196 185.691 87.9342 185.829 87.9832Z" fill="#077594"/>
<path d="M193.288 99.1354L189.726 97.0524C189.641 97.0035 189.568 96.9383 189.509 96.8606C189.45 96.7828 189.408 96.6941 189.384 96.5997C189.36 96.5052 189.355 96.407 189.37 96.3106C189.384 96.2143 189.418 96.1219 189.469 96.0389C190.159 94.9168 190.709 93.7145 191.107 92.4588C191.142 92.3614 191.155 92.2577 191.146 92.1546C191.137 92.0516 191.106 91.9518 191.055 91.8619C190.28 90.5231 188.016 88.6037 185.689 88.168C185.583 88.1502 185.474 88.1558 185.371 88.1847C185.268 88.2135 185.172 88.2647 185.091 88.3348C183.927 89.3592 182.905 90.5334 182.05 91.8268C181.944 91.9758 181.786 92.0798 181.607 92.1185C181.429 92.1571 181.242 92.1276 181.084 92.0357L177.686 90.0589C177.36 89.8695 177 89.7462 176.626 89.696C176.253 89.6458 175.873 89.6697 175.509 89.7663C175.144 89.8629 174.803 90.0304 174.503 90.2591C174.203 90.4878 173.952 90.7732 173.763 91.0992L168.752 99.7225C168.562 100.048 168.438 100.408 168.387 100.781C168.337 101.155 168.36 101.534 168.456 101.899C168.553 102.263 168.72 102.605 168.948 102.904C169.177 103.204 169.462 103.455 169.788 103.645L184.759 112.354C185.417 112.736 186.201 112.842 186.937 112.647C187.674 112.452 188.302 111.973 188.686 111.314L194.068 102.06C194.209 101.817 194.301 101.548 194.339 101.27C194.376 100.991 194.358 100.708 194.286 100.436C194.213 100.164 194.088 99.9093 193.917 99.6861C193.746 99.463 193.532 99.2758 193.288 99.1354ZM185.294 90.9087C186.794 90.4197 188.907 91.455 188.884 92.971C188.821 93.8004 188.557 94.6019 188.114 95.3059C188.012 95.4665 187.852 95.5815 187.667 95.6266C187.481 95.6717 187.286 95.6436 187.121 95.548L183.631 93.511C183.547 93.4626 183.473 93.3978 183.414 93.3205C183.355 93.2431 183.313 93.1547 183.289 93.0606C183.265 92.9664 183.26 92.8684 183.274 92.7723C183.289 92.6762 183.322 92.584 183.373 92.5012C183.959 91.4916 184.238 91.2549 185.294 90.9087Z" fill="#E05E48"/>
<path d="M192.054 92.0679C192.262 91.0854 192.295 90.0741 192.153 89.08C191.12 90.0056 189.803 90.5536 188.418 90.6344C187.916 90.6159 187.42 90.5282 186.943 90.3736C186.622 90.2534 186.292 90.1558 185.957 90.0815C185.062 90.0496 183.916 91.2657 183.933 92.2861C183.958 93.8042 185.96 94.9624 188.239 94.7899C190.158 94.6667 191.588 93.6535 192.054 92.0679Z" fill="white"/>
<path d="M186.051 95.1618C185.387 94.9749 184.774 94.6407 184.257 94.184C183.981 93.9471 183.758 93.655 183.601 93.3267C183.445 92.9983 183.359 92.6408 183.348 92.2772C183.364 91.8933 183.455 91.5163 183.618 91.168C183.78 90.8197 184.009 90.5071 184.293 90.2482C184.51 90.0138 184.771 89.8248 185.061 89.6922C185.351 89.5596 185.665 89.486 185.984 89.4758C186.172 89.4856 186.358 89.5294 186.531 89.6051C186.659 89.643 186.821 89.6909 187.103 89.7746C187.521 89.9115 187.956 89.9921 188.395 90.0141C189.639 89.9419 190.822 89.4531 191.754 88.6265L192.584 87.8409L192.739 88.9919C192.886 90.0696 192.839 91.1648 192.599 92.2258C192.06 94.0474 190.44 95.2298 188.255 95.3805C187.513 95.4393 186.767 95.3653 186.051 95.1618ZM185.983 90.6793L185.934 90.6648C185.62 90.7118 185.333 90.871 185.126 91.1131C184.789 91.4136 184.577 91.8307 184.535 92.2806C184.549 92.4811 184.603 92.6766 184.695 92.8552C184.788 93.0338 184.915 93.1918 185.07 93.3195C185.768 93.9642 186.976 94.2935 188.205 94.2197C189.877 94.1049 191.108 93.2374 191.499 91.9202C191.629 91.367 191.682 90.7984 191.655 90.2308C190.689 90.8222 189.592 91.1692 188.461 91.2415C187.897 91.2297 187.337 91.1357 186.8 90.9622C186.568 90.9068 186.34 90.8391 186.115 90.7593L185.983 90.6793Z" fill="#077594"/>
<path d="M209.704 110.149L211.558 103.891L222.957 100.539L224.29 107.663L224.04 116.43L223.049 129.281L222.067 140.257L222.821 150.652L225.659 165.107L222.323 162.632L219.052 157.829L215.551 146.933L214.285 136.152L216.096 132.151L216.245 129.535L211.929 119.806L209.704 110.149Z" fill="white"/>
<path d="M227.263 107.135L227.705 104.059L229.613 107.127L230.111 112.048L227.12 115.543L225.665 114.643L224.967 110.132L227.263 107.135Z" fill="white"/>
<path d="M226.5 116.127C225.875 115.942 225.316 115.314 224.921 114.341C224.284 112.773 224.096 110.355 225.197 108.765C225.395 108.486 225.626 108.233 225.887 108.012C226.178 107.771 226.417 107.472 226.589 107.135C227.087 106.157 227.041 105.787 226.97 105.225C226.911 104.831 226.892 104.432 226.914 104.034L226.964 103.23L227.721 103.536C229.248 104.156 231.877 108.55 230.144 112.88C229.574 114.303 228.117 116.459 226.627 116.169L226.5 116.127ZM228.186 105.545C228.212 106.291 228.022 107.03 227.638 107.671C227.402 108.134 227.077 108.545 226.681 108.882C226.487 109.045 226.314 109.232 226.165 109.437C225.362 110.599 225.485 112.601 226.011 113.895C226.301 114.603 226.644 114.962 226.858 115.001C227.333 115.097 228.465 113.901 229.057 112.431C230.154 109.681 229.155 106.945 228.186 105.545Z" fill="#077594"/>
<path d="M197.933 95.8406L199.928 93.3155L212.378 103.08L209.944 108.667L206.274 114.746L202.01 120.726L194.632 128.277L185.29 138.516L175.083 149.045L176.197 142.131L178.148 135.544L180.301 131.43L184.603 125.851L190.127 122.191L193.092 119.019L195.277 113.747L195.643 107.78L197.933 95.8406Z" fill="white"/>
<path d="M174.232 151.751L174.6 149.322C174.699 148.672 174.795 148.029 174.887 147.401C176.22 138.38 177.265 131.275 185.822 124.087C186.887 123.185 188.042 122.395 189.268 121.727C190.631 120.956 191.456 120.492 192.97 117.993C194.553 115.412 194.704 113.88 195.107 110.2C195.241 108.959 195.405 107.423 195.672 105.529C196.581 98.8386 198.147 93.3334 200.074 90.0479L200.197 89.8388L200.432 89.7775C201.246 89.56 202.17 89.7847 203.171 90.4414C206.717 92.7734 210.865 100.274 211.699 105.876L211.726 106.048L211.654 106.207C208.333 113.562 204.544 119.718 195.947 127.664C184.514 140.579 180.327 144.735 178.309 146.753C177.324 147.656 176.439 148.662 175.668 149.753L174.232 151.751ZM200.947 90.8878C199.157 94.0669 197.7 99.3051 196.831 105.692C196.574 107.569 196.406 109.103 196.275 110.334C195.866 114.09 195.678 115.802 193.974 118.61C192.271 121.417 191.268 121.955 189.846 122.762C188.682 123.391 187.587 124.141 186.579 125C178.415 131.829 177.41 138.36 176.082 147.346C176.463 146.931 176.902 146.512 177.486 145.923C179.494 143.927 183.67 139.768 195.094 126.867L195.135 126.826C203.534 119.079 207.267 113.042 210.517 105.886C209.674 100.662 205.754 93.5524 202.517 91.431C202.063 91.0915 201.516 90.8993 200.949 90.8803L200.947 90.8878Z" fill="#077594"/>
<path d="M225.351 165.392C220.631 163.994 214.707 152.471 213.713 138.056C213.563 135.797 214.391 134.053 215.059 132.654C215.663 131.388 216.14 130.387 215.808 129.392C214.966 127.009 213.956 124.689 212.785 122.45C210.967 118.787 209.401 115.63 209.55 111.257C209.553 111.146 209.55 111.036 209.542 110.926C209.502 110.067 209.435 108.635 210.835 105.468C212.162 102.467 216.033 98.8688 218.954 97.9207C220.067 97.5627 220.986 97.5851 221.694 97.9996C222.033 98.1978 222.384 98.3731 222.747 98.5242C223.715 98.9461 223.764 99.2351 223.988 100.689C224.03 100.964 224.081 101.29 224.145 101.681C225.339 108.831 224.51 117.502 223.773 125.156C223.558 127.266 223.374 129.267 223.24 131.102C222.098 146.73 223.564 153.072 224.989 159.193C225.394 160.95 225.813 162.753 226.16 164.735L226.299 165.648L225.407 165.384L225.351 165.392ZM220.831 98.9106C220.316 98.8086 219.782 98.855 219.293 99.0444C216.675 99.9065 213.083 103.243 211.886 105.943C210.612 108.861 210.65 110.117 210.692 110.87C210.703 111.029 210.706 111.169 210.705 111.283C210.587 115.342 212.09 118.396 213.836 121.914C215.026 124.21 216.054 126.587 216.911 129.027C217.399 130.477 216.774 131.786 216.094 133.169C215.414 134.552 214.724 136.039 214.86 137.983C215.798 151.537 220.953 161.539 224.764 163.863C224.472 162.348 224.144 160.94 223.802 159.484C222.365 153.278 220.869 146.858 222.026 131.041C222.163 129.195 222.349 127.187 222.569 125.062C223.291 117.497 224.117 108.891 222.948 101.892C222.885 101.497 222.832 101.166 222.79 100.891C222.754 100.514 222.679 100.142 222.567 99.781C222.463 99.7188 222.354 99.666 222.241 99.6231C221.838 99.4523 221.446 99.2556 221.068 99.0342C220.994 98.9843 220.914 98.9428 220.831 98.9106Z" fill="#077594"/>
<path d="M226.249 77.0822C226.297 74.8217 226.461 72.5652 226.741 70.3216C226.897 69.119 226.994 66.9249 225.126 64.263C222.843 64.8517 221.595 62.9551 221.179 60.7808C217.489 61.3251 213.646 63.3389 210.308 66.0796C199.856 74.663 193.31 83.7405 192.154 89.0804C192.927 87.5614 199.069 86.4661 202.137 82.0938C203.97 79.4598 204.411 78.0104 206.809 76.9645C208.864 76.0667 209.721 76.3942 212.085 75.3221C214.826 74.087 215.105 72.7697 215.544 73.1126C216.12 73.5614 214.926 74.9108 213.388 75.929C210.332 77.9509 209.294 76.1615 205.713 78.8545C204.372 79.8698 203.532 81.6679 201.853 85.2643C200.056 89.0919 199.08 90.1743 198.562 92.7515C198.422 98.0894 203.956 104.298 210.372 105.744C211.067 105.901 216.918 107.143 221.658 103.577C222.886 102.666 223.897 101.495 224.619 100.148C225.699 102.555 226.931 104.173 227.494 104.07C226.751 102.003 228.04 95.1511 226.249 77.0822Z" fill="#077594"/>
<path d="M225.563 164.841C228.203 168.116 229.427 169.404 232.674 170.37C235.466 171.197 237.499 169.752 239.207 170.786C241.284 172.065 241.801 176.803 240.548 178.766C235.31 177.971 224.208 176.201 220.066 174.552C222.797 172.16 224.609 168.062 225.563 164.841Z" fill="#077594"/>
<path d="M175.184 149.418C173.993 153.438 173.733 155.129 174.912 156.056C176.305 157.132 178.677 156.352 180.207 157.625C182.072 159.193 181.893 163.958 180.362 165.711C172.986 163.567 166.894 164.755 166.71 150.204C170.211 150.352 172.82 151.039 175.184 149.418Z" fill="#077594"/>
<path d="M222.53 63.6303C222.958 63.8769 223.432 64.033 223.922 64.0888C224.413 64.1447 224.909 64.0992 225.382 63.9551C226.413 65.4889 225.533 68.3069 224.725 68.395C223.794 66.3586 223.39 65.191 222.53 63.6303Z" fill="#E05E48"/>
<path d="M224.305 65.9512C226.793 69.382 227.279 72.0111 227.932 76.5484C228.117 77.8313 229.09 86.639 225.407 91.4716C223.688 90.8764 222.294 88.3674 221.785 87.8319C223.146 81.1401 224.709 70.7217 224.305 65.9512Z" fill="#E05E48"/>
</svg>
