<svg width="3206" height="558" viewBox="0 0 3206 558" fill="none" xmlns="http://www.w3.org/2000/svg">
<g clip-path="url(#clip0)">
<path fill-rule="evenodd" clip-rule="evenodd" d="M1419.4 75.5822C1422.29 76.4215 1425.5 77.3502 1429.09 78.3938C1504.47 92.8596 1596.09 54.0662 1656.17 28.6255C1666.6 24.2104 1676.08 20.1974 1684.36 16.9347L1484.44 228.509L991.656 228.509L990.855 230.267L568.415 230.267V229.915L99.5998 229.915L-118.813 97.09C-28.0346 28.8367 89.1245 13.0581 151.141 13.0581C187.608 13.0581 258.622 18.8482 387.169 58.9543C407.693 65.3576 417.787 66.2958 435.126 67.9073L435.947 67.9836C504.916 74.3979 534.474 59.4305 567.106 42.906C583.279 34.7163 600.207 26.1441 623.063 19.6029C648.529 11.6816 666.637 10.914 685.081 11.2055C728.689 11.8946 764.829 23.3867 818.299 40.3893L821.62 41.4451C826.36 42.9519 834.54 45.9522 844.287 49.5273L844.288 49.5276C860.515 55.4792 881.084 63.0236 897.354 67.9219C928.591 75.3467 983.11 84.3834 1062.2 43.7302C1084.17 30.5198 1107.68 19.7747 1132.62 13.3658C1167.4 4.43194 1229.68 -0.531301 1368.65 59.2621C1392.74 67.8582 1396.01 68.8055 1419.4 75.5822Z" fill="url(#paint0_linear)"/>
<path fill-rule="evenodd" clip-rule="evenodd" d="M955.135 100.519C926.845 99.3481 895.484 89.4629 883.84 85.0473C794.83 51.2914 741.683 38.6107 698.474 35.82C628.119 31.2761 588.231 59.6151 564.717 76.3201L564.716 76.3214C561.633 78.5111 558.833 80.5009 556.281 82.1905C535.978 93.624 504.303 105.619 433.602 95.7737C410 92.4868 401.198 89.5623 392.63 86.716C389.658 85.7284 386.714 84.7502 383.19 83.7696C262.927 50.3054 191.761 38.1838 158.182 38.9402C31.3295 41.7975 -98.5098 107.858 -132 136.176L18.5224 232.283L586.378 232.283L586.398 232.377L996.143 232.378V240.241L1619.44 240.241L1689.79 46.8014C1684.93 48.9207 1679.56 51.3344 1673.74 53.9526C1615.41 80.1949 1511.42 126.982 1411.22 103.732C1390.04 96.7095 1386.93 95.4303 1371.6 89.1315C1369.54 88.2853 1367.26 87.3485 1364.69 86.2951C1241.32 35.7831 1172.05 32.8558 1137.28 41.7896C1115.46 47.3951 1093.77 58.0749 1073.46 70.6827C1018.35 100.554 981.927 101.627 955.135 100.519Z" fill="url(#paint1_linear)"/>
<path fill-rule="evenodd" clip-rule="evenodd" d="M1429.2 132.816C1439.24 137.264 1446.73 140.586 1465.45 143.753C1547.83 157.69 1647.8 118.919 1715.07 92.8294C1717.89 91.7351 1720.65 90.6631 1723.35 89.6182L1523.29 229.564L1022.77 229.564L651.689 229.564L651.917 229.916L106.918 229.916L-128.119 169.64C-115.042 154.744 70.5795 74.2385 157.332 74.2385C194.731 74.2385 270.617 74.2385 399.442 120.1C414.725 125.541 436.98 131.125 466.387 133.65C497.394 136.313 519.53 136.185 543.811 129.031L543.781 129.001C543.883 128.984 543.986 128.967 544.088 128.949C550.5 127.047 557.063 124.655 563.982 121.694C570.661 118.278 577.616 114.019 585.037 109.474C609.439 94.5314 638.878 76.5043 680.107 75.2028C703.565 71.6866 759.335 70.9833 880.169 116.343C899.202 123.487 914.693 127.242 932.84 130.758C967.61 138.079 992.864 138.471 1043.5 127.761C1086.57 117.661 1111.53 105.385 1135.74 93.4791C1145.97 88.4481 1156.07 83.4831 1167.34 78.7759C1200.41 64.9679 1280.47 78.7759 1409.12 124.672C1417.88 127.797 1423.9 130.464 1429.2 132.816Z" fill="url(#paint2_linear)"/>
<path fill-rule="evenodd" clip-rule="evenodd" d="M448.427 183.53C431.754 179.827 425.527 177.399 417.321 174.199C414.315 173.026 411.043 171.75 406.895 170.27C275.785 123.489 199.156 123.489 160.882 123.489C89.2988 123.489 -48.7896 182.513 -62.1699 197.42L110.339 229.564H588.14L588.336 229.915L1123.47 229.916V229.564L1558.38 229.564L1775 138.618C1762.98 142.186 1748.43 146.927 1732.26 152.194C1651.39 178.535 1530.09 218.05 1482.63 190.033C1476.81 186.6 1469.6 184.177 1462.32 181.729C1455.53 179.449 1448.68 177.147 1442.83 173.987C1311.02 128.09 1231.6 119.157 1195.11 128.09C1172.23 133.69 1145.97 146.101 1121.87 159.91C1051.77 189.121 988.972 188.72 954.316 181.391C942.697 178.151 937.59 176.609 930.825 174.567L930.823 174.566C927.029 173.421 922.713 172.118 916.435 170.27C814.321 132.426 778.416 129.07 741.442 125.614C734.659 124.981 727.841 124.343 720.571 123.489C655.859 124.739 635.287 137.37 612.176 151.559C598.427 160 583.78 168.993 558.405 176.469L558.559 176.743C519.253 188.992 492.243 188.093 448.427 183.53Z" fill="url(#paint3_linear)"/>
<rect x="-59" y="221" width="1667" height="348" fill="#FAF1DF"/>
</g>
<g clip-path="url(#clip1)">
<path fill-rule="evenodd" clip-rule="evenodd" d="M3033.4 83.5822C3036.29 84.4215 3039.5 85.3502 3043.09 86.3938C3118.47 100.86 3210.09 62.0662 3270.17 36.6255C3280.6 32.2104 3290.08 28.1974 3298.36 24.9347L3098.44 236.509L2605.66 236.509L2604.85 238.267L2182.42 238.267V237.915L1713.6 237.915L1495.19 105.09C1585.97 36.8367 1703.12 21.0581 1765.14 21.0581C1801.61 21.0581 1872.62 26.8482 2001.17 66.9543C2021.69 73.3576 2031.79 74.2958 2049.13 75.9073L2049.95 75.9836C2118.92 82.3979 2148.47 67.4305 2181.11 50.906C2197.28 42.7163 2214.21 34.1441 2237.06 27.6029C2262.53 19.6816 2280.64 18.914 2299.08 19.2055C2342.69 19.8946 2378.83 31.3867 2432.3 48.3893L2435.62 49.4451C2440.36 50.9519 2448.54 53.9522 2458.29 57.5273L2458.29 57.5276C2474.51 63.4792 2495.08 71.0236 2511.35 75.9219C2542.59 83.3467 2597.11 92.3834 2676.2 51.7302C2698.17 38.5198 2721.68 27.7747 2746.62 21.3658C2781.4 12.4319 2843.68 7.4687 2982.65 67.2621C3006.74 75.8582 3010.01 76.8055 3033.4 83.5822Z" fill="url(#paint4_linear)"/>
<path fill-rule="evenodd" clip-rule="evenodd" d="M2569.13 108.519C2540.84 107.348 2509.48 97.4629 2497.84 93.0473C2408.83 59.2914 2355.68 46.6107 2312.47 43.82C2242.12 39.2761 2202.23 67.6151 2178.72 84.3201L2178.72 84.3214C2175.63 86.5111 2172.83 88.5009 2170.28 90.1905C2149.98 101.624 2118.3 113.619 2047.6 103.774C2024 100.487 2015.2 97.5623 2006.63 94.716C2003.66 93.7284 2000.71 92.7502 1997.19 91.7696C1876.93 58.3054 1805.76 46.1838 1772.18 46.9402C1645.33 49.7975 1515.49 115.858 1482 144.176L1632.52 240.283L2200.38 240.283L2200.4 240.377L2610.14 240.378V248.241L3233.44 248.241L3303.79 54.8014C3298.93 56.9207 3293.56 59.3344 3287.74 61.9526C3229.41 88.1949 3125.42 134.982 3025.22 111.732C3004.04 104.709 3000.93 103.43 2985.6 97.1315C2983.54 96.2853 2981.26 95.3485 2978.69 94.2951C2855.32 43.7831 2786.05 40.8558 2751.28 49.7896C2729.46 55.3951 2707.77 66.0749 2687.46 78.6827C2632.35 108.554 2595.93 109.627 2569.13 108.519Z" fill="url(#paint5_linear)"/>
<path fill-rule="evenodd" clip-rule="evenodd" d="M3043.2 140.816C3053.24 145.264 3060.73 148.586 3079.45 151.753C3161.83 165.69 3261.8 126.919 3329.07 100.829C3331.89 99.7351 3334.65 98.6631 3337.35 97.6182L3137.29 237.564L2636.77 237.564L2265.69 237.564L2265.92 237.916L1720.92 237.916L1485.88 177.64C1498.96 162.744 1684.58 82.2385 1771.33 82.2385C1808.73 82.2385 1884.62 82.2385 2013.44 128.1C2028.73 133.541 2050.98 139.125 2080.39 141.65C2111.39 144.313 2133.53 144.185 2157.81 137.031L2157.78 137.001C2157.88 136.984 2157.99 136.967 2158.09 136.949C2164.5 135.047 2171.06 132.655 2177.98 129.694C2184.66 126.278 2191.62 122.019 2199.04 117.475L2199.04 117.474C2223.44 102.531 2252.88 84.5043 2294.11 83.2028C2317.57 79.6866 2373.34 78.9833 2494.17 124.343C2513.2 131.487 2528.69 135.242 2546.84 138.758C2581.61 146.079 2606.86 146.471 2657.5 135.761C2700.57 125.661 2725.53 113.385 2749.74 101.479C2759.97 96.4481 2770.07 91.4831 2781.34 86.7759C2814.41 72.9679 2894.47 86.7759 3023.12 132.672C3031.88 135.797 3037.9 138.464 3043.2 140.816Z" fill="url(#paint6_linear)"/>
<path fill-rule="evenodd" clip-rule="evenodd" d="M2062.43 191.53C2045.75 187.827 2039.53 185.399 2031.32 182.199C2028.31 181.026 2025.04 179.75 2020.89 178.27C1889.78 131.489 1813.16 131.489 1774.88 131.489C1703.3 131.489 1565.21 190.513 1551.83 205.42L1724.34 237.564H2202.14L2202.34 237.915L2737.47 237.916V237.564L3172.38 237.564L3389 146.618C3376.98 150.186 3362.43 154.927 3346.26 160.194C3265.39 186.535 3144.09 226.05 3096.63 198.033C3090.81 194.6 3083.6 192.177 3076.32 189.729C3069.53 187.449 3062.68 185.147 3056.83 181.987C2925.02 136.09 2845.6 127.157 2809.11 136.09C2786.23 141.69 2759.97 154.101 2735.87 167.91C2665.77 197.121 2602.97 196.72 2568.32 189.391C2556.7 186.151 2551.59 184.609 2544.83 182.567L2544.82 182.566C2541.03 181.421 2536.71 180.118 2530.43 178.27C2428.32 140.426 2392.42 137.07 2355.44 133.614C2348.66 132.981 2341.84 132.343 2334.57 131.489C2269.86 132.739 2249.29 145.37 2226.18 159.559C2212.43 168 2197.78 176.993 2172.41 184.469L2172.56 184.743C2133.25 196.992 2106.24 196.093 2062.43 191.53Z" fill="url(#paint7_linear)"/>
<rect x="1569" y="212" width="1653" height="365" fill="#FAF1DF"/>
</g>
<rect y="251" width="1709" height="307" fill="#FAF1DF"/>
<defs>
<linearGradient id="paint0_linear" x1="1303.74" y1="269.512" x2="1303.74" y2="11.8196" gradientUnits="userSpaceOnUse">
<stop stop-color="#FEE7BB"/>
<stop offset="1" stop-color="#FEE7BB"/>
</linearGradient>
<linearGradient id="paint1_linear" x1="1308.4" y1="366.775" x2="1308.4" y2="38.6907" gradientUnits="userSpaceOnUse">
<stop offset="0.75" stop-color="#FEF0D5"/>
<stop offset="0.959899" stop-color="#FCF3E1"/>
</linearGradient>
<linearGradient id="paint2_linear" x1="1336.03" y1="355.987" x2="1336.03" y2="75.3149" gradientUnits="userSpaceOnUse">
<stop offset="0.708333" stop-color="#FAF2DD"/>
<stop offset="0.885417" stop-color="#FEF7ED"/>
</linearGradient>
<linearGradient id="paint3_linear" x1="1374.71" y1="322.36" x2="1374.71" y2="124.396" gradientUnits="userSpaceOnUse">
<stop offset="0.682292" stop-color="#FAF1DF"/>
<stop offset="0.713011" stop-color="#F9F2E0"/>
<stop offset="0.918053" stop-color="#FCF9F2"/>
</linearGradient>
<linearGradient id="paint4_linear" x1="2917.74" y1="277.512" x2="2917.74" y2="19.8196" gradientUnits="userSpaceOnUse">
<stop stop-color="#FEE7BB"/>
<stop offset="1" stop-color="#FEE7BB"/>
</linearGradient>
<linearGradient id="paint5_linear" x1="2922.4" y1="374.775" x2="2922.4" y2="46.6907" gradientUnits="userSpaceOnUse">
<stop offset="0.75" stop-color="#FEF0D5"/>
<stop offset="0.959899" stop-color="#FCF3E1"/>
</linearGradient>
<linearGradient id="paint6_linear" x1="2950.03" y1="363.987" x2="2950.03" y2="83.3149" gradientUnits="userSpaceOnUse">
<stop offset="0.708333" stop-color="#FAF2DD"/>
<stop offset="0.885417" stop-color="#FEF7ED"/>
</linearGradient>
<linearGradient id="paint7_linear" x1="2988.71" y1="330.36" x2="2988.71" y2="132.396" gradientUnits="userSpaceOnUse">
<stop offset="0.682292" stop-color="#FAF1DF"/>
<stop offset="0.713011" stop-color="#F9F2E0"/>
<stop offset="0.918053" stop-color="#FCF9F2"/>
</linearGradient>
<clipPath id="clip0">
<rect width="1592" height="550" fill="white"/>
</clipPath>
<clipPath id="clip1">
<rect width="1637" height="550" fill="white" transform="translate(1569 8)"/>
</clipPath>
</defs>
</svg>
