<svg width="129" height="128" viewBox="0 0 129 128" fill="none" xmlns="http://www.w3.org/2000/svg">
<rect x="0.5" width="128" height="128" rx="16" fill="#E2F5FA"/>
<mask id="mask0" mask-type="alpha" maskUnits="userSpaceOnUse" x="0" y="0" width="129" height="128">
<rect x="0.5" width="128" height="128" rx="16" fill="#77B3C4" fill-opacity="0.43"/>
</mask>
<g mask="url(#mask0)">
<g opacity="0.8">
<path d="M4.77064 128.088C1.66855 112.934 25.9622 97.6851 40.3454 91.9002C44.0382 95.0564 48.0646 96.346 53.4932 96.107C60.2565 95.8139 64.8149 93.9202 66.7267 92.049C68.2687 92.1978 83.4906 113.646 89.5775 112.704C98.0992 111.383 105.399 79.7895 100.931 66.6282C108.596 64.8923 134.932 102.609 121.631 128.097L4.77064 128.088Z" fill="#077594"/>
<path d="M42.1537 80.4478C44.8049 82.7879 51.514 82.9773 55.5495 81.3496C60.1169 79.546 64.2696 75.2807 64.8737 71.4301C70.4557 67.3496 74.2026 67.9763 73.8914 64.5451C73.2557 57.2227 68.4808 55.2118 59.6886 52.9844C57.7363 52.4885 47.181 50.0627 39.9624 56.3751C37.5682 58.4762 35.9044 63.3412 32.622 73.0578C30.1151 74.4601 29.7498 78.234 31.7067 80.8491C33.0323 82.612 37.4149 85.2452 42.1537 80.4478Z" fill="white"/>
<path d="M36.5352 84.3015C36.3729 84.3015 36.2196 84.3015 36.0844 84.3015C35.0598 84.2298 34.0614 83.9459 33.1525 83.4678C32.2436 82.9896 31.444 82.3277 30.8045 81.5241C30.1844 80.7103 29.7434 79.7747 29.5103 78.7785C29.2772 77.7823 29.2573 76.7481 29.4519 75.7437C29.7216 74.357 30.5204 73.1296 31.6792 72.3215C34.9526 62.6636 36.639 57.7895 39.218 55.5216C46.5404 49.119 56.9468 51.1164 59.9587 51.8829C68.3136 54.0066 74.2833 56.1483 75.0047 64.4401C75.2527 67.3077 73.2598 68.2185 70.9468 69.2735C69.1655 70.0375 67.4648 70.9769 65.8698 72.078C64.968 76.0954 60.8154 80.469 55.9503 82.4123C51.216 84.3015 45.2283 83.7018 42.2344 81.9028C40.0747 83.8236 38.0277 84.3015 36.5352 84.3015ZM52.6408 53.2266C48.8579 53.2266 44.331 54.0607 40.7195 57.2214C38.5507 59.1151 36.8283 64.2011 33.7037 73.4532L33.5639 73.8681L33.1807 74.0755C32.789 74.3058 32.4516 74.618 32.1917 74.9908C31.9318 75.3635 31.7555 75.788 31.6747 76.2352C31.541 76.9232 31.5547 77.6318 31.7148 78.3141C31.8749 78.9965 32.1778 79.6372 32.6035 80.194C33.0479 80.7322 33.5965 81.1751 34.2163 81.4958C34.8362 81.8166 35.5146 82.0087 36.2106 82.0606C37.9465 82.1733 39.6689 81.3753 41.3372 79.68L42.0856 78.918L42.8837 79.6258C45.0525 81.5331 51.2251 81.8803 55.1162 80.3428C59.4357 78.6204 63.2321 74.6391 63.7461 71.2755L63.8183 70.8246L64.1925 70.5495C66.0114 69.2441 67.9661 68.1391 70.0224 67.2536C72.4482 66.1444 72.872 65.8558 72.7683 64.6655C72.2092 58.033 68.0746 56.2655 59.4267 54.0697C57.2069 53.5164 54.9285 53.2333 52.6408 53.2266V53.2266Z" fill="#077594"/>
<path d="M101.026 66.5998C98.4645 63.3805 96.413 58.0871 89.5235 53.1905C84.9245 49.9171 81.4076 50.0027 81.101 47.843C80.6997 45.0114 86.1599 40.4079 90.3351 41.2195C98.2842 42.7705 102.671 60.3595 101.026 66.5998Z" fill="white"/>
<path d="M101.544 69.0864L100.146 67.3235C99.4295 66.4217 98.7577 65.3802 98.0498 64.2755C96.1335 61.2997 93.7574 57.6024 88.8698 54.1261C87.284 53.0275 85.5812 52.1081 83.7928 51.3847C81.8134 50.528 80.2534 49.8517 79.9873 48.0256C79.7709 46.5287 80.6186 44.7432 82.3184 43.12C84.1715 41.357 87.436 39.5129 90.5516 40.1171C93.1351 40.6221 95.4842 42.5248 97.5313 45.7847C101.621 52.2955 103.325 62.3096 102.117 66.9087L101.544 69.0864ZM89.3026 42.2543C87.3728 42.2543 85.2447 43.4356 83.892 44.7522C82.7828 45.8118 82.129 46.9705 82.2373 47.701C82.3184 48.2556 83.139 48.6388 84.7081 49.3151C86.6316 50.1043 88.4626 51.1022 90.1683 52.291C95.4076 56.0153 97.919 59.9199 99.9345 63.0536L100.232 63.5045C100.259 58.8423 98.5818 51.7003 95.6105 46.9705C94.4427 45.1084 92.54 42.7908 90.1097 42.3174C89.8434 42.2698 89.5731 42.2487 89.3026 42.2543V42.2543Z" fill="#077594"/>
<path d="M29.9934 79.129C31.7969 81.7306 28.8121 75.4408 32.6356 73.0736C39.1193 79.4041 40.5711 61.1252 45.9817 57.5858C51.2661 54.141 55.1618 52.3149 59.7112 52.9777C60.9917 50.8631 59.0664 48.807 56.5324 46.9223C51.221 42.9771 41.6082 45.3803 33.384 55.4441C27.6217 62.4959 27.2881 75.2289 29.9934 79.129Z" fill="#077594"/>
<path d="M39.4532 55.0573C40.6255 52.875 41.6445 50.9993 40.8419 49.552C39.7643 47.6357 36.0084 47.6267 33.5376 48.4653C29.5878 49.818 25.9357 54.3539 27.0223 58.6192C27.4732 60.3867 28.8799 62.6772 30.9495 63.0559C34.7865 63.7548 38.2087 57.3793 39.4532 55.0573Z" fill="#077594"/>
<path d="M29.8034 54.5599C29.8926 53.4939 29.6253 52.4284 29.0434 51.5308C28.4616 50.6331 27.5981 49.954 26.5886 49.6002C23.7796 48.6984 20.6865 50.9528 20.1725 53.7168C19.8794 55.2678 20.3574 57.2246 21.7371 58.1805C24.2891 59.948 29.3525 57.8829 29.8034 54.5599Z" fill="#077594"/>
<path d="M22.8739 52.1707C22.0127 50.2184 19.2668 49.4654 17.3866 50.2635C14.6001 51.4493 13.8923 56.0483 15.6597 57.6535C17.1882 59.0422 20.66 58.2622 22.2021 56.143C22.3418 55.9536 23.699 54.0329 22.8739 52.1707Z" fill="#077594"/>
<path d="M18.0533 57.2089C17.0117 55.5226 14.2884 54.6344 12.8726 55.8833C11.5831 57.0241 11.6642 59.6798 13.2739 60.9513C14.8835 62.2228 17.4806 61.6907 18.3058 60.1713C19.0272 58.8412 18.1029 57.2901 18.0533 57.2089Z" fill="#077594"/>
<path d="M28.0999 64.1216C27.0989 59.7751 32.0586 50.3697 39.5343 48.5346C40.3188 48.3452 40.6119 48.0837 40.8148 48.5346C39.8634 49.531 38.5604 50.036 36.5945 51.9478C31.3192 57.0878 31.0396 60.3117 29.2045 64.3877C29.0161 64.4666 28.8073 64.4834 28.6086 64.4355C28.41 64.3877 28.2317 64.2777 28.0999 64.1216V64.1216Z" fill="#E05E48"/>
<path d="M58.6063 79.7461C58.2906 86.7348 57.7045 86.4327 66.393 93.1915C64.1386 99.7744 42.8749 96.0816 40.0479 92.9615C44.2321 89.2372 43.2762 88.7367 43.2762 80.95C47.8211 83.2224 55.5493 81.3693 58.6063 79.7461Z" fill="white"/>
<path d="M56.6853 97.9754C49.6515 97.9754 41.1974 95.9014 39.2181 93.7146L38.4561 92.8759L39.3037 92.1184C42.3292 89.4131 42.3156 88.9623 42.1984 84.5797C42.1668 83.5516 42.1353 82.3838 42.1353 80.95V79.1465L43.7675 79.9626C47.9021 82.0276 55.1749 80.3143 58.0831 78.7768L59.828 77.875L59.7378 79.8454C59.7378 80.2692 59.6972 80.666 59.6792 81.0402C59.5394 83.7951 59.4763 85.0531 60.2653 86.293C61.1355 87.6727 63.0969 89.2328 67.0917 92.3439L67.723 92.8399L67.466 93.6018C66.7806 95.5903 64.8328 96.9294 61.6676 97.5832C60.0238 97.8776 58.3549 98.009 56.6853 97.9754V97.9754ZM41.8061 92.8579C45.1201 94.6073 54.9629 96.6093 61.1942 95.3287C62.5468 95.0537 64.1429 94.5217 64.941 93.4981C57.5736 87.7404 57.1182 87.037 57.3752 81.5046C54.0972 82.7446 48.5964 83.8086 44.4032 82.5913C44.4032 83.2946 44.4348 83.9439 44.4483 84.521C44.5655 88.7999 44.4934 90.2428 41.8197 92.8579H41.8061Z" fill="#077594"/>
</g>
</g>
</svg>
