<svg width="129" height="128" viewBox="0 0 129 128" fill="none" xmlns="http://www.w3.org/2000/svg">
<rect x="0.5" width="128" height="128" rx="16" fill="#FFEFD0"/>
<g opacity="0.5">
<path d="M71.17 43.3995C72.4475 40.2058 66.0133 36.3162 63.4894 35.7242C61.6667 35.2983 59.9737 35.7242 59.0234 34.5349C58.3223 33.6521 58.1666 32.0578 58.878 31.2633C60.3165 29.6535 65.0733 30.287 68.6358 32.8576C71.8866 35.1997 73.4861 38.7933 73.9016 38.57C74.4209 38.274 73.6679 34.805 70.3287 31.7774C65.655 27.5295 61.8692 29.8041 59.8647 25.8262C59.3869 24.881 59.0805 23.8632 59.7141 22.9648C61.1681 20.8875 66.3924 22.7571 67.5037 23.1154C72.9305 24.881 74.4468 27.1816 75.662 28.5837C79.1414 32.5979 79.131 34.9244 81.4627 35.4282C84.0592 35.989 85.0095 33.2834 89.2004 31.8553C96.7719 29.2588 104.229 34.5246 105.268 35.2776C106.431 36.124 110.617 39.1672 109.874 41.6754C109.516 42.9062 107.999 43.8773 106.602 43.9084C104.349 43.95 103.71 41.5196 100.952 40.1902C97.1925 38.3778 92.3837 39.9981 92.3214 40.9328C92.2591 41.8676 96.5537 41.7429 102.141 45.0873C107.07 48.0421 108.326 50.862 108.685 51.7811C109.043 52.7003 110.243 55.7746 108.685 57.5818C108.004 58.366 106.743 58.9683 105.709 58.6204C104.328 58.1582 104.437 56.351 103.185 54.466C101.181 51.4436 97.0886 50.3115 96.6368 50.8983C96.1175 51.6046 100.61 54.8502 105.117 62.3231C107.651 66.545 108.155 68.7313 107.496 70.632C106.836 72.5327 104.982 74.2671 103.928 73.9036C102.796 73.5349 103.409 71.1046 102.141 67.6719C100.713 63.72 97.8832 61.2014 97.53 61.4403C97.0523 61.7363 101.305 66.8099 101.399 74.2308C101.399 76.1782 101.472 80.1197 99.1659 81.2207C97.6754 81.9373 95.3386 81.392 94.5544 80.0314C93.5158 78.2606 95.9929 76.5729 95.9981 72.704C95.9789 70.3785 95.1529 68.1318 93.6612 66.3477C91.2776 63.585 88.5512 64.3432 85.1861 62.9255C78.9336 60.3082 68.2048 50.8204 71.17 43.3995Z" fill="#077594"/>
<path d="M59.9224 66.1318C58.6605 76.1129 64.8403 78.5017 69.9606 80.4439C75.081 82.3861 84.2364 83.0405 89.8241 73.8228C92.6076 73.7501 94.6433 74.2071 96.0195 72.753C98.5589 70.0682 96.84 62.9589 93.8799 62.076C91.9741 61.5048 90.7381 63.8884 88.7544 63.3587C86.298 62.6992 86.6771 58.633 84.2727 53.9593C81.1569 47.9197 74.4838 42.9448 69.9606 44.134C68.2781 44.5754 68.5066 45.4478 66.1178 46.4864C61.6361 48.4286 59.0811 46.1281 56.0795 47.3381C51.1357 49.3063 48.6586 59.3289 52.0186 63.3328C53.94 65.6125 56.1678 64.0546 59.9224 66.1318Z" fill="white"/>
<path d="M76.5033 82.939C74.1101 82.9286 71.7385 82.4852 69.5031 81.6304C64.471 79.7245 57.6421 77.1384 58.5249 66.8717C57.5169 66.4632 56.4519 66.2127 55.3675 66.1291C53.8979 65.9525 52.3763 65.7707 51.0313 64.1765C49.1774 61.9746 48.6581 58.3031 49.65 54.3252C50.6418 50.3473 52.9112 47.1899 55.5908 46.1046C57.237 45.4451 58.7067 45.6268 60.1711 45.8034C61.8485 46.0111 63.4324 46.2084 65.5979 45.2841C66.2845 45.0089 66.9134 44.6073 67.4518 44.1001C68.055 43.505 68.8062 43.0819 69.6277 42.8745C74.0574 41.706 81.4575 45.6424 85.425 53.3593C86.2792 55.0975 86.956 56.9173 87.4451 58.7913C88.0164 60.775 88.3747 61.9071 89.0914 62.0941C89.5431 62.2187 89.9742 61.985 90.7012 61.5747C91.5685 61.0554 92.7784 60.3855 94.2533 60.8269C95.9774 61.3462 97.4314 63.2417 98.1429 65.9058C98.7972 68.3465 98.8336 71.6649 96.9589 73.6434C95.4996 75.2014 93.5782 75.1546 91.5425 75.1235C91.2205 75.1235 90.8882 75.1235 90.5454 75.1235C86.7856 80.8462 81.5302 82.939 76.5033 82.939ZM58.1303 48.2337C57.5976 48.2248 57.0684 48.3201 56.5723 48.5142C54.6821 49.2775 52.9372 51.8014 52.179 54.9484C51.4208 58.0954 51.7376 60.9879 53.0099 62.4939C53.6746 63.2781 54.3082 63.3819 55.6791 63.5325C57.3802 63.6661 59.0353 64.1505 60.5398 64.9554L61.324 65.3761L61.2097 66.2589C60.0725 75.2689 65.333 77.263 70.4223 79.1896C72.4008 79.9426 82.6 83.1779 88.7123 73.1086L89.081 72.5062H89.7924C90.4364 72.5062 91.0491 72.5062 91.5892 72.5062C93.438 72.5373 94.4298 72.5062 95.0738 71.8414C95.9826 70.8807 96.2111 68.7256 95.6346 66.5549C95.188 64.8775 94.3156 63.5377 93.5107 63.2936C93.1316 63.1846 92.7577 63.3612 91.9943 63.813C91.127 64.3323 89.9171 65.0022 88.4214 64.5971C86.2507 64.0207 85.6483 61.9279 84.9473 59.5079C84.5084 57.7928 83.8941 56.1274 83.1141 54.5381C80.1956 48.8621 73.9639 44.4116 70.2924 45.3776C69.8655 45.481 69.4787 45.7087 69.1811 46.0319C68.4349 46.7228 67.5715 47.275 66.6313 47.6625C63.8115 48.8829 61.62 48.6128 59.8803 48.3947C59.3005 48.3081 58.7162 48.2543 58.1303 48.2337V48.2337Z" fill="#077594"/>
<path d="M17.5 127.978C20.3198 113.484 43.0291 86.345 57.1387 87.8406C60.6752 92.639 63.5106 95.8483 72.5362 95.8743C80.5751 95.9002 83.9142 93.2777 88.8424 90.6085C93.1319 107.881 106.769 118.651 115.68 127.999L17.5 127.978Z" fill="#077594"/>
<path d="M100.741 68.8439C100.221 73.0606 96.9083 76.1765 93.3095 75.8026C89.7107 75.4287 87.1972 71.6949 87.701 67.4937C88.2047 63.2925 91.5335 60.1559 95.1374 60.535C98.7414 60.9141 101.244 64.6219 100.741 68.8439Z" fill="#E05E48"/>
<path d="M92.8252 64.7413C95.7489 57.2165 96.0398 52.3662 91.6672 43.9378C88.4371 37.7061 84.3398 36.0288 80.5488 35.2446C81.0681 34.3462 84.4177 34.1385 87.601 35.4575C95.3906 38.672 98.9011 46.2539 99.5191 47.817C102.318 54.8588 101.84 60.3272 98.2312 65.7487C97.3153 66.0258 96.3462 66.0789 95.4055 65.9036C94.4648 65.7283 93.5799 65.3297 92.8252 64.7413V64.7413Z" fill="#E05E48"/>
<path d="M85.498 79.793C85.254 85.2093 86.0537 85.2924 88.0946 92.3706C86.3445 97.4702 60.457 99.0229 57.1387 88.8133C65.3126 85.6975 69.0048 83.9682 69.9604 80.4161C73.8604 81.6209 83.0313 81.5586 85.498 79.793Z" fill="white"/>
<path d="M74.6233 97.656H74.3065C59.7659 97.5365 56.5566 91.1646 55.923 89.2172L55.5439 88.0436L56.6968 87.6022C64.4501 84.6421 67.9294 83.0375 68.7292 80.0774L69.0771 78.774L70.365 79.1738C74.2338 80.3682 82.8283 80.1086 84.7654 78.7376L86.9361 77.1797L86.8166 79.8489C86.6504 83.536 86.9724 84.5227 87.9383 87.4516C88.3174 88.6044 88.79 90.0481 89.3612 92.0059L89.4755 92.4006L89.3405 92.7901C88.1668 96.15 80.9485 97.656 74.6233 97.656ZM58.8831 89.534C61.2407 93.5119 68.4591 95.0127 74.3065 95.0594C80.8913 95.1062 85.6949 93.5327 86.7024 92.2344C86.209 90.557 85.7936 89.2951 85.4508 88.2617C84.62 85.7379 84.1837 84.424 84.1578 81.7548C80.5226 82.7934 74.3948 82.7051 70.7752 81.9573C69.2277 85.2549 65.2758 87.0725 58.8831 89.534Z" fill="#077594"/>
</g>
</svg>
