<svg id="Layer_1" data-name="Layer 1" xmlns="http://www.w3.org/2000/svg" xmlns:xlink="http://www.w3.org/1999/xlink" viewBox="0 0 404.3 404.54"><defs><style>.cls-1{fill:none;}.cls-2{fill:#f6f6f6;}.cls-3{clip-path:url(#clip-path);}.cls-4{opacity:0.54;}.cls-5{fill:#f3cec9;}.cls-6{fill:#077594;}.cls-7{fill:#fff;}.cls-8{fill:#77b3c4;}</style><clipPath id="clip-path"><circle class="cls-1" cx="202.03" cy="202.27" r="202.27"/></clipPath></defs><circle class="cls-2" cx="202.03" cy="202.27" r="202.27"/><g class="cls-3"><g class="cls-4"><path class="cls-5" d="M183.3,471.64C153,453.33,137.41,434.52,137,415.73c-.38-17.91,12.59-30.75,25.12-43.17,12.68-12.56,24.66-24.43,23.27-40.81-1.14-13.43-10.75-21.82-20-29.94-9.58-8.37-19.49-17-18.9-30.88.58-13.55,10.54-21.69,20.16-29.57,9.4-7.69,18.29-15,18.52-26.76.24-12.12-8.8-20.06-18.36-28.46-9.84-8.65-20-17.59-19.87-31.64.13-13,9-21.37,17.49-29.44,8.2-7.76,16-15.08,15.06-25.89-.75-9.22-7.16-14.53-14.57-20.69s-15.56-12.9-19-24.77C141.29,37.8,147.05,18.87,163-2.58l.6-.8L166-1.57c-15.84,21-21.62,39.3-17.24,54.44,3.18,11,10.73,17.24,18,23.29,7.61,6.32,14.8,12.28,15.66,22.77,1,12.24-7.64,20.42-16,28.32-8.08,7.65-16.43,15.55-16.55,27.28-.13,12.66,9.08,20.76,18.84,29.34s19.65,17.26,19.39,30.79c-.26,13.2-10.11,21.25-19.63,29S150,258.86,149.47,271.05c-.53,12.42,8.4,20.22,17.86,28.49,9.75,8.51,19.83,17.31,21.07,31.95,1.5,17.8-11.54,30.72-24.15,43.21-12.09,12-24.58,24.36-24.23,41,.38,17.7,15.47,35.66,44.84,53.39Z"/><path class="cls-5" d="M206.44,467.87c-30.32-18.3-45.89-37.11-46.3-55.91-.38-17.9,12.58-30.74,25.12-43.17s24.66-24.42,23.27-40.81c-1.14-13.42-10.75-21.82-20-29.94-9.58-8.36-19.49-17-18.9-30.88.58-13.54,10.54-21.69,20.16-29.56,9.4-7.69,18.29-15,18.52-26.77.24-12.12-8.8-20.06-18.36-28.46-9.84-8.64-20-17.59-19.87-31.63.13-13,9-21.37,17.49-29.44,8.2-7.76,15.95-15.08,15.06-25.89-.75-9.22-7.16-14.54-14.57-20.69s-15.56-12.91-19-24.78c-4.59-15.9,1.17-34.83,17.13-56.28l.6-.81,2.41,1.82-.59.79c-15.37,20.66-21,38.69-16.65,53.64,3.18,11,10.73,17.24,18,23.3,7.61,6.31,14.8,12.27,15.66,22.76,1,12.25-7.64,20.43-16,28.33-8.08,7.64-16.43,15.54-16.55,27.28-.13,12.66,9.08,20.76,18.84,29.34s19.65,17.26,19.39,30.78c-.27,13.21-10.11,21.26-19.63,29.05s-18.53,15.16-19,27.35c-.53,12.41,8.4,20.22,17.86,28.48,9.75,8.52,19.83,17.32,21.07,32,1.5,17.79-11.54,30.71-24.15,43.21-12.09,12-24.58,24.35-24.23,41,.38,17.69,15.47,35.66,44.84,53.39Z"/><path class="cls-5" d="M160.4,467.26c-30.31-18.3-45.89-37.12-46.29-55.91-.39-17.9,12.58-30.75,25.12-43.17s24.65-24.42,23.26-40.81c-1.13-13.42-10.74-21.82-20-29.94-9.58-8.37-19.48-17-18.89-30.88.57-13.55,10.53-21.69,20.16-29.57,9.4-7.69,18.28-14.95,18.51-26.76.24-12.12-8.79-20.06-18.36-28.46-9.84-8.65-20-17.59-19.87-31.64.14-13,9-21.36,17.5-29.44,8.19-7.75,15.94-15.08,15.06-25.88-.76-9.23-7.16-14.54-14.58-20.69S126.42,61.2,123,49.33c-4.66-16.1,1.35-35.31,17.73-57.09l2.41,1.82-.6.79c-15.37,20.65-21,38.69-16.64,53.64,3.17,11,10.72,17.24,18,23.29,7.61,6.32,14.79,12.28,15.65,22.77,1,12.25-7.63,20.42-16,28.33-8.08,7.64-16.43,15.54-16.55,27.27-.13,12.67,9.09,20.77,18.85,29.34s19.64,17.26,19.38,30.79c-.26,13.2-10.1,21.25-19.62,29s-18.54,15.16-19.06,27.36c-.53,12.41,8.41,20.21,17.87,28.48,9.74,8.51,19.82,17.32,21.06,32,1.51,17.79-11.53,30.71-24.15,43.2-12.08,12-24.58,24.36-24.22,41,.38,17.7,15.46,35.66,44.83,53.4Z"/><path class="cls-5" d="M252.33,472.19C222,453.88,206.45,435.07,206,416.28c-.38-17.91,12.58-30.75,25.12-43.17s24.66-24.43,23.27-40.81c-1.14-13.43-10.75-21.82-20-29.94-9.58-8.37-19.49-17-18.9-30.89.58-13.54,10.53-21.68,20.16-29.56,9.4-7.69,18.28-14.95,18.52-26.76.23-12.13-8.8-20.06-18.36-28.46-9.84-8.65-20-17.59-19.87-31.64.13-13,9-21.37,17.49-29.44,8.2-7.76,15.94-15.08,15.06-25.89-.76-9.22-7.16-14.53-14.58-20.69s-15.55-12.9-19-24.77c-4.6-15.91,1.17-34.84,17.13-56.29l.6-.8L235.06-1c-15.84,21-21.62,39.3-17.24,54.44,3.18,11,10.72,17.24,18,23.29C243.45,83,250.64,89,251.5,99.48c1,12.24-7.64,20.42-16,28.32-8.07,7.64-16.42,15.55-16.55,27.28-.13,12.66,9.09,20.76,18.85,29.34s19.65,17.26,19.38,30.79c-.26,13.2-10.1,21.25-19.62,29S219,259.41,218.51,271.6c-.53,12.42,8.4,20.22,17.86,28.49,9.75,8.51,19.82,17.31,21.06,32,1.51,17.79-11.53,30.72-24.14,43.21-12.09,12-24.59,24.35-24.23,41,.38,17.7,15.46,35.66,44.83,53.39Z"/><path class="cls-5" d="M275.47,468.42c-30.31-18.3-45.88-37.11-46.29-55.91-.38-17.9,12.58-30.74,25.12-43.17s24.65-24.42,23.27-40.81c-1.14-13.42-10.75-21.82-20.05-29.94-9.57-8.37-19.48-17-18.89-30.88.58-13.54,10.53-21.69,20.16-29.56,9.4-7.69,18.28-15,18.52-26.77.23-12.12-8.8-20.06-18.36-28.46-9.84-8.65-20-17.59-19.87-31.63.13-13,9-21.37,17.49-29.44,8.2-7.76,15.94-15.09,15.06-25.89-.76-9.22-7.16-14.54-14.58-20.69s-15.55-12.91-19-24.78c-4.6-15.9,1.17-34.84,17.13-56.28l.6-.81,2.41,1.82-.59.79c-15.37,20.65-21,38.69-16.65,53.64,3.18,11,10.72,17.24,18,23.3,7.61,6.31,14.8,12.27,15.66,22.76,1,12.25-7.64,20.42-16,28.33-8.07,7.64-16.42,15.54-16.54,27.28-.14,12.66,9.08,20.76,18.84,29.33s19.65,17.27,19.38,30.79c-.26,13.21-10.1,21.26-19.62,29s-18.53,15.17-19,27.36c-.53,12.41,8.4,20.22,17.86,28.48,9.75,8.52,19.83,17.32,21.06,32,1.51,17.79-11.53,30.71-24.14,43.21-12.09,12-24.59,24.35-24.23,41,.38,17.69,15.46,35.66,44.83,53.39Z"/><path class="cls-5" d="M229.44,467.81c-30.31-18.3-45.89-37.12-46.29-55.91-.39-17.91,12.58-30.75,25.12-43.17s24.65-24.42,23.26-40.81c-1.14-13.42-10.75-21.82-20-29.94-9.58-8.37-19.49-17-18.89-30.88.57-13.55,10.53-21.69,20.15-29.57,9.41-7.69,18.29-14.95,18.52-26.76.24-12.12-8.8-20.06-18.36-28.46-9.84-8.65-20-17.59-19.87-31.64.14-13,9-21.36,17.49-29.44,8.2-7.76,15.95-15.08,15.06-25.89-.75-9.22-7.16-14.53-14.57-20.68s-15.56-12.91-19-24.78C187.43,34,193.19,15,209.15-6.41l.6-.8,2.41,1.82c-15.82,21-21.61,39.29-17.24,54.43,3.18,11,10.73,17.24,18,23.29,7.61,6.32,14.8,12.28,15.66,22.77,1,12.25-7.63,20.42-16,28.33-8.08,7.64-16.43,15.54-16.55,27.27-.13,12.67,9.09,20.76,18.84,29.34s19.65,17.26,19.39,30.79c-.26,13.2-10.11,21.25-19.62,29S196.13,255,195.61,267.22c-.53,12.42,8.41,20.22,17.86,28.49,9.75,8.51,19.83,17.32,21.07,32,1.5,17.8-11.54,30.72-24.15,43.21-12.09,12-24.58,24.36-24.23,41,.38,17.7,15.47,35.66,44.84,53.4Z"/><path class="cls-5" d="M42.85,471.05C12.54,452.75-3,433.94-3.44,415.14c-.39-17.9,12.58-30.75,25.12-43.17s24.65-24.42,23.26-40.81c-1.13-13.42-10.74-21.82-20-29.94-9.58-8.37-19.48-17-18.89-30.88.58-13.54,10.53-21.69,20.16-29.56,9.4-7.69,18.28-15,18.51-26.77.24-12.12-8.79-20.06-18.36-28.46-9.84-8.65-20-17.59-19.87-31.63.14-13,9-21.37,17.5-29.44,8.2-7.76,15.94-15.09,15.06-25.89-.76-9.22-7.16-14.54-14.58-20.69S8.87,65,5.44,53.12C.84,37.22,6.6,18.29,22.56-3.16L23.17-4l2.41,1.82-.6.8C9.61,19.29,4,37.34,8.34,52.28c3.17,11,10.72,17.24,18,23.3C34,81.89,41.15,87.85,42,98.34c1,12.25-7.63,20.42-16,28.33C17.94,134.31,9.59,142.21,9.47,154c-.13,12.66,9.09,20.76,18.85,29.33S48,200.55,47.7,214.07c-.26,13.21-10.1,21.26-19.62,29S9.54,258.28,9,270.47c-.53,12.41,8.41,20.22,17.87,28.48,9.74,8.52,19.82,17.32,21.06,32,1.51,17.79-11.53,30.71-24.15,43.21-12.08,12-24.58,24.35-24.22,41C0,432.77,15,450.74,44.41,468.47Z"/><path class="cls-5" d="M66,467.29C35.68,449,20.1,430.17,19.7,411.38c-.39-17.91,12.58-30.75,25.12-43.17s24.65-24.42,23.26-40.81C67,314,57.34,305.58,48,297.46c-9.58-8.37-19.48-17-18.89-30.88C29.72,253,39.68,244.89,49.31,237c9.4-7.69,18.28-14.95,18.51-26.76.24-12.12-8.79-20.06-18.36-28.46-9.84-8.65-20-17.59-19.87-31.64.14-13,9-21.36,17.5-29.44C55.29,113,63,105.63,62.15,94.82,61.39,85.6,55,80.29,47.57,74.14S32,61.23,28.58,49.36C23.92,33.26,29.89,14,46.31-7.73l2.41,1.82-.6.79c-15.37,20.65-21,38.69-16.64,53.64,3.17,11,10.72,17.24,18,23.29,7.61,6.32,14.79,12.28,15.65,22.77,1,12.25-7.63,20.42-16,28.33-8.08,7.64-16.43,15.54-16.55,27.27-.13,12.67,9.09,20.76,18.85,29.34s19.64,17.26,19.38,30.79c-.26,13.2-10.1,21.25-19.62,29S32.68,254.51,32.16,266.7c-.53,12.42,8.41,20.22,17.87,28.49,9.74,8.51,19.82,17.32,21.06,31.95,1.51,17.8-11.53,30.72-24.15,43.21-12.08,12-24.58,24.36-24.22,41C23.1,429,38.18,447,67.55,464.71Z"/><path class="cls-5" d="M20,466.67c-30.32-18.3-45.89-37.11-46.3-55.91-.38-17.9,12.58-30.74,25.12-43.17s24.65-24.42,23.27-40.8c-1.14-13.43-10.75-21.82-20-30-9.57-8.36-19.48-17-18.89-30.88.58-13.54,10.53-21.68,20.16-29.56,9.4-7.69,18.28-15,18.52-26.77.23-12.12-8.8-20-18.36-28.46-9.84-8.64-20-17.59-19.87-31.63.13-13,9-21.37,17.49-29.44C9.25,112.34,17,105,16.11,94.21,15.35,85,9,79.67,1.53,73.52S-14,60.61-17.46,48.74c-4.6-15.9,1.17-34.83,17.13-56.28l.6-.81L2.68-6.53c-15.81,21-21.62,39.3-17.24,54.43,3.18,11,10.72,17.24,18,23.3C11.07,77.51,18.26,83.47,19.12,94c1,12.25-7.64,20.42-16,28.33-8.07,7.64-16.42,15.54-16.54,27.28-.14,12.66,9.08,20.76,18.84,29.34s19.65,17.26,19.38,30.78C24.54,222.9,14.7,231,5.18,238.74s-18.53,15.16-19,27.35C-14.4,278.5-5.47,286.31,4,294.57c9.75,8.52,19.83,17.32,21.06,32,1.51,17.79-11.53,30.71-24.14,43.21-12.09,12-24.59,24.35-24.23,41,.38,17.69,15.46,35.66,44.83,53.39Z"/><path class="cls-5" d="M111.89,471.6C81.57,453.3,66,434.49,65.6,415.69c-.39-17.9,12.58-30.75,25.12-43.17S115.37,348.1,114,331.71c-1.14-13.42-10.75-21.82-20-29.94-9.58-8.37-19.49-17-18.89-30.88.57-13.54,10.53-21.69,20.15-29.56,9.41-7.69,18.29-15,18.52-26.77.24-12.12-8.79-20.06-18.36-28.46-9.84-8.65-20-17.59-19.87-31.63.14-13,9-21.37,17.49-29.44,8.2-7.76,16-15.09,15.06-25.89-.75-9.23-7.16-14.54-14.57-20.69s-15.56-12.91-19-24.78c-4.6-15.9,1.16-34.84,17.12-56.28l.6-.81L94.61-1.6C78.78,19.37,73,37.69,77.37,52.83c3.18,11,10.73,17.24,18,23.3,7.6,6.31,14.79,12.27,15.65,22.76,1,12.25-7.64,20.42-16,28.33C87,134.86,78.63,142.76,78.51,154.5c-.13,12.66,9.08,20.76,18.84,29.33S117,201.1,116.74,214.62c-.26,13.2-10.11,21.26-19.62,29S78.58,258.83,78.06,271c-.53,12.41,8.41,20.22,17.86,28.48,9.75,8.51,19.83,17.32,21.07,32,1.5,17.79-11.54,30.71-24.15,43.21-12.09,12-24.58,24.35-24.23,41C69,433.32,84.08,451.28,113.45,469Z"/><path class="cls-5" d="M135,467.84c-30.31-18.31-45.89-37.12-46.29-55.91-.39-17.91,12.58-30.75,25.12-43.17s24.65-24.43,23.26-40.81c-1.14-13.43-10.75-21.82-20-29.94-9.58-8.37-19.49-17-18.89-30.88.57-13.55,10.53-21.69,20.15-29.57,9.41-7.69,18.29-14.95,18.52-26.76.24-12.13-8.8-20.06-18.36-28.46-9.84-8.65-20-17.59-19.87-31.64.14-13,9-21.37,17.49-29.44,8.2-7.76,15.95-15.08,15.06-25.89-.75-9.22-7.16-14.53-14.57-20.69s-15.56-12.9-19-24.77C93,34,98.78,15.07,114.74-6.38l.6-.8,2.41,1.81c-.19.27-.39.54-.59.8-15.37,20.65-21,38.69-16.65,53.64,3.18,11,10.73,17.24,18,23.29,7.61,6.32,14.8,12.28,15.66,22.77,1,12.24-7.64,20.42-16,28.32-8.08,7.64-16.43,15.55-16.55,27.28-.13,12.66,9.09,20.76,18.84,29.34s19.65,17.26,19.39,30.79c-.26,13.2-10.11,21.25-19.62,29s-18.54,15.16-19.06,27.35c-.53,12.42,8.41,20.22,17.86,28.49,9.75,8.51,19.83,17.31,21.07,31.95,1.5,17.8-11.54,30.72-24.15,43.21-12.09,12-24.58,24.36-24.23,41,.38,17.7,15.47,35.66,44.84,53.4Z"/><path class="cls-5" d="M89,467.22c-30.31-18.3-45.89-37.11-46.29-55.91-.39-17.9,12.58-30.75,25.12-43.17s24.65-24.42,23.26-40.81C90,313.91,80.34,305.51,71,297.39c-9.58-8.36-19.48-17-18.89-30.88C52.73,253,62.68,244.82,72.31,237c9.4-7.69,18.28-15,18.51-26.77.24-12.12-8.79-20.06-18.35-28.46-9.84-8.65-20-17.59-19.88-31.63.14-13,9-21.37,17.5-29.44,8.2-7.76,15.94-15.09,15.06-25.89C84.39,85.54,78,80.22,70.57,74.07S55,61.16,51.58,49.29C46.92,33.19,52.92,14,69.31-7.8L71.72-6C55.89,15,50.1,33.31,54.48,48.45c3.18,11,10.72,17.24,18,23.3C80.11,78.06,87.3,84,88.16,94.51c1,12.25-7.64,20.42-16,28.33-8.07,7.64-16.43,15.54-16.55,27.28-.13,12.66,9.09,20.76,18.85,29.34s19.65,17.26,19.38,30.78c-.26,13.21-10.1,21.26-19.62,29s-18.54,15.17-19,27.36c-.53,12.41,8.4,20.22,17.86,28.48,9.74,8.52,19.82,17.32,21.06,32,1.51,17.79-11.53,30.71-24.15,43.21-12.08,12-24.58,24.35-24.22,41,.38,17.69,15.46,35.66,44.83,53.39Z"/><path class="cls-5" d="M438.77,462.92c-30.31-18.3-45.89-37.11-46.29-55.91-.38-17.9,12.58-30.75,25.12-43.17s24.65-24.42,23.26-40.81c-1.13-13.42-10.74-21.82-20-29.94-9.58-8.37-19.48-17-18.89-30.88.58-13.54,10.53-21.69,20.16-29.56,9.4-7.69,18.28-15,18.51-26.77.24-12.12-8.79-20.06-18.35-28.46-9.85-8.65-20-17.59-19.88-31.63.14-13,9-21.37,17.5-29.44,8.2-7.76,15.94-15.09,15.06-25.89-.76-9.22-7.16-14.54-14.58-20.69s-15.56-12.91-19-24.78c-4.66-16.1,1.33-35.33,17.73-57.09l2.41,1.82c-15.8,21-21.62,39.29-17.24,54.43,3.18,11,10.72,17.24,18,23.3,7.61,6.31,14.8,12.27,15.66,22.76,1,12.25-7.64,20.42-16,28.33-8.07,7.64-16.43,15.54-16.55,27.28-.13,12.66,9.09,20.76,18.85,29.33s19.65,17.27,19.38,30.79c-.26,13.21-10.1,21.26-19.62,29S405.46,250.15,405,262.34c-.53,12.41,8.4,20.22,17.86,28.48,9.75,8.52,19.82,17.32,21.06,32,1.51,17.79-11.53,30.71-24.15,43.21-12.08,12-24.58,24.35-24.22,41,.38,17.69,15.46,35.66,44.83,53.39Z"/><path class="cls-5" d="M321.22,466.72c-30.31-18.31-45.89-37.12-46.29-55.92-.38-17.9,12.58-30.75,25.12-43.17s24.65-24.42,23.26-40.8c-1.13-13.43-10.74-21.82-20-29.94-9.58-8.37-19.48-17-18.89-30.89.58-13.54,10.53-21.68,20.16-29.56,9.4-7.69,18.28-14.95,18.51-26.77.24-12.12-8.79-20-18.35-28.46-9.85-8.64-20-17.58-19.88-31.63.14-13,9-21.37,17.5-29.44,8.2-7.76,15.94-15.08,15.06-25.89-.76-9.22-7.16-14.54-14.58-20.69s-15.56-12.9-19-24.78c-4.66-16.1,1.34-35.31,17.73-57.08L304-6.49c-15.83,21-21.62,39.3-17.24,54.43,3.18,11,10.72,17.25,18,23.3,7.61,6.31,14.8,12.28,15.66,22.77,1,12.24-7.64,20.42-16,28.32-8.07,7.64-16.43,15.54-16.55,27.28-.13,12.66,9.09,20.76,18.85,29.34s19.65,17.26,19.38,30.78c-.26,13.21-10.1,21.26-19.62,29.05s-18.53,15.16-19.05,27.35c-.53,12.41,8.4,20.22,17.86,28.48,9.74,8.52,19.82,17.32,21.06,32,1.51,17.79-11.53,30.71-24.15,43.21-12.08,12-24.58,24.35-24.22,41,.38,17.69,15.46,35.66,44.83,53.39Z"/><path class="cls-5" d="M344.36,463c-30.31-18.3-45.89-37.11-46.29-55.91-.38-17.9,12.58-30.75,25.12-43.17s24.65-24.42,23.26-40.81c-1.13-13.42-10.74-21.82-20-29.94-9.58-8.37-19.48-17-18.89-30.88.58-13.55,10.53-21.69,20.16-29.56,9.4-7.69,18.28-15,18.51-26.77.24-12.12-8.79-20.06-18.35-28.46-9.85-8.65-20-17.59-19.88-31.64.14-13,9-21.36,17.5-29.43,8.2-7.76,15.94-15.09,15.06-25.89-.76-9.23-7.16-14.54-14.58-20.69S310.38,56.89,307,45c-4.66-16.1,1.34-35.33,17.73-57.09l2.41,1.82-.6.8c-15.37,20.64-21,38.68-16.64,53.63,3.18,11,10.72,17.24,18,23.3,7.61,6.31,14.8,12.27,15.66,22.76,1,12.25-7.64,20.42-16,28.33-8.08,7.64-16.43,15.54-16.55,27.28-.13,12.66,9.09,20.76,18.85,29.33s19.65,17.27,19.38,30.79c-.26,13.2-10.1,21.26-19.62,29s-18.53,15.17-19,27.36c-.53,12.41,8.4,20.22,17.86,28.48,9.75,8.51,19.82,17.32,21.06,32,1.51,17.79-11.53,30.71-24.15,43.2-12.08,12-24.58,24.36-24.22,41,.38,17.7,15.46,35.66,44.83,53.4Z"/><path class="cls-5" d="M298.33,462.34C268,444,252.44,425.22,252,406.43c-.38-17.91,12.58-30.75,25.12-43.17s24.66-24.43,23.27-40.81c-1.14-13.43-10.75-21.82-20-29.94-9.58-8.37-19.49-17-18.9-30.89.58-13.54,10.53-21.68,20.16-29.56,9.41-7.69,18.28-14.95,18.52-26.77.23-12.12-8.8-20-18.36-28.45-9.84-8.65-20-17.59-19.87-31.64.13-13,9-21.37,17.49-29.44,8.2-7.76,15.95-15.08,15.06-25.89-.75-9.22-7.16-14.53-14.57-20.69s-15.56-12.9-19-24.77C256.31,28.5,262.08,9.57,278-11.88l.6-.8,2.41,1.81c-.2.27-.4.53-.59.8-15.37,20.65-21,38.69-16.65,53.64,3.18,11,10.72,17.24,18,23.29,7.61,6.31,14.8,12.28,15.66,22.77,1,12.24-7.64,20.42-16,28.32-8.08,7.65-16.43,15.55-16.55,27.28-.13,12.66,9.08,20.76,18.84,29.34s19.65,17.26,19.38,30.78c-.26,13.21-10.1,21.26-19.62,29.05S265,249.56,264.5,261.75c-.53,12.42,8.4,20.22,17.86,28.48,9.75,8.52,19.83,17.32,21.07,32,1.5,17.8-11.54,30.72-24.15,43.21-12.09,12-24.59,24.36-24.23,41,.38,17.7,15.47,35.66,44.84,53.39Z"/><path class="cls-5" d="M390.26,467.27C360,449,344.37,430.15,344,411.35c-.39-17.9,12.58-30.74,25.12-43.17s24.65-24.42,23.26-40.8c-1.13-13.43-10.74-21.82-20-29.94-9.58-8.37-19.48-17-18.89-30.89C354,253,364,244.87,373.58,237c9.4-7.69,18.28-15,18.51-26.77.24-12.12-8.79-20.05-18.36-28.46-9.84-8.64-20-17.59-19.87-31.63.14-13,9-21.37,17.5-29.44,8.19-7.76,15.94-15.08,15.05-25.89-.75-9.22-7.15-14.54-14.57-20.69s-15.56-12.91-19-24.78C348.25,33.43,354,14.5,370-6.95l.61-.81L373-5.94l-.6.8c-15.37,20.65-21,38.69-16.64,53.63,3.17,11,10.72,17.25,18,23.3,7.61,6.31,14.79,12.28,15.65,22.76,1,12.25-7.63,20.43-16,28.33-8.08,7.64-16.43,15.54-16.55,27.28-.13,12.66,9.09,20.76,18.85,29.34s19.64,17.26,19.38,30.78c-.26,13.21-10.1,21.26-19.62,29.05S357,254.49,356.43,266.68c-.53,12.41,8.41,20.22,17.87,28.48,9.74,8.52,19.82,17.32,21.06,32,1.51,17.79-11.54,30.71-24.15,43.21-12.08,12-24.58,24.35-24.23,41,.39,17.69,15.47,35.66,44.84,53.39Z"/><path class="cls-5" d="M413.4,463.5c-30.31-18.3-45.89-37.11-46.29-55.91-.39-17.91,12.58-30.75,25.12-43.17s24.65-24.42,23.26-40.81c-1.13-13.42-10.75-21.82-20-29.94-9.58-8.37-19.48-17-18.89-30.88.58-13.55,10.53-21.69,20.16-29.56,9.4-7.69,18.28-15,18.51-26.77.24-12.12-8.79-20.06-18.36-28.46-9.84-8.65-20-17.59-19.87-31.64.14-13,9-21.36,17.5-29.44,8.19-7.75,15.94-15.08,15.05-25.88C408.8,81.81,402.4,76.5,395,70.35s-15.56-12.91-19-24.78c-4.6-15.9,1.16-34.84,17.12-56.28l.61-.81,2.41,1.82c-15.82,21-21.62,39.29-17.24,54.43,3.17,11,10.72,17.24,18,23.29,7.61,6.32,14.79,12.28,15.65,22.77,1,12.25-7.63,20.42-16,28.33-8.08,7.64-16.43,15.54-16.55,27.27-.13,12.67,9.09,20.77,18.85,29.34s19.64,17.27,19.38,30.79c-.26,13.2-10.1,21.25-19.62,29s-18.54,15.16-19.06,27.36c-.53,12.41,8.41,20.21,17.87,28.48,9.74,8.51,19.82,17.32,21.06,32,1.51,17.79-11.54,30.71-24.15,43.2-12.08,12-24.58,24.36-24.23,41,.39,17.7,15.47,35.66,44.84,53.4Z"/><path class="cls-5" d="M367.36,462.89c-30.31-18.31-45.88-37.12-46.29-55.91-.38-17.91,12.58-30.75,25.12-43.17s24.65-24.43,23.27-40.81c-1.14-13.43-10.75-21.82-20-29.94-9.57-8.37-19.48-17-18.89-30.89.58-13.54,10.53-21.68,20.16-29.56,9.4-7.69,18.28-15,18.51-26.77.24-12.12-8.79-20.05-18.35-28.46-9.84-8.64-20-17.58-19.87-31.63.13-13,9-21.37,17.49-29.44,8.2-7.76,15.94-15.08,15.06-25.89-.76-9.22-7.16-14.53-14.58-20.69S333.39,56.83,330,45c-4.6-15.9,1.17-34.83,17.13-56.28l.6-.8,2.41,1.81c-15.84,21-21.62,39.3-17.24,54.44,3.18,11,10.72,17.24,18,23.29,7.61,6.31,14.8,12.28,15.66,22.77,1,12.24-7.64,20.42-16,28.32-8.07,7.64-16.42,15.54-16.55,27.28-.13,12.66,9.09,20.76,18.85,29.34s19.65,17.26,19.38,30.78c-.26,13.21-10.1,21.26-19.62,29s-18.53,15.16-19,27.35c-.53,12.42,8.4,20.22,17.86,28.48,9.75,8.52,19.82,17.32,21.06,32,1.51,17.79-11.53,30.71-24.15,43.21-12.08,12-24.58,24.35-24.22,41,.38,17.69,15.46,35.66,44.83,53.39Z"/></g></g><g class="cls-3"><path class="cls-6" d="M280.09,89.54C287.1,85,286.27,72,285,66c-4.85-22.56-33.91-32.43-51.59-33.9-4.78-.39-19.42-1.41-32.69,7.24-7.28,4.74-14.47,12.59-12.78,15.78,2.34,4.42,20.66-2,21.73,1,.64,1.78-6,3.73-11.45,11.07-.94,1.27-8.37,11.63-5.11,23,.83,2.86,2,7.08,4.7,7.63a46,46,0,0,0,29.29-4C246.82,84.34,266.14,98.59,280.09,89.54Z"/><path class="cls-7" d="M175.56,110.87c7.29-.15,11.58,6.65,26.5,20.77,8.46,8,9.36,9.06,14.66,15.19,4.14,4.78-7.46,18.2-13.09,18.79-5.47-9-4.89-11.22-17.73-24.63-11.46-12-19.69-9.67-20.22-16.65C165.12,116.92,169.55,111,175.56,110.87Z"/><path class="cls-6" d="M202.32,168.28l-.82-1.35c-1.38-2.26-2.4-4.13-3.29-5.77-2.71-5-4.67-8.57-14.12-18.44a43.93,43.93,0,0,0-13.31-9.59c-3.87-1.95-7.22-3.64-7.59-8.6A16.31,16.31,0,0,1,167,112.32a11.77,11.77,0,0,1,8.5-3.95h0c6.48-.12,10.65,4,18.87,12.24,2.66,2.67,5.67,5.69,9.39,9.22,8.53,8.06,9.49,9.17,14.8,15.31,1.27,1.47,2.36,4.06.64,8.41-2.4,6.08-9.94,14-15.31,14.56Zm-26.71-54.91a6.74,6.74,0,0,0-4.9,2.31,11.36,11.36,0,0,0-2.54,8.47c.15,2,1,2.57,4.86,4.52a48.25,48.25,0,0,1,14.67,10.59c9.91,10.35,12.11,14.39,14.9,19.5.66,1.23,1.34,2.48,2.17,3.9a24.81,24.81,0,0,0,9.79-10.95c.6-1.5.7-2.75.27-3.24-5.33-6.17-6.14-7.12-14.49-15-3.78-3.58-6.82-6.63-9.5-9.32-7.44-7.46-10.86-10.84-15.23-10.77Z"/><path class="cls-8" d="M207.41,133.77c24.26-3.4,62.82,19.21,80.32,36.81,30.11,30.26,42.82,61.61,67,123.07,18.56,47.18,23.36,70.13,25.7,89.58,3.75,31,6.35,52.62-4.67,69.32-25.13,38.1-129.07,36.21-158.9,7-21.9-21.43,8-60,1-113.15-8.18,6.43-54.32,19.55-80,1.76C101.1,322.79,117.47,255,122.35,251c13.1,33.49,29.05,71.09,82.27,81.44,20.62,4,32,5.59,37.51-7.06,6-13.72-13.41-16.48-39.31-62.9-12.92-23.17-31.63-56.71-19.47-88C189.85,157.75,187,136.63,207.41,133.77Z"/><path class="cls-7" d="M227.05,104.61c-8.57-.15-13.61,6.65-31.14,20.77-9.94,8-11,9.06-17.23,15.19-4.86,4.78,8.77,18.2,15.38,18.79,6.43-9,5.76-11.22,20.84-24.63,13.46-12,23.14-9.67,23.76-16.65C239.32,110.66,234.11,104.73,227.05,104.61Z"/><path class="cls-6" d="M195.26,162l-1.42-.13c-6-.54-15.68-8.84-18.1-15.58-1.45-4.07.12-6.43,1.18-7.48,6.3-6.19,7.42-7.3,17.42-15.36,4.38-3.52,7.93-6.55,11-9.21,9.55-8.15,14.32-12.25,21.7-12.11a14.13,14.13,0,0,1,10.38,4.67,15,15,0,0,1,3.68,11.52c-.45,5-4.33,6.71-8.82,8.64a52.77,52.77,0,0,0-15.77,9.66c-11.11,9.88-13.41,13.47-16.6,18.45-1.05,1.64-2.25,3.51-3.87,5.77Zm31.52-54.87c-5.35,0-9.4,3.45-18.14,10.91-3.15,2.69-6.73,5.74-11.16,9.31-9.81,7.9-10.91,9-17,15-.54.53-.31,1.54,0,2.29,1.66,4.64,8.43,10.56,12.52,12,1.08-1.55,1.94-2.9,2.78-4.21,3.27-5.11,5.86-9.15,17.49-19.49a57.36,57.36,0,0,1,17.11-10.52c4.57-2,5.65-2.6,5.82-4.48a10.09,10.09,0,0,0-2.42-7.74,9.17,9.17,0,0,0-6.75-3h-.22Z"/><path class="cls-7" d="M254.64,125.35c-10.42,11.28-20.69,13.23-28.19,9.45C205.34,124.18,199.68,104,204,93c-7.28-4-4.57-11.24-2.27-15.23C206,70.27,209.14,69,216.57,72c2.38-1.42-.95,10.22,7.65,10.85,37-12.48,39.26-7.75,50.75,12.59,7.39,13.08,13.85,24.51,9.75,29.44C280.88,129.52,272.3,123,254.64,125.35Z"/><path class="cls-6" d="M225.2,137.3c-20.29-10.21-28.2-29.73-24.54-43.15a10.64,10.64,0,0,1-3.81-5.56c-1.24-4.45.64-9.1,2.43-12.21,4.84-8.44,9.33-10.35,17.51-7.28a3.2,3.2,0,0,1,1.54.33c1.75.87,2,2.67,2.17,4.59.43,3.77,1.05,5.61,3.41,6C260.8,67.66,265.08,72.27,277,93.45l.36.63c8.26,14.63,14.79,26.18,9.46,32.6-2.94,3.54-7.15,2.87-12.48,2A63.53,63.53,0,0,0,256,128c-7.69,8-15.95,11.94-23.58,11.34A19.36,19.36,0,0,1,225.2,137.3Zm50-14.1c4.22.67,6.46,1,7.33-.09,2.87-3.45-4-15.58-10-26.29l-.35-.62c-5.29-9.37-8.48-15-14.05-16.75s-14.66-.14-33,6l-.53.18-.56,0h-.09c-7.79-.62-8.62-7.88-9-11l0-.29c-5.59-2.16-7.3-1.32-10.82,4.8-1,1.79-2.65,5.21-1.88,7.93a5.84,5.84,0,0,0,3.09,3.47l2.14,1.17L206.57,94c-5.87,15.1,8.5,31.95,21.13,38.3,7.25,3.65,16.32.42,24.89-8.85l.68-.74,1-.13a62.42,62.42,0,0,1,13.29-.37C270.51,122.46,273.05,122.86,275.24,123.2Z"/><path class="cls-7" d="M189.64,85.05A9.57,9.57,0,0,0,174,77.7a32.92,32.92,0,0,0-53.79,25.46c0,.85,0,1.7.11,2.54h0c-.88,7.33-2.43,26,4.91,27.79,2.53.62,6-.93,8.62-3.66a32.8,32.8,0,0,0,19.29,6.24c18.18,0,35.11-13.64,35.11-31.82a25.14,25.14,0,0,0-1.53-8.43C189.69,94.21,189.64,88.72,189.64,85.05Z"/><path class="cls-6" d="M153.09,138.93a35.58,35.58,0,0,1-19-5.48c-3.11,2.46-6.62,3.53-9.55,2.82-6.92-1.68-9.3-12-7.1-30.68-.06-.88-.09-1.68-.09-2.43a35.78,35.78,0,0,1,56.76-29A12.42,12.42,0,0,1,192.5,85.05v.17c0,3.54,0,8.59-2.55,11.57a25,25,0,0,1,1.11,7.46C191.06,123.05,173.67,138.93,153.09,138.93Zm-19.61-12.87,2,1.45a29.85,29.85,0,0,0,17.61,5.71c17.48,0,32.25-13.27,32.25-29a22.38,22.38,0,0,0-1.4-7.59l-.69-2.26,2.08-1.1c1.46-.78,1.46-5.89,1.46-8.08v-.17a6.72,6.72,0,0,0-6.71-6.7,6.6,6.6,0,0,0-4.29,1.55L174,81.41l-1.82-1.5A30.06,30.06,0,0,0,123,103.16c0,.7,0,1.46.1,2.32l.15,1.92-.34.17c-1.62,15,.33,22.52,2.91,23.14,1.23.3,3.7-.61,5.9-2.88Z"/><path class="cls-6" d="M119.82,102.21c-7.24-7.2-9.37-19.34-12.09-29.53-2.08-7.8-1.1-15.24,1.57-16.53s4.84,8.36,11.06,11c1.17-11.91,1.5-16.2,10.68-29,7.49-10.44,19.41-18.06,24.36-12.77,7,7.46-8.91,24.05-7.68,30.29,20.38-21.18,35.72-19.7,38.52-16.85,8.81,8.95-5.53,15-8.65,18.58,8.35-.53,13.73,2.53,14.57,5.29,3,9.95-14.64,9.73-21.26,15.84-9.68,7.42-13.15,8.41-14.88,8.81-8.19,1.87-11.05-1.75-17.19.6C129.77,91.38,121.91,107.14,119.82,102.21Z"/><path class="cls-6" d="M184.91,134.44c-.39,4.49-.41,9.24,4.14,12s10.22,1.17,14.55-1.07c3.6,2.51-5.33,16.28-9.34,35-5.94,27.76,2.3,50.56,4.67,56.87,4.54,12.08,7.66,20.38,15.58,26.48,24.09,18.56,76,3.82,89.58-24.93,11.65-24.64,3.89-41.47.58-51.8,5.93-3.13,22.72,5.28,29.8,21.43,18.41,42-11.58,111.72-56.09,126.19-30.53,9.91-49.07,5.45-67,3.11,7,23.37,13.94,38.87,7.79,74.78-5.61,32.78-36.42,64.22-74,72.44-42.28,9.25-86.25-12.41-104.38-43.62-25.67-44.21,4.26-101.15,43.62-176C127.53,183.29,179,130.63,184.91,134.44Z"/><path class="cls-8" d="M245.67,473.28c-21.9-21.43-23.06-68.69-30.07-121.86-8.18,6.43-52.1,18.14-77.82.34-36.68-25.38-20.31-93.22-15.43-97.17,13.1,33.49,29.05,71.09,82.27,81.44,20.62,4,29.85,6.09,42.15,4.65"/><path class="cls-7" d="M307,190.08c.93-1.65,4-27-13.05-32.25-5.37-1.66-7.94-5.06-15.62,2.53A223.85,223.85,0,0,1,307,190.08Z"/><path class="cls-6" d="M307.32,194.56l-2.3-2.95a220.43,220.43,0,0,0-28.3-29.32l-2.13-1.76,2-1.95c6.93-6.85,10.86-6,15.64-4.06.79.32,1.61.65,2.47.92,6.14,1.9,10.57,6.19,13.17,12.76,3.76,9.51,2.44,21.15,1.32,23.11Zm-25.23-34.27A239.13,239.13,0,0,1,305.31,184c.15-4.35-.33-10.64-2.94-15.81a15,15,0,0,0-9.17-8c-1.07-.33-2-.72-2.88-1.07C287.4,158,285.73,157.29,282.09,160.29Z"/><path class="cls-7" d="M122.35,254.59c-2.86-.61-6.38-10.21-7.88-20.76-1.41-10,1.34-15.23,2.28-17.22.34-.7,6.43-9.34,13.75-5.7,5.41,2.7,6.89,14.08,1.25,20.12C123.36,240,123.37,242.9,122.35,254.59Z"/></g></svg>