<svg id="Layer_1" data-name="Layer 1" xmlns="http://www.w3.org/2000/svg" xmlns:xlink="http://www.w3.org/1999/xlink" viewBox="0 0 329.79 329.79"><defs><style>.cls-1{fill:none;}.cls-2{fill:#f6f6f6;}.cls-3{clip-path:url(#clip-path);}.cls-4{opacity:0.28;}.cls-5{fill:#ffd275;}.cls-6{fill:#077594;}.cls-7{fill:#e05e48;}.cls-8{fill:#fff;}.cls-9{clip-path:url(#clip-path-2);}.cls-10{opacity:0.34;}</style><clipPath id="clip-path"><circle class="cls-1" cx="164.9" cy="164.9" r="164.9"/></clipPath><clipPath id="clip-path-2"><circle class="cls-1" cx="-262.29" cy="166.91" r="164.9"/></clipPath></defs><circle class="cls-2" cx="164.9" cy="164.9" r="164.9"/><g class="cls-3"><g class="cls-4"><rect class="cls-5" x="0.04" y="156.17" width="88.06" height="3.86" transform="translate(-86.49 58.64) rotate(-37.12)"/><rect class="cls-5" x="78.98" y="97.44" width="88.06" height="3.86" transform="translate(-35.04 94.38) rotate(-37.13)"/><rect class="cls-5" x="161.86" y="49.76" width="49.62" height="3.86" transform="translate(6.64 123.14) rotate(-37.13)"/><rect class="cls-5" x="133.19" y="52.24" width="37.5" height="3.86" transform="translate(-1.9 102.68) rotate(-37.13)"/><rect class="cls-5" x="50.73" y="93.37" width="85.48" height="3.86" transform="translate(-38.49 75.14) rotate(-36.87)"/><rect class="cls-5" x="204.31" y="2.86" width="85.48" height="3.86" transform="translate(46.52 149.17) rotate(-36.87)"/><rect class="cls-5" x="163.71" y="11.5" width="85.48" height="3.86" transform="translate(33.22 126.54) rotate(-36.87)"/><rect class="cls-5" x="14.35" y="135.99" width="39.93" height="3.86" transform="translate(-75.89 48.17) rotate(-36.87)"/><rect class="cls-5" x="-9.84" y="108.57" width="88.06" height="3.86" transform="translate(-58.15 40.83) rotate(-35.77)"/><rect class="cls-5" x="70.46" y="51.72" width="88.06" height="3.86" transform="translate(-9.77 77.03) rotate(-35.76)"/><rect class="cls-5" x="154.45" y="5.55" width="49.62" height="3.86" transform="translate(29.44 106.19) rotate(-35.77)"/><rect class="cls-5" x="125.73" y="7.21" width="37.5" height="3.86" transform="translate(21.91 86.18) rotate(-35.77)"/><rect class="cls-5" x="42.31" y="46.95" width="85.48" height="3.86" transform="translate(-12.58 58.49) rotate(-35.51)"/><rect class="cls-5" x="53.5" y="17.23" width="85.48" height="3.86" transform="translate(6.77 59.47) rotate(-35.51)"/><rect class="cls-5" x="-26.02" y="76.01" width="85.48" height="3.86" transform="translate(-42.16 24.21) rotate(-35.51)"/><rect class="cls-5" x="4.94" y="88.17" width="39.93" height="3.86" transform="translate(-47.71 31.23) rotate(-35.51)"/><rect class="cls-5" x="-16.92" y="278.09" width="88.06" height="3.86" transform="translate(-169.82 79.1) rotate(-38.89)"/><rect class="cls-5" x="60.16" y="216.95" width="88.06" height="3.86" transform="translate(-114.33 113.95) rotate(-38.89)"/><rect class="cls-5" x="141.54" y="167.31" width="49.62" height="3.86" transform="matrix(0.78, -0.63, 0.63, 0.78, -69.39, 141.97)"/><rect class="cls-5" x="112.96" y="170.87" width="37.5" height="3.86" transform="translate(-79.3 121.01) rotate(-38.89)"/><rect class="cls-5" x="31.8" y="213.79" width="85.48" height="3.86" transform="translate(-118.38 93.76) rotate(-38.64)"/><rect class="cls-5" x="182.5" y="118.57" width="85.48" height="3.86" transform="translate(-25.95 166.96) rotate(-38.62)"/><rect class="cls-5" x="142.19" y="128.46" width="85.48" height="3.86" transform="translate(-40.94 143.96) rotate(-38.62)"/><rect class="cls-5" x="-3.24" y="258.22" width="39.93" height="3.86" transform="translate(-158.73 67.35) rotate(-38.62)"/><rect class="cls-5" x="-28.27" y="230.82" width="88.06" height="3.86" transform="translate(-138.56 57.8) rotate(-37.54)"/><rect class="cls-5" x="50.23" y="171.51" width="88.06" height="3.86" transform="matrix(0.79, -0.61, 0.61, 0.79, -86.17, 93.36)"/><rect class="cls-5" x="132.76" y="123.36" width="49.62" height="3.86" transform="translate(-43.71 121.97) rotate(-37.54)"/><rect class="cls-5" x="104.1" y="126.1" width="37.5" height="3.86" transform="translate(-52.57 101.37) rotate(-37.54)"/><rect class="cls-5" x="21.95" y="167.66" width="85.48" height="3.86" transform="translate(-89.52 73.85) rotate(-37.29)"/><rect class="cls-5" x="174.86" y="76.01" width="85.48" height="3.86" transform="translate(-2.75 147.75) rotate(-37.29)"/><rect class="cls-5" x="134.32" y="84.96" width="85.48" height="3.86" transform="translate(-16.45 125.02) rotate(-37.29)"/><rect class="cls-5" x="-14.12" y="210.71" width="39.93" height="3.86" transform="translate(-127.62 47) rotate(-37.29)"/><rect class="cls-5" x="57.96" y="327.86" width="88.06" height="3.86" transform="matrix(0.77, -0.64, 0.64, 0.77, -188.1, 142.67)"/><rect class="cls-5" x="133.86" y="265.25" width="88.06" height="3.86" transform="translate(-130.11 176.81) rotate(-39.99)"/><rect class="cls-5" x="214.27" y="214.44" width="49.62" height="3.86" transform="translate(-83.14 204.25) rotate(-39.99)"/><rect class="cls-5" x="185.76" y="218.65" width="37.5" height="3.86" transform="translate(-93.94 183.02) rotate(-39.99)"/><rect class="cls-5" x="105.43" y="262.66" width="85.48" height="3.86" transform="translate(-134.89 155.77) rotate(-39.72)"/><rect class="cls-5" x="254.29" y="164.57" width="85.48" height="3.86" transform="translate(-37.84 228.26) rotate(-39.72)"/><rect class="cls-5" x="214.18" y="175.24" width="85.48" height="3.86" transform="translate(-53.91 205.15) rotate(-39.73)"/><rect class="cls-5" x="71.26" y="308.19" width="39.93" height="3.86" transform="translate(-177.13 129.89) rotate(-39.72)"/><rect class="cls-5" x="45.7" y="280.81" width="88.06" height="3.86" transform="translate(-156.91 117.93) rotate(-38.64)"/><rect class="cls-5" x="123.06" y="220.01" width="88.06" height="3.86" transform="translate(-102.01 152.93) rotate(-38.64)"/><rect class="cls-5" x="204.65" y="170.65" width="49.62" height="3.86" transform="translate(-57.53 181.07) rotate(-38.64)"/><rect class="cls-5" x="176.05" y="174.06" width="37.5" height="3.86" transform="translate(-67.25 160.18) rotate(-38.64)"/><rect class="cls-5" x="94.7" y="216.72" width="85.48" height="3.86" transform="matrix(0.78, -0.62, 0.62, 0.78, -106.07, 132.61)"/><rect class="cls-5" x="245.83" y="122.17" width="85.48" height="3.86" transform="translate(-14.69 206.01) rotate(-38.38)"/><rect class="cls-5" x="205.48" y="131.89" width="85.48" height="3.86" transform="translate(-29.44 183.05) rotate(-38.38)"/><rect class="cls-5" x="59.47" y="260.89" width="39.93" height="3.86" transform="translate(-146.03 106.13) rotate(-38.38)"/><rect class="cls-5" x="253.01" y="292.1" width="88.06" height="3.86" transform="translate(-120.61 277.91) rotate(-42.5)"/><rect class="cls-5" x="217.73" y="315.71" width="49.62" height="3.86" transform="translate(-150.87 247.3) rotate(-42.5)"/><rect class="cls-5" x="189.45" y="321.44" width="37.5" height="3.86" transform="translate(-163.78 225.65) rotate(-42.51)"/><rect class="cls-5" x="295.54" y="277.31" width="85.48" height="3.86" transform="translate(-99.88 299.93) rotate(-42.24)"/><rect class="cls-5" x="255.52" y="263.36" width="85.48" height="3.86" transform="translate(-100.89 269.43) rotate(-42.25)"/><rect class="cls-5" x="215.91" y="275.77" width="85.48" height="3.86" transform="translate(-119.52 246.02) rotate(-42.25)"/><rect class="cls-5" x="292.53" y="322.45" width="39.93" height="3.86" transform="translate(-136.92 294.34) rotate(-42.25)"/><rect class="cls-5" x="-9.72" y="37.14" width="88.06" height="3.86" transform="translate(-16.14 26.46) rotate(-34.68)"/><rect class="cls-5" x="126.83" y="324.43" width="88.06" height="3.86" transform="translate(-172.55 193.04) rotate(-41.15)"/><rect class="cls-5" x="206.21" y="272.4" width="49.62" height="3.86" transform="translate(-123.45 219.77) rotate(-41.15)"/><rect class="cls-5" x="177.8" y="277.31" width="37.5" height="3.86" transform="translate(-135.21 198.32) rotate(-41.15)"/><rect class="cls-5" x="98.37" y="322.45" width="85.48" height="3.86" transform="translate(-177.91 171.54) rotate(-40.89)"/><rect class="cls-5" x="245.21" y="221.37" width="85.48" height="3.86" transform="translate(-75.9 243.04) rotate(-40.9)"/><rect class="cls-5" x="205.32" y="232.84" width="85.48" height="3.86" transform="translate(-93.15 219.72) rotate(-40.9)"/><rect class="cls-5" x="267.99" y="324.43" width="39.93" height="3.86" transform="translate(-143.37 268.15) rotate(-40.89)"/><rect class="cls-5" x="258.89" y="30.39" width="37.5" height="3.86" transform="translate(36.76 174.13) rotate(-37.13)"/><rect class="cls-5" x="289.42" y="-10.35" width="85.48" height="3.86" transform="translate(71.48 197.61) rotate(-36.87)"/><rect class="cls-5" x="284.16" y="89.72" width="37.5" height="3.86" transform="translate(6.07 201.4) rotate(-37.13)"/><rect class="cls-5" x="255.22" y="62.07" width="85.48" height="3.86" transform="translate(21.19 191.58) rotate(-36.87)"/><rect class="cls-5" x="288.13" y="210.71" width="88.06" height="3.86" transform="translate(-57.88 271.11) rotate(-41.15)"/><rect class="cls-5" x="284.16" y="187.1" width="37.5" height="3.86" transform="translate(-49.57 246.03) rotate(-41.15)"/><rect class="cls-5" x="287.16" y="114.67" width="85.48" height="3.86" transform="translate(1.64 237.75) rotate(-39.72)"/><rect class="cls-5" x="219.95" y="66.39" width="85.48" height="3.86" transform="translate(17.01 183.7) rotate(-39.73)"/><rect class="cls-5" x="214.18" y="22.12" width="85.48" height="3.86" transform="translate(37.94 160.56) rotate(-37.29)"/><rect class="cls-5" x="-22.3" y="308.19" width="88.06" height="3.86" transform="translate(-184.48 77.47) rotate(-37.54)"/><rect class="cls-5" x="-28.27" y="342.53" width="88.06" height="3.86" transform="translate(-206.64 80.94) rotate(-37.54)"/><rect class="cls-5" x="-11.71" y="353.4" width="88.06" height="3.86" transform="translate(-209.84 93.29) rotate(-37.54)"/><rect class="cls-5" x="-16.85" y="15.23" width="88.06" height="3.86" transform="translate(-4.83 20.12) rotate(-37.54)"/></g><path class="cls-6" d="M92.68,278.06a19.27,19.27,0,0,0-2.39.14C71.6,280.32,57,310.39,48,365.14c-6.36,38.7-8.24,81.05-8.26,99.83,2.2-2.08,4.35-5.11,7.11-9,6.64-9.35,16.68-23.48,39.29-39.81l2-1.41c7.21-5.14,15.39-11,19.78-21.87,5.62-14,9.56-34.85,9.6-35.06l.85-4.54,3.64,2.85c3.28,2.56,3.23,8.24,3.16,16.1-.07,8.94-.16,20.06,4.7,28.29C138,414.3,154.68,425,171.44,427.25c25.32,3.35,49.62-14.12,62.78-30.08,11.2-13.59,16.5-28.15,13.51-37.1-2.12-6.32-8.49-9.82-22.69-17.11-10.53-5.41-18.41-10.22-25.37-14.47-9.9-6.05-17.06-10.42-25.78-12.7-26-6.78-42-17.38-54.93-25.9C108.72,283.11,101.08,278.06,92.68,278.06Z"/><path class="cls-6" d="M22.74,257.58c-.94,0-1.86,0-2.79.08-44.75,2.51-59.67,60.93-72.83,112.47-4,15.63-7.81,30.58-12.27,43.16,3-2.09,6.39-4.39,10.18-6.93C-35.18,393.1-5.27,373.07,5.92,348a167.29,167.29,0,0,0,8.59-24.36c2.17-7.67,3.6-12.73,8.83-13a3.51,3.51,0,0,1,2.84,1.17c1.47,1.66,1.1,3.94.42,8.08-1.21,7.33-3.46,21,4.95,34.63,5.29,8.6,8,11.15,10.2,12,6.44-34.7,13.92-61.21,30-84.49C63.38,268.25,41.89,257.58,22.74,257.58Z"/><path class="cls-6" d="M34.84,474.3l-.1-4.06c-.25-10.21.42-58.1,8.29-106,9.59-58.31,25.48-89.13,47.23-91.61,11.42-1.3,20.68,4.83,32.4,12.59,12.53,8.29,28.13,18.61,53.25,25.15,9.52,2.48,17.36,7.28,27.3,13.34,6.87,4.2,14.66,9,25,14.27,14,7.21,22.51,11.56,25.44,20.32,3.66,10.9-1.9,27.16-14.49,42.45-14.07,17.07-40.31,35.7-67.85,32.08-18.38-2.43-36.75-14.26-45.72-29.43-5.22-8.83-5.54-19.71-5.5-28.9a168.77,168.77,0,0,1-6.41,20.5c-5,12.43-14.29,19-21.74,24.34l-2,1.39c-21.86,15.79-31.57,29.46-38,38.51-4.67,6.58-8.05,11.34-13.39,13.51ZM93.28,278.09a19.38,19.38,0,0,0-2.39.14c-18.68,2.12-33.32,32.19-42.32,86.94-6.36,38.7-8.24,81.05-8.27,99.83,2.21-2.08,4.36-5.11,7.12-9,6.64-9.35,16.67-23.48,39.28-39.81l2-1.41c7.22-5.14,15.4-11,19.79-21.87,5.62-14,9.56-34.85,9.6-35.06l.85-4.54,3.63,2.85c3.28,2.56,3.24,8.24,3.17,16.1-.07,8.94-.16,20.06,4.7,28.29,8.14,13.77,24.87,24.51,41.62,26.72,25.32,3.35,49.63-14.12,62.78-30.08,11.21-13.59,16.51-28.15,13.51-37.1-2.12-6.32-8.48-9.82-22.68-17.11-10.53-5.4-18.42-10.22-25.37-14.47-9.91-6-17.07-10.42-25.79-12.7-26-6.78-42.05-17.38-54.92-25.9C109.33,283.14,101.69,278.09,93.28,278.09Z"/><path class="cls-6" d="M-79.81,433.89l5.71-13.11c6-13.8,10.76-32.37,15.78-52,13.64-53.41,29.1-113.95,78-116.69,19.92-1.11,47.69,9.57,57.92,28.79l.82,1.53-1,1.41c-16.64,23.39-24,50.42-30.6,86.46l-.45,2.46-2.5-.17c-5.72-.39-9.36-2.57-17-15.07-7.93-12.87-7.53-25.42-6.41-33.91-.15.51-.3,1-.45,1.57a171.69,171.69,0,0,1-8.86,25.12C-.8,376.83-31.52,397.41-51.85,411c-7.71,5.17-14.37,9.63-17.72,12.9ZM22.74,257.58c-.94,0-1.86,0-2.79.08-44.75,2.51-59.67,60.93-72.83,112.47-4,15.63-7.81,30.58-12.27,43.16,3-2.09,6.39-4.39,10.18-6.93C-35.18,393.1-5.27,373.07,5.92,348a167.29,167.29,0,0,0,8.59-24.36c2.17-7.67,3.6-12.73,8.83-13a3.51,3.51,0,0,1,2.84,1.17c1.47,1.66,1.1,3.94.42,8.08-1.21,7.33-3.46,21,4.95,34.63,5.29,8.6,8,11.15,10.2,12,6.44-34.7,13.92-61.21,30-84.49C63.38,268.25,41.89,257.58,22.74,257.58Z"/><path class="cls-6" d="M152.16,129.45c-14.23,16.26-27.12,26.33-54.85,62.21C82,211.42,84.14,250.91,67.92,254.16c-2.11.42-5.93,2.64-11,3.32,4.48,4.42-27.91,1.75-25.54,7.18,2.23,5.08-1.93,3.88-6.47,11.59C26,279.2,72.57,281.13,74.64,282c18.7,7.68,24.51,1,38.19,7.57,4.52,2.17,25.34,7.9,34.89,23.38,25.5,41.33,38,52.33,51,52.9,17.18.75,21.15-.28,34.77-9.14,7.89-5.14,13.8-1.66,16.58.38,5-2.3-49.85-20.05-35.58-34.88,13.79-14.32,15.09-32.85,15.16-49.26,0-8.47-1.1-12.15-1-19.76a84.72,84.72,0,0,1-31.4,31.76c-30.6,17.78-49.58-2.53-47.89-1.75,7,3.23,16.35,4.77,21.84,3.47,7.48-1.78,21.47-2.58,41.2-22,4.12-4.07,13.91-14,18.47-29.92,3.81-13.35,1.43-24.66-3.33-47.29-4.66-22.16-11-31.48-22.2-43.41-4.21-4.48-8.76-13.46-18.17-12.11-7.93,1.14-11.05,4.85-18.36,4.55C161,136.12,156.45,124.55,152.16,129.45Z"/><path class="cls-7" d="M136.34,261.45,60,249.66c-.77-.12-1.32-.47-1.41-.9L44.75,188.63c-.21-.91,1.55-1.73,3.19-1.48l81.74,12.16c.83.12,1.39.49,1.45.95L139.57,260C139.7,260.92,138,261.69,136.34,261.45Z"/><path class="cls-8" d="M55.19,207.33c-7.73.45-15.64,19.38-11.95,34.73,1.8,7.5,10.82,16,13.66,15.42-2.49-6.29-2.91-6.86.39-16.15,4.2-11.85,9.64-13.59,9.2-20.34S60.16,207.05,55.19,207.33Z"/><path class="cls-6" d="M56.74,260.3c-5.17,0-14.35-9.75-16.23-17.58-2.92-12.17.8-25.62,6-32.61,2.57-3.48,5.52-5.4,8.52-5.58h0c7.1-.41,13.76,8.61,14.26,16.28.3,4.56-1.57,7.36-3.73,10.6a45,45,0,0,0-5.63,10.86c-2.85,8-2.77,8.26-.62,13.68l1.44,3.62-3.29.66A3.38,3.38,0,0,1,56.74,260.3Zm0-5.59Zm-1.35-44.57c-1.25.07-2.84,1.28-4.35,3.31-4.31,5.81-7.54,17.58-5,28,.88,3.66,3.64,7.36,6.2,9.93-.2-2.69.56-5.51,2.48-10.93a50.28,50.28,0,0,1,6.25-12.11c2.06-3.09,3-4.56,2.8-7.12-.35-5.43-5.27-11.18-8.33-11Z"/><path class="cls-8" d="M149.21,283.15c-2.14,2.92-21-2.95-31.88-17.8-2.65-3.62-10.66-14.56-6.61-24.6,1.52-3.76,5.12-8.35,10-9,7.43-1,10.83,5.34,13.52,12.28,2.8,7.24,1.89,13.65,4.19,22.63C141.5,278.61,144.05,277.67,149.21,283.15Z"/><path class="cls-6" d="M146.88,286.68c-7.12,0-22.54-7-31.82-19.67-2.86-3.92-11.59-15.82-6.94-27.32,1.79-4.42,6.07-9.89,12.23-10.74,10.52-1.42,14.56,9,16.51,14.05a46.66,46.66,0,0,1,2.59,12.54A71.58,71.58,0,0,0,141.16,266c2.07,8.11,3.62,9.44,6.44,11.86a41.86,41.86,0,0,1,3.65,3.42l1.6,1.69-1.38,1.89c-.9,1.24-2.45,1.87-4.58,1.87Zm-24.61-52.25a9.43,9.43,0,0,0-1.16.08c-3.52.49-6.5,4.12-7.79,7.29-3.47,8.59,3.86,18.6,6.27,21.89A47.9,47.9,0,0,0,141.66,280c-2.33-2.41-4.1-5.45-5.94-12.63a77.61,77.61,0,0,1-1.84-11.18c-.45-4-.83-7.47-2.25-11.13C128.67,237.39,126.12,234.43,122.27,234.43Z"/><path class="cls-6" d="M109,80.34c1.27-6.2,5.52-22.65,20-32.67,21.82-15.07,50-4,55.82-1.72,27.95,11,26.5,29.72,49.06,34.9,25.48,5.85,39.76-15.23,55.12-6.07,12.91,7.7,18.46,31.94,8.59,48.55-10.72,18-35.56,20.2-50.57,15.17-19.76-6.63-19.55-24.75-37.42-26.3-7.08-.61-14.57,1.59-34.39.51-3.55-.2-8-.53-9.1-3-1.86-4.39,9.4-9.24,11.76-19.69,2.26-10-4.13-23.29-11.76-24.81-8.42-1.67-12.59,12.1-27.81,17.2C127.72,85.91,117.07,83.48,109,80.34Z"/><path class="cls-8" d="M175,96.55c1.56,8.67,1.78,24.11,9.7,37.87-5.05,11.69-27.94,19.87-28,8.66,0-14,2.32-24.91-10-46.53"/><path class="cls-6" d="M162.89,151.22a12.91,12.91,0,0,1-2.55-.24,7.64,7.64,0,0,1-6.42-7.89c0-2,0-3.91.09-5.81.27-11.49.5-21.42-9.71-39.34l4.88-2.77c11,19.26,10.71,30.43,10.44,42.24,0,1.86-.09,3.73-.09,5.67a2.07,2.07,0,0,0,1.94,2.4c5.39,1.11,16.25-4.36,20-11-5.87-10.9-7.32-22.53-8.4-31.1-.3-2.44-.56-4.55-.89-6.35l5.53-1c.35,2,.63,4.23.93,6.64,1.06,8.45,2.51,20,8.43,30.32l.71,1.22-.56,1.3C183.39,144.49,171.2,151.22,162.89,151.22Z"/><path class="cls-8" d="M169.76,101.35C179.94,91.17,175.3,69,155.44,65.06c-5.49-1.1-19.28-4.14-28.55,3.77-15.35,13.1-6.11,44.85,0,46.85,8.11,2.65,9.8-2.93,10.23-5.39,3.25,4.13,3.81,3.79,8.17,3.72,6.12-.08,12.82-3.36,14.76-4.72A89.81,89.81,0,0,0,169.76,101.35Z"/><path class="cls-6" d="M130.77,119.19a15.32,15.32,0,0,1-4.75-.84c-4.63-1.52-7.9-10.29-9.3-17.34-1.08-5.46-3.66-24.07,8.35-34.32,10.05-8.57,24.33-5.71,30.44-4.48l.47.09c10.13,2,17.86,8.82,20.7,18.18,2.57,8.48.68,17.24-4.94,22.85a91.32,91.32,0,0,1-10.08,8.26c-2.29,1.6-9.59,5.13-16.33,5.23l-.88,0c-2.91.06-4.58-.12-6.33-1.44a8.48,8.48,0,0,1-2.67,2.57A9,9,0,0,1,130.77,119.19Zm12.5-52.81c-5,0-10.37,1-14.56,4.58-8.48,7.24-7.71,20.57-7,26,1.24,9.16,4.66,15.44,6.07,16.11,1.45.47,3.48.89,4.77.12a4.86,4.86,0,0,0,1.79-3.35l1.11-6.15,3.86,4.91c2.15,2.72,2.17,2.73,5,2.67l.91,0c5.5-.08,11.69-3.17,13.2-4.22a88.3,88.3,0,0,0,9.33-7.62c4.08-4.09,5.47-10.87,3.53-17.26-2.26-7.46-8.25-12.67-16.42-14.3l-.49-.1A56.57,56.57,0,0,0,143.27,66.38Z"/><path class="cls-7" d="M180.57,75.94c2.81,5.58,1.62,11.87-2.68,14s-10.07-.6-12.89-6.18-1.62-11.88,2.68-14S177.75,70.35,180.57,75.94Z"/><path class="cls-7" d="M168.14,76.65C165.22,64.58,161.48,58,149.3,50.41c-9-5.63-15.2-4.65-20.28-2.74-.18-1.55,3.59-4.44,8.4-5.18,11.78-1.82,22.26,5.35,24.3,6.91,9.18,7,13.23,14.52,13.58,24.38A7.66,7.66,0,0,1,168.14,76.65Z"/></g><g class="cls-9"><g class="cls-10"><path class="cls-5" d="M-380.28,44.77c33.45-16.33,58.95-19.36,75.78-9,16,9.87,20,28.65,23.81,46.81,3.86,18.36,7.51,35.7,22.77,43.82,12.51,6.65,25.4,2.95,37.87-.63,12.86-3.69,26.15-7.5,38.05.92,11.64,8.24,13.15,21.67,14.62,34.67,1.43,12.69,2.78,24.67,13.08,31.61,10.57,7.12,22.73,3.67,35.61,0,13.25-3.76,27-7.65,39.27.49,11.42,7.54,13.76,20.1,16,32.24,2.18,11.66,4.23,22.68,14.28,28.06,8.58,4.59,16.92,2,26.59-1.07,9.5-3,20.27-6.38,32.71-2.65,16.67,5,30.11,20.9,40,47.23l.36,1-3,1.09c-9.49-26-22.37-41.5-38.24-46.27-11.51-3.45-21.34-.36-30.85,2.63-9.92,3.12-19.28,6.07-29,.85C-62,250.48-64.3,238.19-66.51,226.3c-2.15-11.49-4.36-23.37-14.66-30.17-11.11-7.34-23.52-3.82-36.66-.09s-26.45,7.51-38.24-.44c-11.52-7.76-13-21-14.46-33.89s-2.83-25-13.3-32.43c-10.66-7.54-22.65-4.1-35.34-.46-13.08,3.75-26.6,7.63-40.24.38-16.57-8.82-20.55-27.7-24.39-46-3.68-17.5-7.49-35.6-22.36-44.76-15.85-9.75-40.32-6.67-72.73,9.15Z"/><path class="cls-5" d="M-390.15,67.36C-356.7,51-331.2,48-314.37,58.35c16,9.87,20,28.65,23.8,46.81,3.87,18.36,7.52,35.7,22.78,43.82,12.5,6.65,25.4,3,37.87-.63,12.86-3.69,26.15-7.5,38,.93,11.64,8.23,13.15,21.67,14.62,34.66,1.43,12.69,2.78,24.68,13.08,31.62,10.57,7.12,22.73,3.67,35.6,0,13.25-3.76,26.95-7.65,39.28.49,11.42,7.55,13.76,20.1,16,32.24C-71.09,260-69,271-59,276.37c8.58,4.59,16.92,2,26.58-1.08,9.51-3,20.28-6.38,32.72-2.64,16.67,5,30.11,20.89,39.95,47.22l.36,1-3,1.09-.36-1C27.81,295.62,15.07,280.39-.6,275.69c-11.51-3.46-21.34-.37-30.85,2.63-9.92,3.12-19.28,6.07-29,.84-11.39-6.1-13.68-18.39-15.9-30.28-2.14-11.49-4.35-23.37-14.65-30.17-11.11-7.34-23.52-3.81-36.66-.08s-26.45,7.5-38.24-.44c-11.52-7.76-13-21.05-14.47-33.89s-2.82-25-13.29-32.43c-10.66-7.55-22.65-4.11-35.34-.47-13.08,3.75-26.6,7.63-40.24.38-16.57-8.81-20.55-27.7-24.39-46-3.68-17.5-7.49-35.6-22.36-44.75-15.85-9.76-40.32-6.68-72.73,9.15Z"/><path class="cls-5" d="M-363.36,27.05c33.46-16.34,58.95-19.37,75.79-9,16,9.87,20,28.64,23.8,46.8,3.86,18.36,7.51,35.7,22.78,43.82,12.5,6.65,25.4,3,37.87-.63,12.85-3.69,26.14-7.5,38.05.93,11.63,8.23,13.15,21.67,14.61,34.66,1.43,12.69,2.79,24.68,13.09,31.62,10.57,7.12,22.73,3.67,35.6,0,13.25-3.76,27-7.65,39.27.49,11.42,7.55,13.76,20.1,16,32.24,2.17,11.67,4.23,22.69,14.28,28.06,8.57,4.6,16.92,2,26.58-1.07,9.5-3,20.27-6.38,32.72-2.64,16.87,5.07,30.41,21.32,40.31,48.21l-3,1.09c-.12-.33-.24-.65-.37-1-9.47-25.35-22.21-40.58-37.88-45.28C14.68,231.92,4.85,235-4.66,238c-9.91,3.12-19.28,6.07-29,.84-11.39-6.1-13.68-18.39-15.9-30.28-2.14-11.49-4.36-23.37-14.66-30.17-11.1-7.34-23.51-3.81-36.65-.08s-26.46,7.5-38.25-.44c-11.51-7.76-13-21-14.46-33.89s-2.82-25-13.29-32.43c-10.67-7.55-22.65-4.11-35.35-.47-13.08,3.75-26.6,7.63-40.24.38-16.57-8.81-20.54-27.7-24.39-46-3.68-17.5-7.49-35.6-22.36-44.75C-305.08,11-329.55,14.07-362,29.9Z"/><path class="cls-5" d="M-420.13,105.44c33.45-16.34,58.95-19.37,75.78-9,16,9.87,20,28.65,23.8,46.81,3.86,18.36,7.51,35.7,22.78,43.82,12.5,6.65,25.4,2.95,37.87-.63,12.85-3.69,26.14-7.5,38,.93,11.63,8.23,13.15,21.66,14.61,34.66,1.44,12.69,2.79,24.67,13.09,31.61,10.57,7.13,22.73,3.68,35.6,0,13.25-3.76,27-7.65,39.27.49,11.43,7.54,13.77,20.1,16,32.24,2.18,11.67,4.23,22.68,14.28,28.06,8.57,4.6,16.92,2,26.58-1.07,9.5-3,20.27-6.38,32.72-2.64C-13,315.73.43,331.62,10.27,358c.12.33.25.65.37,1l-3,1.09c-9.5-26-22.38-41.5-38.25-46.27-11.5-3.45-21.34-.36-30.85,2.63-9.91,3.13-19.28,6.07-29,.85-11.39-6.1-13.68-18.39-15.9-30.28-2.14-11.49-4.36-23.37-14.65-30.17-11.11-7.34-23.52-3.82-36.66-.09s-26.45,7.51-38.25-.43c-11.51-7.76-13-21-14.46-33.9s-2.82-25-13.29-32.42c-10.66-7.55-22.65-4.11-35.35-.47-13.07,3.75-26.6,7.63-40.23.38-16.58-8.82-20.55-27.7-24.39-46-3.69-17.5-7.5-35.6-22.37-44.75-15.84-9.76-40.31-6.68-72.72,9.15Z"/><path class="cls-5" d="M-430,128c33.46-16.34,58.95-19.36,75.79-9,16,9.87,20,28.64,23.8,46.8,3.86,18.36,7.51,35.7,22.77,43.82,12.51,6.65,25.41,3,37.88-.63,12.85-3.68,26.14-7.5,38,.93,11.63,8.23,13.15,21.67,14.61,34.66,1.43,12.69,2.78,24.68,13.09,31.62,10.56,7.12,22.73,3.67,35.6,0,13.25-3.76,26.95-7.65,39.27.49,11.42,7.54,13.76,20.09,16,32.23,2.17,11.67,4.23,22.69,14.28,28.07,8.57,4.59,16.92,2,26.58-1.08,9.5-3,20.27-6.38,32.72-2.64,16.66,5,30.1,20.89,39.94,47.22l.37,1-3,1.1-.36-1c-9.48-25.35-22.22-40.59-37.89-45.29C-52,332.89-61.8,336-71.31,339c-9.91,3.12-19.28,6.07-29,.85-11.39-6.1-13.68-18.4-15.9-30.28-2.14-11.49-4.36-23.38-14.66-30.18-11.1-7.33-23.51-3.81-36.65-.08s-26.46,7.51-38.25-.44c-11.51-7.76-13-21-14.46-33.89s-2.82-25-13.3-32.43c-10.66-7.55-22.64-4.11-35.34-.47-13.08,3.76-26.6,7.64-40.24.38-16.57-8.81-20.54-27.7-24.39-46-3.68-17.5-7.49-35.6-22.36-44.75-15.84-9.76-40.31-6.68-72.72,9.15Z"/><path class="cls-5" d="M-403.21,87.71c33.45-16.34,58.95-19.36,75.78-9,16,9.87,20,28.65,23.8,46.8,3.87,18.36,7.52,35.7,22.78,43.82,12.5,6.65,25.4,2.95,37.87-.62,12.86-3.69,26.15-7.51,38,.92,11.64,8.23,13.15,21.67,14.62,34.66,1.43,12.69,2.78,24.68,13.08,31.62,10.57,7.12,22.73,3.67,35.61,0,13.24-3.77,26.94-7.65,39.27.49,11.42,7.54,13.76,20.09,16,32.23,2.18,11.67,4.23,22.69,14.28,28.07,8.58,4.59,16.92,2,26.59-1.08,9.5-3,20.27-6.38,32.71-2.64,16.67,5,30.11,20.89,40,47.22l.36,1-3,1.1C15.08,316.37,2.21,300.8-13.66,296c-11.51-3.46-21.34-.36-30.85,2.63-9.92,3.12-19.28,6.07-29,.84-11.39-6.09-13.68-18.38-15.9-30.27-2.14-11.5-4.36-23.38-14.65-30.18-11.11-7.33-23.52-3.81-36.66-.08s-26.45,7.51-38.24-.44c-11.52-7.76-13-21-14.47-33.89s-2.82-25-13.29-32.43c-10.66-7.55-22.65-4.11-35.34-.47-13.08,3.76-26.6,7.64-40.24.38-16.57-8.81-20.55-27.7-24.39-46-3.68-17.51-7.49-35.6-22.36-44.76-15.85-9.75-40.32-6.68-72.73,9.15Z"/><path class="cls-5" d="M-299.67-78.94c33.45-16.33,59-19.36,75.78-9,16,9.87,20,28.64,23.8,46.8,3.87,18.37,7.52,35.71,22.78,43.82,12.5,6.66,25.4,3,37.87-.62,12.86-3.69,26.15-7.5,38.05.92,11.64,8.23,13.15,21.67,14.62,34.66C-85.34,50.33-84,62.32-73.69,69.26c10.57,7.12,22.73,3.67,35.61,0,13.24-3.76,26.94-7.65,39.27.49C12.61,77.31,15,89.86,17.21,102c2.18,11.66,4.23,22.68,14.28,28.06,8.58,4.59,16.92,2,26.58-1.08,9.51-3,20.28-6.38,32.72-2.64,16.67,5,30.1,20.89,39.94,47.22.13.33.25.66.37,1l-3,1.09-.36-1c-9.47-25.34-22.21-40.57-37.88-45.28C78.37,125.93,68.54,129,59,132c-9.92,3.12-19.28,6.07-29,.85-11.39-6.1-13.68-18.39-15.9-30.28C12,91.1,9.74,79.22-.56,72.42c-11.11-7.34-23.52-3.82-36.66-.09s-26.45,7.51-38.24-.44c-11.52-7.76-13-21-14.47-33.89s-2.82-25-13.29-32.43c-10.66-7.54-22.65-4.1-35.34-.46-13.08,3.75-26.6,7.63-40.24.38-16.57-8.82-20.55-27.71-24.39-46-3.68-17.5-7.49-35.6-22.36-44.76-15.85-9.75-40.32-6.67-72.73,9.15Z"/><path class="cls-5" d="M-309.54-56.35c33.45-16.34,59-19.37,75.78-9,16,9.87,20,28.65,23.8,46.81,3.87,18.36,7.51,35.7,22.78,43.82,12.5,6.65,25.4,2.95,37.87-.63,12.85-3.69,26.15-7.5,38.05.93,11.64,8.23,13.15,21.67,14.62,34.66,1.43,12.69,2.78,24.68,13.08,31.62C-73,99-60.83,95.52-48,91.86c13.25-3.76,27-7.65,39.28.49,11.42,7.54,13.76,20.1,16,32.24,2.18,11.67,4.23,22.69,14.28,28.06,8.58,4.6,16.92,2,26.58-1.07,9.51-3,20.28-6.38,32.72-2.64,16.88,5.06,30.47,21.3,40.31,48.21l-3,1.09-.36-1C108.41,171.91,95.67,156.68,80,152c-11.51-3.45-21.35-.36-30.85,2.64-9.92,3.12-19.28,6.06-29,.84-11.39-6.1-13.68-18.39-15.9-30.28C2.08,113.68-.14,101.8-10.43,95c-11.11-7.34-23.52-3.82-36.66-.09s-26.45,7.51-38.24-.43c-11.52-7.76-13-21-14.47-33.9s-2.82-25-13.29-32.42c-10.66-7.55-22.65-4.11-35.34-.47-13.08,3.75-26.61,7.63-40.24.38-16.57-8.82-20.55-27.7-24.39-46-3.69-17.5-7.49-35.6-22.36-44.75-15.85-9.76-40.32-6.68-72.73,9.15Z"/><path class="cls-5" d="M-282.75-96.66c33.46-16.34,58.95-19.37,75.78-9,16,9.87,20,28.65,23.81,46.81,3.86,18.36,7.51,35.7,22.77,43.82,12.51,6.65,25.4,2.95,37.88-.63,12.85-3.69,26.14-7.5,38.05.93C-72.83-6.51-71.31,6.92-69.85,19.92c1.43,12.69,2.79,24.68,13.08,31.62,10.57,7.12,22.73,3.67,35.61,0,13.25-3.76,27-7.65,39.27.49,11.42,7.55,13.76,20.1,16,32.24C36.31,96,38.37,107,48.41,112.34c8.58,4.6,16.93,2,26.59-1.07,9.5-3,20.27-6.38,32.71-2.64,16.67,5,30.11,20.89,40,47.22.12.33.24.66.37,1l-3,1.09c-9.49-25.92-22.38-41.5-38.25-46.27-11.51-3.45-21.34-.36-30.85,2.64-9.91,3.12-19.28,6.06-29,.84C35.53,109,33.24,96.75,31,84.86c-2.15-11.49-4.36-23.37-14.66-30.17C5.25,47.35-7.16,50.87-20.29,54.6s-26.46,7.51-38.25-.43C-70,46.41-71.55,33.12-73,20.27s-2.82-25-13.3-32.42c-10.66-7.55-22.65-4.11-35.34-.47-13.08,3.75-26.6,7.63-40.24.38-16.57-8.82-20.54-27.7-24.39-46-3.68-17.5-7.49-35.6-22.36-44.75-15.84-9.76-40.31-6.68-72.72,9.15Z"/><path class="cls-5" d="M-339.53-18.28c33.46-16.33,58.95-19.36,75.79-9,16,9.87,20,28.65,23.8,46.81,3.86,18.36,7.51,35.7,22.77,43.82,12.51,6.65,25.41,2.95,37.88-.63,12.85-3.69,26.14-7.5,38,.92,11.63,8.24,13.15,21.67,14.61,34.67,1.43,12.69,2.79,24.67,13.09,31.61,10.56,7.13,22.73,3.67,35.6,0,13.25-3.76,26.95-7.65,39.27.49,11.42,7.54,13.77,20.1,16,32.24,2.17,11.66,4.23,22.68,14.28,28.06,8.57,4.59,16.92,2,26.58-1.07,9.5-3,20.27-6.38,32.72-2.65,16.66,5,30.1,20.9,39.94,47.23.12.33.25.65.37,1l-3,1.09c-9.5-25.94-22.38-41.5-38.25-46.27-11.51-3.45-21.34-.36-30.85,2.63-9.91,3.12-19.28,6.07-29,.85-11.39-6.1-13.68-18.39-15.9-30.28-2.14-11.49-4.36-23.37-14.66-30.17-11.1-7.34-23.51-3.82-36.65-.09s-26.46,7.51-38.25-.44c-11.51-7.75-13-21-14.46-33.89s-2.82-25-13.3-32.43c-10.66-7.54-22.64-4.1-35.34-.46-13.08,3.75-26.6,7.63-40.24.38-16.57-8.82-20.54-27.7-24.39-46-3.68-17.5-7.49-35.6-22.36-44.76-15.84-9.75-40.31-6.67-72.72,9.15Z"/><path class="cls-5" d="M-349.4,4.31c33.46-16.34,58.95-19.37,75.78-9,16,9.87,20,28.64,23.81,46.8,3.86,18.36,7.51,35.7,22.77,43.82,12.51,6.65,25.4,2.95,37.88-.63,12.85-3.68,26.14-7.5,38,.93,11.63,8.23,13.15,21.67,14.61,34.66,1.43,12.69,2.78,24.68,13.08,31.62,10.57,7.12,22.73,3.67,35.61,0,13.25-3.76,27-7.65,39.27.49,11.42,7.55,13.76,20.1,16,32.24,2.17,11.67,4.23,22.69,14.27,28.07,8.58,4.59,16.93,2,26.59-1.08,9.5-3,20.27-6.38,32.71-2.64,16.67,5,30.11,20.89,40,47.22.12.33.24.66.37,1l-3,1.09-.36-1c-9.48-25.36-22.22-40.59-37.89-45.29-11.51-3.46-21.34-.37-30.85,2.63-9.91,3.12-19.28,6.07-29,.84-11.39-6.1-13.69-18.39-15.9-30.28-2.14-11.49-4.36-23.37-14.66-30.17-11.11-7.34-23.52-3.81-36.65-.08s-26.46,7.5-38.25-.44c-11.51-7.76-13-21-14.46-33.89s-2.82-25-13.3-32.43c-10.66-7.55-22.65-4.11-35.34-.47-13.08,3.76-26.6,7.64-40.24.38-16.57-8.81-20.54-27.7-24.39-46-3.68-17.5-7.49-35.6-22.36-44.75-15.84-9.76-40.31-6.68-72.73,9.15Z"/><path class="cls-5" d="M-322.6-36c33.45-16.34,59-19.37,75.78-9,16,9.87,20,28.64,23.8,46.8,3.87,18.36,7.51,35.7,22.78,43.82,12.5,6.65,25.4,3,37.87-.63,12.86-3.68,26.15-7.5,38.05.93,11.64,8.23,13.15,21.67,14.62,34.66,1.43,12.69,2.78,24.68,13.08,31.62,10.57,7.12,22.73,3.67,35.6,0,13.25-3.77,27-7.65,39.28.48,11.42,7.55,13.76,20.1,16,32.24C-3.54,156.61-1.49,167.63,8.56,173c8.58,4.59,16.92,2,26.58-1.08s20.28-6.38,32.72-2.64c16.88,5.07,30.43,21.32,40.31,48.21l-3,1.09C95.7,192.66,82.82,177.09,67,172.33,55.44,168.87,45.6,172,36.1,175c-9.92,3.12-19.28,6.07-29,.84-11.39-6.09-13.68-18.39-15.9-30.27C-11,134-13.19,122.15-23.49,115.35-34.6,108-47,111.54-60.15,115.27s-26.45,7.5-38.24-.44c-11.52-7.76-13-21-14.47-33.89s-2.82-25-13.29-32.43C-136.81,41-148.8,44.4-161.49,48c-13.08,3.76-26.6,7.64-40.24.38-16.57-8.81-20.55-27.7-24.39-46-3.68-17.5-7.49-35.6-22.36-44.75-15.85-9.76-40.32-6.68-72.73,9.15Z"/></g></g></svg>