<svg width="120" height="113" viewBox="0 0 120 113" fill="none" xmlns="http://www.w3.org/2000/svg">
<path d="M85.2935 3.06738H35.8241C34.3255 3.06738 33.1106 4.28226 33.1106 5.78089V107.702C33.1106 109.2 34.3255 110.415 35.8241 110.415H85.2935C86.7922 110.415 88.007 109.2 88.007 107.702V5.78089C88.007 4.28226 86.7922 3.06738 85.2935 3.06738Z" fill="#B4D5DE"/>
<path d="M60.5437 112.652H33.1104C32.5173 112.652 31.9485 112.416 31.5291 111.997C31.1096 111.577 30.874 111.008 30.874 110.415V3.06747C30.874 2.47433 31.1096 1.90549 31.5291 1.48608C31.9485 1.06668 32.5173 0.831055 33.1104 0.831055H87.9771C88.5702 0.831055 89.139 1.06668 89.5584 1.48608C89.9778 1.90549 90.2135 2.47433 90.2135 3.06747V73.9468C90.2135 74.5399 89.9778 75.1088 89.5584 75.5282C89.139 75.9476 88.5702 76.1832 87.9771 76.1832C87.3839 76.1832 86.8151 75.9476 86.3957 75.5282C85.9763 75.1088 85.7406 74.5399 85.7406 73.9468V5.36351H35.3468V108.238H60.5437C61.1369 108.238 61.7057 108.474 62.1251 108.893C62.5445 109.313 62.7802 109.882 62.7802 110.475C62.7802 111.068 62.5445 111.637 62.1251 112.056C61.7057 112.476 61.1369 112.711 60.5437 112.711V112.652Z" fill="#77B3C4"/>
<path d="M78.1368 24.5088H42.9208C41.5539 24.5088 40.4458 25.6169 40.4458 26.9838V42.907C40.4458 44.2739 41.5539 45.382 42.9208 45.382H78.1368C79.5037 45.382 80.6117 44.2739 80.6117 42.907V26.9838C80.6117 25.6169 79.5037 24.5088 78.1368 24.5088Z" fill="#E05E48"/>
<path d="M59.7694 42.3077L40.6555 25.639C40.8137 25.2922 41.0706 24.9997 41.3941 24.7982C41.7177 24.5966 42.0935 24.495 42.4745 24.5059H78.436C78.8061 24.4942 79.1722 24.5856 79.4934 24.7699C79.8146 24.9542 80.0782 25.2241 80.2549 25.5495L61.0516 42.3077C60.8683 42.4504 60.6427 42.5278 60.4105 42.5278C60.1782 42.5278 59.9526 42.4504 59.7694 42.3077V42.3077Z" fill="#EAA69D"/>
<path d="M97.3377 23.0762L115.497 13.8026C115.529 13.7746 115.555 13.7402 115.572 13.7016C115.589 13.6631 115.598 13.6212 115.598 13.5789C115.598 13.5366 115.589 13.4948 115.572 13.4562C115.555 13.4177 115.529 13.3833 115.497 13.3553L112.754 9.86649C112.698 9.81185 112.623 9.78125 112.545 9.78125C112.467 9.78125 112.392 9.81185 112.337 9.86649L96.8905 22.5991C96.8272 22.6584 96.7901 22.7405 96.7873 22.8271C96.7845 22.9138 96.8162 22.998 96.8755 23.0613C96.9349 23.1246 97.0169 23.1617 97.1036 23.1645C97.1902 23.1673 97.2745 23.1355 97.3377 23.0762V23.0762Z" fill="#FFBC33"/>
<path d="M97.4871 41.5629L119.255 40.8174C119.316 40.8235 119.376 40.8432 119.428 40.875C119.481 40.9068 119.526 40.9499 119.561 41.0012C119.595 41.0525 119.617 41.1108 119.626 41.1718C119.635 41.2328 119.631 41.2951 119.613 41.3541L116.959 47.0793C116.925 47.1649 116.86 47.2343 116.777 47.2732C116.694 47.312 116.599 47.3174 116.512 47.2881L97.5468 42.3083C97.4633 42.2925 97.3873 42.2497 97.3305 42.1865C97.2737 42.1232 97.2392 42.0431 97.2324 41.9583C97.2257 41.8736 97.2469 41.789 97.2929 41.7176C97.339 41.6461 97.4072 41.5917 97.4871 41.5629V41.5629Z" fill="#FFBC33"/>
<path d="M93.3717 49.8537L105.031 55.8175C105.068 55.842 105.098 55.8752 105.119 55.9142C105.14 55.9533 105.151 55.9969 105.151 56.0411C105.151 56.0854 105.14 56.129 105.119 56.1681C105.098 56.2071 105.068 56.2403 105.031 56.2648L101.363 60.2009C101.335 60.2326 101.301 60.258 101.262 60.2754C101.224 60.2928 101.182 60.3018 101.14 60.3018C101.097 60.3018 101.055 60.2928 101.017 60.2754C100.978 60.258 100.944 60.2326 100.916 60.2009L93.0139 50.301C92.9767 50.2482 92.9576 50.1848 92.9596 50.1202C92.9616 50.0556 92.9845 49.9934 93.0248 49.943C93.0652 49.8925 93.1208 49.8565 93.1834 49.8405C93.246 49.8244 93.3121 49.829 93.3717 49.8537V49.8537Z" fill="#FFBC33"/>
<path d="M22.8402 22.9859L4.68052 13.742C4.64803 13.7114 4.62214 13.6744 4.60445 13.6334C4.58676 13.5924 4.57764 13.5481 4.57764 13.5035C4.57764 13.4588 4.58676 13.4146 4.60445 13.3736C4.62214 13.3326 4.64803 13.2956 4.68052 13.2649L7.42385 9.80594C7.47959 9.75131 7.55453 9.7207 7.63258 9.7207C7.71063 9.7207 7.78557 9.75131 7.84131 9.80594L23.2875 22.5386C23.3168 22.5679 23.3401 22.6028 23.356 22.6412C23.3719 22.6796 23.3801 22.7207 23.3801 22.7622C23.3801 22.8038 23.3719 22.8449 23.356 22.8833C23.3401 22.9216 23.3168 22.9565 23.2875 22.9859C23.2581 23.0152 23.2232 23.0385 23.1848 23.0544C23.1465 23.0703 23.1053 23.0785 23.0638 23.0785C23.0223 23.0785 22.9812 23.0703 22.9428 23.0544C22.9044 23.0385 22.8695 23.0152 22.8402 22.9859V22.9859Z" fill="#FFBC33"/>
<path d="M22.6913 41.5629L1.07266 40.8174C0.989335 40.8554 0.920837 40.9198 0.877728 41.0007C0.834619 41.0815 0.819293 41.1743 0.834114 41.2647L3.48799 46.9899C3.52148 47.0754 3.58661 47.1448 3.66988 47.1837C3.75315 47.2226 3.84817 47.2279 3.93527 47.1986L22.9 42.2189C22.9502 42.1686 22.9857 42.1055 23.0025 42.0365C23.0192 41.9674 23.0167 41.8951 22.9952 41.8274C22.9736 41.7597 22.9339 41.6992 22.8803 41.6525C22.8267 41.6059 22.7613 41.5749 22.6913 41.5629V41.5629Z" fill="#FFBC33"/>
<path d="M26.8058 49.7622L15.1466 55.875C15.1096 55.9028 15.0795 55.9388 15.0588 55.9802C15.0381 56.0216 15.0273 56.0673 15.0273 56.1136C15.0273 56.1599 15.0381 56.2055 15.0588 56.2469C15.0795 56.2883 15.1096 56.3244 15.1466 56.3521L18.7249 60.1391C18.7529 60.1708 18.7873 60.1963 18.8258 60.2137C18.8644 60.2311 18.9062 60.2401 18.9485 60.2401C18.9908 60.2401 19.0326 60.2311 19.0712 60.2137C19.1098 60.1963 19.1442 60.1708 19.1722 60.1391L27.1934 50.2393C27.2567 50.1879 27.2969 50.1134 27.3053 50.0324C27.3137 49.9513 27.2895 49.8702 27.2381 49.8069C27.1867 49.7436 27.1123 49.7034 27.0312 49.695C26.9501 49.6866 26.869 49.7108 26.8058 49.7622V49.7622Z" fill="#FFBC33"/>
</svg>
