<svg xmlns="http://www.w3.org/2000/svg" viewBox="0 0 288.38 339.76"><defs><style>.cls-1{fill:#fff;}.cls-2{fill:#077594;}</style></defs><g id="Layer_2" data-name="Layer 2"><g id="Layer_1-2" data-name="Layer 1"><path class="cls-1" d="M140.18,46.43c.58,7.57,1,4.53.37,17.75-.57,11.94-1.09,14.53-2.27,21,3.14,5.27,14.6.6,18.5-2.34-1.33-6.3-1.71-.1-2.84-17.81-1-16.16-.8-13.47,0-22C151,41.26,142.61,44,140.18,46.43Z"/><path class="cls-2" d="M143.47,89.06a10.77,10.77,0,0,1-2.07-.19,6.32,6.32,0,0,1-4.4-2.93l-.29-.48.22-1.21c1.08-6,1.58-8.71,2.12-20.15.45-9.6.35-10.52,0-13.23-.12-1-.26-2.3-.41-4.32l-.06-.68.49-.49c2.81-2.85,11.92-5.85,15.58-3.68l.82.48-.09,1c-.13,1.38-.24,2.48-.34,3.4-.49,4.69-.52,5,.34,18.4.76,11.81,1.17,12.74,1.69,13.91a16.38,16.38,0,0,1,1.13,3.68l.2.94-.77.57C155.16,85.92,148.7,89.06,143.47,89.06Zm-3.6-4.24A3.61,3.61,0,0,0,142,85.93c3.66.72,9.8-1.6,13.11-3.75a10.91,10.91,0,0,0-.72-2.13c-.71-1.61-1.14-2.59-1.93-14.93-.88-13.68-.85-14-.33-18.9.06-.64.14-1.37.22-2.22-2.61-.44-8.28,1.3-10.59,3.07.12,1.54.24,2.6.34,3.46.32,2.89.43,3.87,0,13.72-.54,11.63-1,14.42-2.16,20.54Z"/><path class="cls-2" d="M149.36,9.89c-3.31-7.58-16.24-11.11-25.67-8.72C103,6.38,92.6,41.5,98.06,68c1.49,7.25,5.17,25.08,21,34,15.28,8.66,35.93,5.62,46.7-4.92,1.24-1.21,8.2-8,6.35-13.28-2-5.83-12.75-3.49-23.35-11-.91-.64-6.24-8.12-8.73-18.57C135.43,35.15,154.68,22.11,149.36,9.89Z"/><path class="cls-1" d="M131.68,51a6.3,6.3,0,0,1-1.53-9.55c-1.05-4.47,7.46,3,10-1.21,4.57-7.56,5.89-23,13.89-20,3.08-.49,6-1,8.55.59,3,1.81,9.53,5.85,7.71,8.85a8.2,8.2,0,0,1-4.82,3.28,18.19,18.19,0,0,1-27.08,19.94c-.6-.37-1.17-.77-1.72-1.19A6.33,6.33,0,0,1,131.68,51Z"/><path class="cls-2" d="M164.9,47.59a19.93,19.93,0,0,1-27.36,6.73c-.41-.25-.82-.52-1.22-.81a8.06,8.06,0,0,1-5.53-1h0a8.08,8.08,0,0,1-2.73-11.09c.08-.14.18-.28.27-.42a2.55,2.55,0,0,1,.79-2.1c1.24-1.12,2.92-.54,4.87.12,2.23.77,4.12,1.32,4.7.35A47.64,47.64,0,0,0,142.2,31c1.94-5.46,3.77-10.62,7.43-12.35a6.23,6.23,0,0,1,4.59-.25c3.12-.49,6.33-.91,9.3.89a39.28,39.28,0,0,1,5.92,4.17c3.55,3.21,3.24,5.62,2.37,7.05a9.3,9.3,0,0,1-4.3,3.52A19.67,19.67,0,0,1,166,45.53,19.36,19.36,0,0,1,164.9,47.59Zm.16-16.37a6.53,6.53,0,0,0,3.79-2.5c.27-.46-.43-1.52-1.73-2.69a37.34,37.34,0,0,0-5.39-3.78c-2-1.21-4.46-.82-7.32-.37l-.51.08-.42-.16a2.93,2.93,0,0,0-2.38,0c-2.35,1.11-4,5.82-5.64,10.38a50.71,50.71,0,0,1-3.8,9c-2.08,3.42-6.28,2-8.79,1.13L132,42l-.51.61a4.26,4.26,0,0,0-.45.6,4.63,4.63,0,0,0,1.56,6.34h0a4.6,4.6,0,0,0,3.66.49l.84-.24.69.53a18.25,18.25,0,0,0,1.56,1.08,16.46,16.46,0,0,0,24.5-18l-.41-1.64Z"/><path class="cls-2" d="M130.41,13.84C131,5.9,137.22-.47,145.73,0,153.9.51,159,12.59,159.37,19.92c-6.3-.34-12.42,1.6-19.49,8.37C133.51,34.38,129.68,23,130.41,13.84Z"/><path class="cls-2" d="M141.55,67.8c1.87.19,1.22,8,5.86,7.38,5.8-.76,8.09-4.22,10.21-3.69,1.3,11.73-.11,32,13.17,52.12,4.86,7.37,13.17,12.85,22.45,11.52,15.33-2.21,23.94-26.46,22.59-49.74-.79-13.42,0-19.22,6.72-26.24,0,8.4,7.16,15.43,15,32.32,11,23.67,15.79,63.21-4.35,83.84-14,14.37-25.19,13.68-33.45,10.42-1.13,8.88,13.47,30.88,15.21,32.15,24.37,17.74,47.62-4.95,63.42,7.38,16.25,12.69,12.42,57.27-9.56,84.27-32.26,39.64-97.82,34.32-137.26,17.81-38.47-16.09-78.41-53.83-70.81-79.06,3.33-11.05,16.67-22.61,30.41-26.49,16-4.53,28.94,2.39,34.75-5.22,3.59-4.7,4.28-14.88.43-17.37-6.08,6.3-32.36,28.56-63,25.19-10.88-1.19-26.72-11.78-26.72-17.81,15.86-3,24.21,2.38,41.92-9.12C124.81,167.45,130.78,83.43,141.55,67.8Z"/><path class="cls-1" d="M221.21,60.75c-11.48-12.18-3-20.39-1-26.06,2.6-7.47,7.68-21.07,13.11-20.4a4.48,4.48,0,0,1,3.38,2.61c1.44,3.44-3.74,6.39-5.3,11.73,6.21,4.94,9.68,11.35,7.47,18.78C236.8,54.44,228.68,58.89,221.21,60.75Z"/><path class="cls-2" d="M220.71,62.45l-.62-.65c-10-10.65-5.74-18.86-2.89-24.29a27.42,27.42,0,0,0,1.57-3.33c3.84-11,8.59-22.17,14.75-21.41a6,6,0,0,1,4.61,3.54c1.14,2.74-.58,5.1-2.24,7.38a20.69,20.69,0,0,0-2.69,4.44c6.81,5.76,9.28,12.56,7.15,19.72-2.88,9.73-15.1,13.47-18.77,14.38Zm13.23-46.37a2.44,2.44,0,0,0-.8-.27c-1.69-.2-5.43,2-11.47,19.38a30.77,30.77,0,0,1-1.75,3.74c-2.81,5.35-6,11.4,1.79,20.1,6.54-1.81,13.86-5.84,15.7-12.05,2.31-7.77-2.51-13.61-7-17.14l-.81-.65.29-1a20.5,20.5,0,0,1,3.48-6.32c1.51-2.07,2.34-3.29,1.88-4.39A2.93,2.93,0,0,0,233.94,16.08Z"/><path class="cls-1" d="M40.36,207.12c-4.72-3.25-13.82-8.78-22.55-7.63-9.87,1.3-17.63,11-16.08,14.34.66,1.41,3.17,6,14.35,2,7.28-2.64,10.76-1,13.84-2.05C33.19,212.66,39.57,211.38,40.36,207.12Z"/><path class="cls-2" d="M8.35,219c-5,0-7.11-2.55-8-4.48-.65-1.4-.37-3.27.82-5.43A23.6,23.6,0,0,1,17.61,198c6.76-.89,14.71,1.76,23.62,7.88l.82.57-.18,1c-.85,4.58-6.34,6.25-10,7.35-.54.17-1,.32-1.48.47a13.56,13.56,0,0,1-4.41.48,25,25,0,0,0-9.4,1.55A24.46,24.46,0,0,1,8.35,219Zm11.89-18.09A18,18,0,0,0,18,201a20.65,20.65,0,0,0-14.16,9.51c-.84,1.53-.84,2.41-.73,2.66,1.88,4,7.8,2.87,12.43,1.19A28,28,0,0,1,26,212.63a11.05,11.05,0,0,0,3.44-.32c.47-.16,1-.32,1.57-.49,2.74-.83,6.38-1.94,7.53-4.08C31.66,203.17,25.52,200.87,20.24,200.87Z"/></g></g></svg>