<svg xmlns="http://www.w3.org/2000/svg" width="142" height="112" viewBox="0 0 142 112"><path d="M37.32,36.87a5,5,0,0,1,3.86-6,12,12,0,1,1,17.93-16,9.8,9.8,0,0,1,19.34-1.06,9.5,9.5,0,0,1,.17,1.29A5,5,0,0,1,86.18,21a3.61,3.61,0,0,1,.72-.25,3.47,3.47,0,0,1,3.57,5.37c2.18,2.62.24,5,2,7.81-.51,3.07-5.17-.86-8.16-.3-7.86,1.48-11.62-3.49-16.65-1.11C64,34.29,64.81,37.43,61,41.15c-5.86,5.66-13.38,9.73-15.92,6.36a18.59,18.59,0,0,1-3.31-6.67A5,5,0,0,1,37.32,36.87Z" fill="#077594"/><path d="M93.24,39.17c10.94,1.61,10.61,9.1,10,12.12-.5,2.62-6.13,8-12.91,5.57C85.3,64.58,72.9,67,67.78,65c-4.78-1.85-7.23-4-10.59-9.8-4.14,2.75-7.74-1-8.88-3.07-2.06-3.77,3.32-11.94,6.89-10,.92-.91,14.29-16.46,27.09-11.78C84.24,31.08,91.32,32.87,93.24,39.17Z" fill="#fff"/><path d="M72.08,67.63a14.26,14.26,0,0,1-5-.79c-4.87-1.88-7.55-4.11-10.65-9.07a6.8,6.8,0,0,1-3.87.17,10.11,10.11,0,0,1-6-4.88c-1.78-3.26.14-8.27,2.94-11.05a6.32,6.32,0,0,1,5.1-2.13C60.6,33.6,71.8,24.41,83,28.49l.61.21c2.45.82,8.69,2.91,11.13,8.7,4,.79,7,2.49,8.83,5a12.13,12.13,0,0,1,1.69,9.23c-.41,2.12-2.52,4.59-5.26,6.15a12.15,12.15,0,0,1-8.83,1.35C86.6,64.88,78.3,67.63,72.08,67.63ZM57.85,52.32l1.07,1.84c3.06,5.3,5.12,7.22,9.58,9,4.2,1.61,15.61-.37,20.18-7.34l.87-1.33L91,55a8.16,8.16,0,0,0,7-.64,7.2,7.2,0,0,0,3.3-3.43,8.17,8.17,0,0,0-1-6.15C99,42.88,96.49,41.67,93,41.15L91.7,41l-.37-1.21c-1.44-4.73-6.55-6.45-9-7.27l-.72-.24C71.9,28.7,61.14,38.72,57,43.19l-.37.39-1.07,1.05-1.31-.73c-.35-.2-1.14.19-1.91,1-1.83,1.81-3,5-2.25,6.29a6.3,6.3,0,0,0,3.43,2.91,3.15,3.15,0,0,0,2.59-.56Z" fill="#077594"/><path d="M79,64.93c-1,7.8,1.46,11.57,5,18.17-4.48,6.42-14.23,8.16-19,4.51C63.4,82.94,65.7,74.05,67.78,65,68,64.83,73.71,67.49,79,64.93Z" fill="#fff"/><path d="M71.3,91.5a12.56,12.56,0,0,1-7.58-2.29l-.5-.38L63,88.24c-1.58-4.81.29-12.88,2.27-21.42L66,63.66l.78-.44a2.58,2.58,0,0,1,2.22,0c1.5.45,5.49,1.65,9.06-.09l3.31-1.6L81,65.17c-.8,6.66.94,9.88,4.11,15.72l1.27,2.34-.71,1a17.44,17.44,0,0,1-11.64,7A17.71,17.71,0,0,1,71.3,91.5Zm-4.64-5.13a10.26,10.26,0,0,0,6.69,1A13.88,13.88,0,0,0,81.6,82.9l0-.1c-2.77-5.1-4.87-9-4.78-15a17,17,0,0,1-7.51-.33l-.06.28C67.52,75,65.79,82.43,66.66,86.37Z" fill="#077594"/><path d="M29.35,112.07C40.85,98.84,56.31,84.49,65,78c5.31,2.56,10.16,5.56,16.06-.73,14.36,4.67,32.11,27.22,30.11,34.8C88.39,112.07,53,112.05,29.35,112.07Z" fill="#077594"/><path d="M52.43,40.42c3.53-.32,6.64,3.16,7,7.68s-2.12,8.35-5.64,8.68-6.63-3.15-7-7.67S48.9,40.74,52.43,40.42Z" fill="#e05e48"/><path d="M49.24,45.82c-3.5-6.2-4.63-12.62-1.63-20.42,1.08-2.22,2.66-7.44,9-12.79,3.2.17,2.77.74,2.48,2.31-.61.47,0-.26-3.41,6.61C51,30.86,52,36.3,54.74,44.86A5.53,5.53,0,0,1,49.24,45.82Z" fill="#e05e48"/></svg>