<svg xmlns="http://www.w3.org/2000/svg" width="142" height="112" viewBox="0 0 142 112"><path d="M89.43,40.67c-.08-.27-.16-.53-.26-.8A18.62,18.62,0,0,0,55,37.74a5.1,5.1,0,0,0-2.4.25,5.25,5.25,0,0,0-3.12,6.59c.49,1.63,1.64,4.14,3.73,4.78.14,1.52,1.12,3.4,1.65,4.91,3.46,9.69,13.33,12.86,23,9.4a18.54,18.54,0,0,0,9.21-7.16C90.4,57,93.77,56,95,54.14,96.92,51,93.33,44.17,89.43,40.67Z" fill="#fff"/><path d="M78.41,65.11c-11.12,4-21.39-.28-25-10.33-.15-.42-.34-.87-.53-1.33a19.49,19.49,0,0,1-1-3C49.61,49.25,48.51,46.61,48,45a6.8,6.8,0,0,1,4.07-8.47,6.68,6.68,0,0,1,2-.38,20.14,20.14,0,0,1,36.49,3.19c0,.15.1.31.16.46,3.93,3.72,8,11,5.47,15.12-1.36,2.21-4.81,3.48-8.42,3.19A20,20,0,0,1,78.41,65.11ZM53.12,39.43A3.72,3.72,0,0,0,51,44.14c.23.75,1.1,3.27,2.72,3.76l1,.31.1,1a12.62,12.62,0,0,0,1,3.07c.21.51.42,1,.58,1.47,3,8.35,11.65,11.84,21.07,8.48a17,17,0,0,0,8.45-6.58l.54-.81,1,.15c3,.47,5.6-.5,6.32-1.67C95,51.2,92.28,45.27,88.41,41.8l-.31-.28L88,41.11c-.07-.24-.15-.48-.24-.73a17.1,17.1,0,0,0-31.36-2l-.49,1-1.07-.14A3.47,3.47,0,0,0,53.12,39.43Z" fill="#077594"/><path d="M87.1,35.75c6.21-1.77,7.63-10,1.73-20.32-2.33-4-6.6-8.09-8.92-7.17-2.78,1.11-.69,8.56-3.71,10-3.31,1.62-7.33-6.62-15-7.81C50.94,8.9,39.31,20.61,40.8,24.58c1,2.75,8.42,1.91,8.56,3.53.18,2.16-13,2.31-15.79,9.17-1.67,4,.52,9.81,3.31,10.58,3.6,1,8-6.34,9.91-5.19,1,.63-.16,2.83.84,6.29,1.1,3.86,5.79,7.14,6.68,6.72s-3.05-5.62-3.51-7.39c-1.08-4.17-.91-5.57-.25-7,1-2,2.89-3.13,5.27-2,3.27,1.57,4.72,6.81,6.12,6.86,1.81.06,1.55-8.88,5.59-10.7C72.72,33.16,81.13,37.46,87.1,35.75Z" fill="#077594"/><path d="M23,111.68c11.5-13.23,25.72-28.31,34.4-34.8,5.31,2.56,11.4,6.29,17.3,0,14.36,4.67,32.11,27.22,30.11,34.8C82,111.68,46.59,111.66,23,111.68Z" fill="#077594"/><path d="M46.58,82.32c3.6-1.42,8.75.8,10.19,1.49,11.38,5.49,13.23,20,12.1,27.86-2.19,0-4.71,0-7,0-.74-5.32-2-15.9-8-20-5-3.44-9.56-1.94-12.62.09C38.94,86.53,44.38,83.19,46.58,82.32Z" fill="#e05e48"/><path d="M87.39,84.6a8.51,8.51,0,0,0-3-5.33c-3.21-2.8-8.7-4.11-8.68-2A59.92,59.92,0,0,1,87.39,84.6Z" fill="#e05e48"/><path d="M61.78,63.1A69.84,69.84,0,0,1,57.19,79c4.36,5.2,13.1,6,18.2,1.53-.72-3.66-3-7.66-1.7-15.08A20.19,20.19,0,0,1,61.78,63.1Z" fill="#fff"/><path d="M67.23,85.47c-.39,0-.78,0-1.17,0a15,15,0,0,1-10.4-5.13l-.82-1,.53-1.15A68.15,68.15,0,0,0,59.8,62.83L60.18,60l2.52,1.32a18.19,18.19,0,0,0,10.71,2.15l2.72-.38-.47,2.71a22.3,22.3,0,0,0,.92,11.4c.29,1,.58,2,.77,3l.22,1.12-.86.76A14.31,14.31,0,0,1,67.23,85.47Zm-7.68-6.88a11.28,11.28,0,0,0,6.8,2.85,10.75,10.75,0,0,0,6.79-1.69c-.12-.45-.26-.93-.4-1.41a26.76,26.76,0,0,1-1.36-10.73A22.29,22.29,0,0,1,63.31,66,77.9,77.9,0,0,1,59.55,78.59Z" fill="#077594"/></svg>