<svg xmlns="http://www.w3.org/2000/svg" width="142" height="112" viewBox="0 0 142 112"><path d="M85.08,64.17c4.8-1.37,7.46-.17,9.25,4.1,1.56,3.73-2.43,10-7.58,12.51-5.61,2.8-13.51,1.68-17.45-3.62-5-6.67-.59-15.84,4-20.09,5.32-5,13.57-5.69,14.49-4S88.74,60.16,85.08,64.17Z" fill="#077594"/><path d="M56.69,59.72a5.22,5.22,0,0,1-3.95-6.25,5.15,5.15,0,0,1,1.91-3,18,18,0,0,1,20-25.63c.46.11.9.23,1.34.36h0c4,.41,14.16,1.82,14.23,5.95,0,1.43-1.21,3.07-3,4.16a18,18,0,0,1,1,11C86.1,56,76.79,63.44,67.1,61.26a14.05,14.05,0,0,1-4.31-1.83C61.57,60.84,58.64,60.16,56.69,59.72Z" fill="#fff"/><path d="M70.43,63.3a17.26,17.26,0,0,1-3.7-.41,13.85,13.85,0,0,1-3.82-1.47c-1.93,1-4.61.38-6.5-.05l-.09,0a6.84,6.84,0,0,1-4.32-3,6.89,6.89,0,0,1,.63-8.22,19.65,19.65,0,0,1,7.59-24.31,19.54,19.54,0,0,1,14.83-2.57c.4.09.81.2,1.28.34,10.29,1.07,15.53,3.62,15.6,7.58a6.41,6.41,0,0,1-2.63,4.79,19.51,19.51,0,0,1,.62,10.79C87.74,56.4,79.28,63.3,70.43,63.3Zm-8.91-5a4.73,4.73,0,0,0,.9-1.05l1.2.68a12,12,0,0,0,3.85,1.65c8.31,1.87,17.1-4.37,19.18-13.64a16.22,16.22,0,0,0-.92-10l-.57-1.33,1.23-.75a4.14,4.14,0,0,0,2.2-2.71c0-1.45-4.13-3.34-12-4.23l-.14.15-1-.3c-.4-.12-.8-.23-1.21-.33A16.32,16.32,0,0,0,56.15,49.72L56.77,51l-1.1.84a3.47,3.47,0,0,0-1.3,2,3.51,3.51,0,0,0,.46,2.68,4.61,4.61,0,0,0,2.23,2.07A7.8,7.8,0,0,0,61.52,58.34Z" fill="#077594"/><path d="M78.52,59.53c-.18,5.32,2.08,15.25,4.37,17.37-2.69,6.17-14,7.59-19.48,1.22.05-2.6,5-9.22.37-17.37C70,61.63,75.22,61.11,78.52,59.53Z" fill="#fff"/><path d="M73,83.94a14.2,14.2,0,0,1-10.82-4.73l-.41-.48v-.64a11,11,0,0,1,.86-3.27c1.19-3.31,2.83-7.84-.27-13.24L61.25,59,64,59.1c5.67.79,10.7.4,13.79-1.08l2.49-1.2-.1,2.76C80,65.1,82.39,74.16,84,75.67l.88.81-.48,1.08C83,80.8,79.6,83.12,75.3,83.77A16.86,16.86,0,0,1,73,83.94ZM65.2,77.59a11.38,11.38,0,0,0,9.6,2.87,8.72,8.72,0,0,0,6.09-3.39c-2.08-3.17-3.65-10.19-4-15.15a29.8,29.8,0,0,1-10.37.81c2,5.54.28,10.24-.79,13.23C65.54,76.54,65.32,77.14,65.2,77.59Z" fill="#077594"/><path d="M76.64,27c.56-.55,3.23-3.32,1.82-11.42C77.27,8.7,71.33,2.4,66.6,3c-6.39.83-17,9-14.49,16.79-5.1-5.09-11.51-3.65-15.8-.66S26.27,30.92,32,39.57c-7.89.58-10,11.15-8.89,15.48C24.83,62,33.51,70.38,43.55,67.56,32.94,72.4,34,81.28,36,85.34c2.33,4.74,17,6.8,25.35-1,8.06-7.47,6.94-20.2,1.46-24.93-5.53,3.94-8,.81-9.39-1C50.87,55.35,55,53.06,56.77,51c3.75-4.48.79-10.57,2.92-14.68C61,33.74,67.46,27.81,76.64,27Z" fill="#077594"/><path d="M30,112.18C41.52,99,55.74,83.87,64.42,77.38c5.31,2.56,11.4,6.29,17.3,0,14.36,4.67,32.11,27.22,30.11,34.8C89.06,112.18,53.64,112.16,30,112.18Z" fill="#077594"/><circle cx="63.41" cy="60.78" r="3.72" fill="#e05e48"/></svg>