<svg xmlns="http://www.w3.org/2000/svg" width="142" height="112" viewBox="0 0 142 112"><path d="M61.52,49.88c1.19-6.24-8.75-6.06-11.27-19.84-.44-2.37-.78-4.31,0-6.57,3.23-9.57,21.37-10.65,25.13-10.85,5.06-.3,17.42-1,29,6.9,16.56,11.3,19,29.93,19.38,34.51.61,7,1.83,16-8,24.4-9.39,7.93-26.09,7.45-35.3.68-4.57-3.35-6.47-7.66-11.2-7.64-4.4,0-5.55,3.76-12.48,5.85-1.47.5-9.53,2.91-12.53-.5-2.73-3.14-.12-5.32,3.16-9.86C54.25,57.59,60.5,55.15,61.52,49.88Z" fill="#077594"/><path d="M80.25,60.88C79.52,66,76.51,74.66,79,83.71c-5.74,5.66-22.61,6.3-20.33,0C61.48,75.87,65.26,70.18,61.5,56" fill="#fff"/><path d="M61.09,89.57a9.1,9.1,0,0,1-1.65-.68,5.33,5.33,0,0,1-2.65-6.57c.4-1.32.82-2.59,1.24-3.84,2.52-7.6,4.7-14.16,1.58-28.17l3.81-.85c3.35,15.07.9,22.44-1.69,30.25-.41,1.23-.82,2.47-1.21,3.76a1.43,1.43,0,0,0,.62,1.92l.18.08c3.35,1.84,11.68.42,15.54-3.21-1.67-8.44-.26-16.5.77-22.44.3-1.68.55-3.14.71-4.41l3.87.47c-.17,1.37-.44,3-.74,4.62-1,5.84-2.42,13.84-.58,21.9l.21,1-.63.74C76.07,89.28,66.6,91.27,61.09,89.57Z" fill="#077594"/><path d="M77.46,38.17c-7.94-3.35-22.34-3.39-24.37-2-3.26,4.64-6.55,17.63-2.71,19.5,1.66.81,3.17.75,5.74-.69a1.46,1.46,0,0,1,2,.5c3.21,5.26,7.15,7.07,13,7.62,7.28.69,18.52-4.24,20.36-13.23,2-9.93-5.28-16.4-11.8-12A2.22,2.22,0,0,1,77.46,38.17Z" fill="#fff"/><path d="M72.41,65.18c-.54,0-1.06,0-1.57-.07-6.77-.64-10.92-3-14.19-8.12-2.79,1.46-4.89,1.6-7.15.5A5,5,0,0,1,47,54.05c-1.36-5.28,1.78-15.17,4.47-19l.21-.29.29-.21c3.11-2.14,18.55-1.48,26.29,1.79h0a.24.24,0,0,0,.22,0A9,9,0,0,1,88.73,36c4,2.69,5.85,8.3,4.62,14.3C91.37,60,80.35,65.18,72.41,65.18ZM56.85,52.81a3.43,3.43,0,0,1,2.93,1.64c2.64,4.33,5.74,6.14,11.44,6.68,6.17.58,16.6-3.76,18.21-11.64,1.1-5.35-.88-8.82-2.91-10.17a5,5,0,0,0-5.81.28,4.24,4.24,0,0,1-4,.42C69.5,37,57,37,54.44,37.76,52.15,41.42,50,49.59,50.85,53.05c.16.6.35.82.41.85.85.41,1.63.61,3.88-.64A3.42,3.42,0,0,1,56.85,52.81Z" fill="#077594"/><path d="M96.59,49.54c-.37,4.52-3.48,8-7,7.67s-6-4.16-5.64-8.68,3.47-8,7-7.68S97,45,96.59,49.54Z" fill="#e05e48"/><path d="M88.64,45.29c2.75-8.56,2.91-14-1.76-23.33-3.44-6.87-7.64-8.6-11.5-9.34.47-1,3.89-1.39,7.15,0,8,3.31,11.74,11.7,12.41,13.43,3,7.8,2.7,14-.8,20.2A5.52,5.52,0,0,1,88.64,45.29Z" fill="#e05e48"/><rect x="0.25" y="-0.18" width="142" height="112" fill="none"/><path d="M31.35,112.18c-2-7.58,15.75-30.13,30.11-34.8,5.9,6.29,10.75,3.29,16.06.73C86.2,84.6,101.66,99,113.16,112.18,89.54,112.16,54.12,112.18,31.35,112.18Z" fill="#077594"/></svg>