<svg xmlns="http://www.w3.org/2000/svg" width="142" height="112" viewBox="0 0 142 112"><path d="M51.3,53.43a5.31,5.31,0,0,1,2.8-9.2A18.29,18.29,0,0,1,84.6,31.5c.36.32.69.65,1,1h0c3.35,2.36,11.63,8.67,9.63,12.36-.68,1.27-2.6,2.11-4.71,2.19a18.21,18.21,0,0,1-4.6,10.28c-6.76,7.5-18.68,9.41-26.18,2.65a13.93,13.93,0,0,1-2.91-3.76C55.06,56.85,52.81,54.79,51.3,53.43Z" fill="#fff"/><path d="M61.69,63.44a16.81,16.81,0,0,1-3.07-2.21A13.72,13.72,0,0,1,56,58c-2.2-.09-4.27-2-5.73-3.28l-.07-.06a6.89,6.89,0,0,1-2.31-4.84,7,7,0,0,1,1.79-5.06,7,7,0,0,1,2.85-1.91,20.06,20.06,0,0,1,5-11.18,20,20,0,0,1,28.22-1.46c.31.28.62.58,1,.94,8.57,6.07,12,10.94,10,14.48A6.51,6.51,0,0,1,92,48.59a19.78,19.78,0,0,1-4.83,9.87C80.45,66,69.53,67.85,61.69,63.44Zm-4.1-9.31.72,1.2a12.2,12.2,0,0,0,2.59,3.38c6.42,5.8,17.32,4.64,23.78-2.53a16.51,16.51,0,0,0,4.17-9.32L89,45.4l1.47-.06A4.17,4.17,0,0,0,93.76,44c.7-1.3-2-5-8.47-9.69l-.2.06-.71-.74c-.29-.31-.59-.61-.91-.9A16.58,16.58,0,0,0,55.8,44.3l-.06,1.41-1.4.2a3.61,3.61,0,0,0-1.9,6.26l.07.06c.81.73,3,2.67,3.76,2.38Z" fill="#077594"/><path d="M82.69,28.26c0,.83-4.52-2.93-7.8-.68-3.79,2.61-1.65,5.39-3.44,8.75S62.19,34.63,62.39,48c-5,2.08-5-1.19-7.65-4-6.26.17-4.92,2.31-5.43,3.27-1.3,2.44,2.78,9.34,7.76,10.57-.61,2-4.25,4.41-6,3.87-2.09-.63-6.32-4.18-4.32-7.55A13.8,13.8,0,0,1,40.45,48c-2.16-4.18-1-10.46,2.4-13.66,2.16-2,3.14-2.85,5.06-3.1-2.59-3.83-.59-9.21,2-11.63,2.73-2.6,9.51-4,13.52-.34-.42-3.37,2.94-5.18,6.27-6.18,4-1.2,8.61,2.42,10.78,5C81.38,19.27,82.74,24.21,82.69,28.26Z" fill="#077594"/><path d="M79.4,62.25c-.4,5.4,1.47,15.57,3.7,17.82-3,6.15-14.54,7.12-19.81.43.15-2.64,5.5-9.15,1.1-17.62C70.68,64,76,63.72,79.4,62.25Z" fill="#fff"/><path d="M72.73,86.8A14.4,14.4,0,0,1,62,81.55l-.4-.51,0-.64a11.43,11.43,0,0,1,1-3.29c1.35-3.3,3.19-7.83.28-13.44l-1.6-3.08,3.41.62c5.72,1,10.84.86,14-.52l2.57-1.11-.21,2.8c-.41,5.6,1.62,14.88,3.22,16.49l.85.85-.53,1.09c-1.57,3.23-5.12,5.44-9.52,5.91A15.78,15.78,0,0,1,72.73,86.8ZM65.12,80a11.58,11.58,0,0,0,9.63,3.31,8.83,8.83,0,0,0,6.32-3.18c-2-3.31-3.28-10.5-3.41-15.55A30.08,30.08,0,0,1,67.1,65c1.78,5.7-.14,10.4-1.35,13.39C65.51,79,65.26,79.58,65.12,80Z" fill="#077594"/><path d="M27.92,112c11.5-13.23,27-27.4,35.64-33.89,5.31,2.56,10.16,5.56,16.06-.73C94,82.05,109.93,108.05,109.77,112,87,112,51.54,112,27.92,112Z" fill="#077594"/><path d="M100.1,104C98,99.52,92.37,88.69,87.81,86.09A10.55,10.55,0,0,0,87,81c-.28-.64-1.89-4.36-5.47-4.76-3.29-.36-6.58,2.29-6.94,4.86.62,3.11,3.31,4.7,11.3,8.1,1.46,9.24,3.51,14.13,2.74,22.76h14C102.56,110,102,108.08,100.1,104Z" fill="#e05e48"/></svg>