<svg width="87" height="55" viewBox="0 0 87 55" fill="none" xmlns="http://www.w3.org/2000/svg">
<path d="M2.22461 1.73047H85.1646V51.3205C85.1646 51.6255 85.0434 51.918 84.8278 52.1336C84.6121 52.3493 84.3196 52.4705 84.0146 52.4705H2.22461V1.73047Z" fill="#B4D5DE"/>
<path d="M43.6942 54.2H2.22417C1.76535 54.2 1.32531 54.0178 1.00088 53.6933C0.676437 53.3689 0.49417 52.9289 0.49417 52.47V1.73003C0.492843 1.50247 0.536685 1.27691 0.623156 1.06642C0.709626 0.855928 0.837007 0.664687 0.997917 0.503776C1.15883 0.342866 1.35007 0.215486 1.56056 0.129015C1.77105 0.0425442 1.99661 -0.00129766 2.22417 2.92428e-05H85.1642C85.623 2.92428e-05 86.063 0.182297 86.3875 0.506735C86.7119 0.831172 86.8942 1.2712 86.8942 1.73003V27.78C86.8942 28.2389 86.7119 28.6789 86.3875 29.0033C86.063 29.3278 85.623 29.51 85.1642 29.51C84.7053 29.51 84.2653 29.3278 83.9409 29.0033C83.6164 28.6789 83.4342 28.2389 83.4342 27.78V3.46003H3.95417V50.74H43.6942C44.153 50.74 44.593 50.9223 44.9175 51.2467C45.2419 51.5712 45.4242 52.0112 45.4242 52.47C45.4242 52.9289 45.2419 53.3689 44.9175 53.6933C44.593 54.0178 44.153 54.2 43.6942 54.2Z" fill="#077594"/>
<path d="M11.4941 14.9006H12.7941C12.8267 15.1553 12.956 15.3876 13.1552 15.5496C13.3544 15.7115 13.6082 15.7907 13.8641 15.7706C14.4641 15.7706 14.8641 15.4606 14.8641 15.0006C14.8641 14.5406 14.6041 14.3806 14.0441 14.2006L13.2441 13.9806C11.8041 13.5906 11.5441 12.7306 11.5441 12.1406C11.5524 11.857 11.6189 11.5782 11.7394 11.3214C11.8599 11.0645 12.032 10.8352 12.2448 10.6477C12.4577 10.4601 12.7069 10.3184 12.9768 10.2311C13.2468 10.1439 13.5318 10.1131 13.8141 10.1406C14.0923 10.1141 14.3729 10.1461 14.638 10.2347C14.903 10.3232 15.1465 10.4663 15.3529 10.6548C15.5592 10.8432 15.7238 11.0728 15.8359 11.3287C15.9481 11.5846 16.0054 11.8612 16.0041 12.1406H14.6641C14.6661 12.025 14.6436 11.9103 14.5981 11.804C14.5526 11.6978 14.4852 11.6023 14.4002 11.5239C14.3152 11.4455 14.2146 11.386 14.105 11.3493C13.9953 11.3125 13.8792 11.2993 13.7641 11.3106C13.6553 11.2982 13.5452 11.308 13.4402 11.3394C13.3353 11.3707 13.2379 11.423 13.1537 11.4931C13.0696 11.5632 13.0006 11.6497 12.9508 11.7472C12.901 11.8448 12.8715 11.9514 12.8641 12.0606C12.8641 12.2206 12.8641 12.5606 13.5941 12.7506L14.3241 12.9606C15.3241 13.2406 16.1841 13.7606 16.1841 14.8806C16.1724 15.1703 16.1009 15.4543 15.974 15.715C15.8471 15.9756 15.6677 16.2071 15.4469 16.395C15.2262 16.5829 14.9689 16.723 14.6913 16.8066C14.4138 16.8902 14.1219 16.9154 13.8341 16.8806C13.5495 16.9094 13.262 16.8806 12.9888 16.7959C12.7155 16.7112 12.4621 16.5723 12.2437 16.3875C12.0253 16.2027 11.8464 15.9758 11.7176 15.7203C11.5888 15.4649 11.5128 15.1861 11.4941 14.9006Z" fill="#077594"/>
<path d="M22.2038 12.4109C22.2231 12.6965 22.181 12.9829 22.0801 13.2508C21.9793 13.5186 21.8221 13.7617 21.6193 13.9637C21.4164 14.1656 21.1726 14.3216 20.9042 14.4212C20.6359 14.5208 20.3493 14.5616 20.0638 14.5409H18.7138V16.8309H17.3838V10.2709H20.0638C20.3502 10.2501 20.6377 10.2911 20.9068 10.3913C21.1759 10.4914 21.4203 10.6484 21.6233 10.8514C21.8263 11.0544 21.9833 11.2988 22.0834 11.5679C22.1836 11.837 22.2246 12.1245 22.2038 12.4109ZM20.8738 12.4109C20.8925 12.2871 20.8843 12.1607 20.8496 12.0404C20.815 11.92 20.7548 11.8086 20.6732 11.7136C20.5915 11.6187 20.4903 11.5425 20.3765 11.4903C20.2627 11.438 20.139 11.4109 20.0138 11.4109H18.7138V13.3509H19.9938C20.115 13.3527 20.2353 13.3291 20.3469 13.2817C20.4584 13.2343 20.5589 13.1641 20.6417 13.0756C20.7246 12.9871 20.788 12.8822 20.828 12.7678C20.868 12.6533 20.8836 12.5318 20.8738 12.4109Z" fill="#077594"/>
<path d="M22.8741 13.5602C22.878 12.9005 23.0773 12.2567 23.4467 11.7101C23.8161 11.1635 24.3391 10.7385 24.9497 10.4888C25.5604 10.239 26.2313 10.1757 26.8779 10.3069C27.5244 10.438 28.1177 10.7577 28.5828 11.2256C29.0479 11.6935 29.364 12.2886 29.4913 12.936C29.6186 13.5833 29.5513 14.2538 29.2979 14.863C29.0445 15.4721 28.6164 15.9926 28.0676 16.3587C27.5188 16.7248 26.8738 16.9202 26.2141 16.9202C25.7738 16.9202 25.3378 16.8332 24.9313 16.6641C24.5247 16.495 24.1557 16.2472 23.8452 15.9349C23.5348 15.6226 23.2892 15.2521 23.1226 14.8445C22.9559 14.437 22.8714 14.0005 22.8741 13.5602ZM28.2241 13.5602C28.2241 13.0298 28.0134 12.5211 27.6383 12.146C27.2632 11.7709 26.7545 11.5602 26.2241 11.5602C25.6937 11.5602 25.1849 11.7709 24.8099 12.146C24.4348 12.5211 24.2241 13.0298 24.2241 13.5602C24.2241 14.0907 24.4348 14.5994 24.8099 14.9744C25.1849 15.3495 25.6937 15.5602 26.2241 15.5602C26.7545 15.5602 27.2632 15.3495 27.6383 14.9744C28.0134 14.5994 28.2241 14.0907 28.2241 13.5602Z" fill="#077594"/>
<path d="M35.6539 10.2695V16.8295H34.4939L32.1139 12.7195V16.8295H30.7539V10.2695H31.9839L34.3339 14.3395V10.2695H35.6539Z" fill="#077594"/>
<path d="M36.8838 14.9006H38.2138C38.2464 15.1553 38.3756 15.3876 38.5748 15.5496C38.774 15.7115 39.0279 15.7907 39.2838 15.7706C39.8738 15.7706 40.2838 15.4606 40.2838 15.0006C40.2838 14.5406 40.0238 14.3806 39.4638 14.2006L38.6638 13.9806C37.2238 13.5906 36.9638 12.7306 36.9638 12.1406C36.972 11.857 37.0385 11.5782 37.159 11.3214C37.2796 11.0645 37.4516 10.8352 37.6645 10.6477C37.8774 10.4601 38.1265 10.3184 38.3965 10.2311C38.6664 10.1439 38.9514 10.1131 39.2338 10.1406C39.512 10.1141 39.7926 10.1461 40.0576 10.2347C40.3226 10.3232 40.5662 10.4663 40.7725 10.6548C40.9788 10.8432 41.1434 11.0728 41.2556 11.3287C41.3678 11.5846 41.4251 11.8612 41.4238 12.1406H40.0738C40.0525 11.9226 39.9533 11.7195 39.7943 11.5687C39.6354 11.4179 39.4274 11.3296 39.2085 11.3199C38.9896 11.3101 38.7746 11.3797 38.6029 11.5158C38.4312 11.6519 38.3143 11.8453 38.2738 12.0606C38.2738 12.2206 38.2738 12.5606 39.0138 12.7506L39.7438 12.9606C40.7438 13.2406 41.6038 13.7606 41.6038 14.8806C41.5907 15.1707 41.5179 15.455 41.39 15.7156C41.262 15.9763 41.0816 16.2077 40.8601 16.3955C40.6386 16.5832 40.3807 16.7232 40.1026 16.8067C39.8244 16.8901 39.5321 16.9153 39.2438 16.8806C38.9573 16.9138 38.6671 16.8882 38.3909 16.8053C38.1147 16.7225 37.8584 16.5841 37.6374 16.3988C37.4165 16.2135 37.2358 15.985 37.1062 15.7274C36.9766 15.4698 36.9009 15.1885 36.8838 14.9006Z" fill="#077594"/>
<path d="M42.4044 13.5602C42.4083 12.9005 42.6075 12.2567 42.9769 11.7101C43.3463 11.1635 43.8693 10.7385 44.48 10.4888C45.0906 10.239 45.7616 10.1757 46.4081 10.3069C47.0547 10.438 47.648 10.7577 48.1131 11.2256C48.5782 11.6935 48.8943 12.2886 49.0216 12.936C49.1488 13.5833 49.0815 14.2538 48.8282 14.863C48.5748 15.4721 48.1467 15.9926 47.5979 16.3587C47.049 16.7248 46.4041 16.9202 45.7444 16.9202C45.3041 16.9202 44.8681 16.8332 44.4616 16.6641C44.055 16.495 43.6859 16.2472 43.3755 15.9349C43.0651 15.6226 42.8195 15.2521 42.6528 14.8445C42.4862 14.437 42.4017 14.0005 42.4044 13.5602ZM47.7444 13.5602C47.7444 13.0298 47.5336 12.5211 47.1586 12.146C46.7835 11.7709 46.2748 11.5602 45.7444 11.5602C45.2139 11.5602 44.7052 11.7709 44.3301 12.146C43.9551 12.5211 43.7444 13.0298 43.7444 13.5602C43.7444 14.0907 43.9551 14.5994 44.3301 14.9744C44.7052 15.3495 45.2139 15.5602 45.7444 15.5602C46.2748 15.5602 46.7835 15.3495 47.1586 14.9744C47.5336 14.5994 47.7444 14.0907 47.7444 13.5602Z" fill="#077594"/>
<path d="M52.0542 14.4797H51.6142V16.8297H50.2842V10.2697H52.9042C53.1914 10.2473 53.48 10.2873 53.7503 10.3868C54.0206 10.4862 54.2663 10.643 54.4704 10.8462C54.6746 11.0494 54.8324 11.2943 54.9332 11.5641C55.0339 11.834 55.0752 12.1224 55.0542 12.4097C55.0852 12.8811 54.9395 13.3471 54.6456 13.7169C54.3516 14.0867 53.9304 14.3337 53.4642 14.4097L55.1742 16.8297H53.6242L52.0542 14.4797ZM51.6142 13.4097H52.6642C52.9294 13.4243 53.1895 13.3329 53.3874 13.1557C53.5852 12.9785 53.7046 12.7299 53.7192 12.4647C53.7338 12.1995 53.6424 11.9393 53.4652 11.7415C53.288 11.5436 53.0394 11.4243 52.7742 11.4097H51.6142V13.4097Z" fill="#077594"/>
<path d="M55.9746 14.8989H57.3046C57.3372 15.1536 57.4665 15.3859 57.6657 15.5479C57.8648 15.7098 58.1187 15.789 58.3746 15.7689C58.9646 15.7689 59.3746 15.4589 59.3746 14.9989C59.3746 14.5389 59.1146 14.3789 58.5446 14.1989L57.7446 13.9789C56.3146 13.5889 56.0546 12.7289 56.0546 12.1389C56.063 11.8563 56.1291 11.5783 56.2491 11.3222C56.369 11.0662 56.5401 10.8374 56.7519 10.65C56.9636 10.4625 57.2116 10.3205 57.4803 10.2326C57.7491 10.1447 58.033 10.1129 58.3146 10.1389C58.5936 10.1109 58.8753 10.1418 59.1415 10.2297C59.4078 10.3176 59.6525 10.4604 59.86 10.649C60.0674 10.8376 60.2329 11.0677 60.3457 11.3244C60.4585 11.5811 60.516 11.8586 60.5146 12.1389H59.1646C59.1433 11.9209 59.0441 11.7178 58.8852 11.567C58.7262 11.4163 58.5182 11.3279 58.2993 11.3182C58.0804 11.3084 57.8654 11.378 57.6937 11.5141C57.522 11.6502 57.4051 11.8436 57.3646 12.0589C57.3646 12.2189 57.4146 12.5589 58.1046 12.7489L58.8346 12.9589C59.8346 13.2389 60.6946 13.7589 60.6946 14.8789C60.6048 15.4402 60.3179 15.9512 59.8854 16.32C59.4529 16.6888 58.903 16.8914 58.3346 16.8914C57.7662 16.8914 57.2163 16.6888 56.7838 16.32C56.3513 15.9512 56.0644 15.4402 55.9746 14.8789V14.8989Z" fill="#077594"/>
<path d="M66.9945 10.2695V16.8295H65.6645V14.1695H63.2245V16.8295H61.8945V10.2695H63.2245V12.9995H65.6645V10.2695H66.9945Z" fill="#077594"/>
<path d="M68.5938 10.2695H69.9238V16.8295H68.5938V10.2695Z" fill="#077594"/>
<path d="M76.3441 12.4097C76.3637 12.6962 76.3213 12.9835 76.2198 13.2521C76.1184 13.5208 75.9603 13.7644 75.7564 13.9665C75.5524 14.1686 75.3073 14.3244 75.0377 14.4233C74.7681 14.5222 74.4804 14.5619 74.1941 14.5397H72.8441V16.8297H71.4941V10.2697H74.1941C74.4813 10.2473 74.7699 10.2873 75.0403 10.3868C75.3106 10.4862 75.5562 10.643 75.7604 10.8462C75.9645 11.0494 76.1224 11.2943 76.2232 11.5641C76.3239 11.834 76.3652 12.1224 76.3441 12.4097ZM75.0041 12.4097C75.0227 12.2867 75.0147 12.1612 74.9807 12.0416C74.9467 11.9219 74.8874 11.811 74.8068 11.7162C74.7262 11.6214 74.6263 11.545 74.5137 11.4922C74.4011 11.4393 74.2785 11.4112 74.1541 11.4097H72.8441V13.3497H74.1341C74.2545 13.3501 74.3737 13.3255 74.4841 13.2775C74.5945 13.2294 74.6937 13.159 74.7755 13.0707C74.8572 12.9823 74.9198 12.878 74.9591 12.7642C74.9985 12.6504 75.0138 12.5297 75.0041 12.4097Z" fill="#077594"/>
<path d="M40.5742 28.8311H9.30422C8.84539 28.8311 8.40536 28.6488 8.08092 28.3244C7.75649 28 7.57422 27.5599 7.57422 27.1011C7.57422 26.6423 7.75649 26.2022 8.08092 25.8778C8.40536 25.5534 8.84539 25.3711 9.30422 25.3711H40.5742C41.033 25.3711 41.4731 25.5534 41.7975 25.8778C42.122 26.2022 42.3042 26.6423 42.3042 27.1011C42.3042 27.5599 42.122 28 41.7975 28.3244C41.4731 28.6488 41.033 28.8311 40.5742 28.8311Z" fill="white"/>
<path d="M40.5742 41.5889H9.30422C8.84539 41.5889 8.40536 41.4066 8.08092 41.0822C7.75649 40.7578 7.57422 40.3177 7.57422 39.8589C7.57422 39.4001 7.75649 38.96 8.08092 38.6356C8.40536 38.3112 8.84539 38.1289 9.30422 38.1289H40.5742C41.033 38.1289 41.4731 38.3112 41.7975 38.6356C42.122 38.96 42.3042 39.4001 42.3042 39.8589C42.3042 40.3177 42.122 40.7578 41.7975 41.0822C41.4731 41.4066 41.033 41.5889 40.5742 41.5889Z" fill="white"/>
<path d="M63.3443 43.5889H51.8343C51.3781 43.5889 50.9406 43.4077 50.618 43.0852C50.2955 42.7626 50.1143 42.3251 50.1143 41.8689V25.5989C50.1143 25.1428 50.2955 24.7053 50.618 24.3827C50.9406 24.0601 51.3781 23.8789 51.8343 23.8789H74.8343C75.061 23.8776 75.2857 23.9211 75.4955 24.007C75.7054 24.0928 75.8962 24.2193 76.0569 24.3792C76.2177 24.539 76.3453 24.7291 76.4324 24.9384C76.5194 25.1477 76.5643 25.3722 76.5643 25.5989V33.7389C76.5643 34.1978 76.382 34.6378 76.0576 34.9622C75.7331 35.2867 75.2931 35.4689 74.8343 35.4689C74.3754 35.4689 73.9354 35.2867 73.611 34.9622C73.2865 34.6378 73.1043 34.1978 73.1043 33.7389V27.3289H53.5643V40.1389H63.3443C63.5818 40.1208 63.8206 40.152 64.0455 40.2305C64.2705 40.309 64.4768 40.4331 64.6516 40.595C64.8264 40.757 64.9658 40.9533 65.0611 41.1716C65.1565 41.39 65.2057 41.6257 65.2057 41.8639C65.2057 42.1022 65.1565 42.3379 65.0611 42.5562C64.9658 42.7746 64.8264 42.9709 64.6516 43.1329C64.4768 43.2948 64.2705 43.4189 64.0455 43.4974C63.8206 43.5759 63.5818 43.607 63.3443 43.5889Z" fill="white"/>
</svg>
