<svg width="60" height="81" viewBox="0 0 60 81" fill="none" xmlns="http://www.w3.org/2000/svg">
<path d="M3.02229 1.78125H57.2922V78.3982H2.2002V2.51835C2.2002 2.32286 2.28681 2.13537 2.44098 1.99714C2.59516 1.85891 2.80426 1.78125 3.02229 1.78125Z" fill="#B4D5DE"/>
<path d="M56.8738 80.0704H1.7818C1.54399 80.0705 1.30858 80.0229 1.08944 79.9306C0.870303 79.8382 0.671876 79.7029 0.505864 79.5327C0.339852 79.3624 0.209616 79.1606 0.122835 78.9392C0.0360551 78.7178 -0.00551191 78.4812 0.000585677 78.2435L0.418943 41.8128C0.418943 41.3404 0.606606 40.8874 0.940648 40.5533C1.27469 40.2193 1.72775 40.0316 2.20016 40.0316C2.67256 40.0316 3.12562 40.2193 3.45966 40.5533C3.79371 40.8874 3.98137 41.3404 3.98137 41.8128L3.56301 76.4623H55.0926L55.511 3.56243H29.7404C29.268 3.56243 28.815 3.37476 28.4809 3.04072C28.1469 2.70668 27.9592 2.25362 27.9592 1.78121C27.9592 1.30881 28.1469 0.855747 28.4809 0.521705C28.815 0.187663 29.268 3.83316e-10 29.7404 3.83315e-10L57.2922 3.83315e-10C57.5256 -4.85662e-06 57.7566 0.0461479 57.9721 0.135802C58.1876 0.225455 58.3832 0.356839 58.5477 0.522391C58.7122 0.687943 58.8423 0.884394 58.9305 1.10043C59.0188 1.31648 59.0635 1.54784 59.062 1.78121L58.6436 78.2435C58.6513 78.4807 58.6111 78.717 58.5256 78.9383C58.4401 79.1597 58.311 79.3616 58.1459 79.532C57.9808 79.7025 57.7831 79.838 57.5645 79.9304C57.346 80.0229 57.1111 80.0705 56.8738 80.0704Z" fill="#077594"/>
<path d="M37.8363 42.5216H9.89637C9.65123 42.5412 9.40468 42.5099 9.17224 42.4296C8.9398 42.3493 8.72651 42.2218 8.54579 42.055C8.36508 41.8882 8.22086 41.6858 8.12222 41.4605C8.02358 41.2352 7.97266 40.992 7.97266 40.7461C7.97266 40.5001 8.02358 40.2569 8.12222 40.0316C8.22086 39.8063 8.36508 39.6039 8.54579 39.4371C8.72651 39.2703 8.9398 39.1428 9.17224 39.0625C9.40468 38.9822 9.65123 38.9509 9.89637 38.9706H37.8363C38.0814 38.9509 38.328 38.9822 38.5604 39.0625C38.7929 39.1428 39.0062 39.2703 39.1869 39.4371C39.3676 39.6039 39.5118 39.8063 39.6104 40.0316C39.7091 40.2569 39.76 40.5001 39.76 40.7461C39.76 40.992 39.7091 41.2352 39.6104 41.4605C39.5118 41.6858 39.3676 41.8882 39.1869 42.055C39.0062 42.2218 38.7929 42.3493 38.5604 42.4296C38.328 42.5099 38.0814 42.5412 37.8363 42.5216Z" fill="white"/>
<path d="M49.5972 33.6034H9.89669C9.42429 33.6034 8.97123 33.4158 8.63718 33.0817C8.30314 32.7477 8.11548 32.2946 8.11548 31.8222C8.11548 31.3498 8.30314 30.8968 8.63718 30.5627C8.97123 30.2287 9.42429 30.041 9.89669 30.041H49.5972C50.0696 30.041 50.5227 30.2287 50.8567 30.5627C51.1907 30.8968 51.3784 31.3498 51.3784 31.8222C51.3784 32.2946 51.1907 32.7477 50.8567 33.0817C50.5227 33.4158 50.0696 33.6034 49.5972 33.6034Z" fill="white"/>
<path d="M29.4909 67.208C28.7132 67.1987 27.942 67.0637 27.2073 66.8083C26.4749 66.5514 25.7799 66.1982 25.1407 65.7579C24.33 65.9634 23.4736 66.1118 22.6059 66.2717C18.8064 66.9107 14.9145 66.7356 11.1878 65.7579C11.0379 65.7189 10.8971 65.6507 10.7735 65.5573C10.6499 65.4639 10.5459 65.3471 10.4674 65.2135C10.3889 65.0799 10.3376 64.9322 10.3162 64.7787C10.2948 64.6253 10.3039 64.4691 10.3429 64.3192C10.4216 64.0164 10.6174 63.7572 10.8872 63.5988C11.0208 63.5203 11.1686 63.4689 11.322 63.4476C11.4755 63.4262 11.6316 63.4353 11.7816 63.4743C15.1926 64.3858 18.7603 64.5494 22.2405 63.9538L23.211 63.7825C22.9314 63.3695 22.7015 62.9249 22.5259 62.4581C22.157 61.2681 22.0681 60.009 22.2662 58.779C22.4642 57.549 22.9439 56.3814 23.6677 55.3675C23.9355 54.8891 24.3113 54.4799 24.7653 54.1726C25.2193 53.8653 25.7389 53.6684 26.2825 53.5977C26.8998 53.6791 27.4861 53.9169 27.9857 54.2886C28.4853 54.6603 28.8816 55.1535 29.137 55.7214C29.797 56.7536 30.1987 57.9297 30.308 59.15C30.4173 60.3703 30.2311 61.599 29.765 62.7321C29.3714 63.4877 28.7893 64.1288 28.0751 64.5932C28.4534 64.75 28.8588 64.8306 29.2683 64.8306C29.6777 64.8306 30.0832 64.75 30.4615 64.5932C30.8598 64.2018 31.1237 63.6941 31.2151 63.1431C31.4777 62.2868 31.8316 61.0993 33.0876 60.8595C33.631 60.8216 34.1742 60.9375 34.6548 61.194C35.1354 61.4504 35.5341 61.8371 35.8051 62.3096C36.2504 62.8348 36.7071 63.3715 37.1524 63.4514C37.5977 63.5313 38.043 63.029 38.6939 62.3096C39.3447 61.5903 40.4637 60.4827 41.9023 60.7453C42.3594 60.8696 42.7825 61.0953 43.1403 61.4057C43.4981 61.7161 43.7814 62.1031 43.969 62.538C44.2659 63.0518 44.46 63.3715 44.7683 63.4857C45.362 63.7026 46.4696 63.2116 47.794 62.1155C47.914 62.0165 48.0523 61.9422 48.201 61.8967C48.3497 61.8511 48.5059 61.8353 48.6607 61.8502C48.8155 61.865 48.9658 61.9102 49.1032 61.9832C49.2405 62.0561 49.3621 62.1554 49.4611 62.2754C49.56 62.3953 49.6344 62.5336 49.6799 62.6823C49.7255 62.831 49.7412 62.9872 49.7264 63.142C49.7116 63.2968 49.6664 63.4471 49.5934 63.5845C49.5205 63.7218 49.4212 63.8434 49.3012 63.9424C47.2003 65.6894 45.4533 66.226 43.9462 65.7122C43.0513 65.3224 42.3289 64.6203 41.9138 63.7369C41.7996 63.5313 41.5484 63.0975 41.457 63.086C41.3657 63.0746 40.6806 63.6569 40.3952 63.9538C39.6301 64.7531 38.5226 65.9063 37.0268 65.7579C36.4125 65.6708 35.8237 65.4536 35.3 65.1208C34.7762 64.7881 34.3295 64.3474 33.9896 63.8282L33.6357 63.3715C33.5797 63.5127 33.5339 63.6577 33.4987 63.8054C33.2772 64.9104 32.655 65.8946 31.7517 66.5685C31.0737 66.9912 30.2898 67.2129 29.4909 67.208ZM26.2825 55.9612C25.7984 56.2775 25.4049 56.7143 25.1407 57.2286C24.7665 57.8882 24.5301 58.6169 24.4457 59.3705C24.3614 60.1242 24.4307 60.8871 24.6497 61.6131C24.8685 62.1845 25.2072 62.7023 25.6431 63.1317C26.4689 62.9114 27.177 62.3793 27.6184 61.6474C27.8713 60.9938 27.9847 60.2945 27.9513 59.5944C27.9179 58.8944 27.7384 58.2091 27.4243 57.5826C27.2196 56.9375 26.8208 56.3713 26.2825 55.9612Z" fill="white"/>
<path d="M6.97399 19.8327H8.94931V20.6434H6.06055V16.0762H8.89222V16.8869H6.97399V17.9601H8.65244V18.7822H6.97399V19.8327Z" fill="#077594"/>
<path d="M12.272 16.1218H13.1855V20.6891H12.3634L10.6963 17.8117V20.6434H9.81714V16.0762H10.6963L12.3063 18.8736L12.272 16.1218Z" fill="#077594"/>
<path d="M16.0393 16.1231C16.3296 16.1213 16.6169 16.181 16.8824 16.2982C17.1479 16.4155 17.3855 16.5877 17.5797 16.8034C17.7739 17.0191 17.9201 17.2736 18.0089 17.5499C18.0976 17.8262 18.1268 18.1182 18.0946 18.4067C18.1287 18.6955 18.1008 18.9882 18.0128 19.2654C17.9248 19.5426 17.7786 19.7977 17.584 20.0139C17.3895 20.23 17.1511 20.4022 16.8847 20.5188C16.6183 20.6355 16.3301 20.6939 16.0393 20.6903H14.2695V16.1231H16.0393ZM16.0393 19.8339C16.7929 19.8339 17.1811 19.1717 17.1811 18.3953C17.1811 17.6188 16.7929 16.9338 16.0393 16.9338H15.183V19.8339H16.0393Z" fill="#077594"/>
<path d="M18.6882 18.3832C18.6882 17.9316 18.8222 17.49 19.0731 17.1145C19.324 16.739 19.6807 16.4463 20.0979 16.2734C20.5152 16.1006 20.9744 16.0554 21.4173 16.1435C21.8603 16.2316 22.2672 16.4491 22.5866 16.7685C22.906 17.0878 23.1235 17.4947 23.2116 17.9377C23.2997 18.3807 23.2545 18.8398 23.0816 19.2571C22.9088 19.6744 22.6161 20.031 22.2405 20.282C21.865 20.5329 21.4235 20.6668 20.9718 20.6668C20.3662 20.6668 19.7853 20.4262 19.3571 19.998C18.9288 19.5697 18.6882 18.9889 18.6882 18.3832ZM22.3648 18.3832C22.3648 18.0168 22.2193 17.6654 21.9602 17.4063C21.7011 17.1472 21.3497 17.0016 20.9833 17.0016C20.6168 17.0016 20.2654 17.1472 20.0063 17.4063C19.7472 17.6654 19.6017 18.0168 19.6017 18.3832C19.6017 18.7496 19.7472 19.101 20.0063 19.3601C20.2654 19.6192 20.6168 19.7648 20.9833 19.7648C21.3497 19.7648 21.7011 19.6192 21.9602 19.3601C22.2193 19.101 22.3648 18.7496 22.3648 18.3832Z" fill="#077594"/>
<path d="M26.3612 20.6437L25.2765 19.0223H24.9682V20.6437H24.0662V16.0764H25.8702C26.2257 16.0695 26.5714 16.1935 26.8415 16.4248C27.1116 16.656 27.2874 16.9785 27.3353 17.3308C27.3832 17.6832 27.3 18.0409 27.1014 18.3359C26.9029 18.6309 26.6029 18.8427 26.2584 18.931L27.4002 20.598L26.3612 20.6437ZM24.9682 16.9328V18.2687H25.6989C25.7944 18.285 25.8922 18.2809 25.986 18.2567C26.0797 18.2325 26.1672 18.1886 26.2428 18.1281C26.3184 18.0675 26.3803 17.9916 26.4244 17.9054C26.4684 17.8192 26.4938 17.7246 26.4986 17.6279C26.5035 17.5312 26.4878 17.4346 26.4526 17.3444C26.4174 17.2542 26.3635 17.1724 26.2944 17.1046C26.2253 17.0368 26.1426 16.9843 26.0518 16.9508C25.961 16.9172 25.8641 16.9033 25.7675 16.91L24.9682 16.9328Z" fill="#077594"/>
<path d="M27.96 19.3312H28.8734C28.8935 19.5082 28.9828 19.67 29.1219 19.7813C29.261 19.8926 29.4385 19.9442 29.6156 19.925C30.0152 19.925 30.2892 19.6966 30.2892 19.3769C30.2892 19.0572 30.1065 18.943 29.7183 18.8288L29.1703 18.6804C28.1769 18.4064 28.0285 17.8126 28.0285 17.413C28.037 17.2188 28.0847 17.0284 28.1688 16.8532C28.2529 16.678 28.3716 16.5217 28.5178 16.3937C28.664 16.2656 28.8346 16.1685 29.0194 16.1082C29.2041 16.0479 29.3992 16.0257 29.5927 16.0428C29.7844 16.0253 29.9777 16.0481 30.1601 16.1096C30.3425 16.1712 30.51 16.2702 30.6519 16.4003C30.7938 16.5303 30.907 16.6886 30.9841 16.865C31.0613 17.0414 31.1007 17.2319 31.0999 17.4244H30.1066C30.1086 17.3449 30.0937 17.2659 30.0628 17.1927C30.0319 17.1194 29.9857 17.0536 29.9274 16.9995C29.869 16.9455 29.7998 16.9045 29.7244 16.8794C29.649 16.8542 29.5691 16.8454 29.49 16.8535C29.4137 16.8456 29.3367 16.8535 29.2636 16.8767C29.1906 16.8998 29.123 16.9377 29.0652 16.988C29.0074 17.0383 28.9606 17.1 28.9276 17.1692C28.8946 17.2383 28.8761 17.3136 28.8734 17.3902C28.8734 17.5043 28.8734 17.7327 29.3758 17.8697L29.8782 18.0067C30.5633 18.2123 31.157 18.5662 31.157 19.3312C31.1488 19.5316 31.0995 19.7281 31.0122 19.9085C30.9248 20.089 30.8012 20.2495 30.6491 20.3802C30.4971 20.5108 30.3197 20.6088 30.1282 20.668C29.9366 20.7272 29.7349 20.7463 29.5356 20.7242C29.3403 20.7381 29.1442 20.713 28.9587 20.6502C28.7732 20.5874 28.6021 20.4883 28.4553 20.3585C28.3086 20.2288 28.1892 20.0712 28.1042 19.8948C28.0191 19.7184 27.9701 19.5268 27.96 19.3312Z" fill="#077594"/>
<path d="M32.9262 19.8327H34.9129V20.6434H32.0242V16.0762H34.8558V16.8869H32.9262V17.9601H34.6732V18.7822H32.9262V19.8327Z" fill="#077594"/>
<path d="M40.9768 20.6434H40.052L39.7208 17.8345L38.579 20.1182H37.8597L36.7179 17.8345L36.3982 20.6434H35.4619L36.0214 16.0762H36.7978L38.1908 19.0449L39.5724 16.0762H40.3831L40.9768 20.6434Z" fill="#077594"/>
<path d="M42.7345 19.8327H44.7098V20.6434H41.821V16.0762H44.6527V16.8869H42.7345V17.9601H44.4244V18.7822H42.7345V19.8327Z" fill="#077594"/>
<path d="M48.0325 16.1218H48.946V20.6891H48.1239L46.4911 17.8117V20.6434H45.5776V16.0762H46.4226L48.0325 18.8736V16.1218Z" fill="#077594"/>
<path d="M53.0222 16.123V16.9337H51.8005V20.6446H50.887V16.9337H49.6196V16.123H53.0222Z" fill="#077594"/>
</svg>
