<svg width="75" height="39" viewBox="0 0 75 39" fill="none" xmlns="http://www.w3.org/2000/svg">
<path d="M71.7818 19.4896V3.66247C71.7818 3.21948 71.6071 2.79464 71.2961 2.4814C70.985 2.16816 70.5632 1.99219 70.1233 1.99219H3.49937C3.0595 1.99219 2.63764 2.16816 2.3266 2.4814C2.01556 2.79464 1.84082 3.21948 1.84082 3.66247V35.3411C1.85339 35.7756 2.03367 36.188 2.34335 36.4908C2.65304 36.7936 3.06774 36.9629 3.49937 36.9627H70.1233C70.5549 36.9629 70.9696 36.7936 71.2793 36.4908C71.589 36.188 71.7693 35.7756 71.7818 35.3411V19.4896Z" fill="#B4D5DE"/>
<path d="M66.2402 25.384C66.2361 25.1294 66.1328 24.8867 65.9528 24.7089C65.7729 24.5311 65.5308 24.4325 65.2793 24.4346C65.0277 24.4344 64.7859 24.5335 64.6051 24.7107C64.4244 24.8879 64.3188 25.1294 64.3107 25.384C64.3572 27.228 64.1325 27.5261 63.962 27.5968H55.1362V26.0274C55.1362 25.0858 55.1362 23.9245 55.1362 22.5749H58.5767C58.8176 22.553 59.0417 22.4406 59.205 22.2599C59.3682 22.0791 59.4587 21.843 59.4587 21.598C59.4587 21.353 59.3682 21.117 59.205 20.9362C59.0417 20.7554 58.8176 20.643 58.5767 20.6211H55.175C55.175 18.8007 55.175 16.6978 55.175 14.3438C55.1704 13.9953 55.2368 13.6496 55.3702 13.3283C55.5035 13.0069 55.7008 12.7169 55.9498 12.4763C56.3921 12.0702 56.9095 11.757 57.4722 11.555C58.0348 11.353 58.6315 11.266 59.2276 11.2993C60.2286 11.2761 61.1981 11.6551 61.9241 12.3535C62.6501 13.0519 63.0735 14.0129 63.1019 15.0265C63.1088 15.1588 63.1417 15.2884 63.1986 15.4077C63.2556 15.5271 63.3354 15.6337 63.4336 15.7214C63.5317 15.809 63.6461 15.876 63.7701 15.9184C63.8941 15.9607 64.0252 15.9776 64.1557 15.9681C64.2827 15.9601 64.4069 15.9267 64.521 15.8698C64.6351 15.8129 64.7369 15.7336 64.8205 15.6365C64.9042 15.5394 64.9679 15.4265 65.0081 15.3042C65.0483 15.182 65.0641 15.0529 65.0546 14.9245C65.0042 13.4258 64.3785 12.0061 63.3107 10.9672C62.2428 9.92831 60.8169 9.35215 59.336 9.36119C58.4757 9.31339 57.6148 9.44392 56.8061 9.7448C55.9973 10.0457 55.2577 10.5106 54.6326 11.111C54.1918 11.5331 53.8424 12.0433 53.6063 12.6092C53.3702 13.1751 53.2527 13.7845 53.261 14.3987C53.261 16.7527 53.261 18.8242 53.261 20.676H50.7504C50.6165 20.6639 50.4815 20.6801 50.3541 20.7236C50.2267 20.7672 50.1096 20.8372 50.0103 20.9291C49.9111 21.021 49.8318 21.1328 49.7776 21.2574C49.7233 21.382 49.6953 21.5167 49.6953 21.6529C49.6953 21.7891 49.7233 21.9238 49.7776 22.0485C49.8318 22.1731 49.9111 22.2849 50.0103 22.3768C50.1096 22.4687 50.2267 22.5387 50.3541 22.5822C50.4815 22.6258 50.6165 22.642 50.7504 22.6298H53.2378C53.2378 23.9795 53.2378 25.1251 53.2378 26.0745V27.6438H51.2619C51.0209 27.6657 50.7968 27.7781 50.6336 27.9589C50.4703 28.1397 50.3798 28.3758 50.3798 28.6207C50.3798 28.8657 50.4703 29.1018 50.6336 29.2826C50.7968 29.4634 51.0209 29.5758 51.2619 29.5976H64.0938H64.2875C66.3099 29.1033 66.3099 26.8435 66.2402 25.384Z" fill="white"/>
<path d="M45.9959 25.3808C45.9767 25.1274 45.8644 24.8901 45.6808 24.7148C45.4972 24.5395 45.2552 24.4386 45.0017 24.4315C44.751 24.4355 44.5116 24.5366 44.3335 24.7135C44.1555 24.8905 44.0527 25.1296 44.0467 25.3808C44.0467 27.2245 43.8588 27.5226 43.6944 27.5932H34.778V26.0241C34.778 25.0827 34.778 23.9216 34.778 22.5722H38.2537C38.4972 22.5503 38.7236 22.438 38.8885 22.2572C39.0534 22.0764 39.1448 21.8404 39.1448 21.5955C39.1448 21.3506 39.0534 21.1145 38.8885 20.9338C38.7236 20.753 38.4972 20.6406 38.2537 20.6187H34.8171C34.8171 18.7986 34.8171 16.6961 34.8171 14.3425C34.8198 13.9916 34.8942 13.6449 35.0355 13.3238C35.1769 13.0027 35.3823 12.714 35.6391 12.4754C36.0866 12.0704 36.6094 11.758 37.1777 11.5561C37.7459 11.3541 38.3484 11.2666 38.9505 11.2986C39.9618 11.2754 40.9412 11.6543 41.6747 12.3526C42.4081 13.0508 42.8359 14.0117 42.8646 15.0251C42.8603 15.1574 42.8845 15.2891 42.9358 15.4111C42.987 15.5332 43.0639 15.6427 43.1614 15.7321C43.2588 15.8215 43.3743 15.8888 43.5001 15.9292C43.6259 15.9697 43.759 15.9824 43.8901 15.9665C44.0177 15.9576 44.1423 15.9234 44.2567 15.8661C44.3711 15.8087 44.473 15.7293 44.5567 15.6323C44.6403 15.5354 44.704 15.4228 44.7442 15.3011C44.7843 15.1794 44.8 15.0509 44.7904 14.9231C44.7414 13.424 44.1099 12.0034 43.0307 10.9643C41.9514 9.92516 40.5097 9.34975 39.0131 9.36079C38.1452 9.31407 37.277 9.44512 36.4613 9.74591C35.6457 10.0467 34.8998 10.5109 34.2691 11.1103C33.824 11.5329 33.4705 12.0428 33.2308 12.6084C32.991 13.174 32.8701 13.783 32.8757 14.3974C32.8757 16.751 32.8757 18.8222 32.8757 20.6737H30.3393C30.0959 20.6955 29.8695 20.8079 29.7046 20.9887C29.5397 21.1694 29.4482 21.4055 29.4482 21.6504C29.4482 21.8953 29.5397 22.1314 29.7046 22.3121C29.8695 22.4929 30.0959 22.6052 30.3393 22.6271H32.8522C32.8522 23.9765 32.8522 25.1219 32.8522 26.0712V27.6403H30.8638C30.7285 27.6281 30.5921 27.6443 30.4634 27.6879C30.3347 27.7314 30.2164 27.8014 30.1161 27.8932C30.0158 27.9851 29.9357 28.0969 29.881 28.2215C29.8262 28.3461 29.7979 28.4808 29.7979 28.617C29.7979 28.7532 29.8262 28.8878 29.881 29.0124C29.9357 29.137 30.0158 29.2489 30.1161 29.3407C30.2164 29.4326 30.3347 29.5026 30.4634 29.5461C30.5921 29.5897 30.7285 29.6059 30.8638 29.5937H43.8197H44.0232C46.0585 29.0995 46.0585 26.84 45.9959 25.3808Z" fill="#077594"/>
<path d="M25.7571 25.3757C25.7355 25.1315 25.6244 24.9043 25.4458 24.7388C25.2672 24.5734 25.0339 24.4816 24.7919 24.4816C24.5498 24.4816 24.3165 24.5734 24.1379 24.7388C23.9593 24.9043 23.8482 25.1315 23.8266 25.3757C23.8731 27.2295 23.656 27.5201 23.4777 27.5908H14.6781V26.0198C14.6781 25.0773 14.6781 23.9148 14.6781 22.5638H18.1204C18.3615 22.5418 18.5857 22.4293 18.749 22.2484C18.9124 22.0674 19.0029 21.831 19.0029 21.5858C19.0029 21.3406 18.9124 21.1043 18.749 20.9233C18.5857 20.7423 18.3615 20.6298 18.1204 20.6079H14.6781C14.6781 18.7856 14.6781 16.6806 14.6781 14.3242C14.6735 13.9753 14.74 13.6292 14.8734 13.3076C15.0068 12.9859 15.2042 12.6956 15.4534 12.4547C16.3498 11.6381 17.5289 11.2145 18.7329 11.2765C19.7345 11.2533 20.7045 11.6327 21.4309 12.3318C22.1573 13.0309 22.581 13.9929 22.6094 15.0075C22.6039 15.1446 22.6288 15.2812 22.6822 15.4072C22.7356 15.5333 22.8162 15.6456 22.9181 15.736C23.0199 15.8264 23.1405 15.8926 23.2709 15.9296C23.4012 15.9666 23.5381 15.9736 23.6715 15.9501C23.9274 15.9319 24.1657 15.8118 24.3343 15.616C24.5028 15.4202 24.5879 15.1647 24.5709 14.9054C24.5145 13.408 23.8849 11.9916 22.8153 10.9564C21.7458 9.92127 20.3205 9.34867 18.8414 9.35997C17.9821 9.3155 17.1229 9.44777 16.3154 9.7488C15.5079 10.0498 14.769 10.5134 14.1431 11.1116C13.7051 11.5319 13.3567 12.0387 13.1193 12.6007C12.882 13.1626 12.7607 13.7679 12.7631 14.3791C12.7631 16.7356 12.7631 18.8092 12.7631 20.6629H10.2588C10.1248 20.6507 9.98975 20.667 9.86225 20.7106C9.73476 20.7542 9.61762 20.8242 9.51831 20.9162C9.41899 21.0082 9.33968 21.1201 9.28541 21.2449C9.23115 21.3696 9.20312 21.5045 9.20312 21.6408C9.20312 21.7772 9.23115 21.912 9.28541 22.0367C9.33968 22.1615 9.41899 22.2734 9.51831 22.3654C9.61762 22.4574 9.73476 22.5275 9.86225 22.5711C9.98975 22.6147 10.1248 22.6309 10.2588 22.6187H12.7476C12.7476 23.9697 12.7476 25.1165 12.7476 26.067V27.6379H10.8016C10.6675 27.6257 10.5325 27.6419 10.405 27.6856C10.2775 27.7292 10.1603 27.7992 10.061 27.8912C9.9617 27.9832 9.88239 28.0951 9.82812 28.2199C9.77386 28.3446 9.74584 28.4795 9.74584 28.6158C9.74584 28.7521 9.77386 28.887 9.82812 29.0117C9.88239 29.1365 9.9617 29.2484 10.061 29.3404C10.1603 29.4324 10.2775 29.5025 10.405 29.5461C10.5325 29.5897 10.6675 29.6059 10.8016 29.5937H23.6018H23.8034C25.8424 29.0989 25.7959 26.8367 25.7571 25.3757Z" fill="white"/>
<path d="M29.6292 38.8022H15.7164H1.80375C1.56445 38.8022 1.32754 38.7556 1.10682 38.665C0.886103 38.5744 0.685985 38.4417 0.51813 38.2746C0.350274 38.1074 0.218037 37.9093 0.129122 37.6916C0.0402073 37.4739 -0.00360684 37.241 0.000232119 37.0065V1.76728C0.000232119 1.29857 0.190245 0.849055 0.528469 0.517625C0.866694 0.186195 1.32542 0 1.80375 0H72.7013C73.1796 0 73.6384 0.186195 73.9766 0.517625C74.3148 0.849055 74.5048 1.29857 74.5048 1.76728V22.1619C74.5048 22.6306 74.3148 23.0801 73.9766 23.4116C73.6384 23.743 73.1796 23.9292 72.7013 23.9292C72.223 23.9292 71.7643 23.743 71.426 23.4116C71.0878 23.0801 70.8978 22.6306 70.8978 22.1619V3.53457H3.60726V35.2771H29.6292C29.8764 35.2593 30.1248 35.2917 30.3587 35.3722C30.5927 35.4528 30.8071 35.5797 30.9887 35.7451C31.1704 35.9105 31.3152 36.1108 31.4143 36.3336C31.5133 36.5563 31.5645 36.7966 31.5645 37.0396C31.5645 37.2826 31.5133 37.5229 31.4143 37.7457C31.3152 37.9684 31.1704 38.1687 30.9887 38.3341C30.8071 38.4995 30.5927 38.6265 30.3587 38.707C30.1248 38.7875 29.8764 38.8199 29.6292 38.8022Z" fill="#077594"/>
</svg>
