<svg width="56" height="84" viewBox="0 0 56 84" fill="none" xmlns="http://www.w3.org/2000/svg">
<path d="M51.5343 81.8008H2.44643L2.44643 1.66252H53.3865C53.578 1.66252 53.7616 1.73857 53.897 1.87395C54.0323 2.00933 54.1084 2.19295 54.1084 2.3844L54.1084 79.2267C54.1059 79.9086 53.8339 80.5619 53.3517 81.0441C52.8695 81.5263 52.2162 81.7983 51.5343 81.8008Z" fill="#B4D5DE"/>
<path d="M27.1708 83.4817H2.4749C2.25377 83.4842 2.03434 83.4428 1.82932 83.3599C1.6243 83.2771 1.43777 83.1543 1.28051 82.9988C1.12326 82.8434 0.998422 82.6582 0.913225 82.4541C0.828027 82.2501 0.784165 82.0311 0.78418 81.81V1.67172C0.78418 1.22836 0.960307 0.803146 1.27382 0.489637C1.58733 0.176128 2.01253 2.21563e-10 2.4559 2.21562e-10H54.1179C54.337 -3.57676e-06 54.5539 0.0433039 54.7562 0.127432C54.9585 0.21156 55.1421 0.334849 55.2966 0.490208C55.4511 0.645567 55.5733 0.829932 55.6563 1.0327C55.7393 1.23547 55.7813 1.45264 55.7801 1.67172V42.0306C55.7974 42.26 55.7672 42.4906 55.6913 42.7079C55.6154 42.9252 55.4954 43.1244 55.3389 43.2932C55.1824 43.4619 54.9928 43.5966 54.7818 43.6886C54.5709 43.7807 54.3433 43.8282 54.1131 43.8282C53.883 43.8282 53.6553 43.7807 53.4444 43.6886C53.2334 43.5966 53.0438 43.4619 52.8873 43.2932C52.7308 43.1244 52.6109 42.9252 52.535 42.7079C52.459 42.4906 52.4288 42.26 52.4461 42.0306V3.34345H4.12763V80.1383H27.1708C27.6142 80.1383 28.0394 80.3144 28.3529 80.6279C28.6664 80.9414 28.8425 81.3666 28.8425 81.81C28.8425 82.2533 28.6664 82.6786 28.3529 82.9921C28.0394 83.3056 27.6142 83.4817 27.1708 83.4817Z" fill="#077594"/>
<path d="M54.1179 17.2204H2.4559C2.01253 17.2204 1.58733 17.0443 1.27382 16.7308C0.960307 16.4173 0.78418 15.992 0.78418 15.5487C0.78418 15.1053 0.960307 14.6801 1.27382 14.3666C1.58733 14.0531 2.01253 13.877 2.4559 13.877H54.1179C54.5612 13.877 54.9864 14.0531 55.3 14.3666C55.6135 14.6801 55.7896 15.1053 55.7896 15.5487C55.7896 15.992 55.6135 16.4173 55.3 16.7308C54.9864 17.0443 54.5612 17.2204 54.1179 17.2204Z" fill="#077594"/>
<path d="M35.1875 69.9743H2.4559C2.23637 69.9743 2.01899 69.9311 1.81616 69.8471C1.61334 69.763 1.42905 69.6399 1.27382 69.4847C1.11858 69.3294 0.995444 69.1451 0.911432 68.9423C0.82742 68.7395 0.78418 68.5221 0.78418 68.3026C0.78418 68.0831 0.82742 67.8657 0.911432 67.6628C0.995444 67.46 1.11858 67.2757 1.27382 67.1205C1.42905 66.9653 1.61334 66.8421 1.81616 66.7581C2.01899 66.6741 2.23637 66.6309 2.4559 66.6309H35.1875C35.407 66.6309 35.6244 66.6741 35.8272 66.7581C36.0301 66.8421 36.2143 66.9653 36.3696 67.1205C36.5248 67.2757 36.648 67.46 36.732 67.6628C36.816 67.8657 36.8592 68.0831 36.8592 68.3026C36.8592 68.5221 36.816 68.7395 36.732 68.9423C36.648 69.1451 36.5248 69.3294 36.3696 69.4847C36.2143 69.6399 36.0301 69.763 35.8272 69.8471C35.6244 69.9311 35.407 69.9743 35.1875 69.9743Z" fill="#077594"/>
<path d="M13.9679 83.4816C13.5245 83.4816 13.0993 83.3055 12.7858 82.992C12.4723 82.6785 12.2961 82.2533 12.2961 81.8099V2.11807C12.3279 1.69769 12.5173 1.30484 12.8264 1.01819C13.1355 0.731541 13.5415 0.572266 13.9631 0.572266C14.3847 0.572266 14.7907 0.731541 15.0998 1.01819C15.4089 1.30484 15.5983 1.69769 15.6301 2.11807V81.8099C15.6313 82.029 15.5893 82.2461 15.5063 82.4489C15.4233 82.6517 15.3011 82.8361 15.1466 82.9914C14.9921 83.1468 14.8085 83.2701 14.6062 83.3542C14.4039 83.4383 14.187 83.4816 13.9679 83.4816Z" fill="#077594"/>
<path d="M27.4557 83.0531C27.2361 83.0531 27.0187 83.0099 26.8159 82.9259C26.6131 82.8419 26.4288 82.7187 26.2736 82.5635C26.1183 82.4083 25.9952 82.224 25.9112 82.0211C25.8272 81.8183 25.7839 81.6009 25.7839 81.3814V1.69907C25.7839 1.2557 25.9601 0.830489 26.2736 0.51698C26.5871 0.203471 27.0123 0.0273438 27.4557 0.0273438C27.899 0.0273438 28.3242 0.203471 28.6377 0.51698C28.9513 0.830489 29.1274 1.2557 29.1274 1.69907V81.3814C29.1274 81.8248 28.9513 82.25 28.6377 82.5635C28.3242 82.877 27.899 83.0531 27.4557 83.0531Z" fill="#077594"/>
<path d="M41.9687 63.3929C41.5286 63.3929 41.1063 63.2194 40.7933 62.91C40.4803 62.6006 40.302 62.1802 40.297 61.7402V2.34647C40.2797 2.11698 40.3099 1.88638 40.3858 1.66912C40.4617 1.45186 40.5817 1.25261 40.7382 1.08386C40.8947 0.915102 41.0843 0.780477 41.2952 0.688413C41.5062 0.596348 41.7338 0.548828 41.964 0.548828C42.1941 0.548828 42.4218 0.596348 42.6327 0.688413C42.8436 0.780477 43.0333 0.915102 43.1898 1.08386C43.3462 1.25261 43.4662 1.45186 43.5421 1.66912C43.618 1.88638 43.6483 2.11698 43.6309 2.34647V61.7402C43.6284 62.1794 43.4522 62.5997 43.1407 62.9094C42.8293 63.2191 42.4079 63.3929 41.9687 63.3929Z" fill="#077594"/>
</svg>
