<svg xmlns="http://www.w3.org/2000/svg" width="748.34" height="440.58" viewBox="0 0 748.34 440.58"><path d="M256.2,300.36C277.72,248.81,339,179.75,405.11,193.52,454.67,203.83,479.89,255,500.6,297c9.86,20,24.37,49.45,14.69,58.76C502,368.53,440.4,346.31,416.46,303c-6.43-11.62-8.72-22.2-15.36-22.71-13-1-15.29,39-43.4,66.78-31.28,30.87-88.68,40.71-106.84,20C235.59,349.74,250.64,313.69,256.2,300.36Z" fill="#fff" stroke="#077594" stroke-linecap="round" stroke-linejoin="round" stroke-width="4"/><path d="M188.18,414.76c9.2,19.85,68.7,11,89.69,7.92,63.29-9.39,62.22-30,114.23-32.06,29.73-1.18,42.21,7.78,80.5,13.67,84,12.92,149.78-3.2,191.31-20.31C615.55,369.91,529.22,332.69,437,320.67,326.8,306.3,280.57,318.4,246.22,340,213.5,360.6,180,397.09,188.18,414.76Z" fill="#fff" stroke="#077594" stroke-linecap="round" stroke-linejoin="round" stroke-width="4"/><path d="M75.74,94.42C84,85.85,95.25,72,100.69,58.11c1.54-3.92,17.12,10.33,15.43,11.37-14,8.7-17.39,22.16-21.15,39.26-.24,1.08-7.45,8.12-14.76,3.38C72.73,107.28,73.74,96.49,75.74,94.42Z" fill="#fff" stroke="#077594" stroke-linecap="round" stroke-linejoin="round" stroke-width="4"/><path d="M74.74,92.92c-33.95,26.67-45.64,45.59-61.37,110C-6.18,283-7.81,350.93,32.53,397.17c39.26,45,140.37,54.93,189.42,30.16,9.43-4.76,8.28-30.4,52.41-77.64,38.2-40.9,45-50.79,42.21-60.68-6.63-23.13-47.17-34.46-75.38-5.37-35.75,36.84-90.86,50.42-124.94,31.31C6.14,253.22,108.31,134,96,108.24c-3.36-.42-12,1.85-16.83-3S76,92,74.74,92.92Z" fill="#077594"/><path d="M308.58,317.25l85.31-14.9a2.75,2.75,0,0,0,2.28-2.66l2-96.17a2.77,2.77,0,0,0-1.95-2.69L290.08,168.05a2.76,2.76,0,0,0-3.57,2.71l2,76a2.77,2.77,0,0,1-2.32,2.8l-67.1,10.64a2.76,2.76,0,0,0-1,5.11l88.61,51.57A2.79,2.79,0,0,0,308.58,317.25Z" fill="#e05e48"/><polygon points="391.12 296.88 293.47 249.51 291.35 173.97 393.07 204.63 391.12 296.88" fill="#f3cec9"/><path d="M60.39,171.19c-22.9,39.63,22.09,127.64,62.47,139.11,78.43,22.28,134.08-47.15,130.88-53.75-19.57,8.05-52.94,26.37-96-1.45C118.58,229.72,97.22,118.64,97,112.46,78.87,120.2,63.91,165.1,60.39,171.19Z" fill="#077594"/><path d="M139,48.37c6.61,4.41,7.2,14,7.47,18.27.11,1.89.64,10.46-2.86,11.91-2.89,1.2-9.33,1.76-10.59-2.93a45.91,45.91,0,0,1-7.27,4.74c-7.11,4.17-16.09,1.11-17.5.63C100.69,78.41,94,71.91,92.52,64.57c-.85-4.33-1.68-6.25-.63-11.13-4.24-3.31-4.48-8.24-3.28-10.62C89.88,40.27,95,39.2,98,41c3.2,1.92,2,5.83,4.91,8s6.75.19,12.86-1.19C122.55,46.29,132.52,44,139,48.37Z" fill="#fff" stroke="#077594" stroke-linecap="round" stroke-linejoin="round" stroke-width="4"/><path d="M146.67,11.62c8.69.42,16.79,9.32,15.87,14.82-.67,4-2.13,10.18-6.82,9.72-2.92-.29-7.5-3.47-11.1-4.74a11.94,11.94,0,0,0-6.63-.53c.66-.19,5.28.79,8.6,2.1,5.71,2.24,10.59,7.93,16,17.27,3.83,6.58,1,21.48-9.12,18.16-3.87-1.28-.68-10.28-15.21-17.65-9-4.58-9.34-3.83-13.68-2.94-7.33,1.51-12.12,2-12.93,2.29-6.51,2.53-6.89,3.34-11.3,6-1.72,1-4.62-3.73-3.12-4.94,3.31-2.69,3.45-5.14,2.74-7.78-.85-3.19-7.06-5.32-11.38-.56-4.73,5.2,6.72,10.87,2,16.46-3.88,4.56-12.91,6.27-15.81,2-5.11-7.45-5.94-25,3.64-28.32-2.26,1.46-7.65,5.61-11.21,8.45-3.84,3.06-8.73-5.48-6-11.12C64.71,23,72.46,20.41,81.43,18.11c3.31-.85,10.83-.36,12.67,1.5,1.8-15,6.31-13.61,18-18.4,6.44-2.64,14.86-.63,16.13,2.86,1.05,2.88,1.7,7.72-2.45,9.75C121.21,16,114,14,110.25,17.08,118.41,10.69,137.48,11.16,146.67,11.62Z" fill="#077594"/><path d="M658.37,384c26.08,12.26,66.52,30,80.45,41.26,11.68-39.07,12.34-118.53,3.45-163.72-17.71-7.06-49.34,12.55-54.41,34.34-4.82,20.74,16.65,33.79,10.61,59.26C694.21,373.08,672.22,381.3,658.37,384Z" fill="#077594"/><path d="M253.24,259.05a32.88,32.88,0,0,1,28.46-26.41c4.43-.61,13.27,2.22,18.41,8.87,6.38,8.27,6,18.22-1.72,20.45-4.74,1.38-9-7.19-19.49-8.85C267.72,251.34,261.23,254,253.24,259.05Z" fill="#fff" stroke="#077594" stroke-linecap="round" stroke-linejoin="round" stroke-width="4"/></svg>