<svg xmlns="http://www.w3.org/2000/svg" viewBox="0 0 189.06 204.1"><defs><style>.cls-1{fill:#077594;}.cls-2{fill:#fff;}.cls-3{fill:#e05e48;}</style></defs><g id="Layer_2" data-name="Layer 2"><g id="Layer_1-2" data-name="Layer 1"><path class="cls-1" d="M103.35,41.23c2.46-6.15-9.93-13.64-14.79-14.78-3.51-.82-6.77,0-8.6-2.29-1.35-1.7-1.65-4.77-.28-6.3,2.77-3.1,11.93-1.88,18.79,3.07,6.26,4.51,9.34,11.43,10.14,11,1-.57-.45-7.25-6.88-13.08-9-8.18-16.29-3.8-20.15-11.46-.92-1.82-1.51-3.78-.29-5.51,2.8-4,12.86-.4,15,.29C106.74,5.57,109.66,10,112,12.7c6.7,7.73,6.68,12.21,11.17,13.18,5,1.08,6.83-4.13,14.9-6.88,14.58-5,28.94,5.14,30.94,6.59,2.24,1.63,10.3,7.49,8.87,12.32-.69,2.37-3.61,4.24-6.3,4.3-4.34.08-5.57-4.6-10.88-7.16-7.24-3.49-16.5-.37-16.62,1.43s8.15,1.56,18.91,8c9.49,5.69,11.91,11.12,12.6,12.89s3,7.69,0,11.17c-1.31,1.51-3.74,2.67-5.73,2-2.66-.89-2.45-4.37-4.86-8-3.86-5.82-11.74-8-12.61-6.87-1,1.36,7.65,7.61,16.33,22,4.88,8.13,5.85,12.34,4.58,16s-4.84,7-6.87,6.3c-2.18-.71-1-5.39-3.44-12-2.75-7.61-8.2-12.46-8.88-12-.92.57,7.27,10.34,7.45,24.63,0,3.75.14,11.34-4.3,13.46-2.87,1.38-7.37.33-8.88-2.29-2-3.41,2.77-6.66,2.78-14.11a19.33,19.33,0,0,0-4.5-12.24c-4.59-5.32-9.84-3.86-16.32-6.59C118.3,73.79,97.64,55.52,103.35,41.23Z"/><path class="cls-2" d="M81.69,85c-2.43,19.22,9.47,23.82,19.33,27.56s27.49,5,38.25-12.75c5.36-.14,9.28.74,11.93-2.06,4.89-5.17,1.58-18.86-4.12-20.56-3.67-1.1-6.05,3.49-9.87,2.47-4.73-1.27-4-9.1-8.63-18.1-6-11.63-18.85-21.21-27.56-18.92-3.24.85-2.8,2.53-7.4,4.53-8.63,3.74-13.55-.69-19.33,1.64C64.77,52.6,60,71.9,66.47,79.61,70.17,84,74.46,81,81.69,85Z"/><path class="cls-1" d="M113.62,117.37a38.21,38.21,0,0,1-13.48-2.52C90.45,111.18,77.3,106.2,79,86.43A20.36,20.36,0,0,0,72.92,85c-2.83-.34-5.76-.69-8.35-3.76C61,77,60,69.93,61.91,62.27s6.28-13.74,11.44-15.83c3.17-1.27,6-.92,8.82-.58,3.23.4,6.28.78,10.45-1a11.38,11.38,0,0,0,3.57-2.28,9.16,9.16,0,0,1,4.19-2.36c8.53-2.25,22.78,5.33,30.42,20.19a55.51,55.51,0,0,1,3.89,10.46c1.1,3.82,1.79,6,3.17,6.36.87.24,1.7-.21,3.1-1,1.67-1,4-2.29,6.84-1.44,3.32,1,6.12,4.65,7.49,9.78,1.26,4.7,1.33,11.09-2.28,14.9-2.81,3-6.51,2.91-10.43,2.85-.62,0-1.26,0-1.92,0C133.42,113.34,123.3,117.37,113.62,117.37ZM78.24,50.54a7.87,7.87,0,0,0-3,.54c-3.64,1.47-7,6.33-8.46,12.39S65.93,75.1,68.38,78c1.28,1.51,2.5,1.71,5.14,2a23.79,23.79,0,0,1,9.36,2.74l1.51.81-.22,1.7c-2.19,17.35,7.94,21.19,17.74,24.9,3.81,1.45,23.45,7.68,35.22-11.71l.71-1.16,1.37,0c1.24,0,2.42,0,3.46,0,3.56.06,5.47,0,6.71-1.28,1.75-1.85,2.19-6,1.08-10.18-.86-3.23-2.54-5.81-4.09-6.28-.73-.21-1.45.13-2.92,1-1.67,1-4,2.29-6.88,1.51-4.18-1.11-5.34-5.14-6.69-9.8a49.66,49.66,0,0,0-3.53-9.57c-5.62-10.93-17.62-19.5-24.69-17.64a4.28,4.28,0,0,0-2.14,1.26,16.46,16.46,0,0,1-4.91,3.14c-5.43,2.35-9.65,1.83-13,1.41A29.91,29.91,0,0,0,78.24,50.54Z"/><path class="cls-1" d="M0,204.1c5.43-27.91,49.16-80.17,76.33-77.29,6.81,9.24,12.27,15.42,29.65,15.47,15.48.05,21.91-5,31.4-10.14,8.26,33.26,34.52,54,51.68,72Z"/><path class="cls-3" d="M160.29,90.23c-1,8.12-7.38,14.12-14.31,13.4s-11.77-7.91-10.8-16,7.38-14.13,14.32-13.4S161.26,82.1,160.29,90.23Z"/><path class="cls-3" d="M145.05,82.33c5.63-14.49,6.19-23.83-2.23-40.06-6.22-12-14.11-15.23-21.41-16.74,1-1.73,7.45-2.13,13.58.41,15,6.19,21.76,20.79,22.95,23.8,5.39,13.56,4.47,24.09-2.48,34.53A11.51,11.51,0,0,1,145.05,82.33Z"/><path class="cls-2" d="M130.94,111.31c-.47,10.43,1.07,10.59,5,24.22-3.37,9.82-53.22,12.81-59.61-6.85,15.74-6,22.85-9.33,24.69-16.17C108.53,114.83,126.19,114.71,130.94,111.31Z"/><path class="cls-1" d="M110,145.71h-.61c-28-.23-34.18-12.5-35.4-16.25l-.73-2.26,2.22-.85c14.93-5.7,21.63-8.79,23.17-14.49l.67-2.51,2.48.77c7.45,2.3,24,1.8,27.73-.84l4.18-3-.23,5.14c-.32,7.1.3,9,2.16,14.64.73,2.22,1.64,5,2.74,8.77l.22.76-.26.75C136.08,142.81,122.18,145.71,110,145.71ZM79.69,130.07c4.54,7.66,18.44,10.55,29.7,10.64,12.68.09,21.93-2.94,23.87-5.44-.95-3.23-1.75-5.66-2.41-7.65-1.6-4.86-2.44-7.39-2.49-12.53-7,2-18.8,1.83-25.77.39C99.61,121.83,92,125.33,79.69,130.07Z"/></g></g></svg>