<svg xmlns="http://www.w3.org/2000/svg" viewBox="0 0 267.97 195.37"><defs><style>.cls-1{fill:#077594;}.cls-2{fill:#fff;}.cls-3{fill:#e05e48;}</style></defs><g id="Layer_2" data-name="Layer 2"><g id="Layer_1-2" data-name="Layer 1"><path class="cls-1" d="M.6,195.37c-6.88-33.61,47-67.43,78.9-80.26,8.19,7,17.12,9.86,29.16,9.33,15-.65,25.11-4.85,29.35-9,3.42.33,37.18,47.9,50.68,45.81,18.9-2.93,35.09-73,25.18-102.19,17-3.85,75.41,79.8,45.91,136.33Z"/><path class="cls-2" d="M83.51,89.71c5.88,5.19,20.76,5.61,29.71,2,10.13-4,19.34-13.46,20.68-22,12.38-9.05,20.69-7.66,20-15.27-1.41-16.24-12-20.7-31.5-25.64-4.33-1.1-27.74-6.48-43.75,7.52-5.31,4.66-9,15.45-16.28,37C56.81,76.43,56,84.8,60.34,90.6,63.28,94.51,73,100.35,83.51,89.71Z"/><path class="cls-1" d="M71.05,98.26c-.36,0-.7,0-1,0A16.43,16.43,0,0,1,58.34,92.1a16.1,16.1,0,0,1-3-12.82,12.06,12.06,0,0,1,4.94-7.59c7.26-21.42,11-32.23,16.72-37.26,16.24-14.2,39.32-9.77,46-8.07,18.53,4.71,31.77,9.46,33.37,27.85.55,6.36-3.87,8.38-9,10.72a64.72,64.72,0,0,0-11.26,6.22c-2,8.91-11.21,18.61-22,22.92-10.5,4.19-23.78,2.86-30.42-1.13C78.9,97.2,74.36,98.26,71.05,98.26Zm35.72-68.92c-8.39,0-18.43,1.85-26.44,8.86-4.81,4.2-8.63,15.48-15.56,36l-.31.92-.85.46a7,7,0,0,0-3.34,4.79,11,11,0,0,0,2.06,8.78,11.48,11.48,0,0,0,8,4.14c3.85.25,7.67-1.52,11.37-5.28l1.66-1.69,1.77,1.57c4.81,4.23,18.5,5,27.13,1.59,9.58-3.82,18-12.65,19.14-20.11l.16-1,.83-.61a68.94,68.94,0,0,1,12.93-7.31c5.38-2.46,6.32-3.1,6.09-5.74C150.17,40,141,36.08,121.82,31.21A63,63,0,0,0,106.77,29.34Z"/><path class="cls-2" d="M214.08,59c-5.68-7.14-10.23-18.88-25.51-29.74-10.2-7.26-18-7.07-18.68-11.86C169,11.12,181.11.91,190.37,2.71,208,6.15,217.73,45.16,214.08,59Z"/><path class="cls-1" d="M215.23,64.51l-3.1-3.91c-1.59-2-3.08-4.31-4.65-6.76-4.25-6.6-9.52-14.8-20.36-22.51a57.89,57.89,0,0,0-11.26-6.08c-4.39-1.9-7.85-3.4-8.44-7.45-.48-3.32,1.4-7.28,5.17-10.88,4.11-3.91,11.35-8,18.26-6.66,5.73,1.12,10.94,5.34,15.48,12.57,9.07,14.44,12.85,36.65,10.17,46.85ZM188.08,5c-4.28,0-9,2.62-12,5.54-2.46,2.35-3.91,4.92-3.67,6.54.18,1.23,2,2.08,5.48,3.58A63,63,0,0,1,190,27.26c11.62,8.26,17.19,16.92,21.66,23.87l.66,1c.06-10.34-3.66-26.18-10.25-36.67-2.59-4.13-6.81-9.27-12.2-10.32A9.1,9.1,0,0,0,188.08,5Z"/><path class="cls-1" d="M56.54,86.78c4,5.77-2.62-8.18,5.86-13.43C76.78,87.39,80,46.85,92,39c11.72-7.64,20.36-11.69,30.45-10.22,2.84-4.69-1.43-9.25-7.05-13.43C103.62,6.6,82.3,11.93,64.06,34.25,51.28,49.89,50.54,78.13,56.54,86.78Z"/><path class="cls-1" d="M77.52,33.39c2.6-4.84,4.86-9,3.08-12.21-2.39-4.25-10.72-4.27-16.2-2.41-8.76,3-16.86,13.06-14.45,22.52,1,3.92,4.12,9,8.71,9.84C67.17,52.68,74.76,38.54,77.52,33.39Z"/><path class="cls-1" d="M56.12,32.29a10.71,10.71,0,0,0-7.13-11c-6.23-2-13.09,3-14.23,9.13-.65,3.44.41,7.78,3.47,9.9C43.89,44.24,55.12,39.66,56.12,32.29Z"/><path class="cls-1" d="M40.75,27c-1.91-4.33-8-6-12.17-4.23C22.4,25.4,20.83,35.6,24.75,39.16c3.39,3.08,11.09,1.35,14.51-3.35C39.57,35.39,42.58,31.13,40.75,27Z"/><path class="cls-1" d="M30.06,38.16c-2.31-3.74-8.35-5.71-11.49-2.94-2.86,2.53-2.68,8.42.89,11.24s9.33,1.64,11.16-1.73C32.22,41.78,30.17,38.34,30.06,38.16Z"/><path class="cls-3" d="M52.34,53.5C50.12,43.86,61.12,23,77.7,18.93c1.74-.42,2.39-1,2.84,0-2.11,2.21-5,3.33-9.36,7.57-11.7,11.4-12.32,18.55-16.39,27.59A2.13,2.13,0,0,1,52.34,53.5Z"/><path class="cls-2" d="M120,88.15c-.7,15.5-2,14.83,17.27,29.82-5,14.6-52.16,6.41-58.43-.51C88.12,109.2,86,108.09,86,90.82,96.08,95.86,113.22,91.75,120,88.15Z"/><path class="cls-1" d="M115.74,128.58c-15.6,0-34.35-4.6-38.74-9.45l-1.69-1.86,1.88-1.68c6.71-6,6.68-7,6.42-16.72-.07-2.28-.14-4.87-.14-8.05v-4l3.62,1.81c9.17,4.58,25.3.78,31.75-2.63l3.87-2-.2,4.37c0,.94-.09,1.82-.13,2.65-.31,6.11-.45,8.9,1.3,11.65,1.93,3.06,6.28,6.52,15.14,13.42l1.4,1.1-.57,1.69c-1.52,4.41-5.84,7.38-12.86,8.83A56.25,56.25,0,0,1,115.74,128.58Zm-33-11.35c7.35,3.88,29.18,8.32,43,5.48,3-.61,6.54-1.79,8.31-4.06-16.34-12.77-17.35-14.33-16.78-26.6C110,94.8,97.8,97.16,88.5,94.46c0,1.56.07,3,.1,4.28C88.86,108.23,88.7,111.43,82.77,117.23Z"/></g></g></svg>