<svg xmlns="http://www.w3.org/2000/svg" width="48" height="48" viewBox="0 0 48 48"><rect x="6.75" y="15.86" width="34.5" height="18.75" rx="0.8" fill="#77b3c4"/><path d="M41.25,15.11H31V12.25A3.12,3.12,0,0,0,27.9,9.13H20.1A3.12,3.12,0,0,0,17,12.25v2.86H6.75a.75.75,0,0,0-.75.75V34.61a.76.76,0,0,0,.75.75H30.27a.75.75,0,0,0,.75-.75v-18H40.5v8.62a.75.75,0,1,0,1.5,0V15.86A.75.75,0,0,0,41.25,15.11ZM18.48,12.25a1.62,1.62,0,0,1,1.62-1.62h7.8a1.63,1.63,0,0,1,1.62,1.62v2.86h-11Zm-11,4.36H17V33.86H7.5Zm22,17.25h-11V16.61h11Z" fill="#fff"/></svg>