<svg xmlns="http://www.w3.org/2000/svg" viewBox="0 0 301.75 383.81"><defs><style>.cls-1{fill:#fff;}.cls-2{fill:#077594;}</style></defs><g id="Layer_2" data-name="Layer 2"><g id="Layer_1-2" data-name="Layer 1"><path class="cls-1" d="M155.35,51.93c.77,10.17,1.32,6.09.49,23.85-.76,16.06-1.47,19.55-3,28.24,4.21,7.08,19.62.8,24.87-3.15-1.8-8.47-2.3-.14-3.83-24-1.4-21.73-1.07-18.12,0-29.62C169.9,45,158.61,48.64,155.35,51.93Z"/><path class="cls-2" d="M159.78,109.22A14.06,14.06,0,0,1,157,109a8.48,8.48,0,0,1-5.91-3.93l-.39-.64.3-1.62c1.46-8,2.13-11.72,2.85-27.09.61-12.92.47-14.15.06-17.81-.15-1.37-.34-3.08-.55-5.8l-.06-.91.64-.65c3.78-3.82,16-7.85,20.93-5l1.09.65-.12,1.26c-.17,1.87-.33,3.34-.46,4.59-.66,6.29-.7,6.67.47,24.73,1,15.88,1.57,17.13,2.26,18.71a21,21,0,0,1,1.52,4.95l.27,1.24-1,.77C175.49,105,166.8,109.22,159.78,109.22Zm-4.87-5.67a4.82,4.82,0,0,0,2.85,1.5c4.91,1,13.21-2.16,17.66-5a14.46,14.46,0,0,0-1-2.88c-.95-2.16-1.53-3.47-2.6-20.07-1.18-18.39-1.14-18.79-.44-25.4.09-.87.19-1.85.3-3-3.52-.6-11.17,1.75-14.28,4.13.17,2.09.33,3.51.46,4.67.43,3.89.58,5.2,0,18.44-.74,15.64-1.42,19.39-2.92,27.62Z"/><path class="cls-1" d="M152.36,70.3c4.35,3.84,15.36,4.16,22,1.51,7.5-3,14.32-10,15.31-16.32,9.17-6.7,15.32-5.67,14.83-11.31-1-12-8.91-15.32-23.32-19-3.2-.82-20.53-4.79-32.39,5.57-3.93,3.45-6.64,11.44-12.05,27.42C132.59,60.47,132,66.67,135.2,71,137.38,73.86,144.6,78.18,152.36,70.3Z"/><path class="cls-2" d="M143.13,76.63l-.76,0a12.24,12.24,0,0,1-8.65-4.54,11.91,11.91,0,0,1-2.19-9.49A8.94,8.94,0,0,1,135.19,57c5.37-15.85,8.12-23.86,12.38-27.58,12-10.52,29.11-7.23,34.06-6,13.72,3.49,23.52,7,24.7,20.62.41,4.71-2.86,6.2-6.66,7.94a48.38,48.38,0,0,0-8.33,4.6c-1.45,6.6-8.3,13.78-16.3,17-7.78,3.1-17.6,2.12-22.52-.84A14.06,14.06,0,0,1,143.13,76.63Zm26.44-51c-6.2,0-13.64,1.37-19.57,6.56-3.56,3.11-6.39,11.46-11.52,26.61l-.23.68-.63.35a5.15,5.15,0,0,0-2.47,3.54,8.19,8.19,0,0,0,1.53,6.5,8.48,8.48,0,0,0,5.94,3.06c2.85.19,5.68-1.12,8.42-3.91l1.23-1.24,1.31,1.16c3.56,3.13,13.69,3.73,20.09,1.17,7.08-2.82,13.3-9.36,14.16-14.88l.12-.76.62-.45a50.19,50.19,0,0,1,9.57-5.41c4-1.82,4.67-2.3,4.51-4.25-1-10.86-7.74-13.74-21.93-17.35A46.77,46.77,0,0,0,169.57,25.61Z"/><path class="cls-2" d="M132.39,68.14c3,4.26-1.94-6.06,4.34-10,10.65,10.39,13-19.62,21.9-25.42,8.67-5.66,15.07-8.65,22.54-7.57,2.1-3.47-1.06-6.84-5.22-9.94-8.71-6.49-24.49-2.54-38,14C128.49,40.82,128,61.73,132.39,68.14Z"/><path class="cls-2" d="M144.14,32.59c2-3.57,3.66-6.66,2.36-9-1.73-3.17-7.91-3.24-12-1.9C128,23.82,122,31.23,123.67,38.25c.72,2.91,3,6.69,6.39,7.34C136.35,46.8,142.06,36.38,144.14,32.59Z"/><path class="cls-2" d="M128.31,31.62a8,8,0,0,0-5.21-8.2c-4.59-1.54-9.71,2.17-10.6,6.67-.5,2.54.26,5.76,2.51,7.35C119.17,40.39,127.52,37.08,128.31,31.62Z"/><path class="cls-2" d="M117,27.61c-1.38-3.22-5.9-4.49-9-3.22-4.6,1.9-5.83,9.45-3,12.11,2.49,2.3,8.2,1.07,10.77-2.39C116,33.81,118.29,30.67,117,27.61Z"/><path class="cls-2" d="M109,35.8c-1.69-2.79-6.15-4.29-8.49-2.26-2.14,1.85-2,6.21.58,8.33s6.9,1.27,8.28-1.21C110.55,38.48,109.06,35.93,109,35.8Z"/><path class="cls-2" d="M106.07,42.86c-1.21-2-4.4-3.07-6.07-1.61s-1.46,4.44.42,6,4.93.91,5.91-.87A3.81,3.81,0,0,0,106.07,42.86Z"/><path class="cls-2" d="M153.88,92.73c2.39,6.51,5.19,10.67,11.73,11.07s8.36-3.09,12.06-9c5.56,13.66,5.34,24.11,17.26,37.63,12.15,13.79,40.2,16.69,56.69,5.21,22.84-15.89,17.63-55.31,15.64-70.37C265,50.21,260,41.65,262,40.6c8.91,3.47,40.3,46,39.7,78.62C301,161,285.28,193.5,222.3,193.72c14.77,25.85,23.06,32.25,35.18,80.15,3.82,15.08,12.84,50.72-1.3,74.93-36.06,61.74-211.51,30-217-4.86-2-12.84,5.14-23.28,18.9-32.28,27.27-17.83,42.39-7.46,58-20.85,21.12-18.08,25.66-56.08,22.11-58-5.32,12.16-9.11,17.21-21.06,27.8-29.22,25.88-72.85,21.55-76,13.9,17.37-10.21,23.4-17.66,50-47.13C140.52,172.55,142.16,103.15,153.88,92.73Z"/><path class="cls-2" d="M166.7,19.36a7.94,7.94,0,0,1-1.65-9.58c2.36-4.23,8.64-4.92,12.33-2.18,2.07,1.55,3.67,4.44,3.08,7.13C179.36,19.71,171,22.87,166.7,19.36Z"/><path class="cls-2" d="M172.4,8.76c-1.13-3.32,1.36-7.29,4.49-8.41,4.68-1.68,10.66,3.08,10.32,7-.29,3.38-5.35,6.3-9.58,5.47C177.26,12.73,173.48,11.92,172.4,8.76Z"/><path class="cls-2" d="M183.82,9.46c-.62-3.2,1.68-7.3,4.77-7.37,2.83-.07,5.69,3.23,5.17,6.56s-4.26,5.58-6.95,4.66C184.46,12.51,183.85,9.61,183.82,9.46Z"/><path class="cls-2" d="M190.72,12.74c-.45-2.29,1.2-5.23,3.41-5.28,2,0,4.07,2.32,3.69,4.7s-3,4-5,3.33A3.83,3.83,0,0,1,190.72,12.74Z"/><path class="cls-1" d="M263.35,42.75c-3.37-3.58-5.53-7.86-16.29-11.4C240.45,29.18,237,31,233.7,27.77c-3.62-3.62-4.32-11-1.3-14,4.34-4.4,16.73-.29,23.78,6.84C264.29,28.8,265.75,41.47,263.35,42.75Z"/><path class="cls-2" d="M262.94,45.24l-1.05-1.12c-.57-.61-1.11-1.23-1.66-1.87-2.61-3-5.32-6.21-13.8-9a26.48,26.48,0,0,0-6.48-1.2c-2.71-.25-5.28-.48-7.66-2.87-4.39-4.38-5.06-13-1.32-16.83a9.3,9.3,0,0,1,6.78-2.41c6.21,0,14.56,3.89,19.85,9.25,7.09,7.18,9.37,17.32,8.67,21.91a4.3,4.3,0,0,1-2,3.42Zm-25.19-31.3a5.69,5.69,0,0,0-3.93,1.22c-2.06,2.09-1.79,8.11,1.3,11.19,1.3,1.31,2.53,1.47,5.19,1.71a30.86,30.86,0,0,1,7.37,1.39c8.55,2.81,12,6.12,14.69,9.15A27.81,27.81,0,0,0,254.76,22C250.22,17.41,242.91,13.94,237.75,13.94Z"/><path class="cls-1" d="M46.91,272.81c-5,2.19-9.2,5.65-21.67,4.46-7.66-.72-10.33-4.2-15.1-2.3-5.31,2.11-9.42,9.39-7.8,13.91,2.33,6.5,16.7,7.84,27.09,3.63C41.39,287.67,48.73,275.22,46.91,272.81Z"/><path class="cls-2" d="M16.58,296.91A26.26,26.26,0,0,1,6.07,295a9.81,9.81,0,0,1-5.61-5.44c-2-5.48,2.63-13.93,8.94-16.44,3.44-1.37,6.1-.47,8.92.49a28.62,28.62,0,0,0,7.11,1.68c9.87.94,14.08-1.12,18.16-3.12.84-.41,1.67-.82,2.52-1.19l1.44-.63,1,1.26a4.63,4.63,0,0,1,.4,4.14c-1.39,5-8.29,14.4-18.72,18.62A37.15,37.15,0,0,1,16.58,296.91Zm-3.66-20.5a5.36,5.36,0,0,0-2,.42c-4.3,1.71-7.91,7.87-6.66,11.38a6.26,6.26,0,0,0,3.48,3.13c5.22,2.34,14.24,2,21-.69a31.92,31.92,0,0,0,15.78-14.46c-4.16,2-9.16,4.05-19.41,3.07a32.55,32.55,0,0,1-8-1.87A13.19,13.19,0,0,0,12.92,276.41Z"/></g></g></svg>