<svg id="Layer_1" data-name="Layer 1" xmlns="http://www.w3.org/2000/svg" xmlns:xlink="http://www.w3.org/1999/xlink" viewBox="0 0 329.79 329.79"><defs><style>.cls-1{fill:none;}.cls-2{fill:#f6f6f6;}.cls-3{clip-path:url(#clip-path);}.cls-4{opacity:0.23;}.cls-5{fill:#ffd275;}.cls-6{fill:#077594;}.cls-7{fill:#fff;}.cls-8{fill:#e05e48;}</style><clipPath id="clip-path"><circle class="cls-1" cx="164.9" cy="164.9" r="164.9"/></clipPath></defs><circle class="cls-2" cx="164.9" cy="164.9" r="164.9"/><g class="cls-3"><g class="cls-4"><rect class="cls-5" x="-8.28" y="106.93" width="357.46" height="18.12"/><rect class="cls-5" x="-2.86" y="29.84" width="357.46" height="18.12"/><rect class="cls-5" x="-12.94" y="179.05" width="357.46" height="18.12"/><rect class="cls-5" x="-7.92" y="251.17" width="357.46" height="19.63"/><rect class="cls-5" x="-2.86" y="322.25" width="357.46" height="18.59"/><rect class="cls-5" x="-2.86" y="297.46" width="357.46" height="7.37"/><rect class="cls-5" x="-2.86" y="225.44" width="357.46" height="7.37"/><rect class="cls-5" x="-2.86" y="153.74" width="357.46" height="7.37"/><rect class="cls-5" x="-2.86" y="79.03" width="357.46" height="7.37"/><rect class="cls-5" x="-8.28" y="4.21" width="357.46" height="7.37"/></g><path class="cls-6" d="M128,91.19a54,54,0,0,1-17.72,10.43c-10.16,4-29-2-31.73-9.49-2.57-7-1.64-15.56,5.87-22.73-13.29-2.63-13-11.61-12.15-17.25,1-6.19,9.38-21,24.7-14.5-9.75-12.45,4.91-24.07,11.36-26.26,8.34-2.82,25.17-.7,31,17.25,1.91-4.59,7.26-7.88,16.07-11.76,15-6.6,38.87,2.7,41.55,14.5,2.08,9.18.24,27.19-11.76,31.36,7.59,6.79,5.58,15.33,2.35,18.81-2.54,2.74-8.1,1.53-13.32.39-10.95-2.38-12.2-6.08-18.92-7.63C139.1,70.57,131.06,88.53,128,91.19Z"/><path class="cls-7" d="M118.4,64a8.52,8.52,0,0,1,9.44-7.48,7.34,7.34,0,0,1,1.35.28c4.87-3.78.48,10.79,7.08,11.55,11.77,1.36,31.3-5.62,32.2,5.76,2.32,3.49,4.52,6.78,4.06,10.76C172,89.59,170.71,99.8,166,99.26a11,11,0,0,1-6.69-4.05,24.4,24.4,0,0,1-39.44-21.9,24.84,24.84,0,0,1,.48-2.76A8.52,8.52,0,0,1,118.4,64Z"/><path class="cls-6" d="M141.08,102.66A26.72,26.72,0,0,1,117.6,73c.08-.63.18-1.28.3-1.94a10.92,10.92,0,0,1-1.81-7.33h0a10.84,10.84,0,0,1,12-9.52l.66.1a3.39,3.39,0,0,1,3-.21c2.07.89,2.3,3.26,2.58,6,.31,3.14.69,5.76,2.2,5.93,3.46.4,7.85,0,12.1-.36,7.75-.69,15.07-1.34,19.21,2.16a8.32,8.32,0,0,1,2.87,5.46c2.34,3.53,4.65,7.21,4.11,11.84A51.91,51.91,0,0,1,173,94.74c-1.93,6.11-5,7.08-7.27,6.82a12.47,12.47,0,0,1-6.69-3.28,26.44,26.44,0,0,1-14.88,4.56A27.33,27.33,0,0,1,141.08,102.66Zm20-8.94A8.67,8.67,0,0,0,166.3,97c.72.07,1.61-1.37,2.32-3.61a51.21,51.21,0,0,0,1.6-8.69c.36-3.12-1.49-5.9-3.63-9.13l-.38-.59-.05-.59a3.88,3.88,0,0,0-1.3-2.91c-2.67-2.25-9.35-1.66-15.81-1.09-4.48.4-9.11.81-13.05.36-5.34-.62-5.93-6.55-6.28-10.09,0-.37-.09-.82-.14-1.25l-1-.29a6.17,6.17,0,0,0-7.85,5.24h0A6.11,6.11,0,0,0,122.16,69l.76.89-.26,1.14a21,21,0,0,0-.44,2.51A22.08,22.08,0,0,0,157.9,93.39L159.67,92Z"/><path class="cls-6" d="M136.55,115.77c-8.12,2.94-11,4.29-15.89,2.1-6.89-3.06-6.8-6.29-10.28-12.38-13.3-2.11-44.27,44.65-43.64,99.86.27,23.57,6.6,76.14,12.65,100.57,5.74,23.14-45.21-22.67-46.46-10.1C30.79,317.2,80,341.4,117,351.56c12.93,3.55,78.07,20.13,134.6-12.76,2.54-1.47,30.38-17.91,27.39-27.86-2-6.79-16.76-5-53.37-14.17-15.54-3.89-23-8.58-30.18-18.57-6-2.94-25-3.28-38.77-16.38-14.31-13.58-25.26-24.74-21.73-27.4.58-.43,10.29,16.84,30.23,28.34,3.92,2.26,18.24,10.32,36.84,10.87,36.76,1.08,64.43-26,65.65-34.48-15.8,1.54-21.34,4.35-52.9-2.84-12.57-2.86-30.21-9-29.75-14.17,10.11-.93,48.1,1.24,50.26-17.16-12.71,2.2-29.86,3.49-56.4-11.65-9.36-5.33-23.52-13.4-29.29-28.81C141.62,143.25,138.57,126.41,136.55,115.77Z"/><path class="cls-7" d="M262.62,242.17c4.08,1.55,18.16-10.2,20.43-25.09.69-4.54,1.8-11.89-2.43-15.09-4.58-3.47-13.64-.74-17,4.58-2,3.21-1,5.86,0,15.36C265.4,238.61,263.89,239.44,262.62,242.17Z"/><path class="cls-6" d="M261.79,244.34l-2.33-.88,1.05-2.27c.14-.29.27-.56.41-.82.95-1.87,1.93-3.8.41-18.19-.22-2.06-.43-3.8-.62-5.28-.7-5.57-1-8.36,1-11.57a16.69,16.69,0,0,1,10.94-7c3.68-.67,7,0,9.41,1.76,5.34,4,4.08,12.33,3.32,17.29-1.7,11.17-10,21.5-16.9,25.54a10.2,10.2,0,0,1-5,1.66A4.49,4.49,0,0,1,261.79,244.34ZM273.45,203a12.05,12.05,0,0,0-7.84,4.85c-1.09,1.74-1,3.2-.29,8.52.19,1.51.41,3.27.63,5.37,1,9.61,1,14.2.43,17.11.38-.24.79-.51,1.24-.84,5.54-4,11.75-12.14,13.13-21.23.6-3.94,1.6-10.52-1.53-12.89a6.27,6.27,0,0,0-3.8-1.08A11.4,11.4,0,0,0,273.45,203Z"/><path class="cls-7" d="M229.58,208.8c6.84,3,16.65,7.87,27.08.53,2.26-1.6,15.34-11.3,14.1-16.22s-12-7.4-18.07-3.52c-4.31,2.77-3.66,4.92-10,12.84C238.22,208,229.1,207.55,229.58,208.8Z"/><path class="cls-6" d="M229.64,211.36l-1.89-.82-.34-.91a2.56,2.56,0,0,1,.13-2.13c.67-1.25,1.92-1.53,4-2,2.77-.62,7-1.57,9.33-4.52a64.53,64.53,0,0,0,5.1-7.29c1.49-2.43,2.57-4.19,5.48-6.05,4.71-3,11.17-2.66,15.49-.95,3.3,1.31,5.46,3.39,6.08,5.85.76,3-1.27,6.72-6.39,11.61a84.67,84.67,0,0,1-8.63,7.08,22.07,22.07,0,0,1-13,4.26C239.06,215.49,233.73,213.16,229.64,211.36ZM254,191.54c-2,1.3-2.65,2.33-4,4.59a68.32,68.32,0,0,1-5.43,7.75,16.59,16.59,0,0,1-8.23,5.19c5.69,2.1,12.21,3.19,19.07-1.64,7.4-5.21,13.69-11.77,13.18-13.76-.23-.93-1.49-1.95-3.28-2.66a14.89,14.89,0,0,0-5.37-1A11,11,0,0,0,254,191.54Z"/><path class="cls-8" d="M297.32,187l-22.95-14.6a3.84,3.84,0,0,0-4.8.56l-36.68,37.75a3.82,3.82,0,0,0-.38,4.88l15.64,21.93A3.83,3.83,0,0,0,254,238l44-45.08A3.81,3.81,0,0,0,297.32,187Z"/></g><path class="cls-7" d="M134.8,99.44c-4.56,4.72-.22,16.71,0,20.63-7.43,3.32-27.4.57-26.81-10,.32-3,9.11-7.37,11.84-18.87C124.62,95,126,98,134.8,99.44Z"/><path class="cls-6" d="M110.78,119.43c-3.56-2.45-5.33-5.73-5.12-9.48v-.12c.2-1.83,1.59-3.28,3.52-5.3,2.85-3,6.76-7,8.37-13.86l.85-3.55,2.86,2.27c1.07.85,2,1.67,2.82,2.4,2.92,2.6,4.85,4.32,11.09,5.36l4.36.73-3.07,3.18c-2.58,2.66-1,10-.13,14.36a34.05,34.05,0,0,1,.77,4.52l.08,1.6-1.45.65a22.66,22.66,0,0,1-8.89,1.53C121.3,123.72,115,122.36,110.78,119.43Zm21-3.06c-1-4.71-2.25-10.79-.63-15.32C126,99.7,123.65,97.62,121,95.27c-2.23,6-5.9,9.8-8.46,12.48a19.18,19.18,0,0,0-2.26,2.57c-.07,2.06.95,3.79,3.13,5.28,4.79,3.3,13.72,4.2,18.81,2.9C132.1,117.85,132,117.12,131.79,116.37Z"/></svg>