<svg id="Layer_1" data-name="Layer 1" xmlns="http://www.w3.org/2000/svg" xmlns:xlink="http://www.w3.org/1999/xlink" viewBox="0 0 329.79 329.79"><defs><style>.cls-1{fill:none;}.cls-2{clip-path:url(#clip-path);}.cls-3{fill:#f6f6f6;}.cls-4{clip-path:url(#clip-path-2);}.cls-5{opacity:0.34;}.cls-6{fill:#ffd275;}.cls-7{fill:#e05e48;}.cls-8{fill:#f3cec9;}.cls-9{fill:#077594;}.cls-10,.cls-11{fill:#fff;}.cls-11{stroke:#077594;stroke-miterlimit:10;stroke-width:5px;}</style><clipPath id="clip-path"><circle class="cls-1" cx="592.82" cy="164.9" r="164.9"/></clipPath><clipPath id="clip-path-2"><circle class="cls-1" cx="165.63" cy="166.91" r="164.9"/></clipPath></defs><circle class="cls-3" cx="165.63" cy="166.91" r="164.9"/><g class="cls-4"><g class="cls-5"><path class="cls-6" d="M47.64,44.77c33.45-16.33,59-19.36,75.78-9,16,9.87,20,28.65,23.81,46.81,3.86,18.36,7.51,35.7,22.77,43.82,12.51,6.65,25.4,2.95,37.87-.63,12.86-3.69,26.15-7.5,38,.92,11.64,8.24,13.15,21.67,14.62,34.67C262,174.05,263.32,186,273.62,193c10.57,7.12,22.73,3.67,35.61,0,13.25-3.76,26.95-7.65,39.27.49,11.42,7.54,13.76,20.1,16,32.24,2.18,11.66,4.23,22.68,14.28,28.06,8.58,4.59,16.92,2,26.59-1.07,9.5-3,20.27-6.38,32.71-2.65,16.67,5,30.11,20.9,39.95,47.23l.36,1-3,1.09c-9.49-26-22.37-41.5-38.24-46.27-11.51-3.45-21.34-.36-30.85,2.63-9.92,3.12-19.28,6.07-29,.85-11.38-6.1-13.68-18.39-15.89-30.28-2.15-11.49-4.36-23.37-14.66-30.17-11.11-7.34-23.52-3.82-36.66-.09s-26.45,7.51-38.24-.44c-11.52-7.76-13-21-14.46-33.89s-2.83-25-13.3-32.43c-10.66-7.54-22.65-4.1-35.34-.46-13.08,3.75-26.6,7.63-40.24.38-16.57-8.82-20.55-27.7-24.39-46-3.68-17.5-7.49-35.6-22.36-44.76C105.91,28.72,81.44,31.8,49,47.62Z"/><path class="cls-6" d="M37.77,67.36c33.45-16.34,59-19.37,75.78-9,16,9.87,20,28.65,23.8,46.81,3.87,18.36,7.52,35.7,22.78,43.82,12.5,6.65,25.4,3,37.87-.63,12.86-3.69,26.15-7.5,38.05.93,11.64,8.23,13.15,21.67,14.62,34.66,1.43,12.69,2.78,24.68,13.08,31.62,10.57,7.12,22.73,3.67,35.6,0,13.25-3.76,26.95-7.65,39.28.49,11.42,7.55,13.76,20.1,16,32.24,2.18,11.67,4.23,22.68,14.28,28.07,8.58,4.59,16.92,2,26.58-1.08s20.28-6.38,32.72-2.64c16.67,5,30.11,20.89,39.95,47.22l.36,1-3,1.09-.36-1c-9.47-25.36-22.21-40.59-37.88-45.29-11.51-3.46-21.34-.37-30.85,2.63-9.92,3.12-19.28,6.07-29,.84-11.39-6.1-13.68-18.39-15.9-30.28-2.14-11.49-4.35-23.37-14.65-30.17-11.11-7.34-23.52-3.81-36.66-.08s-26.45,7.5-38.24-.44c-11.52-7.76-13-21.05-14.47-33.89s-2.82-25-13.29-32.43c-10.66-7.55-22.65-4.11-35.34-.47-13.08,3.75-26.6,7.63-40.24.38-16.57-8.81-20.55-27.7-24.39-46-3.68-17.5-7.49-35.6-22.36-44.75C96,51.3,71.57,54.38,39.16,70.21Z"/><path class="cls-6" d="M64.56,27.05c33.46-16.34,59-19.37,75.79-9,16,9.87,20,28.64,23.8,46.8,3.86,18.36,7.51,35.7,22.78,43.82,12.5,6.65,25.4,3,37.87-.63,12.85-3.69,26.14-7.5,38.05.93,11.63,8.23,13.15,21.67,14.61,34.66,1.43,12.69,2.79,24.68,13.09,31.62,10.57,7.12,22.73,3.67,35.6,0,13.25-3.76,27-7.65,39.27.49,11.42,7.55,13.76,20.1,16,32.24,2.17,11.67,4.23,22.69,14.28,28.06,8.57,4.6,16.92,2,26.58-1.07,9.5-3,20.27-6.38,32.72-2.64,16.87,5.07,30.41,21.32,40.31,48.21l-3,1.09c-.12-.33-.24-.65-.37-1-9.47-25.35-22.21-40.58-37.88-45.28-11.51-3.46-21.34-.37-30.85,2.63-9.91,3.12-19.28,6.07-29,.84-11.39-6.1-13.68-18.39-15.9-30.28-2.14-11.49-4.36-23.37-14.66-30.17-11.1-7.34-23.51-3.81-36.65-.08s-26.46,7.5-38.25-.44c-11.51-7.76-13-21-14.46-33.89s-2.82-25-13.29-32.43c-10.67-7.55-22.65-4.11-35.35-.47-13.08,3.75-26.6,7.63-40.24.38-16.57-8.81-20.54-27.7-24.39-46-3.68-17.5-7.49-35.6-22.36-44.75C122.84,11,98.37,14.07,66,29.9Z"/><path class="cls-6" d="M7.79,105.44c33.45-16.34,59-19.37,75.78-9,16,9.87,20,28.65,23.8,46.81,3.86,18.36,7.51,35.7,22.78,43.82,12.5,6.65,25.4,2.95,37.87-.63,12.85-3.69,26.14-7.5,38,.93C217.7,195.59,219.22,209,220.68,222c1.44,12.69,2.79,24.67,13.09,31.61,10.57,7.13,22.73,3.68,35.6,0,13.25-3.76,26.95-7.65,39.27.49,11.43,7.54,13.77,20.1,16,32.24,2.18,11.67,4.23,22.68,14.28,28.06,8.57,4.6,16.92,2,26.58-1.07,9.5-3,20.27-6.38,32.72-2.64,16.66,5,30.1,20.89,39.94,47.22.12.33.25.65.37,1l-3,1.09c-9.5-26-22.38-41.5-38.25-46.27-11.5-3.45-21.34-.36-30.85,2.63-9.91,3.13-19.28,6.07-29,.85-11.39-6.1-13.68-18.39-15.9-30.28-2.14-11.49-4.36-23.37-14.65-30.17-11.11-7.34-23.52-3.82-36.66-.09s-26.45,7.51-38.25-.43c-11.51-7.76-13-21-14.46-33.9s-2.82-25-13.29-32.42c-10.66-7.55-22.65-4.11-35.35-.47-13.07,3.75-26.6,7.63-40.23.38-16.58-8.82-20.55-27.7-24.39-46-3.69-17.5-7.5-35.6-22.37-44.75-15.84-9.76-40.31-6.68-72.72,9.15Z"/><path class="cls-6" d="M-2.09,128c33.46-16.34,59-19.36,75.79-9,16,9.87,20,28.64,23.8,46.8,3.86,18.36,7.51,35.7,22.77,43.82,12.51,6.65,25.41,3,37.88-.63,12.85-3.68,26.14-7.5,38,.93,11.63,8.23,13.15,21.67,14.61,34.66,1.43,12.69,2.78,24.68,13.09,31.62,10.56,7.12,22.73,3.67,35.6,0,13.25-3.76,26.95-7.65,39.27.49,11.42,7.54,13.76,20.09,16,32.23C317,320.63,319,331.65,329.08,337c8.57,4.59,16.92,2,26.58-1.08,9.5-3,20.27-6.38,32.72-2.64,16.66,5,30.1,20.89,39.94,47.22l.37,1-3,1.1-.36-1c-9.48-25.35-22.22-40.59-37.89-45.29C376,332.89,366.12,336,356.61,339c-9.91,3.12-19.28,6.07-29,.85-11.39-6.1-13.68-18.4-15.9-30.28-2.14-11.49-4.36-23.38-14.66-30.18-11.1-7.33-23.51-3.81-36.65-.08s-26.46,7.51-38.25-.44c-11.51-7.76-13-21-14.46-33.89s-2.82-25-13.3-32.43c-10.66-7.55-22.64-4.11-35.34-.47-13.08,3.76-26.6,7.64-40.24.38-16.57-8.81-20.54-27.7-24.39-46C90.71,149,86.9,130.87,72,121.72,56.19,112,31.72,115-.69,130.87Z"/><path class="cls-6" d="M24.71,87.71c33.45-16.34,59-19.36,75.78-9,16,9.87,20,28.65,23.8,46.8,3.87,18.36,7.52,35.7,22.78,43.82,12.5,6.65,25.4,2.95,37.87-.62,12.86-3.69,26.15-7.51,38.05.92,11.64,8.23,13.15,21.67,14.62,34.66C239,217,240.39,229,250.69,235.91c10.57,7.12,22.73,3.67,35.61,0,13.24-3.77,26.94-7.65,39.27.49,11.42,7.54,13.76,20.09,16,32.23,2.18,11.67,4.23,22.69,14.28,28.07,8.58,4.59,16.92,2,26.59-1.08,9.5-3,20.27-6.38,32.71-2.64,16.67,5,30.11,20.89,39.95,47.22l.36,1-3,1.1C443,316.37,430.13,300.8,414.26,296c-11.51-3.46-21.34-.36-30.85,2.63-9.92,3.12-19.28,6.07-29,.84-11.39-6.09-13.68-18.38-15.9-30.27-2.14-11.5-4.36-23.38-14.65-30.18-11.11-7.33-23.52-3.81-36.66-.08s-26.45,7.51-38.24-.44c-11.52-7.76-13-21-14.47-33.89s-2.82-25-13.29-32.43c-10.66-7.55-22.65-4.11-35.34-.47-13.08,3.76-26.6,7.64-40.24.38-16.57-8.81-20.55-27.7-24.39-46-3.68-17.51-7.49-35.6-22.36-44.76C83,71.66,58.51,74.73,26.1,90.56Z"/><path class="cls-6" d="M128.25-78.94c33.45-16.33,58.95-19.36,75.78-9,16,9.87,20,28.64,23.8,46.8,3.87,18.37,7.52,35.71,22.78,43.82,12.5,6.66,25.4,3,37.87-.62,12.86-3.69,26.15-7.5,38,.92,11.64,8.23,13.15,21.67,14.62,34.66,1.43,12.69,2.78,24.68,13.08,31.62,10.57,7.12,22.73,3.67,35.61,0,13.24-3.76,26.94-7.65,39.27.49,11.42,7.54,13.76,20.09,16,32.24,2.18,11.66,4.23,22.68,14.28,28.06,8.58,4.59,16.92,2,26.58-1.08,9.51-3,20.28-6.38,32.72-2.64,16.67,5,30.1,20.89,39.94,47.22.13.33.25.66.37,1l-3,1.09-.36-1c-9.47-25.34-22.21-40.57-37.88-45.28C506.29,125.93,496.46,129,487,132c-9.92,3.12-19.28,6.07-29,.85-11.39-6.1-13.68-18.39-15.9-30.28-2.14-11.49-4.35-23.37-14.65-30.17-11.11-7.34-23.52-3.82-36.66-.09s-26.45,7.51-38.24-.44c-11.52-7.76-13-21-14.47-33.89S335.17,13,324.7,5.57C314-2,302.05,1.47,289.36,5.11c-13.08,3.75-26.6,7.63-40.24.38-16.57-8.82-20.55-27.71-24.39-46-3.68-17.5-7.49-35.6-22.36-44.76-15.85-9.75-40.32-6.67-72.73,9.15Z"/><path class="cls-6" d="M118.38-56.35c33.45-16.34,59-19.37,75.78-9,16,9.87,20,28.65,23.8,46.81,3.87,18.36,7.51,35.7,22.78,43.82,12.5,6.65,25.4,2.95,37.87-.63,12.85-3.69,26.15-7.5,38.05.93,11.64,8.23,13.15,21.67,14.62,34.66,1.43,12.69,2.78,24.68,13.08,31.62,10.57,7.12,22.73,3.67,35.6,0,13.25-3.76,27-7.65,39.28.49,11.42,7.54,13.76,20.1,16,32.24,2.18,11.67,4.23,22.69,14.28,28.06,8.58,4.6,16.92,2,26.58-1.07,9.51-3,20.28-6.38,32.72-2.64,16.88,5.06,30.47,21.3,40.31,48.21l-3,1.09-.36-1c-9.48-25.35-22.22-40.58-37.88-45.29-11.51-3.45-21.35-.36-30.85,2.64-9.92,3.12-19.28,6.06-29,.84-11.39-6.1-13.68-18.39-15.9-30.28C430,113.68,427.78,101.8,417.49,95c-11.11-7.34-23.52-3.82-36.66-.09s-26.45,7.51-38.24-.43c-11.52-7.76-13-21-14.47-33.9s-2.82-25-13.29-32.42c-10.66-7.55-22.65-4.11-35.34-.47-13.08,3.75-26.61,7.63-40.24.38-16.57-8.82-20.55-27.7-24.39-46-3.68-17.5-7.49-35.6-22.36-44.75-15.85-9.76-40.32-6.68-72.73,9.15Z"/><path class="cls-6" d="M145.17-96.66c33.46-16.34,59-19.37,75.78-9,16,9.87,20,28.65,23.81,46.81,3.86,18.36,7.51,35.7,22.77,43.82,12.51,6.65,25.4,2.95,37.88-.63,12.85-3.69,26.14-7.5,38,.93,11.63,8.23,13.15,21.66,14.61,34.66,1.43,12.69,2.79,24.68,13.08,31.62,10.57,7.12,22.73,3.67,35.61,0C420,47.79,433.71,43.9,446,52c11.42,7.55,13.76,20.1,16,32.24,2.17,11.67,4.23,22.68,14.27,28.06,8.58,4.6,16.93,2,26.59-1.07,9.5-3,20.27-6.38,32.71-2.64,16.67,5,30.11,20.89,40,47.22.12.33.24.66.37,1l-3,1.09c-9.49-25.92-22.38-41.5-38.25-46.27-11.51-3.45-21.34-.36-30.85,2.64-9.91,3.12-19.28,6.06-29,.84-11.39-6.1-13.68-18.39-15.9-30.28-2.15-11.49-4.36-23.37-14.66-30.17-11.11-7.34-23.52-3.82-36.65-.09s-26.46,7.51-38.25-.43c-11.51-7.76-13-21.05-14.46-33.9s-2.82-25-13.3-32.42C331-19.7,319-16.26,306.28-12.62,293.2-8.87,279.68-5,266-12.24c-16.57-8.82-20.54-27.7-24.39-46-3.68-17.5-7.49-35.6-22.36-44.75-15.84-9.76-40.31-6.68-72.72,9.15Z"/><path class="cls-6" d="M88.39-18.28c33.46-16.33,59-19.36,75.79-9,16,9.87,20,28.65,23.8,46.81,3.86,18.36,7.51,35.7,22.77,43.82,12.51,6.65,25.41,2.95,37.88-.63,12.85-3.69,26.14-7.5,38.05.92,11.63,8.24,13.15,21.67,14.61,34.67,1.43,12.69,2.79,24.67,13.09,31.61,10.56,7.13,22.73,3.67,35.6,0,13.25-3.76,26.95-7.65,39.27.49,11.42,7.54,13.77,20.1,16,32.24,2.17,11.66,4.23,22.68,14.28,28.06,8.57,4.59,16.92,2,26.58-1.07,9.5-3,20.27-6.38,32.72-2.65,16.66,5,30.1,20.9,39.94,47.23.12.33.25.65.37,1l-3,1.09c-9.5-25.94-22.38-41.5-38.25-46.27-11.51-3.45-21.34-.36-30.85,2.63-9.91,3.12-19.28,6.07-29,.85-11.39-6.1-13.68-18.39-15.9-30.28-2.14-11.49-4.36-23.37-14.66-30.17-11.1-7.34-23.51-3.82-36.65-.09s-26.46,7.51-38.25-.44c-11.51-7.75-13-21-14.46-33.89s-2.82-25-13.3-32.43c-10.66-7.54-22.64-4.1-35.34-.46-13.08,3.75-26.6,7.63-40.24.38-16.57-8.82-20.54-27.7-24.39-46-3.68-17.5-7.49-35.6-22.36-44.76-15.84-9.75-40.31-6.67-72.72,9.15Z"/><path class="cls-6" d="M78.52,4.31c33.46-16.34,59-19.37,75.78-9,16,9.87,20,28.64,23.81,46.8,3.86,18.36,7.51,35.7,22.77,43.82,12.51,6.65,25.4,2.95,37.88-.63,12.85-3.68,26.14-7.5,38.05.93,11.63,8.23,13.15,21.67,14.61,34.66,1.43,12.69,2.78,24.68,13.08,31.62,10.57,7.12,22.73,3.67,35.61,0,13.25-3.76,26.95-7.65,39.27.49,11.42,7.55,13.76,20.1,16,32.24,2.17,11.67,4.23,22.69,14.27,28.07,8.58,4.59,16.93,2,26.59-1.08,9.5-3,20.27-6.38,32.71-2.64,16.67,5,30.11,20.89,39.95,47.22.12.33.24.66.37,1l-3,1.09-.36-1c-9.48-25.36-22.22-40.59-37.89-45.29-11.51-3.46-21.34-.37-30.85,2.63-9.91,3.12-19.28,6.07-29,.84-11.39-6.1-13.69-18.39-15.9-30.28-2.14-11.49-4.36-23.37-14.66-30.17-11.11-7.34-23.52-3.81-36.65-.08s-26.46,7.5-38.25-.44c-11.51-7.76-13-21-14.46-33.89s-2.82-25-13.3-32.43c-10.66-7.55-22.65-4.11-35.34-.47-13.08,3.76-26.6,7.64-40.24.38-16.57-8.81-20.54-27.7-24.39-46-3.68-17.5-7.49-35.6-22.36-44.75-15.84-9.76-40.31-6.68-72.73,9.15Z"/><path class="cls-6" d="M105.32-36c33.45-16.34,59-19.37,75.78-9,16,9.87,20,28.64,23.8,46.8,3.87,18.36,7.51,35.7,22.78,43.82,12.5,6.65,25.4,3,37.87-.63,12.86-3.68,26.15-7.5,38.05.93,11.64,8.23,13.15,21.67,14.62,34.66,1.43,12.69,2.78,24.68,13.08,31.62,10.57,7.12,22.73,3.67,35.6,0,13.25-3.77,27-7.65,39.28.48,11.42,7.55,13.76,20.1,16,32.24,2.18,11.67,4.23,22.69,14.28,28.07,8.58,4.59,16.92,2,26.58-1.08,9.51-3,20.28-6.38,32.72-2.64,16.88,5.07,30.43,21.32,40.31,48.21l-3,1.09c-9.49-25.93-22.37-41.5-38.24-46.26C483.36,168.87,473.52,172,464,175c-9.92,3.12-19.28,6.07-29,.84-11.39-6.09-13.68-18.39-15.9-30.27-2.14-11.5-4.35-23.38-14.65-30.18-11.11-7.33-23.52-3.81-36.66-.08s-26.45,7.5-38.24-.44c-11.52-7.76-13-21-14.47-33.89s-2.82-25-13.29-32.43C291.11,41,279.12,44.4,266.43,48c-13.08,3.76-26.6,7.64-40.24.38-16.57-8.81-20.55-27.7-24.39-46-3.68-17.5-7.49-35.6-22.36-44.75-15.85-9.76-40.32-6.68-72.73,9.15Z"/><path class="cls-6" d="M-90.35,275.38c33.45-16.33,59-19.36,75.78-9,16,9.87,20,28.65,23.8,46.81C13.1,331.55,16.75,348.89,32,357c12.5,6.65,25.4,2.95,37.87-.63,12.86-3.69,26.15-7.5,38.05.92,11.64,8.24,13.15,21.67,14.62,34.67,1.43,12.69,2.78,24.67,13.08,31.61,10.57,7.13,22.73,3.67,35.61,0,13.24-3.76,26.94-7.65,39.27.49,11.42,7.54,13.76,20.1,16,32.24,2.18,11.66,4.23,22.68,14.28,28.06,8.58,4.59,16.92,2,26.58-1.07s20.28-6.38,32.72-2.65c16.88,5.07,30.44,21.33,40.31,48.22l-3,1.09c-9.52-25.92-22.37-41.5-38.24-46.27-11.51-3.45-21.34-.36-30.85,2.63-9.92,3.12-19.28,6.07-29,.85-11.39-6.1-13.68-18.39-15.9-30.28-2.14-11.49-4.35-23.37-14.65-30.17-11.11-7.34-23.52-3.82-36.66-.09s-26.45,7.51-38.24-.44c-11.52-7.76-13-21-14.47-33.89s-2.82-25-13.29-32.43c-10.66-7.54-22.65-4.1-35.34-.46-13.08,3.75-26.6,7.63-40.24.38C14,351,10,332.11,6.13,313.84c-3.68-17.5-7.49-35.6-22.36-44.76-15.85-9.75-40.32-6.67-72.73,9.15Z"/><path class="cls-6" d="M-26.67,169.4c33.46-16.34,59-19.37,75.79-9,16,9.87,20,28.65,23.8,46.8,3.86,18.36,7.51,35.7,22.77,43.82,12.51,6.65,25.41,2.95,37.88-.63,12.85-3.68,26.14-7.5,38.05.93,11.63,8.23,13.15,21.67,14.61,34.66,1.43,12.69,2.78,24.68,13.09,31.62,10.56,7.12,22.73,3.67,35.6,0,13.25-3.76,27-7.65,39.27.49,11.42,7.55,13.76,20.1,16,32.24,2.17,11.67,4.23,22.69,14.27,28.07,8.58,4.59,16.93,2,26.59-1.08,9.5-3,20.27-6.38,32.71-2.64,16.88,5.07,30.44,21.32,40.32,48.21l-3,1.09c-9.47-25.92-22.38-41.5-38.25-46.26-11.51-3.46-21.34-.36-30.85,2.63-9.91,3.12-19.28,6.07-29,.84-11.39-6.09-13.69-18.39-15.9-30.28-2.14-11.49-4.36-23.37-14.66-30.17-11.1-7.33-23.51-3.81-36.65-.08s-26.46,7.5-38.25-.44c-11.51-7.76-13-21.05-14.46-33.89s-2.82-25-13.3-32.43c-10.66-7.55-22.65-4.11-35.34-.47-13.08,3.76-26.6,7.64-40.24.38-16.57-8.81-20.54-27.7-24.39-46-3.68-17.5-7.49-35.6-22.36-44.75-15.84-9.76-40.31-6.68-72.72,9.15Z"/><path class="cls-6" d="M-36.54,192c33.46-16.33,59-19.36,75.78-9,16,9.87,20,28.64,23.81,46.81,3.86,18.36,7.51,35.7,22.77,43.82,12.51,6.65,25.4,2.95,37.88-.63,12.85-3.69,26.14-7.5,38.05.92,11.63,8.24,13.15,21.67,14.61,34.67,1.43,12.68,2.78,24.67,13.08,31.61,10.57,7.12,22.73,3.67,35.61,0,13.25-3.76,26.95-7.65,39.27.49,11.42,7.54,13.76,20.1,16,32.24,2.17,11.66,4.23,22.68,14.27,28.06,8.58,4.59,16.93,2,26.59-1.07,9.5-3,20.27-6.38,32.71-2.65,16.88,5.07,30.44,21.33,40.32,48.22l-3,1.09c-.12-.33-.25-.66-.37-1C381.42,420.25,368.68,405,353,400.31c-11.51-3.45-21.34-.36-30.85,2.63-9.91,3.12-19.28,6.07-29,.85-11.39-6.1-13.69-18.39-15.9-30.28-2.15-11.49-4.36-23.37-14.66-30.17-11.11-7.34-23.52-3.82-36.66-.09s-26.45,7.51-38.24-.44c-11.51-7.76-13-21-14.46-33.89s-2.83-25-13.3-32.43c-10.66-7.54-22.65-4.1-35.34-.46-13.08,3.75-26.6,7.63-40.24.38-16.57-8.82-20.54-27.71-24.39-46-3.68-17.5-7.49-35.6-22.36-44.76-15.84-9.75-40.31-6.67-72.73,9.15Z"/><path class="cls-6" d="M-9.74,151.67c33.45-16.33,59-19.36,75.78-9,16,9.87,20,28.65,23.8,46.8,3.86,18.36,7.51,35.71,22.78,43.82,12.5,6.66,25.4,3,37.87-.62,12.86-3.69,26.15-7.5,38,.92,11.63,8.24,13.15,21.67,14.62,34.67,1.43,12.69,2.78,24.67,13.08,31.61,10.57,7.12,22.73,3.67,35.6,0,13.25-3.76,27-7.65,39.28.49,11.42,7.54,13.76,20.1,16,32.24,2.18,11.66,4.23,22.68,14.28,28.06,8.58,4.59,16.92,2,26.58-1.07,9.51-3,20.28-6.38,32.72-2.65,16.67,5,30.1,20.9,39.94,47.23.13.33.25.65.37,1l-3,1.09-.36-1c-9.48-25.35-22.22-40.58-37.88-45.29-11.51-3.46-21.35-.36-30.85,2.63-9.92,3.12-19.29,6.07-29,.85-11.39-6.1-13.68-18.39-15.9-30.28-2.14-11.49-4.36-23.37-14.65-30.17-11.11-7.34-23.52-3.82-36.66-.09s-26.45,7.51-38.24-.44c-11.52-7.76-13-21-14.47-33.89s-2.82-25-13.29-32.43c-10.66-7.54-22.65-4.1-35.34-.46-13.08,3.75-26.61,7.63-40.24.38-16.58-8.82-20.55-27.71-24.39-46-3.69-17.5-7.49-35.6-22.36-44.76-15.85-9.75-40.32-6.67-72.73,9.15Z"/><path class="cls-6" d="M-66.52,230.06c33.45-16.33,59-19.36,75.78-9,16,9.87,20,28.64,23.8,46.8,3.87,18.36,7.52,35.7,22.78,43.82,12.5,6.65,25.4,2.95,37.87-.62,12.86-3.69,26.15-7.51,38.05.92,11.64,8.23,13.15,21.67,14.62,34.66,1.43,12.69,2.78,24.68,13.08,31.62,10.57,7.12,22.73,3.67,35.6,0,13.25-3.76,26.95-7.65,39.28.49,11.42,7.54,13.76,20.09,16,32.24,2.18,11.66,4.23,22.68,14.28,28.06,8.58,4.59,16.92,2,26.58-1.08,9.51-3,20.28-6.38,32.72-2.64,16.67,5,30.1,20.89,39.94,47.22.13.33.25.66.37,1l-3,1.1-.36-1c-9.47-25.35-22.21-40.59-37.88-45.29-11.51-3.46-21.34-.36-30.85,2.63-9.92,3.12-19.28,6.07-29,.85-11.39-6.1-13.68-18.4-15.9-30.28-2.14-11.49-4.36-23.38-14.65-30.18-11.11-7.33-23.52-3.81-36.66-.08s-26.45,7.51-38.24-.44c-11.52-7.76-13-21-14.47-33.89s-2.82-25-13.29-32.43c-10.66-7.55-22.65-4.11-35.34-.46-13.08,3.75-26.6,7.63-40.24.37-16.57-8.81-20.55-27.7-24.39-46-3.68-17.5-7.49-35.6-22.36-44.76-15.85-9.75-40.32-6.67-72.73,9.15Z"/><path class="cls-6" d="M-76.39,252.65c33.45-16.34,59-19.37,75.78-9,16,9.87,20,28.65,23.8,46.81,3.86,18.36,7.51,35.7,22.78,43.82,12.5,6.65,25.4,3,37.87-.63,12.85-3.69,26.15-7.5,38.05.93,11.63,8.23,13.15,21.66,14.61,34.66,1.44,12.69,2.79,24.68,13.09,31.61,10.57,7.13,22.73,3.68,35.6,0,13.25-3.76,26.95-7.65,39.28.49,11.42,7.54,13.76,20.1,16,32.24,2.18,11.67,4.23,22.68,14.28,28.06,8.58,4.6,16.92,2,26.58-1.07,9.51-3,20.28-6.38,32.72-2.64,16.67,5,30.1,20.89,39.94,47.22.13.33.25.65.37,1l-3,1.09c-9.49-25.92-22.38-41.5-38.24-46.27-11.51-3.45-21.35-.36-30.85,2.63-9.92,3.13-19.29,6.07-29,.85-11.39-6.1-13.68-18.39-15.9-30.28C235.23,422.68,233,410.8,222.72,404c-11.11-7.34-23.52-3.82-36.66-.09s-26.45,7.51-38.24-.43c-11.52-7.76-13-21.05-14.47-33.9s-2.82-25-13.29-32.42c-10.66-7.55-22.65-4.11-35.34-.47-13.08,3.75-26.61,7.63-40.24.38-16.57-8.82-20.55-27.7-24.39-46-3.69-17.5-7.49-35.6-22.36-44.75-15.85-9.76-40.32-6.68-72.73,9.15Z"/><path class="cls-6" d="M-49.6,212.34c33.46-16.34,59-19.37,75.78-9,16,9.87,20,28.65,23.81,46.81,3.86,18.36,7.51,35.7,22.77,43.82,12.51,6.65,25.4,3,37.88-.63,12.85-3.69,26.14-7.5,38.05.92,11.63,8.24,13.15,21.67,14.61,34.67,1.43,12.69,2.78,24.67,13.08,31.62,10.57,7.12,22.73,3.67,35.61,0,13.25-3.76,26.95-7.65,39.27.49,11.42,7.54,13.76,20.1,16,32.24,2.17,11.67,4.23,22.68,14.27,28.06,8.58,4.6,16.93,2,26.59-1.07,9.5-3,20.27-6.38,32.71-2.65,16.67,5,30.11,20.9,39.95,47.23.12.33.24.66.37,1l-3,1.09c-9.48-25.94-22.38-41.5-38.25-46.27-11.51-3.45-21.34-.36-30.85,2.63-9.91,3.13-19.28,6.07-29,.85-11.39-6.1-13.68-18.39-15.9-30.28-2.14-11.49-4.36-23.37-14.66-30.17-11.11-7.34-23.52-3.82-36.66-.09s-26.45,7.51-38.24-.43c-11.51-7.76-13-21.05-14.46-33.9s-2.82-25-13.3-32.42c-10.66-7.55-22.65-4.11-35.34-.47-13.08,3.75-26.6,7.63-40.24.38-16.57-8.82-20.54-27.7-24.39-46-3.68-17.5-7.49-35.6-22.36-44.76-15.84-9.75-40.31-6.67-72.72,9.16Z"/></g><path class="cls-7" d="M243.19,242l66.42-11.6a2.16,2.16,0,0,0,1.78-2.07L313,153.44a2.14,2.14,0,0,0-1.51-2.09l-82.66-25.52a2.15,2.15,0,0,0-2.78,2.1l1.52,59.2a2.14,2.14,0,0,1-1.81,2.18l-52.23,8.29a2.14,2.14,0,0,0-.75,4l69,40.16A2.22,2.22,0,0,0,243.19,242Z"/><polygon class="cls-8" points="307.46 226.13 231.42 189.24 229.78 130.43 308.97 154.3 307.46 226.13"/><path class="cls-9" d="M26.5,191.21c-5,29.39,35.79,67.92,90.22,58.28,45.06-8,73.54-55.89,68.55-62.17-11.78,10.28-38.44,29.14-70.74,18.07-30-10.29-20.44-41.84-48.44-48.18C45.24,152.49,29.52,173.53,26.5,191.21Z"/><path class="cls-10" d="M101.58,93.3c-3.76,8.86-6.61,19-17.83,32.05,1.84,13.31,21.82,26.3,24.74,14.47,3.65-14.78,4.23-26.75,21.73-47.24"/><path class="cls-9" d="M101.46,147.43c-8.2-1.07-19.28-11.05-20.75-21.66l-.19-1.37.9-1.05c9-10.5,12.47-19.11,15.49-26.7.62-1.56,1.22-3.07,1.84-4.55l5.65,2.4c-.61,1.43-1.19,2.9-1.79,4.41C99.52,106.69,96,115.46,87,126.22c1.89,7.88,10.71,14.92,15.63,15.17,1.39.07,2.36-.29,2.86-2.31s1-4,1.39-6c2.79-12.5,5.43-24.29,21-42.49l4.67,4c-14.56,17-16.92,27.61-19.66,39.84-.45,2-.91,4.05-1.42,6.14-1.14,4.6-4.55,7.2-9.14,7C102.05,147.49,101.76,147.47,101.46,147.43Z"/><path class="cls-9" d="M145.38,81.56c3.62-7.83,1.76-18.08.92-26.95-.64-6.78-3.6-12.39-6.09-12.63s-1.38,8-5.55,11.93c-4.42-9.09-5.94-12.4-17-19.85-9-6.07-20.67-8.61-23-3-3.33,8,14.12,16.44,15,21.75C87.26,42,75.54,47.71,74.16,50.78,69.8,60.46,82.94,61.06,86.46,63c-6.77,2-10.13,6-10,8.48C77,80.2,90.92,74.85,98,77.75c9.85,3,12.88,2.8,14.37,2.61,7-.92,8.24-4.63,13.79-4.56C134.32,75.9,145.17,86.07,145.38,81.56Z"/><path class="cls-10" d="M96.06,93.53C88.68,94.68,82.21,84.59,83.33,81s5.38-17.19,24.51-9c3.87-5.71,5-6.26,8.88-5.62,3.1.52,5.16,2.52,7.09,5.14,4.47-3.12,5.55-2.63,9.22-2.09,1.25.18,4.63,2.56,7.94,8,4.19,5,8.82,18.87,2.27,27.67-2,2.67-7.51,6.54-13.88,2.91-5.91,7.8-15.88,6.83-20.27,5.37-4.8-1.59-6.46-3.12-8.07-5C97.13,103.7,96.06,93.53,96.06,93.53Z"/><path class="cls-9" d="M101.25,112.81a17.58,17.58,0,0,1-2.57-2.53c-3.16-3.73-4.65-10-5.28-13.7a15.1,15.1,0,0,1-9.13-5.43C81.6,88,79.36,83.42,80.4,80.08c.71-2.27,2.86-9.19,9.54-12.27,4.57-2.12,10.2-2,16.78.39,3.29-4.47,5.58-5.73,10.5-4.9a12.44,12.44,0,0,1,7.25,4.11c3.29-1.82,5.24-1.65,8.19-1.2l.81.13c2.84.41,6.84,4.11,10,9.24,4.87,6,9.7,21.26,2.22,31.29-2.62,3.53-8.68,7.32-15.52,4.83-6.89,7-16.89,6.24-22,4.53A21.81,21.81,0,0,1,101.25,112.81ZM98.77,90l.34,3.21c.27,2.57,1.57,9.94,4.25,13.11,1.28,1.52,2.52,2.71,6.69,4.09,3.76,1.25,12.12,2,16.87-4.31l1.63-2.15,2.33,1.34c5.8,3.3,9.86-2,9.9-2.08,5.46-7.33,1.44-19.61-2.15-23.86l-.28-.39c-2.78-4.56-5.27-6.3-5.92-6.58l-.7-.11c-2.66-.4-3.06-.47-6.17,1.7l-2.45,1.72-1.78-2.42c-1.84-2.52-3.28-3.62-5.12-3.93-2.42-.4-2.61-.43-5.84,4.32L109,75.75l-2.32-1c-5.92-2.52-10.67-3-14.12-1.39-4.21,1.95-5.65,6.56-6.26,8.54-.11.74,1,3.62,3.38,6,1.15,1.13,3.43,3,6,2.58Zm33.6-17.65Zm.21.05h0Z"/><path class="cls-9" d="M112.89,137.41c-5.17-5.27-11.36,6.83-19.37,1.32-7.09-4.89-8.44-12.34-12.65-14.5C65,130.72,25.59,176.61,25.59,176.61c-58.2,81.27-87.31,121.91-81.43,145.73,16.56,67.15,151.5,99,179.15,66,22.23-26.57-.86-79.35-1.61-106.5-7.94,2.19-64.57-4.13-66.2-34.36,1-3.85,65.69,26.51,65.76,21.55C121.87,226,133.76,158.68,112.89,137.41Z"/><path class="cls-7" d="M93.56,137.86c7.77,1.73,11.37-.23,14.82-2,7.17,6.54,6.27,21.81,2.32,23.27C103.4,150,99.88,144.66,93.56,137.86Z"/><path class="cls-7" d="M106.79,144.46c12.32,18.33,14.36,32.11,16.92,55.86.72,6.7,4,49-16.11,73.47-8.85-3.42-15.47-13-18-15.87C97.92,223.34,108,169.37,106.79,144.46Z"/><path class="cls-11" d="M185.44,188c2.61-9.75,7.09-13,18.9-16,9.55-2.4,24.55-.88,27.77,8.14,2.74,7.68-3.79,18.77-9.72,19.22-5.1.38-6-7.37-14.78-11.06C196.85,183.83,195,185.76,185.44,188Z"/><path class="cls-9" d="M38.18,189.06C25.4,215.94,52.05,270.37,104,275.49c43,4.23,114.28-37.15,113.73-56.3-25.92,0-83.62,26.09-109.72,6.94-24.28-17.81-8.44-48.56-32-62C58.46,154.07,45.87,172.88,38.18,189.06Z"/><path class="cls-11" d="M212.54,222.28c2.62-9.75,7.1-13,18.9-16,9.56-2.41,24.55-.88,27.78,8.14,2.74,7.68-3.79,18.77-9.72,19.22-5.1.38-6-7.37-14.79-11.06C224,218.08,222.1,220,212.54,222.28Z"/></g></svg>