<svg id="Layer_1" data-name="Layer 1" xmlns="http://www.w3.org/2000/svg" xmlns:xlink="http://www.w3.org/1999/xlink" viewBox="0 0 476.58 476.58"><defs><style>.cls-1{fill:none;}.cls-2{fill:#f6f6f6;}.cls-3{clip-path:url(#clip-path);}.cls-4{fill:#077594;}.cls-5{fill:#fff;}.cls-6{fill:#e05e48;}.cls-7{fill:#eaa69d;}.cls-8{fill:#f3cec9;}</style><clipPath id="clip-path"><circle class="cls-1" cx="238.29" cy="238.29" r="238.29"/></clipPath></defs><circle class="cls-2" cx="238.29" cy="238.29" r="238.29"/><g class="cls-3"><path class="cls-4" d="M221.41,128.5c5.11-9,26.44-1.21,32.59,3.62,4.44,3.48,6.63,8.28,11.23,8.27,3.41,0,7.47-2.66,8-5.83,1.07-6.43-9.41-16.44-22.19-20-11.66-3.23-23.14-.22-23.36-1.65-.26-1.77,9.32-6.58,22.76-4.42,18.85,3,20.62,16.22,33.78,13.43,3.12-.66,6.1-1.87,7-5.05,2.11-7.31-12.12-16.13-15-18-14.5-9.46-22.73-8.74-28.42-9-16-.61-21.49,3.8-27.08-.75-6.25-5.08-1.64-12.39-6.19-25-8.23-22.72-34.67-30.37-38.4-31.39-4.19-1.15-19.26-5.28-23.78,1.21-2.22,3.18-1.65,8.58.92,11.92,4.15,5.4,11.09,2.31,19.44,6.3,11.36,5.43,16.62,19.84,14.53,21.74s-9.89-8.44-28.35-15.28c-16.27-6-25.28-3.67-28.13-2.78-2.7.84-12.38,3.86-13.67,11-.56,3.09.41,7.21,3.16,9,3.7,2.39,7.76-1.29,14.59-1.9,10.91-1,21.33,6.49,20.77,8.68-.66,2.59-16.81-1.9-43,1.64-14.72,2-20.84,4.94-24.12,10.13s-3.77,12.75-1,14.59c3,2,7.61-4,18.09-7.59,12-4.1,23.28-2.19,23.43-.93.2,1.68-19.79,1.24-37.45,15-4.63,3.62-14,10.94-12.26,18.46,1.13,4.87,6.82,9.33,11.51,8.62,6.11-.94,5.43-9.93,14.54-17.23a30.26,30.26,0,0,1,19.39-6.51c11,.41,14.38,8.26,24.08,13.52C166.91,142.14,209.52,149.51,221.41,128.5Z"/><path class="cls-5" d="M138.44,161.35c-11,8-21.72,27.7-37.4,57.1-8.09,15.17,12.61,62.8,23.72,61.12,10.19-1.54,1-23.24,18.9-61.15,14.13-29.93,32.71-35.1,27.75-45C166.28,163.17,149.26,161.49,138.44,161.35Z"/><path class="cls-4" d="M124.17,283.32c-4.06,0-8.37-3.2-12.85-9.54-10-14.12-20.48-44.09-13.55-57.08,16.37-30.68,27-49.92,38.48-58.34l1-.73h1.24c19.49.27,31.68,5,36.23,14.11,3.66,7.3-1.27,12.63-7.49,19.38-5.69,6.15-13.48,14.58-20.22,28.87-9.36,19.84-11.11,35.18-12.27,45.33-1.06,9.37-1.91,16.77-9.42,17.9A7.33,7.33,0,0,1,124.17,283.32Zm15.49-118.25c-10.45,8.45-22,30.13-35.35,55.12-4.83,9.05,3.26,35.46,13.06,49.32,3.93,5.57,6.38,6.45,6.84,6.4,1.73-.26,2.27-3.51,3.18-11.42,1.21-10.64,3-26.71,12.92-47.65,7.23-15.31,15.46-24.23,21.47-30.74s7.55-8.58,6.32-11C165.06,169,155,165.46,139.66,165.07Z"/><path class="cls-5" d="M189.14,197.88c-21.14,21.83-38.43,11.77-52.68,3.37-14.44-8.53-33-28.78-21.9-59.31-5.09-6.7-10-10.63-9.18-16.61,1.54-11.07,21.54-20.43,29.2-15.13,4.95,3.42,1.67,10.82,6.66,14.49,6.19,4.56,15.06-4,30.61-7.17,20.1-4.09,44.44,2.27,50.18,15.17,2.13,4.8-.36,5.9,1.72,13.5,3.89,14.23,14.12,15.89,16.94,25.26,4.63,15.42-14.26,40.24-30.09,39.81C201.64,211,201,202.88,189.14,197.88Z"/><path class="cls-4" d="M110.16,142.67l-1.91-2.33c-3.92-4.72-7.63-9.18-6.75-15.55,1.13-8.15,9-14.33,16-17.41,7.62-3.35,14.84-3.5,19.31-.41,3.87,2.68,4.5,6.78,5,9.78.38,2.5.66,4,1.79,4.79,1.81,1.33,5.15,0,10.89-2.36a86.75,86.75,0,0,1,16.62-5.5c25.68-5.22,48.93,4.79,54.54,17.42a14.34,14.34,0,0,1,1.22,7.44,17.91,17.91,0,0,0,.7,6.61c1.88,6.9,5.33,10.26,9,13.81,3.15,3.07,6.41,6.24,7.94,11.37,2.52,8.36-.6,19.67-8.14,29.52s-17.16,15.56-25.8,15.33c-6.3-.17-9.6-3.4-12.8-6.53A31.63,31.63,0,0,0,190,202.6c-22.5,21.49-41.5,10.28-55.48,2a60.05,60.05,0,0,1-16.31-14C108.66,178.75,103.68,162.41,110.16,142.67ZM231,164.58c-3.84-3.75-8.62-8.41-11.06-17.36a25.26,25.26,0,0,1-1-9.08,6.77,6.77,0,0,0-.56-3.86c-4.65-10.47-26.91-16.76-45.8-12.92a78.93,78.93,0,0,0-15.17,5.06c-7,2.93-13.09,5.45-18.55,1.43-3.81-2.8-4.44-6.91-4.9-9.91-.41-2.62-.69-3.84-1.67-4.52-2.08-1.44-6.89-1-11.69,1.14-6.16,2.71-10.85,7.36-11.39,11.3-.39,2.82,1.44,5.18,5,9.47,1,1.26,2.22,2.68,3.4,4.24l1.3,1.7-.74,2c-12.18,33.42,14.7,51.34,20.22,54.59,14.15,8.35,28.78,17,47.86-2.71l1.87-1.93,2.47,1a37.2,37.2,0,0,1,12.53,8.78c3,2.92,4.43,4.21,7.52,4.29,5.95.16,13.55-4.65,19.37-12.25,5.94-7.77,8.63-16.6,6.85-22.51a12.23,12.23,0,0,0-2.29-4.21A43,43,0,0,0,231,164.58Z"/><path class="cls-4" d="M101.24,217.88c-8.76-1.95-77.08,129.63-75.86,262.25.67,71.67,13.69,169.77,94.28,221.06C212.12,760,336.33,728,403.58,627.5c40.12-60,68.77-119.14,45.51-208.06-14.18-54.18-85.16-122-114.61-120.32,15.26,22,15,23.61,6.54,62.86-9.3,43.21-46.89,73.68-86,75.59-49.32,2.4-86.54-57.06-89.85-86.4-3.93-34.77-15.91-79.1-32.08-101.55-8.39.41-12.24,1.28-22.12-9C101.44,230.72,103.28,224.11,101.24,217.88Z"/><path class="cls-5" d="M334.48,299.12c-4.48-9.64-17.29-26.46-38.9-38.12-12.49-6.74-24.21-13.06-35.4-8.17-9.07,4-17.34,15.09-14.78,24.9,2.4,9.2,13.25,13.06,16.34,14,11.6,3.54,17.42-2.61,31.9-3.89C316.55,285.82,319.05,295.62,334.48,299.12Z"/><path class="cls-4" d="M341,304.4l-7.36-1.67a52.53,52.53,0,0,1-14.39-5.87c-6.4-3.49-11.93-6.51-25.31-5.33a65.4,65.4,0,0,0-13.25,2.75c-6.15,1.78-12,3.46-20,1-3.69-1.12-16-5.64-18.84-16.61-3.06-11.73,6.26-24.58,16.88-29.22,12.84-5.61,26,1.46,38.64,8.3,21.65,11.69,35.35,28.75,40.5,39.82Zm-41.57-20.53c11.46,0,17.5,3.29,23.37,6.49,1,.55,2,1.09,3,1.62a96.24,96.24,0,0,0-32-27.72c-12.14-6.55-22.61-12.2-32.15-8C254,259.57,247,269.07,249,276.79c1.89,7.25,11.06,10.56,13.83,11.4,6,1.82,10.12.63,15.84-1a72.34,72.34,0,0,1,14.65-3C295.52,284,297.56,283.87,299.45,283.87Z"/><rect class="cls-6" x="263.86" y="224.42" width="51.69" height="115.21" rx="3.25" transform="translate(83.31 -65.64) rotate(15.07)"/><rect class="cls-5" x="274.82" y="247.83" width="41.81" height="23.96" rx="1.83" transform="translate(77.74 -67.97) rotate(15.07)"/><path class="cls-7" d="M292.75,267.75l-14.23-23.63a2,2,0,0,1,2.16-.77L317,253.12a2.06,2.06,0,0,1,1.52,1.64l-24.32,13.37A1,1,0,0,1,292.75,267.75Z"/><polygon class="cls-8" points="311.06 218.25 324.36 200.3 328.76 210.9 311.06 218.25"/><polygon class="cls-8" points="301.64 216.55 304.04 188.85 291.49 194.66 301.64 216.55"/><polygon class="cls-8" points="310.53 184.14 307.19 216.36 326 190.64 310.53 184.14"/></g></svg>