<svg xmlns="http://www.w3.org/2000/svg" width="48" height="48" viewBox="0 0 48 48"><path d="M41.44,24V16.16a.83.83,0,0,0-.83-.83H7.39a.83.83,0,0,0-.83.83V31.84a.83.83,0,0,0,.83.83H40.61a.83.83,0,0,0,.83-.83Z" fill="#77b3c4"/><path d="M38.7,27a.5.5,0,0,0-.5-.49h0a.52.52,0,0,0-.49.51c0,.95-.09,1.1-.18,1.14H33v-.8c0-.49,0-1.08,0-1.77h1.78a.5.5,0,0,0,.5-.5.5.5,0,0,0-.5-.5H33V21.39a1.32,1.32,0,0,1,.42-1,2.36,2.36,0,0,1,1.7-.6,2,2,0,0,1,2,1.91.5.5,0,0,0,1-.07,3,3,0,0,0-3-2.84,3.26,3.26,0,0,0-2.43.9A2.29,2.29,0,0,0,32,21.4v3.2h-1.3a.5.5,0,0,0-.5.5.51.51,0,0,0,.5.5H32c0,.69,0,1.28,0,1.76v.81h-1a.5.5,0,1,0,0,1h6.75C38.75,28.94,38.72,27.78,38.7,27Z" fill="#fff"/><path d="M28.26,27a.53.53,0,0,0-.51-.49.52.52,0,0,0-.49.51c0,.95-.09,1.1-.18,1.14H22.51v-.8c0-.49,0-1.08,0-1.77h1.79a.51.51,0,0,0,.5-.5.5.5,0,0,0-.5-.5H22.53V21.39a1.32,1.32,0,0,1,.42-1,2.39,2.39,0,0,1,1.7-.6,2,2,0,0,1,2,1.91.47.47,0,0,0,.53.46.51.51,0,0,0,.47-.53,3,3,0,0,0-3-2.84,3.26,3.26,0,0,0-2.43.9,2.29,2.29,0,0,0-.72,1.67v3.2h-1.3a.5.5,0,0,0-.5.5.51.51,0,0,0,.5.5h1.29c0,.69,0,1.28,0,1.76v.81h-1a.5.5,0,0,0,0,1h6.75C28.31,28.94,28.28,27.78,28.26,27Z" fill="#fff"/><path d="M18,27a.51.51,0,0,0-.51-.49A.52.52,0,0,0,17,27c0,.95-.09,1.1-.18,1.14H12.22v-.8c0-.49,0-1.08,0-1.77H14a.5.5,0,0,0,.5-.5.5.5,0,0,0-.5-.5H12.24V21.39a1.32,1.32,0,0,1,.42-1,2.37,2.37,0,0,1,1.7-.6,2,2,0,0,1,2,1.91.47.47,0,0,0,.53.46.49.49,0,0,0,.46-.53,3,3,0,0,0-3-2.84,3.31,3.31,0,0,0-2.44.9,2.32,2.32,0,0,0-.71,1.67v3.2H9.94a.5.5,0,0,0-.5.5.5.5,0,0,0,.5.5h1.29c0,.69,0,1.28,0,1.76v.81h-1a.5.5,0,0,0,0,1H17C18,28.94,18,27.78,18,27Z" fill="#fff"/><path d="M23.51,33.42h-17a.75.75,0,0,1-.75-.75V15.33a.75.75,0,0,1,.75-.75H41.44a.75.75,0,0,1,.75.75V24a.75.75,0,0,1-1.5,0V16.08H7.31V31.92h16.2a.75.75,0,1,1,0,1.5Z" fill="#fff"/></svg>