<svg xmlns="http://www.w3.org/2000/svg" width="48" height="48" viewBox="0 0 48 48"><path d="M39.57,14.66l-2-1.94a4.59,4.59,0,0,0-6.5,0L24.87,19,18.58,12.7c-1.8-1.8-5.21-2.29-7-.5L8.51,15.27c-1.79,1.8-1.29,5.21.51,7l6.29,6.28,9.54,9.53,9.56-9.58h0l5.17-5.17A6.14,6.14,0,0,0,39.57,14.66Z" fill="#77b3c4"/><path d="M34.23,27.69,25.5,19l6.11-5.78a.75.75,0,0,0-1-1.09l-6.14,5.81-5.59-5.58h0c-3.14-3-7.23-1.85-9.69.45S5.23,19.3,8.22,23c5.31,5.49,15.29,15.27,15.4,15.37a.57.57,0,0,0,.18.12l.06,0a.67.67,0,0,0,.28.06.79.79,0,0,0,.53-.22l9.56-9.58a.75.75,0,0,0,0-1.06ZM10.16,13.87a6.48,6.48,0,0,1,4.3-1.82A4.79,4.79,0,0,1,17.8,13.4L23.35,19l-8.79,8.31c-1.89-1.9-3.74-3.77-5.22-5.29C7,19.09,8.06,15.82,10.16,13.87Zm14,22.87-8.47-8.46L24.41,20l8.23,8.21Z" fill="#fff"/></svg>