<svg width="27" height="29" viewBox="0 0 27 29" fill="none" xmlns="http://www.w3.org/2000/svg">
<path fill-rule="evenodd" clip-rule="evenodd" d="M13.5 26.8145C7.00819 26.8145 2 22.2879 2 16.9963L1.03318e-06 16.9963C4.51138e-07 23.654 6.18469 28.8145 13.5 28.8145C20.8153 28.8145 27 23.654 27 16.9963C27 10.3385 20.8153 5.17809 13.5 5.17809C6.18469 5.17809 1.61522e-06 10.3385 1.03318e-06 16.9963L2 16.9963C2 11.7046 7.0082 7.17809 13.5 7.17809C19.9918 7.17809 25 11.7046 25 16.9963C25 22.2879 19.9918 26.8145 13.5 26.8145Z" fill="#077594"/>
<path d="M13 6.18164L13 -0.000177383" stroke="#077594" stroke-width="2"/>
<path d="M6 8.24023L3.12301 2.81542" stroke="#077594" stroke-width="2"/>
<path d="M20.123 8.24023L23 2.81542" stroke="#077594" stroke-width="2"/>
<circle cx="13" cy="16.998" r="6" fill="#077594"/>
</svg>
