<svg xmlns="http://www.w3.org/2000/svg" width="48" height="48" viewBox="0 0 48 48"><path d="M40.91,36.5H8.05A1.08,1.08,0,0,1,7,35.42V14.18s1.69-6,17,0c15.62-5.75,16.91,0,16.91,0Z" fill="#77b3c4"/><path d="M41.64,12.73a.76.76,0,0,0-.49-.58A24.08,24.08,0,0,0,33.76,11h0a24.17,24.17,0,0,0-9.5,2,.71.71,0,0,0-.22.15.71.71,0,0,0-.22-.15,24.2,24.2,0,0,0-9.5-2,23.07,23.07,0,0,0-7.42,1.16.76.76,0,0,0-.5.58.72.72,0,0,0-.14.41V22.9a.75.75,0,0,0,1.5,0V13.47a22.44,22.44,0,0,1,6.52-1h0a22.85,22.85,0,0,1,8.91,1.85l.07,0V34.75a24.32,24.32,0,0,0-9.09-1.81h0a.75.75,0,1,0,0,1.5,22.92,22.92,0,0,1,7.52,1.31H17.93a.75.75,0,0,0,0,1.5H41a.75.75,0,0,0,.75-.75V13.14A.72.72,0,0,0,41.64,12.73Zm-7.91-.24h0a22.44,22.44,0,0,1,6.52,1V33.83a23.84,23.84,0,0,0-6.41-.89h0a24.32,24.32,0,0,0-9.09,1.81V14.36l.07,0A22.85,22.85,0,0,1,33.73,12.49ZM26.32,35.75a22.92,22.92,0,0,1,7.52-1.31,24.12,24.12,0,0,1,6.44,1v.36Z" fill="#fff"/><path d="M9.23,16.78a18.46,18.46,0,0,1,5.5-.63,18.86,18.86,0,0,1,7,1.59.45.45,0,0,0,.2,0,.52.52,0,0,0,.46-.29.5.5,0,0,0-.26-.66,19.57,19.57,0,0,0-7.33-1.68A20.09,20.09,0,0,0,9,15.81a.52.52,0,0,0-.35.62A.5.5,0,0,0,9.23,16.78Z" fill="#fff"/><path d="M26.11,31.57a.45.45,0,0,0,.2,0,18.84,18.84,0,0,1,12.47-.77.5.5,0,1,0,.27-1,19.63,19.63,0,0,0-7.49-.65,19.87,19.87,0,0,0-5.64,1.46.5.5,0,0,0,.19,1Z" fill="#fff"/><path d="M26.2,17.68a.71.71,0,0,0,.2,0,18.6,18.6,0,0,1,5.35-1.39,18.87,18.87,0,0,1,7.11.61.5.5,0,1,0,.28-1,19.67,19.67,0,0,0-7.49-.64A19.46,19.46,0,0,0,26,16.72a.49.49,0,0,0-.27.65A.51.51,0,0,0,26.2,17.68Z" fill="#fff"/><path d="M26.11,24.16a.45.45,0,0,0,.2,0,18.68,18.68,0,0,1,12.47-.77A.5.5,0,0,0,39.4,23a.5.5,0,0,0-.35-.61,19.46,19.46,0,0,0-7.49-.65,19.87,19.87,0,0,0-5.64,1.46.5.5,0,0,0,.19,1Z" fill="#fff"/><path d="M21.69,24.18a.45.45,0,0,0,.2,0,.51.51,0,0,0,.46-.3.5.5,0,0,0-.26-.66A19.7,19.7,0,0,0,9,22.25a.5.5,0,0,0,.26,1,18.74,18.74,0,0,1,12.46,1Z" fill="#fff"/><path d="M21.69,31.65a.45.45,0,0,0,.2,0,.51.51,0,0,0,.46-.3.5.5,0,0,0-.26-.66,20,20,0,0,0-7.33-1.68,13.65,13.65,0,0,0-4.45.36l.24,1a13,13,0,0,1,4.18-.33A18.67,18.67,0,0,1,21.69,31.65Z" fill="#fff"/></svg>