<svg xmlns="http://www.w3.org/2000/svg" viewBox="0 0 101.12 233.28"><defs><style>.cls-1{fill:#b4d5de;}.cls-2{fill:#077594;}</style></defs><g id="Layer_2" data-name="Layer 2"><g id="Layer_1-2" data-name="Layer 1"><path class="cls-1" d="M96,96.61H5a5,5,0,0,0-5,5V230.85a2.43,2.43,0,0,0,2.43,2.43H95.59a5.54,5.54,0,0,0,5.53-5.53v-126A5.17,5.17,0,0,0,96,96.61Zm-47.59,25a27.16,27.16,0,1,1-24.87,24.86A27.16,27.16,0,0,1,48.36,121.63Zm35,88.45H17.8v-7.17H83.32Z"/><path class="cls-2" d="M1.43,103.07l46,52.42a4.06,4.06,0,0,0,6.1,0l46.17-52.25a4.07,4.07,0,0,0-3-6.76l-30.87-.06,0-92.25A4.13,4.13,0,0,0,61.68,0L39.55,0a4.13,4.13,0,0,0-4.14,4.13l0,92.25L4.5,96.32A4.07,4.07,0,0,0,1.43,103.07Z"/></g></g></svg>