<svg xmlns="http://www.w3.org/2000/svg" viewBox="0 0 248.14 136.68"><defs><style>.cls-1{fill:#393d3f;}.cls-2{fill:#b4d5de;}</style></defs><g id="Layer_2" data-name="Layer 2"><g id="Layer_1-2" data-name="Layer 1"><path class="cls-1" d="M243,0H152.05a5,5,0,0,0-5,5V134.25a2.43,2.43,0,0,0,2.43,2.43H242.6a5.54,5.54,0,0,0,5.54-5.54V5.17A5.18,5.18,0,0,0,243,0ZM195.37,25a27.16,27.16,0,1,1-24.86,24.87A27.16,27.16,0,0,1,195.37,25Zm35,88.45H164.82V106.3h65.51Z"/><path class="cls-2" d="M108.65,117l54.74-48.67a4.27,4.27,0,0,0,0-6.41L108.14,13.75A4.28,4.28,0,0,0,101.06,17l.16,32.42L4.32,50A4.34,4.34,0,0,0,0,54.4L.11,77.65A4.35,4.35,0,0,0,4.48,82l96.9-.61.16,32.42A4.27,4.27,0,0,0,108.65,117Z"/></g></g></svg>