<svg xmlns="http://www.w3.org/2000/svg" viewBox="0 0 209.08 140.88"><defs><style>.cls-1{fill:#077594;}</style></defs><g id="Layer_2" data-name="Layer 2"><g id="Layer_1-2" data-name="Layer 1"><path class="cls-1" d="M208.79,12.47A12.5,12.5,0,0,0,196.26,0L12.47.46A12.48,12.48,0,0,0,0,13L.29,128.41a12.48,12.48,0,0,0,12.52,12.47l183.8-.46a12.5,12.5,0,0,0,12.47-12.52ZM91.89,72.52l-70.44.18a7.77,7.77,0,0,1-7.79-7.76l-.11-42.29a7.77,7.77,0,0,1,7.75-7.79l70.45-.17a7.77,7.77,0,0,1,7.79,7.75l.1,42.29A7.77,7.77,0,0,1,91.89,72.52Zm17.62,32,0-6.69a1.28,1.28,0,0,1,1.27-1.28l83.44-.2a1.27,1.27,0,0,1,1.28,1.27l0,6.69a1.27,1.27,0,0,1-1.27,1.27l-83.45.21A1.27,1.27,0,0,1,109.51,104.54Zm84.76,19.87-83.44.21a1.29,1.29,0,0,1-1.28-1.27l0-7.57a1.27,1.27,0,0,1,1.27-1.28l83.45-.21a1.27,1.27,0,0,1,1.27,1.27l0,7.57A1.27,1.27,0,0,1,194.27,124.41Z"/></g></g></svg>