<svg xmlns="http://www.w3.org/2000/svg" viewBox="0 0 244.16 120.83"><defs><style>.cls-1{fill:#fff;}</style></defs><g id="Layer_2" data-name="Layer 2"><g id="Layer_1-2" data-name="Layer 1"><path class="cls-1" d="M199.9,12.88H45.7a33,33,0,0,1-29,29V79.75a33,33,0,0,1,29,29H199.9a33,33,0,0,1,29-29V41.86A33,33,0,0,1,199.9,12.88Z"/><path class="cls-1" d="M235.74,0H8.42A8.42,8.42,0,0,0,0,8.42v104a8.41,8.41,0,0,0,8.42,8.41H235.74a8.41,8.41,0,0,0,8.42-8.41V8.42A8.42,8.42,0,0,0,235.74,0Zm1.69,8.57h0V112.26h0v2.46H6.73V80.07h0V40.77h0V6.12h230.7Z"/></g></g></svg>