<svg xmlns="http://www.w3.org/2000/svg" viewBox="0 0 280.32 202.76"><defs><style>.cls-1{fill:#fff;}</style></defs><g id="Layer_2" data-name="Layer 2"><g id="Layer_1-2" data-name="Layer 1"><path class="cls-1" d="M206.9,55.9a73,73,0,0,0-30.52,6.67,90.44,90.44,0,1,0-34,101.73A73.42,73.42,0,1,0,206.9,55.9Zm-62.43,73.43A62.36,62.36,0,0,1,169,79.74a78.87,78.87,0,0,1-22.24,66.43A62.37,62.37,0,0,1,144.47,129.33Zm62.43,62.43a62.48,62.48,0,0,1-55.8-34.48,90.24,90.24,0,0,0,28.06-83.86A62.42,62.42,0,1,1,206.9,191.76Z"/></g></g></svg>