<?xml version="1.0" encoding="UTF-8" standalone="no"?>
<!DOCTYPE svg PUBLIC "-//W3C//DTD SVG 1.1//EN" "http://www.w3.org/Graphics/SVG/1.1/DTD/svg11.dtd">
<svg width="100%" height="100%" viewBox="0 0 446 446" version="1.1" xmlns="http://www.w3.org/2000/svg" xmlns:xlink="http://www.w3.org/1999/xlink" xml:space="preserve" xmlns:serif="http://www.serif.com/" style="fill-rule:evenodd;clip-rule:evenodd;stroke-linejoin:round;stroke-miterlimit:2;">
    <g transform="matrix(1,0,0,1,-18443.3,-6285)">
        <g transform="matrix(0.710227,0,0,1,5570.95,-527.829)">
            <g transform="matrix(0.560186,0,0,0.397859,9140.01,4029.21)">
                <g transform="matrix(1,0,0,1,-19,-7.5)">
                    <circle cx="16617.5" cy="7564.5" r="560.5" style="fill:rgb(24,117,149);"/>
                </g>
                <path d="M16629,7502C16629,7502 16774.5,7464.1 16891,7549C17007.5,7633.9 17007,7761.2 17007,7761.2C17007,7761.2 16865,7760 16758,7695C16664.6,7638.29 16629,7502 16629,7502Z" style="fill:rgb(221,96,70);"/>
                <path d="M16162.8,7205.37C16156,7210 16121,7262 16118.1,7268.48C16139.3,7258.07 16174.2,7242.27 16213,7230.17C16253.2,7217.6 16297.7,7208.66 16334.2,7215.65C16419.2,7231.87 16489.3,7279.78 16586.6,7507.85C16661.4,7683.01 16802.3,7755.8 16924.6,7776.71C17001.4,7789.84 17077,7771.13 17123.1,7755.16C17131.8,7730.53 17134.1,7725.24 17139,7706.23C17109.2,7720.01 17021.1,7752.62 16931.4,7737.29C16819.8,7718.22 16691.5,7651.78 16623.4,7492.15C16516.7,7242.2 16434.8,7194.13 16341.8,7176.36C16299.3,7168.26 16247.7,7177.42 16201,7191.99C16187.7,7196.15 16174.9,7200.72 16162.8,7205.37Z" style="fill:white;"/>
                <path d="M17007.9,7842.91C17006.9,7853.9 16997.1,7861.96 16986.1,7860.91C16975.1,7859.85 16967,7850.08 16968.1,7839.09C16968.1,7839.09 16973.9,7779.41 16964.7,7726.85C16961.9,7710.69 16957.7,7695.22 16951.1,7682.8C16946.2,7673.52 16940.2,7665.95 16931.4,7662.88C16921,7659.23 16915.5,7647.82 16919.1,7637.4C16922.8,7626.98 16934.2,7621.48 16944.6,7625.12C16970,7634.02 16987.5,7658.84 16997.3,7691.02C17016.3,7753.25 17007.9,7842.91 17007.9,7842.91ZM17007.9,7842.91C17007.9,7842.91 17007.9,7842.91 17007.9,7842.91Z" style="fill:rgb(221,96,70);"/>
            </g>
        </g>
    </g>
</svg>
