<svg xmlns="http://www.w3.org/2000/svg" viewBox="0 0 461.44 285.98"><defs><style>.cls-1{fill:#fff;}</style></defs><g id="Layer_2" data-name="Layer 2"><g id="Layer_1-2" data-name="Layer 1"><path class="cls-1" d="M230.49,195.93c-15.74-1-86.26-24.68-129.11-43.84-3.4,30-7.49,61.79-10.62,90.88,14.86,35,98.39,43,140.12,42.69,43.65-.27,129.8-9.22,139.34-43.32-3.13-31.43-6.64-57.21-10.71-91.77C297.71,177.1,249.76,196.11,230.49,195.93Z"/><path class="cls-1" d="M452.66,74,239.49,2.62A50.64,50.64,0,0,0,206.38,3L8.53,73.68c-11.34,4-11.39,20.07-.07,24.19l40.82,14.85c-10.87,5.61-16.13,27.06-16.47,36.59-7.85,4.4-12.65,13.29-12.43,21.06.24,8.27,5.47,13.6,10.7,17.6-6.72,29.39-12.57,55.64-18.83,86.56,0,6,5.05,10.47,7.79,11.11,19.27.17,32,.17,46.59.34,7.7-2.12,9-6.43,9.32-11.73-5.44-25.24-14.19-60.38-19-85.93,5.53-3.74,10.16-10.08,10-20.64-.14-9.25-6.58-15.22-10.89-17.87-.32-13.21,10.18-23.19,16.44-28.64l123.4,44.9a103.51,103.51,0,0,0,70.75,0L453,98.27C464.42,94.11,464.21,77.85,452.66,74Z"/></g></g></svg>