<svg xmlns="http://www.w3.org/2000/svg" viewBox="0 0 258.92 167.34"><defs><style>.cls-1{fill:#b4d5de;}.cls-2{fill:#393d3f;}</style></defs><g id="Layer_2" data-name="Layer 2"><g id="Layer_1-2" data-name="Layer 1"><path class="cls-1" d="M134.87,96.21l50.7-44.67a4,4,0,0,0,0-5.92L134.84,1a4,4,0,0,0-6.55,3V33.87L4,33.91a4,4,0,0,0-4,4V59.37a4,4,0,0,0,4,4l124.29,0V93.25A4,4,0,0,0,134.87,96.21Z"/><path class="cls-2" d="M213.1,166.47l44.65-39.32a3.48,3.48,0,0,0,0-5.22L213.08,82.64a3.47,3.47,0,0,0-5.77,2.6v26.34l-100.16,0h0c-27.68,0-36.3-20.64-36.31-48.32H46.1c0,41.32,19.74,74.27,61.07,74.26h0l100.16,0v26.34A3.47,3.47,0,0,0,213.1,166.47Z"/></g></g></svg>