<svg xmlns="http://www.w3.org/2000/svg" viewBox="0 0 205.63 170.35"><defs><style>.cls-1{fill:#b4d5de;}.cls-2{fill:#077594;}</style></defs><g id="Layer_2" data-name="Layer 2"><g id="Layer_1-2" data-name="Layer 1"><path class="cls-1" d="M106.1,83.86,94.77,25.45a3.47,3.47,0,0,0-4.5-2.63L33.77,41.46a3.47,3.47,0,0,0-.66,6.29L55.83,61.07.49,155.48a3.53,3.53,0,0,0,1.25,4.83L18,169.86a3.53,3.53,0,0,0,4.83-1.26L78.21,74.19l22.73,13.32A3.47,3.47,0,0,0,106.1,83.86Z"/><path class="cls-2" d="M205.56,61.22,194.23,2.81A3.47,3.47,0,0,0,189.74.18l-56.5,18.64a3.47,3.47,0,0,0-.67,6.29l22.72,13.32-50.65,86.41h0c-14,23.88-36.18,20.87-60.06,6.87L32.07,153.05C67.72,174,106.12,173.61,127,138h0l50.66-86.41L200.4,64.87A3.47,3.47,0,0,0,205.56,61.22Z"/></g></g></svg>