<svg xmlns="http://www.w3.org/2000/svg" viewBox="0 0 139.46 139.46"><defs><style>.cls-1{fill:#f6f6f6;}</style></defs><g id="Layer_2" data-name="Layer 2"><g id="Layer_1-2" data-name="Layer 1"><path class="cls-1" d="M69.73,0a69.73,69.73,0,1,0,69.73,69.73A69.73,69.73,0,0,0,69.73,0ZM120,45.93C89.57,69.66,75.27,86.86,56.48,114.22a9,9,0,0,1-7.25,3.91h-.17a9,9,0,0,1-7.22-3.63l-1.64-2.2c-8-10.81-12.87-17.33-25.46-29.83A9,9,0,1,1,27.42,69.7a218.24,218.24,0,0,1,21.4,24.09c16.47-22.92,32-40.16,60.12-62.05A9,9,0,1,1,120,45.93Z"/></g></g></svg>