<svg xmlns="http://www.w3.org/2000/svg" viewBox="0 0 259.58 227.81"><defs><style>.cls-1{fill:#fff;}</style></defs><g id="Layer_2" data-name="Layer 2"><g id="Layer_1-2" data-name="Layer 1"><path class="cls-1" d="M251.63,49h-56.9c0-.2,0-.4,0-.6V24.15A24.15,24.15,0,0,0,170.61,0H88.88A24.15,24.15,0,0,0,64.73,24.15V48.4c0,.2,0,.4,0,.6H8A8,8,0,0,0,0,57v44.46H259.54v19.47H0v99a7.94,7.94,0,0,0,8,7.95H251.63a7.94,7.94,0,0,0,7.95-7.95V57A8,8,0,0,0,251.63,49ZM89.22,32.47a8,8,0,0,1,8-7.95h65.15a8,8,0,0,1,8,8V49H89.22Z"/></g></g></svg>