<svg width="72" height="72" viewBox="0 0 72 72" fill="none" xmlns="http://www.w3.org/2000/svg">
<path d="M36.1445 70.2566C54.9696 70.2566 70.2304 54.9096 70.2304 35.9782C70.2304 17.0467 54.9696 1.69971 36.1445 1.69971C17.3194 1.69971 2.05859 17.0467 2.05859 35.9782C2.05859 54.9096 17.3194 70.2566 36.1445 70.2566Z" fill="#C4C4C4"/>
<path d="M36.1429 71.6849C29.1204 71.6849 22.2557 69.5908 16.4167 65.6673C10.5778 61.7438 6.02685 56.1671 3.33948 49.6426C0.652103 43.118 -0.0510367 35.9386 1.31897 29.0122C2.68899 22.0858 6.07062 15.7234 11.0362 10.7298C16.0019 5.73608 22.3284 2.33535 29.216 0.957595C36.1035 -0.420157 43.2426 0.286956 49.7305 2.98951C56.2184 5.69207 61.7637 10.2687 65.6651 16.1406C69.5666 22.0126 71.649 28.9161 71.649 35.9782C71.649 36.357 71.4994 36.7203 71.233 36.9882C70.9667 37.256 70.6054 37.4065 70.2287 37.4065C69.8521 37.4065 69.4908 37.256 69.2245 36.9882C68.9581 36.7203 68.8085 36.357 68.8085 35.9782C68.8085 29.4811 66.8927 23.1298 63.3033 17.7276C59.714 12.3255 54.6123 8.11496 48.6435 5.62861C42.6746 3.14226 36.1066 2.49171 29.7701 3.75924C23.4336 5.02678 17.6131 8.15545 13.0448 12.7496C8.4764 17.3438 5.3653 23.1972 4.10489 29.5695C2.84447 35.9418 3.49136 42.5469 5.96375 48.5494C8.43613 54.552 12.623 59.6825 17.9948 63.2921C23.3666 66.9018 29.6822 68.8284 36.1429 68.8284C36.5195 68.8284 36.8808 68.9789 37.1471 69.2467C37.4135 69.5146 37.5631 69.8779 37.5631 70.2567C37.5631 70.6355 37.4135 70.9988 37.1471 71.2666C36.8808 71.5345 36.5195 71.6849 36.1429 71.6849Z" fill="#393D3F"/>
<path d="M60.0404 44.7003H12.2445C11.8678 44.7003 11.5065 44.5498 11.2402 44.282C10.9739 44.0141 10.8242 43.6508 10.8242 43.272C10.8242 42.8932 10.9739 42.5299 11.2402 42.2621C11.5065 41.9942 11.8678 41.8438 12.2445 41.8438H60.0404C60.4171 41.8438 60.7784 41.9942 61.0447 42.2621C61.3111 42.5299 61.4607 42.8932 61.4607 43.272C61.4607 43.6508 61.3111 44.0141 61.0447 44.282C60.7784 44.5498 60.4171 44.7003 60.0404 44.7003Z" fill="#393D3F"/>
<path d="M27.6794 30.6842H15.6546C15.2779 30.6842 14.9167 30.5337 14.6504 30.2658C14.384 29.998 14.2344 29.6347 14.2344 29.2559C14.2344 28.8771 14.384 28.5138 14.6504 28.246C14.9167 27.9781 15.2779 27.8276 15.6546 27.8276H27.6794C28.056 27.8276 28.4173 27.9781 28.6836 28.246C28.95 28.5138 29.0996 28.8771 29.0996 29.2559C29.0996 29.6347 28.95 29.998 28.6836 30.2658C28.4173 30.5337 28.056 30.6842 27.6794 30.6842Z" fill="#393D3F"/>
<path d="M56.6325 30.6842H44.6077C44.2311 30.6842 43.8698 30.5337 43.6035 30.2658C43.3371 29.998 43.1875 29.6347 43.1875 29.2559C43.1875 28.8771 43.3371 28.5138 43.6035 28.246C43.8698 27.9781 44.2311 27.8276 44.6077 27.8276H56.6325C57.0092 27.8276 57.3704 27.9781 57.6368 28.246C57.9031 28.5138 58.0527 28.8771 58.0527 29.2559C58.0527 29.6347 57.9031 29.998 57.6368 30.2658C57.3704 30.5337 57.0092 30.6842 56.6325 30.6842Z" fill="#393D3F"/>
</svg>
