<svg width="72" height="73" viewBox="0 0 72 73" fill="none" xmlns="http://www.w3.org/2000/svg">
<path d="M35.8722 70.6853C54.8037 70.6853 70.1507 55.3383 70.1507 36.4069C70.1507 17.4754 54.8037 2.12842 35.8722 2.12842C16.9407 2.12842 1.59375 17.4754 1.59375 36.4069C1.59375 55.3383 16.9407 70.6853 35.8722 70.6853Z" fill="#C4C4C4"/>
<path d="M35.8708 72.1136C28.8087 72.1136 21.9051 70.0195 16.0332 66.096C10.1613 62.1725 5.58465 56.5958 2.88209 50.0713C0.179534 43.5467 -0.527579 36.3673 0.850173 29.4409C2.22792 22.5145 5.62866 16.1521 10.6223 11.1585C15.616 6.16479 21.9783 2.76406 28.9048 1.38631C35.8312 0.00855428 43.0106 0.715667 49.5352 3.41822C56.0597 6.12078 61.6363 10.6974 65.5598 16.5693C69.4834 22.4413 71.5775 29.3448 71.5775 36.4069C71.5775 36.7857 71.427 37.149 71.1592 37.4169C70.8913 37.6847 70.528 37.8352 70.1492 37.8352C69.7704 37.8352 69.4072 37.6847 69.1393 37.4169C68.8715 37.149 68.721 36.7857 68.721 36.4069C68.721 29.9098 66.7943 23.5585 63.1847 18.1563C59.5751 12.7542 54.4446 8.54367 48.442 6.05732C42.4394 3.57097 35.8344 2.92042 29.462 4.18796C23.0897 5.45549 17.2364 8.58416 12.6422 13.1783C8.04803 17.7725 4.91935 23.6259 3.65182 29.9982C2.38429 36.3705 3.03483 42.9756 5.52119 48.9781C8.00754 54.9807 12.218 60.1112 17.6202 63.7209C23.0224 67.3305 29.3736 69.2571 35.8708 69.2571C36.2496 69.2571 36.6129 69.4076 36.8807 69.6754C37.1486 69.9433 37.2991 70.3066 37.2991 70.6854C37.2991 71.0642 37.1486 71.4275 36.8807 71.6953C36.6129 71.9632 36.2496 72.1136 35.8708 72.1136Z" fill="#393D3F"/>
<path d="M57.6208 56.441C57.3294 56.4424 57.0448 56.3534 56.806 56.1863C56.5673 56.0192 56.3862 55.7822 56.2878 55.5079C54.5167 50.5566 45.2235 44.9577 35.835 45.1291C26.4465 45.3005 17.6484 49.7377 15.4583 55.4508C15.3913 55.6328 15.288 55.7993 15.1545 55.94C15.0211 56.0808 14.8604 56.1929 14.6822 56.2695C14.504 56.3462 14.3121 56.3857 14.1181 56.3857C13.9241 56.3857 13.7322 56.3462 13.554 56.2696C13.3684 56.2075 13.1981 56.1068 13.0542 55.9743C12.9102 55.8418 12.7958 55.6804 12.7185 55.5006C12.6412 55.3209 12.6028 55.1268 12.6056 54.9312C12.6085 54.7355 12.6526 54.5427 12.7351 54.3653C15.3631 47.4715 25.0373 42.3297 35.7207 42.1202C45.452 41.8727 56.5544 47.8333 58.9158 54.3843C58.9887 54.5652 59.0243 54.759 59.0204 54.954C59.0165 55.149 58.9732 55.3413 58.8932 55.5191C58.8132 55.697 58.698 55.8569 58.5546 55.9891C58.4112 56.1214 58.2426 56.2232 58.0588 56.2887C57.9217 56.3621 57.7739 56.4135 57.6208 56.441Z" fill="#393D3F"/>
<path d="M21.3413 34.5028C20.3368 34.4399 19.3547 34.1787 18.4517 33.7341C17.5488 33.2895 16.7429 32.6704 16.0806 31.9125C15.4184 31.1546 14.9129 30.273 14.5933 29.3186C14.2738 28.3642 14.1465 27.356 14.219 26.3521C14.219 25.9733 14.3694 25.61 14.6373 25.3422C14.9051 25.0743 15.2684 24.9238 15.6472 24.9238C16.026 24.9238 16.3893 25.0743 16.6572 25.3422C16.925 25.61 17.0755 25.9733 17.0755 26.3521C16.9571 27.6163 17.3366 28.8768 18.1332 29.8655C18.9299 30.8542 20.0808 31.493 21.3413 31.6462C22.6017 31.493 23.7526 30.8542 24.5493 29.8655C25.3459 28.8768 25.7254 27.6163 25.607 26.3521C25.607 25.9733 25.7575 25.61 26.0254 25.3422C26.2932 25.0743 26.6565 24.9238 27.0353 24.9238C27.4141 24.9238 27.7774 25.0743 28.0452 25.3422C28.3131 25.61 28.4636 25.9733 28.4636 26.3521C28.536 27.356 28.4087 28.3642 28.0892 29.3186C27.7697 30.273 27.2642 31.1546 26.6019 31.9125C25.9396 32.6704 25.1338 33.2895 24.2308 33.7341C23.3279 34.1787 22.3458 34.4399 21.3413 34.5028Z" fill="#393D3F"/>
<path d="M50.3999 34.5028C49.3954 34.4399 48.4133 34.1787 47.5103 33.7341C46.6074 33.2895 45.8015 32.6704 45.1392 31.9125C44.477 31.1546 43.9715 30.273 43.6519 29.3186C43.3324 28.3642 43.2051 27.356 43.2776 26.3521C43.2776 25.9733 43.428 25.61 43.6959 25.3422C43.9637 25.0743 44.327 24.9238 44.7058 24.9238C45.0846 24.9238 45.4479 25.0743 45.7158 25.3422C45.9836 25.61 46.1341 25.9733 46.1341 26.3521C46.0157 27.6163 46.3952 28.8768 47.1918 29.8655C47.9885 30.8542 49.1394 31.493 50.3999 31.6462C51.6603 31.493 52.8112 30.8542 53.6079 29.8655C54.4045 28.8768 54.784 27.6163 54.6656 26.3521C54.6656 25.9733 54.8161 25.61 55.084 25.3422C55.3518 25.0743 55.7151 24.9238 56.0939 24.9238C56.4727 24.9238 56.836 25.0743 57.1038 25.3422C57.3717 25.61 57.5222 25.9733 57.5222 26.3521C57.5946 27.356 57.4673 28.3642 57.1478 29.3186C56.8283 30.273 56.3228 31.1546 55.6605 31.9125C54.9982 32.6704 54.1924 33.2895 53.2894 33.7341C52.3865 34.1787 51.4044 34.4399 50.3999 34.5028Z" fill="#393D3F"/>
</svg>
