<svg width="73" height="73" viewBox="0 0 73 73" fill="none" xmlns="http://www.w3.org/2000/svg">
<path d="M36.423 70.6853C55.3545 70.6853 70.7014 55.3383 70.7014 36.4069C70.7014 17.4754 55.3545 2.12842 36.423 2.12842C17.4915 2.12842 2.14453 17.4754 2.14453 36.4069C2.14453 55.3383 17.4915 70.6853 36.423 70.6853Z" fill="#FFD275"/>
<path d="M36.4216 72.1136C29.3595 72.1136 22.4559 70.0195 16.584 66.096C10.712 62.1725 6.13543 56.5958 3.43287 50.0713C0.730315 43.5467 0.0232027 36.3673 1.40095 29.4409C2.77871 22.5145 6.17944 16.1521 11.1731 11.1585C16.1668 6.16479 22.5291 2.76406 29.4555 1.38631C36.382 0.00855428 43.5614 0.715667 50.0859 3.41822C56.6105 6.12078 62.1871 10.6974 66.1106 16.5693C70.0341 22.4413 72.1283 29.3448 72.1283 36.4069C72.1283 36.7857 71.9778 37.149 71.71 37.4169C71.4421 37.6847 71.0788 37.8352 70.7 37.8352C70.3212 37.8352 69.9579 37.6847 69.6901 37.4169C69.4222 37.149 69.2718 36.7857 69.2718 36.4069C69.2718 29.9098 67.3451 23.5585 63.7355 18.1563C60.1259 12.7542 54.9954 8.54367 48.9928 6.05732C42.9902 3.57097 36.3851 2.92042 30.0128 4.18796C23.6405 5.45549 17.7872 8.58416 13.193 13.1783C8.59881 17.7725 5.47014 23.6259 4.2026 29.9982C2.93507 36.3705 3.58562 42.9756 6.07197 48.9781C8.55832 54.9807 12.7688 60.1112 18.171 63.7209C23.5732 67.3305 29.9244 69.2571 36.4216 69.2571C36.8004 69.2571 37.1637 69.4076 37.4315 69.6754C37.6994 69.9433 37.8498 70.3066 37.8498 70.6854C37.8498 71.0642 37.6994 71.4275 37.4315 71.6953C37.1637 71.9632 36.8004 72.1136 36.4216 72.1136Z" fill="#393D3F"/>
<path d="M36.8406 61.4114H36.3074C25.7382 61.1638 15.8355 53.6416 13.2837 44.0246C13.2282 43.8408 13.2103 43.6476 13.2311 43.4567C13.2519 43.2658 13.3109 43.0811 13.4048 42.9136C13.4986 42.746 13.6253 42.5991 13.7772 42.4816C13.9291 42.3642 14.1031 42.2785 14.2888 42.2299C14.4746 42.1812 14.6683 42.1704 14.8583 42.1983C15.0482 42.2262 15.2307 42.2921 15.3946 42.3921C15.5585 42.4921 15.7006 42.6241 15.8124 42.7802C15.9242 42.9364 16.0033 43.1135 16.045 43.3009C18.2922 51.6991 27.0332 58.2501 36.4026 58.5358H36.8406C45.9815 58.5358 55.0273 50.4613 56.7983 43.3009C56.8287 43.105 56.8996 42.9175 57.0065 42.7504C57.1133 42.5834 57.2538 42.4404 57.419 42.3306C57.5841 42.2209 57.7703 42.1467 57.9657 42.1128C58.1611 42.0789 58.3614 42.0861 58.5538 42.1339C58.7463 42.1817 58.9267 42.269 59.0835 42.3903C59.2404 42.5117 59.3703 42.6643 59.4649 42.8386C59.5595 43.0129 59.6168 43.2049 59.6331 43.4026C59.6494 43.6002 59.6244 43.7991 59.5596 43.9865C57.5029 52.3657 47.4098 61.4114 36.8406 61.4114Z" fill="#393D3F"/>
<path d="M27.5861 33.9695C27.3978 33.9721 27.2109 33.9369 27.0365 33.866C26.862 33.7952 26.7036 33.6901 26.5704 33.5569C26.4373 33.4238 26.3322 33.2653 26.2613 33.0909C26.1904 32.9164 26.1552 32.7295 26.1578 32.5413C26.2762 31.2771 25.8967 30.0166 25.1001 29.0279C24.3034 28.0392 23.1525 27.4003 21.892 27.2472C20.6207 27.4002 19.4606 28.0472 18.6624 29.0485C17.8642 30.0498 17.4921 31.325 17.6263 32.5984C17.6263 32.9772 17.4758 33.3405 17.208 33.6083C16.9401 33.8762 16.5768 34.0267 16.198 34.0267C15.8192 34.0267 15.4559 33.8762 15.1881 33.6083C14.9202 33.3405 14.7697 32.9772 14.7697 32.5984C14.6973 31.5945 14.8246 30.5863 15.1441 29.6319C15.4636 28.6775 15.9692 27.7959 16.6314 27.038C17.2937 26.2801 18.0996 25.661 19.0025 25.2164C19.9054 24.7718 20.8875 24.5106 21.892 24.4478C22.8966 24.5106 23.8786 24.7718 24.7816 25.2164C25.6845 25.661 26.4904 26.2801 27.1527 27.038C27.8149 27.7959 28.3204 28.6775 28.64 29.6319C28.9595 30.5863 29.0868 31.5945 29.0143 32.5984C28.9996 32.9672 28.8426 33.316 28.5763 33.5716C28.3101 33.8272 27.9552 33.9698 27.5861 33.9695Z" fill="#393D3F"/>
<path d="M56.6447 33.9695C56.4564 33.9721 56.2695 33.9369 56.0951 33.866C55.9206 33.7952 55.7622 33.6901 55.629 33.5569C55.4959 33.4238 55.3908 33.2653 55.3199 33.0909C55.249 32.9164 55.2138 32.7295 55.2164 32.5413C55.3348 31.2771 54.9553 30.0166 54.1587 29.0279C53.362 28.0392 52.2111 27.4003 50.9506 27.2472C49.6793 27.4002 48.5192 28.0472 47.721 29.0485C46.9228 30.0498 46.5507 31.325 46.6849 32.5984C46.6849 32.9772 46.5344 33.3405 46.2665 33.6083C45.9987 33.8762 45.6354 34.0267 45.2566 34.0267C44.8778 34.0267 44.5145 33.8762 44.2467 33.6083C43.9788 33.3405 43.8283 32.9772 43.8283 32.5984C43.7559 31.5945 43.8832 30.5863 44.2027 29.6319C44.5222 28.6775 45.0277 27.7959 45.69 27.038C46.3523 26.2801 47.1582 25.661 48.0611 25.2164C48.964 24.7718 49.9461 24.5106 50.9506 24.4478C51.9551 24.5106 52.9372 24.7718 53.8402 25.2164C54.7431 25.661 55.549 26.2801 56.2113 27.038C56.8735 27.7959 57.379 28.6775 57.6986 29.6319C58.0181 30.5863 58.1454 31.5945 58.0729 32.5984C58.0582 32.9672 57.9012 33.316 57.6349 33.5716C57.3687 33.8272 57.0138 33.9698 56.6447 33.9695Z" fill="#393D3F"/>
</svg>
