<svg xmlns="http://www.w3.org/2000/svg" width="48" height="48" viewBox="0 0 48 48"><path d="M24,6.16a13.32,13.32,0,0,0-5.71,25.33v1.26a.73.73,0,0,0-.54.09.75.75,0,0,0-.34.63v2.71a.75.75,0,0,0,.27.58,3.56,3.56,0,0,0,.61.39v1a.74.74,0,0,0-.66,1.26A9,9,0,0,0,24,42h0a8.87,8.87,0,0,0,6.32-2.61.75.75,0,0,0,0-1.06.73.73,0,0,0-.62-.2v-1a3.48,3.48,0,0,0,.57-.36.76.76,0,0,0,.28-.59V33.47a.76.76,0,0,0-.37-.65.66.66,0,0,0-.48-.07V31.07a6,6,0,0,0,1.19-1.18,3.78,3.78,0,0,0,.22-.33,12.33,12.33,0,0,0,5.25-9.41.53.53,0,0,0,.18,0,.76.76,0,0,0,.75-.75A13.3,13.3,0,0,0,24,6.16Z"/><path d="M24,6.16A13.3,13.3,0,0,0,10.72,19.44,13.15,13.15,0,0,0,24,32.71h0c3.11,0,5.42-.95,6.87-2.82s2-4.87,1.18-7.95a8.22,8.22,0,0,0-4.73-5.6,5,5,0,0,0-1.14-.4,8.58,8.58,0,0,0-1.69-2,.75.75,0,1,0-1,1.15,8.09,8.09,0,0,1,.73.76,6.93,6.93,0,0,0-2.22.57,5.55,5.55,0,0,0-3.22,3.35c-.58,1.94.09,4.66,1.86,5.38a3.53,3.53,0,0,0,3-.38,6.89,6.89,0,0,0,3.37-4.58A5.39,5.39,0,0,0,27,17.85a6.66,6.66,0,0,1,3.63,4.47A7.81,7.81,0,0,1,29.7,29c-1.16,1.49-3.07,2.24-5.69,2.24h0A11.67,11.67,0,0,1,12.22,19.44a11.78,11.78,0,0,1,23.56,0,.75.75,0,0,0,1.5,0A13.3,13.3,0,0,0,24,6.16Zm1.58,13.72A5.42,5.42,0,0,1,23,23.42a2.1,2.1,0,0,1-1.7.31c-.89-.36-1.4-2.19-1-3.56a4.08,4.08,0,0,1,2.38-2.41,5.61,5.61,0,0,1,2.21-.46h.35A4.3,4.3,0,0,1,25.58,19.88Z" fill="#FFF"/><path d="M29.25,38.35A7.37,7.37,0,0,1,24,40.52h0a7.46,7.46,0,0,1-5.28-2.2.75.75,0,0,0-1.06,0,.77.77,0,0,0,0,1.07A9,9,0,0,0,24,42h0a8.87,8.87,0,0,0,6.32-2.61.75.75,0,1,0-1.06-1.06Z" fill="#FFF"/><path d="M29.43,32.81c-2.18,1.19-8.23,1.17-11,0a.75.75,0,0,0-1.05.69v2.71a.75.75,0,0,0,.27.58c1.17,1,3.73,1.44,6.29,1.44s5.11-.48,6.29-1.43a.76.76,0,0,0,.28-.59V33.47a.75.75,0,0,0-1.11-.66Zm-.39,3c-2,1.17-8.12,1.17-10.13,0V34.53A20.1,20.1,0,0,0,29,34.59Z" fill="#FFF"/></svg>