<svg xmlns="http://www.w3.org/2000/svg" viewBox="0 0 232.31 337.93"><defs><style>.cls-1{fill:#077594;}.cls-2{fill:#fff;}.cls-3{fill:#e05e48;}.cls-4{fill:#eaa69d;}</style></defs><g id="Layer_2" data-name="Layer 2"><g id="Layer_1-2" data-name="Layer 1"><path class="cls-1" d="M177.27,212.27c31.82-19.42,41.86-45.33,21.1-93.1-7.74,17.54-1.23,40.94-39.18,61-16,8.42-21.95,4.95-27,3.52-3.27-.92-.08,6.21-13,8-10,1.4-9.24-7.88-13.85-7.33-13.93,1.68-29.79,5-40.29-4.88C43.5,159.16,39.64,144.67,36,119.17c-14.73,18.09-13.84,49.26-6.36,67,8.87,21,20.72,26.21,30.43,29.89-2.24,25-16.93,31.49-21.45,52.52C32.5,296.81,64.44,310,90.91,320.93c61.75,25.44,133.21-26.27,133.21-46.29C224.12,257.32,179.28,235.23,177.27,212.27Z"/><path class="cls-2" d="M198.26,126c-.45-9.6-1-17.32,9.15-27.8,2.47-2.55,9.88-10.2,16.44-7.58,4.53,1.81,7.63,8.13,6.05,12.26s-7,3.41-14.79,7.63C203.15,116.92,202.27,122,198.26,126Z"/><path class="cls-1" d="M196.46,130.53l-.23-5.06c-.44-9.55-.83-17.81,9.74-28.71,2.68-2.76,10.81-11.16,18.62-8,5.52,2.21,9.15,9.69,7.18,14.83-1.3,3.39-4.32,4.36-7.83,5.49a42.76,42.76,0,0,0-7.88,3.19c-8.18,4.41-10.86,8.07-13.22,11.29a29.56,29.56,0,0,1-3.18,3.87ZM221,92c-4.86,0-10.21,5.52-12.14,7.51-7.71,8-8.86,13.92-8.78,21,2.42-3.28,5.65-7.28,14.1-11.84a47.6,47.6,0,0,1,8.56-3.48c3.26-1,4.73-1.58,5.31-3.11,1.2-3.12-1.43-8.29-4.93-9.68A5.54,5.54,0,0,0,221,92Z"/><path class="cls-2" d="M35.29,127.69c0-9.61.16-17.35-10.52-27.32C22.18,98,14.39,90.68,8,93.62c-4.44,2-7.23,8.49-5.44,12.54s7.12,3.06,15.14,6.89C30,118.9,31.08,123.94,35.29,127.69Z"/><path class="cls-1" d="M37.3,132.17l-3.34-3a30.88,30.88,0,0,1-3.38-3.71c-2.51-3.1-5.37-6.62-13.76-10.63a43.47,43.47,0,0,0-8-2.79c-3.56-1-6.63-1.77-8.09-5.09-2.22-5,1-12.69,6.43-15.17,7.64-3.5,16.19,4.49,19,7.11,11.09,10.36,11.12,18.63,11.14,28.2ZM11.24,94.93a5.7,5.7,0,0,0-2.43.51C5.38,97,3,102.29,4.37,105.36c.66,1.49,2.15,2,5.46,2.84a46.71,46.71,0,0,1,8.72,3c8.66,4.13,12.09,8,14.67,11.13-.28-7.08-1.72-13-9.81-20.55C21.43,100,16,94.93,11.24,94.93Z"/><path class="cls-2" d="M98.78,164.64a6.26,6.26,0,0,1-2.43-11.06,21.51,21.51,0,0,1,24-30.64c.54.12,1.07.27,1.6.43h0c4.8.49,16.94,2.18,17,7.12,0,1.7-1.45,3.66-3.58,5a21.4,21.4,0,0,1,1.22,13.19c-2.61,11.59-13.74,20.43-25.33,17.83a16.79,16.79,0,0,1-5.15-2.19C104.62,166,101.12,165.17,98.78,164.64Z"/><path class="cls-1" d="M115.21,168.92a20.16,20.16,0,0,1-4.42-.49,16.45,16.45,0,0,1-4.57-1.76c-2.3,1.18-5.51.45-7.77,0l-.11,0a8.25,8.25,0,0,1-4.41-13.46,23.64,23.64,0,0,1-1.3-14.36A23.52,23.52,0,0,1,120.74,121c.47.11,1,.24,1.53.41,12.3,1.28,18.57,4.32,18.65,9a7.64,7.64,0,0,1-3.15,5.73,23.24,23.24,0,0,1,.74,12.91C135.91,160.68,125.8,168.92,115.21,168.92Zm-9.57-7.18,1.43.81a14.24,14.24,0,0,0,4.6,2c9.94,2.24,20.45-5.23,22.94-16.31a19.33,19.33,0,0,0-1.1-12l-.69-1.59,1.48-.91c1.72-1.05,2.63-2.45,2.62-3.23,0-1.74-4.94-4-14.28-5.06l-.18.18-1.14-.35c-.48-.15-1-.29-1.46-.4a19.53,19.53,0,0,0-21.73,27.8l.75,1.47-1.31,1a4.25,4.25,0,0,0-1,5.64,4.26,4.26,0,0,0,2.66,1.88l.11,0c1.25.29,4.58,1,5.23.27Z"/><path class="cls-1" d="M116.46,120.71c.48.86-6.32-.39-8.39,3.81-2.39,4.86,1.41,6.48,1.51,11s-10.47,3.59-2.55,17.2c-3.91,5-5.87,1.69-10.13.35-6.33,3.78-3.72,5.2-3.69,6.49.07,3.24,8.24,8,14.05,6.35.51,2.38-1.8,7-3.94,7.46-2.52.56-8.9-.65-8.79-5.25a16.28,16.28,0,0,1-10-2.72c-4.63-3-7.07-10.15-5.42-15.4,1-3.32,1.58-4.73,3.4-6.1-4.86-2.43-5.92-9.1-4.7-13.05,1.3-4.24,7.44-9.62,13.68-8.15-2.37-3.22,0-7,2.86-10,3.4-3.54,10.23-2.49,14-1.07C109.93,112.25,114.17,116.53,116.46,120.71Z"/><path class="cls-3" d="M139.43,13H93.48a2.82,2.82,0,0,0-2.82,2.82v64.1a2.82,2.82,0,0,0,2.82,2.82h46a2.82,2.82,0,0,0,2.82-2.82V15.77A2.82,2.82,0,0,0,139.43,13Zm-23,12.72A13.86,13.86,0,1,1,102.6,39.53,13.86,13.86,0,0,1,116.45,25.67Zm16.72,45.18H99.74V67.19h33.43Z"/><path class="cls-1" d="M224.22,276.8c0,33.76-41.64,61.13-93,61.13s-93-27.37-93-61.13,36.24,28.83,87.6,28.83S224.22,243,224.22,276.8Z"/><polygon class="cls-4" points="72.53 30.16 29.5 8.25 35.95 0 72.53 30.16"/><polygon class="cls-4" points="72.53 65.82 21.52 64.09 27.77 77.61 72.53 65.82"/><polygon class="cls-4" points="78.3 81.35 51.01 95.64 59.47 104.52 78.3 81.35"/><polygon class="cls-4" points="159.35 31.29 202.38 9.38 195.93 1.13 159.35 31.29"/><polygon class="cls-4" points="159.35 66.95 210.35 65.22 204.11 78.74 159.35 66.95"/><polygon class="cls-4" points="153.58 82.47 180.87 96.77 172.41 105.65 153.58 82.47"/><path class="cls-2" d="M124.89,164.41c-.21,6.36,2.48,18.24,5.22,20.77-3.22,7.37-16.77,9.08-23.29,1.46.06-3.11,6-11,.44-20.77C114.72,166.92,120.94,166.3,124.89,164.41Z"/><path class="cls-1" d="M118.24,193.6A17,17,0,0,1,105.3,188l-.49-.58v-.76a13.38,13.38,0,0,1,1-3.91c1.43-4,3.38-9.38-.32-15.83l-2-3.54,4,.56c6.78,1,12.79.49,16.48-1.29l3-1.42-.11,3.29c-.22,6.61,2.62,17.43,4.57,19.24l1,1-.57,1.3c-1.69,3.88-5.77,6.65-10.91,7.42A18.82,18.82,0,0,1,118.24,193.6ZM109,186a13.62,13.62,0,0,0,11.49,3.43,10.41,10.41,0,0,0,7.28-4c-2.49-3.8-4.36-12.19-4.76-18.12a35.63,35.63,0,0,1-12.4,1c2.37,6.62.34,12.25-1,15.81C109.36,184.75,109.1,185.46,109,186Z"/></g></g></svg>