<svg id="Layer_1" data-name="Layer 1" xmlns="http://www.w3.org/2000/svg" xmlns:xlink="http://www.w3.org/1999/xlink" viewBox="0 0 355.03 355.03"><defs><style>.cls-1{fill:none;}.cls-2{fill:#f6f6f6;}.cls-3{clip-path:url(#clip-path);}.cls-4{opacity:0.28;}.cls-5{fill:#ffd275;}.cls-6{fill:#077594;}.cls-7{fill:#fff;}</style><clipPath id="clip-path"><circle class="cls-1" cx="177.52" cy="177.52" r="177.52"/></clipPath></defs><circle class="cls-2" cx="177.52" cy="177.52" r="177.52"/><g class="cls-3"><g class="cls-4"><polygon class="cls-5" points="94.95 101.73 90.84 100.84 95.4 79.77 72.62 82.93 72.62 64.49 51.67 75.25 49.74 71.5 76.83 57.59 76.83 78.1 100.78 74.77 94.95 101.73"/><polygon class="cls-5" points="263.08 84.68 258.94 83.91 264.45 53.97 280.69 66.49 292.68 45.48 310.48 66.55 307.26 69.27 293.35 52.8 281.95 72.77 267.34 61.52 263.08 84.68"/><polygon class="cls-5" points="167.13 226.32 140.16 220.58 141.03 216.47 162.12 220.95 158.88 198.19 177.32 198.13 166.5 177.21 170.24 175.28 184.23 202.31 163.73 202.38 167.13 226.32"/><polygon class="cls-5" points="292.96 249.86 282.15 221.4 302.52 223.68 301.88 199.5 328.02 208.3 326.68 212.29 306.25 205.41 306.86 228.4 288.53 226.35 296.89 248.37 292.96 249.86"/><polygon class="cls-5" points="53.17 250.12 50.54 229.79 27.21 236.16 29.53 208.68 33.73 209.03 31.91 230.51 54.09 224.46 56.46 242.75 75.86 229.39 78.24 232.86 53.17 250.12"/><polygon class="cls-5" points="323.5 171.59 305.03 168.24 305.78 164.1 318.33 166.37 315.84 152.05 327.3 151.66 320.55 139.54 324.23 137.49 334.33 155.63 320.82 156.09 323.5 171.59"/><polygon class="cls-5" points="332.89 305.49 330.07 302.37 339.53 293.81 326.66 287.04 333.35 277.73 319.63 275.68 320.25 271.51 340.79 274.58 332.9 285.57 346.82 292.9 332.89 305.49"/><polygon class="cls-5" points="250.3 161.34 249.8 147.83 234.31 150.56 237.6 132.08 241.74 132.81 239.51 145.37 253.83 142.84 254.25 154.29 266.35 147.5 268.41 151.18 250.3 161.34"/><polygon class="cls-5" points="268.09 336.83 264.06 335.63 267.71 323.41 253.2 324.29 254.09 312.86 241.29 318.22 239.67 314.34 258.82 306.31 257.77 319.79 273.47 318.85 268.09 336.83"/><polygon class="cls-5" points="240.55 30.9 228.2 14.2 241.55 12.01 236.89 -3.01 255.64 -2.06 255.43 2.14 242.69 1.5 247 15.39 235.69 17.24 243.93 28.39 240.55 30.9"/><polygon class="cls-5" points="146.84 78.01 139.84 66.44 127.63 76.35 121.53 58.59 125.51 57.22 129.66 69.28 140.95 60.12 146.88 69.93 154.16 58.12 157.74 60.33 146.84 78.01"/><polygon class="cls-5" points="33.14 155.92 15.35 149.91 16.7 145.92 28.78 150 28.41 135.46 39.8 136.75 34.9 123.78 38.83 122.29 46.18 141.71 32.74 140.19 33.14 155.92"/><polygon class="cls-5" points="56.11 43.6 38.4 32.75 49.95 25.72 39.99 13.54 57.73 7.38 59.11 11.36 47.07 15.54 56.27 26.8 46.48 32.76 58.31 40.01 56.11 43.6"/><polygon class="cls-5" points="102.73 338.64 90.07 322.19 103.37 319.74 98.42 304.81 117.19 305.4 117.06 309.61 104.31 309.21 108.88 323.01 97.61 325.08 106.07 336.07 102.73 338.64"/><polygon class="cls-5" points="99.87 190.32 79.1 190.31 85.28 178.28 70.44 173.09 82.36 158.58 85.61 161.25 77.51 171.1 91.24 175.91 86 186.11 99.87 186.11 99.87 190.32"/><polygon class="cls-5" points="187.68 273.98 183.47 273.86 183.83 261.12 170.04 265.73 167.93 254.46 156.97 262.96 154.39 259.63 170.8 246.91 173.29 260.2 188.21 255.21 187.68 273.98"/><polygon class="cls-5" points="150.2 27.15 147.96 25.99 151.08 19.93 143.22 18.94 144.84 12.93 137.59 14.48 137.07 12.02 148.36 9.6 146.41 16.8 154.99 17.88 150.2 27.15"/><polygon class="cls-5" points="253.29 278.63 251.01 277.55 255.99 267.13 260.5 273.06 266.59 266.93 271.01 276.38 268.73 277.45 265.83 271.27 260.25 276.9 256.48 271.95 253.29 278.63"/><polygon class="cls-5" points="169.13 111.09 159.85 106.34 161 104.09 167.07 107.2 168.04 99.33 174.04 100.93 172.47 93.69 174.94 93.16 177.39 104.44 170.19 102.52 169.13 111.09"/><polygon class="cls-5" points="311.88 34.02 310.73 22.54 317.67 25.27 319.7 16.87 328.38 22.66 326.98 24.76 321.3 20.97 319.44 28.68 313.65 26.4 314.39 33.77 311.88 34.02"/><polygon class="cls-5" points="221.75 206.78 217.66 195.98 225.06 196.82 224.84 188.18 234.73 191.52 233.92 193.91 227.46 191.73 227.66 199.65 221.48 198.95 224.11 205.88 221.75 206.78"/><polygon class="cls-5" points="242.04 98.3 230.49 98.15 233.99 91.56 225.87 88.6 232.6 80.63 234.53 82.26 230.13 87.47 237.58 90.19 234.66 95.68 242.07 95.78 242.04 98.3"/><polygon class="cls-5" points="10.34 100.26 6.01 90.77 8.31 89.72 11.14 95.92 16.78 90.36 20.5 95.34 23.76 88.69 26.03 89.8 20.95 100.17 16.49 94.19 10.34 100.26"/><polygon class="cls-5" points="181.46 325.51 179.12 314.2 186.31 316.19 187.44 307.63 196.68 312.47 195.51 314.71 189.47 311.54 188.43 319.4 182.43 317.74 183.94 325 181.46 325.51"/><polygon class="cls-5" points="32.8 311.65 24.18 305.77 25.6 303.69 31.24 307.52 33.17 299.84 38.94 302.17 38.28 294.79 40.79 294.56 41.83 306.07 34.92 303.27 32.8 311.65"/><polygon class="cls-5" points="83.49 129.15 83.14 117.61 89.87 120.82 92.48 112.58 100.74 118.96 99.19 120.96 93.8 116.79 91.4 124.34 85.79 121.67 86.01 129.08 83.49 129.15"/><polygon class="cls-5" points="107.8 274.72 105.88 273.07 110.33 267.91 102.91 265.12 105.88 259.65 98.47 259.48 98.53 256.96 110.07 257.22 106.51 263.77 114.6 266.81 107.8 274.72"/><polygon class="cls-5" points="288.51 131.41 285.69 128.29 295.15 119.74 282.28 112.96 288.97 103.65 275.25 101.6 275.87 97.44 296.41 100.51 288.52 111.49 302.44 118.82 288.51 131.41"/><polygon class="cls-5" points="197.34 46.58 196.84 33.06 181.35 35.8 184.63 17.32 188.78 18.05 186.55 30.61 200.86 28.08 201.29 39.53 213.39 32.74 215.45 36.41 197.34 46.58"/><polygon class="cls-5" points="348.19 78.51 345.94 77.35 349.07 71.3 341.21 70.3 342.83 64.3 335.58 65.85 335.06 63.38 346.35 60.96 344.4 68.16 352.97 69.24 348.19 78.51"/><polygon class="cls-5" points="34.93 353.97 33.79 342.48 40.72 345.21 42.75 336.81 51.43 342.6 50.03 344.7 44.36 340.92 42.5 348.62 36.71 346.35 37.45 353.72 34.93 353.97"/><polygon class="cls-5" points="115.02 27.31 103.47 27.15 106.97 20.57 98.85 17.61 105.58 9.63 107.51 11.26 103.11 16.48 110.56 19.19 107.64 24.68 115.05 24.78 115.02 27.31"/><polygon class="cls-5" points="181.35 160.23 180.75 147.49 167.34 153.14 164.39 142.06 154.1 151.36 151.28 148.24 166.68 134.32 170.17 147.38 184.66 141.28 185.56 160.03 181.35 160.23"/></g></g><g class="cls-3"><path class="cls-6" d="M280.83,115.78a4.23,4.23,0,0,0-4.2-4.24,10.09,10.09,0,1,0-17.48-10,8.22,8.22,0,0,0-16,2.48,9.81,9.81,0,0,0,.07,1.09,4.07,4.07,0,0,0-1.57-.31,4.22,4.22,0,0,0-3.61,6.44,3.29,3.29,0,0,0-.63-.07,2.91,2.91,0,0,0-2,5c-1.33,2.53-.51,3.24-1.44,5.84,1,2.44,5.28-.68,7.83-.74,6.71-.15,8.94-4.87,13.48-3.79,3.28.78,3.14,3.51,6.94,5.89,5.78,3.64,12.67,5.69,14.17,2.48a15.7,15.7,0,0,0,1.56-6A4.23,4.23,0,0,0,280.83,115.78Z"/><path class="cls-7" d="M274,128.44a6.82,6.82,0,0,0-6.64-6.83c-7,5.83-10.6-4.37-17.43-4.37-8.9,0-14,1.34-14.62,10.09-3.35,2.13-6.64,4.61-6.72,8.64a5.61,5.61,0,0,0,.88,3.53c2,2.76,7.54,3.62,11.66,1.68a16.76,16.76,0,0,0,26.23-5.92A6.82,6.82,0,0,0,274,128.44Z"/><path class="cls-6" d="M252.05,147.72A19.24,19.24,0,0,1,240.73,144c-4.94,1.61-10.84.33-13.28-3.08a8.08,8.08,0,0,1-1.34-5c.1-5.1,4-8.2,6.84-10,1.26-10.26,9.07-11.15,17-11.15,3.59,0,6.28,2,8.65,3.77,3.38,2.51,4.67,3.28,7.17,1.18l.73-.61.95,0A9.33,9.33,0,0,1,269,137.59,19.32,19.32,0,0,1,252.05,147.72Zm-10.5-9.49,1.23,1.05a14.25,14.25,0,0,0,22.31-5l.65-1.44,1.57,0a4.34,4.34,0,0,0,.8-8.57c-5.24,3.72-9.41.62-12.5-1.68-1.91-1.43-3.72-2.78-5.66-2.78-9.23,0-11.73,1.59-12.13,7.76l-.08,1.26-1.07.68c-3.4,2.16-5.51,4-5.56,6.58a3.24,3.24,0,0,0,.41,2c1.18,1.66,5.36,2.39,8.56.88Z"/><path class="cls-7" d="M166.7,107.67c-4.23-3-7.91-6.45-9.71-15-1.51-7.12-.8-18,4.85-20.23,3-1.16,7.36.13,8.9,2.84,1.84,3.21-1.45,6.4-3.24,13.75C164.87,99.91,166.28,103.13,166.7,107.67Z"/><path class="cls-6" d="M169.69,112.9l-4.45-3.2c-4.3-3.09-8.67-6.91-10.7-16.48-1.56-7.35-1.2-20.12,6.39-23.08,4.25-1.65,9.85.19,12,3.93,1.74,3,.59,5.83-.74,9.07a43.11,43.11,0,0,0-2.24,6.51c-2,8.35-1.54,11.84-1.06,15.2.12.86.23,1.7.31,2.59Zm-5.43-38.35a4.31,4.31,0,0,0-1.51.25c-3.71,1.44-4.81,10.37-3.32,17.38a21.05,21.05,0,0,0,4,9.28,45.12,45.12,0,0,1,1.59-13,49,49,0,0,1,2.47-7.23c1.15-2.8,1.51-3.85,1-4.69C167.89,75.36,166,74.55,164.26,74.55Z"/><path class="cls-7" d="M212.82,119.41c1.15-3,2.23-5.27,1.62-13.76-.51-7-3.29-9.28-1.62-12.54,1.89-3.7,8.07-5.8,11.33-3.64,3.78,2.5,2.21,9.79,1.62,12.54C223.48,112.63,215.76,118.33,212.82,119.41Z"/><path class="cls-6" d="M208.51,123.65l2.15-5.6c1-2.63,1.83-4.72,1.28-12.22a27.16,27.16,0,0,0-1.3-6.39c-.75-2.44-1.45-4.74,0-7.47a11.47,11.47,0,0,1,7.35-5.47,9.44,9.44,0,0,1,7.59.88c5.2,3.44,3.37,12,2.68,15.16-2.65,12.3-11.6,18.14-14.53,19.21Zm12.4-32.55a7,7,0,0,0-1.7.23A6.76,6.76,0,0,0,215,94.25c-.43.85-.31,1.46.38,3.73a32.15,32.15,0,0,1,1.51,7.49,47.25,47.25,0,0,1,0,7.9,24,24,0,0,0,6.35-11.89c1.49-6.92.52-9.22-.55-9.93A3.41,3.41,0,0,0,220.91,91.1Z"/><path class="cls-6" d="M88.23,165.5a12.49,12.49,0,0,0,8.9,7.35c4.28,1.11,7.1-.08,12.37-1.94,5,.11,6.82,2.35,10,3.1,13.14,3,31.07-16.51,32.64-19,12.61-20,12.48-41.32,14.51-47.35,8.25,4,22.58,48.84,5.82,75.62-11,17.54-22.31,15.9-31.44,36.73-1.56,3.57.32,21.76,5,37.37,7.15,23.87,50.6,80.87,55.16,100.7,3.87,16.84-30.11,7.29-45.9,16.73-16.13,9.63-59.89-14-70.11-16-26.52-5.32-40.44-36.53-39.12-54.89.43-6,.48-12.74,7.55-25.21C64.9,258.87,83.73,231.49,79,229.9c-2.4-.8-11,30.66-27.74,34.67C36.11,268.18-2.65,260.66-2.62,256c0-4.1,29.85-.63,41.06-13.64,19.74-22.89,24-33.88,34.71-56C77.33,177.73,83,164.74,88.23,165.5Z"/><path class="cls-6" d="M113.37,127.52c3.58-3.27,3.35-2.16,6.41-7,9.07-14.52-12.26-17.22-22.27-13.67C88.45,110,84.63,119,83.92,121.1c-3.37,10.06-1.77,9.69-5.6,19.36-3.4,8.59-9.23,10.12-8.09,14.29,1.37,5,11,7.49,18.06,6.2a11.62,11.62,0,0,0,10-15.1c-1.55-5.69-6.66-6.58-6.2-9.16C92.78,132.7,104.94,135.21,113.37,127.52Z"/><path class="cls-7" d="M123,125.3a8.74,8.74,0,0,0-3.77-1.92c-3.38-4.21-2.2-3.86-8-3.86-8,0-21.18,2.06-23.72,9.21a5.27,5.27,0,0,0-.56,10.46,18.41,18.41,0,0,0,35.32,1.74l.36.2c2.2.94,4.16-1.38,4.73-3.81C128.2,133.65,126.28,128.09,123,125.3Z"/><path class="cls-6" d="M104.85,155.84A20.84,20.84,0,0,1,84.9,141.21a7.77,7.77,0,0,1,.86-14.73c5-9.19,23.28-9.46,25.45-9.46h1.23c4.42,0,5.18.19,7.62,3.37l.61.79a11.76,11.76,0,0,1,4,2.22h0c3.93,3.34,6.24,9.84,5.15,14.5a8.05,8.05,0,0,1-3.86,5.39,5,5,0,0,1-2.14.56A21,21,0,0,1,104.85,155.84ZM113.33,122h-2.12c-9.28,0-19.6,2.59-21.36,7.54l-.56,1.58-1.67.08a2.77,2.77,0,0,0-.3,5.5L89,137l.39,1.63a15.92,15.92,0,0,0,30.53,1.5l1-2.88,2.78,1.63a3.57,3.57,0,0,0,1.23-2.11c.61-2.58-.77-7.21-3.52-9.54a6.21,6.21,0,0,0-2.6-1.37l-.92-.17-.58-.73c-.47-.58-.86-1.08-1.18-1.51a12.11,12.11,0,0,0-1.12-1.35A9.81,9.81,0,0,0,113.33,122Z"/><path class="cls-6" d="M266.89,155.89c6.79-.34,7.54.62,11.68-2.18,5.5-3.72,4-6.66,4.63-10.59,4.16-1.75,10.95,8.85,24.65,22.22,11.73,11.44,22.92,22.36,37.59,22.73,8.07.2,14-2.86,16.61.44s.74,11.36-3.93,15.3c-12.75,10.72-30.78,15.82-48.52-5.69-4.85,8.15,23.19,18.59,32.71,45.51,4.09,11.55,6.35,55.8-11.73,80.39-20.52,27.89-76.92,26.75-106.66,2.18-18.94-15.63-29.56-42.82-24-48.08,2.92-2.78,8.15,2.67,18.36,1.75,16.23-1.47,23.62-15.19,28.93-27.78a81.88,81.88,0,0,0,6.48-39.1c-8-12.78-22.07-7.68-35.41-18.8-23.83-19.88-14-69.91-9.42-70.65,1.23,8.17,1.18,25.57,20.35,38.74,9.32,6.4,23.1,10.32,28.85,5.24C261.32,164.6,262.44,158.77,266.89,155.89Z"/></g><path class="cls-7" d="M103.68,154.84c-.34,7.47-.09,9,5.28,17.82-2.41,7-17.34-.58-20.36-3.91,4.56-6,4.32-11.48,4.32-19.8C96.58,152.78,101,155.58,103.68,154.84Z"/><path class="cls-6" d="M104.13,178.05c-6.48,0-15-5.05-17.38-7.62l-1.4-1.54,1.26-1.66c3.83-5,3.82-9.57,3.81-17.1V142.7l4.31,4.52c3.9,4.09,7.18,5.51,8.29,5.2l3.31-.9-.16,3.43c-.31,7-.18,8.05,4.92,16.4l.62,1-.38,1.11a6.58,6.58,0,0,1-5.12,4.38A10.71,10.71,0,0,1,104.13,178.05Zm-12.19-9.74c3.21,2.27,9.8,5.35,13.26,4.64a2.33,2.33,0,0,0,.83-.31c-4.3-7.16-5-9.69-4.94-15.36a15.5,15.5,0,0,1-5.7-2.81C95.28,159.59,94.7,163.87,91.94,168.31Z"/><path class="cls-7" d="M262,142.87c3.35,6.69,3.75,8.21,2.42,18.43,5.07,5.45,16.32-11.41,17.72-15.68-6.6-3.63-9.34-7.82-14.29-8.83C266.1,141.78,264.69,141.27,262,142.87Z"/><path class="cls-6" d="M266.85,164.87a5.67,5.67,0,0,1-4.23-1.87l-.8-.86L262,161c1.27-9.71,1-10.72-2.18-17l-1-2.07,2-1.19a17.31,17.31,0,0,1,1.82-.95c1.4-.67,1.93-.92,3-3.83l.73-2,2.12.44c3.44.7,5.93,2.64,8.57,4.69a46.32,46.32,0,0,0,6.43,4.39l1.82,1-.65,2c-1.11,3.39-9.24,16.76-16.29,18.31A6.29,6.29,0,0,1,266.85,164.87ZM265.35,144c2.42,5.13,2.79,7.73,1.81,15.86h0c3.5-.77,9.48-8.8,11.8-13.19a59.91,59.91,0,0,1-5.11-3.66,25,25,0,0,0-4.58-3.1A8.13,8.13,0,0,1,265.35,144Z"/></svg>