<svg id="Layer_1" data-name="Layer 1" xmlns="http://www.w3.org/2000/svg" xmlns:xlink="http://www.w3.org/1999/xlink" viewBox="0 0 355.03 355.03"><defs><style>.cls-1{fill:none;}.cls-2{fill:#f6f6f6;}.cls-3{clip-path:url(#clip-path);}.cls-4{opacity:0.28;}.cls-5{fill:#ffd275;}.cls-6{fill:#077594;}.cls-7{fill:#fff;}.cls-8{fill:#e05e48;}</style><clipPath id="clip-path"><circle class="cls-1" cx="177.52" cy="177.52" r="177.52"/></clipPath></defs><circle class="cls-2" cx="177.52" cy="177.52" r="177.52"/><g class="cls-3"><g class="cls-4"><rect class="cls-5" x="7.01" y="158.96" width="90.07" height="3.95" transform="matrix(0.8, -0.6, 0.6, 0.8, -86.58, 64.03)"/><rect class="cls-5" x="87.76" y="98.88" width="90.07" height="3.95" transform="translate(-33.96 100.59) rotate(-37.13)"/><rect class="cls-5" x="172.54" y="50.11" width="50.75" height="3.95" transform="translate(8.68 130.01) rotate(-37.13)"/><rect class="cls-5" x="143.21" y="52.65" width="38.36" height="3.95" transform="translate(-0.06 109.08) rotate(-37.13)"/><rect class="cls-5" x="58.86" y="94.72" width="87.44" height="3.95" transform="translate(-37.5 80.89) rotate(-36.87)"/><rect class="cls-5" x="215.96" y="2.14" width="87.44" height="3.95" transform="translate(49.45 156.61) rotate(-36.87)"/><rect class="cls-5" x="174.43" y="10.98" width="87.44" height="3.95" transform="translate(35.85 133.46) rotate(-36.87)"/><rect class="cls-5" x="21.64" y="138.32" width="40.84" height="3.95" transform="translate(-75.76 53.3) rotate(-36.87)"/><rect class="cls-5" x="-3.1" y="110.27" width="90.07" height="3.95" transform="translate(-57.7 45.69) rotate(-35.77)"/><rect class="cls-5" x="79.04" y="52.12" width="90.07" height="3.95" transform="translate(-8.22 82.72) rotate(-35.76)"/><rect class="cls-5" x="164.95" y="4.89" width="50.75" height="3.95" transform="translate(31.89 112.55) rotate(-35.77)"/><rect class="cls-5" x="135.57" y="6.59" width="38.36" height="3.95" transform="translate(24.19 92.08) rotate(-35.77)"/><rect class="cls-5" x="50.25" y="47.24" width="87.44" height="3.95" transform="translate(-11.11 63.73) rotate(-35.51)"/><rect class="cls-5" x="61.69" y="16.84" width="87.44" height="3.95" transform="translate(8.68 64.74) rotate(-35.51)"/><rect class="cls-5" x="-19.64" y="76.97" width="87.44" height="3.95" transform="translate(-41.38 28.67) rotate(-35.51)"/><rect class="cls-5" x="12.02" y="89.4" width="40.85" height="3.95" transform="translate(-47.05 35.84) rotate(-35.51)"/><rect class="cls-5" x="-10.34" y="283.67" width="90.07" height="3.95" transform="translate(-171.66 85.11) rotate(-38.89)"/><rect class="cls-5" x="68.51" y="221.13" width="90.07" height="3.95" transform="translate(-114.91 120.75) rotate(-38.89)"/><rect class="cls-5" x="151.74" y="170.36" width="50.75" height="3.95" transform="translate(-68.94 149.42) rotate(-38.89)"/><rect class="cls-5" x="122.51" y="174" width="38.36" height="3.95" transform="translate(-79.08 127.98) rotate(-38.89)"/><rect class="cls-5" x="39.49" y="217.9" width="87.44" height="3.95" transform="translate(-119.07 100.08) rotate(-38.64)"/><rect class="cls-5" x="193.65" y="120.5" width="87.44" height="3.95" transform="translate(-24.53 174.96) rotate(-38.62)"/><rect class="cls-5" x="152.42" y="130.62" width="87.44" height="3.95" transform="translate(-39.86 151.44) rotate(-38.62)"/><rect class="cls-5" x="3.65" y="263.34" width="40.84" height="3.95" transform="translate(-160.35 73.07) rotate(-38.62)"/><rect class="cls-5" x="-21.95" y="235.32" width="90.07" height="3.95" transform="translate(-139.81 63.2) rotate(-37.54)"/><rect class="cls-5" x="58.35" y="174.65" width="90.07" height="3.95" transform="translate(-86.22 99.58) rotate(-37.54)"/><rect class="cls-5" x="142.76" y="125.39" width="50.75" height="3.95" transform="translate(-42.79 128.84) rotate(-37.54)"/><rect class="cls-5" x="113.45" y="128.2" width="38.36" height="3.95" transform="translate(-51.85 107.77) rotate(-37.54)"/><rect class="cls-5" x="29.42" y="170.71" width="87.44" height="3.95" transform="translate(-89.66 79.6) rotate(-37.29)"/><rect class="cls-5" x="185.83" y="76.97" width="87.44" height="3.95" transform="translate(-0.91 155.2) rotate(-37.29)"/><rect class="cls-5" x="144.37" y="86.11" width="87.44" height="3.95" transform="matrix(0.8, -0.61, 0.61, 0.8, -14.92, 131.95)"/><rect class="cls-5" x="-7.48" y="214.75" width="40.85" height="3.95" transform="translate(-128.64 52.14) rotate(-37.29)"/><rect class="cls-5" x="66.25" y="334.57" width="90.07" height="3.95" transform="translate(-190.27 150.23) rotate(-39.99)"/><rect class="cls-5" x="143.89" y="270.53" width="90.07" height="3.95" transform="translate(-130.95 185.15) rotate(-39.99)"/><rect class="cls-5" x="226.14" y="218.56" width="50.75" height="3.95" transform="translate(-82.91 213.22) rotate(-39.99)"/><rect class="cls-5" x="196.98" y="222.87" width="38.36" height="3.95" transform="translate(-93.95 191.51) rotate(-39.99)"/><rect class="cls-5" x="114.81" y="267.89" width="87.44" height="3.95" transform="translate(-135.86 163.61) rotate(-39.72)"/><rect class="cls-5" x="267.08" y="167.55" width="87.44" height="3.95" transform="translate(-36.59 237.76) rotate(-39.72)"/><rect class="cls-5" x="226.05" y="178.46" width="87.44" height="3.95" transform="translate(-53.03 214.12) rotate(-39.73)"/><rect class="cls-5" x="79.86" y="314.46" width="40.85" height="3.95" transform="translate(-179.07 137.13) rotate(-39.72)"/><rect class="cls-5" x="53.71" y="286.45" width="90.07" height="3.95" transform="translate(-158.49 124.81) rotate(-38.64)"/><rect class="cls-5" x="132.84" y="224.26" width="90.07" height="3.95" transform="translate(-102.33 160.61) rotate(-38.64)"/><rect class="cls-5" x="216.3" y="173.77" width="50.75" height="3.95" transform="translate(-56.83 189.4) rotate(-38.64)"/><rect class="cls-5" x="187.05" y="177.25" width="38.36" height="3.95" transform="translate(-66.77 168.02) rotate(-38.64)"/><rect class="cls-5" x="103.84" y="220.9" width="87.44" height="3.95" transform="translate(-106.5 139.81) rotate(-38.39)"/><rect class="cls-5" x="258.43" y="124.18" width="87.44" height="3.95" transform="translate(-13.03 214.88) rotate(-38.38)"/><rect class="cls-5" x="217.15" y="134.12" width="87.44" height="3.95" transform="translate(-28.12 191.4) rotate(-38.38)"/><rect class="cls-5" x="67.8" y="266.08" width="40.85" height="3.95" transform="translate(-147.38 112.71) rotate(-38.38)"/><rect class="cls-5" x="265.77" y="298" width="90.07" height="3.95" transform="translate(-121 288.78) rotate(-42.5)"/><rect class="cls-5" x="192.33" y="367.03" width="90.07" height="3.95" transform="translate(-186.93 257.3) rotate(-42.5)"/><rect class="cls-5" x="229.69" y="322.16" width="50.75" height="3.95" transform="translate(-151.97 257.46) rotate(-42.5)"/><rect class="cls-5" x="200.75" y="328.01" width="38.36" height="3.95" transform="translate(-165.17 235.32) rotate(-42.51)"/><rect class="cls-5" x="309.27" y="282.87" width="87.44" height="3.95" transform="translate(-99.83 311.28) rotate(-42.24)"/><rect class="cls-5" x="268.34" y="268.61" width="87.44" height="3.95" transform="translate(-100.86 280.07) rotate(-42.25)"/><rect class="cls-5" x="227.82" y="281.3" width="87.44" height="3.95" transform="translate(-119.92 256.13) rotate(-42.25)"/><rect class="cls-5" x="306.2" y="329.04" width="40.85" height="3.95" transform="translate(-137.71 305.56) rotate(-42.25)"/><rect class="cls-5" x="-2.97" y="37.21" width="90.07" height="3.95" transform="translate(-14.82 30.89) rotate(-34.68)"/><rect class="cls-5" x="136.71" y="331.07" width="90.07" height="3.95" transform="translate(-174.26 201.85) rotate(-41.15)"/><rect class="cls-5" x="217.9" y="277.84" width="50.75" height="3.95" transform="translate(-124.04 229.19) rotate(-41.15)"/><rect class="cls-5" x="188.83" y="282.87" width="38.36" height="3.95" transform="translate(-136.06 207.25) rotate(-41.15)"/><rect class="cls-5" x="107.59" y="329.04" width="87.44" height="3.95" transform="translate(-179.77 179.83) rotate(-40.89)"/><rect class="cls-5" x="257.8" y="225.65" width="87.44" height="3.95" transform="translate(-75.43 252.97) rotate(-40.9)"/><rect class="cls-5" x="216.99" y="237.39" width="87.44" height="3.95" transform="translate(-93.07 229.12) rotate(-40.9)"/><rect class="cls-5" x="281.09" y="331.07" width="40.85" height="3.95" transform="translate(-144.44 278.65) rotate(-40.89)"/><rect class="cls-5" x="271.79" y="30.3" width="38.36" height="3.95" transform="translate(39.49 182.16) rotate(-37.13)"/><rect class="cls-5" x="303.01" y="-11.37" width="87.44" height="3.95" transform="translate(74.98 206.16) rotate(-36.87)"/><rect class="cls-5" x="297.63" y="90.99" width="38.36" height="3.95" transform="translate(8.1 210.05) rotate(-37.13)"/><rect class="cls-5" x="268.03" y="62.7" width="87.44" height="3.95" transform="translate(23.54 199.99) rotate(-36.87)"/><rect class="cls-5" x="301.69" y="214.75" width="90.07" height="3.95" transform="translate(-56.96 281.71) rotate(-41.15)"/><rect class="cls-5" x="297.63" y="190.6" width="38.36" height="3.95" transform="translate(-48.46 256.05) rotate(-41.15)"/><rect class="cls-5" x="300.7" y="116.51" width="87.44" height="3.95" transform="translate(3.79 247.46) rotate(-39.72)"/><rect class="cls-5" x="231.96" y="67.12" width="87.44" height="3.95" transform="translate(19.51 192.18) rotate(-39.73)"/><rect class="cls-5" x="226.05" y="21.84" width="87.44" height="3.95" transform="translate(40.71 168.3) rotate(-37.29)"/><rect class="cls-5" x="-15.84" y="314.46" width="90.07" height="3.95" transform="translate(-186.78 83.33) rotate(-37.54)"/><rect class="cls-5" x="-21.95" y="349.59" width="90.07" height="3.95" transform="translate(-209.45 86.88) rotate(-37.54)"/><rect class="cls-5" x="-5.01" y="360.71" width="90.07" height="3.95" transform="translate(-212.72 99.51) rotate(-37.54)"/><rect class="cls-5" x="-10.27" y="14.79" width="90.07" height="3.95" transform="translate(-3.02 24.66) rotate(-37.54)"/></g></g><g class="cls-3"><path class="cls-6" d="M181.8,76.63c0-.08-12.48,3.14-17.77-2.31-4.65-4.8-2.32-14.87.18-20.57C172.16,35.63,195.3,31.22,199,30.52c9-1.71,27.83-5.3,40.14,7.76,10.55,11.19,11.43,29.44,4.52,40.83-7.36,12.14-8,20.65-24.36,30-7.94,4.5-14.18-1.53-17.5,23.9-1.28,9.8-19.36,54.84-76.27,30.57-15.07-6.42-18.94,10.31-42.21,8.49-11.44-.89-5.92-31,10.73-42.9,31.72-22.71,48.35-3.71,59.65-8.44,10.21-4.28,13.1-11.56,13.17-22.59,0-6.71-9.31-21.76-3.27-28.07C170.37,62.92,181.8,76.72,181.8,76.63Z"/><path class="cls-7" d="M227.57,68.94a9.16,9.16,0,0,0-10.16-8,8.79,8.79,0,0,0-1.46.3c-5.24-4.07-.51,11.61-7.62,12.43-12.67,1.47-33.69-6.05-34.66,6.21-2.49,3.75-4.86,7.29-4.37,11.58.58,5,2,16,7,15.44a11.81,11.81,0,0,0,7.2-4.36A26.23,26.23,0,0,0,225.42,76,9.17,9.17,0,0,0,227.57,68.94Z"/><path class="cls-6" d="M199.79,110.71a28.48,28.48,0,0,1-16-4.91,13.37,13.37,0,0,1-7.19,3.54c-2.41.28-5.75-.77-7.84-7.35a57.18,57.18,0,0,1-1.92-10.29c-.58-5,1.91-8.94,4.43-12.75a8.93,8.93,0,0,1,3.08-5.87c4.46-3.77,12.34-3.07,20.69-2.33,4.57.4,9.29.82,13,.39,1.61-.19,2-3,2.36-6.39.3-3,.55-5.51,2.77-6.46a3.62,3.62,0,0,1,3.22.22l.72-.11a11.67,11.67,0,0,1,12.93,10.25h0a11.71,11.71,0,0,1-1.94,7.89c.13.71.24,1.41.32,2.09a28.77,28.77,0,0,1-25.27,31.89A29.41,29.41,0,0,1,199.79,110.71ZM183.14,99l1.91,1.52a23.77,23.77,0,0,0,38.41-21.33,24.68,24.68,0,0,0-.47-2.7l-.29-1.23.82-1a6.59,6.59,0,0,0,1.57-5.09h0a6.65,6.65,0,0,0-2.49-4.46,6.57,6.57,0,0,0-4.9-1.4,7.56,7.56,0,0,0-1.07.22l-1.1.31c-.05.47-.1.95-.14,1.35-.38,3.81-1,10.19-6.77,10.86-4.23.49-9.22,0-14.05-.38-6.95-.62-14.14-1.26-17,1.17a4.16,4.16,0,0,0-1.4,3.13l0,.64-.42.63c-2.3,3.47-4.29,6.47-3.9,9.83a54.45,54.45,0,0,0,1.72,9.35c.76,2.41,1.72,4,2.49,3.89a9.34,9.34,0,0,0,5.57-3.48Z"/><path class="cls-6" d="M208,124.63c8.74,3.17,11.82,4.62,17.11,2.26,7.42-3.29,7.32-6.77,11.06-13.33,14.32-2.27,47.66,48.07,47,107.5-.29,25.37,8.62,35.83,18.12,55.13,11.34,23,16.93,28.74,18.29,42.27,2.3,23-50.68,49.06-90.51,60-13.92,3.82-84.05,21.68-144.9-13.73-2.74-1.59-32.71-19.28-29.49-30,2.19-7.31,18-5.4,57.45-15.25,16.74-4.18,26.28-6.63,38.64-12.71a145.33,145.33,0,0,0,35.59-24.91c15.41-14.62,27.19-26.63,23.39-29.49-.62-.47-11.07,18.12-32.54,30.5-4.22,2.44-19.64,11.11-39.66,11.7-39.57,1.17-69.35-28-70.67-37.12,17,1.66,23,4.69,56.94-3,13.54-3.08,32.53-9.74,32-15.25-10.89-1-51.79,1.32-54.12-18.48,13.68,2.37,32.15,3.75,60.73-12.54,10.06-5.74,25.31-14.43,31.52-31C202.58,154.22,205.86,136.09,208,124.63Z"/><path class="cls-7" d="M72.31,260.71c-4.39,1.67-19.55-11-22-27-.74-4.89-1.94-12.79,2.62-16.24,4.93-3.74,14.68-.79,18.27,4.93,2.17,3.45,1.09,6.31,0,16.54C69.32,256.87,70.94,257.76,72.31,260.71Z"/><path class="cls-6" d="M71.42,263.35a11.05,11.05,0,0,1-5.37-1.78c-7.46-4.36-16.37-15.47-18.2-27.5-.81-5.34-2.17-14.27,3.58-18.62,2.56-1.94,6.17-2.61,10.13-1.89a18,18,0,0,1,11.77,7.49c2.17,3.45,1.79,6.46,1,12.45-.2,1.6-.43,3.46-.67,5.68-1.64,15.49-.58,17.57.44,19.58.15.29.3.58.44.89l1.14,2.44-2.52,1A4.9,4.9,0,0,1,71.42,263.35ZM58.53,218.28a6.79,6.79,0,0,0-4.09,1.16c-3.37,2.55-2.29,9.64-1.65,13.88,1.49,9.78,8.17,18.53,14.14,22.85.48.35.93.65,1.34.9-.62-3.12-.64-8.07.46-18.42.24-2.25.47-4.15.68-5.78.72-5.72.86-7.3-.31-9.16a13,13,0,0,0-8.44-5.23A12.34,12.34,0,0,0,58.53,218.28Z"/><path class="cls-7" d="M107.89,224.78c-7.37,3.2-17.93,8.47-29.16.57-2.43-1.72-16.51-12.16-15.18-17.46s12.93-8,19.45-3.79c4.64,3,4,5.29,10.79,13.82C98.58,223.89,108.4,223.44,107.89,224.78Z"/><path class="cls-6" d="M91.27,232a23.74,23.74,0,0,1-14-4.59A91.61,91.61,0,0,1,68,219.77c-5.51-5.25-7.69-9.22-6.87-12.49.67-2.66,3-4.89,6.55-6.3,4.64-1.84,11.6-2.24,16.67,1,3.13,2,4.29,3.9,5.9,6.52a69.66,69.66,0,0,0,5.49,7.84c2.55,3.18,7.06,4.2,10.05,4.87,2.22.5,3.56.8,4.29,2.15a2.74,2.74,0,0,1,.14,2.29l-.37,1-2,.89C103.42,229.47,97.68,232,91.27,232Zm-16-27.4a16.11,16.11,0,0,0-5.77,1c-1.93.76-3.29,1.86-3.54,2.87-.54,2.14,6.22,9.2,14.19,14.8,7.39,5.2,14.41,4,20.53,1.77a17.89,17.89,0,0,1-8.86-5.58A75.6,75.6,0,0,1,86,211.14c-1.49-2.43-2.17-3.54-4.34-4.94A11.92,11.92,0,0,0,75.29,204.58Z"/><path class="cls-8" d="M35,201.33l24.71-15.71a4.11,4.11,0,0,1,5.16.6l39.49,40.64a4.09,4.09,0,0,1,.4,5.25L87.89,255.72a4.13,4.13,0,0,1-6.3.48L34.22,207.67A4.12,4.12,0,0,1,35,201.33Z"/></g><path class="cls-7" d="M209.92,107.05c4.91,5.08.24,18,0,22.21,8,3.58,29.49.61,28.86-10.75-.35-3.18-9.81-7.94-12.75-20.32C220.87,102.27,219.37,105.48,209.92,107.05Z"/><path class="cls-6" d="M218.47,133.19a24.29,24.29,0,0,1-9.56-1.65l-1.57-.7.09-1.72a36.33,36.33,0,0,1,.83-4.87c1-4.71,2.63-12.59-.14-15.46l-3.31-3.42,4.7-.78c6.71-1.12,8.79-3,11.94-5.77.88-.79,1.87-1.67,3-2.59l3.07-2.44.91,3.82c1.74,7.33,5.94,11.72,9,14.92,2.08,2.17,3.58,3.74,3.79,5.71v.13c.23,4-1.68,7.56-5.51,10.2C231.19,131.72,224.45,133.19,218.47,133.19Zm-5.78-5.62c5.47,1.4,15.09.43,20.24-3.12,2.35-1.61,3.45-3.47,3.37-5.68a20.11,20.11,0,0,0-2.43-2.78c-2.76-2.88-6.71-7-9.11-13.43-2.84,2.53-5.36,4.77-10.93,6.22,1.75,4.88.38,11.43-.68,16.49C213,126.08,212.82,126.87,212.69,127.57Z"/></svg>