<svg xmlns="http://www.w3.org/2000/svg" viewBox="0 0 208.38 350.34"><defs><style>.cls-1{fill:#fff;}.cls-2{fill:#077594;}.cls-3{fill:#e05e48;}</style></defs><g id="Layer_2" data-name="Layer 2"><g id="Layer_1-2" data-name="Layer 1"><path class="cls-1" d="M128.41,133c-9.37,6.23-27.66,8.22-37.12,1.61C77.4,124.92,75.14,115.7,69.55,98.18c-3.47-1.15-6.15-.75-9.9-3.41-5-3.55-8.79-10.36-8.35-15.86C64,65.09,84.71,56.57,90.5,55.24c16.33-3.78,36.49-8.43,47.76,2.2,12.86,12.15,18.54,28.39,15.66,42.11,4.88,2.22,10.23,6,12.43,9.29,4.64,6.88-1.55,19.63-10.55,20.4-5.71.49-10.61-2.18-14.55-5.5C137,128.82,134,129.33,128.41,133Z"/><path class="cls-2" d="M107.09,142.26c-6.63,0-13.08-1.45-17.8-4.75-14.06-9.84-17.1-19.43-22.14-35.31l-.36-1.14c-.38-.09-.76-.16-1.15-.24a18.55,18.55,0,0,1-8-3.19c-6.21-4.41-10.34-12.4-9.82-19l.1-1.2.82-.89c13.45-14.6,35.05-23.34,41-24.71,17.07-3.95,38.32-8.85,51,3.07S159.77,83,157.81,97.58c4.34,2.33,9.07,5.79,11.44,9.3,2.79,4.14,2.89,10.12.26,15.62-2.79,5.84-7.93,9.76-13.41,10.23-4.89.42-9.73-1-14.46-4.29a31.8,31.8,0,0,1-6.95,4.87c-1.33.76-2.71,1.55-4.34,2.63h0C124.46,139.86,115.62,142.26,107.09,142.26ZM54.78,80.32c.25,4,3.14,8.93,6.9,11.6A11.87,11.87,0,0,0,67,94a31.29,31.29,0,0,1,3.63.9l1.7.56,1.49,4.67c4.89,15.46,7.35,23.22,19.47,31.69,6.78,4.74,23.09,5.06,33.17-1.66,1.83-1.21,3.39-2.1,4.76-2.88a22.66,22.66,0,0,0,7.35-5.75l2.25-2.68,2.68,2.26c4.14,3.5,8.07,5,12,4.7,3-.26,6-2.72,7.7-6.28,1.54-3.22,1.64-6.63.25-8.68-1.7-2.52-6.42-6-11-8.06l-2.55-1.16.58-2.75C153.2,86,147.59,71.06,135.85,60c-9.9-9.35-29.12-4.91-44.56-1.34C86.76,59.69,67.3,67.38,54.78,80.32Z"/><path class="cls-2" d="M95,50.9C90.9,35.07,113.62-1.91,142.94.08c30.06,2,44.82,37.13,50.94,51.68,3.94,9.36,22,52.26,0,76.05-16,17.3-48.78,19.72-56.85,8.86-4.76-6.41-1.9-9.5,4.22-12.93,5.61-3.16,13.47,13.16,24.88-1.71,7.66-10-6.12-26-12.21-22.48-6.37,3.64-12.21,6.82-15,5.34-1.7-.92,3.51-13-.45-27.29C132.76,56.85,122.87,48,95,50.9Z"/><path class="cls-1" d="M40,177.89c2.52-14.79,13.79-38.84,35.71-41.42,15.73-1.85,35.87,7.48,37.61,21.43,1,8.15-4.21,18.24-11.9,20.95-9.34,3.28-14.47-7.08-26.19-6.19-17.78,1.35-25.15,13.1-32.85,24.28C40.44,190.82,38.9,184.33,40,177.89Z"/><path class="cls-2" d="M41.2,204.81,39,198c-1.94-6.11-3.75-13.34-2.5-20.69h0a67.6,67.6,0,0,1,11.19-26.75c7.34-10.23,16.87-16.3,27.56-17.56a46.31,46.31,0,0,1,26.11,5.17c9,4.78,14.43,11.63,15.38,19.3,1.28,10.21-5.23,21.52-14.21,24.68-6.29,2.21-11.15-.36-15.44-2.64-3.61-1.91-7-3.71-11.64-3.36-15.41,1.17-22.16,11-29.32,21.44Zm39-65.1a35.83,35.83,0,0,0-4.12.24c-19.55,2.3-30.25,24.3-32.67,38.53h0a28.8,28.8,0,0,0,.37,10.26C50.55,179.42,59,170.38,75,169.17c6.64-.5,11.53,2.08,15.45,4.16,4.23,2.24,6.59,3.36,9.84,2.21,5.78-2,10.44-10.39,9.59-17.21C108.71,149.24,95.31,139.71,80.23,139.71Z"/><path class="cls-2" d="M119.62,172.42c6.25.49,8.62,4,16.45,3,10.05-1.36,14.68-8.72,18.09-14.28,12.31-2.73,34.89,30.26,45.23,69,10.43,39.1,13.64,63.36-.48,82.84-15.49,21.38-143.69,57.49-165.1,23.2-22.22-35.61,42.72-61.76,79.63-141.72C120.27,180,119,178.7,119.62,172.42Z"/><path class="cls-2" d="M42.37,196.94c-5.92-5.07-30.48,38-36.51,65.14-4.54,20.45-13.21,50.66,6.5,65,48.12,35,55.09,19.23,72.15,0,14.63-16.49,13.67-46.76,3.26-52.66-5.09-2.88-8.91,2.05-15.61.65C50.06,270.47,35.89,225.63,42.37,196.94Z"/><path class="cls-3" d="M18.29,59.24c.54-8,3.37-12.82,12.47-14.84l3.93-.79c4-.91,6.1-3.6,6.58-6.36.87-5-2.14-8.39-7-9.22A8.89,8.89,0,0,0,24,35.43l-12.5-2.15c2.42-14,13.06-20.11,25.15-18S56.4,26.56,54.28,38.86c-1.71,9.93-8.8,15.57-17.16,17-4.12.66-7.06,1.21-7.79,5.41l-.43,1.92-11-1.88ZM12.06,77A8.35,8.35,0,0,1,22,70.31c4.72.82,8.13,4.88,7.3,9.7a8.56,8.56,0,0,1-10.14,6.8A8.44,8.44,0,0,1,12.06,77Z"/><path class="cls-1" d="M143.79,129.86c1,9.17,2.12,17.49,11.09,32.09-8.24,12.3-16.86,19.3-31.92,11.17.36-17.54,1.38-23.38-3.53-33"/><path class="cls-2" d="M134.86,180.11c-4,0-8.47-1.16-13.57-3.91l-1.88-1,0-2.14c.05-2.47.11-4.71.17-6.76.36-12.44.5-17.1-3.32-24.6l6.24-3.18c4.63,9.1,4.44,15.41,4.08,28,0,1.41-.08,2.91-.12,4.51,9.73,4.61,16.2,2.13,24.21-9.17-8.49-14.41-9.47-23.13-10.41-31.57l6.95-.78c1,8.43,1.84,16.38,10.6,30.64L159,162l-1.25,1.86C152.17,172.28,145.18,180.11,134.86,180.11Z"/></g></g></svg>