<svg width="114" height="114" viewBox="0 0 114 114" fill="none" xmlns="http://www.w3.org/2000/svg">
<circle cx="57" cy="57" r="57" fill="#F6F6F6"/>
<mask id="mask0" mask-type="alpha" maskUnits="userSpaceOnUse" x="0" y="0" width="114" height="114">
<circle cx="57" cy="57" r="57" fill="#C4C4C4"/>
</mask>
<g mask="url(#mask0)">
<path d="M11.2062 105.11C8.8429 93.5647 27.3507 81.9475 38.3083 77.5404C41.1216 79.9449 44.189 80.9273 48.3248 80.7453C53.4773 80.522 56.95 79.0793 58.4065 77.6538C59.5813 77.7671 71.1778 94.1074 75.8151 93.3895C82.3072 92.383 87.8685 68.314 84.4644 58.2872C90.3039 56.9648 110.368 85.6985 100.234 105.117L55.5 119L11.2062 105.11Z" fill="#077594"/>
<path d="M39.6861 68.8148C41.7059 70.5975 46.8171 70.7418 49.8915 69.5018C53.3711 68.1278 56.5347 64.8783 56.995 61.9448C61.2476 58.8361 64.102 59.3136 63.865 56.6995C63.3807 51.1211 59.743 49.5891 53.0448 47.8922C51.5574 47.5143 43.5161 45.6663 38.0167 50.4753C36.1927 52.076 34.9252 55.7824 32.4245 63.1848C30.5146 64.2531 30.2364 67.1282 31.7272 69.1205C32.7371 70.4636 36.0759 72.4696 39.6861 68.8148Z" fill="white"/>
<path d="M35.4055 71.7524C35.2819 71.7524 35.1651 71.7524 35.062 71.7524C34.2815 71.6978 33.5209 71.4815 32.8284 71.1172C32.136 70.7529 31.5268 70.2487 31.0397 69.6364C30.5673 69.0165 30.2313 68.3037 30.0537 67.5448C29.8761 66.7858 29.8609 65.9979 30.0092 65.2328C30.2146 64.1763 30.8232 63.2412 31.706 62.6256C34.1999 55.2678 35.4845 51.5546 37.4494 49.8268C43.0278 44.9491 50.9558 46.4708 53.2504 47.0548C59.6154 48.6726 64.1633 50.3043 64.7129 56.6212C64.9019 58.8059 63.3836 59.4997 61.6214 60.3035C60.2644 60.8855 58.9688 61.6012 57.7536 62.4401C57.0666 65.5007 53.903 68.8326 50.1966 70.3131C46.5899 71.7524 42.0282 71.2955 39.7474 69.925C38.102 71.3883 36.5425 71.7524 35.4055 71.7524ZM47.6754 48.0784C44.7934 48.0784 41.3447 48.7139 38.5932 51.1218C36.941 52.5645 35.6288 56.4392 33.2484 63.4878L33.1419 63.8038L32.8499 63.9618C32.5515 64.1373 32.2945 64.3752 32.0965 64.6591C31.8985 64.9431 31.7641 65.2665 31.7026 65.6072C31.6008 66.1313 31.6112 66.6711 31.7331 67.191C31.8551 67.7108 32.0859 68.1989 32.4102 68.6231C32.7487 69.0332 33.1667 69.3705 33.6389 69.6149C34.1112 69.8593 34.628 70.0057 35.1582 70.0452C36.4807 70.1311 37.7929 69.5231 39.0638 68.2315L39.634 67.651L40.242 68.1903C41.8942 69.6433 46.5968 69.9078 49.5612 68.7365C52.8519 67.4243 55.7442 64.3912 56.1357 61.8287L56.1907 61.4852L56.4758 61.2756C57.8615 60.2811 59.3507 59.4393 60.9173 58.7647C62.7653 57.9197 63.0882 57.6998 63.0092 56.793C62.5832 51.7401 59.4333 50.3936 52.845 48.7207C51.1539 48.2992 49.4182 48.0835 47.6754 48.0784Z" fill="#077594"/>
<path d="M84.536 58.266C82.5849 55.8134 81.022 51.7807 75.7733 48.0503C72.2696 45.5565 69.5903 45.6218 69.3567 43.9764C69.051 41.8192 73.2108 38.3121 76.3916 38.9304C82.4475 40.112 85.7898 53.512 84.536 58.266Z" fill="white"/>
<path d="M84.9314 60.1591L83.8666 58.816C83.3204 58.129 82.8086 57.3355 82.2693 56.4939C80.8094 54.2268 78.9992 51.4101 75.2757 48.7617C74.0675 47.9248 72.7703 47.2244 71.4079 46.6733C69.8999 46.0206 68.7114 45.5054 68.5087 44.1142C68.3438 42.9738 68.9896 41.6135 70.2846 40.3769C71.6964 39.0338 74.1833 37.6289 76.5569 38.0892C78.5252 38.4739 80.3148 39.9235 81.8743 42.407C84.9898 47.3671 86.2883 54.9963 85.3677 58.5L84.9314 60.1591ZM75.6054 39.7174C74.1352 39.7174 72.5139 40.6174 71.4834 41.6204C70.6384 42.4276 70.1403 43.3104 70.2228 43.8669C70.2846 44.2894 70.9098 44.5814 72.1052 45.0966C73.5705 45.6978 74.9655 46.458 76.2649 47.3637C80.2564 50.201 82.1697 53.1757 83.7052 55.563L83.9319 55.9065C83.9525 52.3548 82.6747 46.9137 80.411 43.3104C79.5213 41.8918 78.0718 40.1262 76.2203 39.7655C76.0174 39.7292 75.8115 39.7131 75.6054 39.7174Z" fill="#077594"/>
<path d="M30.4219 67.8088C31.7959 69.7908 29.5219 64.999 32.4348 63.1956C37.3743 68.0184 38.4804 54.0929 42.6024 51.3964C46.6282 48.7721 49.596 47.3809 53.0619 47.8858C54.0375 46.2748 52.5707 44.7085 50.6403 43.2726C46.5938 40.267 39.2704 42.0979 33.005 49.7648C28.6151 55.1371 28.3609 64.8376 30.4219 67.8088Z" fill="#077594"/>
<path d="M37.628 49.4691C38.5211 47.8065 39.2974 46.3776 38.686 45.2749C37.865 43.815 35.0036 43.8082 33.1213 44.4471C30.1122 45.4776 27.3299 48.9332 28.1577 52.1827C28.5012 53.5292 29.5729 55.2742 31.1496 55.5627C34.0728 56.0952 36.6799 51.2381 37.628 49.4691Z" fill="#077594"/>
<path d="M30.2771 49.0914C30.345 48.2792 30.1414 47.4675 29.6981 46.7837C29.2548 46.0998 28.597 45.5825 27.8279 45.3129C25.6879 44.6259 23.3315 46.3434 22.9399 48.449C22.7167 49.6307 23.0808 51.1215 24.1319 51.8497C26.0761 53.1962 29.9336 51.623 30.2771 49.0914Z" fill="#077594"/>
<path d="M24.9981 47.2744C24.342 45.7871 22.2501 45.2134 20.8177 45.8214C18.6948 46.7248 18.1556 50.2285 19.5021 51.4514C20.6665 52.5094 23.3115 51.9151 24.4863 50.3007C24.5927 50.1564 25.6267 48.6931 24.9981 47.2744Z" fill="#077594"/>
<path d="M21.3252 51.1081C20.5317 49.8234 18.457 49.1467 17.3784 50.0982C16.396 50.9672 16.4578 52.9904 17.6841 53.9591C18.9104 54.9278 20.889 54.5224 21.5176 53.3648C22.0672 52.3515 21.363 51.1699 21.3252 51.1081Z" fill="#077594"/>
<path d="M28.9785 56.3773C28.2159 53.066 31.9944 45.9005 37.6897 44.5025C38.2874 44.3582 38.5106 44.159 38.6652 44.5025C37.9404 45.2616 36.9477 45.6464 35.45 47.1028C31.4311 51.0187 31.2181 53.4747 29.8201 56.58C29.6765 56.6401 29.5175 56.6529 29.3661 56.6164C29.2148 56.58 29.079 56.4962 28.9785 56.3773Z" fill="#E05E48"/>
<path d="M52.2195 68.2793C51.9791 73.6035 51.5325 73.3734 58.1517 78.5225C56.4342 83.5376 40.2348 80.7243 38.0811 78.3473C41.2687 75.51 40.5405 75.1287 40.5405 69.1964C44.003 70.9277 49.8906 69.5159 52.2195 68.2793Z" fill="white"/>
<path d="M50.7568 82.1667C45.3982 82.1667 38.9576 80.5866 37.4497 78.9207L36.8691 78.2818L37.5149 77.7047C39.8198 75.6437 39.8095 75.3002 39.7202 71.9614C39.6961 71.1782 39.6721 70.2885 39.6721 69.1962V67.8222L40.9156 68.4439C44.0655 70.0171 49.6061 68.7118 51.8217 67.5405L53.151 66.8535L53.0823 68.3546C53.0823 68.6775 53.0514 68.9798 53.0377 69.2649C52.9312 71.3637 52.8831 72.322 53.4842 73.2667C54.1472 74.3178 55.6414 75.5063 58.6848 77.8764L59.1657 78.2543L58.9699 78.8348C58.4478 80.3496 56.9639 81.3698 54.5525 81.8679C53.3002 82.0922 52.0288 82.1923 50.7568 82.1667ZM39.4213 78.268C41.9461 79.6008 49.4447 81.1259 54.1918 80.1504C55.2223 79.9409 56.4383 79.5355 57.0463 78.7558C51.4335 74.3693 51.0866 73.8334 51.2824 69.6187C48.7851 70.5633 44.5945 71.374 41.3999 70.4465C41.3999 70.9824 41.4239 71.477 41.4343 71.9167C41.5236 75.1765 41.4686 76.2757 39.4316 78.268H39.4213Z" fill="#077594"/>
</g>
</svg>
