<svg width="114" height="114" viewBox="0 0 114 114" fill="none" xmlns="http://www.w3.org/2000/svg">
<mask id="mask0" mask-type="alpha" maskUnits="userSpaceOnUse" x="0" y="0" width="114" height="114">
<circle cx="57" cy="57" r="57" fill="#F6F6F6"/>
</mask>
<g mask="url(#mask0)">
<circle cx="57" cy="57" r="57" fill="#F6F6F6"/>
<path d="M60.4964 44.1549C61.3414 42.0424 57.0855 39.4695 55.4161 39.0779C54.2104 38.7963 53.0906 39.0779 52.462 38.2913C51.9983 37.7074 51.8952 36.6528 52.3658 36.1273C53.3173 35.0624 56.4638 35.4815 58.8202 37.1818C60.9705 38.731 62.0284 41.108 62.3032 40.9603C62.6467 40.7645 62.1487 38.47 59.94 36.4674C56.8485 33.6575 54.3444 35.1621 53.0185 32.5308C52.7024 31.9057 52.4998 31.2324 52.9188 30.6382C53.8806 29.2642 57.3362 30.5008 58.0713 30.7378C61.6609 31.9057 62.6639 33.4274 63.4677 34.3548C65.7692 37.0101 65.7623 38.549 67.3046 38.8822C69.0221 39.2531 69.6507 37.4635 72.4228 36.5189C77.431 34.8014 82.3636 38.2845 83.0506 38.7825C83.8201 39.3424 86.5887 41.3554 86.0975 43.0145C85.8605 43.8286 84.8574 44.4709 83.9334 44.4915C82.4426 44.519 82.0201 42.9114 80.1961 42.032C77.7092 40.8332 74.5284 41.905 74.4872 42.5233C74.446 43.1416 77.2867 43.0591 80.9828 45.2713C84.2426 47.2258 85.0738 49.091 85.3109 49.699C85.5479 50.307 86.3414 52.3405 85.3109 53.5359C84.8609 54.0545 84.0262 54.453 83.3426 54.2229C82.4289 53.9171 82.501 52.7218 81.6732 51.4749C80.3473 49.4757 77.6405 48.7269 77.3417 49.115C76.9982 49.5822 79.9694 51.729 82.951 56.672C84.6273 59.4647 84.9605 60.9108 84.5243 62.168C84.088 63.4252 82.8617 64.5725 82.1644 64.3321C81.4156 64.0882 81.8209 62.4806 80.9828 60.2101C80.0381 57.596 78.1661 55.93 77.9325 56.0881C77.6165 56.2839 80.4297 59.6398 80.4916 64.5485C80.4916 65.8366 80.5396 68.4437 79.0145 69.172C78.0287 69.646 76.4829 69.2853 75.9642 68.3853C75.2772 67.214 76.9157 66.0976 76.9192 63.5386C76.9065 62.0004 76.3601 60.5142 75.3734 59.3341C73.7968 57.5067 71.9934 58.0082 69.7675 57.0705C65.6318 55.3392 58.5351 49.0635 60.4964 44.1549Z" fill="#077594"/>
<path d="M53.0563 59.1902C52.2216 65.7922 56.3092 67.3723 59.6961 68.657C63.0831 69.9417 69.139 70.3745 72.835 64.2774C74.6762 64.2293 76.0227 64.5316 76.933 63.5698C78.6127 61.7939 77.4757 57.0914 75.5177 56.5074C74.2571 56.1296 73.4396 57.7062 72.1274 57.3559C70.5027 56.9196 70.7534 54.23 69.163 51.1385C67.102 47.1436 62.688 43.8529 59.6961 44.6395C58.5832 44.9315 58.7343 45.5086 57.1543 46.1956C54.1898 47.4802 52.4998 45.9585 50.5144 46.7589C47.2443 48.0608 45.6058 54.6903 47.8282 57.3387C49.0992 58.8467 50.5728 57.8162 53.0563 59.1902Z" fill="white"/>
<path d="M64.0242 70.3089C62.4411 70.3019 60.8724 70.0087 59.3938 69.4432C56.0653 68.1826 51.5483 66.472 52.1322 59.681C51.4655 59.4108 50.761 59.2451 50.0437 59.1898C49.0716 59.073 48.0652 58.9528 47.1755 57.8982C45.9492 56.4418 45.6057 54.0132 46.2618 51.382C46.9179 48.7508 48.419 46.6623 50.1914 45.9444C51.2803 45.5082 52.2524 45.6284 53.2211 45.7452C54.3306 45.8826 55.3783 46.0131 56.8107 45.4017C57.2648 45.2197 57.6808 44.954 58.037 44.6185C58.436 44.2249 58.9328 43.9451 59.4762 43.8078C62.4063 43.035 67.3012 45.6387 69.9255 50.7431C70.4905 51.8929 70.9381 53.0966 71.2617 54.3361C71.6396 55.6483 71.8766 56.3971 72.3506 56.5208C72.6494 56.6032 72.9346 56.4486 73.4155 56.1773C73.9891 55.8338 74.7894 55.3907 75.765 55.6826C76.9054 56.0261 77.8672 57.2799 78.3378 59.0421C78.7706 60.6565 78.7947 62.8515 77.5546 64.1602C76.5894 65.1907 75.3184 65.1598 73.9719 65.1392C73.7589 65.1392 73.5391 65.1392 73.3124 65.1392C70.8255 68.9246 67.3492 70.3089 64.0242 70.3089ZM51.8711 47.3528C51.5188 47.3468 51.1688 47.4099 50.8406 47.5383C49.5903 48.0432 48.4361 49.7126 47.9346 51.7942C47.4331 53.8758 47.6427 55.7891 48.4842 56.7853C48.9239 57.304 49.343 57.3727 50.2498 57.4723C51.375 57.5606 52.4698 57.8811 53.465 58.4135L53.9837 58.6917L53.9081 59.2756C53.1558 65.2354 56.6355 66.5544 60.0018 67.8288C61.3105 68.3269 68.0569 70.4669 72.0998 63.8064L72.3437 63.4079H72.8143C73.2403 63.4079 73.6456 63.4079 74.0028 63.4079C75.2257 63.4286 75.8818 63.4079 76.3077 62.9683C76.9088 62.3328 77.06 60.9073 76.6787 59.4714C76.3833 58.3619 75.8062 57.4757 75.2738 57.3143C75.023 57.2421 74.7757 57.3589 74.2708 57.6578C73.6971 58.0013 72.8968 58.4444 71.9075 58.1764C70.4717 57.7952 70.0732 56.4109 69.6095 54.8101C69.3192 53.6757 68.9129 52.5741 68.3969 51.5229C66.4664 47.7684 62.3445 44.8246 59.9159 45.4635C59.6335 45.532 59.3777 45.6826 59.1808 45.8963C58.6873 46.3533 58.1161 46.7186 57.4942 46.9749C55.629 47.7821 54.1795 47.6035 53.0287 47.4593C52.6452 47.4019 52.2587 47.3664 51.8711 47.3528Z" fill="#077594"/>
<path d="M19.5 105.601C21.3652 96.014 41.8823 72.5626 51.2152 73.5518C53.5544 76.7258 55.4299 78.8486 61.3999 78.8658C66.7173 78.883 68.926 77.1483 72.1858 75.3827C75.0231 86.8075 89.1055 97.317 95 103.5L55.5 122L19.5 105.601Z" fill="#077594"/>
<path d="M80.0555 60.9863C79.712 63.7755 77.5204 65.8365 75.14 65.5892C72.7595 65.3418 71.097 62.8721 71.4302 60.0932C71.7634 57.3142 73.9652 55.2395 76.3491 55.4903C78.733 55.741 80.3887 58.1936 80.0555 60.9863Z" fill="#E05E48"/>
<path d="M74.8205 58.2726C76.7544 53.2953 76.9468 50.087 74.0545 44.512C71.918 40.39 69.2077 39.2805 66.7002 38.7618C67.0437 38.1676 69.2593 38.0302 71.3649 38.9027C76.5174 41.0289 78.8395 46.044 79.2482 47.078C81.0997 51.7358 80.7837 55.3529 78.3964 58.939C77.7905 59.1223 77.1495 59.1574 76.5273 59.0415C75.905 58.9255 75.3197 58.6618 74.8205 58.2726Z" fill="#E05E48"/>
<path d="M69.9734 68.2275C69.8119 71.8102 70.3409 71.8652 71.6909 76.5471C70.5333 79.9203 53.4098 80.9473 51.2148 74.1941C56.6215 72.1331 59.0638 70.9893 59.6959 68.6397C62.2755 69.4367 68.3417 69.3954 69.9734 68.2275Z" fill="white"/>
<path d="M62.7803 80.0442H62.5708C52.9528 79.9652 50.83 75.7505 50.4109 74.4623L50.1602 73.686L50.9227 73.394C56.0512 71.4361 58.3526 70.3747 58.8816 68.4167L59.1118 67.5545L59.9636 67.819C62.5227 68.6091 68.2076 68.4373 69.4889 67.5305L70.9247 66.5L70.8457 68.2656C70.7358 70.7044 70.9488 71.3571 71.5877 73.2944C71.8384 74.057 72.151 75.0119 72.5289 76.3069L72.6044 76.568L72.5151 76.8256C71.7388 79.048 66.9642 80.0442 62.7803 80.0442ZM52.3689 74.6719C53.9283 77.3031 58.703 78.2958 62.5708 78.3267C66.9264 78.3576 70.1037 77.3168 70.7701 76.4581C70.4438 75.3486 70.169 74.5139 69.9423 73.8303C69.3927 72.1609 69.1042 71.2918 69.087 69.5262C66.6825 70.2132 62.6292 70.1548 60.235 69.6602C59.2114 71.8414 56.5973 73.0437 52.3689 74.6719Z" fill="#077594"/>
</g>
</svg>
