<svg width="346" height="88" viewBox="0 0 346 88" fill="none" xmlns="http://www.w3.org/2000/svg">
<rect x="16" y="41" width="91" height="8" rx="4" fill="#077594"/>
<path d="M140 45C140 42.7909 141.791 41 144 41H319V49H144C141.791 49 140 47.2091 140 45Z" fill="#E99688"/>
<path d="M32.486 32.908L30.246 27.462H29.294L32.024 34H32.948L35.72 27.462H34.754L32.486 32.908ZM37.568 25.684C37.96 25.684 38.268 25.418 38.268 25.054C38.268 24.676 37.96 24.41 37.568 24.41C37.204 24.41 36.882 24.676 36.882 25.054C36.882 25.418 37.204 25.684 37.568 25.684ZM38.016 34V27.462H37.12V34H38.016ZM42.0989 34.168C43.4569 34.168 44.5069 33.398 44.5069 32.236C44.5069 31.48 44.1149 30.71 42.8409 30.402L41.8749 30.164C41.3989 30.052 40.8669 29.786 40.8669 29.17C40.8669 28.554 41.3849 28.092 42.1409 28.092C42.7849 28.092 43.3589 28.484 43.4009 29.072H44.2689C44.2269 27.896 43.2189 27.294 42.1269 27.294C40.8809 27.294 39.9709 28.092 39.9709 29.156C39.9709 30.248 40.7129 30.724 41.6369 30.948L42.5749 31.172C43.2469 31.34 43.6109 31.69 43.6109 32.222C43.6109 32.88 43.0369 33.37 42.0989 33.37C41.1469 33.37 40.6429 32.81 40.5449 32.264H39.7189C39.8309 33.51 40.9649 34.168 42.0989 34.168ZM46.7008 25.684C47.0928 25.684 47.4008 25.418 47.4008 25.054C47.4008 24.676 47.0928 24.41 46.7008 24.41C46.3368 24.41 46.0148 24.676 46.0148 25.054C46.0148 25.418 46.3368 25.684 46.7008 25.684ZM47.1488 34V27.462H46.2528V34H47.1488ZM50.7137 27.462V25.012H49.8317V27.462H48.6417V28.232H49.8317V34H50.7137V28.232H52.2117V27.462H50.7137ZM56.4122 34.168C58.2742 34.168 59.8422 32.796 59.8422 30.724C59.8422 28.652 58.2742 27.294 56.4122 27.294C54.5502 27.294 52.9962 28.652 52.9962 30.724C52.9962 32.796 54.5502 34.168 56.4122 34.168ZM56.4122 33.314C55.0262 33.314 53.8922 32.264 53.8922 30.724C53.8922 29.184 55.0262 28.148 56.4122 28.148C57.7842 28.148 58.9462 29.184 58.9462 30.724C58.9462 32.264 57.7842 33.314 56.4122 33.314ZM64.574 27.294C63.552 27.294 62.852 27.952 62.53 29.058V27.462H61.62V34H62.53V31.536C62.53 29.926 63.006 28.162 64.56 28.162C64.798 28.162 65.106 28.204 65.442 28.344L65.61 27.49C65.358 27.364 64.938 27.294 64.574 27.294ZM72.4899 32.908L70.2499 27.462H69.2979L72.0279 34H72.9519L75.7239 27.462H74.7579L72.4899 32.908ZM77.5719 25.684C77.9639 25.684 78.2719 25.418 78.2719 25.054C78.2719 24.676 77.9639 24.41 77.5719 24.41C77.2079 24.41 76.8859 24.676 76.8859 25.054C76.8859 25.418 77.2079 25.684 77.5719 25.684ZM78.0199 34V27.462H77.1239V34H78.0199ZM82.1028 34.168C83.4608 34.168 84.5108 33.398 84.5108 32.236C84.5108 31.48 84.1188 30.71 82.8448 30.402L81.8788 30.164C81.4028 30.052 80.8708 29.786 80.8708 29.17C80.8708 28.554 81.3888 28.092 82.1448 28.092C82.7888 28.092 83.3628 28.484 83.4048 29.072H84.2728C84.2308 27.896 83.2228 27.294 82.1308 27.294C80.8848 27.294 79.9748 28.092 79.9748 29.156C79.9748 30.248 80.7168 30.724 81.6408 30.948L82.5788 31.172C83.2508 31.34 83.6148 31.69 83.6148 32.222C83.6148 32.88 83.0408 33.37 82.1028 33.37C81.1508 33.37 80.6468 32.81 80.5488 32.264H79.7228C79.8348 33.51 80.9688 34.168 82.1028 34.168ZM91.7307 28.736C91.2407 27.84 90.2327 27.294 89.1127 27.294C87.2507 27.294 85.8087 28.82 85.8087 30.724C85.8087 32.67 87.3067 34.168 89.0847 34.168C90.2467 34.168 91.2547 33.538 91.7307 32.642V34H92.6267V27.462H91.7307V28.736ZM89.1967 33.314C87.8107 33.314 86.6907 32.138 86.6907 30.724C86.6907 29.324 87.8107 28.148 89.1827 28.148C90.4987 28.148 91.7307 29.226 91.7307 30.752C91.7307 32.222 90.5547 33.314 89.1967 33.314Z" fill="black"/>
<path d="M2.968 13.168C4.326 13.168 5.376 12.398 5.376 11.236C5.376 10.48 4.984 9.71 3.71 9.402L2.744 9.164C2.268 9.052 1.736 8.786 1.736 8.17C1.736 7.554 2.254 7.092 3.01 7.092C3.654 7.092 4.228 7.484 4.27 8.072H5.138C5.096 6.896 4.088 6.294 2.996 6.294C1.75 6.294 0.84 7.092 0.84 8.156C0.84 9.248 1.582 9.724 2.506 9.948L3.444 10.172C4.116 10.34 4.48 10.69 4.48 11.222C4.48 11.88 3.906 12.37 2.968 12.37C2.016 12.37 1.512 11.81 1.414 11.264H0.588C0.7 12.51 1.834 13.168 2.968 13.168ZM8.45195 6.462V4.012H7.56995V6.462H6.37995V7.232H7.56995V13H8.45195V7.232H9.94995V6.462H8.45195ZM16.6565 7.736C16.1665 6.84 15.1585 6.294 14.0385 6.294C12.1765 6.294 10.7345 7.82 10.7345 9.724C10.7345 11.67 12.2325 13.168 14.0105 13.168C15.1725 13.168 16.1805 12.538 16.6565 11.642V13H17.5525V6.462H16.6565V7.736ZM14.1225 12.314C12.7365 12.314 11.6165 11.138 11.6165 9.724C11.6165 8.324 12.7365 7.148 14.1085 7.148C15.4245 7.148 16.6565 8.226 16.6565 9.752C16.6565 11.222 15.4805 12.314 14.1225 12.314ZM22.7498 6.294C21.7278 6.294 21.0278 6.952 20.7058 8.058V6.462H19.7958V13H20.7058V10.536C20.7058 8.926 21.1818 7.162 22.7358 7.162C22.9738 7.162 23.2818 7.204 23.6178 7.344L23.7858 6.49C23.5338 6.364 23.1138 6.294 22.7498 6.294ZM26.3621 6.462V4.012H25.4801V6.462H24.2901V7.232H25.4801V13H26.3621V7.232H27.8601V6.462H26.3621ZM30.251 10.466L30.321 3.354H29.425L29.509 10.466H30.251ZM29.859 13.168C30.265 13.168 30.587 12.888 30.587 12.51C30.587 12.118 30.265 11.838 29.859 11.838C29.481 11.838 29.159 12.118 29.159 12.51C29.159 12.888 29.481 13.168 29.859 13.168Z" fill="black"/>
<path d="M100.152 82.646C100.74 81.946 101.188 81.064 101.188 80.294C101.188 78.712 100.054 77.676 98.416 77.676C96.96 77.676 95.882 78.474 95.658 79.762L96.456 79.958C96.624 79.076 97.394 78.53 98.416 78.53C99.522 78.53 100.292 79.23 100.292 80.294C100.292 80.84 99.9 81.568 99.354 82.24L95.714 86.622V87H101.3V86.132H97.226L100.152 82.646ZM114.692 80.294C113.922 80.294 112.788 80.574 112.284 81.862C111.92 80.854 111.038 80.294 109.988 80.294C109.022 80.294 108.07 80.756 107.748 81.624V80.462H106.852V87H107.748V83.374C107.776 81.806 108.784 81.162 109.834 81.162C110.87 81.162 111.626 81.96 111.626 83.234V87H112.508V83.668C112.508 81.918 113.32 81.148 114.552 81.162C115.63 81.162 116.386 81.974 116.386 83.234V87H117.282V83.192C117.282 81.386 116.274 80.294 114.692 80.294ZM122.412 87.168C124.274 87.168 125.842 85.796 125.842 83.724C125.842 81.652 124.274 80.294 122.412 80.294C120.55 80.294 118.996 81.652 118.996 83.724C118.996 85.796 120.55 87.168 122.412 87.168ZM122.412 86.314C121.026 86.314 119.892 85.264 119.892 83.724C119.892 82.184 121.026 81.148 122.412 81.148C123.784 81.148 124.946 82.184 124.946 83.724C124.946 85.264 123.784 86.314 122.412 86.314ZM130.784 80.294C129.972 80.294 128.908 80.7 128.516 81.638V80.462H127.62V87H128.516V83.374C128.544 81.792 129.65 81.176 130.7 81.176C131.75 81.176 132.548 81.974 132.548 83.234V87H133.444V83.192C133.444 81.386 132.366 80.294 130.784 80.294ZM136.825 80.462V78.012H135.943V80.462H134.753V81.232H135.943V87H136.825V81.232H138.323V80.462H136.825ZM142.87 80.294C142.058 80.294 140.994 80.7 140.602 81.638V76.906H139.706V87H140.602V83.374C140.63 81.792 141.736 81.176 142.786 81.176C143.836 81.176 144.634 81.974 144.634 83.234V87H145.53V83.192C145.53 81.386 144.452 80.294 142.87 80.294ZM149.525 87.168C150.883 87.168 151.933 86.398 151.933 85.236C151.933 84.48 151.541 83.71 150.267 83.402L149.301 83.164C148.825 83.052 148.293 82.786 148.293 82.17C148.293 81.554 148.811 81.092 149.567 81.092C150.211 81.092 150.785 81.484 150.827 82.072H151.695C151.653 80.896 150.645 80.294 149.553 80.294C148.307 80.294 147.397 81.092 147.397 82.156C147.397 83.248 148.139 83.724 149.063 83.948L150.001 84.172C150.673 84.34 151.037 84.69 151.037 85.222C151.037 85.88 150.463 86.37 149.525 86.37C148.573 86.37 148.069 85.81 147.971 85.264H147.145C147.257 86.51 148.391 87.168 149.525 87.168Z" fill="black"/>
<path d="M193.968 34.168C195.326 34.168 196.376 33.398 196.376 32.236C196.376 31.48 195.984 30.71 194.71 30.402L193.744 30.164C193.268 30.052 192.736 29.786 192.736 29.17C192.736 28.554 193.254 28.092 194.01 28.092C194.654 28.092 195.228 28.484 195.27 29.072H196.138C196.096 27.896 195.088 27.294 193.996 27.294C192.75 27.294 191.84 28.092 191.84 29.156C191.84 30.248 192.582 30.724 193.506 30.948L194.444 31.172C195.116 31.34 195.48 31.69 195.48 32.222C195.48 32.88 194.906 33.37 193.968 33.37C193.016 33.37 192.512 32.81 192.414 32.264H191.588C191.7 33.51 192.834 34.168 193.968 34.168ZM199.452 27.462V25.012H198.57V27.462H197.38V28.232H198.57V34H199.452V28.232H200.95V27.462H199.452ZM207.163 31.116C207.149 32.698 206.029 33.314 204.993 33.314C203.929 33.314 203.145 32.516 203.145 31.256V27.462H202.249V31.27C202.235 33.076 203.313 34.168 204.895 34.168C205.707 34.168 206.771 33.776 207.163 32.852V34H208.059V27.462H207.163V31.116ZM215.778 28.722C215.288 27.826 214.28 27.294 213.174 27.294C211.34 27.294 209.856 28.736 209.856 30.724C209.856 32.712 211.354 34.168 213.174 34.168C214.266 34.168 215.288 33.622 215.778 32.726V34H216.674V23.906H215.778V28.722ZM213.244 33.314C211.872 33.314 210.752 32.166 210.752 30.71C210.752 29.268 211.872 28.148 213.244 28.148C214.546 28.148 215.778 29.17 215.778 30.752C215.778 32.264 214.602 33.314 213.244 33.314ZM225.035 30.71C225.035 28.638 223.663 27.294 221.801 27.294C219.953 27.294 218.483 28.638 218.483 30.71C218.483 32.782 219.953 34.168 221.801 34.168C223.033 34.168 224.153 33.552 224.727 32.502L223.957 32.166C223.523 32.88 222.725 33.314 221.829 33.314C220.513 33.314 219.533 32.502 219.379 31.102H225.007C225.021 30.976 225.035 30.836 225.035 30.71ZM219.393 30.332C219.575 28.932 220.513 28.148 221.801 28.148C223.075 28.148 224.013 28.974 224.139 30.332H219.393ZM229.942 27.294C229.13 27.294 228.066 27.7 227.674 28.638V27.462H226.778V34H227.674V30.374C227.702 28.792 228.808 28.176 229.858 28.176C230.908 28.176 231.706 28.974 231.706 30.234V34H232.602V30.192C232.602 28.386 231.524 27.294 229.942 27.294ZM235.983 27.462V25.012H235.101V27.462H233.911V28.232H235.101V34H235.983V28.232H237.481V27.462H235.983ZM244.771 32.908L242.531 27.462H241.579L244.309 34H245.233L248.005 27.462H247.039L244.771 32.908ZM249.853 25.684C250.245 25.684 250.553 25.418 250.553 25.054C250.553 24.676 250.245 24.41 249.853 24.41C249.489 24.41 249.167 24.676 249.167 25.054C249.167 25.418 249.489 25.684 249.853 25.684ZM250.301 34V27.462H249.405V34H250.301ZM254.384 34.168C255.742 34.168 256.792 33.398 256.792 32.236C256.792 31.48 256.4 30.71 255.126 30.402L254.16 30.164C253.684 30.052 253.152 29.786 253.152 29.17C253.152 28.554 253.67 28.092 254.426 28.092C255.07 28.092 255.644 28.484 255.686 29.072H256.554C256.512 27.896 255.504 27.294 254.412 27.294C253.166 27.294 252.256 28.092 252.256 29.156C252.256 30.248 252.998 30.724 253.922 30.948L254.86 31.172C255.532 31.34 255.896 31.69 255.896 32.222C255.896 32.88 255.322 33.37 254.384 33.37C253.432 33.37 252.928 32.81 252.83 32.264H252.004C252.116 33.51 253.25 34.168 254.384 34.168ZM264.012 28.736C263.522 27.84 262.514 27.294 261.394 27.294C259.532 27.294 258.09 28.82 258.09 30.724C258.09 32.67 259.588 34.168 261.366 34.168C262.528 34.168 263.536 33.538 264.012 32.642V34H264.908V27.462H264.012V28.736ZM261.478 33.314C260.092 33.314 258.972 32.138 258.972 30.724C258.972 29.324 260.092 28.148 261.464 28.148C262.78 28.148 264.012 29.226 264.012 30.752C264.012 32.222 262.836 33.314 261.478 33.314Z" fill="black"/>
<line x1="107.5" y1="41" x2="107.5" y2="71" stroke="black"/>
<line x1="16.5" y1="19" x2="16.5" y2="49" stroke="black"/>
<line x1="140" y1="64.5" x2="107" y2="64.5" stroke="black"/>
<line x1="140.5" y1="41" x2="140.5" y2="71" stroke="black"/>
<rect x="322" y="41" width="7" height="8" fill="#E99688"/>
<rect x="332" y="41" width="7" height="8" fill="#E99688"/>
<rect x="342" y="41" width="4" height="8" fill="#E99688"/>
</svg>
