<svg width="346" height="49" viewBox="0 0 346 49" fill="none" xmlns="http://www.w3.org/2000/svg">
<path d="M16 45C16 42.7909 17.7909 41 20 41H319V49H20C17.7909 49 16 47.2091 16 45V45Z" fill="#E99688"/>
<path d="M2.968 13.168C4.326 13.168 5.376 12.398 5.376 11.236C5.376 10.48 4.984 9.71 3.71 9.402L2.744 9.164C2.268 9.052 1.736 8.786 1.736 8.17C1.736 7.554 2.254 7.092 3.01 7.092C3.654 7.092 4.228 7.484 4.27 8.072H5.138C5.096 6.896 4.088 6.294 2.996 6.294C1.75 6.294 0.84 7.092 0.84 8.156C0.84 9.248 1.582 9.724 2.506 9.948L3.444 10.172C4.116 10.34 4.48 10.69 4.48 11.222C4.48 11.88 3.906 12.37 2.968 12.37C2.016 12.37 1.512 11.81 1.414 11.264H0.588C0.7 12.51 1.834 13.168 2.968 13.168ZM8.45195 6.462V4.012H7.56995V6.462H6.37995V7.232H7.56995V13H8.45195V7.232H9.94995V6.462H8.45195ZM16.6565 7.736C16.1665 6.84 15.1585 6.294 14.0385 6.294C12.1765 6.294 10.7345 7.82 10.7345 9.724C10.7345 11.67 12.2325 13.168 14.0105 13.168C15.1725 13.168 16.1805 12.538 16.6565 11.642V13H17.5525V6.462H16.6565V7.736ZM14.1225 12.314C12.7365 12.314 11.6165 11.138 11.6165 9.724C11.6165 8.324 12.7365 7.148 14.1085 7.148C15.4245 7.148 16.6565 8.226 16.6565 9.752C16.6565 11.222 15.4805 12.314 14.1225 12.314ZM22.7498 6.294C21.7278 6.294 21.0278 6.952 20.7058 8.058V6.462H19.7958V13H20.7058V10.536C20.7058 8.926 21.1818 7.162 22.7358 7.162C22.9738 7.162 23.2818 7.204 23.6178 7.344L23.7858 6.49C23.5338 6.364 23.1138 6.294 22.7498 6.294ZM26.3621 6.462V4.012H25.4801V6.462H24.2901V7.232H25.4801V13H26.3621V7.232H27.8601V6.462H26.3621ZM30.251 10.466L30.321 3.354H29.425L29.509 10.466H30.251ZM29.859 13.168C30.265 13.168 30.587 12.888 30.587 12.51C30.587 12.118 30.265 11.838 29.859 11.838C29.481 11.838 29.159 12.118 29.159 12.51C29.159 12.888 29.481 13.168 29.859 13.168Z" fill="black"/>
<path d="M136.968 34.168C138.326 34.168 139.376 33.398 139.376 32.236C139.376 31.48 138.984 30.71 137.71 30.402L136.744 30.164C136.268 30.052 135.736 29.786 135.736 29.17C135.736 28.554 136.254 28.092 137.01 28.092C137.654 28.092 138.228 28.484 138.27 29.072H139.138C139.096 27.896 138.088 27.294 136.996 27.294C135.75 27.294 134.84 28.092 134.84 29.156C134.84 30.248 135.582 30.724 136.506 30.948L137.444 31.172C138.116 31.34 138.48 31.69 138.48 32.222C138.48 32.88 137.906 33.37 136.968 33.37C136.016 33.37 135.512 32.81 135.414 32.264H134.588C134.7 33.51 135.834 34.168 136.968 34.168ZM142.452 27.462V25.012H141.57V27.462H140.38V28.232H141.57V34H142.452V28.232H143.95V27.462H142.452ZM150.163 31.116C150.149 32.698 149.029 33.314 147.993 33.314C146.929 33.314 146.145 32.516 146.145 31.256V27.462H145.249V31.27C145.235 33.076 146.313 34.168 147.895 34.168C148.707 34.168 149.771 33.776 150.163 32.852V34H151.059V27.462H150.163V31.116ZM158.778 28.722C158.288 27.826 157.28 27.294 156.174 27.294C154.34 27.294 152.856 28.736 152.856 30.724C152.856 32.712 154.354 34.168 156.174 34.168C157.266 34.168 158.288 33.622 158.778 32.726V34H159.674V23.906H158.778V28.722ZM156.244 33.314C154.872 33.314 153.752 32.166 153.752 30.71C153.752 29.268 154.872 28.148 156.244 28.148C157.546 28.148 158.778 29.17 158.778 30.752C158.778 32.264 157.602 33.314 156.244 33.314ZM168.035 30.71C168.035 28.638 166.663 27.294 164.801 27.294C162.953 27.294 161.483 28.638 161.483 30.71C161.483 32.782 162.953 34.168 164.801 34.168C166.033 34.168 167.153 33.552 167.727 32.502L166.957 32.166C166.523 32.88 165.725 33.314 164.829 33.314C163.513 33.314 162.533 32.502 162.379 31.102H168.007C168.021 30.976 168.035 30.836 168.035 30.71ZM162.393 30.332C162.575 28.932 163.513 28.148 164.801 28.148C166.075 28.148 167.013 28.974 167.139 30.332H162.393ZM172.942 27.294C172.13 27.294 171.066 27.7 170.674 28.638V27.462H169.778V34H170.674V30.374C170.702 28.792 171.808 28.176 172.858 28.176C173.908 28.176 174.706 28.974 174.706 30.234V34H175.602V30.192C175.602 28.386 174.524 27.294 172.942 27.294ZM178.983 27.462V25.012H178.101V27.462H176.911V28.232H178.101V34H178.983V28.232H180.481V27.462H178.983ZM187.771 32.908L185.531 27.462H184.579L187.309 34H188.233L191.005 27.462H190.039L187.771 32.908ZM192.853 25.684C193.245 25.684 193.553 25.418 193.553 25.054C193.553 24.676 193.245 24.41 192.853 24.41C192.489 24.41 192.167 24.676 192.167 25.054C192.167 25.418 192.489 25.684 192.853 25.684ZM193.301 34V27.462H192.405V34H193.301ZM197.384 34.168C198.742 34.168 199.792 33.398 199.792 32.236C199.792 31.48 199.4 30.71 198.126 30.402L197.16 30.164C196.684 30.052 196.152 29.786 196.152 29.17C196.152 28.554 196.67 28.092 197.426 28.092C198.07 28.092 198.644 28.484 198.686 29.072H199.554C199.512 27.896 198.504 27.294 197.412 27.294C196.166 27.294 195.256 28.092 195.256 29.156C195.256 30.248 195.998 30.724 196.922 30.948L197.86 31.172C198.532 31.34 198.896 31.69 198.896 32.222C198.896 32.88 198.322 33.37 197.384 33.37C196.432 33.37 195.928 32.81 195.83 32.264H195.004C195.116 33.51 196.25 34.168 197.384 34.168ZM207.012 28.736C206.522 27.84 205.514 27.294 204.394 27.294C202.532 27.294 201.09 28.82 201.09 30.724C201.09 32.67 202.588 34.168 204.366 34.168C205.528 34.168 206.536 33.538 207.012 32.642V34H207.908V27.462H207.012V28.736ZM204.478 33.314C203.092 33.314 201.972 32.138 201.972 30.724C201.972 29.324 203.092 28.148 204.464 28.148C205.78 28.148 207.012 29.226 207.012 30.752C207.012 32.222 205.836 33.314 204.478 33.314Z" fill="black"/>
<line x1="16.5" y1="19" x2="16.5" y2="49" stroke="black"/>
<rect x="322" y="41" width="7" height="8" fill="#E99688"/>
<rect x="332" y="41" width="7" height="8" fill="#E99688"/>
<rect x="342" y="41" width="4" height="8" fill="#E99688"/>
</svg>
