<svg width="32" height="32" viewBox="0 0 32 32" fill="none" xmlns="http://www.w3.org/2000/svg">
<path d="M31 16C31 24.2843 24.2843 31 16 31C7.71573 31 1 24.2843 1 16C1 7.71573 7.71573 1 16 1C24.2843 1 31 7.71573 31 16Z" fill="#077594"/>
<path fill-rule="evenodd" clip-rule="evenodd" d="M16.873 14.2454C16.873 14.2454 21.0265 13.1774 24.3521 15.57C27.6777 17.9626 27.6634 21.5501 27.6634 21.5501C27.6634 21.5501 23.6099 21.5162 20.5555 19.6844C17.8893 18.0863 16.873 14.2454 16.873 14.2454Z" fill="#E05D47"/>
<path fill-rule="evenodd" clip-rule="evenodd" d="M3.56117 5.88721C3.36705 6.01768 2.36794 7.48311 2.28516 7.66573C2.89033 7.37236 3.8866 6.92709 4.99418 6.5861C6.14172 6.23186 7.41202 5.97992 8.45395 6.1769C10.8804 6.63401 12.8814 7.98418 15.6589 14.4115C17.7942 19.3478 21.8163 21.3991 25.3075 21.9883C27.4998 22.3584 29.6579 21.8311 30.9738 21.381C31.2222 20.6869 31.2878 20.5378 31.4277 20.0021C30.5771 20.3905 28.0622 21.3095 25.5016 20.8774C22.3159 20.34 18.6534 18.4676 16.7094 13.9691C13.6636 6.92512 11.3257 5.57044 8.67089 5.06966C7.45769 4.84139 5.98472 5.09954 4.65163 5.51014C4.27197 5.62738 3.90657 5.75616 3.56117 5.88721Z" fill="white"/>
<path fill-rule="evenodd" clip-rule="evenodd" d="M27.7109 24.3294C27.6824 24.6391 27.4026 24.8663 27.0886 24.8367C26.7746 24.8068 26.5434 24.5315 26.5748 24.2218C26.5748 24.2218 26.7403 22.5399 26.4777 21.0587C26.3978 20.6033 26.2779 20.1673 26.0895 19.8173C25.9496 19.5558 25.7784 19.3424 25.5272 19.2559C25.2303 19.1531 25.0733 18.8315 25.176 18.5379C25.2816 18.2442 25.6071 18.0892 25.9039 18.1918C26.629 18.4426 27.1286 19.1421 27.4083 20.049C27.9507 21.8027 27.7109 24.3294 27.7109 24.3294Z" fill="#E05D47"/>
<path fill-rule="evenodd" clip-rule="evenodd" d="M16 0C24.8293 0 32 7.16932 32 16C32 24.8307 24.8293 32 16 32C7.17074 32 0 24.8307 0 16C0 7.16932 7.17074 0 16 0ZM16 1.08503C24.2355 1.08503 30.9295 7.76421 30.9295 16C30.9295 24.2358 24.2355 30.9149 16 30.9149C7.7645 30.9149 1.07047 24.2358 1.07047 16C1.07047 7.76421 7.7645 1.08503 16 1.08503Z" fill="white"/>
</svg>
