<svg xmlns="http://www.w3.org/2000/svg" viewBox="0 0 174.84 305.58"><defs><style>.cls-1{fill:#fff;}.cls-2{fill:#077594;}.cls-3{fill:#e05e48;}</style></defs><g id="Layer_2" data-name="Layer 2"><g id="Layer_1-2" data-name="Layer 1"><path class="cls-1" d="M80.93,35.45a15.53,15.53,0,0,0,3.7-4.21,7.74,7.74,0,0,0,.73-4.2c.82-1,2.5.05,3.77-.82,1.86-1.28,1.68-6-.33-9.16-2.45-3.87-7-4.49-7.85-4.59-5.88-.66-12.46,3.65-13.32,8.09-.61,3.17,1.91,5.8.88,6.64-.47.39-2.29-1.91-5.32-.5-2,.92-2.48,4.53-1.69,6.13,1.33,2.71,4.52,3.07,5.73,2.3a2.47,2.47,0,0,1,2.59-.07C73.06,37,77.46,37.72,80.93,35.45Z"/><path class="cls-2" d="M76,38.38a13.85,13.85,0,0,1-7-2,1,1,0,0,0-1,.06,5,5,0,0,1-4,.35,6.18,6.18,0,0,1-3.93-3.25,7.18,7.18,0,0,1-.06-5.18,4.94,4.94,0,0,1,2.47-3A5.76,5.76,0,0,1,66.7,25a8.78,8.78,0,0,1-.54-4.67c1-5.43,8.44-10,15-9.3,1.42.17,6.27,1,9,5.27,2.27,3.59,2.73,9.27-.09,11.21a4.44,4.44,0,0,1-2.91.61h-.15a9.41,9.41,0,0,1-1,3.9,16.62,16.62,0,0,1-4.19,4.73A10.28,10.28,0,0,1,76,38.38Zm-7.44-5.15a3.93,3.93,0,0,1,2,.55c2.54,1.55,6.37,2.47,9.51.41h0a14.18,14.18,0,0,0,3.21-3.67,6.56,6.56,0,0,0,.58-3.15l-.15-.7.44-.57a3.32,3.32,0,0,1,3-1,2.06,2.06,0,0,0,1.06-.1c.86-.59,1.06-4.26-.75-7.12-2-3.13-5.67-3.77-6.75-3.9-5.22-.59-11,3.38-11.67,6.89a6.86,6.86,0,0,0,.61,3.63c.44,1.19,1,2.82-.26,3.89A2.14,2.14,0,0,1,67,28.3a3.14,3.14,0,0,0-3.15-.24,2.07,2.07,0,0,0-.91,1.26,4.37,4.37,0,0,0-.08,2.85,3.2,3.2,0,0,0,2,1.69,2.37,2.37,0,0,0,1.54,0A4,4,0,0,1,68.59,33.23Z"/><path class="cls-1" d="M24,150.45c-4.19-2.74-18.34-1.59-21.7,6.63-1.31,3.19-.95,7.59,1,8.61,2.14,1.12,2.33-4.15,9.46-6.08,4-1.08,6.17-.1,8-1.8C23,155.73,23.25,154.27,24,150.45Z"/><path class="cls-2" d="M3.84,167.36A2.72,2.72,0,0,1,2.57,167c-2.82-1.48-3.22-6.77-1.69-10.51,1.46-3.55,4.87-6.32,9.61-7.79,5.24-1.63,11.4-1.43,14.3.48l.84.54-.19,1L24,150.45l1.46.37c-.71,3.79-1.07,5.69-3.67,8.09-1.46,1.35-3.07,1.46-4.77,1.58a18.53,18.53,0,0,0-3.87.57,11.16,11.16,0,0,0-6.33,4.29C6.07,166.23,5.14,167.36,3.84,167.36Zm13.92-16.74a21.89,21.89,0,0,0-6.39,1c-2.23.7-6.21,2.41-7.71,6.06-1.07,2.61-.7,5.8.13,6.59.19-.19.46-.52.68-.78a14.16,14.16,0,0,1,7.87-5.29,21.44,21.44,0,0,1,4.45-.67c1.56-.1,2.28-.17,2.94-.78,1.68-1.56,2-2.6,2.56-5.43A13.69,13.69,0,0,0,17.76,150.62Z"/><path class="cls-1" d="M141.9,126.27c1.93-2.89,12.63-7,19.71-1.49,2.16,1.68,4.7,5,3.81,7.45-1.1,3.07-5.52,4.6-9.62,3-1.39-.56-2.05-2.5-5.06-4.67C145,126.42,143.65,128.55,141.9,126.27Z"/><path class="cls-2" d="M159.21,137.37a10.81,10.81,0,0,1-4-.77,6.37,6.37,0,0,1-2.4-2,16.35,16.35,0,0,0-3-2.83,13,13,0,0,0-5.73-2.66,4.89,4.89,0,0,1-3.42-1.92l-.65-.85.59-.89c1.36-2,5.2-4,9.33-4.62a16,16,0,0,1,12.55,2.77c2.05,1.6,5.59,5.56,4.3,9.15a6.79,6.79,0,0,1-3.7,3.81A9.47,9.47,0,0,1,159.21,137.37Zm-14.92-11.3.43.09a15.74,15.74,0,0,1,6.89,3.17,18.9,18.9,0,0,1,3.51,3.3,4.51,4.51,0,0,0,1.24,1.18,7.16,7.16,0,0,0,5.53,0,3.8,3.8,0,0,0,2.12-2.08c.53-1.49-1.29-4.19-3.32-5.77-3.55-2.76-7.93-2.55-10.23-2.18A16.21,16.21,0,0,0,144.29,126.07Z"/><path class="cls-1" d="M85.3,188.14c-.88,6.82-4.64,20.93-14.23,36C66.39,231.5,35,265.79,21.59,278.86c1.17-13.82,0-46.65,16.05-57.08a41.17,41.17,0,0,0,12.49-10.7c3.32-4.41,1.2-9.17,4.12-13.15C61.7,187.77,86,182.46,85.3,188.14Z"/><path class="cls-2" d="M19.75,282.76l.34-4c.18-2.06.3-4.51.44-7.36.81-16.56,2-41.58,16.29-50.86l.92-.56a38,38,0,0,0,11.19-9.79c1.47-1.94,1.7-4,1.94-6.22s.52-4.66,2.17-6.91c3-4,8.82-7.82,16-10.34C74,185,81,183.46,84.54,184.87a3.23,3.23,0,0,1,2.25,3.46h0C86.41,191.24,84,206.68,72.33,225c-4.84,7.62-36.83,42.41-49.69,55ZM80.9,187.32c-7,0-20.45,4.69-25.44,11.5-1.18,1.6-1.37,3.39-1.6,5.47-.27,2.38-.57,5.08-2.53,7.69a40.93,40.93,0,0,1-12,10.54c-.34.2-.62.37-.84.52-13,8.43-14.2,33.51-14.94,48.49-.06,1.23-.11,2.39-.17,3.48,14.93-15,42.26-45.09,46.45-51.67,11.29-17.74,13.65-32.59,14-35.39h0a.19.19,0,0,0,0-.08h0s-.45-.5-2.51-.56Z"/><path class="cls-1" d="M100.33,179.48c6.35,14.33,38.5,12.85,46.09,22.93,2.38,3.16-4,6.46-11.49,16.78-10.52,14.47-10.11,39.25-14,46.17,10.93-10.71,30.05-25.22,47.4-52.24a20.16,20.16,0,0,0,0-22.69c-10.49-14.77-25.67-23.09-27-23.44C121,161.72,98.1,174.44,100.33,179.48Z"/><path class="cls-2" d="M114.66,273.65l5-9c1.27-2.3,2.11-7.2,3.07-12.87,1.83-10.68,4.09-24,11-33.45a97.55,97.55,0,0,1,7.81-9.3c3.2-3.45,4.34-4.83,3.69-5.7-3.06-4.06-11-6.19-19.41-8.44-11.32-3-23-6.16-26.85-14.79h0c-.44-1-.58-2.67,1.3-4.89,5.65-6.66,25.08-13.9,41.48-9.65,2,.5,17.26,9.1,27.86,24a21.79,21.79,0,0,1,0,24.36c-13.88,21.63-28.95,35.35-39.95,45.37-2.8,2.54-5.43,4.95-7.66,7.13Zm16.6-106.4c-12.81,0-25.06,5.58-28.71,9.88-.84,1-.92,1.57-.84,1.74h0C105,186.18,116,189.13,126.58,192c8.93,2.39,17.36,4.65,21,9.54,2.22,3-.34,5.71-3.89,9.54a95.41,95.41,0,0,0-7.59,9c-6.47,8.9-8.67,21.82-10.44,32.19-.51,3-1,5.68-1.47,8,1.1-1,2.26-2.07,3.44-3.15,10.88-9.91,25.78-23.48,39.44-44.77a18.78,18.78,0,0,0,0-21C157,177,142.22,168.85,141,168.43A38.91,38.91,0,0,0,131.26,167.25Z"/><path class="cls-2" d="M71.13,47.46A7,7,0,0,0,76.54,50,8.52,8.52,0,0,0,82.25,48c5.57,8,9.09,25.8,22.52,45.35C118,112.6,137,124,141.9,126.27c-4.87,4.71-17.55,3.24-31.78-2.38-2.16,3.76,5,12.42,17.66,18.22,11.3,5.18,16.22,1.26,26.15,6.28,10.2,5.15,23.07,16.27,20.6,23.7-4,12-39.66-1.89-81.26,14.3-29.55,11.51-39.43,29.44-61.08,27-17.78-2-30.75-16.8-29.23-24.23,1.22-6,12.91-3.42,28.24-13.6C47,165.09,55.53,139.81,56.81,132.29c2.55-5.49.38-4.37,7.7-19.47,1.72-3.54,6.92-11.77,5-12.55-.71-.29-10.14,17.23-12.75,24.86C49.5,146.52,35,150.54,24,150.45c3.47-5.25,16.15-19.08,26.76-47.74C60.25,77,67.12,53.89,71.13,47.46Z"/><path class="cls-2" d="M20.59,278.86c-2.16,8.75-7.8,16.8-13.87,24.1,15.38,2.51,47.16,4,58,.73,2.09-5.7-2.79-16.92-9.85-18.79-6.71-1.78-12.07,3.58-20.16,2.24C25.94,285.69,25.23,283,20.59,278.86Z"/><path class="cls-2" d="M121,265.36c-7,3.76-11.27,6.66-21,7.85,3.44,10.83,9.5,25.24,24.7,31,2.59,1,13.86.53,23.23-.4,4.39-5.89,1.8-17.53-5.38-20.41-7-2.8-13.61.68-17.73-2.57S120.66,274.66,121,265.36Z"/><path class="cls-2" d="M81.65,12.58C77.72,8,71.8-.29,66.16,0,56.7.51,51.27,13.24,52.64,14.49c.82.75,4.12-2.71,4.53-.13,0,.27-3,.36-5,2.65-4.63,5.39-1.77,15.9.49,16.43,1.59.38,5.87-2.15,9.45-5.79,1.66-1.68,4.13-.46,6.56,0,1.74-1.25.65-7,2.1-8.95C74.16,14.1,80.42,16.74,81.65,12.58Z"/><path class="cls-3" d="M73.17,61.84c-.46-1.08-3.33-10.56-5.39-8.51-1.83,2-4.47,4.32-4.72,7.78,0,1.35-.09,3.71.88,4a18.51,18.51,0,0,1,1.22-2.42c4.76,4.29,5.75,10.62,6,18.84.16,5.84-.74,16.16-2.44,19.7,1.07.61,1.13.26,1.46,0C76.42,96.71,77.22,71.45,73.17,61.84Z"/><path class="cls-3" d="M84.76,52.39c1.39-.9,5.12,2.82,8,11.25,1,3,3.28,13.42,3.75,15.73C95.05,77.2,86.68,57.41,84.76,52.39Z"/><path class="cls-1" d="M78,37.69c-.16,3.59,1.5,6.48,2.85,11.16-1.15,3.38-7.22,1-8.67-.55.2-4.36.45-7.43.45-11.43A15.11,15.11,0,0,1,78,37.69Z"/><path class="cls-2" d="M78,52.08a10.82,10.82,0,0,1-6.91-2.78l-.41-.45,0-.62c.06-1.2.12-2.3.17-3.34.15-2.77.28-5.15.28-8v-1.5h1.5a16.68,16.68,0,0,1,6,1l.9.42,0,1c-.1,2.17.6,4.15,1.48,6.65.41,1.18.88,2.52,1.32,4l.13.45-.16.45A3.92,3.92,0,0,1,79.18,52,6.08,6.08,0,0,1,78,52.08ZM73.7,47.65c1.08.76,3.42,1.68,4.87,1.38a1.2,1.2,0,0,0,.66-.32c-.36-1.2-.74-2.27-1.11-3.31a23,23,0,0,1-1.63-6.64,16.22,16.22,0,0,0-2.39-.33c0,2.28-.15,4.32-.27,6.62C73.79,45.87,73.74,46.73,73.7,47.65Z"/></g></g></svg>