<svg width="89" height="100" viewBox="0 0 89 100" fill="none" xmlns="http://www.w3.org/2000/svg">
<g clip-path="url(#clip0)">
<path d="M43 51L40 50.5L40.5 52.5V56L41 57.5L45 58L48 56.5L49 53.5L47 51.5L46 49.5L43 51Z" fill="white"/>
<path d="M15.7969 91.8754C19.14 89.349 24.4328 86.3543 30.9708 76.1209C37.3767 66.1117 38.1975 60.9549 40.4035 55.2497C41.7648 56.6029 43.5704 57.84 45.3521 57.0553C47.6982 56.0264 47.7783 55.7581 48.7112 52.7674C53.2513 51.8305 56.3542 51.262 59.373 48.5115C63.4167 44.8241 69.6785 46.1092 71.9806 43.0384C79.7077 32.7329 82.214 24.3612 84.5962 19.1885C85.9574 21.8229 90.0092 38.194 80.3563 48.5315C76.0723 53.1197 72.2408 52.8034 69.3942 58.0803C66.2193 63.9697 69.0579 70.5597 70.4352 76.4692C74.0385 91.8754 83.0468 93.3607 77.878 100.856C73.9704 106.529 63.0043 107.862 54.5445 108.278C50.1405 108.499 33.301 107.666 31.2191 101.7C29.9619 98.0971 31.8356 95.3546 37.3607 86.8868C41.7648 80.1646 42.001 73.7867 41.1122 72.2173C40.6598 71.4165 40.7118 79.572 35.2468 85.3173C28.1643 92.7642 20.9816 92.8122 15.7969 91.8754Z" fill="#077594"/>
<path d="M38.776 50.3929C37.9472 50.9854 37.1064 51.7741 34.9725 50.6972C33.8434 50.1286 33.0066 49.2718 32.8745 48.6473C32.4742 46.8416 33.2469 45.5724 36.3938 46.9417C36.9182 47.1699 36.8582 45.9248 36.7141 45.6325C35.513 43.2303 35.6371 42.5376 35.7532 40.4037C35.9213 37.3489 40.2934 34.5343 42.0269 35.351C42.7636 35.6953 43.0479 36.1718 43.6845 36.9165C44.8856 37.3809 46.0867 36.2038 47.2237 37.7853C49.1255 40.4237 47.2237 41.0443 46.6312 41.1724C47.4267 42.2593 47.7853 43.6052 47.6361 44.9439C47.4279 47.6503 46.6552 49.2999 44.8335 50.2327C43.4483 50.9534 40.8819 51.2296 38.776 50.3929Z" fill="white"/>
<path d="M84.5923 19.1866C78.4026 17.0486 79.8639 12.6566 79.5236 10.3344C79.0712 7.27163 78.3625 1.63444 80.3684 0.881745C80.6451 0.789865 80.9403 0.768105 81.2275 0.818417C81.5147 0.868728 81.7849 0.989538 82.0139 1.17001C83.1349 2.10687 81.8738 4.06467 82.3022 6.20264C85.353 6.78718 87.7192 8.38065 88.3077 11.3594C88.8522 14.174 86.8463 17.1888 84.5923 19.1866Z" fill="white"/>
<path d="M36.8352 51.8388C36.0842 51.8114 35.3503 51.607 34.6933 51.2422C33.4281 50.6017 32.4592 49.6127 32.2911 48.78C31.9708 47.2946 32.4272 46.5579 32.8636 46.1976C33.5762 45.6171 34.6733 45.6251 36.2187 46.2256C36.2183 46.1121 36.2035 45.9991 36.1746 45.8893C34.9735 43.4871 35.0336 42.6103 35.1417 40.6845V40.3802C35.2578 38.2383 37.0875 36.4086 38.6209 35.4918C40.0222 34.651 41.3834 34.3987 42.2682 34.8151C42.882 35.1255 43.409 35.5837 43.8017 36.1484L44.0138 36.4086C44.3198 36.4622 44.6327 36.4622 44.9387 36.4086C45.7154 36.3125 46.7724 36.1804 47.6932 37.4576C48.546 38.6587 48.8183 39.6476 48.494 40.4563C48.3078 40.9175 47.9568 41.2928 47.5091 41.5093C48.092 42.5805 48.335 43.8038 48.2057 45.0165C47.9695 48.0593 47.0366 49.7889 45.0908 50.7898C43.6375 51.5385 41.0872 51.8628 38.8371 51.0901C38.2715 51.5552 37.5672 51.8186 36.8352 51.8388ZM34.2048 46.9743C33.9958 46.957 33.7871 47.0106 33.6123 47.1265C33.364 47.3306 33.304 47.8431 33.4521 48.5277C33.5242 48.8641 34.1408 49.6168 35.2338 50.1693C36.9073 51.014 37.5319 50.5696 38.2606 50.0291L38.6889 49.7208L38.9932 49.845C40.7984 50.5233 42.7964 50.4745 44.5664 49.7088C46.1158 48.9081 46.8284 47.5188 47.0326 44.9044C47.1716 43.7064 46.8511 42.5003 46.1358 41.5293L45.5993 40.7846L46.4961 40.5924C46.7163 40.5444 47.2488 40.3883 47.397 40.0039C47.5451 39.6196 47.3089 38.9469 46.7283 38.1422C46.2199 37.4415 45.7995 37.4936 45.0988 37.5817C44.5535 37.6898 43.9895 37.6553 43.4613 37.4816L43.3172 37.4295L43.2211 37.3134L42.8808 36.9131C42.599 36.4894 42.2148 36.1438 41.7638 35.9081C41.3634 35.712 40.4105 35.8281 39.2455 36.5247C37.8642 37.3495 36.4429 38.8829 36.3468 40.4483V40.7566C36.2427 42.6183 36.2067 43.2469 37.2596 45.3768C37.4278 45.7172 37.5839 46.8262 37.1035 47.3306C36.9861 47.4568 36.8311 47.5416 36.6616 47.5726C36.4921 47.6037 36.3171 47.5792 36.1626 47.5028C35.5547 47.1965 34.8919 47.0142 34.2128 46.9663L34.2048 46.9743Z" fill="#077594"/>
<path d="M84.7295 19.8725L84.3972 19.7564C78.9842 17.8867 78.9842 14.2593 78.9882 11.8611C79.0012 11.3799 78.9811 10.8983 78.9281 10.4198C78.2635 5.90364 77.8872 1.17529 80.1573 0.3185C80.5345 0.191231 80.9377 0.161199 81.3296 0.231183C81.7216 0.301168 82.0895 0.468907 82.3993 0.718868C83.2761 1.45555 83.124 2.59259 82.9639 3.67759C82.8345 4.34459 82.7914 5.02547 82.8357 5.70346C86.2389 6.46816 88.3288 8.37792 88.8933 11.2446C89.658 15.1441 86.0907 18.6554 84.9937 19.6523L84.7295 19.8725ZM80.906 1.39149C80.7956 1.38952 80.6858 1.40714 80.5817 1.44354C79.9571 1.67975 79.0683 3.13309 80.1172 10.2516C80.1788 10.7831 80.2029 11.3183 80.1893 11.8531C80.1893 14.2153 80.1893 16.8857 84.4572 18.4952C86.395 16.6816 88.2007 13.955 87.7122 11.4688C87.1037 8.3579 84.3731 7.20484 82.1911 6.78845L81.7908 6.71238L81.7107 6.31202C81.5664 5.38152 81.5867 4.43289 81.7708 3.50944C81.9189 2.51652 81.983 1.93999 81.6266 1.64372C81.4202 1.48349 81.1672 1.39494 80.906 1.39149Z" fill="#077594"/>
<path d="M15.7941 91.875C13.9444 90.6018 10.3852 88.4358 6.98604 88.8883C3.12248 89.3967 0.0876915 93.2002 0.692248 94.4934C0.948484 95.0419 1.93339 96.8516 6.29741 95.2661C9.15203 94.2332 10.5133 94.8658 11.7144 94.4654C12.9876 94.045 15.4859 93.5405 15.7941 91.875Z" fill="white"/>
<path d="M3.27148 96.5069C1.32169 96.5069 0.468904 95.51 0.132594 94.7533C-0.119638 94.2088 -0.0115386 93.4721 0.452889 92.6273C1.14793 91.4814 2.08361 90.5002 3.19519 89.7516C4.30677 89.0029 5.56772 88.5047 6.89081 88.2913C9.53725 87.943 12.6481 88.98 16.1353 91.3782L16.4556 91.5984L16.3835 91.9987C16.0512 93.7924 13.9013 94.445 12.48 94.8774L11.8994 95.0575C11.3387 95.2162 10.7557 95.2811 10.1738 95.2497C8.91977 95.2107 7.67009 95.416 6.49445 95.8543C5.46588 96.2563 4.37543 96.4771 3.27148 96.5069ZM7.91976 89.4284C7.62788 89.4267 7.33623 89.4454 7.04696 89.4844C5.91163 89.6737 4.82988 90.1035 3.87421 90.745C2.91855 91.3864 2.11105 92.2248 1.50586 93.2038C1.17756 93.8044 1.17756 94.1487 1.2216 94.2488C1.95827 95.8222 4.2724 95.3698 6.08607 94.7092C7.39249 94.223 8.78042 93.9933 10.1738 94.0326C10.6248 94.0586 11.0771 94.0154 11.5151 93.9045L12.1316 93.7123C13.2046 93.388 14.6259 92.9556 15.0783 92.1108C12.3879 90.3292 9.98566 89.4284 7.91976 89.4284Z" fill="#077594"/>
<path d="M42.0404 35.3521C41.0114 34.7155 39.0696 33.8948 38.6573 31.7488C38.357 30.1713 40.1506 27.3087 39.2618 25.5191C38.1968 23.3851 34.1651 26.3198 33.6566 28.4097C33.2082 30.2234 34.7376 30.9841 35.134 32.1251C35.4743 33.106 32.0432 31.7928 29.2806 32.1051C23.9757 32.7017 19.1553 38.1106 21.017 40.685C23.8196 44.5766 27.7672 37.9865 28.7081 39.1516C29.4408 40.0524 25.9456 42.9431 26.3299 46.4703C26.6422 49.325 28.9243 51.2467 29.8892 51.0265C32.0752 50.5261 30.81 45.8498 31.3025 45.8698C32.5036 45.9258 32.3555 48.7084 32.904 48.6483C32.8079 48.272 32.8079 47.1109 33.2042 46.7106C34.1771 45.7377 36.183 47.4352 36.7275 46.8547C37.4882 46.054 35.2101 42.7549 35.7826 40.4048C36.5113 37.3099 39.426 35.5002 42.0404 35.3521Z" fill="#077594"/>
<path d="M40.2078 45.6157C40.5793 45.6157 40.8804 45.3146 40.8804 44.9431C40.8804 44.5716 40.5793 44.2705 40.2078 44.2705C39.8363 44.2705 39.5352 44.5716 39.5352 44.9431C39.5352 45.3146 39.8363 45.6157 40.2078 45.6157Z" fill="#077594"/>
<path d="M43.032 44.9439C43.4035 44.9439 43.7046 44.6427 43.7046 44.2713C43.7046 43.8998 43.4035 43.5986 43.032 43.5986C42.6605 43.5986 42.3594 43.8998 42.3594 44.2713C42.3594 44.6427 42.6605 44.9439 43.032 44.9439Z" fill="#077594"/>
<path d="M42.1414 47.7847C42.5128 47.7847 42.814 47.4835 42.814 47.1121C42.814 46.7406 42.5128 46.4395 42.1414 46.4395C41.7699 46.4395 41.4688 46.7406 41.4688 47.1121C41.4688 47.4835 41.7699 47.7847 42.1414 47.7847Z" fill="#077594"/>
<path d="M43.1288 59.7527C42.1037 59.8069 41.0797 59.6276 40.134 59.2282L39.7777 59.0401L39.8178 58.6397C40.1701 55.1365 40.058 52.9465 39.4414 51.313L40.5664 50.8886C41.223 52.6342 41.3672 54.8722 41.0549 58.3194C43.2249 59.0281 48.738 58.0912 50.8919 56.818C51.4485 56.4897 51.5646 56.2575 51.5686 56.2135C51.562 56.198 51.554 56.1833 51.5445 56.1694C50.98 55.3407 50.2554 54.9443 49.4186 54.4799C47.9572 53.6791 46.2997 52.7663 45.563 49.3832L46.7361 49.127C47.3567 51.9736 48.6379 52.6822 49.9951 53.4309C50.8879 53.9194 51.8128 54.4278 52.5375 55.4968C52.7144 55.7537 52.7931 56.0657 52.7593 56.3758C52.7255 56.6859 52.5814 56.9736 52.3533 57.1864C51.1442 58.5356 46.5319 59.7527 43.1288 59.7527Z" fill="#077594"/>
</g>
<defs>
<clipPath id="clip0">
<rect width="89" height="100" fill="white"/>
</clipPath>
</defs>
</svg>
