<svg width="71" height="75" viewBox="0 0 71 75" fill="none" xmlns="http://www.w3.org/2000/svg">
<path d="M36.5594 12.2203C36.7406 14.6134 36.87 13.6533 36.6747 17.8326C36.4959 21.6118 36.3288 22.4331 35.9688 24.478C36.9594 26.144 40.5857 24.6662 41.8211 23.7367C41.3975 21.7436 41.2799 23.7038 40.9198 18.0891C40.5904 12.9756 40.6681 13.8251 40.9198 11.119C39.9833 10.5895 37.3265 11.4461 36.5594 12.2203Z" fill="white"/>
<path d="M37.6015 25.7011C37.3823 25.7056 37.1632 25.6883 36.9473 25.6494C36.6625 25.6048 36.3907 25.4991 36.1506 25.3395C35.9105 25.1798 35.7079 24.97 35.5566 24.7246L35.4648 24.574L35.5354 24.1928C35.879 22.3102 36.0367 21.4348 36.2061 17.818C36.3496 14.7777 36.3167 14.4882 36.2202 13.627C36.1849 13.3046 36.1402 12.9022 36.0908 12.2621L36.0767 12.048L36.2273 11.895C37.1168 10.9961 39.9924 10.0478 41.1525 10.7184L41.409 10.8714L41.3807 11.1679C41.3407 11.6079 41.3031 11.9538 41.2725 12.248C41.1172 13.7281 41.1078 13.8176 41.3831 18.0674C41.6184 21.8043 41.7525 22.0984 41.9149 22.4702C42.0817 22.8423 42.2019 23.2335 42.2726 23.635L42.3361 23.9268L42.1008 24.108C41.2984 24.7081 39.2535 25.7011 37.6015 25.7011ZM36.4555 24.3669C36.632 24.558 36.8688 24.6826 37.1262 24.7199C38.2816 24.9552 40.2347 24.2116 41.2819 23.5433C41.2276 23.3097 41.1487 23.0825 41.0466 22.8656C40.823 22.3573 40.6866 22.049 40.4348 18.1427C40.1571 13.8152 40.1665 13.7211 40.3312 12.1656C40.3524 11.9609 40.3759 11.7303 40.4018 11.4597C39.5735 11.3185 37.7733 11.8715 37.0415 12.4315C37.0815 12.9234 37.1191 13.2575 37.1497 13.5305C37.2509 14.4459 37.2862 14.7541 37.1497 17.8698C36.9756 21.5501 36.8156 22.4326 36.4626 24.3692L36.4555 24.3669Z" fill="#077594"/>
<path d="M35.855 16.5429C36.8786 17.4465 39.4695 17.5218 41.032 16.8982C42.7969 16.1923 44.4018 14.545 44.6347 13.0578C46.7926 11.4812 48.2398 11.7236 48.1245 10.3964C47.8892 7.57256 46.0278 6.79131 42.6369 5.92534C41.8838 5.73237 37.8058 4.79816 35.0149 7.23606C34.0901 8.04791 33.4524 9.9281 32.1793 13.6885C31.2028 14.2297 31.0639 15.6887 31.8169 16.7076C32.3299 17.3806 34.0289 18.3972 35.855 16.5429Z" fill="white"/>
<path d="M33.6848 18.0318H33.506C33.1115 18.0031 32.7272 17.8933 32.377 17.7095C32.0268 17.5257 31.7183 17.2718 31.4705 16.9635C31.2321 16.6486 31.0629 16.2869 30.9741 15.902C30.8853 15.5171 30.8788 15.1179 30.9551 14.7303C31.0609 14.1962 31.3696 13.7238 31.8164 13.4125C33.0801 9.68275 33.7272 7.79785 34.7297 6.92247C37.5535 4.44692 41.5798 5.22112 42.7446 5.51056C45.9732 6.33182 48.2793 7.15779 48.5569 10.3628C48.6534 11.4712 47.8839 11.8218 46.9897 12.2312C46.3023 12.5268 45.6458 12.8894 45.0295 13.3137C44.6883 14.8668 43.0764 16.5564 41.1938 17.3141C39.3631 18.0436 37.0522 17.813 35.8945 17.1165C35.2978 17.6864 34.5098 18.0129 33.6848 18.0318ZM39.9067 6.03061C38.4477 6.03061 36.6969 6.353 35.3015 7.5743C34.4637 8.30614 33.7978 10.271 32.5906 13.8361L32.5365 13.9961L32.3882 14.0785C32.2368 14.167 32.1065 14.2874 32.0061 14.4312C31.9058 14.575 31.8378 14.7389 31.807 14.9115C31.7562 15.1775 31.762 15.4511 31.824 15.7147C31.8861 15.9782 32.0029 16.2257 32.167 16.4411C32.3391 16.6495 32.5517 16.8208 32.792 16.9446C33.0323 17.0684 33.2952 17.1421 33.5648 17.1612C34.2355 17.2059 34.9014 16.8976 35.5462 16.2411L35.8356 15.9493L36.1439 16.2222C36.9816 16.9588 39.3654 17.1 40.8715 16.4976C42.5375 15.834 44.0012 14.295 44.2036 12.996L44.2318 12.8172L44.3777 12.7113C45.0795 12.2058 45.8347 11.7788 46.6297 11.4382C47.571 11.0099 47.7286 10.897 47.691 10.4381C47.4557 7.88257 45.8696 7.20485 42.5305 6.35535C41.6723 6.14048 40.7913 6.02987 39.9067 6.02591V6.03061Z" fill="#077594"/>
<path d="M31.1569 16.0338C31.8629 17.0362 30.7004 14.6078 32.1782 13.6806C34.6843 16.1256 35.2373 9.06366 37.3317 7.69882C39.3719 6.36692 40.8779 5.66331 42.6357 5.91746C43.1299 5.1009 42.3863 4.30788 41.4074 3.57839C39.3578 2.05118 35.6444 2.98069 32.4653 6.87285C30.2392 9.60489 30.1239 14.5254 31.1569 16.0338Z" fill="#077594"/>
<path d="M33.9206 7.66714C34.3912 6.82705 34.7819 6.09992 34.476 5.54927C34.0689 4.80331 32.6146 4.78684 31.6521 5.10217C30.1226 5.6034 28.7107 7.3471 29.1036 8.99904C29.2731 9.68381 29.8096 10.5733 30.6073 10.7263C32.0875 11.011 33.4311 8.55899 33.9206 7.66714Z" fill="#077594"/>
<path d="M30.1964 7.44074C30.2321 7.02914 30.1314 6.61723 29.9098 6.26852C29.6883 5.91981 29.3582 5.65366 28.9704 5.51113C27.8903 5.14874 26.6854 6.02177 26.476 7.0807C26.3584 7.67841 26.5372 8.43613 27.0667 8.81029C28.0456 9.50448 30.0105 8.72557 30.1964 7.44074Z" fill="#077594"/>
<path d="M27.5346 6.49707C27.2099 5.73934 26.1463 5.44049 25.4168 5.73934C24.3343 6.18644 24.0449 7.9631 24.7108 8.58904C25.2968 9.13028 26.6404 8.84083 27.2452 8.02663C27.2993 7.95604 27.8382 7.21714 27.5346 6.49707Z" fill="#077594"/>
<path d="M25.6513 8.42437C25.2536 7.76783 24.2041 7.41486 23.6534 7.89255C23.1498 8.32789 23.1828 9.35388 23.7899 9.85275C24.397 10.3516 25.4136 10.1516 25.7384 9.56802C26.016 9.05502 25.6654 8.45496 25.6513 8.42437Z" fill="#077594"/>
<path d="M24.9623 10.086C24.6775 9.61535 23.9269 9.36356 23.5339 9.70712C23.1409 10.0507 23.1903 10.7519 23.6327 11.119C24.0751 11.4861 24.7928 11.3332 25.0235 10.9143C25.0808 10.7815 25.1052 10.6369 25.0946 10.4926C25.0839 10.3484 25.0385 10.2089 24.9623 10.086Z" fill="#077594"/>
<path d="M36.2136 21.8199C36.776 23.3518 37.4349 24.3307 38.9738 24.4248C40.5128 24.519 40.9411 23.6977 41.8118 22.307C43.1202 25.5214 43.0684 27.9805 45.8734 31.162C48.7325 34.407 55.3332 35.0895 59.2136 32.388C64.5882 28.6488 63.3622 19.3726 62.8939 15.8287C62.3621 11.8141 61.1855 9.79982 61.6562 9.55273C63.7529 10.3693 71.1395 20.3774 70.9983 28.0535C70.8336 37.885 67.1344 45.5329 52.314 45.5847C55.7897 51.6676 57.7405 53.1737 60.5925 64.4454C61.4915 67.994 63.614 76.3808 60.2866 82.0778C51.801 96.6064 10.5145 89.1374 9.22256 80.9342C8.75193 77.9127 10.4321 75.456 13.6701 73.3381C20.0872 69.1424 23.6452 71.5826 27.3185 68.4317C32.2885 64.1772 33.3568 55.2351 32.5214 54.7832C31.2695 57.6447 30.3777 58.8331 27.5656 61.3251C20.6896 67.4151 10.4227 66.3962 9.68143 64.596C13.7689 62.1934 15.1879 60.4403 21.4473 53.5055C33.0697 40.603 33.4556 24.2719 36.2136 21.8199Z" fill="#077594"/>
<path d="M39.2296 4.55533C38.9243 4.2757 38.7204 3.90256 38.6502 3.49452C38.5799 3.08648 38.6471 2.66665 38.8413 2.30098C39.3967 1.30558 40.8745 1.14321 41.7428 1.78799C42.2299 2.15273 42.6064 2.8328 42.4676 3.4658C42.2088 4.63769 40.2415 5.3813 39.2296 4.55533Z" fill="#077594"/>
<path d="M40.5711 2.06067C40.3052 1.27942 40.8911 0.345202 41.6277 0.0816453C42.7289 -0.313689 44.1361 0.806425 44.0561 1.72887C43.9879 2.52425 42.7972 3.21138 41.8018 3.01606C41.7147 2.99488 40.8252 2.80428 40.5711 2.06067Z" fill="#077594"/>
<path d="M43.2582 2.22479C43.1123 1.47177 43.6536 0.506964 44.3807 0.490492C45.0467 0.47402 45.7197 1.25057 45.5973 2.03418C45.4749 2.81779 44.5949 3.34725 43.9618 3.13076C43.4088 2.94251 43.2653 2.26008 43.2582 2.22479Z" fill="#077594"/>
<path d="M44.8827 2.99639C44.7768 2.45751 45.1651 1.76567 45.6852 1.75391C46.1558 1.75391 46.6429 2.29984 46.5535 2.8599C46.4641 3.41996 45.8475 3.80117 45.3769 3.64351C45.2495 3.58199 45.1384 3.49136 45.0526 3.37894C44.9667 3.26651 44.9085 3.13546 44.8827 2.99639Z" fill="#077594"/>
<path d="M61.9734 10.0592C61.1804 9.21678 60.6721 8.20962 58.1401 7.37659C56.5846 6.86595 55.7728 7.29423 54.9963 6.53416C54.1444 5.6823 53.9797 3.94566 54.6903 3.2397C55.7116 2.2043 58.6272 3.17146 60.2862 4.84928C62.1946 6.77653 62.5382 9.75802 61.9734 10.0592Z" fill="white"/>
<path d="M61.8772 10.6451L61.6301 10.3815C61.496 10.238 61.3689 10.0921 61.2395 9.94149C60.6253 9.23553 59.9876 8.48016 57.9921 7.82362C57.4975 7.66637 56.9853 7.5715 56.4672 7.54124C55.8295 7.48241 55.2248 7.42829 54.6647 6.86588C53.6316 5.83518 53.474 3.80674 54.3541 2.90547C54.569 2.70971 54.8208 2.55873 55.0947 2.46136C55.3687 2.36399 55.6593 2.32217 55.9495 2.33835C57.4109 2.33835 59.3758 3.25374 60.6206 4.51505C62.289 6.20463 62.8255 8.59076 62.6608 9.67087C62.6526 9.83292 62.6056 9.99063 62.5237 10.1307C62.4418 10.2708 62.3274 10.3891 62.1902 10.4757L61.8772 10.6451ZM55.9495 3.27963C55.6162 3.2566 55.2864 3.359 55.0247 3.56672C54.54 4.05853 54.6035 5.47515 55.3306 6.19993C55.6366 6.50819 55.926 6.54584 56.5519 6.60232C57.1412 6.64044 57.7236 6.75028 58.2862 6.92941C60.2982 7.59066 61.1101 8.36956 61.7431 9.08257C61.6029 7.61603 60.9719 6.2397 59.9523 5.17629C58.884 4.09618 57.1638 3.27963 55.9495 3.27963Z" fill="#077594"/>
<path d="M11.041 64.1973C9.86442 64.7126 8.87609 65.5268 5.94167 65.2468C4.13913 65.0774 3.51083 64.2584 2.38836 64.7056C1.13882 65.2021 0.171664 66.9152 0.55288 67.9788C1.10117 69.5084 4.48269 69.8237 6.92765 68.833C9.74206 67.6941 11.4693 64.7644 11.041 64.1973Z" fill="white"/>
<path d="M3.90419 69.8672C3.0577 69.8884 2.21589 69.7355 1.43099 69.4178C1.13498 69.3062 0.865052 69.135 0.637958 68.9148C0.410864 68.6946 0.231453 68.4301 0.110857 68.1376C-0.359779 66.8481 0.729744 64.8597 2.2146 64.269C3.0241 63.9466 3.65004 64.1584 4.31364 64.3843C4.85217 64.587 5.41445 64.7199 5.98675 64.7797C8.30934 65.0009 9.30003 64.5161 10.2601 64.0455C10.4578 63.949 10.6531 63.8525 10.8531 63.7654L11.192 63.6172L11.4273 63.9137C11.5179 64.0575 11.5736 64.2205 11.5899 64.3896C11.6063 64.5588 11.5828 64.7294 11.5214 64.8879C11.1943 66.0645 9.57065 68.2765 7.11628 69.2695C6.09266 69.6689 5.00293 69.8716 3.90419 69.8672ZM3.04292 65.0432C2.88116 65.0457 2.72137 65.0792 2.57229 65.142C1.56042 65.5444 0.710919 66.994 1.00507 67.82C1.17253 68.1621 1.46604 68.4261 1.82397 68.5565C3.05233 69.1072 5.17491 69.0272 6.76566 68.3941C8.35814 67.7211 9.66969 66.5192 10.479 64.9914C9.50005 65.4621 8.32346 65.9445 5.91145 65.7139C5.26787 65.6473 4.63532 65.4994 4.02891 65.2738C3.71508 65.1435 3.38199 65.0656 3.04292 65.0432Z" fill="#077594"/>
</svg>
