<svg width="45" height="68" viewBox="0 0 45 68" fill="none" xmlns="http://www.w3.org/2000/svg">
<path d="M27.8568 28.852C25.824 30.2035 21.8562 30.6353 19.804 29.2013C16.7907 27.0992 16.3004 25.099 15.0878 21.2982C14.335 21.0487 13.7536 21.1355 12.9401 20.5585C11.8554 19.7883 11.0332 18.311 11.1286 17.1178C13.8838 14.1197 18.3766 12.2714 19.6326 11.9829C23.1752 11.1629 27.5487 10.1541 29.9936 12.4601C32.7834 15.096 34.0156 18.619 33.3909 21.5954C34.4495 22.077 35.6101 22.8971 36.0874 23.6108C37.094 25.1033 35.7512 27.8693 33.7987 28.0363C32.56 28.1426 31.497 27.5634 30.6423 26.8432C29.7203 27.9452 29.0695 28.0559 27.8568 28.852Z" fill="white"/>
<path d="M23.2327 30.8613C21.7944 30.8613 20.3952 30.5467 19.3712 29.8308C16.3211 27.6961 15.6616 25.6157 14.5682 22.1707L14.4901 21.9234C14.4077 21.9039 14.3252 21.8887 14.2406 21.8713C13.6159 21.78 13.0213 21.5429 12.5051 21.1793C11.1579 20.2226 10.262 18.4893 10.3748 17.0575L10.3965 16.7971L10.5744 16.6041C13.4922 13.4368 18.1781 11.5407 19.4689 11.2435C23.172 10.3866 27.7819 9.3236 30.5327 11.9095C33.2835 14.4954 34.6611 18.0055 34.2359 21.1684C35.1774 21.6739 36.2035 22.4245 36.7176 23.186C37.3229 24.0841 37.3446 25.3814 36.774 26.5746C36.1688 27.8415 35.0537 28.6919 33.8649 28.7938C32.8041 28.8849 31.7541 28.5769 30.728 27.8632C30.2748 28.2811 29.7678 28.6364 29.2202 28.9197C28.9317 29.0845 28.6323 29.2559 28.2787 29.4902C27.001 30.3406 25.0832 30.8613 23.2327 30.8613ZM11.8847 17.4241C11.9389 18.2918 12.5659 19.3613 13.3816 19.9406C13.7238 20.1827 14.12 20.3376 14.5357 20.3918C14.8018 20.4411 15.0648 20.5063 15.3232 20.587L15.692 20.7085L16.0152 21.7216C17.076 25.0755 17.6097 26.759 20.239 28.5964C21.7098 29.6247 25.2481 29.6941 27.4348 28.2363C27.8318 27.9738 28.1703 27.7807 28.4675 27.6115C29.0798 27.3108 29.6228 26.886 30.062 26.3641L30.5501 25.7827L31.1315 26.273C32.0296 27.0323 32.8822 27.3577 33.7347 27.2926C34.3855 27.2362 35.0364 26.7025 35.4052 25.9302C35.7392 25.2317 35.7609 24.4919 35.4594 24.0472C35.0906 23.5005 34.0666 22.7456 33.0731 22.2987L32.5199 22.047L32.6457 21.4505C33.2358 18.6563 32.0187 15.4152 29.4719 13.0159C27.3242 10.9875 23.1546 11.9507 19.8051 12.7252C18.8224 12.9486 14.6008 14.6169 11.8847 17.4241Z" fill="#077594"/>
<path d="M20.6079 11.0416C19.7185 7.60744 24.6473 -0.41495 31.008 0.0167576C37.5291 0.450635 40.7311 8.07168 42.0588 11.2281C42.9135 13.2587 46.8315 22.5653 42.0588 27.7263C38.5878 31.4793 31.4766 32.0043 29.7259 29.6484C28.6932 28.2578 29.3137 27.5875 30.6413 26.8434C31.8584 26.1578 33.5635 29.6983 36.0388 26.4724C37.7005 24.303 34.7111 20.832 33.3899 21.5956C32.008 22.3853 30.7411 23.0751 30.1359 22.7541C29.7671 22.5545 30.8973 19.9339 30.0382 16.8338C28.7995 12.3324 26.654 10.4124 20.6079 11.0416Z" fill="#077594"/>
<path d="M8.67734 38.5909C9.22402 35.3824 11.6689 30.165 16.4242 29.6053C19.8367 29.204 24.2058 31.228 24.5833 34.2543C24.8002 36.0224 23.67 38.2113 22.0017 38.7992C19.9755 39.5107 18.8626 37.2633 16.3201 37.4563C12.4629 37.7492 10.8641 40.2982 9.19365 42.7236C8.77279 41.3959 8.4387 39.988 8.67734 38.5909Z" fill="white"/>
<path d="M8.93723 44.4313L8.45996 42.9539C8.0391 41.6284 7.64645 40.06 7.91762 38.4655C8.29753 36.3783 9.12576 34.3984 10.3452 32.6624C11.9375 30.4431 14.0049 29.1263 16.324 28.8529C18.2811 28.6644 20.2506 29.0544 21.9882 29.9745C23.9407 31.0115 25.1187 32.4975 25.3248 34.1614C25.6024 36.3763 24.1902 38.8299 22.2421 39.5154C20.8775 39.9949 19.8232 39.4373 18.8925 38.9427C18.1094 38.5284 17.374 38.1379 16.3674 38.2138C13.0243 38.4676 11.56 40.6001 10.0067 42.865L8.93723 44.4313ZM17.3978 30.3086C17.0991 30.3087 16.8007 30.3261 16.504 30.3606C12.2629 30.8596 9.94165 35.6322 9.41666 38.7193C9.30989 39.46 9.33708 40.2139 9.49693 40.9451C10.9656 38.9232 12.7987 36.9621 16.2697 36.6996C17.7102 36.5911 18.771 37.1508 19.6214 37.602C20.5391 38.088 21.0511 38.331 21.7561 38.0815C23.01 37.6476 24.021 35.8275 23.8366 34.348C23.5827 32.376 20.6758 30.3086 17.4043 30.3086H17.3978Z" fill="#077594"/>
<path d="M25.9503 37.4042C27.3062 37.5105 27.8203 38.272 29.519 38.0551C31.6992 37.76 32.7036 36.1633 33.4434 34.9572C36.1139 34.3649 41.0124 41.5217 43.2555 49.9259C45.5182 58.4082 46.2146 63.6712 43.1514 67.8971C39.791 72.5353 11.9795 80.3689 7.33484 72.9301C2.51447 65.2049 16.6025 59.532 24.6097 42.1856C26.0913 39.0486 25.8158 38.7666 25.9503 37.4042Z" fill="#077594"/>
<path d="M9.19203 42.7228C7.90776 41.6229 2.57975 50.9665 1.27161 56.8542C0.286707 61.2906 -1.59415 67.8443 2.68171 70.9552C13.1208 78.548 14.6328 75.1269 18.3338 70.9552C21.5076 67.3779 21.2994 60.8111 19.041 59.5312C17.9368 58.9064 17.1081 59.9759 15.6546 59.6722C10.8603 58.6743 7.78627 48.9468 9.19203 42.7228Z" fill="#077594"/>
<path d="M3.96715 12.8505C4.0843 11.115 4.69824 10.0693 6.67238 9.63111L7.52494 9.45973C8.3927 9.26231 8.84827 8.67875 8.9524 8.08C9.14114 6.99531 8.48815 6.25989 7.43383 6.07983C7.18193 6.03714 6.92406 6.04492 6.67519 6.10274C6.42633 6.16055 6.19143 6.26723 5.98414 6.41659C5.77686 6.56595 5.60131 6.75501 5.46771 6.97278C5.3341 7.19056 5.2451 7.43271 5.20587 7.68517L2.49414 7.21875C3.01913 4.18162 5.32736 2.85612 7.95014 3.31386C10.5729 3.7716 12.2347 5.76093 11.7748 8.42927C11.4038 10.5835 9.86571 11.807 8.0521 12.1172C7.15832 12.2604 6.52052 12.3797 6.36215 13.2909L6.26887 13.7074L3.88255 13.2995L3.96715 12.8505ZM2.61563 16.7033C2.6586 16.4648 2.74901 16.2373 2.8815 16.0343C3.01399 15.8313 3.18586 15.657 3.38694 15.5217C3.58802 15.3864 3.81421 15.2928 4.05213 15.2464C4.29004 15.2001 4.53483 15.202 4.77199 15.252C5.79594 15.4299 6.5357 16.3106 6.35565 17.3563C6.31003 17.5986 6.21662 17.8294 6.08088 18.0352C5.94513 18.241 5.76976 18.4177 5.565 18.555C5.36024 18.6923 5.13018 18.7875 4.88825 18.8349C4.64632 18.8824 4.39736 18.8812 4.15589 18.8315C3.91347 18.7963 3.68058 18.7128 3.47101 18.5859C3.26144 18.4591 3.07945 18.2915 2.93583 18.093C2.7922 17.8946 2.68986 17.6693 2.63486 17.4306C2.57986 17.1919 2.57332 16.9446 2.61563 16.7033Z" fill="#E05E48"/>
<path d="M31.1928 28.1709C31.4098 30.1602 31.6527 31.9652 33.5987 35.1325C31.8111 37.8008 29.9411 39.3194 26.674 37.5557C26.7521 33.7506 26.9734 32.4836 25.9082 30.3967" fill="white"/>
<path d="M29.2558 39.0718C28.388 39.0718 27.4183 38.8202 26.3119 38.2236L25.9041 38.0066V37.5424C25.9149 37.0066 25.9279 36.5206 25.9409 36.0759C26.019 33.3772 26.0494 32.3662 25.2207 30.7392L26.5744 30.0493C27.5788 32.0235 27.5376 33.3924 27.4595 36.1236C27.4595 36.4295 27.4422 36.7549 27.4335 37.102C29.5443 38.1021 30.9479 37.5641 32.6856 35.1127C30.8437 31.9866 30.6311 30.0949 30.4272 28.2639L31.935 28.0947C32.1519 29.9235 32.3341 31.6482 34.2345 34.7417L34.4927 35.1431L34.2215 35.5466C33.011 37.3732 31.4946 39.0718 29.2558 39.0718Z" fill="#077594"/>
</svg>
