<svg xmlns="http://www.w3.org/2000/svg" width="36.94" height="23.5" viewBox="0 0 36.94 23.5"><path d="M0,12.25C0,11.08,9.77,1,18,1S36.16,11,36,12.25c-.34,2.47-9.76,11.25-18,11.25S0,13.79,0,12.25Z" fill="#dbdbdc"/><circle cx="17.99" cy="12.25" r="7.24" transform="translate(-0.21 24.19) rotate(-67.5)" fill="#4b4e50"/><circle cx="23.07" cy="9.33" r="4.07" transform="translate(5.62 27.08) rotate(-67.5)" fill="#dbdbdc"/><path d="M25.28,22.59a1,1,0,0,1-.49-1.87c5.09-2.89,9.75-7.29,10.14-8.46C34.26,10.37,24.85,2,18,2c-2.46,0-7.43,2-9.5,3.79A1,1,0,1,1,7.15,4.28C9.58,2.16,15,0,18,0c7.87,0,19,9.76,19,12.25,0,2.33-6.72,7.68-11.17,10.21A1,1,0,0,1,25.28,22.59Z" fill="#4b4e50"/></svg>