<svg xmlns="http://www.w3.org/2000/svg" width="38.19" height="25" viewBox="0 0 38.19 25"><path d="M1.22,12.25C1.22,11.08,11,1,19.22,1s18.16,10,18,11.25c-.34,2.47-9.77,11.25-18,11.25S1.22,13.79,1.22,12.25Z" fill="#dbdbdc"/><circle cx="19.21" cy="12.25" r="7.24" transform="translate(0.54 25.31) rotate(-67.5)" fill="#dbdbdc"/><circle cx="24.26" cy="9.33" r="4.07" transform="translate(6.35 28.17) rotate(-67.5)" fill="#dbdbdc"/><path d="M28.7,21.25a1,1,0,0,1-.49-1.87c5.22-3,8-6.34,8-7.13C35.75,10.58,26.19,2,19.21,2c-2.46,0-7.42,2-9.49,3.79A1,1,0,0,1,8.4,4.28C10.83,2.16,16.28,0,19.21,0c7.88,0,19,9.76,19,12.25s-4.57,6.36-9,8.87A1,1,0,0,1,28.7,21.25Z" fill="#4b4e50"/><path d="M32.54,24.59a1,1,0,0,1-.61-.21L5.73,4a1,1,0,0,1-.17-1.41A1,1,0,0,1,7,2.37L33.16,22.8a1,1,0,0,1-.62,1.79Z" fill="#4b4e50"/><path d="M27.19,25a1,1,0,0,1-.61-.21L.38,4.36A1,1,0,0,1,1.62,2.78L27.81,23.21A1,1,0,0,1,27.19,25Z" fill="#4b4e50"/></svg>