<svg xmlns="http://www.w3.org/2000/svg" width="48" height="48" viewBox="0 0 48 48"><path d="M20.9,27.66l-1.74,1.51,0-3.29a.75.75,0,0,0-.22-.53.78.78,0,0,0-.53-.22L7.71,25.2V22.94l10.68-.07a.75.75,0,0,0,.74-.75V18.83l1.79,1.51A.75.75,0,0,0,22,20.25a.77.77,0,0,0-.09-1.06l-2.19-1.84a1.26,1.26,0,0,0-2.08,1l0,3.07-10.17.06A1.27,1.27,0,0,0,6.2,22.71v2.74a1.28,1.28,0,0,0,1.27,1.26h0l10.16-.07,0,3.07a1.25,1.25,0,0,0,.74,1.14,1.39,1.39,0,0,0,.52.11,1.21,1.21,0,0,0,.82-.32l2.14-1.84A.76.76,0,0,0,22,27.74.75.75,0,0,0,20.9,27.66Z" fill="#393d3f"/><path d="M41.37,23l-6.5-5.67a1.26,1.26,0,0,0-2.08,1l0,3.07-11.67.06a.76.76,0,0,0-.75.76.75.75,0,0,0,.75.74h0l12.41-.07a.75.75,0,0,0,.75-.75l0-3.28L40.18,24l-5.83,5.18V25.89a.77.77,0,0,0-.22-.54.75.75,0,0,0-.53-.22h0l-12.42.08a.73.73,0,0,0-.74.75.75.75,0,0,0,.75.75h0l11.66-.07v3.07a1.23,1.23,0,0,0,.74,1.14,1.35,1.35,0,0,0,.52.11,1.23,1.23,0,0,0,.82-.32l6.45-5.74A1.24,1.24,0,0,0,41.8,24,1.26,1.26,0,0,0,41.37,23Z" fill="#393d3f"/></svg>