<svg id="Layer_1" data-name="Layer 1" xmlns="http://www.w3.org/2000/svg" xmlns:xlink="http://www.w3.org/1999/xlink" viewBox="0 0 379.96 380.65"><defs><style>.cls-1{fill:none;}.cls-2{fill:#f6f6f6;}.cls-3{clip-path:url(#clip-path);}.cls-4{fill:#f3cec9;}.cls-5{fill:#077594;}.cls-6{fill:#fff;}.cls-7{fill:#0a7791;}.cls-8{fill:#e05e48;}</style><clipPath id="clip-path"><circle class="cls-1" cx="189.98" cy="189.98" r="189.98"/></clipPath></defs><circle class="cls-2" cx="189.98" cy="189.98" r="189.98"/><g class="cls-3"><path class="cls-4" d="M58.07,202c-8.69-11.92-10.35-22,.06-35.52l4.59-5.74c4.49-5.92,4.34-12.23,1.76-16.67-4.69-8.07-12.88-9.26-20.62-4.76-7.07,4.11-10.93,13.4-5.83,22.56L17.94,173.56C4.83,151,12.63,129.94,32.06,118.64c19.59-11.39,41.1-7.38,52.59,12.38,9.29,16,6,32.24-4.13,44-5,5.78-8.5,10-4.58,16.76l1.66,3.23L60,205.31Zm12.19,32.35c-4.49-7.74-1.4-16.81,6-21.12,7.58-4.41,17.16-2.71,21.66,5s1.33,17.08-6.24,21.48C84.28,244.06,74.77,242.09,70.26,234.36Z"/><path class="cls-4" d="M275,202.8c4.33-7.69,9.39-11.09,19.36-8.79l4.26,1.07c4.34,1,7.74-.67,9.52-3.18,3.23-4.56,1.84-9.31-2.53-12.41a9.74,9.74,0,0,0-13.73,2.43l-11.35-8c9-12.75,22.43-13.73,33.4-6s14.23,20.55,6.33,31.71c-6.39,9-16.07,11.25-25,8.69-4.39-1.29-7.57-2.14-10.27,1.68l-1.34,1.7-10-7.05Zm-14.58,14.68a9.16,9.16,0,0,1,13-2c4.28,3,5.74,8.67,2.64,13s-9,5-13.24,1.94A9.24,9.24,0,0,1,260.38,217.48Z"/><path class="cls-5" d="M247.44,150.52c2.26.5,8.9,3.62,23.7.3,57.52-12.9,32.22-73.21,4.54-95.74C242.42,28,181.28,38.16,158.22,68.3c-13.05,17-11.35,45.21-32,77.57-11.11,17.39-22.33,24.85-41.13,27.17-12.22,1.5-18.67-11.91-25-6.15C54.51,172,54.5,183,57.76,190.46c8.69,19.84,47.57,29.77,76.48,18.92,30.82-11.56,44.43-38.24,50.24-48.43,9.65-17,13.63-19.27,23.43-21C220.39,137.72,225.06,145.56,247.44,150.52Z"/><path class="cls-6" d="M207.23,157c1.83,5.65,6,9,4.15,30.64-1.28,15-8.28,21.31-4.1,27.2s17.09,7.08,22,1.86S227.36,204,227,185.38c-.33-18.92,0-15.89,1.49-26.07C220.82,161.81,210.51,159.18,207.23,157Z"/><path class="cls-5" d="M219.73,222c-.49,0-1,0-1.5,0-5.47-.37-10.17-2.62-12.58-6-2.93-4.13-1.52-8.28.27-13.54a59.8,59.8,0,0,0,3.47-15c1.45-17-.87-22.26-2.74-26.53a34.76,34.76,0,0,1-1.32-3.32l-1.79-5.49,4.8,3.21c3,2,12.7,4.32,19.56,2.08l3.07-1-.47,3.19c-.29,2-.54,3.47-.75,4.72-.83,5-1,6-.72,21a80.25,80.25,0,0,0,2.67,18.73c1.43,6,2.46,10.31-1,14C228.34,220.59,224.3,222,219.73,222Zm-8.81-61.32c1.9,4.52,3.84,10.84,2.46,27.07a63.14,63.14,0,0,1-3.68,15.94c-1.76,5.18-2.46,7.57-.78,9.93s5.36,4.05,9.58,4.34c3.93.27,7.5-.76,9.31-2.69s1.36-4.61,0-10.3A85.2,85.2,0,0,1,225,185.42c-.27-15.44-.09-16.53.78-21.76.09-.52.18-1.08.28-1.71A34.63,34.63,0,0,1,210.92,160.72Z"/><path class="cls-6" d="M230,172.41c-4.88,3.46-16.2,2.58-22.7-.86-7.35-3.88-13.58-11.77-13.9-18.39-8.65-7.87-15.07-7.49-13.95-13.21,2.38-12.2,10.8-14.72,26-16.89,3.38-.49,21.56-2.67,32.57,9.25,3.66,4,5.56,12.44,9.35,29.4,4,2.8,3.94,9.21.17,13.25C244.94,177.7,237.07,181.33,230,172.41Z"/><path class="cls-7" d="M229.55,174.85c-5.35,2.48-15.53,2.42-23.15-1.61-7.85-4.15-14.08-12.25-14.85-19.17a49.38,49.38,0,0,0-8-5.63c-3.69-2.19-6.88-4.08-6-8.85,2.7-13.82,13.13-16.35,27.56-18.42,5.21-.75,23.08-2.24,34.24,9.85,3.95,4.27,5.89,12.78,9.66,29.61a9.11,9.11,0,0,1,3.13,6.15,12.24,12.24,0,0,1-3.28,9.48,12.56,12.56,0,0,1-9.36,3.7l-.78-.05C236.23,179.64,232.88,178.47,229.55,174.85Zm-23.88-49.91c-14.93,2.14-22.2,4.36-24.36,15.38-.38,2,.28,2.54,4.16,4.84a52.36,52.36,0,0,1,9.21,6.59l.58.53,0,.79c.27,5.75,5.93,13.12,12.88,16.8,6.27,3.31,16.72,3.81,20.7,1l1.48-1.05,1.12,1.42c2.5,3.15,5.25,4.8,8.2,4.92a8.66,8.66,0,0,0,6.41-2.49,8.36,8.36,0,0,0,2.28-6.48,5.36,5.36,0,0,0-2.14-3.91l-.61-.42-.16-.72c-3.6-16.08-5.58-24.95-8.89-28.53-5.51-6-13-8.18-19.33-8.86A48.43,48.43,0,0,0,205.67,124.94Z"/><path class="cls-6" d="M205.67,124.94c-14.93,2.14-22.2,4.36-24.36,15.38-.38,2,.28,2.54,4.16,4.84a52.36,52.36,0,0,1,9.21,6.59l.58.53,0,.79c.27,5.75,5.93,13.12,12.88,16.8,6.27,3.31,16.72,3.81,20.7,1l1.48-1.05,1.12,1.42c2.5,3.15,5.25,4.8,8.2,4.92a8.66,8.66,0,0,0,6.41-2.49,8.36,8.36,0,0,0,2.28-6.48,5.36,5.36,0,0,0-2.14-3.91l-.61-.42-.16-.72c-3.6-16.08-5.58-24.95-8.89-28.53-5.51-6-13-8.18-19.33-8.86A48.43,48.43,0,0,0,205.67,124.94Z"/><path class="cls-5" d="M219.62,123.42c-14.12-1.86-14.76,1.87-14.49-2.25.39-5.93,16.35-12.11,29.85-9.31,18.88,3.91,31.4,25,30.36,41.75-.89,14.29-18.67,26.07-16,17.67,1.65-5.22,2.89-13.88-10.32-9.79-10.37,3.22,3.38-14.55-2.13-21.64C234.27,136.5,231.36,129.15,219.62,123.42Z"/><path class="cls-5" d="M177.11,204.94c4.52-3.85,9.89-5.52,15.27-2.42,4.16,2.41,3.2,2.76,6.09,3.23,3.92.64,5.21-1.86,8-5.18,3.47,4.47,7.38,7.49,11.89,7.67,5.73.22,11.24-.47,12.69-8.05,2.13,2.25,3.12,2.63,6.31,2.46,3.35-.19,3-2.49,10.74-3.48,11.49-1.48,15.43,16.91,21.92,32.66,6.85,16.63,17.38,34.16,27.57,32.79,16.51-2.23,20.86-55.64,22.6-76.75,13.66,5.71,44.95,75.31,18.38,105.31-18,20.29-34.09,19.54-43.53,18.05-.8,8.43,21.29,15.25,24.16,30.63,3.14,16.87-36.44,40.89-72,51.66-43.27,13.11-107.5,14.78-118.73-10.92-12.11-27.76,26.91-80.78,32.05-88.92C150.28,305.6,142.63,320.57,118,319c-19.56-1.24-34.83-18.28-41.72-31.79-13.55-26.53-4.47-55.89,1.49-59.11,7.94,26.57,9.88,34.54,31,43.21,15.12,6.2,33.33-2.22,45.46-16.89C173.33,231.35,165.13,215.14,177.11,204.94Z"/><path class="cls-6" d="M321.91,190c-5.71-12,10.14-45.45,25.09-41.35,8.16,2.23,15.94,11.4,11.92,16.88-3.43,4.68-6.79,3.52-21.11,7.7C325,177,322.68,183.53,321.91,190Z"/><path class="cls-5" d="M323.07,197.09l-3-6.25c-4.2-8.87,1.83-26.44,10-36.22,5.58-6.66,11.76-9.47,17.39-7.92,6.1,1.67,12.07,6.88,13.9,12.12a8.24,8.24,0,0,1-.89,7.88c-2.74,3.74-5.6,4.38-11.29,5.67-2.77.62-6.21,1.4-10.87,2.76-12.11,3.54-13.79,9.39-14.47,15.09Zm21.37-46.81c-4.69,0-9,4.18-11.25,6.91a48.89,48.89,0,0,0-10.26,23.38c2.4-3.7,6.64-7,14.32-9.28,4.78-1.39,8.29-2.18,11.1-2.82,5.45-1.23,7.1-1.61,8.95-4.14a4.35,4.35,0,0,0,.34-4.2c-1.41-4-6.32-8.25-11.17-9.58A7.93,7.93,0,0,0,344.44,150.28Z"/><path class="cls-6" d="M77,230c.5-7.95-15.13-23.27-29.56-17.76C39,215.45,30.78,225,33.05,231.58a9.59,9.59,0,0,0,7.45,6c6.34.92,9-6.16,18.88-10.92C70,221.51,73.21,228.9,77,230Z"/><path class="cls-5" d="M41.62,239.63a10,10,0,0,1-1.41-.11,11.52,11.52,0,0,1-9-7.29c-2.24-6.52,4.09-17.5,15.58-21.89,7-2.67,15.13-1.16,22.33,4.14C75.21,219,79.3,225.42,79,230.09l-.16,2.47-2.38-.67a11.47,11.47,0,0,1-3.8-2.23c-2.85-2.18-5.78-4.43-12.43-1.24A40.67,40.67,0,0,0,51,234.8C48,237.37,45.34,239.63,41.62,239.63ZM53.82,213a15.66,15.66,0,0,0-5.65,1c-8.17,3.11-15,11.78-13.23,16.86a7.6,7.6,0,0,0,5.85,4.62c2.58.38,4.28-1,7.6-3.8a44.6,44.6,0,0,1,10.12-6.95c7.65-3.67,12.16-1.51,15.23.66a24.33,24.33,0,0,0-7-7.77C64.51,216.09,59.6,213,53.82,213Z"/><path class="cls-8" d="M117.39,96.18c-3.87-5.3-4.61-9.77,0-15.8l2-2.55a6.6,6.6,0,0,0,.78-7.42c-2.09-3.59-5.73-4.12-9.17-2.12a7.26,7.26,0,0,0-2.6,10l-8.93,5.2c-5.84-10-2.36-19.41,6.28-24.43s18.28-3.29,23.39,5.51c4.13,7.1,2.65,14.33-1.84,19.59-2.22,2.57-3.78,4.45-2,7.46l.74,1.43-7.84,4.56Zm5.42,14.39a6.8,6.8,0,0,1,2.68-9.39c3.37-2,7.63-1.21,9.63,2.23a7,7,0,0,1-2.78,9.56A6.87,6.87,0,0,1,122.81,110.57Z"/><path class="cls-8" d="M324.79,138c1.52-3,3.39-4.43,7.25-3.73l1.66.33a3.4,3.4,0,0,0,3.59-1.39c1.15-1.81.53-3.6-1.2-4.71a3.74,3.74,0,0,0-5.22,1.18l-4.5-2.87c3.23-5,8.35-5.67,12.7-2.89s5.83,7.61,3,12a8.43,8.43,0,0,1-9.42,3.79c-1.71-.41-2.94-.68-3.9.83l-.49.68-3.94-2.52Zm-5.32,5.89a3.51,3.51,0,0,1,4.94-1,3.56,3.56,0,0,1,1.25,5,3.6,3.6,0,0,1-5,1A3.55,3.55,0,0,1,319.47,143.85Z"/></g></svg>