<svg xmlns="http://www.w3.org/2000/svg" width="36.73" height="26.61" viewBox="0 0 36.73 26.61"><path d="M0,12.57C0,11.4,9.77,1.31,18,1.32s18.16,10,18,11.25C35.64,15,26.22,23.81,18,23.82S0,14.1,0,12.57Z" fill="#b4d5de"/><circle cx="18" cy="12.57" r="8.63" transform="translate(-0.5 24.39) rotate(-67.5)" fill="#b4d5de"/><circle cx="14.11" cy="8.4" r="4.07" transform="translate(0.95 18.22) rotate(-67.5)" fill="#b4d5de"/><path d="M27.49,21.32a.76.76,0,0,1-.65-.38.74.74,0,0,1,.28-1c5.25-3,8.11-6.42,8.11-7.35C35,11.08,25.28,2.07,18,2.07c-2.5,0-7.56,2-9.66,3.85a.75.75,0,0,1-1-1.13C9.75,2.7,15.12.57,18,.57c7.78,0,18.73,9.56,18.73,12,0,2-4,5.87-8.87,8.65A.71.71,0,0,1,27.49,21.32Z" fill="#077594"/><path d="M28.53,26.61a.79.79,0,0,1-.53-.22L5.69,4.27A.75.75,0,0,1,6.75,3.2L29.06,25.32a.76.76,0,0,1-.53,1.29Z" fill="#077594"/><path d="M30.44,24.6a.79.79,0,0,1-.54-.22L7,1.28A.75.75,0,0,1,7,.22a.75.75,0,0,1,1.06,0L31,23.32a.75.75,0,0,1,0,1.06A.7.7,0,0,1,30.44,24.6Z" fill="#077594"/></svg>