<svg xmlns="http://www.w3.org/2000/svg" width="36.73" height="23.25" viewBox="0 0 36.73 23.25"><path d="M0,12C0,10.83,9.77.75,18,.75S36.16,10.72,36,12c-.34,2.47-9.76,11.25-18,11.25S0,13.54,0,12Z" fill="#b4d5de"/><circle cx="18" cy="12" r="8.63" transform="translate(0.03 24.04) rotate(-67.5)" fill="#077594"/><circle cx="14.11" cy="7.84" r="4.07" transform="translate(1.47 17.87) rotate(-67.5)" fill="#b4d5de"/><path d="M25.32,22.09a.75.75,0,0,1-.37-1.4c5.35-3,10.18-7.7,10.28-8.7C35,10.51,25.28,1.5,18,1.5c-2.5,0-7.56,2-9.66,3.85a.75.75,0,0,1-1-1.13C9.75,2.13,15.12,0,18,0c7.78,0,18.73,9.56,18.73,12,0,2.16-6.59,7.47-11,10A.69.69,0,0,1,25.32,22.09Z" fill="#077594"/></svg>