<svg id="Layer_1" data-name="Layer 1" xmlns="http://www.w3.org/2000/svg" viewBox="0 0 800 800"><circle cx="62.71" cy="21.71" r="44.71"/><circle cx="62.71" cy="172.36" r="44.71"/><circle cx="62.71" cy="323.01" r="44.71"/><circle cx="62.71" cy="473.66" r="44.71"/><circle cx="62.71" cy="624.31" r="44.71"/><circle cx="62.71" cy="774.96" r="44.71"/><circle cx="197.04" cy="21.71" r="44.71"/><circle cx="197.04" cy="172.36" r="44.71"/><circle cx="197.04" cy="323.01" r="44.71"/><circle cx="197.04" cy="473.66" r="44.71"/><circle cx="197.04" cy="624.31" r="44.71"/><circle cx="197.04" cy="774.96" r="44.71"/><circle cx="333.83" cy="21.71" r="44.71"/><circle cx="333.83" cy="172.36" r="44.71"/><circle cx="333.83" cy="323.01" r="44.71"/><circle cx="333.83" cy="473.66" r="44.71"/><circle cx="333.83" cy="624.31" r="44.71"/><circle cx="333.83" cy="774.96" r="44.71"/><circle cx="468.16" cy="21.71" r="44.71"/><circle cx="468.16" cy="172.36" r="44.71"/><circle cx="468.16" cy="323.01" r="44.71"/><circle cx="468.16" cy="473.66" r="44.71"/><circle cx="468.16" cy="624.31" r="44.71"/><circle cx="468.16" cy="774.96" r="44.71"/><circle cx="604.95" cy="23.86" r="44.71"/><circle cx="604.95" cy="174.51" r="44.71"/><circle cx="604.95" cy="325.16" r="44.71"/><circle cx="604.95" cy="475.82" r="44.71"/><circle cx="604.95" cy="626.47" r="44.71"/><circle cx="604.95" cy="777.12" r="44.71"/><circle cx="739.29" cy="23.86" r="44.71"/><circle cx="739.29" cy="174.51" r="44.71"/><circle cx="739.29" cy="325.16" r="44.71"/><circle cx="739.29" cy="475.82" r="44.71"/><circle cx="739.29" cy="626.47" r="44.71"/><circle cx="739.29" cy="777.12" r="44.71"/></svg>