<svg id="Layer_1" data-name="Layer 1" xmlns="http://www.w3.org/2000/svg" viewBox="0 0 800 800"><path d="M826.55,830.27a416.33,416.33,0,0,0-40-89c-21.56-36-41.92-69.94-75.73-91.15-24.18-15.17-40.1-14.52-64.19-13.54-24.95,1-56,2.28-97.57-15.44-84.89-36.17-128.87-114.65-150-152.37-20-35.72-25.3-57.92-30-77.5C365,374,361.17,357.82,346,329.36c-12.51-23.44-50.58-94.79-127.08-140.21-30.17-17.92-52.58-23.5-74.25-28.9C118,153.59,90.34,146.71,58.3,119.68c-42-35.44-69.89-86.86-82.92-152.86l61.81-12.2c10.18,51.6,31,90.94,61.74,116.91,20.85,17.59,36.81,21.57,61,27.59,23.63,5.89,53,13.22,91.17,35.86,38.6,22.91,73.4,53.83,103.46,91.89a473.63,473.63,0,0,1,47,72.84c19,35.62,24.23,57.57,28.84,76.93,4.24,17.83,7.9,33.23,23.63,61.28,19.09,34.06,54.62,97.46,119.74,125.21,28.52,12.15,47.89,11.36,70.32,10.45,27.9-1.14,59.51-2.43,100.23,23.12,46.6,29.24,73,73.28,96.28,112.13a479.38,479.38,0,0,1,46,102.53Z"/><path d="M923.78,748.17a416.33,416.33,0,0,0-40-89c-21.56-36-41.92-69.94-75.73-91.15-24.18-15.18-40.1-14.52-64.18-13.54-24.95,1-56,2.28-97.58-15.44-84.89-36.17-128.87-114.65-150-152.37-20-35.72-25.3-57.92-30-77.5-4.09-17.17-8-33.4-23.13-61.86-12.51-23.44-50.58-94.79-127.08-140.21-30.17-17.92-52.58-23.5-74.25-28.9-26.71-6.66-54.32-13.54-86.36-40.57-42-35.43-69.89-86.86-82.92-152.86l61.81-12.19c10.19,51.59,31,90.93,61.74,116.9C217,7,233,11,257.13,17c23.63,5.89,53.05,13.22,91.17,35.86,38.6,22.91,73.4,53.83,103.46,91.89a473.63,473.63,0,0,1,47,72.84c19,35.62,24.23,57.57,28.84,76.93,4.24,17.83,7.9,33.23,23.63,61.28C570.36,389.88,605.89,453.28,671,481c28.52,12.15,47.89,11.37,70.32,10.45,27.9-1.14,59.51-2.43,100.23,23.12,46.6,29.24,73,73.28,96.28,112.13a479.6,479.6,0,0,1,46,102.53Z"/><path d="M637.5,1016.43a416.48,416.48,0,0,0-40-89c-21.56-36-41.92-69.94-75.74-91.16-24.17-15.17-40.09-14.52-64.18-13.54-24.94,1-56,2.29-97.58-15.44C275.15,771.08,231.16,692.6,210,654.89c-20-35.72-25.3-57.92-30-77.5-4.09-17.18-7.95-33.4-23.13-61.86-12.51-23.45-50.58-94.79-127.08-140.21-30.18-17.92-52.58-23.5-74.25-28.91-26.71-6.65-54.33-13.53-86.36-40.57-42-35.43-69.9-86.86-82.92-152.85l61.81-12.2c10.18,51.6,31,90.93,61.73,116.9,20.85,17.6,36.81,21.57,61,27.59,23.64,5.89,53.05,13.23,91.18,35.86,38.59,22.92,73.4,53.83,103.46,91.9a474.18,474.18,0,0,1,47,72.83c19,35.63,24.23,57.58,28.84,76.94,4.24,17.83,7.9,33.22,23.62,61.28,19.09,34.06,54.62,97.45,119.75,125.2,28.52,12.16,47.89,11.37,70.32,10.45,27.89-1.13,59.51-2.42,100.23,23.13,46.6,29.24,73,73.28,96.28,112.13a479.38,479.38,0,0,1,46,102.53Z"/><path d="M734.73,934.33a416.48,416.48,0,0,0-40-89c-21.56-36-41.92-69.94-75.74-91.16-24.17-15.17-40.09-14.52-64.18-13.54-24.94,1-56,2.29-97.58-15.44C372.38,689,328.39,610.5,307.26,572.79c-20-35.72-25.3-57.92-30-77.5-4.09-17.18-7.95-33.4-23.13-61.86C241.66,410,203.59,338.64,127.09,293.22c-30.18-17.92-52.58-23.5-74.25-28.9-26.71-6.66-54.33-13.54-86.36-40.58-42-35.43-69.9-86.86-82.92-152.85l61.81-12.2c10.18,51.6,31,90.93,61.73,116.9,20.85,17.6,36.81,21.57,61,27.59,23.64,5.89,53.05,13.23,91.18,35.86,38.59,22.92,73.4,53.83,103.46,91.9a474.18,474.18,0,0,1,47,72.83c19,35.63,24.23,57.58,28.84,76.94,4.24,17.83,7.9,33.22,23.62,61.28C381.3,576.05,416.83,639.44,482,667.2c28.52,12.15,47.89,11.36,70.32,10.45,27.89-1.14,59.51-2.43,100.23,23.12,46.6,29.24,73,73.28,96.28,112.13a479.6,479.6,0,0,1,46,102.53Z"/><path d="M1009.54,662.45a416.26,416.26,0,0,0-40-89c-21.56-36-41.92-69.94-75.74-91.16-24.17-15.17-40.09-14.52-64.18-13.54-24.95,1-56,2.28-97.57-15.44-84.89-36.17-128.87-114.65-150-152.36-20-35.73-25.3-57.92-30-77.5-4.09-17.18-8-33.41-23.13-61.86C516.47,138.1,478.4,66.75,401.9,21.33c-30.18-17.91-52.58-23.5-74.25-28.9-26.71-6.65-54.33-13.54-86.36-40.57C199.29-83.57,171.4-135,158.37-201l61.81-12.2c10.18,51.6,30.95,90.93,61.73,116.9,20.85,17.59,36.81,21.57,61,27.59,23.64,5.89,53.05,13.22,91.18,35.86C472.65-9.93,507.46,21,537.52,59.06a474.18,474.18,0,0,1,47,72.83c19,35.63,24.23,57.57,28.84,76.93,4.24,17.83,7.9,33.23,23.62,61.29,19.09,34.06,54.63,97.45,119.75,125.2,28.52,12.16,47.89,11.37,70.32,10.45,27.9-1.13,59.51-2.42,100.23,23.13,46.6,29.24,73,73.27,96.28,112.13a479.65,479.65,0,0,1,46,102.53Z"/><path d="M1106.77,580.35a416.26,416.26,0,0,0-40-89c-21.56-36-41.92-69.94-75.74-91.16C966.89,385,951,385.63,926.88,386.61c-24.94,1-56,2.28-97.58-15.44C744.42,335,700.43,256.52,679.3,218.81c-20-35.73-25.3-57.92-30-77.5-4.09-17.18-8-33.4-23.14-61.86C613.7,56,575.63-15.34,499.13-60.77c-30.18-17.91-52.58-23.5-74.25-28.9-26.71-6.65-54.33-13.54-86.36-40.57-42-35.43-69.9-86.86-82.92-152.85l61.81-12.2c10.18,51.6,30.95,90.93,61.73,116.9,20.85,17.59,36.81,21.57,61,27.59,23.64,5.89,53.05,13.22,91.18,35.86C569.88-92,604.69-61.11,634.75-23a474.18,474.18,0,0,1,47,72.83c19,35.63,24.23,57.57,28.84,76.94,4.24,17.82,7.9,33.22,23.62,61.28,19.09,34.06,54.62,97.45,119.75,125.2,28.52,12.16,47.89,11.37,70.32,10.45,27.89-1.14,59.51-2.42,100.23,23.13,46.6,29.24,73,73.27,96.28,112.13a479.38,479.38,0,0,1,46,102.53Z"/><path d="M543.11,1125.11a416.26,416.26,0,0,0-40-89c-21.56-36-41.92-69.94-75.73-91.16-24.18-15.17-40.1-14.52-64.19-13.54-24.94,1-56,2.28-97.57-15.44-84.89-36.17-128.87-114.65-150-152.36-20-35.73-25.3-57.92-30-77.5-4.09-17.18-8-33.41-23.13-61.86C50,600.76,12,529.41-64.53,484c-30.17-17.91-52.58-23.5-74.25-28.9-26.71-6.65-54.32-13.54-86.36-40.57-42-35.43-69.89-86.86-82.92-152.85l61.81-12.2c10.18,51.6,30.95,90.93,61.74,116.9,20.84,17.59,36.81,21.57,61,27.59,23.64,5.89,53.06,13.22,91.18,35.86,38.6,22.92,73.4,53.83,103.46,91.9a474.18,474.18,0,0,1,47,72.83c19,35.63,24.23,57.57,28.84,76.93,4.24,17.83,7.9,33.23,23.63,61.29,19.09,34.06,54.62,97.45,119.74,125.2,28.52,12.16,47.89,11.37,70.32,10.45,27.9-1.13,59.51-2.42,100.23,23.13,46.6,29.24,73,73.27,96.28,112.13a479.16,479.16,0,0,1,46,102.53Z"/><path d="M423.34,1194.44a416.78,416.78,0,0,0-40-89c-21.56-36-41.92-69.94-75.73-91.16-24.18-15.17-40.09-14.52-64.18-13.54-24.95,1-56,2.28-97.58-15.44C61,949.09,17,870.61-4.14,832.9c-20-35.73-25.3-57.92-30-77.5C-38.19,738.22-42,722-57.23,693.54c-12.51-23.45-50.58-94.8-127.08-140.22-30.17-17.91-52.58-23.5-74.25-28.9-26.7-6.65-54.32-13.54-86.36-40.57-42-35.43-69.89-86.86-82.92-152.85L-366,318.8c10.19,51.6,31,90.93,61.74,116.9,20.85,17.59,36.81,21.57,61,27.59,23.63,5.89,53,13.22,91.18,35.86,38.59,22.92,73.4,53.83,103.46,91.9a474.19,474.19,0,0,1,47,72.83c19,35.63,24.23,57.57,28.84,76.94,4.24,17.82,7.91,33.22,23.63,61.27,19.09,34.06,54.62,97.46,119.75,125.21,28.52,12.16,47.88,11.37,70.31,10.45,27.9-1.13,59.51-2.42,100.23,23.13,46.61,29.24,73,73.28,96.29,112.13a479.27,479.27,0,0,1,46,102.52Z"/><path d="M1219.93,484.55a416.78,416.78,0,0,0-40-89c-21.55-36-41.92-69.94-75.73-91.15-24.18-15.18-40.09-14.53-64.18-13.54-24.95,1-56,2.28-97.58-15.45C857.58,239.2,813.59,160.73,792.45,123c-20-35.72-25.3-57.92-30-77.5-4.08-17.18-7.94-33.4-23.13-61.86-12.51-23.45-50.57-94.79-127.07-140.21-30.18-17.92-52.59-23.5-74.25-28.9C511.33-192.12,483.71-199,451.67-226c-42-35.44-69.89-86.86-82.91-152.86l61.8-12.2c10.19,51.6,31,90.93,61.74,116.91,20.85,17.59,36.81,21.57,61,27.59,23.64,5.89,53.05,13.22,91.18,35.86,38.59,22.91,73.4,53.83,103.46,91.89A475,475,0,0,1,795-46c19,35.63,24.23,57.58,28.83,76.94,4.24,17.83,7.91,33.22,23.63,61.28C866.5,126.27,902,189.67,967.16,217.42c28.52,12.15,47.88,11.36,70.31,10.45,27.9-1.14,59.52-2.43,100.23,23.12,46.61,29.24,73,73.28,96.29,112.14a479.57,479.57,0,0,1,46,102.52Z"/></svg>