<svg width="129" height="128" viewBox="0 0 129 128" fill="none" xmlns="http://www.w3.org/2000/svg">
<rect opacity="0.9" x="0.5" width="128" height="128" rx="16" fill="#FFF1D5"/>
<g opacity="0.4">
<mask id="mask0" mask-type="alpha" maskUnits="userSpaceOnUse" x="22" y="11" width="96" height="117">
<rect x="22.5" y="11" width="95" height="116.714" fill="#C4C4C4"/>
</mask>
<g mask="url(#mask0)">
<path d="M78.6694 63.5509C74.967 66.0127 67.7399 66.799 64.0019 64.1871C58.5134 60.3582 57.6204 56.715 55.4115 49.7922C54.0404 49.3378 52.9814 49.4958 51.4997 48.4448C49.524 47.042 48.0264 44.3511 48.2003 42.1779C53.2185 36.717 61.4019 33.3505 63.6897 32.8249C70.1423 31.3313 78.1083 29.4939 82.5615 33.6942C87.643 38.4952 89.8874 44.9122 88.7494 50.3335C90.6777 51.2107 92.7917 52.7044 93.661 54.0044C95.4945 56.7229 93.0485 61.761 89.4923 62.0652C87.236 62.2588 85.2999 61.2038 83.743 59.892C82.0637 61.8993 80.8783 62.1008 78.6694 63.5509Z" fill="white"/>
<path d="M70.2449 67.2117C67.6251 67.2117 65.0765 66.6387 63.2114 65.3348C57.6558 61.4466 56.4546 57.6572 54.4631 51.3824L54.3208 50.9319C54.1707 50.8964 54.0205 50.8687 53.8664 50.8371C52.7284 50.6708 51.6455 50.239 50.7053 49.5766C48.2515 47.8341 46.6196 44.6769 46.825 42.069L46.8645 41.5948L47.1886 41.2431C52.5032 35.4741 61.0382 32.0206 63.3893 31.4793C70.1343 29.9185 78.531 27.9823 83.5414 32.6923C88.5517 37.4024 91.0608 43.7957 90.2864 49.5569C92.0013 50.4775 93.8703 51.8447 94.8068 53.2317C95.9092 54.8675 95.9487 57.2305 94.9095 59.4037C93.8071 61.7113 91.7761 63.2603 89.6107 63.446C87.6785 63.612 85.766 63.0509 83.897 61.7509C83.0717 62.5121 82.148 63.1593 81.1508 63.6752C80.6252 63.9755 80.0799 64.2876 79.4359 64.7144C77.1085 66.2633 73.6155 67.2117 70.2449 67.2117ZM49.5752 42.7368C49.674 44.3173 50.8159 46.2654 52.3017 47.3204C52.925 47.7614 53.6466 48.0435 54.4038 48.1423C54.8886 48.2321 55.3676 48.3509 55.8382 48.4979L56.5099 48.7192L57.0986 50.5645C59.0309 56.6733 60.0029 59.7396 64.792 63.0864C67.471 64.9594 73.9158 65.0858 77.8988 62.4305C78.6219 61.9524 79.2383 61.6007 79.7796 61.2925C80.8949 60.7448 81.8839 59.9711 82.6839 59.0204L83.573 57.9615L84.6319 58.8545C86.2678 60.2375 87.8207 60.8302 89.3736 60.7116C90.559 60.6089 91.7444 59.6369 92.4162 58.2302C93.0247 56.9578 93.0642 55.6104 92.515 54.8004C91.8432 53.8046 89.9782 52.4295 88.1684 51.6155L87.1608 51.1572L87.39 50.0705C88.4648 44.9812 86.2481 39.0778 81.6091 34.7075C77.6972 31.013 70.1027 32.7674 64.0017 34.1781C62.2117 34.585 54.5223 37.6237 49.5752 42.7368Z" fill="#077594"/>
<path d="M65.4678 31.1115C63.8477 24.8564 72.8253 10.2442 84.4108 11.0305C96.2886 11.8208 102.121 25.702 104.539 31.4513C106.096 35.1498 113.232 52.1013 104.539 61.5016C98.2169 68.3375 85.2643 69.2938 82.0755 65.0026C80.1946 62.4697 81.3247 61.2487 83.743 59.8934C85.9597 58.6448 89.0655 65.0934 93.574 59.2177C96.6008 55.2663 91.1558 48.9441 88.7494 50.335C86.2324 51.7733 83.9247 53.0299 82.8223 52.445C82.1506 52.0815 84.2092 47.3082 82.6445 41.6617C80.3882 33.4626 76.4803 29.9656 65.4678 31.1115Z" fill="#077594"/>
<path d="M43.735 81.2909C44.7307 75.4468 49.1839 65.9437 57.8454 64.9243C64.0609 64.1933 72.019 67.8799 72.7066 73.3921C73.1017 76.6125 71.043 80.5994 68.0044 81.6703C64.3138 82.9663 62.2868 78.8727 57.6557 79.2244C50.6302 79.7578 47.718 84.4007 44.6754 88.8183C43.9088 86.4001 43.3003 83.8356 43.735 81.2909Z" fill="white"/>
<path d="M44.2086 91.928L43.3393 89.2371C42.5728 86.8228 41.8576 83.9659 42.3515 81.0616C43.0435 77.26 44.552 73.6537 46.7731 70.4917C49.6734 66.4494 53.4391 64.0509 57.6631 63.553C61.228 63.2097 64.8152 63.92 67.9802 65.5959C71.5365 67.4847 73.6821 70.1914 74.0574 73.2221C74.5632 77.2565 71.9909 81.7255 68.4425 82.9741C65.9571 83.8474 64.0367 82.8319 62.3416 81.9309C60.9151 81.1762 59.5756 80.465 57.7421 80.6033C51.6531 81.0656 48.9859 84.9498 46.1567 89.0751L44.2086 91.928ZM59.6191 66.2044C59.075 66.2047 58.5315 66.2364 57.9911 66.2992C50.2661 67.2081 46.0381 75.9011 45.0819 81.524C44.8874 82.8732 44.9369 84.2464 45.2281 85.5781C47.9032 81.8954 51.2421 78.3233 57.5643 77.8452C60.1881 77.6476 62.1203 78.6671 63.6692 79.489C65.3407 80.3741 66.2732 80.8167 67.5574 80.3622C69.8413 79.572 71.6827 76.2568 71.3468 73.5619C70.8845 69.9701 65.5896 66.2044 59.6309 66.2044H59.6191Z" fill="#077594"/>
<path d="M75.1963 79.1291C77.6659 79.3227 78.6024 80.7096 81.6963 80.3145C85.6674 79.7771 87.4969 76.8689 88.8444 74.6719C93.7085 73.5932 102.631 86.6288 106.717 101.936C110.838 117.386 112.106 126.972 106.527 134.67C100.406 143.118 49.7493 157.386 41.2894 143.837C32.5094 129.766 58.1697 119.433 72.7543 87.8379C75.4531 82.1242 74.9513 81.6105 75.1963 79.1291Z" fill="#077594"/>
<path d="M44.6714 88.8184C42.3322 86.815 32.6275 103.834 30.2449 114.558C28.4509 122.638 25.0251 134.575 32.8133 140.242C51.8274 154.072 54.5815 147.84 61.3225 140.242C67.1034 133.726 66.7241 121.765 62.6107 119.434C60.5994 118.296 59.09 120.244 56.4426 119.691C47.71 117.873 42.1109 100.155 44.6714 88.8184Z" fill="#077594"/>
<path d="M32.2694 55.8089C31.0367 52.8902 31.1776 50.6862 34.0289 48.3545L35.275 47.3766C36.5244 46.3439 36.7867 45.0212 36.465 43.962C35.8824 42.0431 34.2173 41.3825 32.355 41.9543C31.9103 42.0915 31.4973 42.3156 31.1399 42.6137C30.7826 42.9119 30.488 43.278 30.2734 43.6909C30.0588 44.1038 29.9283 44.5553 29.8896 45.019C29.8509 45.4828 29.9048 45.9496 30.048 46.3923L25.2552 47.8576C23.6183 42.4876 26.2853 38.4389 30.9263 37.0324C35.5673 35.626 39.9014 37.4985 41.3417 42.2154C42.505 46.0232 41.0069 49.2745 38.3117 51.2663C36.9755 52.2322 36.0361 52.9493 36.5257 54.561L36.7156 55.3149L32.5001 56.6086L32.2694 55.8089ZM33.231 63.1834C33.1053 62.7602 33.0658 62.316 33.1148 61.8773C33.1638 61.4386 33.3004 61.0141 33.5164 60.6291C33.7325 60.2441 34.0236 59.9064 34.3725 59.6359C34.7215 59.3654 35.1211 59.1678 35.5478 59.0546C37.359 58.5042 39.2845 59.3299 39.8492 61.1782C39.9737 61.6097 40.011 62.0616 39.959 62.5076C39.907 62.9537 39.7667 63.3849 39.5463 63.7762C39.3259 64.1674 39.0298 64.5108 38.6753 64.7865C38.3207 65.0621 37.9149 65.2643 37.4813 65.3814C37.0582 65.5229 36.6109 65.5781 36.1661 65.5437C35.7212 65.5093 35.2878 65.3859 34.8915 65.181C34.4951 64.976 34.144 64.6936 33.8588 64.3505C33.5735 64.0074 33.3601 63.6105 33.231 63.1834Z" fill="#E05E48"/>
<path d="M84.7467 62.3125C85.1418 65.9359 85.5844 69.2235 89.1288 74.9925C85.8728 79.8527 82.4667 82.6187 76.5159 79.4062C76.6582 72.4755 77.0612 70.1679 75.1211 66.3666" fill="white"/>
<path d="M81.2177 82.1659C79.6372 82.1659 77.8709 81.7076 75.8557 80.6209L75.1129 80.2258V79.3802C75.1326 78.4042 75.1563 77.5191 75.18 76.709C75.3223 71.7935 75.3776 69.9522 73.8682 66.9886L76.3338 65.7321C78.1633 69.3278 78.0882 71.8212 77.946 76.796C77.946 77.3531 77.9144 77.9458 77.8986 78.578C81.7433 80.3996 84.2998 79.4197 87.4649 74.9546C84.1102 69.2607 83.7229 65.8151 83.3515 62.4801L86.0977 62.1719C86.4929 65.5029 86.8248 68.6443 90.2862 74.2789L90.7564 75.0099L90.2625 75.7449C88.0576 79.072 85.2956 82.1659 81.2177 82.1659Z" fill="#077594"/>
</g>
</g>
</svg>
