<svg width="129" height="128" viewBox="0 0 129 128" fill="none" xmlns="http://www.w3.org/2000/svg">
<rect x="0.5" width="128" height="128" rx="16" fill="#FFEFD0"/>
<g opacity="0.5">
<mask id="mask0" mask-type="alpha" maskUnits="userSpaceOnUse" x="0" y="0" width="129" height="128">
<rect opacity="0.9" x="0.5" width="128" height="128" rx="16" fill="#FFF1D5"/>
</mask>
<g mask="url(#mask0)">
<path d="M12.5185 124.775L-19.8319 119.121C-20.0701 119.08 -20.2867 118.958 -20.4447 118.775C-20.6027 118.592 -20.6922 118.36 -20.698 118.119L-21.5 81.6462C-21.506 81.4189 -21.437 81.196 -21.3036 81.012C-21.1703 80.8279 -20.98 80.6928 -20.7622 80.6277L19.4954 68.1976C19.6541 68.1494 19.8219 68.1396 19.9852 68.1687C20.1484 68.1979 20.3024 68.2653 20.4346 68.3654C20.5668 68.4656 20.6735 68.5956 20.7458 68.7448C20.8181 68.894 20.854 69.0583 20.8507 69.2241L20.1049 98.094C20.0962 98.348 20.1814 98.5963 20.3441 98.7916C20.5068 98.9868 20.7356 99.1153 20.987 99.1526L46.4327 103.162C46.6458 103.196 46.8433 103.294 46.998 103.444C47.1528 103.595 47.2572 103.789 47.2967 104.001C47.3363 104.213 47.3092 104.432 47.2191 104.628C47.129 104.824 46.9803 104.987 46.7936 105.095L13.2402 124.646C13.0236 124.777 12.7667 124.822 12.5185 124.775V124.775Z" fill="#E05E48"/>
<path d="M81.1972 55.9491C83.0771 55.8765 84.9108 55.3452 86.5382 54.4013L86.8189 54.2489H86.867C91.1413 54.2489 93.2825 52.0917 94.3972 50.2392C97.5248 44.9544 95.5199 36.4859 93.1783 32.4281C90.2592 27.3678 84.004 25.2106 79.0641 25.2667C70.6035 25.4351 64.5649 32.1714 62.4718 38.3705C61.0566 42.8758 61.4122 47.7512 63.4662 52.0035C64.3323 53.6074 65.415 54.6178 66.5858 54.9306C67.9892 55.2995 68.8393 54.5376 69.5289 53.9201C70.3048 53.1611 71.2464 52.5928 72.2796 52.2601C73.8048 53.4864 75.5378 54.4289 77.396 55.0429L78.0857 55.3236C79.0717 55.7344 80.129 55.947 81.1972 55.9491V55.9491ZM86.6264 51.8431C86.1935 51.881 85.7771 52.0271 85.4155 52.2681C84.2125 52.9017 81.6944 54.2169 78.9999 53.0701L78.2701 52.7814C76.7865 52.188 74.5411 51.2978 73.6108 50.1109L73.1297 49.4934L72.3277 49.6859C70.6554 50.0685 69.1193 50.9003 67.885 52.0917C67.6971 52.2819 67.4871 52.4488 67.2594 52.5889V52.5889C67.2253 52.5977 67.1894 52.5977 67.1552 52.5889C66.4306 52.2142 65.8623 51.5948 65.5513 50.8407C63.8284 47.1757 63.5423 42.998 64.7494 39.1323C66.5537 33.7112 71.7824 27.8169 79.1042 27.6966C83.186 27.6324 88.6794 29.4689 91.1333 33.655C93.2184 37.2718 94.8624 44.8261 92.3683 49.0363C91.2215 50.985 89.345 51.9073 86.6905 51.8431H86.6264Z" fill="#077594"/>
<path d="M101.511 55.1787C97.5653 56.9189 99.0489 59.0922 94.8387 60.5197C88.6236 62.6288 86.2178 62.6047 84.0365 64.6016C83.1383 62.9255 81.4302 58.0417 85.6404 46.7984C85.3196 42.4438 85.6404 40.5673 86.8994 38.4341C88.7038 37.1109 91.1738 33.7187 88.6236 31.0562C87.7014 30.0939 82.4085 29.0754 80.6763 33.6786C79.3451 35.2825 76.7468 34.6169 74.2608 34.3362C71.6545 34.0475 69.2807 33.6465 70.5237 38.3459C70.1789 38.9313 66.0649 39.6611 62.8652 43.1576C59.489 42.7967 57.7408 34.8494 60.5556 31.1284C61.0271 30.5486 61.6581 30.1196 62.3707 29.8945C63.0833 29.6693 63.8462 29.6578 64.5653 29.8613C64.7818 23.8147 70.1789 19.6045 82.4085 20.0295C95.392 20.5588 106.499 51.2011 101.511 55.1787Z" fill="#077594"/>
<path d="M51.7334 105.892C49.8488 99.8776 46.3042 94.8494 37.1701 93.9432C32.7033 93.5022 26.3759 94.9777 25.59 98.4261C25.1008 100.551 26.7769 103.238 28.9502 104.401C31.8853 105.932 34.1949 103.823 39.2231 103.462C46.7453 102.925 47.4751 104.713 51.7334 105.892Z" fill="white"/>
<path d="M53.5137 107.649L52.8561 105.532C51.156 100.127 47.86 93.7914 37.2583 92.7007C32.6792 92.2516 25.4136 93.655 24.4272 98.1138C23.7696 100.993 25.9749 104.152 28.4369 105.42C30.6342 106.574 32.5188 106.077 34.7081 105.492C36.2229 105.048 37.7785 104.758 39.3513 104.626C44.4677 104.265 46.1598 104.97 48.301 105.869C49.3245 106.319 50.3775 106.7 51.4527 107.007L53.5137 107.649ZM35.502 95.0665C36.0233 95.0665 36.5285 95.0665 37.0257 95.1386C44.7404 95.9406 47.9562 99.7418 49.7205 103.96L49.1591 103.727C46.9137 102.789 44.7885 101.899 39.1108 102.308C37.3864 102.451 35.6805 102.765 34.0184 103.246C31.8772 103.816 30.8106 104.048 29.4874 103.375C27.7071 102.436 26.3999 100.231 26.7368 98.7313C27.25 96.4618 31.5484 95.0665 35.502 95.0665V95.0665Z" fill="#077594"/>
<path d="M31.541 130.356C30.4183 122.802 27.5313 118.038 19.4076 115.047C17.6112 114.381 13.385 112.826 10.4419 115.047C10.3376 115.127 7.8596 117.044 8.20444 119.337C8.62947 122.2 12.8637 121.743 18.8462 126.25C22.6475 129.113 23.6579 131.342 26.8657 131.663C28.5162 131.677 30.1371 131.224 31.541 130.356V130.356Z" fill="white"/>
<path d="M27.1306 132.87C28.8933 132.811 30.6122 132.306 32.1267 131.402L32.8564 130.993L32.7281 130.191C31.445 121.546 27.708 116.831 19.8249 113.928C17.836 113.198 13.1848 111.522 9.72035 114.096C9.59204 114.193 6.56069 116.502 7.00978 119.526C7.33858 121.739 9.15097 122.517 11.4365 123.535C13.8171 124.485 16.0651 125.739 18.1247 127.264C19.1458 128.047 20.1255 128.882 21.0598 129.766C22.8161 131.37 24.1954 132.661 26.7537 132.91C26.88 132.905 27.0059 132.891 27.1306 132.87ZM30.218 129.662C29.2289 130.184 28.1285 130.459 27.0103 130.464C25.254 130.288 24.2917 129.405 22.7038 127.938C21.7118 126.998 20.6705 126.112 19.5843 125.283C17.3636 123.638 14.9372 122.29 12.3668 121.274C10.2095 120.344 9.4958 119.975 9.37551 119.157C9.14295 117.553 11.1318 116.013 11.1558 115.997C13.5617 114.177 17.3549 115.572 18.9748 116.165C25.8474 118.667 28.959 122.405 30.218 129.678V129.662Z" fill="#077594"/>
<path d="M22.3746 163.382C27.082 158.611 30.771 157.624 39.2796 153.879C54.0354 169.517 68.9515 170.223 86.6665 167.168C113.548 160.664 112.008 116.549 108.816 115.298C107.942 114.953 109.362 123.959 106.579 137.383C102.954 155.026 96.6186 158.073 89.2969 162.629C76.8427 166.863 62.6322 167.16 46.6495 156.871C39.1192 152.059 30.2577 139.035 31.5409 130.35C36.4728 131.04 47.0344 130.487 60.2264 140.342L63.6106 138.209C65.7678 135.675 67.9411 133.229 70.0261 130.743C60.0018 131.994 47.7241 112.122 51.7498 105.883C66.7703 114.416 71.4296 110.51 80.267 112.403C80.618 111.036 80.8858 109.648 81.0689 108.249C82.5525 96.2997 80.6038 96.7007 82.2077 82.386C82.6247 78.4885 84.4291 75.369 86.041 71.0706C89.2487 71.6239 94.8624 71.8725 98.5673 65.9141C116.852 82.7308 124.783 111.36 130.324 141.12C139.258 189.237 135.449 205.757 133.139 210.89C130.589 216.599 125.192 234.852 105.873 239.695C92.9698 242.903 76.6181 236.856 73.6429 235.421C68.735 219.021 59.8254 213.488 41.7416 198.965C24.163 184.842 17.0658 178.034 4.53138 177.873C8.53308 169.349 14.4354 171.41 22.3746 163.382Z" fill="#077594"/>
<path d="M-18.781 117.046L18.2527 99.0829L19.0547 70.4375L-19.5188 82.0657L-18.781 117.046Z" fill="#F3CEC9"/>
<path d="M90.2268 77.4632C93.7393 77.4632 99.0482 73.9908 100.403 69.8528L100.588 69.2834L100.243 68.7942C97.9133 65.4651 96.2844 61.6972 95.4555 57.7194C95.2951 57.0778 95.1427 56.4603 94.9743 55.8508L92.6567 56.4924C92.8171 57.0778 92.9694 57.6793 93.1218 58.2968C93.9538 62.3625 95.569 66.2275 97.8773 69.6763C96.498 72.7719 92.0231 75.29 89.9301 75.0734C89.3045 75.0093 89.0559 74.7527 88.9998 74.1111C88.9196 73.3092 88.8635 72.5072 88.8073 71.7053C88.4545 66.661 88.1257 61.8895 82.7446 54.0625L80.7638 55.3937C85.768 62.6674 86.0647 66.9096 86.3774 71.8256C86.4336 72.6275 86.4897 73.4294 86.5699 74.3036C86.6057 75.1128 86.939 75.8803 87.5058 76.4589C88.0726 77.0376 88.8331 77.3866 89.6414 77.4392C89.8418 77.4552 90.0183 77.4632 90.2268 77.4632Z" fill="#077594"/>
</g>
</g>
</svg>
