<svg width="245" height="100" viewBox="0 0 245 100" fill="none" xmlns="http://www.w3.org/2000/svg">
<path d="M21.5035 62.6966C32.7755 62.6966 42.9203 56.4616 42.9203 44.5977C42.9203 34.4658 35.0299 29.7029 26.0123 27.1916L19.3358 25.2865C13.0929 23.5545 12.6593 20.437 12.6593 18.9648C12.6593 14.9814 16.2143 12.1236 20.8966 12.1236C26.099 12.1236 29.0471 15.4144 29.0471 19.6576H41.0995C41.0995 8.31336 32.4287 1.47216 21.1567 1.47216C9.71126 1.47216 0.520247 8.57315 0.520247 19.2246C0.520247 24.5937 2.86135 32.4741 15.9542 35.938L23.2377 38.0163C28.3534 39.5751 30.7812 41.9132 30.7812 45.2039C30.7812 49.4472 27.2262 52.2183 21.8503 52.2183C16.3011 52.2183 12.1391 48.6678 12.0524 44.3379H0C0 54.9028 8.75748 62.6966 21.5035 62.6966Z" fill="#077594"/>
<path d="M82.7219 21.5628V26.4122C79.8605 22.3422 74.3979 20.6102 69.7157 20.6102C59.3108 20.6102 49.8597 28.6638 49.8597 41.6534C49.8597 54.643 59.3108 62.6966 69.7157 62.6966C74.2245 62.6966 79.8605 60.878 82.7219 56.8945V61.9172H94.0806V21.5628H82.7219ZM71.8834 52.1317C66.1607 52.1317 61.3918 47.542 61.3918 41.6534C61.3918 35.6782 66.1607 31.2617 71.8834 31.2617C77.1726 31.2617 82.375 35.4184 82.375 41.6534C82.375 47.8018 77.4327 52.1317 71.8834 52.1317Z" fill="#077594"/>
<path d="M105.548 61.9172H116.907V0H105.548V61.9172Z" fill="#077594"/>
<path d="M177.663 20.5236C173.501 20.5236 167.258 22.4287 164.136 28.3174C161.795 23.3813 157.113 20.5236 151.13 20.5236C146.621 20.5236 140.899 23.2081 139.685 28.7504V21.5628H128.326V61.9172H139.685V40.874C139.685 33.5998 143.847 31.6947 147.922 31.6947C151.737 31.6947 155.032 34.206 155.032 40.5276V61.9172H166.391V40.5276C166.651 34.4658 169.859 31.6081 174.368 31.6947C178.356 31.6947 181.651 34.2926 181.651 40.6142V61.9172H193.097V39.7482C193.097 27.6246 187.808 20.5236 177.663 20.5236Z" fill="#077594"/>
<path d="M223.19 62.6966C234.723 62.6966 244.954 54.3832 244.954 41.6534C244.954 28.837 234.723 20.5236 223.19 20.5236C211.658 20.5236 201.427 28.837 201.427 41.6534C201.427 54.3832 211.658 62.6966 223.19 62.6966ZM223.19 52.1317C217.554 52.1317 212.959 47.8884 212.959 41.6534C212.959 35.3318 217.554 31.0885 223.19 31.0885C228.826 31.0885 233.422 35.3318 233.422 41.6534C233.422 47.8884 228.826 52.1317 223.19 52.1317Z" fill="#077594"/>
<path fill-rule="evenodd" clip-rule="evenodd" d="M33.9078 95.0779C25.0788 95.9462 17.9966 97.1951 13.992 98.7276L13.1221 95.589C17.465 93.9271 24.8349 92.6578 33.6735 91.7886C42.5519 90.9155 53.0318 90.4359 63.6664 90.4001C84.8659 90.3288 106.922 92.0188 118.102 95.9865L117.29 99.1463C106.559 95.338 84.8929 93.6295 63.6744 93.7009C53.1 93.7365 42.697 94.2136 33.9078 95.0779Z" fill="#77B3C4"/>
<path d="M8.86415 86.5073H11.3674L6.97816 74.8011H4.40636L0 86.5073H2.53751L3.48051 83.7039H7.90401L8.86415 86.5073ZM4.18347 81.6481L5.67511 77.2477L7.1839 81.6481H4.18347Z" fill="#077594"/>
<path d="M20.9034 78.386C19.9947 78.386 18.8974 78.7428 18.3316 79.5414V78.5899H16.0856V90.398H18.3316V85.5219C18.8974 86.3204 19.9947 86.6602 20.9034 86.6602C22.9608 86.6602 24.8297 85.0801 24.8297 82.5316C24.8297 79.9831 22.9608 78.386 20.9034 78.386ZM20.4748 84.5704C19.4289 84.5704 18.4002 83.7549 18.4002 82.5316C18.4002 81.3253 19.3775 80.4758 20.4748 80.4758C21.6064 80.4758 22.5322 81.3763 22.5322 82.5316C22.5322 83.7039 21.6064 84.5704 20.4748 84.5704Z" fill="#077594"/>
<path d="M34.5384 82.4127C34.5384 79.9831 32.6695 78.386 30.3892 78.386C28.0917 78.386 26.1372 79.9831 26.1372 82.5486C26.1372 84.9952 27.9374 86.6602 30.3892 86.6602C31.7951 86.6602 33.201 86.1165 33.9554 85.1141L32.6352 83.8059C32.1552 84.3665 31.3493 84.6894 30.5435 84.6894C29.4634 84.6894 28.709 84.1797 28.4689 83.2622H34.5041C34.5212 82.9054 34.5384 82.6336 34.5384 82.4127ZM28.4689 81.818C28.709 80.7477 29.5148 80.3229 30.4235 80.3229C31.4351 80.3229 32.2238 80.8836 32.2923 81.818H28.4689Z" fill="#077594"/>
<path d="M40.856 78.386C39.8616 78.386 38.9529 78.9467 38.5071 80.2719V78.5899H36.2782V86.5073H38.5243V83.7889C38.5243 81.5292 39.313 80.4758 40.4617 80.4758C40.736 80.4758 41.1304 80.5098 41.6104 80.7646L42.1248 78.6409C41.7647 78.454 41.2847 78.386 40.856 78.386Z" fill="#077594"/>
<path d="M46.0558 86.6602C47.7017 86.6602 49.4163 85.8447 49.4163 84.1797C49.4163 83.534 49.1762 82.3447 47.256 81.835L45.9358 81.4952C45.49 81.3763 45.1471 81.1894 45.1471 80.8156C45.1471 80.4079 45.5586 80.153 46.0729 80.153C46.6044 80.153 47.0502 80.4418 47.0502 80.9685H49.1934C49.2105 79.0996 47.496 78.386 46.0386 78.386C44.1869 78.386 42.901 79.5244 42.901 80.7477C42.901 81.5802 43.1754 82.7185 45.2328 83.2622L46.2958 83.517C46.8959 83.67 47.1702 83.8399 47.1702 84.1797C47.1702 84.6384 46.673 84.9102 46.0215 84.9102C45.2328 84.9102 44.8385 84.4175 44.8385 83.9588H42.7296C42.7467 85.7088 44.3755 86.6602 46.0558 86.6602Z" fill="#077594"/>
<path d="M55.003 86.6602C57.2833 86.6602 59.3065 85.0292 59.3065 82.5316C59.3065 80.0171 57.2833 78.386 55.003 78.386C52.7226 78.386 50.6995 80.0171 50.6995 82.5316C50.6995 85.0292 52.7226 86.6602 55.003 86.6602ZM55.003 84.5874C53.8885 84.5874 52.9798 83.7549 52.9798 82.5316C52.9798 81.2913 53.8885 80.4588 55.003 80.4588C56.1174 80.4588 57.0261 81.2913 57.0261 82.5316C57.0261 83.7549 56.1174 84.5874 55.003 84.5874Z" fill="#077594"/>
<path d="M65.7218 78.386C64.9331 78.386 63.6643 78.8448 63.3214 79.9151V78.5899H61.0754V86.5073H63.3214V82.4467C63.3214 81.0025 64.3158 80.5778 65.1217 80.5778C65.8932 80.5778 66.6476 81.1384 66.6476 82.3957V86.5073H68.8937V82.1578C68.9108 79.7792 67.8135 78.386 65.7218 78.386Z" fill="#077594"/>
<path d="M77.0725 78.5899V79.5414C76.5067 78.7428 75.4266 78.403 74.5007 78.403C72.4433 78.403 70.5744 79.9831 70.5744 82.5316C70.5744 85.0801 72.4433 86.6602 74.5007 86.6602C75.3923 86.6602 76.5067 86.3034 77.0725 85.5219V86.5073H79.3186V78.5899H77.0725ZM74.9294 84.5874C73.7978 84.5874 72.8548 83.6869 72.8548 82.5316C72.8548 81.3593 73.7978 80.4928 74.9294 80.4928C75.9752 80.4928 77.0039 81.3083 77.0039 82.5316C77.0039 83.7379 76.0267 84.5874 74.9294 84.5874Z" fill="#077594"/>
<path d="M81.5862 86.5073H83.8322V74.3594H81.5862V86.5073Z" fill="#077594"/>
<path d="M87.2046 77.1797C87.9933 77.1797 88.6277 76.5851 88.6277 75.8375C88.6277 75.0899 87.9933 74.5123 87.2046 74.5123C86.4331 74.5123 85.7816 75.0899 85.7816 75.8375C85.7816 76.5851 86.4331 77.1797 87.2046 77.1797ZM86.0902 86.5073H88.3362V78.5899H86.0902V86.5073Z" fill="#077594"/>
<path d="M93.4232 86.6602C95.0691 86.6602 96.7837 85.8447 96.7837 84.1797C96.7837 83.534 96.5436 82.3447 94.6233 81.835L93.3031 81.4952C92.8574 81.3763 92.5145 81.1894 92.5145 80.8156C92.5145 80.4079 92.9259 80.153 93.4403 80.153C93.9718 80.153 94.4176 80.4418 94.4176 80.9685H96.5608C96.5779 79.0996 94.8634 78.386 93.406 78.386C91.5543 78.386 90.2684 79.5244 90.2684 80.7477C90.2684 81.5802 90.5427 82.7185 92.6002 83.2622L93.6632 83.517C94.2633 83.67 94.5376 83.8399 94.5376 84.1797C94.5376 84.6384 94.0404 84.9102 93.3889 84.9102C92.6002 84.9102 92.2058 84.4175 92.2058 83.9588H90.097C90.1141 85.7088 91.7429 86.6602 93.4232 86.6602Z" fill="#077594"/>
<path d="M106.485 82.4127C106.485 79.9831 104.616 78.386 102.336 78.386C100.039 78.386 98.084 79.9831 98.084 82.5486C98.084 84.9952 99.8843 86.6602 102.336 86.6602C103.742 86.6602 105.148 86.1165 105.902 85.1141L104.582 83.8059C104.102 84.3665 103.296 84.6894 102.49 84.6894C101.41 84.6894 100.656 84.1797 100.416 83.2622H106.451C106.468 82.9054 106.485 82.6336 106.485 82.4127ZM100.416 81.818C100.656 80.7477 101.462 80.3229 102.37 80.3229C103.382 80.3229 104.171 80.8836 104.239 81.818H100.416Z" fill="#077594"/>
<path d="M114.243 74.3594V79.5414C113.677 78.7428 112.597 78.403 111.671 78.403C109.614 78.403 107.745 79.9831 107.745 82.5316C107.745 85.0801 109.614 86.6602 111.671 86.6602C112.563 86.6602 113.677 86.3034 114.243 85.5219V86.5073H116.489V74.3594H114.243ZM112.1 84.5874C110.968 84.5874 110.025 83.6869 110.025 82.5316C110.025 81.3593 110.968 80.4928 112.1 80.4928C113.146 80.4928 114.175 81.3083 114.175 82.5316C114.175 83.7379 113.197 84.5874 112.1 84.5874Z" fill="#077594"/>
<path d="M127.921 78.5899L126.001 83.653L124.046 78.5899H121.612L124.989 86.5073H126.995L130.373 78.5899H127.921Z" fill="#077594"/>
<path d="M132.68 77.1797C133.469 77.1797 134.103 76.5851 134.103 75.8375C134.103 75.0899 133.469 74.5123 132.68 74.5123C131.908 74.5123 131.257 75.0899 131.257 75.8375C131.257 76.5851 131.908 77.1797 132.68 77.1797ZM131.566 86.5073H133.812V78.5899H131.566V86.5073Z" fill="#077594"/>
<path d="M138.899 86.6602C140.545 86.6602 142.259 85.8447 142.259 84.1797C142.259 83.534 142.019 82.3447 140.099 81.835L138.779 81.4952C138.333 81.3763 137.99 81.1894 137.99 80.8156C137.99 80.4079 138.401 80.153 138.916 80.153C139.447 80.153 139.893 80.4418 139.893 80.9685H142.036C142.053 79.0996 140.339 78.386 138.881 78.386C137.03 78.386 135.744 79.5244 135.744 80.7477C135.744 81.5802 136.018 82.7185 138.076 83.2622L139.139 83.517C139.739 83.67 140.013 83.8399 140.013 84.1797C140.013 84.6384 139.516 84.9102 138.864 84.9102C138.076 84.9102 137.681 84.4175 137.681 83.9588H135.572C135.589 85.7088 137.218 86.6602 138.899 86.6602Z" fill="#077594"/>
<path d="M150.057 78.5899V79.5414C149.492 78.7428 148.412 78.403 147.486 78.403C145.428 78.403 143.559 79.9831 143.559 82.5316C143.559 85.0801 145.428 86.6602 147.486 86.6602C148.377 86.6602 149.492 86.3034 150.057 85.5219V86.5073H152.304V78.5899H150.057ZM147.914 84.5874C146.783 84.5874 145.84 83.6869 145.84 82.5316C145.84 81.3593 146.783 80.4928 147.914 80.4928C148.96 80.4928 149.989 81.3083 149.989 82.5316C149.989 83.7379 149.012 84.5874 147.914 84.5874Z" fill="#077594"/>
<path d="M166.578 82.4127C166.578 79.9831 164.709 78.386 162.429 78.386C160.131 78.386 158.176 79.9831 158.176 82.5486C158.176 84.9952 159.977 86.6602 162.429 86.6602C163.834 86.6602 165.24 86.1165 165.995 85.1141L164.675 83.8059C164.195 84.3665 163.389 84.6894 162.583 84.6894C161.503 84.6894 160.748 84.1797 160.508 83.2622H166.543C166.561 82.9054 166.578 82.6336 166.578 82.4127ZM160.508 81.818C160.748 80.7477 161.554 80.3229 162.463 80.3229C163.474 80.3229 164.263 80.8836 164.332 81.818H160.508Z" fill="#077594"/>
<path d="M175.732 86.5073L172.594 82.2088L175.235 78.5899H172.594L171.36 80.4079L170.091 78.5899H167.434L170.074 82.2088L166.902 86.5073H169.543L171.343 83.9758L173.109 86.5073H175.732Z" fill="#077594"/>
<path d="M181.725 78.386C180.816 78.386 179.719 78.7428 179.153 79.5414V78.5899H176.907V90.398H179.153V85.5219C179.719 86.3204 180.816 86.6602 181.725 86.6602C183.782 86.6602 185.651 85.0801 185.651 82.5316C185.651 79.9831 183.782 78.386 181.725 78.386ZM181.296 84.5704C180.25 84.5704 179.222 83.7549 179.222 82.5316C179.222 81.3253 180.199 80.4758 181.296 80.4758C182.428 80.4758 183.354 81.3763 183.354 82.5316C183.354 83.7039 182.428 84.5704 181.296 84.5704Z" fill="#077594"/>
<path d="M195.36 82.4127C195.36 79.9831 193.491 78.386 191.211 78.386C188.913 78.386 186.959 79.9831 186.959 82.5486C186.959 84.9952 188.759 86.6602 191.211 86.6602C192.617 86.6602 194.022 86.1165 194.777 85.1141L193.457 83.8059C192.977 84.3665 192.171 84.6894 191.365 84.6894C190.285 84.6894 189.53 84.1797 189.29 83.2622H195.326C195.343 82.9054 195.36 82.6336 195.36 82.4127ZM189.29 81.818C189.53 80.7477 190.336 80.3229 191.245 80.3229C192.257 80.3229 193.045 80.8836 193.114 81.818H189.29Z" fill="#077594"/>
<path d="M201.677 78.386C200.683 78.386 199.774 78.9467 199.329 80.2719V78.5899H197.1V86.5073H199.346V83.7889C199.346 81.5292 200.134 80.4758 201.283 80.4758C201.557 80.4758 201.952 80.5098 202.432 80.7646L202.946 78.6409C202.586 78.454 202.106 78.386 201.677 78.386Z" fill="#077594"/>
<path d="M205.28 77.1797C206.069 77.1797 206.703 76.5851 206.703 75.8375C206.703 75.0899 206.069 74.5123 205.28 74.5123C204.508 74.5123 203.857 75.0899 203.857 75.8375C203.857 76.5851 204.508 77.1797 205.28 77.1797ZM204.165 86.5073H206.411V78.5899H204.165V86.5073Z" fill="#077594"/>
<path d="M216.591 82.4127C216.591 79.9831 214.722 78.386 212.441 78.386C210.144 78.386 208.189 79.9831 208.189 82.5486C208.189 84.9952 209.99 86.6602 212.441 86.6602C213.847 86.6602 215.253 86.1165 216.008 85.1141L214.687 83.8059C214.207 84.3665 213.402 84.6894 212.596 84.6894C211.516 84.6894 210.761 84.1797 210.521 83.2622H216.556C216.573 82.9054 216.591 82.6336 216.591 82.4127ZM210.521 81.818C210.761 80.7477 211.567 80.3229 212.476 80.3229C213.487 80.3229 214.276 80.8836 214.345 81.818H210.521Z" fill="#077594"/>
<path d="M222.977 78.386C222.188 78.386 220.919 78.8448 220.576 79.9151V78.5899H218.33V86.5073H220.576V82.4467C220.576 81.0025 221.571 80.5778 222.377 80.5778C223.148 80.5778 223.903 81.1384 223.903 82.3957V86.5073H226.149V82.1578C226.166 79.7792 225.069 78.386 222.977 78.386Z" fill="#077594"/>
<path d="M232.202 86.6602C233.659 86.6602 234.825 85.9976 235.579 84.9612L233.899 83.7889C233.539 84.2816 232.87 84.5874 232.219 84.5874C230.95 84.5874 230.093 83.6869 230.093 82.5146C230.093 81.3593 230.95 80.4588 232.219 80.4588C232.87 80.4588 233.539 80.7646 233.899 81.2574L235.579 80.085C234.825 79.0656 233.659 78.386 232.202 78.386C229.87 78.386 227.812 80.0001 227.812 82.5146C227.812 85.0292 229.87 86.6602 232.202 86.6602Z" fill="#077594"/>
<path d="M244.954 82.4127C244.954 79.9831 243.085 78.386 240.805 78.386C238.507 78.386 236.553 79.9831 236.553 82.5486C236.553 84.9952 238.353 86.6602 240.805 86.6602C242.211 86.6602 243.617 86.1165 244.371 85.1141L243.051 83.8059C242.571 84.3665 241.765 84.6894 240.959 84.6894C239.879 84.6894 239.125 84.1797 238.885 83.2622H244.92C244.937 82.9054 244.954 82.6336 244.954 82.4127ZM238.885 81.818C239.125 80.7477 239.931 80.3229 240.839 80.3229C241.851 80.3229 242.639 80.8836 242.708 81.818H238.885Z" fill="#077594"/>
</svg>
