<svg width="168" height="68" viewBox="0 0 168 68" fill="none" xmlns="http://www.w3.org/2000/svg">
<path d="M14.748 43C22.4789 43 29.4366 38.7238 29.4366 30.587C29.4366 23.6381 24.025 20.3715 17.8404 18.6492L13.2613 17.3425C8.97965 16.1547 8.68231 14.0166 8.68231 13.0069C8.68231 10.2749 11.1205 8.31492 14.3318 8.31492C17.8998 8.31492 19.9217 10.5718 19.9217 13.482H28.1878C28.1878 5.70166 22.241 1.00967 14.5102 1.00967C6.6604 1.00967 0.356807 5.87983 0.356807 13.1851C0.356807 16.8674 1.96244 22.2721 10.9421 24.6478L15.9374 26.0732C19.446 27.1423 21.1111 28.7459 21.1111 31.0028C21.1111 33.913 18.6729 35.8135 14.9859 35.8135C11.18 35.8135 8.3255 33.3785 8.26604 30.4088H0C0 37.6547 6.00626 43 14.748 43Z" fill="white"/>
<path d="M56.7342 14.7887V18.1146C54.7718 15.3232 51.0253 14.1354 47.814 14.1354C40.6779 14.1354 34.1959 19.6588 34.1959 28.5677C34.1959 37.4765 40.6779 43 47.814 43C50.9064 43 54.7718 41.7528 56.7342 39.0207V42.4655H64.5245V14.7887H56.7342ZM49.3007 35.7541C45.3758 35.7541 42.1051 32.6064 42.1051 28.5677C42.1051 24.4696 45.3758 21.4406 49.3007 21.4406C52.9283 21.4406 56.4963 24.2914 56.4963 28.5677C56.4963 32.7845 53.1067 35.7541 49.3007 35.7541Z" fill="white"/>
<path d="M72.3896 42.4655H80.1799V0H72.3896V42.4655Z" fill="white"/>
<path d="M121.849 14.076C118.994 14.076 114.713 15.3826 112.572 19.4213C110.966 16.0359 107.755 14.076 103.652 14.076C100.559 14.076 96.6344 15.9171 95.8018 19.7182V14.7887H88.0115V42.4655H95.8018V28.0331C95.8018 23.0442 98.6563 21.7376 101.451 21.7376C104.068 21.7376 106.328 23.4599 106.328 27.7956V42.4655H114.118V27.7956C114.296 23.6381 116.497 21.6782 119.589 21.7376C122.324 21.7376 124.584 23.5193 124.584 27.855V42.4655H132.434V27.261C132.434 18.9461 128.806 14.076 121.849 14.076Z" fill="white"/>
<path d="M153.074 43C160.983 43 168 37.2983 168 28.5677C168 19.7776 160.983 14.076 153.074 14.076C145.164 14.076 138.147 19.7776 138.147 28.5677C138.147 37.2983 145.164 43 153.074 43ZM153.074 35.7541C149.208 35.7541 146.056 32.8439 146.056 28.5677C146.056 24.232 149.208 21.3218 153.074 21.3218C156.939 21.3218 160.091 24.232 160.091 28.5677C160.091 32.8439 156.939 35.7541 153.074 35.7541Z" fill="white"/>
<path fill-rule="evenodd" clip-rule="evenodd" d="M23.2557 65.2097C17.2004 65.8052 12.3432 66.6618 9.5966 67.7128L9 65.5603C11.9785 64.4204 17.0332 63.5499 23.0951 62.9538C29.1842 62.355 36.3718 62.026 43.6655 62.0015C58.205 61.9526 73.332 63.1116 81 65.8328L80.443 68C73.083 65.3881 58.2235 64.2163 43.671 64.2653C36.4186 64.2897 29.2837 64.6169 23.2557 65.2097Z" fill="#77B3C4"/>
<path d="M6.07941 59.3316H7.79623L4.78592 51.303H3.02207L0 59.3316H1.74033L2.38708 57.4089H5.42091L6.07941 59.3316ZM2.8692 55.9989L3.89224 52.9809L4.92703 55.9989H2.8692Z" fill="white"/>
<path d="M14.3364 53.7617C13.7132 53.7617 12.9606 54.0064 12.5726 54.554V53.9015H11.0322V62H12.5726V58.6557C12.9606 59.2034 13.7132 59.4364 14.3364 59.4364C15.7475 59.4364 17.0293 58.3528 17.0293 56.6049C17.0293 54.857 15.7475 53.7617 14.3364 53.7617ZM14.0425 58.0032C13.3252 58.0032 12.6196 57.4439 12.6196 56.6049C12.6196 55.7775 13.2899 55.1949 14.0425 55.1949C14.8186 55.1949 15.4536 55.8125 15.4536 56.6049C15.4536 57.4089 14.8186 58.0032 14.0425 58.0032Z" fill="white"/>
<path d="M23.6879 56.5233C23.6879 54.857 22.4062 53.7617 20.8422 53.7617C19.2665 53.7617 17.926 54.857 17.926 56.6165C17.926 58.2945 19.1607 59.4364 20.8422 59.4364C21.8065 59.4364 22.7707 59.0636 23.2881 58.3761L22.3827 57.4788C22.0534 57.8633 21.5007 58.0847 20.948 58.0847C20.2072 58.0847 19.6898 57.7352 19.5252 57.1059H23.6644C23.6761 56.8612 23.6879 56.6748 23.6879 56.5233ZM19.5252 56.1155C19.6898 55.3814 20.2425 55.09 20.8657 55.09C21.5595 55.09 22.1004 55.4746 22.1475 56.1155H19.5252Z" fill="white"/>
<path d="M28.0208 53.7617C27.3388 53.7617 26.7156 54.1462 26.4098 55.0551V53.9015H24.8812V59.3316H26.4216V57.4672C26.4216 55.9174 26.9625 55.1949 27.7504 55.1949C27.9385 55.1949 28.209 55.2182 28.5382 55.393L28.891 53.9364C28.6441 53.8083 28.3148 53.7617 28.0208 53.7617Z" fill="white"/>
<path d="M31.587 59.4364C32.7159 59.4364 33.8918 58.8771 33.8918 57.7352C33.8918 57.2924 33.7272 56.4767 32.4102 56.1271L31.5047 55.8941C31.199 55.8125 30.9638 55.6843 30.9638 55.428C30.9638 55.1483 31.246 54.9735 31.5988 54.9735C31.9633 54.9735 32.269 55.1716 32.269 55.5328H33.7389C33.7507 54.2511 32.5748 53.7617 31.5753 53.7617C30.3053 53.7617 29.4234 54.5424 29.4234 55.3814C29.4234 55.9523 29.6115 56.7331 31.0226 57.1059L31.7516 57.2807C32.1632 57.3856 32.3514 57.5021 32.3514 57.7352C32.3514 58.0498 32.0103 58.2362 31.5635 58.2362C31.0226 58.2362 30.7521 57.8983 30.7521 57.5837H29.3058C29.3175 58.7839 30.4346 59.4364 31.587 59.4364Z" fill="white"/>
<path d="M37.7234 59.4364C39.2873 59.4364 40.6749 58.3178 40.6749 56.6049C40.6749 54.8803 39.2873 53.7617 37.7234 53.7617C36.1594 53.7617 34.7719 54.8803 34.7719 56.6049C34.7719 58.3178 36.1594 59.4364 37.7234 59.4364ZM37.7234 58.0148C36.9591 58.0148 36.3358 57.4439 36.3358 56.6049C36.3358 55.7542 36.9591 55.1833 37.7234 55.1833C38.4877 55.1833 39.111 55.7542 39.111 56.6049C39.111 57.4439 38.4877 58.0148 37.7234 58.0148Z" fill="white"/>
<path d="M45.0748 53.7617C44.5339 53.7617 43.6637 54.0763 43.4285 54.8104V53.9015H41.8881V59.3316H43.4285V56.5466C43.4285 55.5561 44.1106 55.2648 44.6632 55.2648C45.1924 55.2648 45.7098 55.6494 45.7098 56.5117V59.3316H47.2502V56.3485C47.262 54.7172 46.5094 53.7617 45.0748 53.7617Z" fill="white"/>
<path d="M52.8596 53.9015V54.554C52.4716 54.0064 51.7308 53.7733 51.0958 53.7733C49.6847 53.7733 48.403 54.857 48.403 56.6049C48.403 58.3528 49.6847 59.4364 51.0958 59.4364C51.7073 59.4364 52.4716 59.1917 52.8596 58.6557V59.3316H54.4001V53.9015H52.8596ZM51.3898 58.0148C50.6137 58.0148 49.9669 57.3972 49.9669 56.6049C49.9669 55.8008 50.6137 55.2066 51.3898 55.2066C52.1071 55.2066 52.8126 55.7659 52.8126 56.6049C52.8126 57.4322 52.1423 58.0148 51.3898 58.0148Z" fill="white"/>
<path d="M55.9553 59.3316H57.4957V51H55.9553V59.3316Z" fill="white"/>
<path d="M59.8087 52.9343C60.3496 52.9343 60.7847 52.5265 60.7847 52.0138C60.7847 51.5011 60.3496 51.1049 59.8087 51.1049C59.2795 51.1049 58.8327 51.5011 58.8327 52.0138C58.8327 52.5265 59.2795 52.9343 59.8087 52.9343ZM59.0443 59.3316H60.5848V53.9015H59.0443V59.3316Z" fill="white"/>
<path d="M64.0736 59.4364C65.2025 59.4364 66.3784 58.8771 66.3784 57.7352C66.3784 57.2924 66.2137 56.4767 64.8967 56.1271L63.9913 55.8941C63.6856 55.8125 63.4504 55.6843 63.4504 55.428C63.4504 55.1483 63.7326 54.9735 64.0854 54.9735C64.4499 54.9735 64.7556 55.1716 64.7556 55.5328H66.2255C66.2373 54.2511 65.0614 53.7617 64.0618 53.7617C62.7919 53.7617 61.9099 54.5424 61.9099 55.3814C61.9099 55.9523 62.0981 56.7331 63.5092 57.1059L64.2382 57.2807C64.6498 57.3856 64.8379 57.5021 64.8379 57.7352C64.8379 58.0498 64.4969 58.2362 64.0501 58.2362C63.5092 58.2362 63.2387 57.8983 63.2387 57.5837H61.7924C61.8041 58.7839 62.9212 59.4364 64.0736 59.4364Z" fill="white"/>
<path d="M73.0321 56.5233C73.0321 54.857 71.7504 53.7617 70.1865 53.7617C68.6107 53.7617 67.2702 54.857 67.2702 56.6165C67.2702 58.2945 68.5049 59.4364 70.1865 59.4364C71.1507 59.4364 72.1149 59.0636 72.6323 58.3761L71.7269 57.4788C71.3976 57.8633 70.845 58.0847 70.2923 58.0847C69.5515 58.0847 69.0341 57.7352 68.8695 57.1059H73.0086C73.0204 56.8612 73.0321 56.6748 73.0321 56.5233ZM68.8695 56.1155C69.0341 55.3814 69.5867 55.09 70.21 55.09C70.9038 55.09 71.4447 55.4746 71.4917 56.1155H68.8695Z" fill="white"/>
<path d="M78.3528 51V54.554C77.9648 54.0064 77.224 53.7733 76.589 53.7733C75.1779 53.7733 73.8961 54.857 73.8961 56.6049C73.8961 58.3528 75.1779 59.4364 76.589 59.4364C77.2004 59.4364 77.9648 59.1917 78.3528 58.6557V59.3316H79.8932V51H78.3528ZM76.8829 58.0148C76.1068 58.0148 75.4601 57.3972 75.4601 56.6049C75.4601 55.8008 76.1068 55.2066 76.8829 55.2066C77.6002 55.2066 78.3058 55.7659 78.3058 56.6049C78.3058 57.4322 77.6355 58.0148 76.8829 58.0148Z" fill="white"/>
<path d="M87.7339 53.9015L86.4168 57.3739L85.0763 53.9015H83.4065L85.7231 59.3316H87.0989L89.4154 53.9015H87.7339Z" fill="white"/>
<path d="M90.9976 52.9343C91.5385 52.9343 91.9736 52.5265 91.9736 52.0138C91.9736 51.5011 91.5385 51.1049 90.9976 51.1049C90.4685 51.1049 90.0216 51.5011 90.0216 52.0138C90.0216 52.5265 90.4685 52.9343 90.9976 52.9343ZM90.2333 59.3316H91.7737V53.9015H90.2333V59.3316Z" fill="white"/>
<path d="M95.2626 59.4364C96.3914 59.4364 97.5673 58.8771 97.5673 57.7352C97.5673 57.2924 97.4027 56.4767 96.0857 56.1271L95.1803 55.8941C94.8745 55.8125 94.6393 55.6843 94.6393 55.428C94.6393 55.1483 94.9216 54.9735 95.2743 54.9735C95.6388 54.9735 95.9446 55.1716 95.9446 55.5328H97.4145C97.4262 54.2511 96.2503 53.7617 95.2508 53.7617C93.9808 53.7617 93.0989 54.5424 93.0989 55.3814C93.0989 55.9523 93.2871 56.7331 94.6981 57.1059L95.4272 57.2807C95.8388 57.3856 96.0269 57.5021 96.0269 57.7352C96.0269 58.0498 95.6859 58.2362 95.239 58.2362C94.6981 58.2362 94.4277 57.8983 94.4277 57.5837H92.9813C92.9931 58.7839 94.1102 59.4364 95.2626 59.4364Z" fill="white"/>
<path d="M102.916 53.9015V54.554C102.528 54.0064 101.787 53.7733 101.152 53.7733C99.7409 53.7733 98.4592 54.857 98.4592 56.6049C98.4592 58.3528 99.7409 59.4364 101.152 59.4364C101.763 59.4364 102.528 59.1917 102.916 58.6557V59.3316H104.456V53.9015H102.916ZM101.446 58.0148C100.67 58.0148 100.023 57.3972 100.023 56.6049C100.023 55.8008 100.67 55.2066 101.446 55.2066C102.163 55.2066 102.869 55.7659 102.869 56.6049C102.869 57.4322 102.199 58.0148 101.446 58.0148Z" fill="white"/>
<path d="M114.246 56.5233C114.246 54.857 112.964 53.7617 111.4 53.7617C109.825 53.7617 108.484 54.857 108.484 56.6165C108.484 58.2945 109.719 59.4364 111.4 59.4364C112.365 59.4364 113.329 59.0636 113.846 58.3761L112.941 57.4788C112.612 57.8633 112.059 58.0847 111.506 58.0847C110.765 58.0847 110.248 57.7352 110.083 57.1059H114.223C114.234 56.8612 114.246 56.6748 114.246 56.5233ZM110.083 56.1155C110.248 55.3814 110.801 55.09 111.424 55.09C112.118 55.09 112.659 55.4746 112.706 56.1155H110.083Z" fill="white"/>
<path d="M120.525 59.3316L118.373 56.3835L120.184 53.9015H118.373L117.526 55.1483L116.656 53.9015H114.833L116.644 56.3835L114.469 59.3316H116.28L117.514 57.5953L118.725 59.3316H120.525Z" fill="white"/>
<path d="M124.635 53.7617C124.011 53.7617 123.259 54.0064 122.871 54.554V53.9015H121.33V62H122.871V58.6557C123.259 59.2034 124.011 59.4364 124.635 59.4364C126.046 59.4364 127.327 58.3528 127.327 56.6049C127.327 54.857 126.046 53.7617 124.635 53.7617ZM124.341 58.0032C123.623 58.0032 122.918 57.4439 122.918 56.6049C122.918 55.7775 123.588 55.1949 124.341 55.1949C125.117 55.1949 125.752 55.8125 125.752 56.6049C125.752 57.4089 125.117 58.0032 124.341 58.0032Z" fill="white"/>
<path d="M133.986 56.5233C133.986 54.857 132.704 53.7617 131.14 53.7617C129.565 53.7617 128.224 54.857 128.224 56.6165C128.224 58.2945 129.459 59.4364 131.14 59.4364C132.105 59.4364 133.069 59.0636 133.586 58.3761L132.681 57.4788C132.352 57.8633 131.799 58.0847 131.246 58.0847C130.505 58.0847 129.988 57.7352 129.823 57.1059H133.963C133.974 56.8612 133.986 56.6748 133.986 56.5233ZM129.823 56.1155C129.988 55.3814 130.541 55.09 131.164 55.09C131.858 55.09 132.399 55.4746 132.446 56.1155H129.823Z" fill="white"/>
<path d="M138.319 53.7617C137.637 53.7617 137.014 54.1462 136.708 55.0551V53.9015H135.179V59.3316H136.72V57.4672C136.72 55.9174 137.261 55.1949 138.049 55.1949C138.237 55.1949 138.507 55.2182 138.836 55.393L139.189 53.9364C138.942 53.8083 138.613 53.7617 138.319 53.7617Z" fill="white"/>
<path d="M140.79 52.9343C141.331 52.9343 141.766 52.5265 141.766 52.0138C141.766 51.5011 141.331 51.1049 140.79 51.1049C140.261 51.1049 139.814 51.5011 139.814 52.0138C139.814 52.5265 140.261 52.9343 140.79 52.9343ZM140.025 59.3316H141.566V53.9015H140.025V59.3316Z" fill="white"/>
<path d="M148.547 56.5233C148.547 54.857 147.265 53.7617 145.701 53.7617C144.126 53.7617 142.785 54.857 142.785 56.6165C142.785 58.2945 144.02 59.4364 145.701 59.4364C146.666 59.4364 147.63 59.0636 148.147 58.3761L147.242 57.4788C146.913 57.8633 146.36 58.0847 145.807 58.0847C145.066 58.0847 144.549 57.7352 144.384 57.1059H148.524C148.535 56.8612 148.547 56.6748 148.547 56.5233ZM144.384 56.1155C144.549 55.3814 145.102 55.09 145.725 55.09C146.419 55.09 146.96 55.4746 147.007 56.1155H144.384Z" fill="white"/>
<path d="M152.927 53.7617C152.386 53.7617 151.516 54.0763 151.281 54.8104V53.9015H149.74V59.3316H151.281V56.5466C151.281 55.5561 151.963 55.2648 152.515 55.2648C153.045 55.2648 153.562 55.6494 153.562 56.5117V59.3316H155.102V56.3485C155.114 54.7172 154.362 53.7617 152.927 53.7617Z" fill="white"/>
<path d="M159.254 59.4364C160.253 59.4364 161.053 58.982 161.57 58.2712L160.418 57.4672C160.171 57.8051 159.712 58.0148 159.266 58.0148C158.395 58.0148 157.807 57.3972 157.807 56.5932C157.807 55.8008 158.395 55.1833 159.266 55.1833C159.712 55.1833 160.171 55.393 160.418 55.7309L161.57 54.9269C161.053 54.2278 160.253 53.7617 159.254 53.7617C157.655 53.7617 156.243 54.8686 156.243 56.5932C156.243 58.3178 157.655 59.4364 159.254 59.4364Z" fill="white"/>
<path d="M168 56.5233C168 54.857 166.718 53.7617 165.154 53.7617C163.579 53.7617 162.238 54.857 162.238 56.6165C162.238 58.2945 163.473 59.4364 165.154 59.4364C166.119 59.4364 167.083 59.0636 167.6 58.3761L166.695 57.4788C166.365 57.8633 165.813 58.0847 165.26 58.0847C164.519 58.0847 164.002 57.7352 163.837 57.1059H167.976C167.988 56.8612 168 56.6748 168 56.5233ZM163.837 56.1155C164.002 55.3814 164.555 55.09 165.178 55.09C165.872 55.09 166.413 55.4746 166.46 56.1155H163.837Z" fill="white"/>
</svg>
