<svg width="42" height="43" viewBox="0 0 42 43" fill="none" xmlns="http://www.w3.org/2000/svg">
<path d="M20.8634 40.8226C31.8218 40.8226 40.7054 31.939 40.7054 20.9806C40.7054 10.0222 31.8218 1.13867 20.8634 1.13867C9.90502 1.13867 1.02148 10.0222 1.02148 20.9806C1.02148 31.939 9.90502 40.8226 20.8634 40.8226Z" fill="#77B3C4"/>
<path fill-rule="evenodd" clip-rule="evenodd" d="M21.0001 0.912653C23.6817 0.893084 26.341 1.4021 28.8258 2.41063C31.3107 3.41916 33.5725 4.90742 35.482 6.79039C37.3915 8.67335 38.9112 10.9141 39.9544 13.3846C40.9976 15.8551 41.5437 18.507 41.5617 21.1887C41.5437 23.8703 40.9976 26.5222 39.9544 28.9927C38.9112 31.4632 37.3915 33.704 35.482 35.587C33.5725 37.4699 31.3107 38.9582 28.8258 39.9667C26.341 40.9753 23.6817 41.4843 21.0001 41.4647C18.3184 41.4843 15.6592 40.9753 13.1743 39.9667C10.6894 38.9582 8.42765 37.4699 6.51817 35.587C4.60868 33.704 3.08893 31.4632 2.04575 28.9927C1.00258 26.5222 0.456413 23.8703 0.438477 21.1887C0.456413 18.507 1.00258 15.8551 2.04575 13.3846C3.08893 10.9141 4.60868 8.67335 6.51817 6.79039C8.42765 4.90742 10.6894 3.41916 13.1743 2.41063C15.6592 1.4021 18.3184 0.893084 21.0001 0.912653ZM21.0001 2.28343C26.0436 2.25908 30.8911 4.23543 34.4799 7.77925C38.0687 11.3231 40.106 16.1452 40.1452 21.1887C40.106 26.2321 38.0687 31.0543 34.4799 34.5981C30.8911 38.1419 26.0436 40.1183 21.0001 40.0939C15.9486 40.1304 11.0894 38.1595 7.49076 34.6143C3.89208 31.0692 1.84849 26.2401 1.80925 21.1887C1.84849 16.1373 3.89208 11.3082 7.49076 7.76303C11.0894 4.2179 15.9486 2.24693 21.0001 2.28343Z" fill="white"/>
<path fill-rule="evenodd" clip-rule="evenodd" d="M22.1426 19.1876C22.1426 19.1876 27.4772 17.8168 31.738 20.8896C32.9781 21.7671 34.0042 22.913 34.74 24.2421C35.4757 25.5712 35.9021 27.0492 35.9874 28.5659C32.7967 28.4836 29.6686 27.6625 26.8489 26.1671C23.3991 24.1224 22.1426 19.1876 22.1426 19.1876Z" fill="white"/>
<path fill-rule="evenodd" clip-rule="evenodd" d="M5.00851 8.46254C4.40596 9.18086 3.85983 9.94468 3.375 10.7472C4.48169 10.2026 5.62713 9.74063 6.80193 9.36497C8.23718 8.84326 9.77429 8.66335 11.2912 8.8395C14.4097 9.42208 17.0028 11.1241 20.5439 19.4059C21.5927 21.9587 23.2843 24.1967 25.4541 25.9021C27.624 27.6076 30.1982 28.7225 32.9266 29.1384C35.3821 29.4512 37.8768 29.1731 40.2031 28.3273C40.4288 27.748 40.6233 27.1569 40.7857 26.5567C38.4012 27.6235 35.7705 28.0185 33.1779 27.6991C30.6922 27.3195 28.3469 26.3039 26.3694 24.7508C24.392 23.1976 22.8496 21.1597 21.8919 18.8347C17.9852 9.78762 14.9809 8.05131 11.6111 7.41161C9.86985 7.19679 8.10254 7.38838 6.44782 7.97135C5.92235 8.13127 5.45401 8.30262 5.00851 8.46254Z" fill="white"/>
<path fill-rule="evenodd" clip-rule="evenodd" d="M35.976 31.5257C35.9438 31.7063 35.8448 31.8682 35.6988 31.9792C35.5527 32.0903 35.3702 32.1423 35.1875 32.1251C35.0049 32.1078 34.8354 32.0225 34.7127 31.8861C34.59 31.7496 34.5231 31.572 34.5253 31.3886C34.6389 30.0365 34.5968 28.6758 34.3996 27.3334C34.3135 26.7781 34.1441 26.2389 33.897 25.7341C33.7537 25.414 33.4975 25.1578 33.1774 25.0145C33.0871 24.9848 33.0037 24.9376 32.9318 24.8755C32.8599 24.8134 32.8011 24.7377 32.7586 24.6527C32.7161 24.5678 32.6909 24.4752 32.6843 24.3805C32.6778 24.2857 32.6901 24.1906 32.7204 24.1006C32.7875 23.9188 32.9231 23.7704 33.0981 23.6872C33.2731 23.604 33.4737 23.5925 33.6571 23.6551C34.1424 23.8755 34.5696 24.2061 34.9047 24.6206C35.2398 25.035 35.4737 25.5219 35.5876 26.0426C36.0113 27.8375 36.1425 29.689 35.976 31.5257Z" fill="white"/>
<path fill-rule="evenodd" clip-rule="evenodd" d="M21.0001 40.0353C31.2514 40.0353 39.5617 31.725 39.5617 21.4737C39.5617 11.2224 31.2514 2.91211 21.0001 2.91211C10.7488 2.91211 2.43848 11.2224 2.43848 21.4737C2.43848 31.725 10.7488 40.0353 21.0001 40.0353ZM21.0001 42.0353C32.3559 42.0353 41.5617 32.8296 41.5617 21.4737C41.5617 10.1179 32.3559 0.912109 21.0001 0.912109C9.64422 0.912109 0.438477 10.1179 0.438477 21.4737C0.438477 32.8296 9.64422 42.0353 21.0001 42.0353Z" fill="white"/>
</svg>
