<svg width="38" height="41" viewBox="0 0 38 41" fill="none" xmlns="http://www.w3.org/2000/svg">
<path d="M36.2146 21.0563C36.2146 18.7716 36.2146 16.7726 36.3174 15.2305L18.9542 1.41992L1.60254 16.4299V39.6074H33.8728C34.5284 39.5984 35.1542 39.3325 35.6157 38.8667C36.0771 38.401 36.3373 37.7728 36.3402 37.1171V21.7988C36.3347 21.5465 36.2924 21.2963 36.2146 21.0563Z" fill="#77B3C4"/>
<path fill-rule="evenodd" clip-rule="evenodd" d="M18.3931 0.77129C18.7048 0.501644 19.1643 0.492168 19.4869 0.748734L36.85 14.5593C37.0544 14.7218 37.1734 14.9687 37.1734 15.2298V26.4016C37.1734 26.8747 36.7899 27.2583 36.3167 27.2583C35.8435 27.2583 35.46 26.8747 35.46 26.4016V15.643L18.9765 2.53218L2.45858 16.8209V38.75H22.0721C22.5452 38.75 22.9288 39.1335 22.9288 39.6067C22.9288 40.0799 22.5452 40.4634 22.0721 40.4634H1.60185C1.12869 40.4634 0.745117 40.0799 0.745117 39.6067V16.4292C0.745117 16.1805 0.853226 15.944 1.04135 15.7813L18.3931 0.77129Z" fill="white"/>
<path fill-rule="evenodd" clip-rule="evenodd" d="M14.4072 26.4017C14.4072 25.9285 14.7908 25.5449 15.264 25.5449H22.6433C23.1165 25.5449 23.5 25.9285 23.5 26.4017V39.6068C23.5 40.0799 23.1165 40.4635 22.6433 40.4635H15.264C14.7908 40.4635 14.4072 40.0799 14.4072 39.6068V26.4017ZM16.1207 27.2584V38.75H21.7866V27.2584H16.1207Z" fill="white"/>
</svg>
