<svg width="34" height="42" viewBox="0 0 34 42" fill="none" xmlns="http://www.w3.org/2000/svg">
<path d="M22.6023 21.5944C26.8907 18.6227 27.9582 12.7373 24.9865 8.44887C22.0149 4.16046 16.1294 3.09302 11.841 6.06467C7.55261 9.03632 6.48517 14.9218 9.45682 19.2102C12.4285 23.4986 18.3139 24.566 22.6023 21.5944Z" fill="#77B3C4"/>
<path fill-rule="evenodd" clip-rule="evenodd" d="M19.1846 5.49867C17.5319 5.11108 15.8014 5.22252 14.212 5.81888C12.6227 6.41523 11.246 7.46969 10.2563 8.8488C9.26648 10.2279 8.70809 11.8697 8.65178 13.5662C8.59547 15.2628 9.04377 16.938 9.93992 18.3797C10.8361 19.8214 12.1398 20.9648 13.6861 21.6653C15.2324 22.3657 16.9517 22.5916 18.6264 22.3145C20.3012 22.0373 21.8561 21.2695 23.0943 20.1083C24.3325 18.9471 25.1983 17.4446 25.5823 15.7911C25.6893 15.3302 26.1497 15.0433 26.6106 15.1503C27.0715 15.2574 27.3584 15.7177 27.2513 16.1786C26.7907 18.1624 25.7519 19.965 24.2664 21.3582C22.7809 22.7513 20.9154 23.6724 18.9062 24.0049C16.8969 24.3374 14.8342 24.0664 12.9791 23.2261C11.1239 22.3857 9.55982 21.0139 8.48468 19.2843C7.40953 17.5546 6.8717 15.5449 6.93926 13.5094C7.00682 11.4739 7.67673 9.50429 8.8642 7.84973C10.0517 6.19517 11.7033 4.93009 13.6101 4.21463C15.5168 3.49916 17.593 3.36546 19.5758 3.83046C20.0365 3.9385 20.3223 4.39952 20.2143 4.86018C20.1062 5.32084 19.6452 5.6067 19.1846 5.49867Z" fill="white"/>
<path d="M22.4537 25.82C18.9958 25.2163 15.4594 25.2163 12.0015 25.82C9.27487 25.82 6.6599 26.9031 4.73188 28.8312C2.80386 30.7592 1.7207 33.3741 1.7207 36.1008V38.6824C1.7207 39.2883 1.9614 39.8694 2.38985 40.2979C2.8183 40.7263 3.39941 40.967 4.00533 40.967H30.3927C30.9986 40.967 31.5797 40.7263 32.0082 40.2979C32.4366 39.8694 32.6773 39.2883 32.6773 38.6824C32.7586 37.8238 32.7586 36.9594 32.6773 36.1008C32.586 35.2555 32.1861 31.1203 29.2504 28.4245C27.457 26.7224 25.4808 26.3683 22.4537 25.82Z" fill="#77B3C4"/>
<path fill-rule="evenodd" clip-rule="evenodd" d="M4.12637 28.225C6.21506 26.1363 9.04793 24.9629 12.0018 24.9629H22.4539C22.9271 24.9629 23.3107 25.3465 23.3107 25.8196C23.3107 26.2928 22.9271 26.6764 22.4539 26.6764H12.0018C9.50237 26.6764 7.10533 27.6692 5.33797 29.4366C3.57061 31.204 2.57772 33.601 2.57772 36.1004V38.682C2.57772 39.0607 2.72816 39.4239 2.99594 39.6917C3.26372 39.9595 3.62691 40.1099 4.00561 40.1099H30.393C30.7717 40.1099 31.1349 39.9595 31.4027 39.6917C31.6705 39.4239 31.8209 39.0607 31.8209 38.682V36.089C31.8209 35.6158 32.2045 35.2323 32.6776 35.2323C33.1508 35.2323 33.5344 35.6158 33.5344 36.089V38.682C33.5344 39.5152 33.2034 40.3142 32.6143 40.9033C32.0252 41.4924 31.2261 41.8234 30.393 41.8234H4.00561C3.17248 41.8234 2.37346 41.4924 1.78434 40.9033C1.19522 40.3142 0.864258 39.5152 0.864258 38.682V36.1004C0.864258 33.1466 2.03767 30.3137 4.12637 28.225Z" fill="white"/>
</svg>
