<svg width="42" height="33" viewBox="0 0 42 33" fill="none" xmlns="http://www.w3.org/2000/svg">
<path d="M26.1726 31.6245C34.4308 31.6245 41.1254 24.9298 41.1254 16.6716C41.1254 8.41337 34.4308 1.71875 26.1726 1.71875C17.9143 1.71875 11.2197 8.41337 11.2197 16.6716C11.2197 24.9298 17.9143 31.6245 26.1726 31.6245Z" fill="#77B3C4"/>
<path d="M0.595843 15.3808L5.97613 10.5603C6.10686 10.435 6.26148 10.3373 6.43078 10.2731C6.60008 10.2089 6.78058 10.1795 6.9615 10.1866C7.14243 10.1937 7.32007 10.2371 7.48383 10.3144C7.64758 10.3916 7.7941 10.5011 7.91463 10.6362C8.03516 10.7713 8.12723 10.9293 8.18535 11.1008C8.24347 11.2723 8.26645 11.4537 8.25291 11.6343C8.23937 11.8148 8.18959 11.9908 8.10655 12.1517C8.0235 12.3126 7.90889 12.4551 7.76956 12.5707L4.71959 15.3237H29.4278C29.7624 15.3546 30.0734 15.5094 30.2998 15.7577C30.5262 16.006 30.6517 16.3299 30.6517 16.6659C30.6517 17.002 30.5262 17.3259 30.2998 17.5742C30.0734 17.8225 29.7624 17.9772 29.4278 18.0081H5.02801L7.82667 20.8182C7.95205 20.9434 8.05152 21.0921 8.11938 21.2558C8.18724 21.4194 8.22217 21.5949 8.22217 21.7721C8.22217 21.9492 8.18724 22.1247 8.11938 22.2884C8.05152 22.452 7.95205 22.6007 7.82667 22.7259C7.57431 22.9756 7.2336 23.1157 6.87855 23.1157C6.52351 23.1157 6.1828 22.9756 5.93044 22.7259L0.55015 17.3342C0.416292 17.2091 0.309566 17.0579 0.236598 16.8899C0.16363 16.7219 0.125977 16.5407 0.125977 16.3575C0.125977 16.1743 0.16363 15.9931 0.236598 15.8251C0.309566 15.6571 0.416292 15.5059 0.55015 15.3808H0.595843Z" fill="white"/>
<path fill-rule="evenodd" clip-rule="evenodd" d="M31.8271 3.77106C29.297 2.66014 26.4961 2.31796 23.773 2.78713C21.0499 3.2563 18.5249 4.51609 16.5125 6.40966C16.1679 6.7339 15.6257 6.71741 15.3015 6.37281C14.9772 6.02821 14.9937 5.48601 15.3383 5.16177C17.5955 3.03784 20.4277 1.62479 23.482 1.09854C26.5364 0.572292 29.6781 0.9561 32.5159 2.20218C35.3538 3.44825 37.7624 5.50155 39.442 8.10641C41.1215 10.7113 41.9977 13.7526 41.9615 16.8518C41.9253 19.9509 40.9783 22.971 39.2384 25.5359C37.4985 28.1009 35.0426 30.0974 32.1764 31.2768C29.3103 32.4563 26.1605 32.7666 23.1192 32.1692C20.078 31.5718 17.2796 30.093 15.0726 27.9169C14.7357 27.5847 14.7318 27.0423 15.0641 26.7053C15.3963 26.3684 15.9387 26.3646 16.2756 26.6968C18.2433 28.6368 20.7381 29.9552 23.4495 30.4879C26.1609 31.0205 28.9691 30.7438 31.5244 29.6923C34.0797 28.6407 36.2692 26.8608 37.8204 24.574C39.3716 22.2873 40.2159 19.5948 40.2482 16.8318C40.2804 14.0687 39.4992 11.3573 38.0019 9.03493C36.5045 6.71259 34.3571 4.88199 31.8271 3.77106Z" fill="white"/>
</svg>
