<svg width="43" height="33" viewBox="0 0 43 33" fill="none" xmlns="http://www.w3.org/2000/svg">
<path d="M26.4257 31.6052C34.6786 31.6052 41.3689 24.9149 41.3689 16.662C41.3689 8.40907 34.6786 1.71875 26.4257 1.71875C18.1727 1.71875 11.4824 8.40907 11.4824 16.662C11.4824 24.9149 18.1727 31.6052 26.4257 31.6052Z" fill="#77B3C4"/>
<path d="M30.5688 15.3721L25.192 10.5546C24.9235 10.3318 24.579 10.2218 24.231 10.2479C23.8831 10.274 23.5588 10.4341 23.3265 10.6945C23.0942 10.9549 22.9721 11.2952 22.9857 11.6439C22.9994 11.9926 23.1478 12.3223 23.3997 12.5638L26.482 15.315H1.76683C1.58029 15.2977 1.39219 15.3196 1.21458 15.3792C1.03696 15.4388 0.873724 15.5347 0.735296 15.661C0.596868 15.7872 0.486292 15.9409 0.410634 16.1123C0.334976 16.2837 0.295898 16.469 0.295898 16.6563C0.295898 16.8437 0.334976 17.029 0.410634 17.2003C0.486292 17.3717 0.596868 17.5254 0.735296 17.6517C0.873724 17.7779 1.03696 17.8739 1.21458 17.9335C1.39219 17.993 1.58029 18.0149 1.76683 17.9977H26.1509L23.3426 20.806C23.2173 20.9311 23.1179 21.0797 23.0501 21.2432C22.9823 21.4068 22.9474 21.5821 22.9474 21.7592C22.9474 21.9362 22.9823 22.1116 23.0501 22.2751C23.1179 22.4387 23.2173 22.5873 23.3426 22.7124C23.5982 22.96 23.94 23.0984 24.2959 23.0984C24.6517 23.0984 24.9935 22.96 25.2491 22.7124L30.6259 17.3242C30.7546 17.1945 30.8555 17.04 30.9227 16.8701C30.9898 16.7002 31.0216 16.5184 31.0163 16.3359C31.011 16.1533 30.9685 15.9737 30.8916 15.808C30.8147 15.6423 30.7049 15.494 30.5688 15.3721Z" fill="white"/>
<path fill-rule="evenodd" clip-rule="evenodd" d="M32.0759 3.7692C29.5475 2.65898 26.7483 2.31702 24.027 2.78589C21.3056 3.25476 18.7823 4.51375 16.7712 6.40609C16.4268 6.73013 15.885 6.71364 15.5609 6.36927C15.2369 6.0249 15.2534 5.48304 15.5978 5.15901C17.8535 3.03645 20.6838 1.6243 23.7362 1.09839C26.7886 0.572483 29.9283 0.956044 32.7643 2.20132C35.6004 3.4466 38.0074 5.49857 39.6859 8.10176C41.3643 10.7049 42.24 13.7443 42.2038 16.8415C42.1677 19.9387 41.2213 22.9568 39.4825 25.5201C37.7437 28.0834 35.2894 30.0786 32.425 31.2573C29.5607 32.436 26.4129 32.7461 23.3736 32.1491C20.3343 31.552 17.5378 30.0742 15.3322 27.8995C14.9955 27.5675 14.9917 27.0254 15.3237 26.6887C15.6556 26.352 16.1977 26.3482 16.5345 26.6802C18.5008 28.619 20.9941 29.9365 23.7037 30.4688C26.4134 31.0011 29.2197 30.7246 31.7734 29.6737C34.3271 28.6229 36.5152 26.8441 38.0654 24.5588C39.6156 22.2735 40.4593 19.5828 40.4916 16.8215C40.5238 14.0603 39.7431 11.3505 38.2467 9.02967C36.7503 6.70883 34.6043 4.87941 32.0759 3.7692Z" fill="white"/>
</svg>
