<svg width="30" height="42" viewBox="0 0 30 42" fill="none" xmlns="http://www.w3.org/2000/svg">
<path d="M28.7994 17.5227C28.7994 22.092 27.16 28.5117 28.7994 37.1134C28.8604 37.9807 28.5484 38.8352 27.9318 39.4902C27.3151 40.1451 26.4438 40.5473 25.5082 40.6088H1.10156V1.77024C3.20941 1.09628 16.67 1.77024 25.5082 1.77024C26.3598 1.78939 27.1722 2.10608 27.7826 2.65686C28.3929 3.20763 28.7561 3.9518 28.7994 4.74025V17.5227Z" fill="#77B3C4"/>
<path fill-rule="evenodd" clip-rule="evenodd" d="M14.9416 8.43026C11.1851 8.43026 8.13339 11.4901 8.13339 15.2727C8.13339 19.0553 11.1851 22.1152 14.9416 22.1152C18.698 22.1152 21.7497 19.0553 21.7497 15.2727C21.7497 11.4901 18.698 8.43026 14.9416 8.43026ZM6.41992 15.2727C6.41992 10.551 10.2316 6.7168 14.9416 6.7168C19.6515 6.7168 23.4632 10.551 23.4632 15.2727C23.4632 19.9944 19.6515 23.8286 14.9416 23.8286C10.2316 23.8286 6.41992 19.9944 6.41992 15.2727Z" fill="white"/>
<path fill-rule="evenodd" clip-rule="evenodd" d="M6.40723 30.3274C6.40723 29.8543 6.7908 29.4707 7.26396 29.4707H22.6052C23.0784 29.4707 23.4619 29.8543 23.4619 30.3274C23.4619 30.8006 23.0784 31.1842 22.6052 31.1842H7.26396C6.7908 31.1842 6.40723 30.8006 6.40723 30.3274Z" fill="white"/>
<path fill-rule="evenodd" clip-rule="evenodd" d="M6.40723 33.6849C6.40723 33.2117 6.7908 32.8281 7.26396 32.8281H16.7908C17.264 32.8281 17.6476 33.2117 17.6476 33.6849C17.6476 34.158 17.264 34.5416 16.7908 34.5416H7.26396C6.7908 34.5416 6.40723 34.158 6.40723 33.6849Z" fill="white"/>
<path fill-rule="evenodd" clip-rule="evenodd" d="M0.245117 1.76884C0.245117 1.29568 0.656557 0.912109 1.16409 0.912109H25.425C25.9326 0.912109 26.344 1.29568 26.344 1.76884C26.344 2.242 25.9326 2.62558 25.425 2.62558H2.08307V39.7507H25.39C26.0664 39.6986 26.695 39.4028 27.1417 38.9255C27.5951 38.4411 27.8244 37.8092 27.7796 37.1677C27.7783 37.1491 27.7776 37.1305 27.7776 37.112V17.5213C27.7776 17.0482 28.1891 16.6646 28.6966 16.6646C29.2041 16.6646 29.6156 17.0482 29.6156 17.5213V37.0857C29.683 38.1688 29.2923 39.2339 28.5266 40.052C27.754 40.8775 26.6623 41.3844 25.4901 41.462C25.4685 41.4634 25.4468 41.4642 25.425 41.4642H1.16409C0.656557 41.4642 0.245117 41.0806 0.245117 40.6074V1.76884Z" fill="white"/>
</svg>
