<svg width="87" height="88" viewBox="0 0 87 88" fill="none" xmlns="http://www.w3.org/2000/svg">
<path d="M41.3927 86.6292C63.7307 86.6292 81.8392 68.5207 81.8392 46.1828C81.8392 23.8448 63.7307 5.73633 41.3927 5.73633C19.0548 5.73633 0.946289 23.8448 0.946289 46.1828C0.946289 68.5207 19.0548 86.6292 41.3927 86.6292Z" fill="#B4D5DE"/>
<path d="M23.1436 26.8999C25.9476 24.5335 27.1218 22.5383 28.0213 20.0964C28.7715 20.0049 29.5325 20.1238 30.219 20.4399C30.9056 20.756 31.4907 21.2568 31.909 21.8863C30.2247 25.614 29.6391 27.9714 28.6883 30.6578C26.331 31.1588 23.8861 29.5349 23.1436 26.8999Z" fill="white"/>
<path d="M27.8249 31.5015C25.4102 31.5015 23.1494 29.7267 22.4159 27.1007L22.2861 26.6328L22.6574 26.331C25.3951 24.0068 26.4696 22.1234 27.3148 19.8354L27.4747 19.3947L27.9426 19.3434C28.8261 19.2433 29.72 19.3874 30.5274 19.7599C31.3347 20.1324 32.0244 20.7191 32.5215 21.4563L32.7781 21.8125L32.597 22.2139C31.6472 24.3156 30.8306 26.475 30.1521 28.6793C29.9136 29.4067 29.6691 30.1583 29.4005 30.922L29.2586 31.3234L28.8451 31.4109C28.5091 31.4767 28.1672 31.507 27.8249 31.5015ZM24.0157 27.1399C24.7159 28.951 26.4062 30.1311 28.1237 29.9802C28.329 29.3765 28.5191 28.8031 28.7274 28.1964C29.3764 26.0862 30.1463 24.0152 31.0334 21.9936C30.7315 21.6279 30.3526 21.3333 29.9237 21.1309C29.4948 20.9284 29.0266 20.8231 28.5523 20.8224C27.7072 22.9776 26.539 24.9244 24.0157 27.1399Z" fill="#077594"/>
<path d="M27.1314 21.2798C28.4444 23.0305 31.6589 24.582 33.8292 23.9964C37.0045 23.115 38.0157 21.5817 40.1678 18.7233C40.8771 18.7233 41.3419 18.9859 42.1992 18.7414C43.3492 18.4154 44.4811 17.4133 44.7588 16.378C43.322 13.0185 40.0833 10.1178 39.1114 9.49906C36.3707 7.74839 32.978 5.57515 30.2252 6.79458C27.08 8.18606 24.9883 10.7939 24.6261 13.4833C23.5878 13.5739 22.3623 13.924 21.7465 14.3889C20.4517 15.3457 20.7595 18.0864 22.3502 18.8108C23.3614 19.2696 24.4329 19.1126 25.3686 18.7444C25.8395 19.9578 26.3556 20.2445 27.1314 21.2798Z" fill="white"/>
<path d="M26.6031 21.6899C26.3737 21.388 26.1715 21.1526 25.9783 20.9262C25.5994 20.5244 25.2775 20.0724 25.0215 19.583C24.0586 19.8821 23.0207 19.8286 22.0936 19.4321C21.1187 18.9914 20.4305 17.941 20.2826 16.6884C20.1558 15.5112 20.5633 14.4216 21.3421 13.8421C22.0031 13.3531 23.0957 13.0271 24.0405 12.8792C24.6261 10.0811 26.8446 7.5457 29.9505 6.16931C33.0564 4.79293 36.6121 7.07483 39.4856 8.91001C40.4817 9.54388 43.8744 12.5321 45.3926 16.0938L45.4862 16.3081L45.4258 16.5375C45.0938 17.778 43.82 18.9764 42.4074 19.3808C41.8619 19.5337 41.2881 19.5564 40.7322 19.4472L40.5058 19.414L40.367 19.6012C38.4141 22.1849 37.2369 23.7454 34.0284 24.6358C32.9478 24.9377 31.674 24.7837 30.4576 24.3551C28.876 23.8028 27.412 22.7886 26.6031 21.6899ZM38.7703 10.057C36.1714 8.40292 32.9357 6.34438 30.515 7.41591C27.6475 8.68363 25.6553 11.038 25.3143 13.5855L25.2418 14.1228L24.6985 14.1711C23.7296 14.2556 22.64 14.5846 22.1661 14.9377C21.7797 15.2396 21.5624 15.8433 21.6499 16.5435C21.7314 17.3072 22.1238 17.9531 22.6551 18.1946C23.3493 18.4964 24.1643 18.4964 25.1573 18.1101L25.7912 17.8686L26.0326 18.5055C26.2469 19.0775 26.5779 19.5987 27.0046 20.0358C27.2068 20.2682 27.4332 20.5308 27.6897 20.8719C29.1023 22.7554 32.1117 23.7545 33.6631 23.3259C36.431 22.5592 37.3848 21.2945 39.2834 18.7802L39.8448 18.0105H40.1919C40.4348 18.0179 40.6768 18.0421 40.9163 18.0829C41.2826 18.1629 41.6628 18.1526 42.0241 18.0527C42.456 17.9242 42.8572 17.7092 43.2033 17.4207C43.5494 17.1322 43.8332 16.7762 44.0374 16.3745C42.5825 13.2112 39.5158 10.543 38.7552 10.057H38.7703Z" fill="#077594"/>
<path d="M38.9776 8.82307C37.1032 8.16204 36.3033 8.60575 34.7519 9.59578C33.3483 10.5013 33.8675 11.3827 32.6722 12.0105C30.7495 13.0247 28.9294 11.0024 27.4353 11.9682C25.9412 12.9341 26.3004 15.7774 25.8265 15.7684C25.4643 15.7684 25.6122 14.0449 24.6191 13.4955C23.7981 13.0367 22.4489 13.5287 21.7396 14.4011C20.7194 15.6416 21.0182 17.6579 21.978 18.3884C23.0798 19.2184 24.5135 17.9748 25.3949 18.7475C26.3004 19.5625 25.9412 22.0346 24.5558 23.3657C23.3484 24.5157 21.3714 24.8356 20.9337 24.238C20.5383 23.7158 21.3563 22.5477 21.0725 22.3636C20.7888 22.1795 20.2636 23.1423 19.2524 23.3053C18.3198 23.4502 17.215 22.8888 17.1124 22.2579C16.9977 21.5546 18.1296 20.8725 18.0179 20.7065C17.9062 20.5405 16.3669 21.6754 15.8839 21.2951C15.5398 21.0234 15.8839 20.1028 16.1465 19.2275C17.0279 16.3962 16.5631 16.2091 17.1728 14.5158C17.7825 12.8224 18.2624 12.8798 21.6249 8.50614C23.8193 5.65678 23.5838 5.67489 24.2962 5.07423C24.752 4.69089 28.0601 1.98038 31.5946 2.75309C33.6864 3.21188 33.9188 5.25232 35.9472 5.21308C37.6978 5.17686 37.4564 4.96557 38.54 5.17987C40.68 5.61452 42.5756 8.55142 41.7214 10.8575C41.3954 11.7328 40.5623 10.7307 40.2635 10.613C39.702 10.3866 41.1147 9.03436 40.3148 8.63593C39.9797 8.4669 39.4002 8.61178 38.9776 8.82307Z" fill="#077594"/>
<path d="M33.8796 4.71082C33.7287 4.08601 35.8898 3.4763 37.1998 3.24992C38.5792 3.01147 40.4717 2.6885 41.4588 3.65438C42.0262 4.20675 42.2466 5.13943 41.8874 5.42316C41.3622 5.83668 40.1126 4.44218 38.4132 4.58405C37.1274 4.69271 36.9342 5.56804 35.597 5.46844C34.8907 5.41411 33.9701 5.09114 33.8796 4.71082Z" fill="#077594"/>
<path d="M35.5495 7.21941C36.0868 6.96285 35.6461 4.95864 35.2688 3.8207C34.8734 2.63146 34.3301 1.00152 33.1831 0.823438C32.5251 0.720813 31.7252 1.10415 31.6739 1.54483C31.5803 2.19077 33.162 2.31151 33.7626 3.68789C34.2184 4.72924 33.6359 5.3963 34.2667 6.35313C34.5927 6.86626 35.2235 7.37637 35.5495 7.21941Z" fill="#077594"/>
<path d="M55.1448 57.0782C54.6378 57.6034 55.4467 59.3842 56.5725 60.3743C58.5677 62.1249 61.74 61.5514 61.9664 60.7516C62.3105 59.52 56.1319 56.0579 55.1448 57.0782Z" fill="white"/>
<path d="M59.8053 62.2733C58.4377 62.2912 57.1092 61.8166 56.0625 60.9361C55.0574 60.0518 54.2666 58.6331 54.2273 57.637C54.2081 57.4404 54.2307 57.2419 54.2937 57.0547C54.3566 56.8674 54.4585 56.6955 54.5926 56.5504C55.6671 55.4397 58.5165 56.8885 59.6876 57.5646C61.236 58.455 63.0078 59.765 62.6788 60.9543C62.537 61.4583 62.057 61.8447 61.2904 62.0711C60.8076 62.2094 60.3075 62.2776 59.8053 62.2733ZM55.7456 57.6401C55.7969 58.0868 56.2949 59.1221 57.0707 59.8043C58.4742 61.0358 60.5026 60.8214 61.1334 60.5317C60.8135 60.1031 59.7721 59.267 58.2629 58.5033C56.9439 57.8332 56.0927 57.6431 55.7456 57.6401Z" fill="#077594"/>
<path d="M60.2128 70.563C59.3633 70.5611 58.5407 70.2651 57.8848 69.7253C57.2289 69.1855 56.7801 68.4352 56.6148 67.602L55.2475 60.72C55.0601 59.764 55.2592 58.7727 55.8011 57.9631C56.3431 57.1535 57.1838 56.5917 58.1391 56.4007L66.2073 54.7979C67.163 54.6096 68.1543 54.808 68.964 55.3495C69.7737 55.8909 70.3356 56.7314 70.5266 57.6865L71.8939 64.5685C72.0822 65.5242 71.8839 66.5155 71.3424 67.3252C70.8009 68.1349 69.9605 68.6968 69.0053 68.8878L60.9342 70.4906C60.6967 70.5386 60.455 70.5628 60.2128 70.563ZM58.6673 59.0599C58.4182 59.1095 58.1988 59.2559 58.0574 59.4669C57.9159 59.6779 57.8639 59.9364 57.9127 60.1858L59.2801 67.0647C59.3046 67.1882 59.3533 67.3057 59.4234 67.4103C59.4935 67.5149 59.5836 67.6046 59.6886 67.6741C59.7935 67.7437 59.9112 67.7919 60.0348 67.8157C60.1585 67.8396 60.2856 67.8388 60.409 67.8132L68.4771 66.2135C68.7265 66.1632 68.9459 66.0162 69.0873 65.8047C69.2287 65.5932 69.2806 65.3343 69.2317 65.0846L67.8674 58.2057C67.8429 58.082 67.7942 57.9644 67.7242 57.8595C67.6541 57.7546 67.5641 57.6646 67.4593 57.5945C67.3545 57.5244 67.2369 57.4757 67.1132 57.4511C66.9895 57.4265 66.8622 57.4265 66.7385 57.4511L58.6673 59.0599Z" fill="#E05E48"/>
<path d="M58.8992 61.0389C60.007 62.1919 63.7015 61.3739 64.8153 59.0136C65.4461 57.6794 65.3284 55.6933 64.2418 54.978C62.8895 54.0996 60.4718 55.479 59.3822 57.1603C58.6517 58.265 58.0661 60.1907 58.8992 61.0389Z" fill="white"/>
<path d="M60.4542 62.3136C60.0698 62.3367 59.6847 62.2824 59.3217 62.1538C58.9588 62.0252 58.6254 61.825 58.3413 61.565C57.1339 60.3245 57.9217 58.0063 58.7337 56.7356C59.5969 55.4045 61.1092 54.3209 62.4976 54.019C62.8564 53.9236 63.2306 53.9011 63.5982 53.953C63.9658 54.0048 64.3193 54.1299 64.6377 54.3209C66.1016 55.2747 66.2585 57.6713 65.4828 59.3103C64.6467 61.0851 62.7119 61.9816 61.3084 62.214C61.0268 62.2702 60.7411 62.3035 60.4542 62.3136ZM63.2311 55.4618C63.0899 55.4629 62.9493 55.4791 62.8115 55.5101C61.8215 55.7214 60.6383 56.5877 60.0014 57.5717C59.3072 58.6402 59.0235 60.0981 59.4279 60.5176C59.6362 60.7319 60.2218 60.8889 61.0669 60.7501C62.1897 60.5659 63.5692 59.8596 64.1185 58.6915C64.6437 57.5807 64.4928 56.0534 63.8167 55.6128C63.6401 55.5069 63.4368 55.4545 63.2311 55.4618Z" fill="#077594"/>
<path d="M55.1814 56.4404C54.0707 55.7402 50.9496 61.4751 45.9391 62.5617C41.2244 63.5819 36.0478 60.1893 33.2619 56.9656C25.6797 48.2123 30.9769 35.1879 28.5411 34.4937C25.4865 33.6304 11.1642 52.3203 18.4838 66.4102C21.0827 71.4147 26.3015 75.6253 32.3865 76.4644C44.0556 78.0732 52.3351 66.3589 54.5928 60.2889C54.7015 59.9991 55.9692 56.9475 55.1814 56.4404Z" fill="#077594"/>
<path d="M79.7076 58.1296L46.8567 64.6521C45.601 64.9014 44.7851 66.1215 45.0345 67.3773L48.6778 85.7271C48.9271 86.9828 50.1472 87.7987 51.403 87.5493L84.2538 81.0268C85.5096 80.7775 86.3254 79.5574 86.0761 78.3016L82.4328 59.9518C82.1834 58.6961 80.9633 57.8802 79.7076 58.1296Z" fill="#E05E48"/>
<path d="M60.2602 84.0221C60.1896 84.0235 60.1207 84.0001 60.0655 83.956C60.0104 83.9119 59.9724 83.8498 59.9583 83.7806L56.0344 64.7647C56.0265 64.7259 56.0263 64.6859 56.0338 64.6469C56.0414 64.608 56.0565 64.571 56.0784 64.5379C56.1002 64.5048 56.1284 64.4764 56.1613 64.4542C56.1941 64.432 56.231 64.4165 56.2699 64.4086C56.3479 64.3925 56.4291 64.4079 56.4958 64.4514C56.5626 64.4949 56.6094 64.5631 56.626 64.641L60.5499 83.6569C60.5661 83.7349 60.5507 83.8161 60.5071 83.8828C60.4636 83.9496 60.3954 83.9964 60.3175 84.013C60.2989 84.0185 60.2796 84.0215 60.2602 84.0221Z" fill="white"/>
<path d="M74.8636 81.149C74.7929 81.1504 74.7241 81.127 74.6689 81.0829C74.6138 81.0388 74.5758 80.9767 74.5617 80.9075L70.6378 61.8916C70.6218 61.8116 70.6383 61.7284 70.6835 61.6605C70.7288 61.5926 70.7992 61.5454 70.8793 61.5294C70.9593 61.5134 71.0425 61.5299 71.1104 61.5751C71.1783 61.6204 71.2255 61.6908 71.2415 61.7709L75.1654 80.7868C75.1738 80.8258 75.1743 80.8661 75.167 80.9054C75.1597 80.9447 75.1446 80.9821 75.1227 81.0155C75.1008 81.0489 75.0725 81.0777 75.0394 81.1001C75.0063 81.1225 74.9691 81.1381 74.93 81.146L74.8636 81.149Z" fill="white"/>
<path d="M53.1077 45.2689L48.1931 46.2447C47.7925 46.3242 47.5323 46.7134 47.6118 47.114L48.5876 52.0286C48.6671 52.4292 49.0564 52.6895 49.4569 52.6099L54.3715 51.6342C54.7721 51.5546 55.0324 51.1654 54.9529 50.7648L53.9771 45.8502C53.8975 45.4496 53.5083 45.1893 53.1077 45.2689Z" fill="white"/>
<path d="M74.6382 48.3847L72.2705 47.6951C71.8784 47.5809 71.468 47.8062 71.3537 48.1983L70.6641 50.5659C70.5499 50.958 70.7751 51.3685 71.1673 51.4827L73.5349 52.1724C73.927 52.2866 74.3375 52.0613 74.4517 51.6692L75.1414 49.3016C75.2556 48.9094 75.0303 48.499 74.6382 48.3847Z" fill="white"/>
<path d="M66.4303 39.2526L63.0678 38.4671C62.6701 38.3742 62.2723 38.6212 62.1794 39.0189L61.3938 42.3814C61.3009 42.7791 61.548 43.1769 61.9457 43.2698L65.3082 44.0554C65.7059 44.1483 66.1037 43.9012 66.1966 43.5035L66.9821 40.141C67.0751 39.7433 66.828 39.3456 66.4303 39.2526Z" fill="white"/>
<path d="M48.7749 30.291L46.4073 29.6013C46.0151 29.4871 45.6047 29.7124 45.4905 30.1045L44.8008 32.4722C44.6866 32.8643 44.9119 33.2747 45.304 33.389L47.6716 34.0786C48.0637 34.1928 48.4742 33.9676 48.5884 33.5754L49.2781 31.2078C49.3923 30.8157 49.167 30.4052 48.7749 30.291Z" fill="white"/>
<path d="M59.3414 14.4577L55.9789 13.6721C55.5812 13.5792 55.1835 13.8263 55.0906 14.224L54.305 17.5865C54.2121 17.9842 54.4591 18.382 54.8569 18.4749L58.2194 19.2604C58.6171 19.3534 59.0148 19.1063 59.1077 18.7086L59.8933 15.3461C59.9862 14.9484 59.7391 14.5506 59.3414 14.4577Z" fill="white"/>
<path d="M30.5032 49.4977C31.294 42.4498 32.616 29.2745 30.0957 28.0671C28.9215 28.4625 27.3791 28.9424 25.6104 27.7019C24.4271 26.8718 24.3698 26.3255 23.8657 25.2117C21.5385 24.1975 11.596 36.3164 6.73333 50.9103C5.45051 54.7527 4.35785 58.0277 3.77832 61.0853C6.0831 66.8909 9.69846 72.0854 14.3422 76.2631C18.9859 80.4408 24.5323 83.4888 30.5484 85.1691C30.9469 83.2544 31.2351 81.3184 31.4117 79.3707C32.942 64.1701 29.163 61.4415 30.5032 49.4977Z" fill="#077594"/>
</svg>
