<svg width="80" height="90" viewBox="0 0 80 90" fill="none" xmlns="http://www.w3.org/2000/svg">
<path d="M40.2945 89.3311C62.117 89.3311 79.8077 71.6405 79.8077 49.8179C79.8077 27.9954 62.117 10.3047 40.2945 10.3047C18.4719 10.3047 0.78125 27.9954 0.78125 49.8179C0.78125 71.6405 18.4719 89.3311 40.2945 89.3311Z" fill="#B4D5DE"/>
<path d="M43.7599 39.2717C43.6739 36.1254 43.3128 32.9927 42.6807 29.9094C44.04 28.6237 46.1101 28.7889 47.434 29.3196C48.1919 32.9466 49.8992 34.4623 51.7893 37.0365C50.4889 39.5253 46.1484 40.8699 43.7599 39.2717Z" fill="white"/>
<path d="M46.2981 40.705C45.2553 40.7299 44.2287 40.4435 43.3493 39.8823L43.0338 39.667V39.2837C42.9475 36.18 42.5903 33.0898 41.9664 30.0482L41.8809 29.6649L42.1757 29.3877C43.8034 27.8514 46.1772 28.0342 47.7135 28.6564L48.0791 28.8039L48.1587 29.1901C48.7308 31.9266 49.8513 33.3567 51.2726 35.1702C51.6324 35.6273 52.0039 36.102 52.3872 36.621L52.6585 36.9925L52.4462 37.3995C51.6913 38.8384 50.0872 39.9944 48.1234 40.4868C47.5262 40.6341 46.9132 40.7074 46.2981 40.705ZM44.4876 38.8443C45.3515 39.2808 46.5192 39.3545 47.7577 39.0419C49.0994 38.7028 50.2612 37.9715 50.8981 37.0839C50.6327 36.7301 50.3674 36.3939 50.1108 36.0637C48.6984 34.2649 47.4569 32.6992 46.8023 29.8713C45.9177 29.6 44.5259 29.4614 43.485 30.1898C44.0487 33.0434 44.384 35.9374 44.4876 38.8443Z" fill="#077594"/>
<path d="M43.2433 15.3262C39.7549 15.3262 37.8795 16.5558 36.7826 20.1739C34.2968 21.9432 33.0996 22.6568 33.0996 23.792C33.0996 24.8329 34.111 25.4581 36.8475 27.4101C38.2688 31.8038 42.6477 32.0161 43.6945 32.0603C44.5791 32.0986 50.8658 32.0603 52.2871 26.0537C54.4397 26.3044 54.8879 24.0279 54.6461 23.3291C54.4191 22.6951 53.5079 21.0143 51.6974 22.4444C50.6712 19.3424 49.8131 18.7526 47.6369 16.8772C46.8673 16.2196 45.5522 15.4559 43.2433 15.3262Z" fill="white"/>
<path d="M44.0452 32.8072C43.9125 32.8072 43.7858 32.8072 43.6619 32.8072C39.9347 32.648 37.3044 30.9023 36.2252 27.8828L35.7681 27.5555C33.359 25.8452 32.3623 25.1375 32.3623 23.8017C32.3623 22.3863 33.5418 21.5548 35.7032 20.0421L36.1662 19.7148C37.3457 16.079 39.4098 14.5898 43.2432 14.5898H43.2845C45.2778 14.6989 46.9055 15.2799 48.1145 16.3149L48.489 16.6363C50.217 18.1106 51.1665 18.9186 52.0983 21.3366C52.5605 21.1249 53.0826 21.0831 53.5726 21.2186C54.702 21.543 55.2004 22.7254 55.3271 23.0793C55.566 23.7516 55.4097 24.9576 54.7374 25.8069C54.5096 26.0948 54.224 26.3318 53.8989 26.5025C53.5738 26.6732 53.2166 26.7737 52.8502 26.7977C51.4112 31.5422 46.8554 32.8072 44.0452 32.8072ZM43.2225 16.0642C39.9553 16.0642 38.4544 17.2024 37.4872 20.3871L37.4135 20.6289L36.5495 21.2393C34.6682 22.5603 33.8367 23.1707 33.8367 23.7899C33.8367 24.3384 34.5532 24.8751 36.6203 26.3436L37.4725 26.951L37.5492 27.1839C38.3807 29.7553 40.5156 31.1883 43.7268 31.3122C44.3902 31.3417 50.2553 31.4331 51.5704 25.8718L51.7208 25.2319L52.3725 25.3085C52.5893 25.3531 52.8141 25.3388 53.0236 25.2673C53.233 25.1957 53.4195 25.0695 53.5638 24.9016C53.8542 24.525 53.9864 24.0501 53.9324 23.5776C53.7967 23.1913 53.496 22.7343 53.1598 22.637C52.8237 22.5397 52.4315 22.7903 52.1514 23.0144L51.3286 23.6661L50.9954 22.6694C50.0872 19.9477 49.3884 19.3521 47.5218 17.7597L47.1444 17.4383C46.1919 16.6215 44.8797 16.1586 43.2225 16.0642Z" fill="#077594"/>
<path d="M30.3448 1.01694C32.6684 0.223727 36.5755 1.26464 39.1556 4.98006C40.7479 3.21081 42.585 2.22888 43.8736 2.71542C45.0354 3.15478 45.4925 5.49904 45.2536 7.94945C45.8168 8.01432 47.4268 7.25944 52.1154 9.81011C56.1669 12.0128 61.2004 18.7448 61.3007 24.4536C61.3715 28.4344 59.6258 34.4233 55.3118 35.6205C51.9856 36.5434 48.6594 33.8984 47.5979 32.2707C46.8194 31.0912 50.0689 30.3983 53.0796 26.4823C53.5927 25.8159 54.9373 24.3327 54.3092 23.4392C53.7902 22.6961 53.3951 20.8473 50.6026 24.8399C49.3317 24.2147 49.7623 21.7525 49.0192 20.9003C44.1596 15.3272 41.4733 16.3032 39.7188 16.9844C39.0279 17.3238 38.2838 17.5422 37.5191 17.6302C33.4262 18.1049 30.5305 14.7876 30.218 14.419C26.3256 9.81895 27.8029 1.88092 30.3448 1.01694Z" fill="#077594"/>
<path d="M25.9543 61.3077C25.5798 60.5764 22.4158 62.9531 18.0546 61.8974C15.6189 61.3077 14.4925 60.0751 13.0181 60.7179C11.7856 61.2458 10.8479 62.8469 11.1752 64.0058C11.7443 66.0109 16.1379 66.7894 19.4847 66.0375C23.4184 65.1469 26.3376 62.0508 25.9543 61.3077Z" fill="white"/>
<path d="M16.8283 67.0465C13.9857 67.0465 11.0311 66.1972 10.4679 64.2009C10.0433 62.7059 11.1225 60.7214 12.7296 60.0344C13.9386 59.5183 14.9706 59.9606 16.0616 60.4265C16.7594 60.7438 17.4837 60.9993 18.226 61.1903C20.7678 61.7948 22.8556 61.1608 24.2356 60.7421C25.2853 60.4236 26.1876 60.1523 26.6123 60.9691C26.6968 61.159 26.7353 61.3661 26.7245 61.5737C26.7138 61.7812 26.6541 61.9833 26.5503 62.1634C25.8869 63.5729 23.121 65.9672 19.6532 66.7516C18.725 66.9518 17.7779 67.0507 16.8283 67.0465ZM13.8471 61.2787C13.6615 61.2789 13.4779 61.3171 13.3075 61.3908C12.3964 61.78 11.6651 63.0185 11.8862 63.7999C12.2902 65.2271 16.1825 66.0174 19.3259 65.3126C21.4428 64.82 23.3616 63.6998 24.8312 62.0985L24.6631 62.1486C23.2242 62.588 20.8121 63.3281 17.881 62.6204C17.0575 62.4123 16.2542 62.1311 15.4807 61.78C14.7554 61.4704 14.2747 61.2787 13.8471 61.2787Z" fill="#077594"/>
<path d="M25.7453 60.5388C26.9454 59.949 28.3166 65.0563 31.7961 65.5723C35.2756 66.0883 39.3154 62.2284 41.0847 58.165C43.7385 52.07 41.6213 42.7195 43.3464 41.8703C45.0714 41.021 49.3795 49.4191 50.615 55.0217C51.9066 60.8307 50.7713 66.4952 47.8874 70.5881C44.9387 74.7517 39.6634 77.9895 36.1809 77.9924C24.7014 78.0219 24.8371 60.9899 25.7453 60.5388Z" fill="#077594"/>
<path d="M18.2792 56.1796C22.6959 56.1796 26.2762 52.5992 26.2762 48.1826C26.2762 43.7659 22.6959 40.1855 18.2792 40.1855C13.8626 40.1855 10.2822 43.7659 10.2822 48.1826C10.2822 52.5992 13.8626 56.1796 18.2792 56.1796Z" fill="white"/>
<path d="M18.3438 56.7677C16.6088 56.7677 14.9127 56.2532 13.4701 55.2893C12.0274 54.3253 10.903 52.9553 10.2391 51.3523C9.57509 49.7493 9.40136 47.9855 9.73985 46.2837C10.0783 44.582 10.9138 43.0189 12.1407 41.7921C13.3676 40.5652 14.9307 39.7297 16.6324 39.3912C18.3341 39.0527 20.0979 39.2265 21.7009 39.8904C23.3039 40.5544 24.674 41.6788 25.6379 43.1214C26.6018 44.5641 27.1163 46.2601 27.1163 47.9952C27.114 50.3211 26.189 52.5511 24.5443 54.1957C22.8997 55.8404 20.6697 56.7654 18.3438 56.7677ZM18.3438 40.1102C16.7836 40.1102 15.2585 40.5729 13.9612 41.4398C12.664 42.3067 11.653 43.5387 11.0561 44.9802C10.4591 46.4217 10.3031 48.0079 10.6077 49.5381C10.9123 51.0683 11.6638 52.4737 12.7673 53.5768C13.8707 54.6798 15.2765 55.4308 16.8068 55.7348C18.3371 56.0389 19.9232 55.8822 21.3644 55.2848C22.8057 54.6873 24.0374 53.6758 24.9038 52.3783C25.7702 51.0807 26.2323 49.5554 26.2317 47.9952C26.2286 45.9044 25.3965 43.9002 23.9178 42.4221C22.4391 40.944 20.4346 40.1126 18.3438 40.1102Z" fill="#E05E48"/>
<path d="M13.9768 47.1182C13.8668 47.1168 13.7613 47.0736 13.682 46.9973C12.4287 45.8178 8.45383 41.8163 9.79846 40.0648C10.7096 38.8853 12.6587 39.5694 14.257 40.3066C14.3637 40.3558 14.4465 40.4455 14.4872 40.5558C14.5278 40.6662 14.523 40.7881 14.4737 40.8949C14.4244 41.0016 14.3348 41.0844 14.2245 41.1251C14.1141 41.1657 13.9922 41.1609 13.8854 41.1116C12.0366 40.2565 10.8954 40.0854 10.5003 40.6015C10.1051 41.1175 11.0104 43.2553 14.2894 46.3545C14.3532 46.4148 14.3976 46.4927 14.417 46.5783C14.4364 46.6639 14.4299 46.7534 14.3983 46.8353C14.3666 46.9172 14.3114 46.9878 14.2395 47.0382C14.1676 47.0886 14.0823 47.1164 13.9945 47.1182H13.9768Z" fill="#E05E48"/>
<path d="M26.2261 54.3186C25.1675 54.3186 23.8023 53.8144 22.6523 53.2807C22.5973 53.2578 22.5475 53.224 22.5059 53.1815C22.4642 53.1389 22.4316 53.0883 22.41 53.0328C22.3884 52.9773 22.3782 52.918 22.3801 52.8585C22.382 52.799 22.3958 52.7404 22.4209 52.6864C22.4459 52.6324 22.4816 52.5839 22.5258 52.544C22.57 52.5041 22.6218 52.4735 22.6781 52.4541C22.7344 52.4347 22.794 52.4269 22.8534 52.4311C22.9128 52.4353 22.9708 52.4515 23.0238 52.4786C25.3002 53.5372 26.6272 53.6139 26.9309 53.2188C27.2346 52.8236 27.2759 52.3046 25.9843 50.6386C25.9437 50.5935 25.9128 50.5405 25.8936 50.4829C25.8743 50.4253 25.8672 50.3644 25.8725 50.3039C25.8778 50.2434 25.8955 50.1847 25.9246 50.1313C25.9536 50.078 25.9933 50.0312 26.0411 49.9939C26.089 49.9565 26.1441 49.9295 26.2029 49.9143C26.2617 49.8992 26.323 49.8964 26.3829 49.9059C26.4429 49.9155 26.5002 49.9373 26.5514 49.97C26.6025 50.0027 26.6464 50.0456 26.6802 50.096C27.6651 51.361 28.4495 52.6791 27.6327 53.7554C27.459 53.9532 27.2411 54.1073 26.9967 54.2052C26.7524 54.303 26.4884 54.3419 26.2261 54.3186Z" fill="#E05E48"/>
<path d="M14.3776 47.5086H12.6083C12.491 47.5086 12.3785 47.462 12.2956 47.3791C12.2126 47.2961 12.166 47.1836 12.166 47.0663C12.166 46.949 12.2126 46.8365 12.2956 46.7535C12.3785 46.6706 12.491 46.624 12.6083 46.624H13.8792L13.7347 45.0906C13.7234 44.9733 13.7591 44.8563 13.8341 44.7654C13.909 44.6744 14.017 44.6169 14.1343 44.6056C14.2516 44.5942 14.3686 44.63 14.4596 44.7049C14.5506 44.7798 14.608 44.8878 14.6194 45.0051L14.814 47.0221C14.8196 47.0837 14.8126 47.1459 14.7933 47.2047C14.774 47.2635 14.7429 47.3178 14.7019 47.3641C14.6606 47.409 14.6105 47.445 14.5547 47.4699C14.4989 47.4947 14.4386 47.5079 14.3776 47.5086Z" fill="#E05E48"/>
<path d="M20.7383 51.3632L19.5293 50.5317C19.5156 50.5234 19.5044 50.5117 19.4966 50.4978C19.4888 50.4838 19.4849 50.468 19.4851 50.4521L19.4379 47.1937C19.4376 47.1778 19.4334 47.1623 19.4257 47.1484C19.418 47.1345 19.407 47.1227 19.3937 47.1141L18.7686 46.6895L18.0196 49.3433C18.0153 49.3587 18.0075 49.3729 17.9966 49.3846C17.9858 49.3964 17.9723 49.4053 17.9573 49.4108C17.9423 49.4163 17.9262 49.4181 17.9104 49.4161C17.8946 49.4141 17.8794 49.4084 17.8662 49.3993L16.4538 48.4322C16.4317 48.4179 16.4159 48.3958 16.4096 48.3702L16.2031 47.3795C16.1978 47.3543 16.1831 47.3321 16.1619 47.3175L15.7756 47.061L15.5898 48.4204C15.5898 48.4204 15.5898 48.4204 15.5898 48.4351L14.3867 49.1045L14.776 49.3728C14.7996 49.3825 14.8261 49.3825 14.8497 49.3728L15.8758 49.2047C15.8885 49.2018 15.9016 49.2016 15.9143 49.2042C15.927 49.2067 15.939 49.2119 15.9496 49.2195L17.3532 50.1808C17.366 50.1904 17.3764 50.2028 17.3835 50.2172C17.3907 50.2315 17.3944 50.2473 17.3944 50.2633C17.3944 50.2794 17.3907 50.2952 17.3835 50.3095C17.3764 50.3238 17.366 50.3363 17.3532 50.3459L15.1298 52.0149L15.752 52.4395C15.7661 52.4468 15.7818 52.4505 15.7977 52.4505C15.8136 52.4505 15.8293 52.4468 15.8434 52.4395L18.9189 51.2983C18.9331 51.2911 18.9488 51.2873 18.9646 51.2873C18.9805 51.2873 18.9962 51.2911 19.0104 51.2983L20.2105 52.121C20.4847 52.3098 21.4873 52.7373 21.6347 52.5221C21.7822 52.3068 21.0155 51.5519 20.7383 51.3632Z" fill="#E05E48"/>
<path d="M31.9443 42.345L32.077 43.5009C32.0791 43.5242 32.0869 43.5466 32.0998 43.5662C32.1126 43.5858 32.1301 43.6018 32.1507 43.6129L33.1769 44.1585C33.2012 44.1704 33.2216 44.1888 33.2359 44.2118C33.2502 44.2347 33.2578 44.2612 33.2578 44.2882C33.2578 44.3152 33.2502 44.3417 33.2359 44.3647C33.2216 44.3876 33.2012 44.4061 33.1769 44.4179L32.1213 44.8986C32.0996 44.9078 32.0807 44.9224 32.0662 44.941C32.0518 44.9596 32.0423 44.9815 32.0387 45.0048L31.8352 46.1489C31.83 46.1753 31.8176 46.1997 31.7994 46.2196C31.7813 46.2395 31.758 46.254 31.7322 46.2616C31.7064 46.2692 31.679 46.2696 31.653 46.2627C31.6269 46.2558 31.6033 46.2419 31.5846 46.2226L30.8002 45.3645C30.7842 45.3474 30.7644 45.3345 30.7423 45.3268C30.7202 45.3191 30.6966 45.3168 30.6734 45.3203L29.5234 45.4795C29.4964 45.4837 29.4688 45.4803 29.4437 45.4695C29.4187 45.4586 29.3972 45.4409 29.3817 45.4184C29.3663 45.3959 29.3576 45.3694 29.3565 45.3422C29.3555 45.3149 29.3623 45.2879 29.376 45.2642L29.9657 44.2528C29.9766 44.2324 29.9822 44.2096 29.9822 44.1865C29.9822 44.1633 29.9766 44.1406 29.9657 44.1201L29.4585 43.0733C29.4471 43.0491 29.4425 43.0221 29.4455 42.9955C29.4485 42.9688 29.4588 42.9435 29.4753 42.9224C29.4919 42.9013 29.5139 42.8852 29.5391 42.8759C29.5642 42.8666 29.5915 42.8645 29.6178 42.8699L30.756 43.1028C30.7791 43.107 30.8029 43.1057 30.8254 43.0991C30.8479 43.0924 30.8686 43.0806 30.8857 43.0645L31.7202 42.2565C31.7398 42.2429 31.7624 42.2342 31.7861 42.2315C31.8098 42.2287 31.8338 42.2318 31.856 42.2406C31.8782 42.2493 31.8979 42.2634 31.9133 42.2817C31.9287 42.2999 31.9394 42.3216 31.9443 42.345Z" fill="white"/>
<path d="M5.82648 52.5907L6.47226 53.0036C6.48608 53.0101 6.50119 53.0135 6.51649 53.0135C6.53179 53.0135 6.5469 53.0101 6.56072 53.0036L7.26547 52.7087C7.28189 52.7012 7.30011 52.6986 7.31797 52.7012C7.33583 52.7037 7.35258 52.7114 7.36624 52.7232C7.37989 52.735 7.38988 52.7504 7.39501 52.7677C7.40015 52.785 7.40022 52.8034 7.39522 52.8207L7.2006 53.5638C7.19731 53.5787 7.19746 53.5942 7.20104 53.609C7.20462 53.6238 7.21153 53.6376 7.22124 53.6493L7.72253 54.2391C7.73396 54.2529 7.74137 54.2695 7.74396 54.2872C7.74655 54.3049 7.74421 54.3229 7.7372 54.3394C7.7302 54.3559 7.71879 54.3701 7.70423 54.3805C7.68968 54.3909 7.67255 54.397 7.65471 54.3983L6.89098 54.4426C6.87541 54.4439 6.86037 54.4489 6.84706 54.4571C6.83374 54.4653 6.82253 54.4764 6.81431 54.4897L6.41918 55.1444C6.41159 55.1606 6.39951 55.1744 6.38436 55.1841C6.36922 55.1937 6.35163 55.1988 6.33367 55.1988C6.31571 55.1988 6.29812 55.1937 6.28298 55.1841C6.26783 55.1744 6.25575 55.1606 6.24816 55.1444L5.97097 54.4308C5.96485 54.4165 5.95556 54.4037 5.94382 54.3935C5.93207 54.3833 5.91817 54.3759 5.90315 54.3718L5.15712 54.1978C5.13991 54.1938 5.12416 54.1851 5.11166 54.1726C5.09917 54.1602 5.09042 54.1444 5.08643 54.1272C5.08243 54.11 5.08335 54.092 5.08907 54.0753C5.09479 54.0586 5.10509 54.0438 5.11879 54.0327L5.70853 53.5461C5.7201 53.5359 5.72907 53.5231 5.73471 53.5088C5.74035 53.4944 5.74249 53.4789 5.74097 53.4636L5.6761 52.7028C5.66841 52.683 5.66743 52.6611 5.67332 52.6407C5.6792 52.6203 5.69163 52.6023 5.70869 52.5896C5.72575 52.5769 5.7465 52.5701 5.76778 52.5703C5.78906 52.5705 5.80968 52.5777 5.82648 52.5907Z" fill="white"/>
<path d="M20.1666 30.8615L21.5495 31.7461C21.5786 31.7613 21.611 31.7693 21.6439 31.7693C21.6768 31.7693 21.7091 31.7613 21.7382 31.7461L23.251 31.1387C23.2861 31.124 23.3247 31.1196 23.3623 31.1258C23.3999 31.1321 23.435 31.1487 23.4636 31.1739C23.4921 31.1991 23.5131 31.2319 23.524 31.2684C23.5349 31.3049 23.5353 31.3437 23.5252 31.3804L23.1124 32.9669C23.104 32.9991 23.1036 33.0329 23.1113 33.0653C23.119 33.0977 23.1346 33.1277 23.1566 33.1526L24.227 34.3911C24.2515 34.4201 24.2676 34.4553 24.2734 34.4929C24.2792 34.5305 24.2745 34.5689 24.2599 34.6039C24.2453 34.639 24.2212 34.6694 24.1904 34.6916C24.1597 34.7139 24.1233 34.7273 24.0854 34.7302L22.4489 34.8275C22.4158 34.8283 22.3834 34.8377 22.355 34.8548C22.3265 34.8718 22.303 34.896 22.2867 34.9248L21.4375 36.3284C21.4179 36.3615 21.3894 36.3883 21.3552 36.4058C21.3211 36.4233 21.2827 36.4308 21.2444 36.4274C21.2062 36.424 21.1697 36.4099 21.1392 36.3866C21.1086 36.3634 21.0853 36.332 21.0718 36.296L20.4821 34.7686C20.4704 34.7379 20.4514 34.7106 20.4267 34.689C20.4021 34.6674 20.3725 34.6522 20.3405 34.6447L18.7423 34.2732C18.705 34.2647 18.6709 34.2459 18.6438 34.2189C18.6168 34.1919 18.5978 34.1579 18.5892 34.1206C18.5806 34.0834 18.5827 34.0445 18.5951 34.0084C18.6076 33.9722 18.63 33.9404 18.6598 33.9164L19.9277 32.8755C19.953 32.8538 19.9729 32.8265 19.9857 32.7958C19.9985 32.7651 20.0039 32.7317 20.0014 32.6985L19.8628 31.0649C19.8577 31.0272 19.8632 30.9888 19.8789 30.954C19.8945 30.9193 19.9196 30.8896 19.9512 30.8684C19.9828 30.8472 20.0198 30.8353 20.0579 30.8341C20.096 30.8329 20.1336 30.8423 20.1666 30.8615Z" fill="white"/>
<path d="M35.0752 88.9895C36.8057 89.2169 38.5491 89.3312 40.2945 89.3316C47.3247 89.3338 54.2282 87.4604 60.2929 83.9046C66.3575 80.3487 71.3637 75.2392 74.7948 69.1031C74.3967 59.5728 68.3518 51.045 66.73 48.7568C61.5166 41.4026 53.1186 33.5914 50.0637 35.2899C49.7128 36.1745 48.6453 37.0591 46.8466 37.5132C45.2336 37.9054 44.2517 37.4188 43.1017 36.4074C39.8581 37.7285 45.9325 55.6893 43.6325 69.7283C41.7689 81.0131 35.3199 85.5572 35.0752 88.9895Z" fill="#077594"/>
<path d="M26.0164 17.7274L26.1402 18.8833C26.1435 18.9066 26.1522 18.9288 26.1655 18.9483C26.1788 18.9677 26.1963 18.9838 26.2169 18.9954L27.243 19.5409C27.2673 19.5528 27.2878 19.5712 27.3021 19.5942C27.3164 19.6171 27.3239 19.6436 27.3239 19.6706C27.3239 19.6976 27.3164 19.7241 27.3021 19.7471C27.2878 19.77 27.2673 19.7885 27.243 19.8004L26.1844 20.281C26.1631 20.2907 26.1444 20.3054 26.1301 20.3239C26.1157 20.3424 26.106 20.3641 26.1019 20.3872L25.8984 21.5313C25.8937 21.5577 25.8818 21.5823 25.864 21.6023C25.8461 21.6223 25.823 21.637 25.7973 21.6447C25.7716 21.6523 25.7443 21.6527 25.7184 21.6456C25.6925 21.6386 25.6691 21.6246 25.6507 21.605L24.8663 20.7469C24.8507 20.7294 24.8308 20.7162 24.8087 20.7084C24.7865 20.7007 24.7627 20.6987 24.7396 20.7027L23.5866 20.8619C23.5598 20.8655 23.5326 20.8615 23.508 20.8505C23.4834 20.8394 23.4624 20.8216 23.4474 20.7992C23.4323 20.7768 23.4239 20.7507 23.4229 20.7237C23.422 20.6967 23.4286 20.67 23.4421 20.6467L24.0112 19.6382C24.0221 19.6177 24.0277 19.595 24.0277 19.5718C24.0277 19.5487 24.0221 19.5259 24.0112 19.5055L23.507 18.4587C23.4955 18.4345 23.491 18.4075 23.494 18.3809C23.4969 18.3542 23.5072 18.3289 23.5238 18.3078C23.5403 18.2867 23.5624 18.2706 23.5875 18.2613C23.6127 18.252 23.6399 18.2499 23.6662 18.2552L24.8044 18.4882C24.8275 18.4926 24.8514 18.4914 24.874 18.4848C24.8965 18.4781 24.9172 18.4661 24.9342 18.4498L25.7716 17.6419C25.7913 17.624 25.8154 17.6118 25.8414 17.6065C25.8674 17.6012 25.8944 17.603 25.9194 17.6118C25.9445 17.6205 25.9668 17.6359 25.9838 17.6562C26.0009 17.6766 26.0121 17.7012 26.0164 17.7274Z" fill="white"/>
<path d="M28.5768 26.3682L29.2225 26.781C29.2359 26.7891 29.2512 26.7933 29.2668 26.7933C29.2824 26.7933 29.2977 26.7891 29.311 26.781L30.0157 26.4861C30.0322 26.4787 30.0504 26.4761 30.0682 26.4786C30.0861 26.4812 30.1029 26.4888 30.1165 26.5006C30.1302 26.5124 30.1402 26.5279 30.1453 26.5452C30.1504 26.5625 30.1505 26.5809 30.1455 26.5982L29.9509 27.3383C29.9468 27.3532 29.9466 27.3688 29.9502 27.3837C29.9538 27.3987 29.9612 27.4125 29.9715 27.4238L30.4728 28.0136C30.4845 28.027 30.4922 28.0435 30.4949 28.0611C30.4976 28.0788 30.4953 28.0968 30.4882 28.1131C30.4811 28.1295 30.4695 28.1435 30.4548 28.1535C30.4401 28.1636 30.4228 28.1692 30.405 28.1699L29.6413 28.2141C29.6257 28.2157 29.6108 28.2207 29.5975 28.2289C29.5842 28.2371 29.573 28.2481 29.5646 28.2613L29.1695 28.9159C29.1619 28.9322 29.1498 28.946 29.1346 28.9556C29.1195 28.9653 29.1019 28.9704 29.0839 28.9704C29.066 28.9704 29.0484 28.9653 29.0332 28.9556C29.0181 28.946 29.006 28.9322 28.9984 28.9159L28.7212 28.1905C28.7153 28.1764 28.7061 28.1639 28.6943 28.1541C28.6824 28.1444 28.6684 28.1376 28.6534 28.1345L27.9103 27.9546C27.8932 27.9501 27.8776 27.9409 27.8652 27.9282C27.8529 27.9154 27.8443 27.8995 27.8403 27.8822C27.8364 27.8649 27.8372 27.8468 27.8428 27.8299C27.8484 27.8131 27.8585 27.7981 27.872 27.7865L28.4618 27.3C28.4742 27.2911 28.4841 27.279 28.4903 27.265C28.4966 27.251 28.4989 27.2356 28.4971 27.2204L28.4323 26.4567C28.4306 26.4391 28.4339 26.4214 28.4418 26.4056C28.4497 26.3899 28.4619 26.3766 28.4769 26.3674C28.492 26.3582 28.5093 26.3534 28.527 26.3535C28.5446 26.3537 28.5619 26.3587 28.5768 26.3682Z" fill="white"/>
<path d="M14.2095 69.2488L15.5925 70.1335C15.6198 70.1523 15.6515 70.1637 15.6845 70.1668C15.7176 70.1699 15.7508 70.1645 15.7812 70.1512L17.2939 69.5142C17.3289 69.4991 17.3675 69.4942 17.4052 69.5C17.443 69.5058 17.4783 69.5221 17.5072 69.547C17.5361 69.5719 17.5574 69.6044 17.5687 69.6409C17.58 69.6773 17.5808 69.7162 17.5711 69.7531L17.1583 71.3395C17.15 71.3715 17.1494 71.4051 17.1566 71.4374C17.1638 71.4696 17.1785 71.4998 17.1995 71.5253L18.2729 72.7667C18.2977 72.7954 18.314 72.8305 18.3199 72.8679C18.3259 72.9054 18.3212 72.9438 18.3065 72.9787C18.2918 73.0137 18.2676 73.0438 18.2366 73.0658C18.2057 73.0877 18.1692 73.1005 18.1313 73.1029L16.4948 73.2002C16.4618 73.2018 16.4298 73.2115 16.4015 73.2285C16.3732 73.2455 16.3496 73.2692 16.3326 73.2975L15.4834 74.7011C15.4633 74.7332 15.4349 74.7593 15.401 74.7763C15.3672 74.7933 15.3293 74.8007 15.2916 74.7977C15.2538 74.7947 15.2176 74.7813 15.187 74.759C15.1563 74.7368 15.1323 74.7065 15.1177 74.6716L14.528 73.1441C14.5163 73.1135 14.4973 73.0862 14.4726 73.0646C14.448 73.043 14.4184 73.0278 14.3864 73.0203L12.7882 72.6458C12.7509 72.6373 12.7168 72.6185 12.6897 72.5915C12.6627 72.5646 12.6437 72.5305 12.6351 72.4933C12.6265 72.456 12.6286 72.4171 12.641 72.381C12.6535 72.3449 12.6759 72.313 12.7057 72.289L13.9618 71.2422C13.9873 71.2213 14.0073 71.1946 14.0201 71.1643C14.0329 71.134 14.0382 71.101 14.0355 71.0682L13.8969 69.4346C13.8943 69.397 13.9021 69.3594 13.9196 69.3259C13.9371 69.2925 13.9635 69.2646 13.996 69.2454C14.0284 69.2261 14.0655 69.2162 14.1032 69.2168C14.1409 69.2174 14.1777 69.2285 14.2095 69.2488Z" fill="white"/>
</svg>
