<svg width="80" height="84" viewBox="0 0 80 84" fill="none" xmlns="http://www.w3.org/2000/svg">
<path d="M39.9995 83.8702C61.8221 83.8702 79.5128 66.1795 79.5128 44.357C79.5128 22.5344 61.8221 4.84375 39.9995 4.84375C18.177 4.84375 0.486328 22.5344 0.486328 44.357C0.486328 66.1795 18.177 83.8702 39.9995 83.8702Z" fill="#B4D5DE"/>
<path d="M50.2558 14.0852C50.2558 14.0616 46.5758 15.0111 45.0159 13.404C43.6447 11.9886 44.3318 9.01921 45.069 7.33842C47.4132 1.99529 54.2366 0.694895 55.3336 0.488483C57.9874 -0.0187018 62.4636 0.995667 66.0936 4.84378C69.1927 8.14638 70.9619 14.0911 68.9273 17.4467C66.757 21.0265 66.1407 20.9056 61.3018 23.6391C58.9605 24.969 57.1205 23.1909 56.1415 30.6866C55.7641 33.5793 55.2186 43.9707 38.449 36.8141C34.0082 34.921 32.9821 39.81 28.5737 39.1937C25.2239 38.7249 25.4185 33.5292 28.5737 30.0261C34.657 23.2676 38.6407 28.4632 41.9728 27.0773C44.9687 25.8123 45.8209 23.6627 45.8416 20.4191C45.8416 18.4375 43.0963 14.0026 44.8773 12.1419C46.8884 10.0424 50.2558 14.1087 50.2558 14.0852Z" fill="#077594"/>
<path d="M57.1406 21.5192C59.4996 24.3382 60.4639 24.8749 60.8678 27.918C63.7163 28.5431 66.5206 26.4023 66.8656 24.0374C64.9784 21.3836 63.4215 20.6847 60.4668 18.5469C59.7035 18.7143 58.9963 19.0758 58.4136 19.5965C57.8309 20.1172 57.3924 20.7794 57.1406 21.5192Z" fill="white"/>
<path d="M61.8758 28.7645C61.4841 28.7653 61.0934 28.7228 60.7111 28.6377L60.2039 28.5256L60.136 28.0155C59.8412 25.742 59.2514 25.0874 57.7299 23.3358C57.3908 22.9466 57.0045 22.5072 56.574 21.9912L56.3115 21.6786L56.4383 21.2894C56.7334 20.4274 57.2454 19.6558 57.925 19.049C58.6046 18.4421 59.4291 18.0205 60.3189 17.8246L60.6403 17.7656L60.9027 17.9543C61.5338 18.4114 62.1147 18.8124 62.6277 19.1633C64.5385 20.4785 65.9185 21.428 67.4696 23.6159L67.6406 23.8577L67.5993 24.1526C67.4688 24.8723 67.1921 25.5576 66.7864 26.1662C66.3806 26.7748 65.8545 27.2938 65.2403 27.6911C64.2534 28.3813 63.0801 28.7556 61.8758 28.7645ZM61.5249 27.2724C62.5511 27.3523 63.5731 27.0718 64.4147 26.4792C65.2235 25.9457 65.8161 25.142 66.0866 24.2116C64.7597 22.4158 63.5654 21.5902 61.7932 20.3782C61.3509 20.0833 60.8585 19.7324 60.3189 19.3491C59.8111 19.5082 59.342 19.7713 58.9414 20.1215C58.5409 20.4718 58.2177 20.9017 57.9923 21.3837C58.3019 21.7494 58.5821 22.0767 58.8445 22.3716C60.2776 24.0081 61.115 24.9665 61.5249 27.2724Z" fill="#077594"/>
<path d="M63.7522 11.8167C63.6666 11.1071 63.3032 10.4604 62.7416 10.0183C62.1801 9.5761 61.4662 9.37453 60.7563 9.45771C60.6103 9.47353 60.4662 9.50315 60.3258 9.54617C58.7807 8.34603 60.1754 12.9697 58.0818 13.2115C54.3428 13.6449 48.1445 11.4422 47.8585 15.0397C47.1243 16.1484 46.4254 17.1923 46.5699 18.4573C46.7439 19.9317 47.1596 23.1753 48.634 23.0102C49.4755 22.8566 50.2311 22.399 50.7571 21.7245C51.9568 22.6798 53.4131 23.2575 54.9414 23.3844C56.4697 23.5113 58.0013 23.1818 59.3421 22.4374C60.683 21.6931 61.7727 20.5676 62.4733 19.2034C63.1739 17.8392 63.4538 16.2977 63.2775 14.7743C63.2422 14.4769 63.191 14.1816 63.1242 13.8897C63.3665 13.6064 63.5475 13.2759 63.6556 12.9191C63.7637 12.5623 63.7966 12.1869 63.7522 11.8167Z" fill="white"/>
<path d="M55.5635 24.1361C53.8812 24.1373 52.2375 23.6329 50.8455 22.6883C50.2599 23.2434 49.5195 23.6074 48.7224 23.7322C48.0117 23.8118 47.0268 23.5051 46.4135 21.5648C46.13 20.5733 45.9395 19.5575 45.8444 18.5306C45.6734 17.0562 46.4076 15.8767 47.1507 14.7709C47.2228 14.1034 47.5452 13.4881 48.053 13.0488C49.3711 11.9372 51.6917 12.1406 54.154 12.3618C55.5015 12.4797 56.8963 12.6036 57.9873 12.4768C58.465 12.4208 58.5771 11.5922 58.6832 10.5925C58.7717 9.70791 58.8454 8.96777 59.5 8.68469C59.6534 8.62262 59.819 8.59645 59.9841 8.60821C60.1492 8.61996 60.3094 8.66932 60.4525 8.75251L60.6618 8.72007C61.5668 8.61539 62.4764 8.87384 63.1911 9.43877C63.9059 10.0037 64.3674 10.829 64.4746 11.7337C64.5693 12.5527 64.3662 13.3785 63.9025 14.0603C63.9408 14.2696 63.9733 14.4731 63.9969 14.6765C64.1251 15.7833 64.034 16.9044 63.729 17.976C63.4239 19.0475 62.9107 20.0484 62.2188 20.9217C61.5268 21.7949 60.6697 22.5232 59.6962 23.0652C58.7228 23.6071 57.6521 23.952 56.5454 24.0801C56.2194 24.1174 55.8916 24.1362 55.5635 24.1361ZM50.6508 20.6861L51.2052 21.1343C52.2901 22.0021 53.6084 22.5277 54.9928 22.6445C56.3771 22.7613 57.7649 22.4638 58.9798 21.79C60.1947 21.1162 61.1818 20.0964 61.8158 18.8603C62.4497 17.6241 62.7019 16.2274 62.5402 14.8476C62.509 14.5798 62.4628 14.314 62.4016 14.0514L62.3161 13.6887L62.5579 13.3938C62.7353 13.1897 62.868 12.9507 62.9478 12.6922C63.0275 12.4338 63.0524 12.1615 63.0208 11.8929C62.9609 11.3748 62.6977 10.9018 62.2891 10.5777C61.8804 10.2537 61.3598 10.1052 60.8417 10.165C60.7351 10.1789 60.6297 10.2006 60.5262 10.2298L60.2018 10.3212C60.2018 10.4569 60.1723 10.6161 60.1605 10.7193C60.0514 11.8693 59.8598 13.7359 58.1642 13.9335C56.9169 14.0779 55.4455 13.9335 54.036 13.8214C51.9719 13.6386 49.8635 13.4499 49.0231 14.1664C48.8926 14.2814 48.7882 14.423 48.717 14.5817C48.6458 14.7404 48.6094 14.9125 48.6103 15.0864V15.2781L48.4865 15.4639C47.8082 16.4871 47.2214 17.3717 47.3364 18.3595C47.4245 19.2926 47.5942 20.2161 47.8436 21.1196C48.0677 21.8302 48.3538 22.2991 48.5779 22.2666C49.231 22.1334 49.8142 21.7691 50.2203 21.2405L50.6508 20.6861Z" fill="#077594"/>
<path d="M59.2931 35.0077C58.9982 42.2911 59.9418 48.2387 49.6801 52.8978C42.152 56.3154 38.7698 56.0765 35.7444 56.6545C35.3817 58.7186 41.7156 62.5166 48.3149 63.1771C57.9691 64.1413 70.4069 58.6065 71.4095 50.2026C71.9019 46.0744 59.585 27.7921 59.2931 35.0077Z" fill="#077594"/>
<path d="M49.3877 68.9287C47.7158 71.8893 45.4216 77.9195 45.3066 83.5221C54.7477 82.2424 63.4086 77.5946 69.694 70.4346C75.9794 63.2746 79.4662 54.0847 79.5121 44.5573C75.1892 31.919 67.7171 21.4215 65.9479 22.0142C66.0674 22.6483 65.9926 23.3038 65.7332 23.8947C65.4738 24.4857 65.0419 24.9844 64.4941 25.3256C62.7249 26.4373 62.0496 26.2869 60.7138 25.8593C57.8742 26.9828 60.0474 37.5777 59.2218 43.8467C57.9656 53.4714 56.3526 56.603 49.3877 68.9287Z" fill="#077594"/>
<path d="M17.7776 46.9693C18.8036 46.9693 19.6353 46.1376 19.6353 45.1116C19.6353 44.0856 18.8036 43.2539 17.7776 43.2539C16.7516 43.2539 15.9199 44.0856 15.9199 45.1116C15.9199 46.1376 16.7516 46.9693 17.7776 46.9693Z" fill="white"/>
<path d="M44.9152 44.3577C45.5943 44.3577 46.1448 43.8072 46.1448 43.1281C46.1448 42.449 45.5943 41.8984 44.9152 41.8984C44.2361 41.8984 43.6855 42.449 43.6855 43.1281C43.6855 43.8072 44.2361 44.3577 44.9152 44.3577Z" fill="white"/>
<path d="M10.4966 65.7686C11.0405 65.7686 11.4815 65.3276 11.4815 64.7837C11.4815 64.2398 11.0405 63.7988 10.4966 63.7988C9.95267 63.7988 9.51172 64.2398 9.51172 64.7837C9.51172 65.3276 9.95267 65.7686 10.4966 65.7686Z" fill="white"/>
<path d="M10.1261 53.8419C10.4664 53.8419 10.7423 53.566 10.7423 53.2257C10.7423 52.8853 10.4664 52.6094 10.1261 52.6094C9.78569 52.6094 9.50977 52.8853 9.50977 53.2257C9.50977 53.566 9.78569 53.8419 10.1261 53.8419Z" fill="white"/>
<path d="M47.2884 49.8834C48.3144 49.8834 49.1461 49.0517 49.1461 48.0257C49.1461 46.9997 48.3144 46.168 47.2884 46.168C46.2624 46.168 45.4307 46.9997 45.4307 48.0257C45.4307 49.0517 46.2624 49.8834 47.2884 49.8834Z" fill="white"/>
<path d="M19.636 54.3228C20.2435 54.3228 20.7359 53.8304 20.7359 53.2229C20.7359 52.6155 20.2435 52.123 19.636 52.123C19.0286 52.123 18.5361 52.6155 18.5361 53.2229C18.5361 53.8304 19.0286 54.3228 19.636 54.3228Z" fill="white"/>
<path d="M53.5753 45.7267C53.9156 45.7267 54.1916 45.4508 54.1916 45.1104C54.1916 44.7701 53.9156 44.4941 53.5753 44.4941C53.2349 44.4941 52.959 44.7701 52.959 45.1104C52.959 45.4508 53.2349 45.7267 53.5753 45.7267Z" fill="white"/>
<path d="M36.5139 57.4077C36.1453 56.8563 34.1815 58.7052 31.274 58.0535C29.1214 57.5728 28.3252 56.1486 26.6268 56.4788C25.7893 56.6381 24.7573 57.2131 24.5332 58.0594C24.0879 59.7549 26.8921 62.6211 29.8026 62.8305C33.8689 63.1194 37.0506 58.1891 36.5139 57.4077Z" fill="white"/>
<path d="M30.154 63.5796C30.0213 63.5796 29.8856 63.5796 29.75 63.5649C27.5237 63.4086 25.5333 61.946 24.5484 60.5719C23.8702 59.6254 23.6137 58.667 23.823 57.8738C24.1179 56.6943 25.3829 55.966 26.4769 55.7537C27.7213 55.5148 28.5882 56.0072 29.4256 56.4849C30.0415 56.8708 30.7141 57.1574 31.419 57.3342C32.9907 57.6851 34.2321 57.2162 35.1403 56.8712C35.8451 56.6029 36.6442 56.2992 37.113 56.9951C37.4462 57.4934 37.3165 58.266 36.7238 59.2892C35.8716 60.8167 33.3829 63.5796 30.154 63.5796ZM27.1256 57.1661C27.0049 57.1668 26.8844 57.1786 26.7659 57.2015C26.1378 57.3224 25.377 57.7559 25.2473 58.2483C25.1559 58.5992 25.3416 59.1477 25.7456 59.7227C26.5064 60.7813 28.1046 61.9814 29.8562 62.1053C31.7109 62.2379 33.2708 61.0526 34.0316 60.336C34.6722 59.7423 35.2076 59.0444 35.6151 58.2719C34.6508 58.6375 33.0732 59.2125 31.1123 58.7732C30.264 58.5658 29.4539 58.2254 28.712 57.7647C28.0515 57.3902 27.6151 57.1661 27.1256 57.1661Z" fill="#077594"/>
<path d="M37.8801 41.1905C35.8838 40.8455 33.6191 42.2137 32.649 44.6258V44.5756C31.7142 42.1518 29.4673 40.7659 27.468 41.0607C24.8997 41.4677 23.7084 44.552 23.7998 46.5572C23.9472 49.7477 29.2225 53.2833 32.5753 55.542V55.5922C35.9575 53.3776 41.2829 49.9158 41.4716 46.7282C41.5925 44.7319 40.4425 41.6328 37.8801 41.1905Z" fill="white"/>
<path d="M33.3649 48.4829C31.3686 48.1379 32.0527 49.2761 31.0826 51.6911L29.791 46.0737C28.8533 43.6469 30.0505 48.1379 28.0513 48.4652C25.4829 48.875 24.8076 48.1998 24.3506 48.3443C26.1021 51.4051 29.2219 53.2982 32.5746 55.5569V55.607C35.9569 53.3925 38.2215 52.0007 40.4419 49.2112C41.6922 47.6336 35.9274 48.9252 33.3649 48.4829Z" fill="#B4D5DE"/>
<path d="M31.0821 52.1236H31.0644C30.9693 52.1192 30.8782 52.084 30.8048 52.0234C30.7314 51.9628 30.6797 51.88 30.6574 51.7874L29.5015 46.748L28.4311 48.6706C28.3936 48.7386 28.3385 48.7953 28.2716 48.8347C28.2047 48.8741 28.1284 48.8949 28.0507 48.8947H22.0412C21.932 48.8857 21.8302 48.836 21.756 48.7554C21.6818 48.6748 21.6406 48.5693 21.6406 48.4598C21.6406 48.3502 21.6818 48.2447 21.756 48.1641C21.8302 48.0835 21.932 48.0338 22.0412 48.0248H27.7942L29.2922 45.3356C29.3345 45.2587 29.3993 45.1965 29.4778 45.1572C29.5562 45.1179 29.6448 45.1034 29.7318 45.1155C29.8187 45.1276 29.8999 45.1659 29.9646 45.2252C30.0294 45.2845 30.0745 45.3621 30.0942 45.4476L31.1528 50.0329L31.6924 48.3285C31.7213 48.2415 31.7772 48.166 31.852 48.113C31.9268 48.0599 32.0165 48.0321 32.1082 48.0337H40.6596C40.7688 48.0427 40.8706 48.0924 40.9448 48.173C41.019 48.2535 41.0602 48.3591 41.0602 48.4686C41.0602 48.5781 41.019 48.6837 40.9448 48.7643C40.8706 48.8448 40.7688 48.8946 40.6596 48.9036H32.4208L31.4978 51.8287C31.4678 51.915 31.4116 51.9898 31.3371 52.0426C31.2626 52.0955 31.1734 52.1238 31.0821 52.1236Z" fill="#E05E48"/>
<path d="M32.575 56.0347C32.5002 56.0351 32.4266 56.016 32.3615 55.9793C32.2963 55.9426 32.2418 55.8895 32.2034 55.8254C31.3925 55.2798 30.4784 54.6636 29.5496 53.9971C29.4981 53.9658 29.4536 53.9242 29.419 53.8749C29.3844 53.8255 29.3603 53.7696 29.3484 53.7105C29.3365 53.6514 29.3369 53.5905 29.3497 53.5316C29.3625 53.4727 29.3874 53.4171 29.4227 53.3683C29.458 53.3195 29.5031 53.2785 29.555 53.248C29.607 53.2174 29.6647 53.198 29.7246 53.1908C29.7844 53.1837 29.8451 53.1891 29.9028 53.2065C29.9604 53.224 30.0139 53.2532 30.0597 53.2924C30.9443 53.9293 31.8289 54.525 32.6104 55.0616C35.7921 52.9798 40.8668 49.6035 41.032 46.7196C41.144 44.8383 40.0825 42.0223 37.7884 41.6271C35.9336 41.3057 33.8901 42.668 33.035 44.797C32.9986 44.8878 32.9327 44.9636 32.8478 45.0122C32.7629 45.0607 32.6641 45.0791 32.5675 45.0644C32.4708 45.0497 32.3819 45.0028 32.3153 44.9313C32.2487 44.8597 32.2082 44.7677 32.2005 44.6702C31.3571 42.5707 29.3608 41.2143 27.5179 41.5092C26.2234 41.7127 25.4331 42.6739 24.9967 43.4436C24.9393 43.5425 24.8453 43.6149 24.735 43.6453C24.6247 43.6756 24.5069 43.6614 24.4069 43.6057C24.3574 43.5779 24.3138 43.5404 24.2788 43.4956C24.2438 43.4508 24.218 43.3995 24.2029 43.3447C24.1878 43.2898 24.1838 43.2326 24.1909 43.1762C24.1981 43.1197 24.2164 43.0653 24.2448 43.016C24.7726 42.0812 25.7486 40.9135 27.3852 40.657C29.4198 40.3356 31.5134 41.5416 32.6546 43.6057C33.8341 41.5888 35.9306 40.4241 37.9387 40.772C40.7224 41.2556 42.0228 44.567 41.8901 46.7757C41.6895 50.1608 36.3789 53.6344 32.8639 55.9345L32.7991 55.9757C32.7309 56.015 32.6536 56.0353 32.575 56.0347Z" fill="#E05E48"/>
</svg>
