<svg width="48" height="82" viewBox="0 0 48 82" fill="none" xmlns="http://www.w3.org/2000/svg">
<path d="M30.9537 9.51796L30.106 11.4622L30.2529 12.6718L33.1807 12.8866L33.4634 11.5187L33.9042 10.0152L32.706 9.63085L31.3607 8.51172L30.9537 9.51796Z" fill="white"/>
<path d="M31.2505 14.504C30.5808 14.5333 29.9199 14.3428 29.3686 13.9616C29.1455 13.791 28.9941 13.5433 28.9439 13.267C28.8938 12.9907 28.9485 12.7056 29.0974 12.4674C29.2357 12.2152 29.3686 11.9766 29.5123 11.7407C30.3448 10.3007 31.0661 9.05606 31.161 6.08398L31.9746 6.10839C31.8742 9.28656 31.0688 10.6777 30.2146 12.1474C30.0818 12.3807 29.9435 12.6139 29.8106 12.8579C29.6777 13.102 29.7401 13.2186 29.8838 13.3352C30.4451 13.8043 31.9637 13.8396 32.8233 13.2755C32.8842 11.8753 33.1965 10.4975 33.7453 9.20792C33.824 9.00453 33.8972 8.80929 33.9677 8.61404L34.7351 8.88522C34.6619 9.08589 34.586 9.28655 34.5073 9.49536C33.9638 10.762 33.6648 12.1201 33.626 13.4979V13.685L33.4796 13.8043C32.835 14.279 32.0507 14.5251 31.2505 14.504Z" fill="#077594"/>
<path d="M7.05481 31.9518L6.87793 30.2793L7.61764 28.5262L9.14556 26.4997L10.8826 25.2129L11.1077 26.1619L9.85323 29.9253L10.2875 31.8393L9.85323 32.4987L8.08406 32.6434L7.05481 31.9518Z" fill="white"/>
<path d="M29.4407 75.2968L28.9797 74.3504C28.7546 73.8921 28.3804 73.244 27.895 72.4196C25.8937 68.9513 22.1814 62.5109 21.7312 56.1708C18.3307 51.0592 17.631 40.4183 19.071 39.2468L19.3286 39.5614L19.071 39.2468C20.2289 38.3031 22.42 38.3031 24.9311 39.2468C29.2509 40.8739 31.5613 43.8215 31.9328 46.0262C32.2284 47.778 31.4664 49.0552 30.661 50.4084C29.8041 51.8483 28.92 53.3343 29.0692 55.6719C29.1722 57.2718 29.6115 57.8087 30.1539 58.4867C30.6962 59.1646 31.3606 59.9754 31.7484 61.9469C32.5348 65.944 31.5748 68.7425 30.5579 71.7091C30.2868 72.5227 29.983 73.3877 29.7227 74.2826L29.4407 75.2968ZM19.5944 39.876C18.7347 40.6352 19.052 50.7636 22.4742 55.8047L22.5366 55.8969V56.0054C22.9406 62.1936 26.6232 68.5825 28.6028 72.0047C28.8387 72.4169 29.0502 72.783 29.2346 73.1111C29.4163 72.5362 29.6088 71.9803 29.7932 71.438C30.8183 68.455 31.6914 65.8816 30.9566 62.0987C30.6067 60.3252 30.059 59.6581 29.5275 58.9938C28.939 58.2643 28.3804 57.5782 28.2611 55.718C28.093 53.131 29.0746 51.4605 29.9668 49.9853C30.7234 48.7135 31.3796 47.6126 31.1328 46.1564C30.6745 43.4311 27.4476 41.0556 24.6463 40.0034C22.4498 39.1817 20.5136 39.1302 19.5944 39.876Z" fill="#077594"/>
<path d="M14.1384 65.4238L13.5446 64.8815C12.7609 64.171 11.988 63.4849 11.2423 62.8233C7.78753 59.7617 4.52258 56.8574 0.379037 51.3634L0.327514 51.2956L0.308532 51.2143C-0.271782 48.7737 0.107863 47.9385 0.308532 47.4829C0.325826 47.4485 0.341216 47.4132 0.354631 47.3772C0.701735 46.4606 1.26578 46.0891 3.13146 44.8552C3.99922 44.2858 5.18425 43.4994 6.7896 42.3767C11.0877 39.3667 18.3606 38.8026 19.2013 39.2745L19.4236 39.4019L19.4074 39.6568C19.2148 42.7591 19.1823 44.0797 19.8602 48.9174L19.8846 49.0883L19.7762 49.2239C19.3585 49.7662 17.5118 50.9431 15.9797 51.2306C14.8297 51.4459 13.6571 51.5152 12.4897 51.4367C11.9934 51.4204 11.4294 51.4041 10.7298 51.4041C10.6489 51.408 10.5687 51.4216 10.4911 51.4448C10.8898 51.8434 11.207 52.1471 11.5243 52.4508C12.0043 52.9118 12.5005 53.3891 13.2951 54.1999C15.3424 56.2907 14.9221 59.2844 14.4964 62.4545C14.3988 63.1595 14.2984 63.8863 14.2252 64.6239L14.1384 65.4238ZM1.08409 50.9431C5.15171 56.3395 8.37597 59.195 11.7874 62.2158C12.3487 62.7121 12.9236 63.2246 13.5093 63.748C13.569 63.2707 13.6313 62.8016 13.6964 62.3433C14.1195 59.2492 14.4882 56.5754 12.7202 54.7694C11.9338 53.9559 11.4402 53.4949 10.9657 53.0393C10.6159 52.7003 10.2661 52.3641 9.80235 51.9031C9.69644 51.8144 9.62093 51.6948 9.5864 51.5611C9.55188 51.4274 9.56006 51.2862 9.60982 51.1573C9.80235 50.6963 10.5047 50.5906 10.7352 50.5906C11.4484 50.5906 12.0178 50.6069 12.5195 50.6231C13.6267 50.6991 14.739 50.6362 15.8306 50.436C17.0031 50.1508 18.0966 49.6059 19.0304 48.8415C18.4257 44.5027 18.3904 43.0574 18.5776 39.947C17.1675 39.7978 10.9494 40.4622 7.25874 43.0492C5.64525 44.18 4.45208 44.9664 3.58432 45.5413C1.72406 46.767 1.36611 47.0192 1.11663 47.6727C1.10036 47.7161 1.07867 47.7649 1.05426 47.8219C0.902404 48.1527 0.590553 48.8469 1.08409 50.9431Z" fill="#077594"/>
<path d="M28.0897 11.2031C27.447 11.7292 27.5013 11.6587 27.2084 12.0167C26.845 12.4749 25.519 14.3081 25.397 14.8748C25.8634 15.0674 29.5541 11.0784 29.329 10.8994C29.1131 10.8497 28.8885 10.8513 28.6733 10.904C28.4581 10.9568 28.2582 11.0592 28.0897 11.2031Z" fill="#E05E48"/>
<path d="M47.0078 44.3235C46.7556 42.1541 42.0317 43.5561 39.8352 39.3095C38.0373 35.8331 39.4203 32.5302 37.1994 30.3147C35.9493 30.1086 34.1026 28.7473 33.4816 27.7439C31.2227 24.0939 31.7597 23.7956 32.2179 23.0851C32.3806 23.4078 33.0586 26.1467 34.588 27.7521C34.8592 28.0449 37.1343 29.5283 39.7403 29.0673C43.9923 28.3161 45.1204 24.0424 44.0303 18.5945C43.4419 15.6523 40.8955 13.7432 39.3281 12.0375C38.5065 15.1858 41.4189 20.1293 38.0889 21.7537C37.3513 22.1143 37.8421 15.3241 34.0809 12.2951C31.559 12.8375 30.5882 11.7799 30.2709 10.6328C29.3787 10.725 27.147 11.2077 22.1791 20.0317C18.925 21.5476 15.0797 21.2737 10.6514 24.9535C14.9523 26.4504 15.7061 27.3317 18.4504 27.226C18.4179 27.2965 18.3853 27.3616 18.3501 27.4294C17.1189 29.9811 13.995 32.4027 11.0284 33.2976C2.95822 35.7382 0.0593605 41.723 7.02583 42.7128C9.08134 42.146 14.2635 39.0899 22.6482 41.8748C31.7705 44.9038 31.3665 50.8833 38.6611 50.9971C43.9462 51.0812 47.6044 49.4433 47.0078 44.3235Z" fill="#077594"/>
<path d="M33.7797 9.98035C34.482 10.1675 35.7457 10.2271 36.6134 9.35123C37.2436 8.69286 37.6037 7.82185 37.6222 6.91066C37.5327 4.49178 35.1437 1.12922 32.8712 2.66135C32.6922 2.67491 32.4753 2.98676 32.3695 3.09523C31.6997 3.20913 31.4069 3.18743 30.9459 3.52911C30.5337 3.83283 30.1188 4.2884 30.2788 4.66262C30.409 4.97447 30.7588 4.8877 30.9567 5.20497C30.7967 5.82325 30.5283 5.96426 30.5445 6.63948C30.5689 7.57775 31.0679 8.0523 31.6292 8.77634C32.017 9.26988 33.1099 9.80138 33.7797 9.98035Z" fill="white"/>
<path d="M34.677 10.5051C34.3383 10.5052 34.0011 10.4615 33.6737 10.375C32.9795 10.1878 31.7754 9.6238 31.3199 9.04891C31.2467 8.954 31.1734 8.86451 31.1029 8.77774C30.6175 8.18386 30.162 7.62525 30.1376 6.67071C30.1238 6.30225 30.2071 5.93665 30.3789 5.61042C30.4196 5.52364 30.4575 5.43958 30.4928 5.33924L30.4304 5.30942C30.3146 5.2688 30.2082 5.20507 30.1178 5.12209C30.0274 5.03912 29.9548 4.93863 29.9043 4.82672C29.6928 4.32776 29.983 3.74203 30.7179 3.19968C31.0855 2.93146 31.522 2.77344 31.9761 2.7441L32.1741 2.71699C32.3104 2.52284 32.4982 2.37068 32.7164 2.27768C33.0894 2.02727 33.5242 1.88464 33.973 1.8655C34.4218 1.84636 34.8671 1.95146 35.26 2.16921C36.7217 2.91223 37.9718 5.03011 38.0342 6.89579C38.0174 7.91602 37.6143 8.89192 36.9061 9.62651C36.6124 9.91493 36.2637 10.1413 35.8808 10.2923C35.4979 10.4432 35.0885 10.5156 34.677 10.5051ZM33.896 9.58855C34.1509 9.65634 35.458 9.95192 36.3366 9.06789C36.886 8.49244 37.2037 7.73442 37.2288 6.93917C37.1718 5.36636 36.1034 3.51966 34.8994 2.90681C34.6228 2.75138 34.3075 2.67849 33.9908 2.69675C33.6741 2.71501 33.3692 2.82367 33.1123 3.00986L33.0228 3.06951H32.9659C32.8981 3.13015 32.8355 3.19637 32.7788 3.26747C32.7381 3.31357 32.7029 3.35696 32.673 3.38679L32.5808 3.4817L32.4507 3.50339L32.0954 3.55763C31.7737 3.5681 31.4622 3.6738 31.2006 3.86134C30.7613 4.18675 30.6419 4.45522 30.6582 4.51216C30.6931 4.53504 30.7304 4.55413 30.7694 4.56911C30.993 4.65285 31.1834 4.80703 31.3117 5.00841L31.4039 5.15485L31.3578 5.32297C31.2996 5.53639 31.2224 5.7442 31.1273 5.94396C31.0072 6.15696 30.949 6.39927 30.9592 6.64359C30.9755 7.32153 31.2792 7.69304 31.7402 8.25708L31.968 8.52826C32.2663 8.9079 33.2479 9.40144 33.8933 9.57499L33.896 9.58855Z" fill="#077594"/>
<path d="M32.871 2.67378C33.2778 2.43515 33.5272 2.33481 34.3272 2.57887C34.0289 3.35985 34.2648 3.79373 34.536 4.12185C34.8614 4.51506 34.978 4.87301 36.418 5.57535C36.4397 6.93122 36.9603 7.38679 37.2884 7.63356C37.9311 8.09998 37.7765 8.02948 38.1453 7.5278C38.6416 6.84987 38.3135 5.81127 38.8558 4.77538C39.4822 5.09808 39.7344 6.19363 40.8083 3.9022C40.8864 3.98639 40.9861 4.0474 41.0967 4.0785C41.2072 4.1096 41.3242 4.10959 41.4347 4.07846C41.6265 4.0462 41.8035 3.95495 41.9411 3.81741C42.0786 3.67986 42.1699 3.50286 42.2021 3.31104C42.4435 3.5334 42.6333 3.6012 42.8285 3.51985C43.0699 3.42222 43.1811 3.22426 43.1783 2.78767C43.21 2.85209 43.2542 2.90956 43.3083 2.95677C43.3624 3.00398 43.4253 3.03998 43.4934 3.06268C43.5615 3.08539 43.6335 3.09434 43.7051 3.08903C43.7767 3.08371 43.8465 3.06424 43.9105 3.03173C44.1193 2.94224 44.2007 2.72802 44.2251 2.40532C44.4574 2.53554 44.7269 2.58332 44.9898 2.54091C45.2338 2.54091 45.6162 2.06093 45.4996 1.76535C45.383 1.46977 44.9898 1.16876 44.7322 1.223C44.6428 1.23567 44.5569 1.26621 44.4795 1.31279C44.4022 1.35938 44.335 1.42107 44.282 1.49417C44.2941 1.43756 44.2945 1.37906 44.2831 1.3223C44.2717 1.26554 44.2487 1.21173 44.2157 1.1642C44.1827 1.11666 44.1402 1.07641 44.091 1.04595C44.0417 1.01548 43.9868 0.995443 43.9295 0.987075C43.8077 0.976399 43.6861 1.00961 43.5867 1.08072C43.4872 1.15183 43.4164 1.25615 43.3871 1.37485C43.1919 1.08741 43.1729 0.561331 42.6821 0.488114C42.4109 0.45015 41.9526 0.987075 41.8116 1.32333C41.6815 1.0847 41.6815 0 40.5642 0C40.0734 0 39.87 0.338968 39.2083 1.11453C38.6098 0.748139 37.8997 0.608621 37.2071 0.721324C36.6186 0.832506 36.4424 0.867758 36.0031 1.60264C34.9943 1.53756 34.9943 1.53756 34.1537 1.74365C33.313 1.94974 32.8113 2.52192 32.871 2.67378Z" fill="#077594"/>
<path d="M37.9124 10.5022L36.1009 10.2879C36.0248 10.2751 35.952 10.2474 35.8866 10.2064C35.8212 10.1653 35.7646 10.1118 35.72 10.0488C35.6754 9.98577 35.6437 9.91458 35.6267 9.83928C35.6097 9.76398 35.6077 9.68606 35.621 9.61001L36.3938 4.00755C36.3994 3.92883 36.4222 3.85229 36.4604 3.78328C36.4987 3.71426 36.5516 3.65442 36.6154 3.60795C36.6791 3.56147 36.7523 3.52947 36.8297 3.51418C36.9071 3.49889 36.9869 3.50068 37.0636 3.51943L38.7395 3.97229C38.8733 4.01511 38.9876 4.10401 39.0621 4.22317C39.1366 4.34233 39.1664 4.48404 39.1462 4.62311L38.5063 9.98965C38.5026 10.0629 38.4841 10.1346 38.4519 10.2005C38.4197 10.2664 38.3744 10.325 38.3189 10.3729C38.2634 10.4208 38.1988 10.457 38.1289 10.4792C38.059 10.5014 37.9854 10.5092 37.9124 10.5022Z" fill="#E05E48"/>
<path d="M8.69885 33.2566C8.62021 33.2566 8.53886 33.2566 8.46022 33.2566C8.12685 33.2484 7.7987 33.172 7.496 33.0321C7.19331 32.8922 6.9225 32.6917 6.70029 32.443C6.32336 31.9712 6.20676 31.3394 6.35319 30.5692C6.73826 28.5192 8.99172 25.7396 10.6025 24.8041L11.294 24.4297L11.1882 25.0129C11.5001 25.8427 11.633 26.2711 11.294 26.9735C10.9588 27.7251 10.6867 28.5034 10.4805 29.3001C10.1605 30.3469 10.391 30.8702 10.5781 31.2906C10.7381 31.6594 10.9604 32.161 10.4127 32.6763C9.93388 33.0769 9.32254 33.2839 8.69885 33.2566ZM10.5971 25.7749C9.20866 26.808 7.45416 29.1103 7.15316 30.7102C7.09415 30.9143 7.07984 31.1287 7.11119 31.3389C7.14254 31.549 7.21883 31.7499 7.33484 31.9278C7.48867 32.0864 7.67229 32.2131 7.87518 32.3006C8.07807 32.3881 8.29624 32.4346 8.51716 32.4376C8.99108 32.4962 9.46909 32.3667 9.84863 32.077C9.97879 31.9549 9.97879 31.9549 9.82694 31.6105C9.61271 31.1251 9.28459 30.3903 9.69677 29.0534C9.91576 28.2169 10.2051 27.4005 10.5618 26.6128C10.6335 26.4859 10.6741 26.3437 10.6802 26.1981C10.6864 26.0524 10.6579 25.9074 10.5971 25.7749Z" fill="#077594"/>
<path d="M39.098 11.9145C38.6397 11.882 36.9829 10.2224 36.7605 8.21568C36.6764 7.46724 36.4893 5.79138 37.5198 5.09988C38.1245 4.69041 39.1197 4.64973 39.4831 5.09988C39.917 5.64223 39.0194 6.32559 38.9597 8.2672C38.938 8.95598 39.0601 9.08072 38.9597 10.2251C38.8865 11.063 38.8594 11.4101 39.098 11.9145Z" fill="white"/>
<path d="M39.7996 12.5485L39.0674 12.3165C38.319 12.265 36.5862 10.3532 36.3557 8.24887C36.2689 7.4489 36.0601 5.5778 37.294 4.748C38.0397 4.24633 39.2681 4.17583 39.7996 4.82936C40.163 5.27408 39.984 5.75948 39.7996 6.272C39.5411 6.90696 39.3969 7.58266 39.3739 8.26785C39.3676 8.46415 39.3731 8.66064 39.3901 8.8563C39.4266 9.3196 39.4203 9.78529 39.3712 10.2474C39.2979 11.0772 39.2871 11.3321 39.4742 11.728L39.7996 12.5485ZM38.62 5.18459C38.3103 5.18343 38.0067 5.26992 37.7441 5.43408C36.9306 5.98998 37.0906 7.5167 37.1638 8.16751C37.3212 9.21444 37.7887 10.1902 38.5061 10.9687C38.5061 10.741 38.5305 10.4888 38.5576 10.1878C38.6024 9.768 38.6088 9.34502 38.5766 8.92409C38.558 8.70134 38.5517 8.47774 38.5576 8.25429C38.5837 7.48101 38.7453 6.7183 39.0349 6.00083C39.1813 5.6022 39.2356 5.43136 39.1705 5.35272C39.0949 5.28883 39.0072 5.24097 38.9125 5.21207C38.8179 5.18316 38.7184 5.17382 38.62 5.18459Z" fill="#077594"/>
<path d="M15.2451 76.6627C16.8939 70.6317 17.626 68.3349 17.7399 63.9961C16.3841 64.5818 14.9441 65.4876 13.8188 64.5818C13.892 66.3173 13.6072 66.9058 13.0513 68.8122C12.7042 69.9999 10.8819 71.0439 10.7843 72.3591C10.6406 74.3848 13.3415 77.0342 15.2451 76.6627Z" fill="#077594"/>
<path d="M19.7008 81.8345C25.7643 80.3078 28.7364 79.44 32.5762 77.4117C31.3966 76.5086 29.7099 75.63 29.3438 74.1738C27.8686 75.0931 27.3941 75.6138 25.4579 76.072C24.2566 76.3432 22.4478 75.2748 21.2547 75.8388C19.4242 76.7039 18.4399 80.3593 19.7008 81.8345Z" fill="#077594"/>
<path d="M35.5667 13.0825C35.5086 12.8912 35.4065 12.7163 35.2685 12.5717C35.1305 12.4271 34.9605 12.3169 34.7721 12.25C33.5979 12.4751 31.7268 13.454 30.8482 14.9156C28.79 18.3433 30.3438 21.9255 31.8136 24.1356C32.0305 24.4068 32.4346 24.5939 32.6922 24.3335C31.8489 21.5784 30.7099 20.9005 31.2224 18.2999C31.7078 15.8376 33.5166 14.4248 35.0948 13.3835C35.2902 13.5983 35.4714 13.8257 35.6372 14.0642C35.6578 13.7353 35.6341 13.4051 35.5667 13.0825Z" fill="#E05E48"/>
</svg>
