<svg width="82" height="84" viewBox="0 0 82 84" fill="none" xmlns="http://www.w3.org/2000/svg">
<path d="M41.0002 83.8675C63.3381 83.8675 81.4466 65.759 81.4466 43.4211C81.4466 21.0831 63.3381 2.97461 41.0002 2.97461C18.6622 2.97461 0.553711 21.0831 0.553711 43.4211C0.553711 65.759 18.6622 83.8675 41.0002 83.8675Z" fill="#B4D5DE"/>
<path d="M57.7288 29.6783C57.4692 25.4949 56.283 24.4505 55.0605 21.1272C55.2296 20.7681 56.3192 18.5405 58.0095 18.4922C60.5419 21.0518 62.5884 24.6467 62.691 28.3352C61.6859 29.8444 59.4131 30.3062 57.7288 29.6783Z" fill="white"/>
<path d="M59.3062 30.7055C58.6773 30.7097 58.0528 30.6013 57.462 30.3855L56.9972 30.2135L56.97 29.7275C56.7949 26.9325 56.1913 25.6195 55.4306 23.9563C55.0986 23.2289 54.7213 22.4079 54.344 21.3877L54.2354 21.0859L54.3682 20.8021C54.7002 20.0958 55.9377 17.7837 57.9902 17.7324H58.3162L58.5486 17.9679C61.567 21.0164 63.3509 24.7894 63.4475 28.3209V28.5624L63.3147 28.7616C62.4303 30.0988 60.8275 30.7055 59.3062 30.7055ZM58.443 29.1057C59.6503 29.3683 61.1414 29.0604 61.9262 28.1036C61.7662 25.1245 60.254 21.9431 57.7337 19.2929C56.8614 19.5314 56.1732 20.6361 55.8834 21.1734C56.1852 21.9944 56.5082 22.6826 56.807 23.3255C57.5556 24.9585 58.2045 26.3801 58.443 29.1057Z" fill="#077594"/>
<path d="M64.1719 18.88C64.7273 17.6727 65.1167 16.3989 64.1719 15.4541C63.7723 15.0532 63.2446 14.8053 62.6808 14.7539C62.5236 13.1842 61.9242 11.6913 60.9523 10.4486C59.9803 9.20603 58.6758 8.26468 57.1902 7.73396C55.7045 7.20324 54.0988 7.10494 52.5595 7.45048C51.0203 7.79602 49.6106 8.57121 48.4944 9.686C48.3405 9.83993 48.1926 9.98784 48.0597 10.1599C46.5898 11.3159 42.9677 14.3856 43.9638 16.0156C44.3079 16.58 45.1983 16.9211 46.1642 16.903C46.4412 18.6355 47.2589 20.2361 48.5004 21.4758C51.7452 24.7327 57.2236 25.3152 60.4774 22.0584C60.9873 21.5382 61.4048 20.935 61.7119 20.2745C62.7322 20.0844 63.7675 19.7614 64.1719 18.88Z" fill="white"/>
<path d="M47.979 21.9878C46.7733 20.7842 45.9356 19.2618 45.5642 17.5991C44.5652 17.4814 43.7532 17.0467 43.3457 16.3917C42.407 14.8524 43.8287 12.5765 47.5715 9.6245C47.7194 9.45849 47.8552 9.30757 47.991 9.17476C49.1709 7.99447 50.654 7.16322 52.2766 6.77278C53.8992 6.38234 55.5981 6.44791 57.1858 6.96224C58.7735 7.47658 60.1881 8.41967 61.2735 9.68739C62.3589 10.9551 63.0729 12.4981 63.3365 14.1461C63.863 14.2965 64.3409 14.5819 64.7231 14.974C65.1052 15.3661 65.3783 15.8512 65.5152 16.3812C65.6522 16.9113 65.6482 17.468 65.5038 17.9961C65.3594 18.5242 65.0795 19.0054 64.6918 19.392L64.6616 19.4222C64.0278 20.0561 63.1253 20.9616 62.1352 21.037C61.8358 21.6038 61.4521 22.1218 60.9973 22.5734C57.6257 25.9419 51.6674 25.6733 47.979 21.9878ZM46.7716 16.1714L46.8712 16.7751C47.1229 18.3573 47.8701 19.8189 49.0052 20.9495C52.1383 24.0796 57.1549 24.3482 59.968 21.5351C60.4264 21.0648 60.801 20.5197 61.0758 19.9233L61.3535 19.395L61.927 19.5701C62.3254 19.6908 63.3577 19.069 63.738 18.6646C64.402 18.0036 64.3145 16.603 63.6535 15.948C63.3734 15.6659 63.0022 15.4926 62.6061 15.4591L62.0024 15.4047L61.9451 14.801C61.7969 13.371 61.2466 12.0122 60.358 10.882C59.4693 9.75177 58.2787 8.89645 56.924 8.41507C55.5692 7.9337 54.1059 7.84597 52.7033 8.16205C51.3008 8.47813 50.0165 9.18508 48.9992 10.201C48.8724 10.3248 48.7426 10.4666 48.6008 10.6326L48.2838 11.0039L48.1933 10.9737C45.2141 13.3884 44.2211 15.0667 44.5712 15.6402C44.7372 15.9148 45.3439 16.1925 46.1438 16.1804L46.7716 16.1714Z" fill="#077594"/>
<path d="M49.2792 8.16339C49.3003 8.54371 51.2683 6.72362 52.8137 7.67139C54.6036 8.76707 53.6981 10.0861 54.5916 11.5712C55.485 13.0562 58.763 10.5781 58.9924 16.6753C61.3075 17.4993 61.7089 16.3161 62.382 14.6892C65.2374 14.6137 64.679 15.6188 64.9356 16.0474C65.5815 17.125 63.8912 20.3668 61.6516 21.0429C61.9776 21.9242 63.689 22.9535 64.4859 22.6668C65.4276 22.3257 67.2658 20.6082 66.2788 19.1232C67.133 18.7338 68.3313 17.614 68.9953 16.1651C69.8827 14.2092 69.2036 11.375 67.5767 9.99857C66.5474 9.12928 66.0675 8.79122 65.2012 8.7067C66.2878 6.89567 65.2525 4.50208 64.0331 3.45772C62.7292 2.34091 59.6051 1.85495 57.8665 3.62675C57.9661 2.09642 56.3936 1.33881 54.8542 0.961507C53.0069 0.508748 50.9906 2.26545 50.064 3.50601C49.6656 4.04027 49.1494 6.32217 49.2792 8.16339Z" fill="#077594"/>
<path d="M26.7898 36.0739H26.3975C26.35 36.0733 26.3041 36.057 26.267 36.0275C26.2299 35.998 26.2036 35.957 26.1922 35.9109C26.0659 35.3972 25.8624 34.9056 25.5885 34.453C25.5635 34.4122 25.5528 34.3641 25.5583 34.3165C25.5638 34.2689 25.585 34.2245 25.6187 34.1904L26.2405 33.5868C26.2789 33.5459 26.3003 33.4919 26.3003 33.4358C26.3003 33.3798 26.2789 33.3258 26.2405 33.2849L25.003 32.0323C24.9628 31.9925 24.9086 31.9701 24.852 31.9701C24.7955 31.9701 24.7413 31.9925 24.7011 32.0323L24.0974 32.6541C24.0633 32.6877 24.0189 32.709 23.9713 32.7145C23.9237 32.72 23.8757 32.7093 23.8348 32.6843C23.3829 32.4091 22.8911 32.2054 22.377 32.0806C22.3307 32.0697 22.2894 32.0435 22.2598 32.0063C22.2302 31.969 22.2141 31.9229 22.214 31.8753V31.4829C22.2144 31.4546 22.2091 31.4264 22.1985 31.4C22.1879 31.3737 22.1722 31.3497 22.1523 31.3295C22.1323 31.3092 22.1086 31.2932 22.0824 31.2822C22.0562 31.2713 22.0281 31.2656 21.9997 31.2656H20.2369C20.1793 31.2656 20.124 31.2885 20.0832 31.3293C20.0425 31.37 20.0196 31.4253 20.0196 31.4829V31.8753C20.0195 31.9229 20.0033 31.969 19.9738 32.0063C19.9442 32.0435 19.9029 32.0697 19.8566 32.0806C19.3424 32.2054 18.8506 32.4091 18.3987 32.6843C18.3579 32.7093 18.3098 32.72 18.2622 32.7145C18.2146 32.709 18.1702 32.6877 18.1361 32.6541L17.5324 32.0323C17.4923 31.9925 17.4381 31.9701 17.3815 31.9701C17.325 31.9701 17.2707 31.9925 17.2306 32.0323L15.9961 33.2668C15.9577 33.3077 15.9363 33.3617 15.9363 33.4177C15.9363 33.4738 15.9577 33.5278 15.9961 33.5687L16.6179 34.1723C16.6515 34.2064 16.6728 34.2508 16.6783 34.2984C16.6837 34.346 16.6731 34.3941 16.648 34.4349C16.3742 34.8875 16.1706 35.3791 16.0444 35.8928C16.033 35.9389 16.0067 35.9799 15.9696 36.0094C15.9324 36.0388 15.8865 36.0552 15.8391 36.0558H15.4467C15.3899 36.0558 15.3354 36.0784 15.2952 36.1186C15.255 36.1588 15.2324 36.2133 15.2324 36.2701V38.0147L15.4467 38.2291H15.8391C15.8871 38.2293 15.9336 38.2459 15.9709 38.2761C16.0082 38.3062 16.0341 38.3482 16.0444 38.3951C16.1706 38.9088 16.3742 39.4004 16.648 39.8529C16.6729 39.8933 16.6834 39.9409 16.6779 39.988C16.6724 40.035 16.6513 40.0789 16.6179 40.1125L15.9961 40.7343C15.9577 40.7752 15.9363 40.8292 15.9363 40.8852C15.9363 40.9413 15.9577 40.9953 15.9961 41.0362L17.2306 42.2677C17.2707 42.3075 17.325 42.3298 17.3815 42.3298C17.4381 42.3298 17.4923 42.3075 17.5324 42.2677L18.1361 41.664C18.1702 41.6303 18.2146 41.6091 18.2622 41.6036C18.3098 41.5981 18.3579 41.6088 18.3987 41.6338C18.8558 41.9101 19.3526 42.1147 19.8717 42.2405C19.9183 42.2509 19.9599 42.2769 19.9895 42.3143C20.0192 42.3516 20.0351 42.398 20.0347 42.4457V42.8442L20.252 43.0585H21.9846C22.0414 43.0585 22.0959 43.0359 22.1361 42.9957C22.1763 42.9555 22.1989 42.901 22.1989 42.8442V42.4518C22.1984 42.4041 22.2144 42.3577 22.244 42.3203C22.2737 42.2829 22.3153 42.2569 22.3619 42.2465C22.8756 42.1203 23.3671 41.9167 23.8197 41.6429C23.8606 41.6178 23.9087 41.6072 23.9563 41.6126C24.0039 41.6181 24.0482 41.6394 24.0823 41.673L24.686 42.2767C24.7262 42.3165 24.7804 42.3389 24.8369 42.3389C24.8935 42.3389 24.9477 42.3165 24.9879 42.2767L26.2224 41.0452C26.2608 41.0044 26.2822 40.9504 26.2822 40.8943C26.2822 40.8382 26.2608 40.7842 26.2224 40.7434L25.6066 40.1276C25.5732 40.094 25.5521 40.0501 25.5466 40.0031C25.5411 39.956 25.5516 39.9084 25.5765 39.868C25.8503 39.4154 26.0539 38.9239 26.1801 38.4102C26.1904 38.3633 26.2163 38.3213 26.2536 38.2912C26.2909 38.261 26.3374 38.2444 26.3854 38.2441H26.7778C26.806 38.2446 26.8341 38.2393 26.8603 38.2287C26.8864 38.218 26.9102 38.2023 26.9302 38.1823C26.9502 38.1623 26.966 38.1385 26.9766 38.1123C26.9872 38.0861 26.9925 38.0581 26.9921 38.0298V36.2852C26.9914 36.2309 26.9701 36.1789 26.9326 36.1397C26.8951 36.1005 26.844 36.077 26.7898 36.0739ZM21.6254 40.182C20.9844 40.2918 20.3252 40.1948 19.743 39.9051C19.1608 39.6154 18.6859 39.1479 18.387 38.5704C18.0882 37.9928 17.9808 37.3352 18.0805 36.6926C18.1802 36.05 18.4818 35.4558 18.9416 34.996C19.4014 34.5361 19.9957 34.2346 20.6382 34.1348C21.2808 34.0351 21.9385 34.1425 22.516 34.4414C23.0936 34.7403 23.561 35.2151 23.8508 35.7973C24.1405 36.3795 24.2374 37.0388 24.1276 37.6797C24.0202 38.3042 23.7219 38.8801 23.2738 39.3282C22.8257 39.7762 22.2499 40.0745 21.6254 40.182Z" fill="#E05E48"/>
<path d="M22.1959 43.306H20.0197C19.9546 43.3052 19.8924 43.2788 19.8466 43.2324C19.8008 43.1861 19.7752 43.1236 19.7752 43.0585V42.4789C19.2537 42.353 18.7542 42.1495 18.2932 41.8753L17.5386 42.6299C17.5158 42.6528 17.4888 42.671 17.459 42.6834C17.4292 42.6958 17.3973 42.7022 17.365 42.7022C17.3327 42.7022 17.3008 42.6958 17.271 42.6834C17.2412 42.671 17.2142 42.6528 17.1914 42.6299L15.646 41.0784C15.6231 41.0557 15.6049 41.0286 15.5925 40.9989C15.5801 40.9691 15.5737 40.9371 15.5737 40.9049C15.5737 40.8726 15.5801 40.8406 15.5925 40.8109C15.6049 40.7811 15.6231 40.754 15.646 40.7313L16.3976 39.9767C16.125 39.5149 15.9216 39.0155 15.7939 38.4947H15.2114C15.1457 38.4947 15.0828 38.4686 15.0364 38.4222C14.9899 38.3758 14.9639 38.3128 14.9639 38.2472V36.0739C14.9647 36.0088 14.9911 35.9466 15.0374 35.9009C15.0838 35.8551 15.1463 35.8294 15.2114 35.8294H15.7909C15.9175 35.3082 16.1209 34.8087 16.3946 34.3474L15.646 33.5928C15.6231 33.5701 15.6049 33.543 15.5925 33.5132C15.5801 33.4835 15.5737 33.4515 15.5737 33.4192C15.5737 33.387 15.5801 33.355 15.5925 33.3252C15.6049 33.2954 15.6231 33.2684 15.646 33.2457L17.1824 31.7063C17.229 31.6615 17.2912 31.6364 17.3559 31.6364C17.4206 31.6364 17.4828 31.6615 17.5295 31.7063L18.2841 32.4609C18.7484 32.1932 19.247 31.9901 19.7661 31.8572V31.2777C19.7661 31.2128 19.7919 31.1507 19.8377 31.1048C19.8836 31.059 19.9458 31.0332 20.0106 31.0332H22.1959C22.2608 31.0332 22.323 31.059 22.3688 31.1048C22.4147 31.1507 22.4404 31.2128 22.4404 31.2777V31.8602C22.9619 31.9861 23.4615 32.1896 23.9225 32.4639L24.6771 31.7093C24.7237 31.6645 24.7859 31.6395 24.8506 31.6395C24.9153 31.6395 24.9775 31.6645 25.0242 31.7093L26.5635 33.2487C26.6084 33.2954 26.6334 33.3576 26.6334 33.4223C26.6334 33.487 26.6084 33.5492 26.5635 33.5958L25.8089 34.3504C26.0826 34.8117 26.2861 35.3112 26.4126 35.8324H26.9922C27.0573 35.8324 27.1198 35.8581 27.1661 35.9039C27.2124 35.9496 27.2389 36.0118 27.2397 36.0769V38.2502C27.2397 38.3158 27.2136 38.3788 27.1672 38.4252C27.1208 38.4716 27.0578 38.4977 26.9922 38.4977H26.2285C26.1634 38.4969 26.1012 38.4705 26.0554 38.4241C26.0097 38.3778 25.984 38.3153 25.984 38.2502C25.984 38.1853 26.0098 38.1231 26.0556 38.0773C26.1015 38.0314 26.1637 38.0057 26.2285 38.0057H26.7597V36.3244H26.2285C26.1723 36.3242 26.1178 36.3045 26.0744 36.2688C26.0309 36.233 26.0012 36.1834 25.9901 36.1282C25.8676 35.5293 25.6353 34.9583 25.3049 34.444C25.2761 34.3971 25.2637 34.342 25.2698 34.2874C25.2758 34.2327 25.2998 34.1816 25.3381 34.1421L26.0565 33.4238L24.8672 32.2345L24.1488 32.9529C24.1091 32.9907 24.058 33.0144 24.0035 33.0204C23.949 33.0264 23.894 33.0144 23.847 32.9861C23.3288 32.6462 22.7513 32.4066 22.1446 32.2798C22.0895 32.2687 22.0399 32.2389 22.0041 32.1955C21.9684 32.152 21.9487 32.0976 21.9484 32.0413V31.5101H20.2672V32.0413C20.2666 32.0992 20.2458 32.1551 20.2083 32.1992C20.1708 32.2434 20.119 32.2729 20.0619 32.2828C19.4676 32.4142 18.9014 32.6503 18.3897 32.9801C18.3427 33.0083 18.2877 33.0204 18.2332 33.0144C18.1787 33.0084 18.1276 32.9847 18.0879 32.9469L17.3695 32.2285L16.1803 33.4177L16.8987 34.1361C16.9369 34.1756 16.961 34.2267 16.967 34.2813C16.973 34.336 16.9606 34.3911 16.9319 34.4379C16.5965 34.9502 16.359 35.5203 16.2316 36.1192C16.2205 36.1743 16.1907 36.224 16.1473 36.2597C16.1038 36.2954 16.0494 36.3151 15.9931 36.3154H15.4559V38.0147H15.9871C16.0434 38.015 16.0978 38.0347 16.1412 38.0704C16.1847 38.1062 16.2144 38.1558 16.2256 38.2109C16.353 38.8089 16.5905 39.378 16.9258 39.8892C16.9546 39.936 16.967 39.9911 16.9609 40.0458C16.9549 40.1004 16.9309 40.1515 16.8926 40.191L16.1742 40.9094L17.3635 42.1167L18.0819 41.3984C18.1211 41.3596 18.1722 41.3352 18.227 41.3292C18.2818 41.3232 18.337 41.3359 18.3837 41.3652C18.8955 41.7008 19.4658 41.9373 20.0649 42.0624C20.1203 42.0741 20.17 42.1045 20.2057 42.1485C20.2414 42.1924 20.261 42.2473 20.2611 42.3039V42.8351H21.9424V42.3039C21.9425 42.2473 21.9621 42.1924 21.9978 42.1485C22.0335 42.1045 22.0832 42.0741 22.1386 42.0624C22.7419 41.9288 23.3145 41.682 23.8259 41.335C23.8724 41.3051 23.9277 41.2922 23.9827 41.2982C24.0376 41.3042 24.0888 41.3289 24.1277 41.3682L25.0181 42.2737C25.0642 42.3197 25.09 42.3822 25.09 42.4473C25.09 42.5123 25.0642 42.5748 25.0181 42.6208C24.9721 42.6668 24.9097 42.6927 24.8446 42.6927C24.7795 42.6927 24.717 42.6668 24.671 42.6208L23.9164 41.8662C23.4554 42.1405 22.9558 42.344 22.4344 42.4699V43.0494C22.4356 43.0819 22.4304 43.1144 22.4191 43.1449C22.4077 43.1753 22.3905 43.2033 22.3683 43.2271C22.3462 43.251 22.3196 43.2702 22.29 43.2837C22.2604 43.2972 22.2284 43.3048 22.1959 43.306ZM21.1063 40.4687C20.672 40.4706 20.2417 40.3859 19.8406 40.2196C19.4394 40.0532 19.0755 39.8085 18.7701 39.4998C18.2953 39.022 17.9755 38.4122 17.8522 37.75C17.7289 37.0878 17.8079 36.4038 18.0788 35.7872C18.2318 35.416 18.4567 35.0787 18.7406 34.7948C19.0245 34.5109 19.3617 34.286 19.7329 34.1331C20.4234 33.8299 21.1959 33.768 21.9258 33.9575C22.6558 34.1469 23.3006 34.5767 23.7564 35.1775C23.7965 35.2295 23.8142 35.2953 23.8057 35.3604C23.7972 35.4255 23.7632 35.4845 23.7112 35.5246C23.6591 35.5646 23.5933 35.5823 23.5282 35.5738C23.4631 35.5653 23.4041 35.5313 23.3641 35.4793C22.9729 34.9662 22.4206 34.5997 21.7958 34.4388C21.1711 34.2778 20.5104 34.3317 19.9201 34.5919C19.6089 34.7204 19.3263 34.9093 19.0885 35.1476C18.8508 35.3859 18.6625 35.6689 18.5346 35.9803C18.3008 36.5055 18.2317 37.0892 18.3364 37.6544C18.441 38.2196 18.7145 38.7399 19.1208 39.1465C19.5271 39.5531 20.0471 39.827 20.6123 39.9322C21.1774 40.0373 21.7612 39.9686 22.2865 39.7352C22.3454 39.7175 22.4088 39.7223 22.4643 39.7487C22.5198 39.7751 22.5635 39.8213 22.5869 39.8782C22.6103 39.9351 22.6116 39.9986 22.5907 40.0565C22.5697 40.1143 22.528 40.1623 22.4736 40.191C22.0402 40.3713 21.5758 40.4656 21.1063 40.4687Z" fill="white"/>
<path d="M36.4723 42.7848V41.6922H35.8687C35.8371 41.4777 35.7897 41.2658 35.7268 41.0583L36.1343 40.8802L35.7026 39.8721L35.277 40.0562C35.1861 39.9058 35.0853 39.7616 34.9752 39.6246L35.437 39.1628L34.6673 38.3931L34.1934 38.867C34.0283 38.7435 33.8548 38.6315 33.6743 38.5319L33.8584 38.0731L32.8412 37.6626L32.6541 38.1275C32.4842 38.0845 32.3118 38.0523 32.1379 38.0309V37.3457H31.0453V38.0309C30.8608 38.0524 30.6781 38.0877 30.4989 38.1365L30.3088 37.6717L29.2946 38.0882L29.4817 38.547C29.3102 38.6416 29.1458 38.7485 28.9897 38.867L28.5158 38.3931L27.719 39.1628L28.1778 39.6246C28.0842 39.7423 27.9967 39.8691 27.9152 39.9959L27.4896 39.8057L27.0399 40.8048L27.4473 40.9919C27.3728 41.2202 27.3183 41.4545 27.2843 41.6922H26.6807V42.7848H27.2662C27.2898 43.0094 27.3322 43.2315 27.393 43.4489L27.0248 43.6058L27.4594 44.614L27.8095 44.4631C27.9021 44.6221 28.0028 44.7763 28.1114 44.9249L27.719 45.3143L28.4887 46.0839L28.866 45.7097C29.0433 45.8495 29.231 45.9756 29.4274 46.087L29.2976 46.416L30.3148 46.8235L30.4416 46.5065C30.6312 46.5559 30.8238 46.5932 31.0181 46.6182V47.1313H32.1108V46.6182C32.3145 46.5919 32.5162 46.5516 32.7144 46.4975L32.8472 46.8144L33.8614 46.3979L33.7286 46.0719C33.9149 45.9638 34.0935 45.8427 34.2629 45.7097L34.6402 46.0839L35.4099 45.3143L35.0235 44.9249C35.12 44.7965 35.2087 44.6624 35.2891 44.5234L35.6362 44.6804L36.089 43.6813L35.7268 43.5183C35.795 43.2782 35.8435 43.0329 35.8717 42.7848H36.4723ZM32.0172 44.1069C31.6993 44.1812 31.3677 44.1731 31.0538 44.0835C30.7398 43.994 30.4539 43.8258 30.2231 43.595C29.9922 43.3641 29.8241 43.0782 29.7345 42.7643C29.6449 42.4503 29.6369 42.1188 29.7111 41.8008C29.7899 41.452 29.9657 41.1325 30.2184 40.8793C30.471 40.6262 30.7901 40.4496 31.1388 40.3701C31.4568 40.2961 31.7884 40.3043 32.1024 40.3939C32.4164 40.4835 32.7023 40.6516 32.9333 40.8823C33.1644 41.1131 33.3328 41.3988 33.4228 41.7126C33.5129 42.0265 33.5215 42.3581 33.4479 42.6762C33.3674 43.0272 33.1888 43.3482 32.9328 43.6015C32.6768 43.8548 32.354 44.0301 32.0021 44.1069H32.0172Z" fill="white"/>
<path d="M32.1106 47.3142H31.0179C30.9939 47.3142 30.9701 47.3094 30.9479 47.3001C30.9257 47.2908 30.9056 47.2772 30.8888 47.2601C30.8719 47.243 30.8586 47.2226 30.8497 47.2003C30.8408 47.178 30.8364 47.1541 30.8368 47.1301V46.7679C30.7432 46.7528 30.6466 46.7347 30.5531 46.7135L30.4837 46.8856C30.475 46.9078 30.462 46.9281 30.4454 46.9452C30.4288 46.9623 30.409 46.9759 30.387 46.9852C30.3651 46.9945 30.3415 46.9993 30.3176 46.9993C30.2938 46.9993 30.2702 46.9945 30.2482 46.9852L29.228 46.5838C29.2057 46.5748 29.1853 46.5615 29.1682 46.5446C29.1511 46.5277 29.1375 46.5076 29.1282 46.4854C29.1189 46.4632 29.1142 46.4394 29.1142 46.4153C29.1142 46.3913 29.1191 46.3675 29.1284 46.3453C29.137 46.3231 29.15 46.3028 29.1666 46.2857C29.1832 46.2686 29.2031 46.255 29.225 46.2457C29.247 46.2364 29.2706 46.2316 29.2944 46.2316C29.3183 46.2316 29.3419 46.2364 29.3638 46.2457L30.215 46.5868L30.2724 46.4359C30.2897 46.3948 30.3212 46.3614 30.361 46.3415C30.4008 46.3215 30.4465 46.3165 30.4897 46.3272C30.6713 46.375 30.8558 46.4113 31.0421 46.4359C31.0861 46.4417 31.1265 46.4632 31.1559 46.4965C31.1853 46.5298 31.2017 46.5726 31.202 46.617V46.949H31.9264V46.617C31.9268 46.5726 31.9432 46.5298 31.9726 46.4965C32.002 46.4632 32.0424 46.4417 32.0864 46.4359C32.283 46.4107 32.4776 46.3724 32.669 46.3212C32.7114 46.3091 32.7569 46.3132 32.7965 46.3327C32.8361 46.3522 32.867 46.3858 32.8833 46.4268L32.9467 46.5747L33.6228 46.297L33.5594 46.14C33.542 46.0993 33.5404 46.0535 33.5549 46.0117C33.5694 45.9698 33.599 45.9349 33.6379 45.9137C33.8172 45.8107 33.9887 45.6947 34.151 45.5666C34.1839 45.5362 34.227 45.5194 34.2717 45.5194C34.3165 45.5194 34.3596 45.5362 34.3925 45.5666L34.64 45.8141L35.1531 45.3009L34.8935 45.0414C34.8626 45.0103 34.8438 44.9692 34.8405 44.9255C34.8372 44.8818 34.8496 44.8383 34.8754 44.8029C34.9689 44.6796 35.0546 44.5505 35.132 44.4165C35.1557 44.3787 35.1922 44.3507 35.2348 44.3374C35.2774 44.3241 35.3234 44.3265 35.3644 44.3441L35.5455 44.4286L35.8473 43.7585L35.6511 43.671C35.6105 43.6536 35.5779 43.6217 35.5595 43.5815C35.541 43.5414 35.5382 43.4958 35.5515 43.4537C35.6172 43.2235 35.6637 42.9883 35.6904 42.7504C35.6955 42.7058 35.7168 42.6647 35.7501 42.6347C35.7835 42.6046 35.8266 42.5878 35.8715 42.5874H36.276V41.863H35.8443C35.8005 41.8633 35.7582 41.8475 35.7253 41.8185C35.6925 41.7896 35.6714 41.7495 35.6662 41.706C35.6342 41.5018 35.5878 41.3001 35.5274 41.1024C35.5141 41.0594 35.5173 41.0131 35.5362 40.9724C35.5552 40.9317 35.5886 40.8995 35.63 40.882L35.8715 40.7794L35.5696 40.1063L35.3101 40.2149C35.2703 40.2325 35.2255 40.2351 35.184 40.2224C35.1424 40.2096 35.1068 40.1823 35.0837 40.1455C34.9923 40.0012 34.8915 39.863 34.7818 39.732C34.7519 39.6983 34.7354 39.6548 34.7354 39.6098C34.7354 39.5647 34.7519 39.5212 34.7818 39.4875L35.1139 39.1555L34.6007 38.6424L34.2566 38.9865C34.2259 39.0179 34.1847 39.0371 34.1408 39.0405C34.097 39.0438 34.0534 39.031 34.0182 39.0046C33.86 38.8862 33.6936 38.7792 33.5202 38.6846C33.481 38.6629 33.4511 38.6275 33.4361 38.5853C33.4211 38.5431 33.422 38.4968 33.4387 38.4552L33.5564 38.1534L32.8742 37.8817L32.7565 38.1836C32.7397 38.2243 32.7088 38.2577 32.6695 38.2777C32.6302 38.2976 32.585 38.3028 32.5422 38.2922C32.3797 38.2491 32.2142 38.2178 32.0472 38.1987C32.0032 38.1928 31.9627 38.1713 31.9333 38.138C31.9039 38.1047 31.8876 38.062 31.8872 38.0176V37.5135H31.1628V38.0176C31.1625 38.062 31.1461 38.1047 31.1167 38.138C31.0873 38.1713 31.0468 38.1928 31.0028 38.1987C30.8257 38.2202 30.6503 38.2535 30.4776 38.2983C30.4348 38.3088 30.3896 38.3037 30.3503 38.2837C30.311 38.2638 30.2801 38.2304 30.2633 38.1896L30.1426 37.8878L29.4665 38.1655L29.5842 38.4673C29.6007 38.5085 29.6015 38.5543 29.5865 38.596C29.5714 38.6377 29.5416 38.6725 29.5027 38.6937C29.3392 38.7838 29.1819 38.8846 29.0318 38.9955C28.9966 39.022 28.9531 39.0347 28.9092 39.0314C28.8653 39.0281 28.8241 39.0089 28.7934 38.9774L28.4493 38.6333L27.9361 39.1464L28.2682 39.4785C28.2981 39.5122 28.3146 39.5556 28.3146 39.6007C28.3146 39.6458 28.2981 39.6893 28.2682 39.7229C28.1759 39.836 28.0912 39.955 28.0146 40.0791C27.9909 40.1161 27.9546 40.1433 27.9124 40.1555C27.8702 40.1677 27.825 40.1642 27.7852 40.1455L27.5287 40.0308L27.2268 40.6979L27.4683 40.8096C27.5091 40.8276 27.5419 40.86 27.5602 40.9007C27.5786 40.9413 27.5814 40.9874 27.5679 41.0299C27.4968 41.2497 27.4433 41.4747 27.4079 41.703C27.4027 41.7465 27.3817 41.7865 27.3488 41.8155C27.316 41.8444 27.2736 41.8603 27.2298 41.86H26.8525V42.5844H27.257C27.3019 42.5848 27.345 42.6016 27.3784 42.6316C27.4117 42.6617 27.433 42.7028 27.4381 42.7474C27.4613 42.9625 27.5017 43.1755 27.5588 43.3843C27.5704 43.4263 27.5664 43.4712 27.5476 43.5106C27.5287 43.55 27.4963 43.5812 27.4562 43.5986L27.088 43.7585C27.0435 43.7778 26.9933 43.7785 26.9483 43.7607C26.9033 43.7429 26.8672 43.7079 26.848 43.6635C26.8288 43.619 26.828 43.5688 26.8458 43.5238C26.8637 43.4788 26.8987 43.4427 26.9431 43.4235L27.1695 43.3269C27.1393 43.2001 27.1151 43.0734 27.097 42.9496H26.6714C26.6474 42.95 26.6235 42.9456 26.6012 42.9367C26.5789 42.9278 26.5586 42.9145 26.5414 42.8976C26.5243 42.8808 26.5107 42.8607 26.5014 42.8385C26.4921 42.8163 26.4873 42.7925 26.4873 42.7685V41.6758C26.4873 41.6518 26.4921 41.628 26.5014 41.6058C26.5107 41.5837 26.5243 41.5636 26.5414 41.5467C26.5586 41.5299 26.5789 41.5166 26.6012 41.5077C26.6235 41.4987 26.6474 41.4943 26.6714 41.4947H27.1151C27.1423 41.3559 27.1755 41.2171 27.2147 41.0752L26.9521 40.9545C26.9303 40.945 26.9106 40.9312 26.8942 40.9141C26.8778 40.8969 26.865 40.8765 26.8566 40.8543C26.8481 40.8321 26.8442 40.8084 26.8451 40.7847C26.846 40.7609 26.8516 40.7376 26.8616 40.716L27.3113 39.7139C27.3317 39.6702 27.3684 39.6362 27.4136 39.6193C27.4587 39.6023 27.5087 39.6038 27.5528 39.6233L27.8365 39.7501L27.9241 39.6233L27.5769 39.2762C27.5436 39.2419 27.5249 39.1958 27.5249 39.1479C27.5249 39.1 27.5436 39.054 27.5769 39.0197L28.3497 38.247C28.3831 38.2128 28.4287 38.1933 28.4764 38.1926C28.5251 38.1932 28.5717 38.2126 28.6062 38.247L28.9684 38.6122C29.0469 38.5548 29.1284 38.5035 29.2129 38.4522L29.0861 38.1504C29.068 38.1059 29.068 38.056 29.0861 38.0115C29.1054 37.9668 29.141 37.9311 29.1857 37.9119L30.1999 37.4984C30.2218 37.4887 30.2454 37.4838 30.2693 37.4838C30.2933 37.4838 30.3169 37.4887 30.3388 37.4984C30.3833 37.5164 30.419 37.551 30.4384 37.595L30.5682 37.9149C30.6527 37.8938 30.7402 37.8787 30.8247 37.8636V37.3384C30.8243 37.3144 30.8287 37.2905 30.8376 37.2682C30.8466 37.2459 30.8598 37.2255 30.8767 37.2084C30.8936 37.1913 30.9137 37.1777 30.9358 37.1684C30.958 37.1591 30.9818 37.1543 31.0058 37.1543H32.0985C32.1225 37.1543 32.1463 37.1591 32.1685 37.1684C32.1907 37.1777 32.2108 37.1913 32.2276 37.2084C32.2445 37.2255 32.2578 37.2459 32.2667 37.2682C32.2756 37.2905 32.28 37.3144 32.2796 37.3384V37.8636L32.503 37.9089L32.6328 37.5889C32.6412 37.5666 32.6541 37.5463 32.6708 37.5292C32.6874 37.512 32.7073 37.4985 32.7293 37.4893C32.7738 37.4712 32.8237 37.4712 32.8682 37.4893L33.8884 37.8998C33.9318 37.9195 33.967 37.9536 33.988 37.9964C34.0061 38.0409 34.0061 38.0908 33.988 38.1353L33.8643 38.4371C33.9577 38.4909 34.0484 38.5493 34.1359 38.6122L34.4981 38.247C34.5325 38.2136 34.5785 38.1949 34.6264 38.1949C34.6743 38.1949 34.7203 38.2136 34.7547 38.247L35.5274 39.0197C35.5608 39.054 35.5794 39.1 35.5794 39.1479C35.5794 39.1958 35.5608 39.2419 35.5274 39.2762L35.1773 39.6233C35.2225 39.6837 35.2678 39.7471 35.3101 39.8105L35.5938 39.6897C35.6156 39.6802 35.6391 39.6751 35.6628 39.6747C35.6866 39.6742 35.7103 39.6784 35.7324 39.6871C35.7545 39.6958 35.7748 39.7088 35.7919 39.7253C35.809 39.7418 35.8227 39.7615 35.8322 39.7833L36.2669 40.7915C36.286 40.8363 36.2866 40.8869 36.2685 40.9322C36.2504 40.9774 36.2151 41.0137 36.1703 41.0329L35.9077 41.1446C35.9409 41.2623 35.9651 41.38 35.9862 41.4947H36.4721C36.4962 41.4943 36.5201 41.4987 36.5424 41.5077C36.5647 41.5166 36.585 41.5299 36.6022 41.5467C36.6193 41.5636 36.6329 41.5837 36.6422 41.6058C36.6515 41.628 36.6563 41.6518 36.6563 41.6758V42.7685C36.6563 42.7925 36.6515 42.8163 36.6422 42.8385C36.6329 42.8607 36.6193 42.8808 36.6022 42.8976C36.585 42.9145 36.5647 42.9278 36.5424 42.9367C36.5201 42.9456 36.4962 42.95 36.4721 42.9496H36.0466C36.0248 43.1011 35.9946 43.2512 35.956 43.3993L36.1794 43.499C36.2228 43.5196 36.2563 43.5565 36.2729 43.6016C36.2826 43.6235 36.2876 43.6471 36.2876 43.671C36.2876 43.6949 36.2826 43.7186 36.2729 43.7404L35.8232 44.7395C35.8134 44.7614 35.7994 44.7812 35.7819 44.7976C35.7644 44.8141 35.7439 44.8269 35.7214 44.8353C35.6989 44.8437 35.675 44.8476 35.651 44.8467C35.6271 44.8458 35.6035 44.8401 35.5817 44.8301L35.3795 44.7395L35.2799 44.8904L35.5576 45.1681C35.5909 45.2025 35.6096 45.2485 35.6096 45.2964C35.6096 45.3443 35.5909 45.3903 35.5576 45.4247L34.7849 46.1974C34.7682 46.2139 34.7484 46.2269 34.7266 46.2357C34.7048 46.2445 34.6816 46.2489 34.6581 46.2487C34.6098 46.2493 34.5632 46.2309 34.5283 46.1974L34.2657 45.9348C34.1721 46.0042 34.0755 46.0676 33.9639 46.131L34.0393 46.3121C34.0574 46.3566 34.0574 46.4064 34.0393 46.4509C34.0304 46.4734 34.0169 46.4939 33.9998 46.511C33.9827 46.5281 33.9622 46.5416 33.9397 46.5506L32.9255 46.9671C32.88 46.9851 32.8292 46.9851 32.7837 46.9671C32.7397 46.9478 32.7051 46.912 32.6871 46.8675L32.6177 46.6954C32.5182 46.7218 32.4175 46.743 32.3158 46.7588V47.115C32.3189 47.1424 32.3156 47.1702 32.3062 47.1961C32.2969 47.2221 32.2817 47.2456 32.2619 47.2648C32.2421 47.284 32.2182 47.2985 32.192 47.307C32.1657 47.3156 32.1379 47.318 32.1106 47.3142ZM31.5642 44.3532C31.5198 44.3474 31.4791 44.3257 31.4495 44.2921C31.4199 44.2585 31.4036 44.2153 31.4036 44.1705C31.4036 44.1258 31.4199 44.0826 31.4495 44.049C31.4791 44.0153 31.5198 43.9937 31.5642 43.9879C31.9071 43.9885 32.2425 43.8875 32.528 43.6977C32.8136 43.5079 33.0365 43.2378 33.1687 42.9214C33.3008 42.605 33.3363 42.2566 33.2707 41.92C33.205 41.5835 33.0412 41.274 32.7998 41.0305C32.5584 40.787 32.2503 40.6204 31.9143 40.5518C31.5784 40.4833 31.2296 40.5158 30.9121 40.6452C30.5946 40.7746 30.3225 40.9952 30.1302 41.2791C29.938 41.5629 29.8341 41.8974 29.8317 42.2403C29.826 42.2847 29.8043 42.3255 29.7707 42.355C29.7371 42.3846 29.6938 42.4009 29.6491 42.4009C29.6043 42.4009 29.5611 42.3846 29.5275 42.355C29.4939 42.3255 29.4722 42.2847 29.4665 42.2403C29.4665 41.8224 29.5904 41.4139 29.8225 41.0664C30.0547 40.719 30.3847 40.4482 30.7708 40.2882C31.1568 40.1283 31.5817 40.0865 31.9915 40.168C32.4014 40.2495 32.7779 40.4508 33.0734 40.7463C33.3689 41.0417 33.5701 41.4182 33.6516 41.8281C33.7331 42.2379 33.6913 42.6628 33.5314 43.0489C33.3715 43.4349 33.1006 43.7649 32.7532 43.9971C32.4057 44.2292 31.9972 44.3532 31.5793 44.3532H31.5642Z" fill="#E05E48"/>
<path d="M28.0721 34.4889L30.3933 36.2034L31.8029 34.2806C32.3079 34.4835 32.8396 34.6127 33.3815 34.664L33.6682 36.5203L36.5116 36.0796L36.2248 34.2233C36.7261 34.0102 37.1938 33.7255 37.6133 33.3781L39.536 34.7877L41.2384 32.4636L39.3126 31.057C39.5144 30.5514 39.6445 30.02 39.699 29.4784L41.51 29.1947L41.0693 26.3513L39.2583 26.632C39.0423 26.1323 38.7578 25.665 38.4131 25.2436L39.6205 23.5955C39.6471 23.5595 39.6663 23.5185 39.677 23.475C39.6877 23.4315 39.6898 23.3864 39.6831 23.3421C39.6763 23.2978 39.6609 23.2553 39.6378 23.2169C39.6146 23.1786 39.5841 23.1452 39.5481 23.1186L37.7763 21.8237C37.7026 21.7703 37.6107 21.7482 37.5207 21.7623C37.4308 21.7764 37.3501 21.8257 37.2963 21.8992L36.089 23.5442C35.5836 23.3422 35.0521 23.2131 34.5104 23.1609L34.2749 21.6517C34.2601 21.562 34.2107 21.4818 34.1373 21.4282C34.0639 21.3746 33.9725 21.3519 33.8825 21.3649L31.3773 21.7543L31.6791 23.6106C31.1785 23.825 30.711 24.1096 30.2907 24.4558L28.3528 23.022L26.6535 25.3371L28.5792 26.7437C28.3762 27.2489 28.2461 27.7805 28.1929 28.3223L26.3818 28.6061L26.8135 31.4584L28.6245 31.1777C28.8394 31.6781 29.1239 32.1455 29.4697 32.5662L28.0721 34.4889ZM31.4105 27.7187C31.6637 27.1751 32.085 26.7274 32.6121 26.4417C33.1393 26.156 33.7443 26.0473 34.338 26.1318C34.9316 26.2163 35.4823 26.4895 35.9088 26.911C36.3353 27.3325 36.6149 27.8799 36.7064 28.4725C36.7979 29.0651 36.6963 29.6714 36.4168 30.2019C36.1373 30.7324 35.6946 31.1589 35.1541 31.4185C34.6136 31.6781 34.0039 31.757 33.4152 31.6435C32.8264 31.53 32.2897 31.2302 31.8844 30.7884C31.511 30.3807 31.2667 29.8716 31.1824 29.3253C31.098 28.779 31.1774 28.2199 31.4105 27.7187Z" fill="white"/>
<path d="M31.3409 21.4312C31.3801 21.4252 31.4202 21.427 31.4587 21.4365C31.4973 21.446 31.5336 21.463 31.5655 21.4866C31.5975 21.5101 31.6245 21.5398 31.645 21.5738C31.6655 21.6078 31.6791 21.6455 31.685 21.6847L31.9868 23.538C31.9975 23.6048 31.9855 23.6732 31.9526 23.7323C31.9198 23.7915 31.868 23.8378 31.8057 23.864C31.3313 24.0668 30.8882 24.3361 30.4897 24.6639C30.4369 24.7045 30.3722 24.7266 30.3056 24.7266C30.239 24.7266 30.1742 24.7045 30.1214 24.6639L28.4402 23.4324L27.097 25.2676L28.7783 26.4961C28.8325 26.5356 28.8721 26.592 28.8907 26.6565C28.9093 26.721 28.9058 26.7899 28.8809 26.8522C28.6868 27.335 28.5638 27.8433 28.5157 28.3614C28.5091 28.428 28.4807 28.4904 28.4348 28.5391C28.3889 28.5877 28.3282 28.6197 28.2621 28.6301L26.7529 28.8685L27.1 31.1142L28.6092 30.8788C28.676 30.8711 28.7435 30.8859 28.8009 30.9209C28.8583 30.9559 28.9024 31.009 28.9262 31.0719C29.1295 31.5461 29.3988 31.9891 29.726 32.388C29.7674 32.441 29.7899 32.5063 29.7899 32.5736C29.7899 32.6409 29.7674 32.7062 29.726 32.7592L28.4975 34.4375L30.3327 35.7806L31.5612 34.1024C31.6007 34.0481 31.6572 34.0086 31.7217 33.99C31.7862 33.9714 31.8551 33.9748 31.9174 33.9998C32.4009 34.1914 32.9089 34.3143 33.4266 34.365C33.4931 34.3716 33.5556 34.4 33.6042 34.4459C33.6528 34.4918 33.6848 34.5525 33.6952 34.6186L33.9367 36.176L36.1703 35.8108L35.9288 34.2563C35.9181 34.1896 35.9302 34.1212 35.963 34.062C35.9959 34.0029 36.0476 33.9566 36.1099 33.9304C36.5839 33.7267 37.0269 33.4575 37.426 33.1305C37.4787 33.0899 37.5435 33.0678 37.6101 33.0678C37.6767 33.0678 37.7414 33.0899 37.7942 33.1305L39.4754 34.359L40.8156 32.5238L39.1374 31.2953C39.0831 31.2558 39.0435 31.1993 39.025 31.1348C39.0064 31.0703 39.0098 31.0015 39.0348 30.9391C39.2278 30.456 39.3508 29.9478 39.4 29.4299C39.4026 29.3621 39.4297 29.2974 39.4763 29.248C39.523 29.1986 39.5859 29.1678 39.6535 29.1613L41.1627 28.9259L40.8156 26.6772L39.3064 26.9126C39.2405 26.9228 39.173 26.9108 39.1146 26.8786C39.0561 26.8464 39.01 26.7957 38.9834 26.7345C38.779 26.2603 38.5087 25.8172 38.1805 25.4185C38.1355 25.3563 38.1158 25.2793 38.1255 25.2031C38.1352 25.1269 38.1736 25.0573 38.2329 25.0085C38.2921 24.9596 38.3678 24.9352 38.4444 24.9401C38.5211 24.9451 38.5929 24.9791 38.6454 25.0352C38.9595 25.417 39.2261 25.8356 39.4392 26.2818L41.0299 26.0342C41.0692 26.0282 41.1092 26.0301 41.1478 26.0396C41.1863 26.0491 41.2226 26.0661 41.2546 26.0896C41.2865 26.1132 41.3135 26.1428 41.334 26.1768C41.3545 26.2108 41.3681 26.2485 41.374 26.2878L41.8147 29.1311C41.8269 29.2099 41.8073 29.2904 41.7604 29.3548C41.7135 29.4193 41.6429 29.4626 41.5642 29.4752L39.9705 29.7227C39.9122 30.1346 39.811 30.5392 39.6686 30.9301L41.4072 32.2008C41.439 32.2247 41.4657 32.2545 41.4859 32.2887C41.5061 32.3229 41.5194 32.3607 41.5249 32.4C41.532 32.439 41.5308 32.479 41.5214 32.5175C41.512 32.5559 41.4947 32.592 41.4706 32.6234L39.7712 34.9476C39.7244 35.0122 39.6538 35.0556 39.575 35.0683C39.4955 35.0773 39.4154 35.0581 39.3487 35.014L37.6101 33.7402C37.2808 33.9925 36.9257 34.209 36.5506 34.3861L36.8011 36.0161C36.8132 36.0948 36.7937 36.1751 36.7468 36.2394C36.6999 36.304 36.6294 36.3474 36.5506 36.3602L33.7133 36.8069C33.6741 36.8129 33.634 36.8111 33.5955 36.8016C33.5569 36.7921 33.5206 36.7751 33.4887 36.7515C33.4567 36.728 33.4297 36.6983 33.4092 36.6643C33.3887 36.6303 33.3751 36.5926 33.3692 36.5533L33.1157 34.9264C32.7038 34.8681 32.2992 34.7669 31.9083 34.6246L30.6376 36.3632C30.5907 36.4278 30.5202 36.4712 30.4414 36.4839C30.402 36.4931 30.3611 36.493 30.3218 36.4836C30.2825 36.4741 30.2459 36.4556 30.215 36.4296L27.8939 34.7302C27.8617 34.7069 27.8344 34.6774 27.8137 34.6436C27.7929 34.6097 27.7791 34.572 27.7729 34.5327C27.7667 34.4935 27.7684 34.4534 27.7777 34.4148C27.7871 34.3761 27.804 34.3397 27.8275 34.3077L29.0982 32.5811C28.8469 32.2502 28.6304 31.8941 28.4523 31.5187L26.8616 31.7662C26.8221 31.7726 26.7818 31.771 26.7429 31.7617C26.7041 31.7524 26.6675 31.7354 26.6352 31.7118C26.6029 31.6883 26.5756 31.6586 26.5548 31.6244C26.5341 31.5902 26.5204 31.5522 26.5145 31.5126L26.0738 28.6572C26.0678 28.618 26.0696 28.5779 26.0791 28.5394C26.0886 28.5008 26.1056 28.4645 26.1292 28.4326C26.1527 28.4006 26.1823 28.3736 26.2163 28.3531C26.2503 28.3326 26.2881 28.319 26.3273 28.3131L27.918 28.0656C27.9778 27.6541 28.0789 27.2496 28.2199 26.8583L26.4813 25.5875C26.4491 25.5642 26.4218 25.5347 26.4011 25.5008C26.3803 25.467 26.3665 25.4293 26.3603 25.39C26.3541 25.3508 26.3558 25.3107 26.3651 25.272C26.3745 25.2334 26.3914 25.197 26.4149 25.165L28.1142 22.8408C28.1623 22.7776 28.2323 22.7345 28.3104 22.7201C28.3903 22.7111 28.4708 22.7315 28.5368 22.7774L30.2754 24.0481C30.6079 23.7984 30.9649 23.583 31.3409 23.4052L31.0873 21.7753C31.0813 21.736 31.0831 21.696 31.0926 21.6575C31.1021 21.6189 31.1192 21.5826 31.1427 21.5506C31.1663 21.5187 31.1959 21.4917 31.2299 21.4712C31.2639 21.4507 31.3016 21.4371 31.3409 21.4312ZM33.4537 25.8381C34.1618 25.7284 34.8859 25.8677 35.5028 26.2322C36.1196 26.5966 36.5911 27.1636 36.8367 27.8367C37.0824 28.5097 37.087 29.2471 36.85 29.9232C36.6129 30.5993 36.1487 31.1723 35.5365 31.5446C34.9243 31.9168 34.202 32.0653 33.4926 31.9646C32.7833 31.864 32.1307 31.5206 31.6462 30.9928C31.1617 30.465 30.8751 29.7855 30.8354 29.0701C30.7957 28.3547 31.0053 27.6477 31.4284 27.0696C31.6697 26.7384 31.9748 26.4589 32.3257 26.2474C32.6767 26.0359 33.0663 25.8967 33.4719 25.8381H33.4537ZM34.3351 31.3557C34.6566 31.306 34.965 31.1932 35.2426 31.0238C35.5203 30.8544 35.7617 30.6317 35.953 30.3687C36.2416 29.9709 36.4061 29.4967 36.4258 29.0057C36.4455 28.5146 36.3194 28.0288 36.0635 27.6093C35.8076 27.1897 35.4332 26.8553 34.9877 26.6481C34.5421 26.4409 34.0451 26.3701 33.5594 26.4447C32.9125 26.545 32.3317 26.8978 31.9446 27.4257C31.6521 27.8246 31.4853 28.3015 31.4652 28.7956C31.4452 29.2898 31.573 29.7787 31.8322 30.1998C32.0913 30.621 32.4702 30.9554 32.9203 31.1602C33.3705 31.365 33.8715 31.4309 34.3593 31.3496L34.3351 31.3557Z" fill="#E05E48"/>
<path d="M58.0484 35.6017C55.4496 35.152 54.3298 47.5968 45.673 50.41C40.5055 52.0852 35.8391 49.3082 34.994 50.9804C34.2031 52.547 37.5717 56.4739 41.5439 58.2246C46.2858 60.3375 52.9655 59.8575 57.2063 55.8099C64.2844 49.0487 60.6201 36.0485 58.0484 35.6017Z" fill="#077594"/>
<path d="M36.2247 51.2472C35.8474 50.6858 33.8372 52.5753 30.858 51.9082C28.6576 51.4162 27.8578 49.9584 26.1041 50.2964C25.2438 50.4624 24.1904 51.051 23.961 51.9173C23.5052 53.6529 26.3757 56.5867 29.3549 56.798C33.5172 57.0969 36.7741 52.0471 36.2247 51.2472Z" fill="white"/>
<path d="M29.7144 57.5697C29.5755 57.5697 29.4397 57.5697 29.3008 57.5546C27.022 57.3917 24.9845 55.8976 23.9764 54.488C23.2822 53.5191 23.0196 52.5381 23.2339 51.7261C23.5357 50.5188 24.8306 49.7732 25.9504 49.5559C27.2212 49.3114 28.1116 49.8155 28.9688 50.3045C29.5992 50.6994 30.2877 50.9928 31.0093 51.1738C32.6181 51.536 33.8888 51.053 34.8155 50.6999C35.5399 50.4252 36.3578 50.1143 36.8378 50.8297C37.1789 51.3398 37.046 52.1276 36.4393 53.175C35.567 54.7355 33.0195 57.5697 29.7144 57.5697ZM26.6145 50.9957C26.4909 50.9964 26.3676 51.0085 26.2462 51.0319C25.6033 51.1557 24.8246 51.6024 24.6918 52.1034C24.5982 52.4626 24.7884 53.024 25.2019 53.6126C25.9806 54.6992 27.6166 55.9247 29.4095 56.0515C31.3171 56.1873 32.9048 54.9769 33.6836 54.2405C34.3381 53.6324 34.8852 52.9181 35.3014 52.1276C34.3174 52.5019 32.7026 53.0874 30.6953 52.6377C29.8276 52.425 28.9986 52.0777 28.2384 51.6084C27.5623 51.2341 27.1155 50.9957 26.6145 50.9957Z" fill="#077594"/>
<path d="M45.431 45.4537L44.2478 45.3964C44.224 45.3952 44.2007 45.3894 44.1791 45.3792C44.1576 45.369 44.1383 45.3547 44.1223 45.337C44.1063 45.3193 44.094 45.2987 44.086 45.2763C44.078 45.2538 44.0745 45.23 44.0757 45.2062L44.1753 43.1537C44.177 43.1301 44.1739 43.1064 44.1662 43.0839C44.1586 43.0615 44.1465 43.0408 44.1308 43.0231C44.115 43.0054 44.0959 42.991 44.0746 42.9808C44.0532 42.9706 44.03 42.9647 44.0063 42.9636L41.9478 42.8609C41.9242 42.8602 41.9011 42.8547 41.8797 42.8448C41.8584 42.8349 41.8392 42.8208 41.8235 42.8033C41.8077 42.7858 41.7956 42.7654 41.7879 42.7431C41.7802 42.7209 41.7771 42.6973 41.7787 42.6738L41.8361 41.4846C41.8392 41.4368 41.8608 41.3921 41.8963 41.36C41.9318 41.3279 41.9784 41.3108 42.0262 41.3125L44.0818 41.4151C44.1054 41.4164 44.1291 41.4128 44.1513 41.4048C44.1736 41.3968 44.194 41.3844 44.2115 41.3684C44.2289 41.3524 44.2429 41.333 44.2528 41.3115C44.2627 41.29 44.2681 41.2667 44.2689 41.2431L44.3715 39.2027C44.3723 39.1791 44.3778 39.156 44.3877 39.1346C44.3976 39.1133 44.4117 39.0941 44.4292 39.0784C44.4466 39.0626 44.4671 39.0505 44.4894 39.0428C44.5116 39.0351 44.5352 39.032 44.5587 39.0336L45.7449 39.091C45.7687 39.0921 45.792 39.098 45.8136 39.1082C45.8351 39.1184 45.8544 39.1327 45.8704 39.1504C45.8864 39.168 45.8987 39.1887 45.9067 39.2111C45.9147 39.2335 45.9182 39.2573 45.917 39.2811L45.8174 41.3185C45.8161 41.3423 45.8196 41.3661 45.8276 41.3886C45.8356 41.411 45.8479 41.4317 45.8639 41.4493C45.8799 41.467 45.8992 41.4813 45.9207 41.4915C45.9423 41.5017 45.9656 41.5075 45.9894 41.5087L48.0268 41.6083C48.0505 41.6095 48.0737 41.6153 48.0951 41.6256C48.1164 41.6358 48.1355 41.6502 48.1513 41.6679C48.167 41.6856 48.1791 41.7063 48.1867 41.7287C48.1944 41.7511 48.1975 41.7748 48.1958 41.7985L48.1385 42.9847C48.1373 43.0085 48.1315 43.0318 48.1213 43.0534C48.1111 43.0749 48.0968 43.0942 48.0791 43.1102C48.0614 43.1262 48.0408 43.1385 48.0184 43.1465C47.9959 43.1545 47.9721 43.158 47.9483 43.1567L45.9109 43.0571C45.8873 43.0559 45.8636 43.0594 45.8414 43.0675C45.8191 43.0755 45.7987 43.0879 45.7812 43.1039C45.7638 43.1199 45.7498 43.1392 45.7399 43.1608C45.73 43.1823 45.7246 43.2055 45.7238 43.2292L45.6212 45.2817C45.62 45.3055 45.6142 45.3288 45.604 45.3504C45.5938 45.3719 45.5794 45.3912 45.5618 45.4072C45.5441 45.4232 45.5235 45.4355 45.501 45.4435C45.4786 45.4515 45.4548 45.455 45.431 45.4537Z" fill="white"/>
<path d="M19.6148 25.2769L18.8753 25.2407C18.8606 25.2399 18.8462 25.2362 18.8329 25.2299C18.8197 25.2236 18.8078 25.2147 18.798 25.2037C18.7882 25.1928 18.7806 25.18 18.7758 25.1662C18.7709 25.1523 18.7688 25.1376 18.7696 25.1229L18.833 23.8431C18.8338 23.8132 18.8229 23.7842 18.8026 23.7622C18.7823 23.7402 18.7542 23.727 18.7243 23.7254L17.4566 23.6651C17.4417 23.6643 17.427 23.6605 17.4136 23.654C17.4001 23.6475 17.3881 23.6383 17.3782 23.6271C17.3684 23.6158 17.3609 23.6027 17.3562 23.5885C17.3515 23.5742 17.3497 23.5592 17.351 23.5443L17.3872 22.8048C17.388 22.7901 17.3916 22.7758 17.398 22.7625C17.4043 22.7493 17.4132 22.7374 17.4241 22.7276C17.4351 22.7177 17.4478 22.7102 17.4617 22.7053C17.4755 22.7004 17.4902 22.6984 17.5049 22.6992L18.7847 22.7626C18.7996 22.7634 18.8145 22.7612 18.8286 22.7561C18.8427 22.7511 18.8555 22.7432 18.8665 22.7331C18.8775 22.723 18.8863 22.7107 18.8925 22.6971C18.8987 22.6835 18.902 22.6688 18.9024 22.6539L18.9658 21.3862C18.9662 21.3712 18.9696 21.3565 18.9757 21.3429C18.9819 21.3293 18.9907 21.3171 19.0017 21.307C19.0127 21.2968 19.0256 21.289 19.0396 21.2839C19.0537 21.2789 19.0686 21.2767 19.0835 21.2775L19.823 21.3137C19.8524 21.316 19.8797 21.3296 19.8994 21.3515C19.9191 21.3734 19.9295 21.402 19.9287 21.4314L19.8653 22.7022C19.8645 22.7171 19.8667 22.732 19.8717 22.7461C19.8768 22.7601 19.8846 22.773 19.8947 22.784C19.9049 22.795 19.9171 22.8038 19.9307 22.81C19.9443 22.8162 19.959 22.8195 19.9739 22.8199L21.2417 22.8833C21.2565 22.8837 21.2711 22.887 21.2845 22.8932C21.298 22.8994 21.31 22.9083 21.3199 22.9193C21.3298 22.9304 21.3373 22.9433 21.342 22.9573C21.3468 22.9714 21.3486 22.9862 21.3473 23.001L21.3111 23.7405C21.3107 23.7553 21.3074 23.7699 21.3012 23.7834C21.295 23.7968 21.2861 23.8089 21.275 23.8187C21.264 23.8286 21.2511 23.8362 21.237 23.8409C21.223 23.8456 21.2081 23.8474 21.1934 23.8462L19.9257 23.7858C19.911 23.785 19.8963 23.7871 19.8824 23.7919C19.8686 23.7968 19.8558 23.8044 19.8449 23.8142C19.8339 23.824 19.825 23.8359 19.8187 23.8491C19.8124 23.8624 19.8087 23.8768 19.8079 23.8914L19.7446 25.1712C19.7439 25.187 19.7399 25.2025 19.7328 25.2167C19.7257 25.2308 19.7157 25.2433 19.7035 25.2533C19.6912 25.2633 19.6769 25.2706 19.6616 25.2746C19.6464 25.2787 19.6304 25.2795 19.6148 25.2769Z" fill="white"/>
<path d="M28.0605 15.5566L27.5987 15.5355C27.5806 15.534 27.5636 15.5257 27.5513 15.5123C27.539 15.4989 27.5322 15.4813 27.5323 15.4631L27.5715 14.6662C27.5724 14.6475 27.5659 14.6292 27.5536 14.6151C27.5412 14.601 27.5238 14.5923 27.5051 14.5908L26.7083 14.5515C26.699 14.5516 26.6899 14.5497 26.6814 14.546C26.6729 14.5423 26.6653 14.5368 26.6591 14.53C26.6528 14.5232 26.648 14.5151 26.6451 14.5064C26.6421 14.4976 26.641 14.4883 26.6419 14.4791L26.663 14.0173C26.6645 13.9986 26.6733 13.9812 26.6873 13.9688C26.7014 13.9565 26.7197 13.95 26.7385 13.9509L27.5353 13.9901C27.5445 13.9909 27.5538 13.9899 27.5626 13.9869C27.5714 13.9839 27.5794 13.9792 27.5862 13.9729C27.5931 13.9667 27.5985 13.9591 27.6022 13.9506C27.6059 13.9421 27.6078 13.933 27.6078 13.9237L27.647 13.1329C27.6474 13.1238 27.6496 13.1148 27.6534 13.1065C27.6573 13.0983 27.6627 13.0908 27.6694 13.0847C27.6762 13.0785 27.6841 13.0737 27.6926 13.0706C27.7012 13.0675 27.7103 13.0661 27.7194 13.0665L28.1813 13.0876C28.1999 13.0891 28.2173 13.0979 28.2297 13.1119C28.2421 13.126 28.2485 13.1443 28.2477 13.1631L28.2084 13.9539C28.2076 13.9631 28.2087 13.9724 28.2116 13.9812C28.2146 13.9899 28.2193 13.998 28.2256 14.0048C28.2319 14.0116 28.2395 14.017 28.2479 14.0208C28.2564 14.0245 28.2656 14.0264 28.2748 14.0263L29.0656 14.0656C29.0748 14.066 29.0837 14.0681 29.092 14.072C29.1003 14.0758 29.1077 14.0813 29.1139 14.088C29.12 14.0947 29.1248 14.1026 29.1279 14.1112C29.1311 14.1198 29.1325 14.1289 29.1321 14.138L29.1109 14.5998C29.1094 14.6185 29.1007 14.6359 29.0866 14.6482C29.0725 14.6606 29.0542 14.6671 29.0355 14.6662L28.2446 14.627C28.2266 14.6276 28.2094 14.6346 28.1961 14.6468C28.1828 14.659 28.1744 14.6755 28.1722 14.6934L28.133 15.4902C28.1326 15.4994 28.1304 15.5083 28.1265 15.5166C28.1227 15.5249 28.1172 15.5323 28.1105 15.5385C28.1038 15.5446 28.0959 15.5494 28.0873 15.5525C28.0787 15.5557 28.0696 15.5571 28.0605 15.5566Z" fill="white"/>
<path d="M41.0003 83.8686C49.9224 83.8674 58.5939 80.9174 65.6658 75.4777C72.7377 70.0379 77.8135 62.4134 80.1036 53.7903C79.7052 47.506 76.3638 41.9401 72.7146 35.9033C68.682 29.2115 63.9884 24.9737 62.3192 25.7947C61.8022 26.5699 61.0435 27.1525 60.1611 27.4518C58.8058 28.0072 57.9124 27.4035 57.0521 27.479C56.865 30.8264 55.3316 42.3144 50.9278 54.5328C47.0582 65.2783 34.9696 76.7844 32.5156 82.9661C35.3044 83.5634 38.1483 83.8659 41.0003 83.8686Z" fill="#077594"/>
</svg>
