<svg width="81" height="92" viewBox="0 0 81 92" fill="none" xmlns="http://www.w3.org/2000/svg">
<path d="M39.6372 91.4112C61.4598 91.4112 79.1505 73.7205 79.1505 51.898C79.1505 30.0754 61.4598 12.3848 39.6372 12.3848C17.8147 12.3848 0.124023 30.0754 0.124023 51.898C0.124023 73.7205 17.8147 91.4112 39.6372 91.4112Z" fill="#B4D5DE"/>
<path d="M64.0792 24.3863C63.9824 24.38 63.8854 24.3929 63.7936 24.4244C63.7019 24.4559 63.6173 24.5053 63.5449 24.5698C63.4725 24.6343 63.4136 24.7126 63.3716 24.8C63.3297 24.8875 63.3056 24.9824 63.3008 25.0793C63.1622 27.453 62.6166 28.9127 61.7232 29.3373C61.0921 29.6322 60.4405 29.3167 59.4261 28.777C58.4766 28.2728 57.4003 27.7007 56.1501 27.8924C52.8298 28.432 51.3878 34.014 50.2319 38.5079C49.7984 40.1828 49.2234 42.415 48.7575 43.0608C48.4007 42.471 48.0056 40.6133 47.7107 39.2274C46.8998 35.394 45.9798 31.0682 43.2876 30.4254C41.0171 29.874 39.1299 32.233 36.2725 35.7715C35.5 36.7298 34.6212 37.8149 33.66 38.9384C28.8889 44.5086 20.0073 54.8617 14.2542 54.2218C10.9811 53.8502 7.91739 49.5657 5.40801 41.837C4.718 39.711 4.14005 37.5496 3.6712 35.5621C3.32914 36.3111 3.01362 37.0748 2.71875 37.8474C3.09324 39.3011 3.52376 40.7961 4.00735 42.2941C6.74674 50.7157 10.1496 55.2332 14.0891 55.6726C14.3142 55.6986 14.5407 55.7114 14.7673 55.7109C21.2251 55.7109 29.6644 45.8562 34.7775 39.885C35.7565 38.7438 36.6382 37.6498 37.4314 36.6826C39.8464 33.6926 41.5921 31.5312 42.9574 31.8526C44.7561 32.2772 45.6437 36.4674 46.2924 39.5193C46.9411 42.5713 47.3805 44.6383 48.7605 44.6472C50.1729 44.6472 50.7332 42.4681 51.665 38.8676C52.6587 35.0136 54.024 29.7265 56.383 29.352C57.1408 29.2282 57.9105 29.6469 58.7273 30.0715C59.7977 30.6406 61.0096 31.2864 62.3365 30.6613C63.7932 29.986 64.5894 28.1843 64.7663 25.1501C64.7736 24.9584 64.706 24.7714 64.5777 24.6288C64.4494 24.4862 64.2706 24.3993 64.0792 24.3863Z" fill="white"/>
<path d="M27.7148 32.4666C29.0919 29.2938 30.0503 27.9138 30.41 24.2101C30.6105 24.1187 33.4973 24.3045 35.3197 25.2894C35.2607 29.7803 34.5412 30.3789 35.3197 34.3922C33.2496 35.7722 29.4104 35.2031 27.7148 32.4666Z" fill="white"/>
<path d="M32.6692 35.852C32.1896 35.8511 31.7113 35.8007 31.242 35.7016C30.3929 35.5335 29.5867 35.1945 28.8725 34.7054C28.1583 34.2162 27.5509 33.5871 27.0873 32.8561L26.8838 32.5287L27.0401 32.1749C27.3084 31.5498 27.565 30.9954 27.8038 30.4764C28.7651 28.3799 29.3991 26.9969 29.6763 24.1307L29.7175 23.7061L30.1038 23.5321C30.6936 23.2638 33.89 23.6707 35.6711 24.632L36.0632 24.8443V25.2896C36.0426 26.9438 35.9305 28.1086 35.8391 29.0433C35.6035 30.7752 35.6753 32.5351 36.0514 34.242L36.1429 34.7226L35.7389 34.9939C34.8231 35.5773 33.7548 35.876 32.6692 35.852ZM28.541 32.3902C29.2787 33.3587 30.3454 34.0238 31.5399 34.2597C32.5248 34.4927 33.5587 34.4027 34.4886 34.0031C34.1709 32.3208 34.1261 30.5983 34.3559 28.9018C34.4385 28.0408 34.5299 27.0795 34.5623 25.7378C33.4496 25.2992 32.278 25.0279 31.0858 24.9328C30.7525 27.6161 30.0714 29.0964 29.1573 31.0898C28.9568 31.4937 28.7592 31.939 28.5528 32.3902H28.541Z" fill="#077594"/>
<path d="M40.3652 14.1488C38.4072 10.0205 33.2027 9.59885 32.0497 9.72564C29.7173 9.99398 25.3767 11.8546 25.1851 17.2214C23.0148 17.9409 22.8909 20.2055 23.4453 21.1402C23.9141 21.9276 25.3207 22.6795 26.4265 22.2519C28.007 26.4775 33.3944 26.675 36.5997 25.9379C38.3099 25.5486 41.9988 23.1336 41.757 18.8255C44.4109 18.448 44.6379 17.4219 44.5082 16.1981C44.3902 15.0511 43.1282 13.1816 40.3652 14.1488Z" fill="white"/>
<path d="M33.6107 27.0071C32.6395 27.0126 31.6711 26.9007 30.7268 26.6739C28.4887 26.1166 26.8639 24.8869 25.9911 23.0911C25.3694 23.1259 24.7493 22.9982 24.1919 22.7206C23.6345 22.4429 23.1591 22.0249 22.8123 21.5077C22.599 21.0844 22.4729 20.6227 22.4414 20.1498C22.4099 19.6769 22.4738 19.2025 22.6292 18.7547C22.7846 18.307 23.0283 17.895 23.346 17.5433C23.6637 17.1915 24.0487 16.9072 24.4784 16.7071C24.9266 11.2549 29.5266 9.27626 31.9712 8.99613C33.1919 8.85754 38.3965 9.21729 40.7437 13.2718C41.2361 13.1329 41.7518 13.0963 42.2589 13.1643C42.7661 13.2322 43.2539 13.4033 43.6924 13.6669C44.1133 13.9402 44.4697 14.3016 44.737 14.7263C45.0043 15.1509 45.1761 15.6286 45.2405 16.1262C45.4351 17.9869 44.6095 19.0042 42.5011 19.4494C42.3743 23.6426 38.7828 26.2021 36.7629 26.6621C35.7277 26.8905 34.6708 27.0061 33.6107 27.0071ZM26.858 21.2983L27.1175 21.9972C28.5742 25.8925 33.8495 25.8099 36.4385 25.2231C37.7389 24.9282 41.245 22.8641 41.0238 18.8715L40.9855 18.1962L41.6548 18.1019C43.9313 17.7746 43.8605 17.0816 43.7779 16.2795C43.7368 16.0015 43.6366 15.7355 43.484 15.4995C43.3314 15.2635 43.13 15.0629 42.8933 14.9113C42.3036 14.5398 41.5339 14.5162 40.6021 14.8435L39.977 15.0647L39.6821 14.4749C37.8922 10.7064 32.9531 10.3761 32.1156 10.4705C29.8893 10.727 26.0766 12.4432 25.9056 17.2526L25.8879 17.7657L25.4013 17.9249C25.0893 18.0126 24.8023 18.1726 24.5636 18.3919C24.3248 18.6111 24.1411 18.8835 24.0272 19.187C23.9272 19.4394 23.8788 19.7094 23.8849 19.9808C23.891 20.2523 23.9514 20.5198 24.0626 20.7675C24.3575 21.2836 25.422 21.8468 26.1444 21.5696L26.858 21.2983Z" fill="#077594"/>
<path d="M37.8084 10.2416C37.1302 7.39899 34.491 5.06653 32.4092 2.86971C30.8198 1.21547 28.8589 0.345587 28.1365 0.802643C27.414 1.2597 29.4605 3.22946 29.1685 5.13435C26.09 3.63049 24.9931 3.08497 20.5022 3.41523C16.8398 3.68357 13.2011 5.45577 13.7554 7.46386C14.5339 10.277 20.9504 8.87926 22.2891 10.1177C14.0827 11.9076 12.1543 15.8678 12.4314 16.9765C13.3013 20.459 16.9194 17.8611 18.2523 17.637C16.8782 19.595 14.6106 22.0159 16.8251 24.0034C18.0429 25.0974 24.4682 22.9389 26.898 23.2279C20.4491 21.7181 24.0495 17.8199 25.1612 17.5043C25.922 17.699 26.5825 17.9909 27.5202 19.5685C30.407 18.6367 27.8622 14.9183 31.4892 12.7333C33.86 11.2972 38.6989 11.483 37.8084 10.2416Z" fill="#077594"/>
<path d="M41.3802 38.2637C43.4443 41.3245 47.3603 56.4309 52.7801 56.2658C58.1999 56.1006 60.0104 42.1472 63.5224 42.4568C66.8574 42.7517 67.9042 59.415 61.9389 67.2705C56.2213 74.7987 47.7849 74.2354 41.7665 66.9756C35.6243 59.5418 38.2015 38.7679 41.3802 38.2637Z" fill="#077594"/>
<path d="M62.7554 40.8236C62.2482 40.3223 62.9942 38.5648 64.0705 37.5799C65.9754 35.8107 69.0834 36.3031 69.3281 37.0786C69.6938 38.264 63.7432 41.7966 62.7554 40.8236Z" fill="white"/>
<path d="M63.3016 41.7179C63.1088 41.7297 62.9156 41.703 62.7333 41.6392C62.551 41.5754 62.3833 41.4758 62.24 41.3463C62.1063 41.2079 62.0031 41.0429 61.9371 40.8621C61.871 40.6813 61.8436 40.4886 61.8567 40.2966C61.8714 39.3206 62.6086 37.914 63.5699 37.0264C64.2564 36.4305 65.0755 36.0074 65.9588 35.7925C66.8421 35.5775 67.7641 35.577 68.6476 35.7909C69.4025 35.9944 69.8802 36.36 70.0306 36.8495C70.3874 38.0025 68.686 39.3235 67.1939 40.2317C66.3447 40.7477 64.5813 41.7179 63.3016 41.7179ZM67.3325 37.1119C66.3205 37.0893 65.3365 37.4447 64.5725 38.1086C63.9525 38.6838 63.5191 39.4315 63.3281 40.2553C63.6672 40.2553 64.4928 40.0371 65.7667 39.353C67.2204 38.5686 68.2171 37.7253 68.5208 37.2889C68.1388 37.158 67.7361 37.098 67.3325 37.1119Z" fill="#077594"/>
<path d="M79.336 38.4922H58.1286C57.7377 38.4922 57.4209 38.809 57.4209 39.1999V55.2765C57.4209 55.6673 57.7377 55.9842 58.1286 55.9842H79.336C79.7268 55.9842 80.0437 55.6673 80.0437 55.2765V39.1999C80.0437 38.809 79.7268 38.4922 79.336 38.4922Z" fill="#E05E48"/>
<path d="M64.9052 37.2469C65.6129 35.5337 69.918 34.8614 72.1149 36.952C73.3533 38.1315 74.064 40.3313 73.1912 41.555C72.106 43.0766 68.9273 42.6048 67.0519 41.2602C65.8163 40.3343 64.3803 38.5031 64.9052 37.2469Z" fill="white"/>
<path d="M70.8672 43.2174C69.3441 43.191 67.8643 42.706 66.621 41.8256C65.3059 40.8761 63.4954 38.7147 64.2237 36.9573C64.5982 36.0461 65.6273 35.3531 67.0457 35.0524C68.6144 34.7192 71.0206 34.8725 72.6247 36.397C74.0991 37.8035 74.9218 40.3749 73.7894 41.9613C73.5385 42.2873 73.2247 42.5597 72.8666 42.7623C72.5085 42.9649 72.1134 43.0936 71.7047 43.1408C71.4281 43.1891 71.148 43.2147 70.8672 43.2174ZM65.586 37.5205C65.2705 38.2842 66.3291 39.794 67.488 40.6314C68.6468 41.4688 70.2863 41.8905 71.4688 41.6959C71.9054 41.6518 72.308 41.4405 72.5922 41.1061C73.182 40.2923 72.6866 38.4877 71.6103 37.4644C70.4308 36.3351 68.5761 36.2348 67.3523 36.4943C66.4677 36.683 65.7659 37.0841 65.5831 37.5205H65.586Z" fill="#077594"/>
<path d="M77.5502 53.9427H60.4091C60.3309 53.9427 60.2559 53.9116 60.2006 53.8563C60.1453 53.801 60.1143 53.726 60.1143 53.6478V42.2597C60.1143 42.1815 60.1453 42.1065 60.2006 42.0512C60.2559 41.9959 60.3309 41.9648 60.4091 41.9648C60.4873 41.9648 60.5623 41.9959 60.6176 42.0512C60.6729 42.1065 60.704 42.1815 60.704 42.2597V53.3411H77.5502C77.6284 53.3411 77.7034 53.3722 77.7587 53.4275C77.814 53.4828 77.8451 53.5578 77.8451 53.636C77.8451 53.7142 77.814 53.7892 77.7587 53.8445C77.7034 53.8998 77.6284 53.9309 77.5502 53.9309V53.9427Z" fill="white"/>
<path d="M64.2385 46.3145H62.4811C62.3475 46.3145 62.2393 46.4227 62.2393 46.5563V53.4062C62.2393 53.5397 62.3475 53.648 62.4811 53.648H64.2385C64.372 53.648 64.4803 53.5397 64.4803 53.4062V46.5563C64.4803 46.4227 64.372 46.3145 64.2385 46.3145Z" fill="white"/>
<path d="M68.1868 43.9492H66.4293C66.2958 43.9492 66.1875 44.0575 66.1875 44.191V53.4059C66.1875 53.5394 66.2958 53.6476 66.4293 53.6476H68.1868C68.3203 53.6476 68.4285 53.5394 68.4285 53.4059V44.191C68.4285 44.0575 68.3203 43.9492 68.1868 43.9492Z" fill="white"/>
<path d="M72.1614 48.9141H70.4039C70.2704 48.9141 70.1621 49.0223 70.1621 49.1559V53.405C70.1621 53.5385 70.2704 53.6468 70.4039 53.6468H72.1614C72.2949 53.6468 72.4032 53.5385 72.4032 53.405V49.1559C72.4032 49.0223 72.2949 48.9141 72.1614 48.9141Z" fill="white"/>
<path d="M76.01 44.9746H74.2525C74.119 44.9746 74.0107 45.0829 74.0107 45.2164V53.4051C74.0107 53.5386 74.119 53.6469 74.2525 53.6469H76.01C76.1435 53.6469 76.2518 53.5386 76.2518 53.4051V45.2164C76.2518 45.0829 76.1435 44.9746 76.01 44.9746Z" fill="white"/>
<path d="M35.6145 32.6596C34.4911 33.4145 32.6245 33.8185 30.5751 32.6213C28.9091 31.6482 28.8501 31.2501 28.4697 29.5723C26.5442 31.8959 18.8627 33.5236 13.0979 41.4823C6.04745 51.2131 6.57527 56.3734 1.42676 61.9908C3.65777 70.423 8.61496 77.8806 15.5261 83.2018C22.4373 88.523 30.9143 91.4091 39.6366 91.4104C41.4287 91.4093 43.2186 91.2881 44.9945 91.0477C47.5658 87.5948 47.7634 82.6232 48.0081 73.9067C48.6333 51.6938 41.2791 32.7687 35.6145 32.6596Z" fill="#077594"/>
<path d="M65.9313 28.0495C65.8023 28.0501 65.6754 28.0169 65.5631 27.9533C65.4509 27.8897 65.3572 27.7978 65.2914 27.6868C65.029 27.2357 64.8196 26.8553 64.6339 26.5073C64.3891 26.0591 64.1915 25.6994 63.9733 25.3691C63.7817 25.5932 63.5929 25.835 63.3983 26.0827C63.0096 26.5972 62.5921 27.0895 62.1481 27.5571C62.0808 27.6277 62.0002 27.6843 61.9109 27.7236C61.8216 27.7629 61.7254 27.784 61.6279 27.7858C61.5304 27.7877 61.4334 27.7701 61.3428 27.7342C61.2521 27.6983 61.1694 27.6447 61.0995 27.5766C61.0297 27.5086 60.9741 27.4273 60.9359 27.3375C60.8977 27.2478 60.8776 27.1513 60.877 27.0538C60.8763 26.9563 60.895 26.8596 60.932 26.7693C60.969 26.679 61.0235 26.597 61.0924 26.528C61.4982 26.098 61.8801 25.6462 62.2365 25.1745C62.6277 24.6482 63.0617 24.1551 63.534 23.7001C63.6066 23.6329 63.692 23.581 63.785 23.5475C63.8781 23.514 63.977 23.4995 64.0758 23.505C64.1746 23.5106 64.2712 23.5359 64.36 23.5795C64.4488 23.6232 64.5279 23.6842 64.5926 23.7591C65.1142 24.394 65.5614 25.0866 65.9254 25.8232C66.1082 26.1535 66.3117 26.525 66.5653 26.9585C66.6307 27.0705 66.6653 27.1978 66.6658 27.3275C66.6662 27.4572 66.6324 27.5848 66.5678 27.6973C66.5032 27.8097 66.41 27.9032 66.2978 27.9681C66.1855 28.0331 66.0581 28.0673 65.9284 28.0672L65.9313 28.0495Z" fill="white"/>
</svg>
