<svg width="75" height="57" viewBox="0 0 75 57" fill="none" xmlns="http://www.w3.org/2000/svg">
<path d="M6.5857 49.9161C6.97815 48.4017 7.5849 46.8848 6.29918 45.2211C5.12421 43.697 2.68759 42.8663 1.27667 43.8318C1.15387 46.5261 1.46447 48.3872 1.60412 50.2026C2.23013 49.8535 2.58647 49.4587 3.89145 49.3455C5.32886 49.2203 5.80559 49.6007 6.5857 49.9161Z" fill="#077594"/>
<path d="M52.6329 56.0847C49.0719 56.0847 45.1979 54.5317 42.246 51.8182C37.7821 47.7251 35.8487 45.7628 33.2315 41.465C32.4923 40.2491 31.9313 40.5862 31.4811 40.8559C30.2074 41.6191 29.6031 42.6087 28.9048 43.7451C28.5226 44.3962 28.1021 45.0242 27.6456 45.6256C24.5155 49.6127 18.3036 49.5164 14.5861 49.4586C13.8638 49.4466 13.2305 49.437 12.737 49.4586L11.1768 49.5237L12.4288 48.5895C13.6447 47.6866 14.0395 47.2363 14.9978 46.1504C15.6022 45.4715 16.4304 44.5469 17.8173 43.0878C19.4865 41.3395 20.934 39.3923 22.1271 37.29C23.148 35.5805 23.9545 34.2298 25.7676 33.2354C28.5148 31.7258 29.2491 31.55 31.8182 31.8967C34.7556 32.2771 36.2676 33.0019 38.1842 33.9168C39.7369 34.6875 41.3401 35.3519 42.9828 35.9056C43.4932 36.0765 44.0229 36.2812 44.5357 36.481C45.3438 36.8227 46.1759 37.1043 47.0253 37.3237L47.1433 37.3478L47.2348 37.4273C47.608 37.7427 48.3761 38.0749 49.1875 38.4289C51.1714 39.2932 53.6249 40.3551 53.791 42.4666C55.8166 44.451 57.9898 46.2789 60.2919 47.9346C61.4789 48.8013 61.9773 49.1601 61.946 49.6994C61.8713 51.3848 60.9564 52.8824 59.2975 54.0333C57.9769 54.9088 56.5022 55.5257 54.9516 55.8512C54.1889 56.0097 53.4118 56.088 52.6329 56.0847ZM32.1889 39.6303C32.7524 39.6303 33.4217 39.9241 34.0525 40.9618C36.6167 45.1753 38.4153 46.9811 42.8961 51.1079C46.2862 54.2211 50.9403 55.7115 54.7517 54.9073C57.5254 54.3198 60.8071 52.608 60.9805 49.7091C60.5924 49.3365 60.1709 49.0004 59.7213 48.705C57.3302 46.9859 55.0762 45.0837 52.9796 43.0156L52.8352 42.8735V42.6737C52.8352 41.0581 50.5936 40.0854 48.7998 39.3029C47.9427 38.9297 47.1963 38.6046 46.7075 38.2314C45.8465 38.004 45.0018 37.7185 44.1794 37.3767C43.6762 37.1817 43.1561 36.9818 42.6698 36.8181C40.9883 36.2521 39.3472 35.5724 37.758 34.7836C35.9209 33.9048 34.4691 33.2113 31.6833 32.8574C29.3406 32.554 28.7796 32.6816 26.2226 34.0853C24.6383 34.9569 23.9281 36.1464 22.9433 37.7908C21.7159 39.9535 20.2254 41.9559 18.5059 43.7523C17.1407 45.197 16.3197 46.1167 15.7201 46.7957C15.2156 47.3968 14.6727 47.9646 14.0949 48.4956H14.6005C18.1423 48.5485 24.0629 48.6424 26.8799 45.0308C27.317 44.4594 27.7191 43.862 28.0838 43.2419C28.8181 42.038 29.5116 40.9064 30.973 40.0324C31.3341 39.7901 31.7546 39.6511 32.1889 39.6303Z" fill="#077594"/>
<path d="M45.2098 55.6201C43.8589 55.5713 42.5113 55.4547 41.1721 55.2709C37.912 54.9026 33.4505 54.3993 28.5701 54.7894C20.2249 55.4732 13.0017 56.0607 10.8781 53.4531C9.9632 52.3359 10.1414 51.8472 10.7674 51.0021C10.8998 50.8239 11.0491 50.6216 11.208 50.3688L11.3428 50.1569L11.5836 50.1449C12.6887 50.0967 14.208 49.8319 16.1318 49.4996C18.3782 49.112 21.1736 48.628 24.4625 48.2958C27.0423 48.0466 29.6042 47.6382 32.1335 47.0726C33.9489 46.6874 35.3936 46.3792 37.8013 46.3672H38.0421L38.1865 46.5694C40.6906 50.0823 45.1135 53.0269 47.3094 54.0599L47.7259 54.2549L47.5477 54.6786C47.2588 55.3793 46.4883 55.6201 45.2098 55.6201ZM32.2635 53.6939C35.2771 53.7278 38.2863 53.9369 41.2756 54.3199C43.2596 54.5414 45.2965 54.7725 46.1994 54.5799C43.7652 53.2822 39.9682 50.5879 37.5605 47.3327C35.3936 47.3616 34.1102 47.6385 32.3502 48.0189C29.7867 48.5913 27.1902 49.0046 24.5757 49.2565C21.3156 49.6008 18.5395 50.0823 16.3075 50.4555C14.4849 50.7709 13.0186 51.0237 11.887 51.1008C11.7594 51.2886 11.6462 51.4475 11.5427 51.5823C11.0876 52.1963 11.0972 52.2083 11.6245 52.8488C13.4327 55.0591 21.0845 54.4379 28.4786 53.8359C29.7763 53.7324 31.038 53.6939 32.2635 53.6939Z" fill="#077594"/>
<path d="M65.5721 10.9072C66.8073 10.0525 67.5248 8.67768 67.5561 8.32856C67.1588 7.60625 66.9036 7.26194 65.9814 7.02358C67.7535 6.00511 67.4501 3.35421 66.7471 1.72659C65.9935 -0.0214172 61.7366 -0.681133 58.6884 0.881479C55.2261 2.65115 53.3722 7.25472 54.4677 10.3992C55.6306 13.7387 59.8971 14.8077 59.4565 16.8471C59.1892 18.0871 57.4797 18.2917 57.3834 19.7628C57.3184 20.762 58.0335 21.8792 58.9196 22.1417C60.4485 22.5991 62.4998 20.5165 63.1403 18.4579C63.5111 17.254 63.1066 17.0517 63.2173 14.8463C63.3233 12.7636 63.9661 12.0172 65.5721 10.9072Z" fill="#077594"/>
<path d="M73.1945 38.1812C71.7113 39.5753 67.9191 43.1676 63.0941 43.2374C59.0924 43.2928 56.4728 43.784 52.4616 39.9389C55.9672 43.0256 61.4592 42.6427 66.0315 41.2848C68.5283 40.5432 71.1961 38.9517 72.8863 36.7246C77.6801 30.4163 68.7041 18.58 67.5893 17.405C66.5829 18.2934 65.5114 18.8496 64.9408 18.6089C64.4352 18.1418 64.3581 17.7926 64.269 17.1016C64.1655 16.295 61.2474 21.8858 58.8998 26.6747C57.9777 28.5552 54.8934 33.361 52.1269 34.3241C51.2986 34.613 49.8275 34.926 49.4784 35.369C48.9246 36.0552 49.7047 37.731 50.586 38.7759C50.3765 39.1804 54.1446 46.3073 59.3958 48.4959C62.2538 49.6853 60.3709 52.3603 58.7168 53.8242C59.5475 55.4807 65.2707 55.9237 68.81 53.6147C74.8799 49.6564 75.4409 39.3442 73.1945 38.1812Z" fill="#077594"/>
<path d="M49.5583 36.8253L47.1915 36.5484C47.1088 36.5375 47.0313 36.5017 46.9694 36.4458C46.9075 36.39 46.864 36.3166 46.8448 36.2354L44.9523 27.7145C44.9393 27.6523 44.9413 27.5879 44.958 27.5266C44.9748 27.4654 45.0058 27.4089 45.0486 27.3619C45.0913 27.315 45.1446 27.2788 45.204 27.2563C45.2635 27.2339 45.3274 27.2259 45.3905 27.2329L48.0655 27.5243C48.1514 27.5341 48.2318 27.5712 48.2951 27.6302C48.3584 27.6891 48.4011 27.7667 48.417 27.8517L50.0061 36.3558C50.0172 36.418 50.0135 36.482 49.9953 36.5425C49.9771 36.603 49.9449 36.6584 49.9012 36.7041C49.8576 36.7499 49.8038 36.7847 49.7442 36.8057C49.6846 36.8268 49.6209 36.8335 49.5583 36.8253Z" fill="#E05E48"/>
<path d="M50.5957 38.7647C49.8734 39.0054 48.2939 38.4035 46.8373 37.1828C46.4448 36.8529 43.948 34.7751 44.562 32.9958C44.8509 32.1675 45.802 31.4813 46.375 31.6787C47.0492 31.9195 46.5387 33.1234 47.4633 34.6113C48.1687 35.7454 48.489 35.1627 49.5773 36.7975C49.9723 37.4229 50.3131 38.0811 50.5957 38.7647Z" fill="white"/>
<path d="M50.2347 39.304C49.2548 39.304 47.827 38.6467 46.5269 37.5584C45.3519 36.5737 43.4787 34.6547 44.1071 32.8441C44.4514 31.8545 45.6095 30.9179 46.5317 31.2285C47.1408 31.438 47.2203 32.0158 47.2973 32.5744C47.3518 33.2065 47.5485 33.8181 47.8728 34.3634C48.0365 34.6579 48.2769 34.9025 48.5686 35.0712C48.9105 35.2952 49.3367 35.5721 49.9771 36.54C50.3928 37.1925 50.7497 37.8805 51.0437 38.5961L51.2315 39.0777L50.75 39.239C50.5829 39.2883 50.4089 39.3102 50.2347 39.304ZM46.1561 32.129C45.872 32.129 45.2291 32.5504 45.0172 33.1619C44.5477 34.5078 46.5269 36.292 47.1456 36.8217C48.2219 37.7221 49.2163 38.1724 49.8591 38.3024C49.6569 37.8785 49.4285 37.4676 49.1754 37.0721C48.6432 36.2703 48.3375 36.0729 48.0413 35.8682C47.6325 35.6216 47.2928 35.2753 47.0541 34.8618C46.6519 34.2037 46.4049 33.4626 46.3318 32.6948C46.3191 32.5002 46.2769 32.3086 46.2066 32.1266C46.1898 32.1248 46.1727 32.1256 46.1561 32.129Z" fill="#077594"/>
<path d="M12.0988 48.8555C10.9985 49.5778 10.0041 50.7431 7.44225 50.8563C5.63646 50.9382 5.14288 49.8426 3.72714 50.081C1.56019 50.4494 -0.556203 53.5842 0.132406 55.3491C2.70867 55.6067 7.72636 56.0714 12.5876 55.4719C11.9591 53.3796 12.0097 51.1524 12.0988 48.8555Z" fill="#077594"/>
<path d="M67.1756 12.814C67.2763 12.2582 67.3134 11.6928 67.2863 11.1286C67.9749 11.2008 69.0632 10.0885 68.5889 9.05796C67.9701 7.71686 66.1258 8.28268 66.1065 9.43839C66.0271 9.97049 65.8537 10.1366 65.5455 10.3028C64.8232 10.688 64.7486 8.50419 63.5664 8.71848C62.7742 8.86294 61.4668 10.3654 61.1996 10.8662C60.718 11.7811 60.4508 13.1704 60.9853 13.5676C61.2718 13.7795 61.5487 13.5267 62.4299 13.611C62.8296 14.0588 63.2149 14.8461 64.9195 14.7908C65.7309 14.7691 66.9829 14.0203 67.1756 12.814Z" fill="white"/>
<path d="M64.7513 15.2778C63.1646 15.2778 62.5843 14.5723 62.2111 14.1004L62.1943 14.0787C61.9914 14.0739 61.7886 14.0851 61.5875 14.1124C61.4363 14.1495 61.279 14.1547 61.1257 14.1277C60.9723 14.1008 60.8262 14.0423 60.6967 13.9559C59.8612 13.3372 60.2392 11.6445 60.7761 10.6405C61.0554 10.118 62.4615 8.43504 63.48 8.24964C64.4985 8.06425 64.9391 8.94548 65.2208 9.47036C65.281 9.57871 65.3604 9.72799 65.423 9.82189C65.529 9.75206 65.5843 9.66539 65.6253 9.39813C65.6531 9.01858 65.8071 8.65925 66.0628 8.37738C66.3185 8.09551 66.6612 7.9073 67.0362 7.84274C67.4342 7.75154 67.8517 7.80338 68.2153 7.98916C68.579 8.17495 68.8656 8.48282 69.025 8.8588C69.1608 9.16712 69.2101 9.5066 69.1677 9.84083C69.1253 10.1751 68.9927 10.4915 68.7842 10.7561C68.5334 11.1167 68.1779 11.3916 67.7657 11.5434C67.7647 11.9939 67.7244 12.4434 67.6454 12.8869C67.4046 14.3749 65.8877 15.2417 64.9319 15.2754L64.7513 15.2778ZM62.0739 13.1108C62.1943 13.1108 62.3291 13.1108 62.4784 13.1301L62.6662 13.147L62.7914 13.289C62.8468 13.3492 62.9021 13.4166 62.9599 13.4888C63.3018 13.9102 63.6534 14.3484 64.9054 14.3075C65.5386 14.2858 66.5498 13.6598 66.7015 12.728C66.7967 12.204 66.8315 11.6708 66.8051 11.1389V10.5924L67.3468 10.6477C67.4858 10.6254 67.6182 10.5728 67.7346 10.4938C67.8511 10.4148 67.9488 10.3112 68.021 10.1903C68.1253 10.0611 68.1935 9.90655 68.2184 9.7424C68.2434 9.57824 68.2243 9.4104 68.163 9.25607C68.0955 9.07745 67.9649 8.92977 67.7958 8.84102C67.6268 8.75228 67.431 8.72862 67.2457 8.77453C67.0793 8.79817 66.9255 8.87657 66.8087 8.99735C66.6918 9.11812 66.6185 9.27439 66.6004 9.44147V9.50407C66.4945 10.2095 66.2128 10.4936 65.7914 10.72C65.7003 10.7721 65.5996 10.8053 65.4954 10.8178C65.3911 10.8302 65.2855 10.8215 65.1847 10.7922C64.7994 10.6766 64.5996 10.3107 64.3901 9.9182C64.0916 9.36442 63.9206 9.13809 63.6678 9.19588C63.1212 9.297 61.9174 10.5755 61.6405 11.0956C61.1301 12.0587 61.1036 13.0482 61.2866 13.1831L61.484 13.1566C61.6796 13.1312 61.8766 13.1175 62.0739 13.1157V13.1108Z" fill="#077594"/>
<path d="M64.5557 15.198C64.835 16.4018 64.4281 16.7654 64.2427 18.4363C64.8591 19.5102 66.8454 18.3448 67.2571 17.714C66.9152 16.2477 66.6408 15.9419 66.3928 14.584C65.8486 14.6899 64.9843 14.9018 64.5557 15.198Z" fill="white"/>
<path d="M65.0614 19.2358H65.0084C64.7885 19.2395 64.5717 19.1841 64.3807 19.0752C64.1896 18.9663 64.0314 18.8081 63.9225 18.617L63.8647 18.5159L63.8768 18.3979C63.9343 17.9038 64.0203 17.4134 64.1344 16.9292C64.2716 16.3224 64.3535 15.9661 64.197 15.2799L64.1416 15.0391L64.3415 14.8995C64.9338 14.4926 66.0967 14.271 66.323 14.2325L66.677 14.1699L66.742 14.5239C66.8425 15.0599 66.9875 15.5865 67.1754 16.0985C67.3054 16.4934 67.4547 16.9412 67.616 17.6322L67.6497 17.7815L67.5678 17.9091C67.2067 18.4533 66.0148 19.2358 65.0614 19.2358ZM64.6184 18.3449C64.6718 18.401 64.7366 18.4451 64.8084 18.4742C64.8803 18.5033 64.9575 18.5166 65.0349 18.5135C65.6633 18.5303 66.5373 17.9862 66.8648 17.6274C66.7275 17.0664 66.6023 16.6908 66.4819 16.3272C66.3314 15.8969 66.2067 15.4579 66.1087 15.0126C65.7136 15.093 65.3284 15.2165 64.9603 15.381C65.0472 15.9507 65.0086 16.5325 64.8471 17.0857C64.7483 17.501 64.672 17.9214 64.6184 18.3449Z" fill="#077594"/>
</svg>
