<svg width="82" height="93" viewBox="0 0 82 93" fill="none" xmlns="http://www.w3.org/2000/svg">
<path d="M41.0002 93.0003C63.3381 93.0003 81.4466 74.8918 81.4466 52.5539C81.4466 30.2159 63.3381 12.1074 41.0002 12.1074C18.6622 12.1074 0.553711 30.2159 0.553711 52.5539C0.553711 74.8918 18.6622 93.0003 41.0002 93.0003Z" fill="#B4D5DE"/>
<path d="M67.562 83.0646C65.5518 78.359 64.0034 72.8957 63.4661 68.3168C65.1768 68.5777 66.9227 68.4873 68.5974 68.0512C77.1334 65.7693 79.6749 61.0243 76.4965 50.1068C74.779 44.2149 68.2533 36.6146 64.761 33.4121C63.614 39.956 70.4325 49.5363 63.9339 53.4361C62.4912 54.3024 62.298 40.3725 54.097 34.8579C49.0563 36.4365 47.366 35.0632 46.5208 32.7812C44.7098 33.1314 44.0186 31.3747 34.4261 49.7386C32.6362 53.1645 24.6405 65.6727 25.5068 75.6967C26.2342 84.1271 27.8702 88.1989 29.7869 91.3924C36.2783 93.2649 43.1351 93.4839 49.7328 92.0294C56.3306 90.5749 62.4597 87.4931 67.562 83.0646Z" fill="#077594"/>
<path d="M46.1523 33.9288C48.6516 31.8159 48.6787 29.4012 49.6778 27.4574C50.2664 26.3134 53.9338 27.2642 54.9449 28.381C53.1822 31.6167 52.1197 32.9538 53.321 35.5497C51.6368 35.8787 46.9039 35.5406 46.1523 33.9288Z" fill="white"/>
<path d="M51.8127 36.4101C49.561 36.4101 46.2407 35.903 45.4741 34.2429L45.2266 33.7238L45.6672 33.3495C47.2398 32.0274 47.7379 30.5424 48.2208 29.1056C48.4324 28.4216 48.6958 27.7546 49.0086 27.1105C49.1837 26.7664 49.5851 26.3347 50.4906 26.2049C52.0481 25.9997 54.5806 26.8388 55.5072 27.8651L55.8634 28.2605L55.6098 28.7313C55.4167 29.0845 55.2325 29.4135 55.0605 29.7244C53.672 32.2206 53.0955 33.2529 54.0071 35.2209L54.4115 36.0962L53.4668 36.2803C52.9204 36.3726 52.3668 36.4161 51.8127 36.4101ZM47.2217 33.9683C48.1272 34.5236 50.3548 35.0398 52.2745 34.919C51.6316 32.8062 52.4647 31.297 53.7414 29L53.9799 28.5623C53.102 28.0491 52.1154 27.7503 51.1004 27.69C50.8395 27.6532 50.5735 27.6953 50.3367 27.8107C50.0641 28.3836 49.8341 28.9758 49.6485 29.5825C49.1867 30.977 48.6645 32.5224 47.2217 33.9713V33.9683Z" fill="#077594"/>
<path d="M56.1453 29.6133C55.4722 29.8246 53.0031 30.2803 50.0451 29.3899C48.9464 29.0579 47.0116 28.0618 46.1755 26.0274C45.6654 24.7929 45.4692 22.4627 45.8344 21.6628C44.7689 21.6296 43.637 20.5792 43.4982 19.8005C43.3744 19.1032 44.5244 18.2913 47.6938 16.5919C50.5582 13.6882 52.8492 13.8543 53.7577 13.7848C56.435 13.5796 60.3137 14.8503 61.8621 18.3396C63.4437 21.9013 61.6085 25.5445 59.8428 27.3767C58.8102 28.4114 57.5411 29.1791 56.1453 29.6133Z" fill="white"/>
<path d="M53.6479 30.6757C52.3546 30.6755 51.0683 30.4864 49.8297 30.1143C48.2903 29.6525 46.3404 28.4089 45.4772 26.3202C45.0005 25.0157 44.8121 23.6235 44.9248 22.2393C43.8231 21.8288 42.9025 20.7965 42.7485 19.9303C42.5342 18.7229 43.7386 17.8415 47.2339 15.9822C50.0078 13.2083 52.3198 13.0996 53.4367 13.0453H53.6932C56.8776 12.8008 60.9374 14.4368 62.5462 18.0468C64.155 21.6568 62.6095 25.5928 60.379 27.9109C59.2586 29.0369 57.8807 29.873 56.3645 30.3467C55.479 30.5837 54.5644 30.6944 53.6479 30.6757ZM44.2547 19.7069C44.3664 20.1144 45.13 20.8871 45.8605 20.9142L46.9954 20.9474L46.5245 21.9828C46.2982 22.4778 46.3887 24.5635 46.8747 25.7467C47.7259 27.8143 49.8478 28.5478 50.2643 28.6745C52.9386 29.4774 55.2537 29.1092 55.9208 28.9009C57.1951 28.5004 58.3545 27.7996 59.3014 26.8575C60.7049 25.4026 62.679 22.028 61.1758 18.6535C59.7149 15.3272 55.9661 14.3764 53.817 14.5364C53.7294 14.5364 53.6268 14.5364 53.5151 14.5545C52.507 14.6028 50.6326 14.6903 48.2329 17.1231L48.1515 17.2046L48.0518 17.259C45.7035 18.5056 44.4268 19.3296 44.2547 19.7069Z" fill="#077594"/>
<path d="M52.627 14.5183C53.3212 15.2035 52.8202 16.4259 53.1975 18.252C53.614 20.2683 55.3254 22.8551 57.3719 24.313C59.5451 25.8614 60.6468 25.2789 62.1741 25.14C64.3081 24.9438 66.2671 23.0271 66.8677 20.9656C67.9 17.4099 67.5952 16.6312 66.5931 14.467C67.8246 14.633 68.5218 14.3855 68.9595 13.8965C69.3519 13.4558 70.188 11.3278 68.1204 10.4978C69.4515 10.1959 69.9707 9.56812 70.4506 8.26116C70.9305 6.9542 70.7524 5.49329 69.5783 4.56363C71.178 3.92675 71.4406 3.5585 71.2746 2.09458C71.1086 0.630665 69.8348 0.265439 69.2372 0.18998C68.3769 0.093391 65.2408 1.0955 65.917 2.99407C64.45 2.08855 63.3121 2.24249 62.5967 3.06651C61.993 3.76074 61.4346 4.87754 61.6912 5.90078C60.8913 5.53555 59.527 5.20353 58.6728 5.94002C57.8186 6.6765 56.6113 7.8416 57.1636 8.84069C55.4643 8.57507 55.416 8.33058 52.3976 9.6798C49.7263 10.8872 48.4073 14.1531 48.8721 14.7869C49.3369 15.4208 51.5977 13.5071 52.627 14.5183Z" fill="#077594"/>
<path d="M61.1963 30.2155L57.4625 30.1974C57.1454 30.1772 56.849 30.0328 56.6377 29.7954C56.4264 29.5581 56.3171 29.247 56.3337 28.9297L56.6204 17.3572C56.6164 17.1971 56.6467 17.0379 56.7094 16.8905C56.7721 16.7431 56.8657 16.6109 56.9838 16.5027C57.102 16.3946 57.242 16.3131 57.3943 16.2636C57.5467 16.2142 57.7079 16.198 57.867 16.2162L61.3774 16.7535C61.6639 16.8078 61.921 16.9639 62.1013 17.1931C62.2817 17.4222 62.373 17.7089 62.3584 18.0001L62.292 29.0504C62.2993 29.3497 62.1884 29.6398 61.9833 29.8579C61.7782 30.076 61.4955 30.2045 61.1963 30.2155Z" fill="#E05E48"/>
<path d="M64.6851 33.9697C63.7433 34.0089 59.4693 29.2247 58.5577 25.1982C58.2167 23.689 57.453 20.3326 59.3878 18.6875C60.5288 17.7186 62.539 17.4108 63.3811 18.2378C64.3863 19.2278 64.4014 20.6374 63.9395 24.6368C63.7796 26.0373 63.4294 26.4146 63.4898 28.781C63.5321 30.5015 64.0874 33.0008 64.6851 33.9697Z" fill="white"/>
<path d="M64.6847 34.7239C62.9914 34.7239 58.7083 29.2908 57.8209 25.3669C57.4617 23.7762 56.6135 20.0545 58.8984 18.1227C60.2748 16.9546 62.7076 16.529 63.909 17.7092C65.2069 18.986 65.1495 20.7276 64.6877 24.733C64.6396 25.1388 64.5701 25.5418 64.4794 25.9403C64.2713 26.8647 64.1911 27.8133 64.241 28.7595C64.2833 30.3653 64.8205 32.7498 65.3276 33.5708L66.0068 34.6665L64.7179 34.7209L64.6847 34.7239ZM61.9531 18.5151C61.1965 18.525 60.4652 18.7886 59.8764 19.2637C58.2917 20.6099 58.992 23.7067 59.2908 25.0318C59.8583 27.531 61.7055 30.1631 63.1302 31.7628C62.9072 30.7901 62.7738 29.7989 62.7318 28.8018C62.6765 27.739 62.7669 26.6737 63.0004 25.6355C63.0699 25.2944 63.1363 24.9745 63.1876 24.5519C63.6403 20.628 63.5739 19.49 62.8495 18.7777C62.5932 18.5827 62.274 18.4892 61.9531 18.5151Z" fill="#077594"/>
<path d="M22.6578 47.3194C26.4852 47.3194 29.588 44.2167 29.588 40.3892C29.588 36.5618 26.4852 33.459 22.6578 33.459C18.8303 33.459 15.7275 36.5618 15.7275 40.3892C15.7275 44.2167 18.8303 47.3194 22.6578 47.3194Z" fill="white"/>
<path d="M19.4466 46.5529L19.4375 51.3582L22.6189 52.7014L25.8214 51.4306L25.8305 46.5469L22.6461 47.3166L19.4466 46.5529Z" fill="white"/>
<path d="M25.0588 37.7231C25.7056 37.7231 26.23 37.1988 26.23 36.552C26.23 35.9052 25.7056 35.3809 25.0588 35.3809C24.412 35.3809 23.8877 35.9052 23.8877 36.552C23.8877 37.1988 24.412 37.7231 25.0588 37.7231Z" fill="white"/>
<path d="M22.5549 48.1833C18.7698 48.1833 14.864 45.2887 14.8731 40.4743C14.8767 38.433 15.691 36.4767 17.137 35.0358C18.583 33.5949 20.5422 32.7874 22.5835 32.791C24.6249 32.7946 26.5812 33.609 28.0221 35.055C29.463 36.501 30.2705 38.4602 30.2669 40.5015C30.2669 40.5911 30.2492 40.6798 30.2149 40.7626C30.1807 40.8453 30.1304 40.9205 30.0671 40.9839C30.0037 41.0472 29.9285 41.0975 29.8458 41.1317C29.763 41.166 29.6743 41.1837 29.5847 41.1837C29.4951 41.1837 29.4064 41.166 29.3237 41.1317C29.2409 41.0975 29.1657 41.0472 29.1023 40.9839C29.039 40.9205 28.9888 40.8453 28.9545 40.7626C28.9202 40.6798 28.9025 40.5911 28.9025 40.5015C28.9458 39.6442 28.8145 38.787 28.5166 37.9819C28.2186 37.1769 27.7603 36.4407 27.1693 35.8181C26.5783 35.1955 25.8671 34.6995 25.0786 34.36C24.2902 34.0205 23.441 33.8447 22.5826 33.8433C21.7241 33.8419 20.8744 34.0148 20.0848 34.3517C19.2952 34.6885 18.5823 35.1822 17.9892 35.8028C17.3962 36.4234 16.9354 37.1581 16.6348 37.9621C16.3341 38.7662 16.2 39.6229 16.2404 40.4804C16.2404 44.4405 19.4489 46.819 22.5609 46.819C23.9433 46.819 24.9454 46.4357 25.5431 45.669C26.183 44.848 26.358 43.541 26.0079 42.1707C25.8143 41.3289 25.3055 40.5934 24.5862 40.1152C24.6042 40.3918 24.588 40.6695 24.538 40.9422C24.4144 41.5178 24.1692 42.0605 23.8189 42.5336C23.4685 43.0068 23.0211 43.3997 22.5066 43.6859C22.2272 43.8621 21.9121 43.9735 21.5841 44.0122C21.2561 44.0508 20.9237 44.0157 20.611 43.9093C19.458 43.4384 19.0596 41.7723 19.4248 40.589C19.5809 40.1233 19.8368 39.6972 20.1746 39.3406C20.5125 38.984 20.9241 38.7055 21.3807 38.5245C21.6416 38.4126 21.9124 38.3257 22.1896 38.2649L22.1504 38.2287C22.0111 38.113 21.9235 37.9467 21.9068 37.7664C21.8901 37.5861 21.9457 37.4066 22.0614 37.2673C22.177 37.128 22.3433 37.0404 22.5236 37.0237C22.7039 37.007 22.8834 37.0626 23.0227 37.1783C23.3913 37.4993 23.7097 37.8737 23.9675 38.289C24.1694 38.3419 24.3655 38.4147 24.553 38.5064C26.0622 39.2549 26.9497 40.3174 27.336 41.8266C27.7948 43.6376 27.5352 45.3309 26.6237 46.5021C26.017 47.2778 24.8277 48.1833 22.5549 48.1833ZM23.0439 39.5507C22.6551 39.5538 22.271 39.636 21.915 39.7922C21.6439 39.8925 21.3975 40.0498 21.1924 40.2533C20.9872 40.4569 20.8281 40.7021 20.7257 40.9724C20.5235 41.6394 20.7861 42.5057 21.1211 42.6446C21.2467 42.6678 21.3757 42.6659 21.5006 42.639C21.6254 42.612 21.7437 42.5606 21.8486 42.4876C22.1846 42.2947 22.4769 42.0341 22.7071 41.7223C22.9372 41.4106 23.1002 41.0545 23.1857 40.6766C23.2539 40.2927 23.2131 39.8975 23.068 39.5356L23.0439 39.5507Z" fill="#E05E48"/>
<path d="M22.5342 53.3812C21.8378 53.3808 21.1483 53.2428 20.5055 52.975C19.8626 52.7072 19.2791 52.3149 18.7884 51.8207C18.6607 51.6922 18.5893 51.5182 18.5898 51.3371C18.5904 51.156 18.6629 50.9825 18.7914 50.8548C18.9199 50.7271 19.0938 50.6557 19.275 50.6563C19.4561 50.6568 19.6296 50.7293 19.7573 50.8578C20.4895 51.5937 21.4836 52.0094 22.5217 52.0139C23.5598 52.0185 24.5574 51.6114 25.296 50.882C25.3595 50.8185 25.4347 50.7682 25.5176 50.7339C25.6005 50.6996 25.6893 50.6819 25.779 50.6819C25.8687 50.6819 25.9575 50.6996 26.0403 50.7339C26.1232 50.7682 26.1985 50.8185 26.2619 50.882C26.3253 50.9454 26.3756 51.0207 26.41 51.1035C26.4443 51.1864 26.462 51.2752 26.462 51.3649C26.462 51.4546 26.4443 51.5434 26.41 51.6263C26.3756 51.7091 26.3253 51.7844 26.2619 51.8478C25.2716 52.8327 23.9309 53.3842 22.5342 53.3812Z" fill="#E05E48"/>
<path d="M22.5239 51.007C21.0811 51.007 19.6413 50.7323 18.9863 50.192C18.9341 50.1492 18.8921 50.0953 18.8633 50.0342C18.8346 49.9731 18.8199 49.9064 18.8203 49.8389V48.3297C18.8204 48.2538 18.8392 48.1792 18.875 48.1123C18.9108 48.0455 18.9625 47.9885 19.0256 47.9463C19.0889 47.9049 19.1617 47.8802 19.2371 47.8744C19.3126 47.8686 19.3883 47.8819 19.4572 47.9131C20.9664 48.5862 24.35 48.6013 25.5694 47.9403C25.6379 47.9011 25.7154 47.8805 25.7943 47.8805C25.8732 47.8805 25.9507 47.9011 26.0192 47.9403C26.0873 47.9807 26.1437 48.0381 26.1829 48.1069C26.222 48.1757 26.2426 48.2535 26.2425 48.3327V49.8419C26.2424 49.9096 26.2271 49.9764 26.1979 50.0375C26.1686 50.0986 26.1262 50.1524 26.0735 50.195C25.4034 50.7444 23.9637 51.01 22.5239 51.007ZM19.7319 49.6034C20.8547 50.2433 24.1931 50.2494 25.334 49.6034V48.9997C23.7735 49.4797 21.3075 49.4072 19.7319 48.9545V49.6034Z" fill="#E05E48"/>
<path d="M15.1905 53.0612V53.6891C15.1905 53.7139 15.1807 53.7377 15.1631 53.7552C15.1456 53.7728 15.1218 53.7826 15.097 53.7826H14.0103C13.9978 53.7826 13.9854 53.7851 13.9738 53.79C13.9623 53.7949 13.9518 53.8021 13.9431 53.8111C13.9344 53.8201 13.9275 53.8308 13.923 53.8425C13.9185 53.8542 13.9164 53.8667 13.9168 53.8792V54.9658C13.9168 54.9784 13.9143 54.9908 13.9094 55.0024C13.9045 55.0139 13.8973 55.0244 13.8883 55.0331C13.8793 55.0418 13.8686 55.0486 13.8569 55.0532C13.8452 55.0577 13.8327 55.0598 13.8202 55.0594H13.1923C13.1801 55.0594 13.1679 55.057 13.1565 55.0523C13.1452 55.0476 13.1349 55.0407 13.1262 55.032C13.1175 55.0233 13.1106 55.013 13.1059 55.0016C13.1012 54.9903 13.0988 54.9781 13.0988 54.9658V53.8792C13.0988 53.8536 13.0886 53.829 13.0705 53.8109C13.0524 53.7928 13.0278 53.7826 13.0022 53.7826H11.9246C11.8998 53.7826 11.876 53.7728 11.8585 53.7552C11.8409 53.7377 11.8311 53.7139 11.8311 53.6891V53.0612C11.8311 53.0489 11.8335 53.0368 11.8382 53.0254C11.8429 53.0141 11.8498 53.0038 11.8585 52.9951C11.8671 52.9864 11.8775 52.9795 11.8888 52.9748C11.9002 52.9701 11.9123 52.9677 11.9246 52.9677H13.0022C13.0278 52.9677 13.0524 52.9575 13.0705 52.9394C13.0886 52.9213 13.0988 52.8967 13.0988 52.8711V51.8056C13.0984 51.793 13.1005 51.7805 13.105 51.7688C13.1095 51.7571 13.1164 51.7465 13.1251 51.7375C13.1338 51.7284 13.1443 51.7213 13.1558 51.7164C13.1674 51.7115 13.1798 51.709 13.1923 51.709H13.8353C13.8609 51.709 13.8855 51.7192 13.9036 51.7373C13.9217 51.7554 13.9319 51.78 13.9319 51.8056V52.8801C13.9315 52.8927 13.9336 52.9052 13.9381 52.9169C13.9426 52.9286 13.9494 52.9392 13.9582 52.9482C13.9669 52.9573 13.9774 52.9644 13.9889 52.9693C14.0005 52.9742 14.0129 52.9767 14.0254 52.9767H15.112C15.1327 52.98 15.1516 52.9901 15.1659 53.0054C15.1801 53.0208 15.1888 53.0404 15.1905 53.0612Z" fill="white"/>
<path d="M28.0968 27.6015V27.9034C28.0968 27.9154 28.092 27.9269 28.0836 27.9354C28.0751 27.9439 28.0635 27.9487 28.0515 27.9487H27.5233C27.511 27.9486 27.4992 27.9533 27.4902 27.9617C27.4812 27.9701 27.4758 27.9817 27.475 27.9939V28.5222C27.4744 28.5288 27.4723 28.5351 27.4689 28.5408C27.4656 28.5465 27.461 28.5514 27.4555 28.5552C27.4501 28.5589 27.4438 28.5614 27.4373 28.5625C27.4308 28.5636 27.4241 28.5632 27.4177 28.5614H27.1158C27.1096 28.5614 27.1035 28.5601 27.0978 28.5577C27.0921 28.5552 27.087 28.5516 27.0827 28.5471C27.0785 28.5426 27.0752 28.5372 27.0731 28.5314C27.071 28.5255 27.0702 28.5193 27.0706 28.5131V27.997C27.0698 27.9847 27.0644 27.9732 27.0554 27.9647C27.0464 27.9563 27.0346 27.9517 27.0223 27.9517H26.5122C26.4999 27.9517 26.488 27.947 26.479 27.9386C26.4701 27.9302 26.4646 27.9187 26.4639 27.9064V27.6046C26.4639 27.5918 26.469 27.5795 26.478 27.5704C26.4871 27.5614 26.4994 27.5563 26.5122 27.5563H27.0343C27.0405 27.5567 27.0468 27.5558 27.0526 27.5537C27.0584 27.5516 27.0638 27.5484 27.0683 27.5441C27.0729 27.5399 27.0765 27.5347 27.0789 27.529C27.0814 27.5233 27.0827 27.5172 27.0826 27.511V26.9858C27.0822 26.9796 27.0831 26.9734 27.0852 26.9675C27.0873 26.9617 27.0905 26.9563 27.0948 26.9518C27.099 26.9473 27.1042 26.9437 27.1099 26.9412C27.1156 26.9387 27.1217 26.9375 27.1279 26.9375H27.4298C27.436 26.9375 27.4421 26.9387 27.4478 26.9412C27.4535 26.9437 27.4586 26.9473 27.4629 26.9518C27.4671 26.9563 27.4704 26.9617 27.4725 26.9675C27.4746 26.9734 27.4754 26.9796 27.475 26.9858V27.508C27.475 27.5142 27.4763 27.5203 27.4787 27.526C27.4812 27.5317 27.4848 27.5369 27.4893 27.5411C27.4939 27.5454 27.4992 27.5486 27.5051 27.5507C27.5109 27.5528 27.5171 27.5537 27.5233 27.5533H28.0515C28.0638 27.554 28.0753 27.5594 28.0838 27.5684C28.0922 27.5774 28.0968 27.5892 28.0968 27.6015Z" fill="white"/>
<path d="M38.8639 35.9479V37.1342C38.8639 37.1822 38.8449 37.2283 38.8109 37.2622C38.7769 37.2962 38.7309 37.3153 38.6828 37.3153H36.6273C36.5793 37.3153 36.5332 37.3344 36.4993 37.3683C36.4653 37.4023 36.4462 37.4483 36.4462 37.4964V39.5549C36.4462 39.5786 36.4415 39.602 36.4324 39.6238C36.4232 39.6456 36.4099 39.6653 36.393 39.6819C36.3761 39.6985 36.3561 39.7116 36.3342 39.7203C36.3122 39.7291 36.2888 39.7334 36.2651 39.733H35.0759C35.0524 39.7334 35.029 39.7291 35.0072 39.7203C34.9854 39.7115 34.9657 39.6984 34.949 39.6818C34.9324 39.6651 34.9193 39.6453 34.9105 39.6235C34.9017 39.6018 34.8974 39.5784 34.8978 39.5549V37.4964C34.8978 37.4483 34.8787 37.4023 34.8447 37.3683C34.8108 37.3344 34.7647 37.3153 34.7167 37.3153H32.6732C32.6496 37.3153 32.6262 37.3106 32.6044 37.3014C32.5826 37.2923 32.5628 37.2789 32.5462 37.262C32.5296 37.2452 32.5166 37.2252 32.5078 37.2032C32.4991 37.1813 32.4947 37.1578 32.4951 37.1342V35.9479C32.4947 35.9243 32.4991 35.9008 32.5078 35.8789C32.5166 35.8569 32.5296 35.8369 32.5462 35.8201C32.5628 35.8032 32.5826 35.7898 32.6044 35.7807C32.6262 35.7715 32.6496 35.7668 32.6732 35.7668H34.7167C34.7647 35.7668 34.8108 35.7478 34.8447 35.7138C34.8787 35.6798 34.8978 35.6338 34.8978 35.5857V33.5453C34.8974 33.5218 34.9017 33.4985 34.9105 33.4767C34.9193 33.4549 34.9324 33.4351 34.949 33.4185C34.9657 33.4018 34.9854 33.3887 35.0072 33.3799C35.029 33.3711 35.0524 33.3668 35.0759 33.3672H36.2651C36.2888 33.3668 36.3122 33.3711 36.3342 33.3799C36.3561 33.3887 36.3761 33.4017 36.393 33.4183C36.4099 33.4349 36.4232 33.4546 36.4324 33.4764C36.4415 33.4983 36.4462 33.5217 36.4462 33.5453V35.5857C36.4462 35.6338 36.4653 35.6798 36.4993 35.7138C36.5332 35.7478 36.5793 35.7668 36.6273 35.7668H38.6828C38.7309 35.7668 38.7769 35.7859 38.8109 35.8199C38.8449 35.8538 38.8639 35.8999 38.8639 35.9479Z" fill="white"/>
<path d="M30.8152 19.832L31.0476 19.2495C31.0523 19.2379 31.0592 19.2273 31.0679 19.2184C31.0767 19.2095 31.0872 19.2025 31.0987 19.1977C31.1102 19.1929 31.1226 19.1905 31.1351 19.1906C31.1476 19.1907 31.1599 19.1932 31.1714 19.1982L32.1795 19.5996C32.2032 19.6078 32.2291 19.6067 32.252 19.5966C32.275 19.5866 32.2933 19.5682 32.3033 19.5453L32.7047 18.5371C32.7142 18.5137 32.7324 18.4949 32.7555 18.4847C32.7787 18.4746 32.8049 18.4739 32.8285 18.4828L33.411 18.7152C33.4226 18.7198 33.4332 18.7267 33.4421 18.7355C33.451 18.7443 33.458 18.7547 33.4628 18.7663C33.4676 18.7778 33.47 18.7902 33.4699 18.8027C33.4698 18.8151 33.4673 18.8275 33.4624 18.839L33.0609 19.8471C33.052 19.8707 33.0527 19.8969 33.0628 19.9201C33.073 19.9432 33.0918 19.9614 33.1152 19.9709L34.1143 20.3693C34.1262 20.3736 34.137 20.3803 34.1463 20.3889C34.1555 20.3976 34.1628 20.408 34.1679 20.4196C34.173 20.4311 34.1757 20.4436 34.1758 20.4562C34.1759 20.4689 34.1735 20.4814 34.1687 20.493L33.9362 21.0756C33.9316 21.0872 33.9247 21.0977 33.9159 21.1066C33.9072 21.1155 33.8967 21.1226 33.8852 21.1273C33.8736 21.1321 33.8613 21.1345 33.8488 21.1345C33.8363 21.1344 33.824 21.1318 33.8125 21.1269L32.8134 20.7164C32.7898 20.7075 32.7636 20.7082 32.7404 20.7183C32.7173 20.7285 32.6991 20.7473 32.6896 20.7707L32.2912 21.7698C32.2869 21.7817 32.2802 21.7925 32.2716 21.8018C32.2629 21.811 32.2525 21.8183 32.2409 21.8234C32.2294 21.8285 32.2169 21.8312 32.2043 21.8313C32.1917 21.8314 32.1791 21.829 32.1675 21.8242L31.5849 21.5917C31.5615 21.5823 31.5427 21.5641 31.5325 21.5409C31.5223 21.5178 31.5217 21.4916 31.5306 21.468L31.9441 20.481C31.949 20.4695 31.9516 20.4572 31.9517 20.4447C31.9517 20.4322 31.9493 20.4198 31.9445 20.4083C31.9397 20.3967 31.9327 20.3863 31.9238 20.3775C31.9149 20.3687 31.9044 20.3618 31.8928 20.3572L30.8846 19.9558C30.8714 19.9531 30.859 19.9476 30.8481 19.9397C30.8372 19.9318 30.8281 19.9216 30.8215 19.9098C30.8149 19.8981 30.811 19.885 30.8099 19.8716C30.8088 19.8582 30.8106 19.8447 30.8152 19.832Z" fill="white"/>
<path d="M19.8373 57.2583L19.949 56.9746C19.9537 56.9632 19.9626 56.9541 19.9738 56.949C19.985 56.944 19.9977 56.9434 20.0094 56.9474L20.5014 57.1436C20.513 57.1476 20.5257 57.147 20.5369 57.142C20.5482 57.1369 20.557 57.1278 20.5617 57.1164L20.7549 56.6275C20.7596 56.6161 20.7685 56.607 20.7797 56.6019C20.7909 56.5969 20.8037 56.5963 20.8153 56.6003L21.099 56.712C21.1104 56.7167 21.1195 56.7256 21.1246 56.7368C21.1296 56.748 21.1302 56.7607 21.1262 56.7723L20.93 57.2643C20.926 57.276 20.9265 57.2887 20.9316 57.2999C20.9366 57.3111 20.9458 57.32 20.9571 57.3247L21.4431 57.5179C21.4545 57.5226 21.4636 57.5315 21.4687 57.5427C21.4737 57.5539 21.4743 57.5666 21.4703 57.5783L21.3556 57.862C21.3509 57.8734 21.342 57.8825 21.3308 57.8875C21.3196 57.8926 21.3068 57.8932 21.2952 57.8892L20.8092 57.693C20.7976 57.6889 20.7849 57.6895 20.7737 57.6946C20.7625 57.6996 20.7536 57.7088 20.7489 57.7201L20.5557 58.2061C20.551 58.2174 20.5421 58.2266 20.5309 58.2316C20.5197 58.2367 20.507 58.2373 20.4953 58.2332L20.2116 58.1185C20.2002 58.1138 20.1911 58.105 20.1861 58.0938C20.181 58.0825 20.1804 58.0698 20.1844 58.0582L20.3806 57.5722C20.3847 57.5606 20.3841 57.5479 20.379 57.5367C20.374 57.5254 20.3648 57.5166 20.3535 57.5119L19.8705 57.3187C19.8585 57.3145 19.8484 57.306 19.8423 57.2949C19.8362 57.2837 19.8344 57.2707 19.8373 57.2583Z" fill="white"/>
<path d="M19.6247 70.3049L18.5411 70.7909C18.5196 70.8009 18.4962 70.8065 18.4725 70.8073C18.4487 70.8082 18.425 70.8043 18.4028 70.7959C18.3806 70.7874 18.3602 70.7746 18.3431 70.7582C18.3259 70.7418 18.3121 70.7221 18.3027 70.7003L17.4575 68.8259C17.4477 68.804 17.4337 68.7842 17.4162 68.7678C17.3987 68.7513 17.3782 68.7385 17.3557 68.7301C17.3332 68.7217 17.3093 68.7178 17.2853 68.7187C17.2614 68.7196 17.2378 68.7252 17.216 68.7353L15.3446 69.5775C15.301 69.5969 15.2514 69.5982 15.2068 69.5813C15.1621 69.5643 15.1259 69.5304 15.1062 69.4869L14.6172 68.4063C14.6072 68.3848 14.6016 68.3614 14.6007 68.3377C14.5998 68.3139 14.6037 68.2902 14.6122 68.268C14.6206 68.2458 14.6334 68.2255 14.6498 68.2083C14.6663 68.1911 14.6859 68.1773 14.7077 68.1679L16.5852 67.3227C16.607 67.3133 16.6267 67.2995 16.6431 67.2823C16.6595 67.2651 16.6723 67.2448 16.6807 67.2226C16.6892 67.2004 16.6931 67.1767 16.6922 67.1529C16.6914 67.1292 16.6858 67.1058 16.6757 67.0843L15.8396 65.2219C15.8296 65.2004 15.824 65.177 15.8232 65.1533C15.8223 65.1295 15.8262 65.1058 15.8346 65.0836C15.8431 65.0614 15.8559 65.0411 15.8723 65.0239C15.8887 65.0067 15.9084 64.9929 15.9302 64.9835L17.0138 64.4824C17.0575 64.463 17.107 64.4616 17.1517 64.4786C17.1963 64.4956 17.2325 64.5295 17.2523 64.573L18.0883 66.4353C18.1081 66.4788 18.1443 66.5127 18.1889 66.5297C18.2336 66.5467 18.2831 66.5453 18.3268 66.5259L20.1891 65.6898C20.2328 65.6704 20.2824 65.669 20.327 65.686C20.3717 65.7029 20.4078 65.7368 20.4276 65.7803L20.9136 66.8639C20.9236 66.8855 20.9292 66.9088 20.9301 66.9326C20.9309 66.9563 20.927 66.98 20.9186 67.0023C20.9101 67.0245 20.8973 67.0448 20.8809 67.062C20.8645 67.0792 20.8448 67.0929 20.823 67.1024L18.9667 67.9506C18.9232 67.9703 18.8893 68.0065 18.8723 68.0511C18.8554 68.0958 18.8567 68.1453 18.8761 68.189L19.7213 70.0664C19.7307 70.0884 19.7357 70.1121 19.7359 70.136C19.7362 70.1599 19.7317 70.1836 19.7227 70.2058C19.7137 70.228 19.7004 70.2481 19.6836 70.2652C19.6668 70.2822 19.6468 70.2957 19.6247 70.3049Z" fill="white"/>
<path d="M12.694 76.1679L12.8087 75.8842C12.811 75.8786 12.8145 75.8735 12.8188 75.8692C12.8231 75.865 12.8282 75.8616 12.8338 75.8593C12.8394 75.8571 12.8455 75.856 12.8515 75.8561C12.8576 75.8562 12.8636 75.8576 12.8691 75.86L13.3581 76.0532C13.3635 76.0562 13.3696 76.0579 13.3758 76.0583C13.382 76.0586 13.3882 76.0576 13.3939 76.0553C13.3997 76.053 13.4049 76.0495 13.4091 76.0449C13.4134 76.0404 13.4166 76.035 13.4185 76.0291L13.6147 75.5371C13.6166 75.5312 13.6198 75.5258 13.624 75.5212C13.6282 75.5167 13.6334 75.5131 13.6392 75.5108C13.6449 75.5085 13.6511 75.5075 13.6573 75.5079C13.6635 75.5082 13.6696 75.51 13.675 75.5129L13.9588 75.6246C13.9696 75.6299 13.978 75.639 13.9825 75.6501C13.987 75.6613 13.9871 75.6737 13.9829 75.685L13.7867 76.177C13.7827 76.1886 13.7833 76.2013 13.7883 76.2125C13.7934 76.2238 13.8025 76.2326 13.8139 76.2373L14.2998 76.4305C14.3112 76.4352 14.3203 76.4441 14.3254 76.4553C14.3304 76.4665 14.331 76.4793 14.327 76.4909L14.2153 76.7716C14.2106 76.783 14.2017 76.7921 14.1905 76.7972C14.1793 76.8022 14.1666 76.8028 14.1549 76.7988L13.666 76.6056C13.6547 76.6014 13.6423 76.6015 13.6311 76.606C13.6199 76.6104 13.6109 76.6189 13.6056 76.6297L13.4124 77.1187C13.4072 77.1295 13.3981 77.138 13.3869 77.1425C13.3757 77.1469 13.3633 77.1471 13.3521 77.1429L13.0683 77.0312C13.0627 77.0289 13.0576 77.0255 13.0534 77.0212C13.0491 77.0169 13.0457 77.0117 13.0435 77.0061C13.0412 77.0005 13.0401 76.9945 13.0402 76.9884C13.0404 76.9823 13.0417 76.9764 13.0442 76.9708L13.2374 76.4849C13.2414 76.4732 13.2408 76.4605 13.2357 76.4493C13.2307 76.4381 13.2216 76.4292 13.2102 76.4245L12.7212 76.2283C12.7098 76.2236 12.7007 76.2147 12.6957 76.2035C12.6906 76.1923 12.69 76.1796 12.694 76.1679Z" fill="white"/>
</svg>
