<svg width="45" height="78" viewBox="0 0 45 78" fill="none" xmlns="http://www.w3.org/2000/svg">
<path d="M20.6578 9.0509C21.0352 8.75294 21.3552 8.3888 21.6023 7.97628C21.7635 7.64341 21.8281 7.27196 21.7886 6.9042C21.9979 6.64895 22.4267 6.91697 22.7509 6.69489C23.2257 6.36817 23.1797 5.16336 22.6667 4.35675C22.0413 3.36891 20.8799 3.21065 20.6629 3.18513C19.162 3.01666 17.4824 4.11681 17.2629 5.25015C17.1072 6.05931 17.7505 6.73063 17.4875 6.94504C17.3676 7.04459 16.903 6.45751 16.1296 6.81742C15.6191 7.05225 15.4965 7.97373 15.6982 8.38213C16.0377 9.07388 16.852 9.16577 17.1608 8.96922C17.2585 8.90531 17.3721 8.8698 17.4888 8.86665C17.6056 8.86349 17.7209 8.89282 17.8219 8.95135C18.649 9.44655 19.7721 9.63033 20.6578 9.0509Z" fill="white"/>
<path d="M19.3996 9.80017C18.7691 9.79238 18.1522 9.61612 17.6128 9.28966C17.5726 9.26954 17.5279 9.26036 17.4831 9.26305C17.4383 9.26574 17.395 9.2802 17.3575 9.30497C17.2027 9.38962 17.0321 9.44126 16.8564 9.45664C16.6806 9.47201 16.5036 9.45079 16.3365 9.39431C16.1199 9.33537 15.9183 9.23088 15.7453 9.08782C15.5724 8.94476 15.4319 8.76643 15.3333 8.56473C15.1639 8.14125 15.1584 7.6698 15.318 7.24251C15.3659 7.07887 15.4464 6.92664 15.5548 6.79503C15.6632 6.66341 15.7971 6.55513 15.9485 6.47674C16.2829 6.31042 16.668 6.27757 17.0257 6.38485C16.8722 6.00742 16.8246 5.59529 16.8878 5.1928C17.1431 3.80677 19.0422 2.64025 20.7167 2.81893C21.0791 2.86232 22.3171 3.07418 23.014 4.16412C23.5934 5.08049 23.7108 6.53034 22.991 7.02554C22.7687 7.16127 22.5063 7.21625 22.2482 7.18125H22.2099C22.1977 7.52761 22.1106 7.86721 21.9547 8.17674C21.6786 8.64389 21.3156 9.05375 20.8851 9.3841C20.4428 9.66852 19.9253 9.81347 19.3996 9.80017ZM17.5005 8.4856C17.6801 8.48584 17.8564 8.53432 18.011 8.62599C18.6593 9.02164 19.6369 9.25647 20.4384 8.73065C20.7636 8.46804 21.0408 8.15109 21.2578 7.79386C21.3728 7.54219 21.4237 7.26594 21.4059 6.9898L21.3676 6.81112L21.4799 6.66563C21.5762 6.56276 21.6967 6.48554 21.8304 6.44097C21.9641 6.3964 22.1069 6.38589 22.2457 6.41037C22.3365 6.42572 22.4298 6.41692 22.5162 6.38485C22.7357 6.23425 22.7868 5.29746 22.3248 4.56743C21.8143 3.76848 20.8775 3.60511 20.6018 3.57193C19.2694 3.42133 17.794 4.43469 17.623 5.33064C17.5895 5.64792 17.6433 5.96831 17.7787 6.25722C17.891 6.56097 18.0339 6.97704 17.7123 7.25016C17.6199 7.30751 17.5125 7.33595 17.4038 7.33186C17.2951 7.32777 17.1901 7.29132 17.1023 7.22719C16.9856 7.14684 16.8497 7.09884 16.7085 7.08808C16.5673 7.07732 16.4257 7.10418 16.2982 7.16593C16.1819 7.2389 16.0986 7.35424 16.0659 7.48755C15.978 7.72094 15.9708 7.97707 16.0455 8.21503C16.0954 8.31887 16.1666 8.41098 16.2546 8.48533C16.3426 8.55967 16.4453 8.61457 16.556 8.64641C16.6834 8.69017 16.8217 8.69017 16.9491 8.64641C17.1159 8.53974 17.3101 8.48387 17.5081 8.4856H17.5005Z" fill="#077594"/>
<path d="M6.12618 38.4045C5.05666 37.7051 1.4448 37.9986 0.587136 40.0968C0.252751 40.9111 0.344643 42.0342 0.842392 42.2946C1.38864 42.5805 1.43714 41.2353 3.25711 40.7426C4.27813 40.4669 4.83204 40.7171 5.29916 40.2831C5.87093 39.7522 5.93474 39.3795 6.12618 38.4045Z" fill="white"/>
<path d="M0.980503 42.7215C0.866538 42.718 0.755201 42.6864 0.656328 42.6296C-0.0634931 42.2518 -0.165595 40.9015 0.224946 39.9469C0.597619 39.0407 1.46804 38.3337 2.67795 37.9584C4.01549 37.5424 5.58787 37.5934 6.32811 38.081L6.54252 38.2188L6.49403 38.4741L6.12646 38.4051L6.49913 38.4996C6.3179 39.467 6.22601 39.952 5.56234 40.5646C5.18967 40.9092 4.77871 40.9373 4.34477 40.9679C4.01128 40.9814 3.68016 41.0302 3.35693 41.1134C2.70619 41.2768 2.13399 41.6646 1.74116 42.2085C1.54972 42.4331 1.31233 42.7215 0.980503 42.7215ZM4.53366 38.4485C3.98033 38.4524 3.43063 38.5384 2.90258 38.7038C2.33336 38.8825 1.31744 39.319 0.934557 40.2506C0.661433 40.9169 0.755878 41.7311 0.96774 41.9328C1.01624 41.8843 1.08516 41.8 1.14131 41.7337C1.63584 41.0661 2.34527 40.5892 3.15018 40.3834C3.52176 40.2867 3.90248 40.2294 4.28606 40.2124C4.68426 40.1868 4.86805 40.169 5.03652 40.0133C5.46534 39.6151 5.54703 39.3496 5.68997 38.6272C5.31732 38.5031 4.9264 38.4427 4.53366 38.4485Z" fill="#077594"/>
<path d="M36.2212 32.2319C36.7138 31.4942 39.4451 30.4451 41.2523 31.8516C41.8036 32.2804 42.452 33.1278 42.2248 33.7532C41.944 34.5368 40.8158 34.9274 39.7692 34.519C39.4144 34.376 39.246 33.8808 38.4777 33.3269C37.0125 32.2702 36.6679 32.8139 36.2212 32.2319Z" fill="white"/>
<path d="M40.6397 35.0677C40.29 35.0675 39.9435 35.0008 39.6187 34.8712C39.3752 34.7545 39.1647 34.5791 39.006 34.3607C38.7823 34.0885 38.525 33.8458 38.2403 33.6383C37.816 33.2952 37.3136 33.062 36.7777 32.9593C36.6062 32.9423 36.4401 32.89 36.2899 32.8056C36.1396 32.7213 36.0085 32.6068 35.9047 32.4692L35.7388 32.2523L35.8894 32.0251C36.2365 31.5146 37.2167 31.0041 38.2709 30.8458C38.8247 30.7358 39.3954 30.7419 39.9467 30.8636C40.4981 30.9853 41.0183 31.22 41.4744 31.5529C41.9976 31.9613 42.9012 32.9721 42.572 33.8885C42.488 34.1057 42.361 34.3038 42.1988 34.4709C42.0365 34.638 41.8422 34.7707 41.6275 34.861C41.3165 34.9986 40.9798 35.0691 40.6397 35.0677ZM36.8313 32.1834L36.941 32.2063C37.5845 32.3287 38.1882 32.6065 38.6997 33.0155C39.0331 33.2569 39.3342 33.54 39.5957 33.8578C39.681 33.9775 39.7884 34.0798 39.9122 34.159C40.1357 34.2526 40.3756 34.3008 40.618 34.3008C40.8603 34.3008 41.1002 34.2526 41.3238 34.159C41.445 34.1114 41.5554 34.0398 41.6484 33.9486C41.7413 33.8574 41.815 33.7484 41.8649 33.6281C42.0002 33.2478 41.5356 32.5586 41.0175 32.1553C40.1113 31.4508 38.9933 31.5044 38.4062 31.5988C37.8468 31.6839 37.3107 31.8829 36.8313 32.1834Z" fill="#077594"/>
<path d="M21.7736 48.028C21.5489 49.7689 20.5892 53.3705 18.1413 57.2172C16.9467 59.0959 8.93421 67.8486 5.51123 71.1848C5.80988 67.6572 5.51123 59.2771 9.60808 56.6148C10.8437 55.9281 11.928 54.9992 12.7962 53.8836C13.6437 52.7579 13.1025 51.5429 13.8479 50.527C15.7495 47.9336 21.9523 46.5782 21.7736 48.028Z" fill="white"/>
<path d="M5.04102 72.1746L5.1278 71.1536C5.17375 70.6278 5.20438 70.0024 5.24012 69.2749C5.44687 65.0479 5.75063 58.6614 9.39823 56.2926L9.63307 56.1497C10.7404 55.5129 11.7111 54.6637 12.4894 53.6507C12.8646 53.1555 12.9233 52.6297 12.9846 52.0631C13.0458 51.4964 13.1173 50.8736 13.5385 50.2992C14.3042 49.2782 15.7898 48.3031 17.6226 47.6599C18.8886 47.2209 20.6754 46.8278 21.579 47.1877C21.7628 47.2447 21.9208 47.3643 22.0257 47.5256C22.1305 47.6869 22.1757 47.8798 22.1534 48.0709C22.0564 48.8136 21.4412 52.7548 18.4624 57.4311C17.2269 59.3761 9.06129 68.2565 5.7787 71.4701L5.04102 72.1746ZM20.6499 47.813C18.8631 47.813 15.4299 49.0102 14.1562 50.7485C13.855 51.1569 13.8065 51.6138 13.7478 52.1447C13.6789 52.7522 13.6023 53.4414 13.102 54.1076C12.2675 55.1969 11.2267 56.1111 10.0389 56.798C9.95214 56.8491 9.88066 56.8925 9.82451 56.9308C6.50618 59.0826 6.19988 65.4844 6.01099 69.3081C5.99567 69.6221 5.98291 69.9182 5.96759 70.1964C9.77856 66.3676 16.7547 58.6869 17.8242 57.0074C20.7061 52.4791 21.3085 48.6886 21.3978 47.9739C21.3992 47.9671 21.3992 47.9602 21.3978 47.9534C21.3978 47.9534 21.2829 47.8258 20.7571 47.8105L20.6499 47.813Z" fill="#077594"/>
<path d="M25.6093 45.815C27.2302 49.4729 35.4367 49.0951 37.3741 51.6681C37.9816 52.4747 36.353 53.317 34.4412 55.9513C31.7559 59.6448 31.8605 65.97 30.8676 67.7364C33.6575 65.0026 38.538 61.2989 42.9667 54.4018C43.548 53.548 43.8589 52.5389 43.8589 51.506C43.8589 50.473 43.548 49.464 42.9667 48.6101C40.2891 44.84 36.4143 42.7162 36.0748 42.6269C30.8855 41.2817 25.0401 44.5286 25.6093 45.815Z" fill="white"/>
<path d="M29.2679 69.854L30.5442 67.5567C30.8684 66.9696 31.0828 65.7189 31.3278 64.2716C31.7949 61.5455 32.3718 58.1455 34.1356 55.7333C34.7502 54.9014 35.416 54.1085 36.1292 53.3594C36.946 52.4788 37.237 52.1265 37.0711 51.9045C36.29 50.8681 34.2633 50.3244 32.1166 49.7501C29.2271 48.9843 26.2457 48.1777 25.2629 45.9749C25.1506 45.7196 25.1149 45.2933 25.5948 44.7267C27.037 43.0267 31.9966 41.1786 36.1828 42.2635C36.6933 42.3911 40.5885 44.5863 43.2942 48.3896C43.9134 49.3082 44.2443 50.3908 44.2443 51.4986C44.2443 52.6064 43.9134 53.689 43.2942 54.6076C39.7512 60.1288 35.9045 63.6309 33.0967 66.1886C32.382 66.8369 31.7107 67.4521 31.1415 68.0085L29.2679 69.854ZM33.5051 42.6948C30.2353 42.6948 27.1084 44.1192 26.1768 45.2168C25.9623 45.472 25.9419 45.6175 25.9623 45.6609C26.8021 47.5268 29.6099 48.2798 32.3105 49.0124C34.59 49.6225 36.7418 50.1993 37.6709 51.4475C38.2376 52.2133 37.5841 52.9051 36.678 53.8827C35.9855 54.6078 35.3385 55.3751 34.7406 56.18C33.0891 58.4518 32.5275 61.7497 32.0757 64.3967C31.9455 65.1624 31.8205 65.8465 31.7005 66.4387C31.9813 66.1835 32.2774 65.9103 32.5786 65.6347C35.3557 63.1051 39.1591 59.6413 42.6458 54.2069C43.1798 53.415 43.4651 52.4817 43.4651 51.5267C43.4651 50.5716 43.1798 49.6383 42.6458 48.8465C40.0754 45.1836 36.3027 43.1032 35.9913 42.996C35.1786 42.7911 34.3433 42.6899 33.5051 42.6948Z" fill="#077594"/>
<path d="M18.1568 12.1152C18.3248 12.3185 18.5358 12.4821 18.7746 12.5942C19.0133 12.7063 19.2739 12.7641 19.5377 12.7636C20.0696 12.7775 20.5882 12.5958 20.9952 12.2531C22.417 14.2951 23.3155 18.8387 26.7436 23.8289C30.1206 28.7426 34.9705 31.6525 36.2212 32.2319C34.9781 33.4342 31.7415 33.059 28.1092 31.6244C27.5578 32.5842 29.3855 34.7947 32.617 36.2752C35.5014 37.5974 36.7572 36.5968 39.2919 37.8782C41.8955 39.1928 45.1807 42.0312 44.5502 43.9278C43.5292 46.9908 34.4268 43.4453 23.8081 47.5779C16.2653 50.5159 13.7434 55.0926 8.21711 54.4698C3.67867 53.9593 0.368 50.1815 0.755989 48.285C1.0674 46.7534 4.05134 47.412 7.96441 44.8135C11.9974 42.141 14.1748 35.6881 14.5015 33.7686C15.1524 32.3672 14.5985 32.6531 16.467 28.7987C16.906 27.8951 18.2333 25.7944 17.7433 25.5953C17.562 25.5213 15.155 29.9933 14.4887 31.9409C12.6356 37.4009 8.93438 38.427 6.12657 38.404C7.01231 37.0639 10.2489 33.5337 12.9572 26.2181C15.3796 19.6555 17.1332 13.7565 18.1568 12.1152Z" fill="#077594"/>
<path d="M5.25573 71.1816C4.70438 73.4151 3.26473 75.4699 1.71533 77.3333C5.64116 77.974 13.7532 78.3543 16.5202 77.5196C17.0536 76.0647 15.808 73.2007 14.0059 72.7234C12.2931 72.269 10.925 73.6372 8.85994 73.2952C6.62135 72.925 6.44011 72.2384 5.25573 71.1816Z" fill="#077594"/>
<path d="M30.8858 67.7363C29.099 68.6961 28.009 69.4363 25.5254 69.7401C26.4035 72.5045 27.9503 76.1827 31.8302 77.653C32.4913 77.9083 35.368 77.7883 37.7598 77.5509C38.8804 76.0475 38.2193 73.0763 36.3865 72.3411C34.5997 71.6264 32.9125 72.5147 31.8608 71.6851C30.8092 70.8556 30.799 70.1102 30.8858 67.7363Z" fill="#077594"/>
<path d="M20.8419 3.21301C19.8387 2.04394 18.3276 -0.0721322 16.888 0.00189191C14.4733 0.132072 13.0872 3.38148 13.4369 3.70055C13.6462 3.89199 14.4886 3.0088 14.5932 3.66736C14.5932 3.73628 13.8275 3.75926 13.317 4.34379C12.1351 5.71962 12.8652 8.40236 13.442 8.53764C13.8479 8.63464 14.9404 7.98884 15.8542 7.05971C16.2779 6.63088 16.9084 6.94229 17.5287 7.05971C17.9728 6.74064 17.6946 5.27292 18.0647 4.77517C18.93 3.601 20.5279 4.27487 20.8419 3.21301Z" fill="#077594"/>
<path d="M18.6774 15.7851C18.56 15.5095 17.8274 13.0896 17.3016 13.6129C16.8344 14.1234 16.1606 14.7156 16.0968 15.5988C16.0968 15.9434 16.0738 16.5458 16.3214 16.6198C16.4099 16.4066 16.514 16.2001 16.6328 16.0021C17.8478 17.0971 18.1005 18.7129 18.1643 20.8111C18.2052 22.3018 17.9754 24.936 17.5415 25.8397C17.8146 25.9954 17.8299 25.906 17.9142 25.8397C19.507 24.6859 19.7112 18.2381 18.6774 15.7851Z" fill="#E05E48"/>
<path d="M21.6357 13.3734C21.9905 13.1437 22.9427 14.0932 23.6778 16.245C23.933 17.0108 24.515 19.6705 24.635 20.2602C24.2623 19.7063 22.1258 14.6548 21.6357 13.3734Z" fill="#E05E48"/>
<path d="M19.9104 9.62111C19.8696 10.5375 20.2933 11.2752 20.6379 12.4698C20.3443 13.3325 18.7949 12.725 18.4248 12.3294C18.4759 11.2165 18.5397 10.4328 18.5397 9.4118C19.0055 9.39819 19.4699 9.46911 19.9104 9.62111Z" fill="white"/>
<path d="M19.91 13.2961C19.2566 13.2757 18.6316 13.0243 18.1462 12.5865L18.0415 12.4716V12.3133C18.0568 12.007 18.0721 11.7263 18.0849 11.4608C18.1232 10.7537 18.1564 10.1462 18.1564 9.41875V9.03586H18.5393C19.0611 9.02636 19.5802 9.11288 20.0708 9.29112L20.3005 9.39833V9.65358C20.275 10.2075 20.4537 10.7129 20.6783 11.351C20.783 11.6522 20.9029 11.9943 21.0152 12.3721L21.0484 12.4869L21.0076 12.6018C20.9496 12.7765 20.8447 12.9318 20.7041 13.0507C20.5636 13.1696 20.3931 13.2474 20.2112 13.2757C20.1117 13.2922 20.0108 13.2991 19.91 13.2961ZM18.8124 12.1653C19.0881 12.3593 19.6854 12.5941 20.0555 12.5175C20.1188 12.5086 20.1777 12.48 20.2239 12.4359C20.132 12.1296 20.0351 11.8564 19.9406 11.591C19.7183 11.0499 19.578 10.4786 19.5245 9.89607C19.3236 9.85289 19.1196 9.82473 18.9145 9.81184C18.9145 10.3938 18.8762 10.9145 18.8456 11.5016C18.8353 11.7109 18.8226 11.9305 18.8124 12.1653Z" fill="#077594"/>
</svg>
