<svg width="82" height="85" viewBox="0 0 82 85" fill="none" xmlns="http://www.w3.org/2000/svg">
<path d="M41.0002 84.0238C63.3381 84.0238 81.4466 65.9153 81.4466 43.5773C81.4466 21.2394 63.3381 3.13086 41.0002 3.13086C18.6622 3.13086 0.553711 21.2394 0.553711 43.5773C0.553711 65.9153 18.6622 84.0238 41.0002 84.0238Z" fill="#B4D5DE"/>
<path d="M21.3809 32.7992C23.4937 29.7808 22.6456 28.344 23.0319 25.386C24.3359 25.0419 26.4004 25.1264 26.7144 25.3287C26.663 29.2254 26.9317 30.2939 28.8544 33.3817C27.1158 34.9362 22.9957 34.9272 21.3809 32.7992Z" fill="white"/>
<path d="M25.4404 35.2343C25.1909 35.2343 24.9403 35.2222 24.6888 35.1981C22.9955 35.032 21.607 34.3408 20.786 33.2512L20.457 32.8135L20.7589 32.3638C22.1141 30.423 22.1262 29.2639 22.1443 27.6581C22.142 26.8661 22.1894 26.0747 22.2862 25.2887L22.3496 24.7846L22.8416 24.6548C24.0972 24.3137 26.5119 24.2835 27.1337 24.6941L27.4808 24.9204V25.337C27.4174 29.113 27.674 30.0487 29.5062 32.9826L29.8322 33.5198L29.3583 33.9424C28.4497 34.7634 26.9918 35.2343 25.4404 35.2343ZM22.3435 32.723C23.0535 33.2981 23.9249 33.6378 24.8367 33.6949C25.8722 33.8183 26.9212 33.6368 27.8551 33.1727C26.2886 30.5678 25.9565 29.276 25.9656 25.9286C25.2204 25.8738 24.4715 25.9001 23.732 26.0071C23.6807 26.6107 23.6746 27.145 23.6686 27.6702C23.6475 29.279 23.6324 30.6825 22.3435 32.723Z" fill="#077594"/>
<path d="M19.346 13.6827C19.4607 13.4322 20.8039 10.5768 23.445 9.75882C26.1616 8.92273 29.4818 10.444 31.1027 12.5508C32.2708 14.0842 32.4217 15.8047 34.2388 16.6196C35.0326 16.9758 35.7057 16.9637 35.917 17.4738C36.2189 18.2465 35.1202 19.3332 34.2267 20.3051C34.1452 23.5499 31.2325 25.8499 29.518 26.4415C27.1154 27.2715 21.1359 27.7122 19.171 21.7056C16.1526 22.7862 14.7792 20.3232 14.7822 19.4328C14.7822 18.4608 14.9181 15.8741 18.6035 15.8922C19.1106 14.9565 18.8571 14.7603 19.346 13.6827Z" fill="white"/>
<path d="M26.4782 27.6784C25.0802 27.6924 23.6979 27.3825 22.4396 26.7729C20.7165 25.9085 19.3824 24.4266 18.7028 22.6226C18.1716 22.7578 17.6175 22.7773 17.078 22.68C16.5386 22.5826 16.0263 22.3705 15.5758 22.0582C14.5556 21.3338 14.0243 20.1868 14.0274 19.4292C14.0274 18.9281 14.0274 17.4038 15.1442 16.3051C15.8474 15.6109 16.8465 15.2215 18.1173 15.1491C18.1758 14.9884 18.2192 14.8227 18.2471 14.6541C18.3307 14.2104 18.4706 13.7793 18.6636 13.3712C18.8175 13.0241 20.2905 9.94537 23.2214 9.03985C26.3394 8.07698 29.9826 9.82463 31.7031 12.0975C32.0949 12.6354 32.4364 13.2083 32.7233 13.8089C33.2123 14.7567 33.5956 15.5052 34.5343 15.9218C34.7474 16.0134 34.9662 16.091 35.1893 16.1542C35.6964 16.3112 36.3272 16.5074 36.6019 17.1774C37.0758 18.3274 36.0284 19.4503 35.0203 20.5369L34.9569 20.6063C34.7124 23.9598 31.8057 26.4379 29.7532 27.1442C28.6974 27.4973 27.5915 27.6777 26.4782 27.6784ZM19.6476 20.7361L19.8861 21.4726C20.4897 23.347 21.5854 24.6812 23.1127 25.4418C25.3795 26.5677 28.0508 26.1541 29.2733 25.7436C30.5561 25.2999 33.3964 23.3289 33.4749 20.3105V20.0298L33.9186 19.5469C34.3472 19.0851 35.2285 18.1373 35.2135 17.8022C35.0636 17.7327 34.9081 17.6762 34.7486 17.6332C34.4669 17.5501 34.1906 17.4493 33.9216 17.3314C32.4878 16.6885 31.9234 15.5837 31.3771 14.5182C31.1278 13.9981 30.8328 13.5012 30.4957 13.0332C29.1193 11.2221 26.116 9.74314 23.659 10.5008C21.3198 11.2252 20.0792 13.9025 20.037 14.0172C19.8944 14.3224 19.7929 14.6452 19.7351 14.977C19.6519 15.4249 19.4937 15.8555 19.2673 16.2508L19.05 16.6492H18.6002C17.5076 16.6492 16.7017 16.8907 16.2066 17.3797C15.603 17.9833 15.5396 18.8376 15.5366 19.4382C15.6431 20.0025 15.9686 20.5017 16.4421 20.8267C17.0971 21.2915 17.9271 21.3489 18.9111 20.9987L19.6476 20.7361Z" fill="#077594"/>
<path d="M21.6344 25.7562C17.2397 25.8226 14.3631 22.6473 13.2312 17.4587C11.8096 10.9993 16.0715 4.82066 16.9197 5.04704C17.6562 5.24324 16.7024 10.4801 17.4147 10.6311C18.0184 8.54837 18.4983 5.62657 22.2864 2.73797C24.9335 0.721685 28.5556 0.323257 29.0808 1.22877C29.766 2.40595 25.1569 5.75636 25.7606 6.70716C27.3845 5.11948 31.1363 4.33168 31.7974 5.19796C32.1566 5.66883 31.1665 7.04823 30.4602 8.75966C30.2036 9.33887 30.0917 9.97181 30.1342 10.6039C28.8078 10.5851 27.4824 10.6861 26.1741 10.9057C23.7956 11.3344 22.2411 14.0509 21.7069 16.3177C21.2903 18.0744 22.3317 19.3663 21.1817 19.7858C19.7872 17.5311 18.2961 15.2854 17.2578 15.7503C16.5877 16.0521 15.0393 18.3189 15.1449 18.8924C15.6882 22.1462 18.3776 20.6491 19.3888 21.5365C20.5418 22.5598 20.9493 25.1012 21.6344 25.7562Z" fill="#077594"/>
<path d="M39.1892 65.8999C44.734 66.8054 51.797 59.5854 54.0578 54.9281C59.0472 44.6655 55.2108 32.0788 53.3455 31.8555C52.1834 39.5554 50.0434 45.1364 45.1445 47.1919C41.1632 48.8611 37.016 46.6063 33.7259 40.0353C29.4911 42.8122 31.2508 64.5839 39.1892 65.8999Z" fill="#077594"/>
<path d="M53.874 32.5069C55.9597 32.4646 56.7868 32.9053 60.276 31.4323C63.2039 30.1948 63.8045 28.2781 65.694 28.4864C67.2032 28.6524 68.6943 30.074 68.7758 31.4474C68.9207 33.9044 64.5501 36.7085 60.5688 36.5243C56.8019 36.3523 54.037 35.0061 53.874 32.5069Z" fill="white"/>
<path d="M60.9211 37.2926C60.7903 37.2926 60.6605 37.2926 60.5317 37.2926C56.0705 37.0874 53.2875 35.3216 53.1215 32.5689L53.0732 31.769H53.861C54.3138 31.769 54.6971 31.769 55.0684 31.769C56.4055 31.8112 57.3684 31.8414 59.9854 30.7367C60.96 30.3093 61.8622 29.733 62.6597 29.0283C63.5652 28.2888 64.4194 27.5885 65.7777 27.7394C67.6762 27.9477 69.4299 29.6621 69.5325 31.4038C69.5899 32.3968 69.116 33.4321 68.1652 34.395C66.4508 36.1306 63.5229 37.2926 60.9211 37.2926ZM54.8239 33.2752C55.4517 34.7179 57.5254 35.6355 60.6011 35.7774C62.8951 35.88 65.5664 34.8719 67.0907 33.3385C67.7215 32.6956 68.0535 32.0437 68.0203 31.4943C67.963 30.5043 66.7466 29.3814 65.6056 29.2426C64.9053 29.1641 64.4888 29.481 63.6104 30.1994C62.7003 30.9957 61.6731 31.6472 60.5649 32.1312C57.6461 33.3627 56.4267 33.3385 55.0141 33.2812L54.8239 33.2752Z" fill="#077594"/>
<path d="M65.0778 24.5273L48.9023 28.5387C48.8323 28.5563 48.7595 28.5598 48.6882 28.5491C48.6168 28.5384 48.5483 28.5137 48.4866 28.4764C48.4249 28.439 48.3711 28.3899 48.3285 28.3317C48.2859 28.2735 48.2552 28.2074 48.2382 28.1373L45.6484 17.6725C45.6484 17.6725 45.745 14.4972 54.0305 15.5959C61.0181 10.863 62.3552 13.5343 62.3552 13.5343L65.0778 24.5273Z" fill="#E05E48"/>
<path d="M54.0305 15.5964C45.745 14.4977 45.6484 17.673 45.6484 17.673L48.2443 28.1317C48.2612 28.2019 48.2919 28.2679 48.3345 28.3261C48.3772 28.3843 48.4309 28.4335 48.4926 28.4708C48.5544 28.5081 48.6229 28.5329 48.6942 28.5436C48.7656 28.5543 48.8383 28.5507 48.9083 28.5332L56.7561 26.5893L54.0305 15.5964Z" fill="white"/>
<path d="M46.8044 22.3479C46.7542 22.3605 46.7021 22.3631 46.6509 22.3555C46.5998 22.348 46.5506 22.3303 46.5063 22.3037C46.462 22.277 46.4234 22.2419 46.3927 22.2003C46.362 22.1586 46.3398 22.1114 46.3275 22.0612L45.1382 17.2559C45.122 17.2043 45.1166 17.1499 45.1223 17.0961C45.128 17.0424 45.1446 16.9903 45.1712 16.9433C45.1977 16.8962 45.2337 16.855 45.2768 16.8224C45.3199 16.7897 45.3692 16.7663 45.4218 16.7535C45.4743 16.7406 45.5289 16.7387 45.5822 16.7478C45.6355 16.757 45.6863 16.7769 45.7316 16.8065C45.7769 16.836 45.8156 16.8745 45.8454 16.9196C45.8752 16.9647 45.8955 17.0155 45.9049 17.0687L47.0941 21.871C47.1187 21.9727 47.102 22.0799 47.0477 22.1693C46.9934 22.2587 46.9059 22.3229 46.8044 22.3479Z" fill="#E05E48"/>
<path d="M56.847 26.9748L53.8618 27.7143C53.8107 27.7263 53.7577 27.728 53.7058 27.7192C53.654 27.7105 53.6045 27.6915 53.5601 27.6634C53.5157 27.6353 53.4773 27.5987 53.4472 27.5556C53.4172 27.5125 53.396 27.4638 53.3849 27.4124C53.3723 27.3623 53.3697 27.3101 53.3773 27.259C53.3849 27.2078 53.4025 27.1587 53.4292 27.1144C53.4558 27.07 53.4909 27.0314 53.5326 27.0007C53.5742 26.97 53.6215 26.9479 53.6717 26.9355L56.2766 26.2926L53.6475 15.695C53.6355 15.6439 53.6338 15.5908 53.6426 15.539C53.6513 15.4872 53.6703 15.4376 53.6984 15.3932C53.7265 15.3488 53.7632 15.3105 53.8063 15.2804C53.8493 15.2503 53.898 15.2292 53.9494 15.2181C54.0006 15.2057 54.0537 15.2037 54.1057 15.2122C54.1577 15.2208 54.2074 15.2397 54.2519 15.2679C54.2964 15.296 54.3348 15.3329 54.3647 15.3762C54.3947 15.4195 54.4156 15.4684 54.4263 15.52L57.1428 26.5129C57.1636 26.6133 57.1443 26.7178 57.089 26.8041C57.0337 26.8904 56.9469 26.9517 56.847 26.9748Z" fill="#E05E48"/>
<path d="M56.4247 26.6075C56.3719 26.6181 56.3175 26.6181 56.2647 26.6075C54.7334 26.3516 53.166 26.4112 51.6586 26.7826C51.5597 26.8 51.4578 26.7792 51.3737 26.7243C51.2895 26.6694 51.2294 26.5845 51.2056 26.4869C51.1818 26.3893 51.196 26.2863 51.2454 26.1988C51.2948 26.1113 51.3756 26.0459 51.4715 26.0159C53.0825 25.6192 54.7573 25.5535 56.3945 25.8227C56.4835 25.8386 56.5644 25.8845 56.6237 25.9528C56.683 26.0211 56.7171 26.1077 56.7202 26.1981C56.7234 26.2885 56.6955 26.3772 56.6412 26.4495C56.5868 26.5218 56.5093 26.5733 56.4216 26.5954L56.4247 26.6075Z" fill="#E05E48"/>
<path d="M53.8079 15.7884C53.7551 15.799 53.7007 15.799 53.6479 15.7884C52.1168 15.533 50.5497 15.5915 49.0418 15.9605C47.8792 16.2423 46.7694 16.709 45.7548 17.3429C45.711 17.3702 45.6623 17.3887 45.6113 17.3972C45.5604 17.4057 45.5083 17.4041 45.458 17.3925C45.4077 17.3808 45.3601 17.3594 45.3181 17.3294C45.2761 17.2994 45.2404 17.2614 45.213 17.2176C45.1857 17.1738 45.1672 17.1251 45.1587 17.0741C45.1502 17.0232 45.1518 16.9711 45.1634 16.9208C45.1751 16.8705 45.1965 16.8229 45.2265 16.7809C45.2565 16.7389 45.2945 16.7032 45.3383 16.6758C46.4237 16.0042 47.6085 15.5081 48.8487 15.2059C50.4601 14.8109 52.1349 14.7472 53.7717 15.0187C53.8749 15.0364 53.9668 15.0944 54.0274 15.1798C54.0879 15.2653 54.1121 15.3713 54.0946 15.4745C54.0828 15.5491 54.0493 15.6187 53.9983 15.6745C53.9473 15.7302 53.8811 15.7699 53.8079 15.7884Z" fill="#E05E48"/>
<path d="M65.2291 24.8956L56.847 26.9722C56.7474 26.9919 56.644 26.9725 56.5583 26.918C56.4725 26.8635 56.4111 26.7781 56.3866 26.6795C56.3622 26.5809 56.3766 26.4767 56.4269 26.3885C56.4772 26.3002 56.5596 26.2347 56.6569 26.2056L64.6586 24.2255L61.9058 13.1058C61.8806 13.0045 61.8967 12.8974 61.9504 12.8079C62.0042 12.7185 62.0913 12.6541 62.1926 12.6288C62.2939 12.6036 62.401 12.6197 62.4904 12.6735C62.5799 12.7272 62.6443 12.8143 62.6695 12.9156L65.5189 24.4187C65.5435 24.5203 65.5268 24.6276 65.4725 24.717C65.4182 24.8064 65.3306 24.8706 65.2291 24.8956Z" fill="#E05E48"/>
<path d="M57.0485 26.4535C56.9604 26.4749 56.8677 26.4654 56.7858 26.4267C56.7039 26.3879 56.6378 26.3222 56.5986 26.2405C56.5593 26.1589 56.5493 26.0662 56.5702 25.9781C56.5911 25.8899 56.6417 25.8116 56.7134 25.7562C58.0352 24.7523 59.5466 24.0264 61.1565 23.6222H61.1746C62.4104 23.3156 63.6865 23.2046 64.9567 23.2932C65.0571 23.3056 65.1489 23.356 65.2133 23.4341C65.2777 23.5122 65.3097 23.6119 65.3027 23.7129C65.2958 23.8138 65.2504 23.9083 65.1759 23.9767C65.1014 24.0452 65.0035 24.0826 64.9023 24.081C63.7097 24.0021 62.5119 24.1038 61.3497 24.3829C59.8435 24.7598 58.4295 25.4385 57.1933 26.378C57.1507 26.4128 57.1014 26.4385 57.0485 26.4535Z" fill="#E05E48"/>
<path d="M54.3182 15.664C54.2274 15.6927 54.1292 15.6877 54.0418 15.6497C53.9544 15.6118 53.8836 15.5436 53.8425 15.4577C53.8013 15.3717 53.7926 15.2738 53.8179 15.182C53.8432 15.0901 53.9008 15.0105 53.9802 14.9577C55.3047 13.961 56.817 13.2423 58.4263 12.8448H58.4444C59.6801 12.5383 60.9563 12.4273 62.2264 12.5158C62.3269 12.5282 62.4187 12.5786 62.4831 12.6567C62.5475 12.7348 62.5795 12.8345 62.5725 12.9355C62.5655 13.0364 62.5201 13.1309 62.4457 13.1993C62.3712 13.2678 62.2733 13.3052 62.1721 13.3036C60.9844 13.2166 59.7904 13.3185 58.6345 13.6055H58.6164C57.1108 13.9814 55.6976 14.6603 54.4631 15.6006C54.4195 15.6312 54.3703 15.6527 54.3182 15.664Z" fill="#E05E48"/>
<path d="M53.2183 18.1818C53.1754 18.1893 53.1314 18.1893 53.0885 18.1818C51.1899 18.0177 49.2832 18.3867 47.583 19.2473C47.5371 19.2711 47.4869 19.2856 47.4353 19.2899C47.3838 19.2941 47.3319 19.288 47.2828 19.272C47.2336 19.256 47.1881 19.2304 47.1489 19.1966C47.1098 19.1628 47.0778 19.1215 47.0547 19.0752C47.0073 18.9819 46.9987 18.8736 47.031 18.7741C47.0632 18.6745 47.1336 18.5917 47.2268 18.544C49.0571 17.6161 51.1106 17.2188 53.1549 17.397C53.2482 17.4039 53.3359 17.4439 53.4023 17.5097C53.4687 17.5756 53.5094 17.663 53.5171 17.7562C53.5247 17.8495 53.4988 17.9424 53.444 18.0182C53.3893 18.094 53.3092 18.1477 53.2183 18.1697V18.1818Z" fill="#E05E48"/>
<path d="M53.8553 21.1881C53.8133 21.1942 53.7706 21.1942 53.7286 21.1881C51.8298 21.0262 49.9234 21.3962 48.223 22.2566C48.1293 22.3038 48.0208 22.3119 47.9211 22.2791C47.8215 22.2463 47.739 22.1752 47.6918 22.0815C47.6445 21.9879 47.6365 21.8793 47.6693 21.7797C47.7021 21.68 47.7732 21.5975 47.8668 21.5503C49.6984 20.6261 51.7508 20.229 53.795 20.4033C53.8871 20.4128 53.973 20.4542 54.0376 20.5205C54.1023 20.5868 54.1417 20.6737 54.1489 20.766C54.1561 20.8583 54.1306 20.9502 54.077 21.0257C54.0233 21.1012 53.9449 21.1555 53.8553 21.179V21.1881Z" fill="#E05E48"/>
<path d="M54.5829 24.1731C54.5398 24.1792 54.4961 24.1792 54.4531 24.1731C53.4781 24.0888 52.496 24.1458 51.5373 24.3421C51.4357 24.3628 51.3301 24.3427 51.2431 24.2863C51.1562 24.2298 51.0949 24.1415 51.0725 24.0403C51.0601 23.9898 51.0582 23.9374 51.0669 23.8862C51.0755 23.835 51.0946 23.7861 51.1229 23.7426C51.1512 23.699 51.188 23.6618 51.2313 23.633C51.2745 23.6043 51.3232 23.5847 51.3743 23.5754C52.4075 23.3645 53.4658 23.3035 54.5164 23.3943C54.6086 23.4038 54.6945 23.4453 54.7591 23.5115C54.8238 23.5778 54.8632 23.6647 54.8704 23.757C54.8775 23.8493 54.8521 23.9413 54.7985 24.0167C54.7448 24.0922 54.6664 24.1465 54.5768 24.1701L54.5829 24.1731Z" fill="#E05E48"/>
<path d="M55.8053 17.5411C55.7154 17.5601 55.6218 17.5472 55.5404 17.5047C55.459 17.4621 55.3949 17.3926 55.3592 17.308C55.3235 17.2234 55.3184 17.129 55.3447 17.041C55.371 16.953 55.4271 16.8769 55.5034 16.8258C57.2311 15.719 59.2322 15.114 61.2837 15.0781C61.3822 15.0868 61.4739 15.132 61.5407 15.2049C61.6075 15.2778 61.6446 15.3731 61.6446 15.472C61.6446 15.5709 61.6075 15.6662 61.5407 15.7391C61.4739 15.8121 61.3822 15.8573 61.2837 15.8659C59.3783 15.8957 57.5192 16.4582 55.917 17.4898C55.8827 17.5128 55.845 17.5301 55.8053 17.5411Z" fill="white"/>
<path d="M56.6441 20.4997C56.5543 20.5187 56.4606 20.5058 56.3792 20.4632C56.2978 20.4207 56.2338 20.3511 56.1981 20.2665C56.1624 20.1819 56.1573 20.0875 56.1836 19.9995C56.2099 19.9115 56.266 19.8354 56.3423 19.7843C58.0712 18.6753 60.0749 18.0701 62.1286 18.0367C62.1832 18.0319 62.2382 18.0385 62.2901 18.0561C62.3421 18.0737 62.3898 18.102 62.4302 18.139C62.4706 18.1761 62.5029 18.2211 62.525 18.2713C62.5471 18.3215 62.5585 18.3757 62.5585 18.4306C62.5585 18.4854 62.5471 18.5396 62.525 18.5898C62.5029 18.64 62.4706 18.6851 62.4302 18.7221C62.3898 18.7592 62.3421 18.7874 62.2901 18.805C62.2382 18.8226 62.1832 18.8293 62.1286 18.8245C60.2233 18.8554 58.3646 19.4178 56.7619 20.4484C56.7259 20.4722 56.6861 20.4896 56.6441 20.4997Z" fill="white"/>
<path d="M57.5325 23.4457C57.4423 23.467 57.3475 23.4557 57.2649 23.4139C57.1822 23.372 57.117 23.3022 57.0809 23.2169C57.0448 23.1316 57.04 23.0363 57.0674 22.9478C57.0948 22.8593 57.1526 22.7833 57.2306 22.7334C58.9564 21.6282 60.9558 21.0252 63.0048 20.9917C63.0594 20.987 63.1145 20.9936 63.1664 21.0112C63.2183 21.0288 63.266 21.0571 63.3065 21.0941C63.3469 21.1311 63.3792 21.1762 63.4013 21.2264C63.4233 21.2766 63.4347 21.3308 63.4347 21.3856C63.4347 21.4405 63.4233 21.4947 63.4013 21.5449C63.3792 21.5951 63.3469 21.6401 63.3065 21.6772C63.266 21.7142 63.2183 21.7425 63.1664 21.7601C63.1145 21.7777 63.0594 21.7843 63.0048 21.7795C61.1037 21.8153 59.2499 22.3786 57.6502 23.4065C57.6132 23.4255 57.5735 23.4387 57.5325 23.4457Z" fill="white"/>
<path d="M70.46 21.0254V21.6502C70.46 21.6758 70.4498 21.7004 70.4317 21.7185C70.4136 21.7366 70.389 21.7468 70.3634 21.7468H69.2798C69.2672 21.7464 69.2547 21.7485 69.243 21.753C69.2313 21.7576 69.2207 21.7644 69.2117 21.7731C69.2026 21.7818 69.1955 21.7923 69.1906 21.8039C69.1857 21.8154 69.1832 21.8278 69.1832 21.8404V22.927C69.1832 22.9521 69.1734 22.9762 69.156 22.9942C69.1385 23.0123 69.1147 23.0228 69.0896 23.0236H68.4678C68.4422 23.0236 68.4176 23.0134 68.3995 22.9953C68.3814 22.9772 68.3712 22.9526 68.3712 22.927V21.8404C68.3712 21.8156 68.3614 21.7918 68.3438 21.7742C68.3263 21.7567 68.3025 21.7468 68.2777 21.7468H67.2001C67.1745 21.7468 67.1499 21.7366 67.1318 21.7185C67.1137 21.7004 67.1035 21.6758 67.1035 21.6502V21.0254C67.1035 20.9998 67.1137 20.9752 67.1318 20.9571C67.1499 20.939 67.1745 20.9288 67.2001 20.9288H68.2777C68.3025 20.9288 68.3263 20.919 68.3438 20.9014C68.3614 20.8839 68.3712 20.8601 68.3712 20.8352V19.7577C68.3712 19.7451 68.3738 19.7327 68.3786 19.7212C68.3835 19.7096 68.3907 19.6992 68.3997 19.6904C68.4087 19.6817 68.4194 19.6749 68.4311 19.6703C68.4428 19.6658 68.4553 19.6637 68.4678 19.6641H69.0957C69.1205 19.6641 69.1443 19.674 69.1618 19.6915C69.1794 19.7091 69.1892 19.7329 69.1892 19.7577V20.8352C69.1892 20.8478 69.1917 20.8602 69.1966 20.8718C69.2015 20.8833 69.2087 20.8938 69.2177 20.9025C69.2267 20.9112 69.2374 20.9181 69.2491 20.9226C69.2608 20.9271 69.2733 20.9292 69.2858 20.9288H70.3694C70.394 20.9304 70.417 20.9412 70.4338 20.9592C70.4507 20.9771 70.46 21.0008 70.46 21.0254Z" fill="white"/>
<path d="M56.5509 9.85243V10.1543C56.551 10.1666 56.5463 10.1784 56.5379 10.1874C56.5295 10.1964 56.5179 10.2018 56.5057 10.2026H55.9774C55.9654 10.2026 55.9539 10.2073 55.9454 10.2158C55.9369 10.2243 55.9322 10.2358 55.9322 10.2478V10.7761C55.9322 10.7823 55.9309 10.7884 55.9284 10.7941C55.926 10.7998 55.9224 10.8049 55.9179 10.8092C55.9133 10.8134 55.908 10.8167 55.9021 10.8188C55.8963 10.8209 55.8901 10.8218 55.8839 10.8213H55.582C55.57 10.8213 55.5585 10.8166 55.55 10.8081C55.5415 10.7996 55.5368 10.7881 55.5368 10.7761V10.2509C55.5368 10.2389 55.532 10.2273 55.5235 10.2188C55.515 10.2104 55.5035 10.2056 55.4915 10.2056H54.9663C54.9601 10.2056 54.9539 10.2043 54.9482 10.2019C54.9425 10.1994 54.9374 10.1958 54.9331 10.1913C54.9289 10.1867 54.9256 10.1814 54.9235 10.1755C54.9215 10.1697 54.9206 10.1635 54.921 10.1573V9.85545C54.921 9.84344 54.9258 9.83193 54.9343 9.82344C54.9428 9.81495 54.9543 9.81018 54.9663 9.81018H55.4885C55.5005 9.81018 55.512 9.80541 55.5205 9.79692C55.529 9.78843 55.5337 9.77691 55.5337 9.7649V9.23668C55.5337 9.22467 55.5385 9.21316 55.547 9.20467C55.5555 9.19618 55.567 9.19141 55.579 9.19141H55.8809C55.8932 9.19138 55.905 9.19605 55.914 9.20447C55.9229 9.21288 55.9284 9.2244 55.9291 9.23668V9.76188C55.9291 9.77389 55.9339 9.78541 55.9424 9.7939C55.9509 9.80239 55.9624 9.80716 55.9744 9.80716H56.5026C56.5088 9.80674 56.515 9.80761 56.5209 9.8097C56.5267 9.81179 56.5321 9.81506 56.5366 9.8193C56.5412 9.82355 56.5448 9.82868 56.5472 9.83438C56.5497 9.84008 56.5509 9.84623 56.5509 9.85243Z" fill="white"/>
<path d="M47.1881 30.7693V31.9555C47.1885 31.9792 47.1842 32.0026 47.1755 32.0246C47.1667 32.0466 47.1536 32.0665 47.1371 32.0834C47.1205 32.1003 47.1007 32.1136 47.0789 32.1228C47.0571 32.1319 47.0337 32.1366 47.0101 32.1366H44.9515C44.9279 32.1366 44.9045 32.1413 44.8827 32.1505C44.8609 32.1596 44.8411 32.173 44.8245 32.1898C44.8079 32.2067 44.7949 32.2267 44.7861 32.2486C44.7773 32.2706 44.773 32.2941 44.7734 32.3177V34.3733C44.7734 34.4213 44.7544 34.4673 44.7204 34.5013C44.6864 34.5353 44.6404 34.5544 44.5923 34.5544H43.4152C43.3671 34.5544 43.3211 34.5353 43.2871 34.5013C43.2531 34.4673 43.234 34.4213 43.234 34.3733V32.3177C43.234 32.2697 43.215 32.2236 43.181 32.1897C43.147 32.1557 43.101 32.1366 43.0529 32.1366H41.0004C40.9524 32.1366 40.9063 32.1175 40.8724 32.0836C40.8384 32.0496 40.8193 32.0035 40.8193 31.9555V30.7693C40.8193 30.7213 40.8384 30.6752 40.8724 30.6412C40.9063 30.6073 40.9524 30.5882 41.0004 30.5882H43.0409C43.0889 30.5882 43.135 30.5691 43.1689 30.5351C43.2029 30.5012 43.222 30.4551 43.222 30.4071V28.3666C43.222 28.3186 43.2411 28.2726 43.275 28.2386C43.309 28.2046 43.3551 28.1855 43.4031 28.1855H44.5923C44.6404 28.1855 44.6864 28.2046 44.7204 28.2386C44.7544 28.2726 44.7734 28.3186 44.7734 28.3666V30.4071C44.773 30.4307 44.7773 30.4542 44.7861 30.4762C44.7949 30.4981 44.8079 30.5181 44.8245 30.535C44.8411 30.5518 44.8609 30.5652 44.8827 30.5743C44.9045 30.5835 44.9279 30.5882 44.9515 30.5882H47.0101C47.0337 30.5882 47.0571 30.5929 47.0789 30.602C47.1007 30.6112 47.1205 30.6246 47.1371 30.6414C47.1536 30.6583 47.1667 30.6783 47.1755 30.7002C47.1842 30.7222 47.1885 30.7457 47.1881 30.7693Z" fill="white"/>
<path d="M47.794 8.87106V9.49889C47.794 9.52399 47.7843 9.54811 47.7668 9.56614C47.7494 9.58417 47.7256 9.59469 47.7005 9.59547H46.6138C46.589 9.59547 46.5652 9.60533 46.5477 9.62288C46.5301 9.64043 46.5203 9.66423 46.5203 9.68904V10.7757C46.5203 10.7882 46.5178 10.8006 46.5129 10.8122C46.508 10.8237 46.5008 10.8342 46.4918 10.8429C46.4828 10.8516 46.4721 10.8585 46.4604 10.863C46.4487 10.8675 46.4362 10.8696 46.4237 10.8692H45.7989C45.7863 10.8696 45.7738 10.8675 45.7621 10.863C45.7504 10.8585 45.7398 10.8516 45.7308 10.8429C45.7217 10.8342 45.7146 10.8237 45.7097 10.8122C45.7048 10.8006 45.7023 10.7882 45.7023 10.7757V9.68904C45.7023 9.67676 45.6999 9.66459 45.6952 9.65324C45.6905 9.64188 45.6836 9.63157 45.6749 9.62288C45.6662 9.61419 45.6559 9.6073 45.6445 9.6026C45.6332 9.59789 45.621 9.59547 45.6087 9.59547H44.5312C44.5055 9.59547 44.481 9.5853 44.4629 9.56718C44.4447 9.54907 44.4346 9.5245 44.4346 9.49889V8.87106C44.4346 8.85851 44.4371 8.84609 44.442 8.83454C44.4469 8.82299 44.454 8.81254 44.463 8.80381C44.472 8.79508 44.4827 8.78825 44.4944 8.78373C44.5061 8.77921 44.5186 8.77709 44.5312 8.77749H45.6087C45.6213 8.7775 45.6337 8.77498 45.6452 8.77009C45.6568 8.7652 45.6672 8.75804 45.676 8.74903C45.6847 8.74001 45.6915 8.72934 45.6961 8.71764C45.7006 8.70593 45.7027 8.69344 45.7023 8.6809V7.60635C45.7023 7.58074 45.7125 7.55617 45.7306 7.53806C45.7487 7.51994 45.7733 7.50977 45.7989 7.50977H46.4327C46.4584 7.50977 46.4829 7.51994 46.501 7.53806C46.5192 7.55617 46.5293 7.58074 46.5293 7.60635V8.6809C46.5289 8.69344 46.5311 8.70593 46.5356 8.71764C46.5401 8.72934 46.5469 8.74001 46.5556 8.74903C46.5644 8.75804 46.5748 8.7652 46.5864 8.77009C46.5979 8.77498 46.6104 8.7775 46.6229 8.77749H47.7095C47.7327 8.77975 47.7543 8.79059 47.7699 8.8079C47.7855 8.82521 47.7941 8.84774 47.794 8.87106Z" fill="white"/>
<path d="M45.7993 61.9259C37.4262 51.4823 36.9222 45.9948 33.3906 38.9288C32.3312 36.8159 29.8078 32.7501 28.3258 31.3828C27.5712 32.4091 25.8598 33.7583 24.7339 33.4383C23.4752 33.0852 22.5305 32.9403 21.8423 31.3919C19.7294 31.6484 17.4234 38.5817 17.3147 47.4286C17.206 55.9193 17.0461 68.4336 19.666 77.9536C26.3131 82.0783 34.0132 84.1879 41.8344 84.0272C49.6556 83.8665 57.2625 81.4423 63.7345 77.0481C59.0198 72.6472 50.0552 67.2323 45.7993 61.9259Z" fill="#077594"/>
</svg>
