<svg width="80" height="82" viewBox="0 0 80 82" fill="none" xmlns="http://www.w3.org/2000/svg">
<path d="M40.3619 81.3858C62.1844 81.3858 79.8751 63.6951 79.8751 41.8726C79.8751 20.05 62.1844 2.35938 40.3619 2.35938C18.5393 2.35938 0.848633 20.05 0.848633 41.8726C0.848633 63.6951 18.5393 81.3858 40.3619 81.3858Z" fill="#B4D5DE"/>
<path d="M61.769 27.9052C60.5895 25.1452 59.9437 23.0869 56.7148 20.8872C57.0097 19.3951 58.1214 17.6141 59.8051 17.1895C62.7067 19.0619 65.2633 21.7394 66.776 24.5849C66.1951 26.5311 63.9511 28.0173 61.769 27.9052Z" fill="white"/>
<path d="M61.9886 28.6573H61.738L61.2721 28.6367L61.0922 28.2003L60.815 27.5398C59.8124 25.1365 59.087 23.4115 56.3005 21.5007L55.8936 21.2235L55.9938 20.7429C56.3595 18.9884 57.6215 16.9891 59.6237 16.482L59.9363 16.4023L60.2046 16.5763C63.2477 18.5402 65.881 21.3326 67.4291 24.2431L67.5706 24.5114L67.4851 24.8063C66.8246 27.0031 64.442 28.6573 61.9886 28.6573ZM57.5655 20.5866C60.3639 22.6301 61.2072 24.6618 62.1832 26.9736C62.2127 27.0385 62.2393 27.1063 62.2687 27.1741C63.8522 27.0591 65.4269 25.9946 65.9842 24.6559C64.4255 21.9891 62.277 19.7145 59.7033 18.0065C58.6742 18.4134 57.9017 19.5103 57.5596 20.5866H57.5655Z" fill="#077594"/>
<path d="M61.8531 12.9965C58.3146 9.45797 54.434 7.59437 50.1642 10.1332C47.3836 11.7845 46.5874 16.4671 46.8233 19.1977C47.0238 21.5066 48.5925 24.1368 49.9372 24.1368C50.9162 23.5471 50.9339 22.8777 52.19 22.2998C53.6644 23.0488 55.8671 23.724 57.8664 23.267C59.8656 22.8099 63.2419 19.7786 63.2832 16.4554C64.4627 16.3462 64.7576 14.3116 64.3566 13.5921C63.9555 12.8726 63.068 12.1708 61.8531 12.9965Z" fill="white"/>
<path d="M50.0927 24.7396H49.9275C48.1347 24.7396 46.4303 21.7378 46.218 19.252C45.9791 16.5038 46.7547 11.4585 49.8479 9.61844C53.7432 7.30367 57.7004 8.1647 61.9378 12.2517C62.3782 12.0314 62.8806 11.968 63.362 12.0718C63.6847 12.1609 63.9855 12.3159 64.2454 12.527C64.5052 12.7382 64.7185 13.0008 64.8718 13.2985C65.2463 13.956 65.1932 15.1739 64.7538 16.0113C64.5628 16.4055 64.2451 16.7243 63.8515 16.9166C63.536 20.2605 60.2304 23.3419 57.9923 23.852C55.6953 24.3681 53.3363 23.5041 52.1951 22.9704C51.8555 23.1655 51.5555 23.4226 51.3105 23.7282C51.0109 24.0986 50.6498 24.4148 50.243 24.6629L50.0927 24.7396ZM54.1383 9.55946C52.8359 9.58015 51.5642 9.95751 50.4612 10.6505C47.9784 12.1249 47.1822 16.5067 47.4122 19.1458C47.5892 21.21 48.8866 23.3036 49.7712 23.5218C50.0021 23.3515 50.211 23.1534 50.3934 22.932C50.8014 22.4241 51.3238 22.0199 51.9179 21.7525L52.1804 21.6316L52.4369 21.7614C53.3215 22.2007 55.5714 23.1679 57.7122 22.6814C59.3901 22.2951 62.6219 19.5705 62.6602 16.4448V15.9052L63.1969 15.855C63.3797 15.855 63.536 15.7017 63.6687 15.4511C63.9636 14.9055 63.9459 14.1389 63.8043 13.8853C63.6495 13.5831 63.3846 13.3519 63.0642 13.2395C62.9037 13.2166 62.7402 13.2271 62.584 13.2702C62.4277 13.3133 62.282 13.3882 62.156 13.4901L61.7461 13.7673L61.3981 13.4194C58.8386 10.8333 56.459 9.55946 54.1472 9.55946H54.1383Z" fill="#077594"/>
<path d="M48.8836 13.6622C47.5449 15.461 46.33 15.5642 44.8261 15.4315C43.6761 15.3194 41.6061 14.9715 41.4793 11.5421C37.5486 12.0021 37.5575 7.95345 37.8406 7.11895C38.2504 5.89817 40.5593 2.76955 43.9061 5.11086C42.9448 2.97891 45.4365 1.16543 46.7517 0.929534C48.1936 0.667095 50.013 1.13889 50.5556 3.14699C50.5998 0.696582 52.8143 0.434144 53.8198 0.481324C54.8254 0.528504 57.2079 1.72275 56.5799 3.57751C58.0867 2.19455 59.3428 2.42455 60.0093 2.94943C60.3232 3.23743 60.5632 3.59679 60.709 3.99712C60.8547 4.39746 60.902 4.827 60.8467 5.24945C61.7313 4.16136 64.9602 5.24945 65.7387 6.5469C66.3844 7.61729 66.408 9.84949 65.3199 10.5601C66.1574 10.4776 67.3192 11.3327 67.328 12.3294C67.3487 14.7149 65.8537 16.0949 64.8187 15.2162C64.2289 14.7149 65.1578 13.2818 63.8161 12.9988C63.4755 12.9292 63.1229 12.9468 62.7909 13.0499C62.4589 13.153 62.1584 13.3383 61.9171 13.5885C61.2831 14.3493 61.9436 15.5347 61.5573 15.6526C60.2186 16.1126 59.0067 14.6471 58.4199 13.4352C58.0012 13.8539 56.5622 14.1606 55.6186 13.73C54.5275 13.2347 54.386 12.3648 53.985 11.6394C53.7844 12.5741 52.8998 14.1517 51.4343 14.4849C50.4936 14.712 49.5029 14.709 48.8836 13.6622Z" fill="#077594"/>
<path d="M58.4287 36.1816C58.3521 43.3972 56.4472 53.0662 47.1586 53.479C37.1004 53.9243 29.9969 45.3198 27.1248 41.8373C23.8635 43.3441 23.7102 53.9537 28.7496 61.0602C34.7916 69.5762 46.8284 71.1597 55.8781 64.8612C65.9569 57.8313 61.7667 37.6678 58.4287 36.1816Z" fill="#077594"/>
<path d="M25.5473 36.9458C26.2314 36.4622 25.7007 34.292 24.6421 32.9296C22.7667 30.5294 19.0748 30.5028 18.6502 31.355C17.9985 32.6672 24.2204 37.8835 25.5473 36.9458Z" fill="white"/>
<path d="M25.1403 37.7887C23.666 37.7887 21.5606 36.1433 20.6052 35.3265C19.0866 34.0231 17.3969 32.2185 17.9896 31.0243C18.2373 30.5289 18.8241 30.2193 19.6911 30.1396C21.3394 29.9745 23.778 30.635 25.2229 32.4986C26.1488 33.6781 26.7268 35.4091 26.5646 36.5119C26.5453 36.7196 26.4828 36.9211 26.3813 37.1033C26.2798 37.2856 26.1413 37.4447 25.9748 37.5705C25.7262 37.7285 25.4345 37.8047 25.1403 37.7887ZM19.3696 31.6966C19.5495 32.1949 20.5491 33.4894 22.3774 34.8606C23.8517 35.9723 24.7835 36.3084 25.0991 36.335C25.2052 35.9162 24.9133 34.4831 24.0611 33.3862C23.2189 32.381 22.0164 31.7459 20.7113 31.617C20.2637 31.5441 19.8055 31.5713 19.3696 31.6966Z" fill="#077594"/>
<path d="M31.5567 35.8262H10.942C10.8101 35.8262 10.7031 35.9331 10.7031 36.065V47.1405C10.7031 47.2724 10.8101 47.3794 10.942 47.3794H31.5567C31.6886 47.3794 31.7955 47.2724 31.7955 47.1405V36.065C31.7955 35.9331 31.6886 35.8262 31.5567 35.8262Z" fill="white"/>
<path d="M31.8112 48.0882H20.1813C20.064 48.0882 19.9515 48.0416 19.8686 47.9587C19.7856 47.8757 19.739 47.7632 19.739 47.6459C19.739 47.5286 19.7856 47.4161 19.8686 47.3331C19.9515 47.2502 20.064 47.2036 20.1813 47.2036H31.3571V36.5291H11.1434V42.3116C11.1434 42.4289 11.0968 42.5414 11.0139 42.6244C10.9309 42.7073 10.8184 42.7539 10.7011 42.7539C10.5838 42.7539 10.4713 42.7073 10.3883 42.6244C10.3054 42.5414 10.2588 42.4289 10.2588 42.3116V36.0898C10.2588 35.9732 10.3051 35.8615 10.3875 35.7791C10.4699 35.6967 10.5816 35.6504 10.6982 35.6504H31.8112C31.9277 35.6504 32.0395 35.6967 32.1219 35.7791C32.2043 35.8615 32.2505 35.9732 32.2505 36.0898V47.6606C32.2475 47.7751 32.1998 47.8839 32.1178 47.9637C32.0357 48.0436 31.9257 48.0882 31.8112 48.0882Z" fill="#E05E48"/>
<path d="M30.0057 40.0721H22.9111C22.7938 40.0721 22.6812 40.0255 22.5983 39.9426C22.5154 39.8596 22.4688 39.7471 22.4688 39.6298C22.4688 39.5125 22.5154 39.4 22.5983 39.3171C22.6812 39.2341 22.7938 39.1875 22.9111 39.1875H30.0057C30.1231 39.1875 30.2356 39.2341 30.3185 39.3171C30.4015 39.4 30.4481 39.5125 30.4481 39.6298C30.4481 39.7471 30.4015 39.8596 30.3185 39.9426C30.2356 40.0255 30.1231 40.0721 30.0057 40.0721Z" fill="#E05E48"/>
<path d="M27.5642 42.0292H22.9111C22.7938 42.0292 22.6812 41.9826 22.5983 41.8996C22.5154 41.8167 22.4688 41.7042 22.4688 41.5868C22.4688 41.4695 22.5154 41.357 22.5983 41.2741C22.6812 41.1911 22.7938 41.1445 22.9111 41.1445H27.5642C27.6815 41.1445 27.794 41.1911 27.8769 41.2741C27.9599 41.357 28.0065 41.4695 28.0065 41.5868C28.0065 41.7042 27.9599 41.8167 27.8769 41.8996C27.794 41.9826 27.6815 42.0292 27.5642 42.0292Z" fill="#E05E48"/>
<path d="M26.1694 44.0956H22.9111C22.7938 44.0956 22.6812 44.049 22.5983 43.966C22.5154 43.8831 22.4688 43.7706 22.4688 43.6532C22.4688 43.5359 22.5154 43.4234 22.5983 43.3405C22.6812 43.2575 22.7938 43.2109 22.9111 43.2109H26.1694C26.2867 43.2109 26.3992 43.2575 26.4822 43.3405C26.5651 43.4234 26.6117 43.5359 26.6117 43.6532C26.6117 43.7706 26.5651 43.8831 26.4822 43.966C26.3992 44.049 26.2867 44.0956 26.1694 44.0956Z" fill="#E05E48"/>
<path d="M19.2491 38.8918L17.9753 39.9947C17.9622 40.0073 17.9462 40.0164 17.9286 40.021C17.9111 40.0257 17.8926 40.0257 17.875 40.0212L14.2422 39.1366C14.2243 39.132 14.2057 39.1317 14.1877 39.1358C14.1697 39.1399 14.153 39.1483 14.139 39.1602L13.4873 39.7293L16.2208 41.3246C16.2371 41.3333 16.2509 41.3459 16.2612 41.3613C16.2714 41.3766 16.2777 41.3943 16.2794 41.4127C16.2812 41.4311 16.2783 41.4496 16.2712 41.4667C16.2641 41.4837 16.2528 41.4987 16.2385 41.5103L14.7641 42.8019C14.7425 42.8218 14.7139 42.8324 14.6845 42.8314L13.5286 42.7753C13.4992 42.7743 13.4706 42.7849 13.449 42.8048L13.0361 43.1616L14.4928 43.7514L14.5076 43.7661L14.8879 45.3024L15.2978 44.9486C15.3203 44.9291 15.334 44.9015 15.3362 44.8719L15.4453 43.6924C15.4474 43.6628 15.4612 43.6352 15.4836 43.6157L16.958 42.333C16.9718 42.3209 16.9884 42.3122 17.0063 42.3078C17.0242 42.3034 17.0429 42.3034 17.0609 42.3077C17.0788 42.312 17.0954 42.3206 17.1093 42.3327C17.1232 42.3448 17.134 42.3601 17.1408 42.3773L18.3557 45.326L19.0044 44.7598C19.0186 44.7475 19.0297 44.732 19.0369 44.7146C19.0441 44.6972 19.0471 44.6784 19.0457 44.6596L18.6623 40.9117C18.6609 40.8934 18.664 40.875 18.6711 40.8581C18.6783 40.8411 18.6895 40.8262 18.7036 40.8144L19.9627 39.6998C20.2576 39.4492 21.0154 38.4584 20.8179 38.2254C20.6203 37.9925 19.5381 38.6412 19.2491 38.8918Z" fill="#E05E48"/>
<path d="M23.3765 32.0704C22.6658 30.3572 18.3636 29.6819 16.1638 31.7755C14.9254 32.955 14.2177 35.1548 15.0905 36.3785C16.1727 37.8971 19.3514 37.4283 21.2268 36.0837C22.4624 35.1666 23.8984 33.3325 23.3765 32.0704Z" fill="white"/>
<path d="M17.4116 38.0464C17.1311 38.0476 16.851 38.0259 16.5741 37.9816C16.1654 37.9342 15.7704 37.8055 15.4123 37.6029C15.0542 37.4003 14.7404 37.128 14.4893 36.8021C13.357 35.2127 14.1768 32.6414 15.6688 31.2378C17.273 29.7103 19.6762 29.557 21.2449 29.8902C22.6633 30.1851 23.6924 30.8869 24.0698 31.7951C24.7952 33.5643 22.9847 35.714 21.6725 36.6635C20.4236 37.5425 18.9386 38.0245 17.4116 38.0464ZM19.7705 31.2053C18.7178 31.2053 17.5295 31.5002 16.6803 32.2964C15.604 33.3196 15.1174 35.1242 15.6983 35.9381C15.9835 36.2712 16.3856 36.4823 16.8218 36.5278C18.0013 36.7224 19.6821 36.2742 20.8056 35.4604C21.929 34.6465 23.0201 33.1161 22.7046 32.3495C22.5247 31.916 21.8199 31.515 20.9353 31.3262C20.5496 31.244 20.1561 31.2035 19.7617 31.2053H19.7705Z" fill="#077594"/>
<path d="M34.4288 25.9963L31.1439 25.2288C30.7554 25.138 30.3668 25.3794 30.2761 25.768L29.5086 29.0529C29.4179 29.4414 29.6592 29.8299 30.0478 29.9207L33.3327 30.6882C33.7212 30.7789 34.1098 30.5376 34.2005 30.149L34.968 26.8641C35.0588 26.4756 34.8174 26.087 34.4288 25.9963Z" fill="white"/>
<path d="M37.1744 41.086L36.5209 41.795C36.2505 42.0884 36.2691 42.5454 36.5624 42.8158L37.2714 43.4694C37.5648 43.7398 38.0218 43.7212 38.2923 43.4278L38.9458 42.7188C39.2162 42.4255 39.1976 41.9684 38.9043 41.698L38.1953 41.0445C37.9019 40.774 37.4449 40.7926 37.1744 41.086Z" fill="white"/>
<path d="M25.8981 13.9591L25.2445 14.668C24.9741 14.9614 24.9927 15.4184 25.2861 15.6889L25.9951 16.3424C26.2884 16.6128 26.7455 16.5942 27.0159 16.3009L27.6694 15.5919C27.9399 15.2985 27.9213 14.8415 27.6279 14.5711L26.9189 13.9175C26.6256 13.6471 26.1685 13.6657 25.8981 13.9591Z" fill="white"/>
<path d="M14.3172 57.2896L10.2227 57.9946C9.8295 58.0623 9.56563 58.4359 9.63334 58.8292L10.3384 62.9237C10.4061 63.3169 10.7797 63.5808 11.1729 63.5131L15.2675 62.808C15.6607 62.7403 15.9245 62.3667 15.8568 61.9735L15.1518 57.8789C15.0841 57.4857 14.7104 57.2218 14.3172 57.2896Z" fill="white"/>
<path d="M23.046 51.4162L19.7611 50.6487C19.3726 50.558 18.984 50.7993 18.8933 51.1879L18.1258 54.4728C18.035 54.8613 18.2764 55.2499 18.665 55.3406L21.9499 56.1081C22.3384 56.1989 22.727 55.9575 22.8177 55.5689L23.5852 52.284C23.6759 51.8955 23.4346 51.5069 23.046 51.4162Z" fill="white"/>
<path d="M22.9303 67.7344L22.2768 68.4434C22.0063 68.7368 22.0249 69.1938 22.3183 69.4643L23.0273 70.1178C23.3206 70.3882 23.7777 70.3696 24.0481 70.0763L24.7017 69.3673C24.9721 69.0739 24.9535 68.6169 24.6601 68.3464L23.9511 67.6929C23.6578 67.4225 23.2007 67.4411 22.9303 67.7344Z" fill="white"/>
<path d="M23.9124 19.5263L19.7992 20.2327C19.4042 20.3005 19.139 20.6757 19.2068 21.0707L19.9131 25.1839C19.9809 25.5789 20.3561 25.8442 20.7511 25.7763L24.8644 25.07C25.2594 25.0022 25.5246 24.627 25.4568 24.232L24.7505 20.1187C24.6826 19.7237 24.3074 19.4585 23.9124 19.5263Z" fill="white"/>
<path d="M40.3615 81.3859C50.512 81.3855 60.2731 77.4788 67.6209 70.4758C74.9687 63.4727 79.3397 53.9105 79.8275 43.7717C76.062 30.7264 68.6694 21.2197 65.2636 21.7475C65.0926 23.1629 64.5972 24.0003 63.3175 24.7936C62.3916 25.3833 60.9791 25.7843 59.8497 25.1533C58.2574 28.568 58.9651 39.2247 56.901 49.6898C55.4768 56.9231 51.5667 56.9113 40.388 74.3237C38.5391 77.2046 37.2152 79.4338 36.2598 81.1736C37.6224 81.3148 38.9915 81.3856 40.3615 81.3859Z" fill="#077594"/>
</svg>
