<svg xmlns="http://www.w3.org/2000/svg" viewBox="0 0 412.12 424.02"><defs><style>.cls-1{fill:#065d75;}</style></defs><g id="Layer_2" data-name="Layer 2"><g id="Layer_1-2" data-name="Layer 1"><polygon class="cls-1" points="105.65 124.41 100.76 123.35 106.17 98.33 79.11 102.08 79.11 80.18 54.23 92.95 51.95 88.51 84.11 71.99 84.11 96.34 112.57 92.39 105.65 124.41"/><polygon class="cls-1" points="305.34 104.16 300.42 103.25 306.97 67.69 326.26 82.55 340.5 57.6 361.64 82.63 357.82 85.85 341.3 66.29 327.76 90.01 310.41 76.64 305.34 104.16"/><polygon class="cls-1" points="191.38 272.4 159.34 265.58 160.38 260.69 185.42 266.02 181.58 238.98 203.48 238.91 190.62 214.06 195.06 211.77 211.69 243.88 187.34 243.96 191.38 272.4"/><polygon class="cls-1" points="340.83 300.36 327.99 266.56 352.19 269.26 351.43 240.55 382.48 250.99 380.89 255.73 356.62 247.57 357.34 274.87 335.57 272.44 345.5 298.59 340.83 300.36"/><polygon class="cls-1" points="56.01 300.67 52.89 276.52 25.18 284.09 27.94 251.44 32.92 251.86 30.76 277.38 57.11 270.18 59.92 291.91 82.96 276.04 85.8 280.16 56.01 300.67"/><polygon class="cls-1" points="377.11 207.39 355.17 203.41 356.06 198.49 370.96 201.19 368.01 184.18 381.62 183.72 373.6 169.32 377.97 166.89 389.97 188.44 373.92 188.98 377.11 207.39"/><polygon class="cls-1" points="388.26 366.43 384.91 362.72 396.14 352.56 380.86 344.52 388.8 333.46 372.51 331.02 373.24 326.08 397.64 329.72 388.27 342.77 404.8 351.48 388.26 366.43"/><polygon class="cls-1" points="290.17 195.21 289.57 179.16 271.17 182.42 275.08 160.46 280 161.33 277.35 176.25 294.36 173.24 294.86 186.85 309.23 178.78 311.68 183.14 290.17 195.21"/><polygon class="cls-1" points="311.3 403.66 306.51 402.23 310.85 387.72 293.61 388.76 294.66 375.19 279.46 381.55 277.53 376.94 300.28 367.41 299.04 383.42 317.69 382.3 311.3 403.66"/><polygon class="cls-1" points="278.58 40.28 263.91 20.44 279.76 17.85 274.24 0 296.51 1.13 296.26 6.12 281.13 5.36 286.24 21.85 272.8 24.05 282.6 37.3 278.58 40.28"/><polygon class="cls-1" points="167.27 96.23 158.97 82.49 144.46 94.26 137.22 73.17 141.94 71.55 146.86 85.87 160.27 74.99 167.32 86.64 175.97 72.61 180.22 75.24 167.27 96.23"/><polygon class="cls-1" points="32.23 188.77 11.1 181.64 12.7 176.9 27.05 181.75 26.61 164.48 40.14 166.01 34.31 150.6 38.98 148.83 47.71 171.9 31.75 170.09 32.23 188.77"/><polygon class="cls-1" points="59.51 55.36 38.47 42.48 52.19 34.13 40.37 19.66 61.44 12.35 63.07 17.07 48.77 22.04 59.69 35.41 48.06 42.49 62.12 51.1 59.51 55.36"/><polygon class="cls-1" points="114.89 405.81 99.84 386.27 115.64 383.37 109.77 365.63 132.06 366.32 131.9 371.32 116.76 370.85 122.19 387.25 108.8 389.7 118.85 402.76 114.89 405.81"/><polygon class="cls-1" points="111.48 229.64 86.81 229.63 94.16 215.34 76.52 209.17 90.68 191.94 94.54 195.11 84.93 206.81 101.23 212.52 95 224.63 111.48 224.64 111.48 229.64"/><polygon class="cls-1" points="215.78 329.01 210.78 328.87 211.21 313.73 194.83 319.21 192.33 305.82 179.3 315.92 176.24 311.96 195.74 296.86 198.69 312.64 216.41 306.71 215.78 329.01"/><polygon class="cls-1" points="171.26 35.83 168.6 34.45 172.31 27.25 162.97 26.07 164.9 18.94 156.29 20.78 155.67 17.85 169.08 14.98 166.77 23.53 176.95 24.82 171.26 35.83"/><polygon class="cls-1" points="293.71 334.53 291 333.24 296.92 320.87 302.28 327.91 309.51 320.63 314.77 331.86 312.05 333.13 308.62 325.79 301.98 332.47 297.51 326.59 293.71 334.53"/><polygon class="cls-1" points="193.75 135.53 182.72 129.88 184.09 127.21 191.3 130.91 192.45 121.56 199.59 123.47 197.72 114.86 200.65 114.23 203.56 127.63 195.01 125.35 193.75 135.53"/><polygon class="cls-1" points="363.3 43.99 361.94 30.34 370.18 33.59 372.59 23.61 382.9 30.49 381.24 32.98 374.5 28.49 372.29 37.64 365.42 34.94 366.29 43.7 363.3 43.99"/><polygon class="cls-1" points="256.25 249.19 251.39 236.36 260.19 237.35 259.93 227.09 271.67 231.06 270.71 233.9 263.04 231.31 263.27 240.72 255.94 239.89 259.05 248.12 256.25 249.19"/><polygon class="cls-1" points="280.35 120.34 266.64 120.16 270.79 112.34 261.15 108.82 269.14 99.35 271.43 101.28 266.21 107.47 275.05 110.7 271.59 117.22 280.39 117.34 280.35 120.34"/><polygon class="cls-1" points="5.14 122.67 0 111.39 2.73 110.15 6.09 117.52 12.79 110.9 17.21 116.82 21.08 108.92 23.77 110.24 17.74 122.55 12.45 115.46 5.14 122.67"/><polygon class="cls-1" points="208.4 390.21 205.62 376.78 214.15 379.14 215.5 368.97 226.48 374.73 225.09 377.38 217.91 373.62 216.67 382.95 209.55 380.98 211.34 389.6 208.4 390.21"/><polygon class="cls-1" points="31.83 373.75 21.58 366.77 23.27 364.29 29.97 368.85 32.27 359.72 39.11 362.49 38.32 353.73 41.31 353.46 42.54 367.12 34.33 363.8 31.83 373.75"/><polygon class="cls-1" points="92.02 156.98 91.61 143.27 99.61 147.08 102.71 137.3 112.52 144.88 110.68 147.25 104.27 142.3 101.43 151.27 94.76 148.1 95.02 156.9 92.02 156.98"/><polygon class="cls-1" points="120.9 329.89 118.63 327.93 123.91 321.79 115.09 318.48 118.62 311.99 109.82 311.79 109.89 308.79 123.6 309.1 119.38 316.88 128.98 320.49 120.9 329.89"/><polygon class="cls-1" points="335.55 159.67 332.19 155.96 343.43 145.8 328.15 137.75 336.09 126.69 319.79 124.26 320.53 119.31 344.93 122.96 335.56 136 352.09 144.71 335.55 159.67"/><polygon class="cls-1" points="227.25 58.9 226.66 42.85 208.26 46.1 212.16 24.15 217.09 25.02 214.44 39.94 231.44 36.93 231.95 50.53 246.32 42.47 248.76 46.83 227.25 58.9"/><polygon class="cls-1" points="406.43 96.83 403.77 95.46 407.48 88.26 398.14 87.08 400.07 79.95 391.46 81.79 390.83 78.86 404.25 75.99 401.94 84.54 412.12 85.82 406.43 96.83"/><polygon class="cls-1" points="34.35 424.02 32.99 410.37 41.23 413.61 43.64 403.64 53.95 410.51 52.29 413.01 45.55 408.52 43.34 417.67 36.47 414.96 37.34 423.72 34.35 424.02"/><polygon class="cls-1" points="129.48 36.02 115.76 35.83 119.91 28.01 110.27 24.49 118.26 15.02 120.56 16.95 115.33 23.15 124.18 26.37 120.72 32.9 129.52 33.02 129.48 36.02"/><polygon class="cls-1" points="208.27 193.9 207.55 178.77 191.63 185.47 188.12 172.31 175.9 183.37 172.54 179.66 190.84 163.12 194.98 178.64 212.2 171.38 213.26 193.66 208.27 193.9"/></g></g></svg>