<svg xmlns="http://www.w3.org/2000/svg" viewBox="0 0 506.74 554.28"><style>.cls-1{fill:#065d75;}</style><g id="Layer_2" data-name="Layer 2"><g id="Layer_1-2" data-name="Layer 1"><rect class="cls-1" x="26.37" y="248.19" width="113.96" height="5" transform="translate(-134.41 101.11) rotate(-37.12)"/><rect class="cls-1" x="128.53" y="172.18" width="113.96" height="5" transform="translate(-67.83 147.37) rotate(-37.13)"/><rect class="cls-1" x="235.79" y="110.47" width="64.21" height="5" transform="translate(-13.89 184.59) rotate(-37.13)"/><rect class="cls-1" x="198.68" y="113.68" width="48.53" height="5" transform="translate(-24.94 158.11) rotate(-37.13)"/><rect class="cls-1" x="91.96" y="166.92" width="110.63" height="5" transform="translate(-72.19 122.25) rotate(-36.87)"/><rect class="cls-1" x="290.73" y="49.78" width="110.63" height="5" transform="translate(37.83 218.05) rotate(-36.87)"/><rect class="cls-1" x="238.18" y="60.96" width="110.63" height="5" transform="translate(20.61 188.77) rotate(-36.87)"/><rect class="cls-1" x="44.88" y="222.07" width="51.68" height="5" transform="translate(-120.6 87.34) rotate(-36.87)"/><rect class="cls-1" x="13.58" y="186.59" width="113.96" height="5" transform="translate(-97.22 76.92) rotate(-35.77)"/><rect class="cls-1" x="117.5" y="113.01" width="113.96" height="5" transform="translate(-34.61 123.76) rotate(-35.76)"/><rect class="cls-1" x="226.19" y="53.26" width="64.21" height="5" transform="translate(16.13 161.51) rotate(-35.77)"/><rect class="cls-1" x="189.02" y="55.41" width="48.53" height="5" transform="translate(6.38 135.6) rotate(-35.77)"/><rect class="cls-1" x="81.07" y="106.84" width="110.63" height="5" transform="translate(-38.15 99.55) rotate(-35.51)"/><rect class="cls-1" x="95.55" y="68.38" width="110.63" height="5" transform="translate(-13.11 100.83) rotate(-35.51)"/><rect class="cls-1" x="-7.36" y="144.45" width="110.63" height="5" transform="translate(-76.44 55.19) rotate(-35.51)"/><rect class="cls-1" x="32.7" y="160.18" width="51.68" height="5" transform="translate(-83.61 64.27) rotate(-35.51)"/><rect class="cls-1" x="4.41" y="405.97" width="113.96" height="5" transform="translate(-242.87 129.11) rotate(-38.89)"/><rect class="cls-1" x="104.17" y="326.84" width="113.96" height="5" transform="translate(-171.06 174.2) rotate(-38.89)"/><rect class="cls-1" x="209.48" y="262.61" width="64.21" height="5" transform="translate(-112.9 210.46) rotate(-38.89)"/><rect class="cls-1" x="172.5" y="267.21" width="48.53" height="5" transform="translate(-125.73 183.34) rotate(-38.89)"/><rect class="cls-1" x="67.46" y="322.76" width="110.63" height="5" transform="translate(-176.22 147.86) rotate(-38.64)"/><rect class="cls-1" x="262.5" y="199.53" width="110.63" height="5" transform="translate(-56.59 242.58) rotate(-38.62)"/><rect class="cls-1" x="210.33" y="212.33" width="110.63" height="5" transform="translate(-75.99 212.82) rotate(-38.62)"/><rect class="cls-1" x="22.12" y="380.26" width="51.68" height="5" transform="translate(-228.43 113.66) rotate(-38.62)"/><rect class="cls-1" x="-10.28" y="344.8" width="113.96" height="5" transform="translate(-201.95 100.38) rotate(-37.54)"/><rect class="cls-1" x="91.32" y="268.04" width="113.96" height="5" transform="translate(-134.14 146.4) rotate(-37.54)"/><rect class="cls-1" x="198.12" y="205.72" width="64.21" height="5" transform="translate(-79.2 183.42) rotate(-37.54)"/><rect class="cls-1" x="161.04" y="209.27" width="48.53" height="5" transform="translate(-90.66 156.77) rotate(-37.54)"/><rect class="cls-1" x="54.71" y="263.05" width="110.63" height="5" transform="translate(-138.38 120.93) rotate(-37.29)"/><rect class="cls-1" x="252.61" y="144.45" width="110.63" height="5" transform="translate(-26.09 216.58) rotate(-37.29)"/><rect class="cls-1" x="200.15" y="156.03" width="110.63" height="5" transform="translate(-43.82 187.16) rotate(-37.29)"/><rect class="cls-1" x="8.04" y="318.77" width="51.68" height="5" transform="translate(-187.7 86.18) rotate(-37.29)"/><rect class="cls-1" x="101.32" y="470.38" width="113.96" height="5" transform="translate(-266.89 212.32) rotate(-39.99)"/><rect class="cls-1" x="199.54" y="389.35" width="113.96" height="5" transform="translate(-191.84 256.5) rotate(-39.99)"/><rect class="cls-1" x="303.61" y="323.59" width="64.21" height="5" transform="translate(-131.06 292.02) rotate(-39.99)"/><rect class="cls-1" x="266.72" y="329.05" width="48.53" height="5" transform="translate(-145.03 264.55) rotate(-39.99)"/><rect class="cls-1" x="162.76" y="386" width="110.63" height="5" transform="translate(-197.94 229.05) rotate(-39.72)"/><rect class="cls-1" x="355.41" y="259.06" width="110.63" height="5" transform="translate(-72.34 322.86) rotate(-39.72)"/><rect class="cls-1" x="303.5" y="272.86" width="110.63" height="5" transform="translate(-93.14 292.96) rotate(-39.73)"/><rect class="cls-1" x="118.53" y="444.92" width="51.68" height="5" transform="translate(-252.61 195.55) rotate(-39.72)"/><rect class="cls-1" x="85.46" y="409.49" width="113.96" height="5" transform="translate(-226.08 179.14) rotate(-38.64)"/><rect class="cls-1" x="185.57" y="330.81" width="113.96" height="5" transform="translate(-155.03 224.43) rotate(-38.64)"/><rect class="cls-1" x="291.16" y="266.93" width="64.21" height="5" transform="translate(-97.47 260.86) rotate(-38.64)"/><rect class="cls-1" x="254.16" y="271.34" width="48.53" height="5" transform="translate(-110.04 233.82) rotate(-38.64)"/><rect class="cls-1" x="148.87" y="326.55" width="110.63" height="5" transform="translate(-160.19 197.93) rotate(-38.39)"/><rect class="cls-1" x="344.46" y="204.19" width="110.63" height="5" transform="translate(-41.93 292.9) rotate(-38.38)"/><rect class="cls-1" x="292.24" y="216.76" width="110.63" height="5" transform="translate(-61.03 263.19) rotate(-38.38)"/><rect class="cls-1" x="103.28" y="383.72" width="51.68" height="5" transform="translate(-211.91 163.64) rotate(-38.38)"/><rect class="cls-1" x="353.74" y="424.1" width="113.96" height="5" transform="translate(-180.3 389.55) rotate(-42.5)"/><rect class="cls-1" x="260.84" y="511.45" width="113.96" height="5" transform="translate(-263.71 349.72) rotate(-42.5)"/><rect class="cls-1" x="308.1" y="454.67" width="64.21" height="5" transform="translate(-219.47 349.93) rotate(-42.5)"/><rect class="cls-1" x="271.49" y="462.08" width="48.53" height="5" transform="matrix(0.74, -0.68, 0.68, 0.74, -236.18, 321.92)"/><rect class="cls-1" x="408.79" y="404.96" width="110.63" height="5" transform="translate(-153.4 417.82) rotate(-42.24)"/><rect class="cls-1" x="357" y="386.92" width="110.63" height="5" transform="translate(-154.72 378.34) rotate(-42.25)"/><rect class="cls-1" x="305.74" y="402.97" width="110.63" height="5" transform="translate(-178.83 348.05) rotate(-42.25)"/><rect class="cls-1" x="404.9" y="463.38" width="51.68" height="5" transform="translate(-201.34 410.58) rotate(-42.25)"/><rect class="cls-1" x="13.74" y="94.15" width="113.96" height="5" transform="translate(-42.43 57.4) rotate(-34.68)"/><rect class="cls-1" x="190.46" y="465.95" width="113.96" height="5" transform="translate(-247.13 278.52) rotate(-41.15)"/><rect class="cls-1" x="293.18" y="398.6" width="64.21" height="5" transform="translate(-183.59 313.11) rotate(-41.15)"/><rect class="cls-1" x="256.41" y="404.96" width="48.53" height="5" transform="translate(-198.8 285.36) rotate(-41.15)"/><rect class="cls-1" x="153.61" y="463.38" width="110.63" height="5" transform="translate(-253.99 250.47) rotate(-40.89)"/><rect class="cls-1" x="343.66" y="332.57" width="110.63" height="5" transform="translate(-121.98 343.01) rotate(-40.9)"/><rect class="cls-1" x="292.04" y="347.42" width="110.63" height="5" transform="translate(-144.3 312.83) rotate(-40.9)"/><rect class="cls-1" x="373.14" y="465.95" width="51.68" height="5" transform="translate(-209.29 375.49) rotate(-40.89)"/><rect class="cls-1" x="361.37" y="85.41" width="48.53" height="5" transform="translate(25.1 250.57) rotate(-37.13)"/><rect class="cls-1" x="400.87" y="32.69" width="110.63" height="5" transform="translate(70.12 280.74) rotate(-36.87)"/><rect class="cls-1" x="394.06" y="162.2" width="48.53" height="5" transform="translate(-14.62 285.86) rotate(-37.13)"/><rect class="cls-1" x="356.61" y="126.4" width="110.63" height="5" transform="translate(5.04 272.94) rotate(-36.87)"/><rect class="cls-1" x="399.2" y="318.77" width="113.96" height="5" transform="translate(-98.72 379.56) rotate(-41.15)"/><rect class="cls-1" x="394.06" y="288.22" width="48.53" height="5" transform="translate(-87.97 347.1) rotate(-41.15)"/><rect class="cls-1" x="397.95" y="194.48" width="110.63" height="5" transform="translate(-21.25 335.14) rotate(-39.72)"/><rect class="cls-1" x="310.97" y="131.99" width="110.63" height="5" transform="translate(-1.37 265.21) rotate(-39.73)"/><rect class="cls-1" x="303.5" y="74.71" width="110.63" height="5" transform="translate(26.56 233.15) rotate(-37.29)"/><rect class="cls-1" x="-2.55" y="444.92" width="113.96" height="5" transform="translate(-261.38 125.84) rotate(-37.54)"/><rect class="cls-1" x="-10.28" y="489.37" width="113.96" height="5" transform="translate(-290.06 130.33) rotate(-37.54)"/><rect class="cls-1" x="11.16" y="503.44" width="113.96" height="5" transform="translate(-294.2 146.31) rotate(-37.54)"/><rect class="cls-1" x="4.51" y="65.79" width="113.96" height="5" transform="translate(-28.88 51.61) rotate(-37.54)"/></g></g></svg>