<svg width="184" height="188" viewBox="0 0 184 188" fill="none" xmlns="http://www.w3.org/2000/svg">
<path d="M15.5061 94.9296C18.3218 92.0659 18.3288 87.4159 15.5216 84.5435C12.7144 81.6711 8.15617 81.664 5.34047 84.5277C2.52477 87.3914 2.51785 92.0414 5.32502 94.9138C8.1322 97.7862 12.6904 97.7933 15.5061 94.9296Z" fill="#FDC34C"/>
<path d="M32.6311 112.454C35.4468 109.591 35.4538 104.941 32.6466 102.068C29.8394 99.196 25.2812 99.1889 22.4655 102.053C19.6498 104.916 19.6429 109.566 22.45 112.439C25.2572 115.311 29.8154 115.318 32.6311 112.454Z" fill="#FDC34C"/>
<path d="M49.7581 129.979C52.5738 127.115 52.5807 122.465 49.7735 119.593C46.9664 116.72 42.4081 116.713 39.5924 119.577C36.7767 122.441 36.7698 127.091 39.577 129.963C42.3842 132.836 46.9424 132.843 49.7581 129.979Z" fill="#FDC34C"/>
<path d="M66.8831 147.503C69.6988 144.64 69.7057 139.99 66.8985 137.117C64.0914 134.245 59.5331 134.238 56.7174 137.101C53.9017 139.965 53.8948 144.615 56.702 147.488C59.5091 150.36 64.0674 150.367 66.8831 147.503Z" fill="#FDC34C"/>
<path d="M84.0101 165.028C86.8258 162.165 86.8327 157.515 84.0255 154.642C81.2183 151.77 76.6601 151.763 73.8444 154.626C71.0287 157.49 71.0218 162.14 73.8289 165.012C76.6361 167.885 81.1943 167.892 84.0101 165.028Z" fill="#FDC34C"/>
<path d="M101.137 182.553C103.953 179.689 103.96 175.039 101.152 172.167C98.3453 169.294 93.787 169.287 90.9713 172.151C88.1556 175.014 88.1487 179.664 90.9559 182.537C93.7631 185.409 98.3213 185.416 101.137 182.553Z" fill="#FDC34C"/>
<path d="M30.8225 79.3515C33.6383 76.4878 33.6452 71.8377 30.838 68.9653C28.0308 66.093 23.4726 66.0859 20.6569 68.9496C17.8412 71.8133 17.8343 76.4633 20.6414 79.3357C23.4486 82.2081 28.0068 82.2151 30.8225 79.3515Z" fill="#FDC34C"/>
<path d="M47.9495 96.8759C50.7652 94.0122 50.7721 89.3622 47.9649 86.4898C45.1578 83.6174 40.5995 83.6103 37.7838 86.474C34.9681 89.3377 34.9612 93.9877 37.7684 96.8601C40.5756 99.7325 45.1338 99.7396 47.9495 96.8759Z" fill="#FDC34C"/>
<path d="M65.0745 114.4C67.8902 111.537 67.8971 106.887 65.0899 104.014C62.2828 101.142 57.7245 101.135 54.9088 103.998C52.0931 106.862 52.0862 111.512 54.8934 114.385C57.7006 117.257 62.2588 117.264 65.0745 114.4Z" fill="#FDC34C"/>
<path d="M82.2015 131.925C85.0172 129.061 85.0241 124.411 82.2169 121.539C79.4097 118.666 74.8515 118.659 72.0358 121.523C69.2201 124.387 69.2132 129.037 72.0203 131.909C74.8275 134.781 79.3857 134.788 82.2015 131.925Z" fill="#FDC34C"/>
<path d="M99.3284 149.45C102.144 146.586 102.151 141.936 99.3439 139.063C96.5367 136.191 91.9784 136.184 89.1627 139.048C86.347 141.911 86.3401 146.561 89.1473 149.434C91.9545 152.306 96.5127 152.313 99.3284 149.45Z" fill="#FDC34C"/>
<path d="M116.455 166.974C119.271 164.11 119.278 159.46 116.471 156.587C113.664 153.715 109.105 153.708 106.29 156.572C103.474 159.435 103.467 164.085 106.274 166.958C109.081 169.83 113.64 169.837 116.455 166.974Z" fill="#FDC34C"/>
<path d="M46.4202 63.4872C49.2359 60.6235 49.2428 55.9735 46.4357 53.1011C43.6285 50.2287 39.0702 50.2216 36.2545 53.0853C33.4388 55.949 33.4319 60.599 36.2391 63.4714C39.0463 66.3438 43.6045 66.3509 46.4202 63.4872Z" fill="#FDC34C"/>
<path d="M63.5472 81.0116C66.3629 78.1479 66.3698 73.4979 63.5626 70.6255C60.7554 67.7531 56.1972 67.7461 53.3815 70.6097C50.5658 73.4734 50.5589 78.1235 53.366 80.9959C56.1732 83.8682 60.7315 83.8753 63.5472 81.0116Z" fill="#FDC34C"/>
<path d="M80.6741 98.536C83.4898 95.6723 83.4967 91.0223 80.6896 88.1499C77.8824 85.2775 73.3241 85.2705 70.5084 88.1342C67.6927 90.9979 67.6858 95.6479 70.493 98.5203C73.3002 101.393 77.8584 101.4 80.6741 98.536Z" fill="#FDC34C"/>
<path d="M97.7991 116.061C100.615 113.197 100.622 108.547 97.8146 105.675C95.0074 102.802 90.4491 102.795 87.6334 105.659C84.8177 108.523 84.8108 113.173 87.618 116.045C90.4252 118.918 94.9834 118.925 97.7991 116.061Z" fill="#FDC34C"/>
<path d="M114.926 133.585C117.742 130.722 117.749 126.072 114.942 123.199C112.134 120.327 107.576 120.32 104.76 123.183C101.945 126.047 101.938 130.697 104.745 133.57C107.552 136.442 112.11 136.449 114.926 133.585Z" fill="#FDC34C"/>
<path d="M132.053 151.11C134.869 148.246 134.876 143.596 132.068 140.724C129.261 137.851 124.703 137.844 121.887 140.708C119.072 143.572 119.065 148.222 121.872 151.094C124.679 153.966 129.237 153.973 132.053 151.11Z" fill="#FDC34C"/>
<path d="M61.7386 47.9086C64.5543 45.0449 64.5612 40.3949 61.754 37.5225C58.9468 34.6501 54.3886 34.643 51.5729 37.5067C48.7572 40.3704 48.7503 45.0204 51.5574 47.8928C54.3646 50.7652 58.9229 50.7723 61.7386 47.9086Z" fill="#FDC34C"/>
<path d="M78.8636 65.433C81.6793 62.5693 81.6862 57.9193 78.879 55.0469C76.0718 52.1745 71.5136 52.1674 68.6979 55.0311C65.8822 57.8948 65.8753 62.5448 68.6824 65.4172C71.4896 68.2896 76.0479 68.2967 78.8636 65.433Z" fill="#FDC34C"/>
<path d="M95.9905 82.9574C98.8062 80.0937 98.8131 75.4437 96.006 72.5713C93.1988 69.6989 88.6405 69.6919 85.8248 72.5555C83.0091 75.4192 83.0022 80.0693 85.8094 82.9417C88.6166 85.8141 93.1748 85.8211 95.9905 82.9574Z" fill="#FDC34C"/>
<path d="M113.117 100.482C115.933 97.6186 115.94 92.9686 113.133 90.0962C110.326 87.2238 105.768 87.2168 102.952 90.0805C100.136 92.9441 100.129 97.5942 102.936 100.467C105.744 103.339 110.302 103.346 113.117 100.482Z" fill="#FDC34C"/>
<path d="M130.244 118.007C133.06 115.143 133.067 110.493 130.26 107.621C127.453 104.748 122.894 104.741 120.079 107.605C117.263 110.469 117.256 115.119 120.063 117.991C122.87 120.863 127.429 120.87 130.244 118.007Z" fill="#FDC34C"/>
<path d="M147.371 135.531C150.187 132.667 150.194 128.017 147.387 125.145C144.58 122.273 140.021 122.266 137.206 125.129C134.39 127.993 134.383 132.643 137.19 135.515C139.997 138.388 144.556 138.395 147.371 135.531Z" fill="#FDC34C"/>
<path d="M77.5804 32.2948C80.3961 29.4311 80.403 24.7811 77.5958 21.9087C74.7886 19.0363 70.2304 19.0293 67.4147 21.8929C64.599 24.7566 64.5921 29.4067 67.3992 32.2791C70.2064 35.1515 74.7647 35.1585 77.5804 32.2948Z" fill="#FDC34C"/>
<path d="M94.7073 49.8192C97.523 46.9555 97.5299 42.3055 94.7228 39.4331C91.9156 36.5607 87.3573 36.5537 84.5416 39.4174C81.7259 42.2811 81.719 46.9311 84.5262 49.8035C87.3334 52.6759 91.8916 52.6829 94.7073 49.8192Z" fill="#FDC34C"/>
<path d="M111.834 67.3436C114.65 64.4799 114.657 59.8299 111.85 56.9575C109.043 54.0851 104.484 54.0781 101.669 56.9418C98.8529 59.8055 98.846 64.4555 101.653 67.3279C104.46 70.2003 109.019 70.2073 111.834 67.3436Z" fill="#FDC34C"/>
<path d="M128.961 84.8695C131.777 82.0058 131.784 77.3558 128.977 74.4834C126.169 71.611 121.611 71.604 118.796 74.4677C115.98 77.3313 115.973 81.9814 118.78 84.8538C121.587 87.7262 126.146 87.7332 128.961 84.8695Z" fill="#FDC34C"/>
<path d="M146.088 102.394C148.904 99.5302 148.911 94.8802 146.104 92.0078C143.296 89.1354 138.738 89.1284 135.923 91.9921C133.107 94.8558 133.1 99.5058 135.907 102.378C138.714 105.251 143.272 105.258 146.088 102.394Z" fill="#FDC34C"/>
<path d="M163.215 119.918C166.031 117.055 166.038 112.405 163.231 109.532C160.423 106.66 155.865 106.653 153.049 109.516C150.234 112.38 150.227 117.03 153.034 119.903C155.841 122.775 160.399 122.782 163.215 119.918Z" fill="#FDC34C"/>
<path d="M92.8987 16.7147C95.7144 13.851 95.7213 9.20103 92.9142 6.32863C90.107 3.45624 85.5487 3.44918 82.733 6.31288C79.9173 9.17657 79.9104 13.8266 82.7176 16.699C85.5248 19.5714 90.083 19.5784 92.8987 16.7147Z" fill="#FDC34C"/>
<path d="M110.026 34.2392C112.841 31.3755 112.848 26.7254 110.041 23.853C107.234 20.9806 102.676 20.9736 99.86 23.8373C97.0443 26.701 97.0374 31.351 99.8446 34.2234C102.652 37.0958 107.21 37.1028 110.026 34.2392Z" fill="#FDC34C"/>
<path d="M127.153 51.7636C129.968 48.8999 129.975 44.2499 127.168 41.3775C124.361 38.5051 119.803 38.498 116.987 41.3617C114.171 44.2254 114.164 48.8754 116.972 51.7478C119.779 54.6202 124.337 54.6273 127.153 51.7636Z" fill="#FDC34C"/>
<path d="M144.28 69.2895C147.095 66.4258 147.102 61.7757 144.295 58.9033C141.488 56.0309 136.93 56.0239 134.114 58.8876C131.298 61.7513 131.291 66.4013 134.098 69.2737C136.906 72.1461 141.464 72.1531 144.28 69.2895Z" fill="#FDC34C"/>
<path d="M161.407 86.8139C164.222 83.9502 164.229 79.3001 161.422 76.4277C158.615 73.5554 154.057 73.5483 151.241 76.412C148.425 79.2757 148.418 83.9257 151.225 86.7981C154.033 89.6705 158.591 89.6776 161.407 86.8139Z" fill="#FDC34C"/>
<path d="M178.533 104.338C181.349 101.475 181.356 96.8246 178.549 93.9522C175.742 91.0798 171.184 91.0727 168.368 93.9364C165.552 96.8001 165.545 101.45 168.352 104.323C171.16 107.195 175.718 107.202 178.533 104.338Z" fill="#FDC34C"/>
</svg>
