<svg xmlns="http://www.w3.org/2000/svg" width="1500" height="1500" viewBox="0 0 1500 1500"><circle cx="110.85" cy="36.38" r="84.46" fill="#ffaa1e"/><circle cx="110.85" cy="321.01" r="84.46" fill="#ffaa1e"/><circle cx="110.85" cy="605.64" r="84.46" fill="#ffaa1e"/><circle cx="110.85" cy="890.28" r="84.46" fill="#ffaa1e"/><circle cx="110.85" cy="1174.91" r="84.46" fill="#ffaa1e"/><circle cx="110.85" cy="1459.55" r="84.46" fill="#ffaa1e"/><circle cx="364.66" cy="36.38" r="84.46" fill="#ffaa1e"/><circle cx="364.66" cy="321.01" r="84.46" fill="#ffaa1e"/><circle cx="364.66" cy="605.64" r="84.46" fill="#ffaa1e"/><circle cx="364.66" cy="890.28" r="84.46" fill="#ffaa1e"/><circle cx="364.66" cy="1174.91" r="84.46" fill="#ffaa1e"/><circle cx="364.66" cy="1459.55" r="84.46" fill="#ffaa1e"/><circle cx="623.1" cy="36.38" r="84.46" fill="#ffaa1e"/><circle cx="623.1" cy="321.01" r="84.46" fill="#ffaa1e"/><circle cx="623.1" cy="605.64" r="84.46" fill="#ffaa1e"/><circle cx="623.1" cy="890.28" r="84.46" fill="#ffaa1e"/><circle cx="623.1" cy="1174.91" r="84.46" fill="#ffaa1e"/><circle cx="623.1" cy="1459.55" r="84.46" fill="#ffaa1e"/><circle cx="876.9" cy="36.38" r="84.46" fill="#ffaa1e"/><circle cx="876.9" cy="321.01" r="84.46" fill="#ffaa1e"/><circle cx="876.9" cy="605.64" r="84.46" fill="#ffaa1e"/><circle cx="876.9" cy="890.28" r="84.46" fill="#ffaa1e"/><circle cx="876.9" cy="1174.91" r="84.46" fill="#ffaa1e"/><circle cx="876.9" cy="1459.55" r="84.46" fill="#ffaa1e"/><circle cx="1135.34" cy="40.45" r="84.46" fill="#ffaa1e"/><circle cx="1135.34" cy="325.09" r="84.46" fill="#ffaa1e"/><circle cx="1135.34" cy="609.72" r="84.46" fill="#ffaa1e"/><circle cx="1135.34" cy="894.36" r="84.46" fill="#ffaa1e"/><circle cx="1135.34" cy="1178.99" r="84.46" fill="#ffaa1e"/><circle cx="1135.34" cy="1463.62" r="84.46" fill="#ffaa1e"/><circle cx="1389.15" cy="40.45" r="84.46" fill="#ffaa1e"/><circle cx="1389.15" cy="325.09" r="84.46" fill="#ffaa1e"/><circle cx="1389.15" cy="609.72" r="84.46" fill="#ffaa1e"/><circle cx="1389.15" cy="894.36" r="84.46" fill="#ffaa1e"/><circle cx="1389.15" cy="1178.99" r="84.46" fill="#ffaa1e"/><circle cx="1389.15" cy="1463.62" r="84.46" fill="#ffaa1e"/></svg>