<svg xmlns="http://www.w3.org/2000/svg" width="1500" height="1500" viewBox="0 0 1500 1500"><path d="M721.27-172.89A619,619,0,0,0,673-36.19C659.29,24.58,646.36,82,661,139.45c10.45,41.09,28.23,56.7,55.13,80.34,27.87,24.48,62.54,54.93,89.08,116.62C859.38,462.3,826.23,591.76,810.3,654c-15.09,58.93-32.17,88.2-47.23,114-13.21,22.66-25.69,44.06-38.54,90.22-10.58,38-42.78,153.76-7.08,281,14.07,50.2,32.44,79.17,50.2,107.18,21.9,34.53,44.53,70.24,51.27,132.14,8.83,81.14-13.89,165-67.52,249.33l-79-50.23c41.94-65.92,59.92-129.5,53.45-189-4.39-40.29-17.47-60.92-37.28-92.16-19.37-30.56-43.48-68.59-61.27-132-18-64.19-23.74-133.11-17.05-204.85a704.5,704.5,0,0,1,24.09-126.52c16.08-57.79,33-86.73,47.85-112.27,13.71-23.52,25.55-43.82,37.41-90.11C734,574.58,760.8,470,719.23,373.41c-18.21-42.3-39.85-61.31-64.89-83.31-31.17-27.38-66.47-58.39-84.07-127.6C550.14,83.3,566.9,8.9,581.69-56.75a712.26,712.26,0,0,1,55.59-157.42Z" fill="#db2e1f"/><path d="M532.58-184.28a619,619,0,0,0-48.29,136.7c-13.69,60.77-26.61,118.17-12,175.64,10.45,41.09,28.23,56.7,55.13,80.34C555.28,232.88,590,263.33,616.49,325c54.2,125.89,21,255.35,5.12,317.57-15.09,58.93-32.17,88.2-47.23,114-13.21,22.66-25.69,44.06-38.53,90.22-10.59,38-42.79,153.76-7.09,281C542.83,1178,561.2,1207,579,1235c21.9,34.53,44.53,70.24,51.27,132.14,8.83,81.14-13.89,165-67.52,249.33l-79-50.23c41.94-65.92,59.92-129.5,53.45-189-4.39-40.29-17.47-60.92-37.27-92.16-19.38-30.56-43.49-68.59-61.28-132-18-64.19-23.74-133.11-17-204.85a704.5,704.5,0,0,1,24.09-126.52c16.08-57.79,33-86.73,47.85-112.27C507.25,686,519.1,665.65,531,619.37c14.38-56.18,41.16-160.76-.41-257.35-18.21-42.3-39.84-61.31-64.89-83.31-31.16-27.38-66.48-58.39-84.07-127.6C361.45,71.91,378.21-2.49,393-68.14a712.26,712.26,0,0,1,55.59-157.42Z" fill="#db2e1f"/><path d="M1115.35-179.28a619,619,0,0,0-48.29,136.71c-13.69,60.77-26.62,118.17-12,175.64,10.45,41.09,28.23,56.71,55.13,80.34,27.86,24.47,62.53,54.93,89.08,116.62,54.2,125.89,21,255.35,5.11,317.57-15.08,58.93-32.16,88.2-47.22,114-13.21,22.66-25.69,44.06-38.54,90.22-10.58,38-42.78,153.76-7.09,281C1125.6,1183,1144,1212,1161.73,1240c21.9,34.53,44.53,70.24,51.27,132.14,8.83,81.14-13.89,165-67.53,249.33l-79-50.24c41.94-65.91,59.92-129.49,53.45-189-4.39-40.29-17.47-60.92-37.28-92.16-19.37-30.56-43.48-68.59-61.27-132-18-64.19-23.74-133.11-17-204.85a704.5,704.5,0,0,1,24.09-126.52c16.08-57.79,33-86.73,47.85-112.27,13.71-23.52,25.55-43.83,37.41-90.11,14.38-56.18,41.16-160.76-.41-257.35-18.21-42.31-39.85-61.31-64.89-83.31-31.16-27.37-66.47-58.39-84.07-127.6C944.22,76.91,961,2.51,975.77-63.13a712.08,712.08,0,0,1,55.59-157.42Z" fill="#db2e1f"/><path d="M926.66-190.67A619,619,0,0,0,878.37-54c-13.69,60.77-26.62,118.17-12,175.63,10.45,41.1,28.23,56.71,55.13,80.35C949.35,226.49,984,257,1010.57,318.64c54.2,125.89,21,255.35,5.11,317.57-15.08,58.93-32.16,88.2-47.22,114-13.21,22.66-25.69,44.06-38.54,90.22-10.58,38-42.78,153.76-7.08,281,14.07,50.19,32.44,79.17,50.2,107.18,21.9,34.53,44.53,70.24,51.27,132.14,8.83,81.14-13.89,165-67.53,249.33l-78.95-50.24c41.94-65.91,59.92-129.49,53.45-189-4.39-40.29-17.47-60.92-37.27-92.16-19.38-30.56-43.49-68.59-61.28-132-18-64.19-23.74-133.11-17.05-204.85a704.5,704.5,0,0,1,24.09-126.52c16.08-57.79,33-86.73,47.85-112.27C901.33,679.58,913.18,659.27,925,613c14.38-56.18,41.16-160.76-.41-257.35-18.21-42.31-39.84-61.31-64.89-83.31-31.16-27.37-66.48-58.39-84.07-127.6C755.53,65.52,772.29-8.88,787.08-74.52a712.08,712.08,0,0,1,55.59-157.42Z" fill="#db2e1f"/><path d="M352.52-180A619,619,0,0,0,304.23-43.32c-13.69,60.77-26.62,118.17-12,175.63,10.45,41.1,28.22,56.71,55.13,80.35,27.86,24.48,62.53,54.93,89.08,116.61,54.2,125.9,21.05,255.36,5.11,317.57-15.09,58.94-32.16,88.21-47.22,114-13.21,22.66-25.69,44.06-38.54,90.22-10.58,38-42.78,153.75-7.08,281,14.07,50.19,32.44,79.16,50.2,107.18,21.89,34.53,44.53,70.24,51.27,132.14,8.83,81.14-13.89,165-67.53,249.33l-78.95-50.24c41.94-65.91,59.92-129.49,53.45-189-4.39-40.29-17.47-60.93-37.27-92.16-19.38-30.56-43.49-68.59-61.28-132-18-64.19-23.74-133.11-17-204.85,5.62-60.15,18.56-106.66,24.08-126.52,16.08-57.79,33-86.73,47.86-112.27,13.71-23.52,25.56-43.83,37.41-90.11,14.38-56.19,41.16-160.77-.41-257.36C332.27,324,310.64,305,285.59,283c-31.16-27.37-66.48-58.39-84.07-127.59C181.39,76.16,198.15,1.76,212.94-63.88A712.26,712.26,0,0,1,268.53-221.3Z" fill="#db2e1f"/><path d="M163.83-191.42A618.86,618.86,0,0,0,115.54-54.71c-13.69,60.77-26.62,118.17-12,175.63,10.45,41.1,28.23,56.71,55.13,80.35,27.86,24.47,62.53,54.93,89.09,116.61,54.19,125.9,21,255.36,5.11,317.58-15.09,58.93-32.17,88.2-47.23,114-13.21,22.66-25.69,44.06-38.53,90.22-10.59,38-42.79,153.75-7.09,281,14.07,50.19,32.44,79.16,50.2,107.18,21.9,34.53,44.53,70.24,51.27,132.14,8.83,81.14-13.89,165-67.52,249.33l-79-50.24c41.94-65.91,59.92-129.49,53.45-189-4.39-40.29-17.47-60.92-37.27-92.16-19.38-30.56-43.49-68.59-61.28-132-18-64.19-23.74-133.11-17.05-204.85A704.5,704.5,0,0,1,76.94,814.62c16.08-57.79,33-86.74,47.85-112.27,13.71-23.52,25.56-43.83,37.41-90.11,14.38-56.18,41.16-160.76-.41-257.36-18.21-42.3-39.84-61.3-64.89-83.31C65.74,244.21,30.43,213.18,12.83,144-7.3,64.77,9.46-9.63,24.25-75.27A711.9,711.9,0,0,1,79.84-232.69Z" fill="#db2e1f"/><path d="M1328.23-199.38a618.71,618.71,0,0,0-48.29,136.71c-13.69,60.77-26.62,118.17-12,175.64,10.44,41.09,28.22,56.7,55.13,80.34,27.86,24.47,62.53,54.93,89.08,116.62,54.19,125.89,21,255.35,5.11,317.56-15.09,58.94-32.16,88.21-47.22,114-13.22,22.66-25.7,44.06-38.54,90.22-10.58,38-42.78,153.76-7.09,281,14.08,50.19,32.45,79.16,50.21,107.18,21.89,34.53,44.53,70.24,51.27,132.14,8.83,81.14-13.89,165-67.53,249.33l-78.95-50.23c41.93-65.92,59.92-129.5,53.44-189-4.38-40.29-17.47-60.92-37.27-92.16-19.37-30.56-43.48-68.59-61.28-132-18-64.19-23.74-133.11-17-204.85,5.62-60.15,18.56-106.66,24.08-126.52,16.08-57.79,33-86.73,47.85-112.27,13.72-23.52,25.56-43.83,37.41-90.11,14.39-56.18,41.17-160.76-.41-257.35-18.21-42.3-39.84-61.31-64.89-83.31-31.16-27.38-66.47-58.39-84.06-127.6-20.14-79.2-3.37-153.61,11.41-219.25a712.29,712.29,0,0,1,55.6-157.42Z" fill="#db2e1f"/><path d="M1528.07-151.15a618.53,618.53,0,0,0-48.29,136.71c-13.69,60.77-26.62,118.17-12,175.63,10.45,41.1,28.22,56.71,55.13,80.35,27.86,24.48,62.53,54.93,89.08,116.62,54.19,125.89,21,255.35,5.11,317.57-15.09,58.93-32.16,88.2-47.22,114-13.21,22.66-25.69,44.06-38.54,90.22-10.58,38-42.78,153.76-7.09,281,14.08,50.19,32.45,79.16,50.21,107.18,21.89,34.53,44.53,70.24,51.27,132.14,8.83,81.14-13.89,165-67.53,249.33l-79-50.24c41.94-65.91,59.92-129.49,53.44-189-4.38-40.29-17.46-60.92-37.27-92.16-19.37-30.56-43.48-68.59-61.27-132-18-64.19-23.74-133.11-17.05-204.85,5.62-60.15,18.56-106.66,24.08-126.52,16.08-57.79,33-86.73,47.86-112.27,13.71-23.52,25.55-43.83,37.4-90.11,14.39-56.18,41.17-160.76-.41-257.36-18.2-42.29-39.84-61.3-64.89-83.3-31.15-27.38-66.47-58.4-84.06-127.6C1356.93,105,1373.7,30.64,1388.49-35a712.36,712.36,0,0,1,55.59-157.41Z" fill="#db2e1f"/><path d="M-56-204.4A618.45,618.45,0,0,0-104.31-67.7c-13.69,60.77-26.62,118.17-12,175.63,10.45,41.1,28.22,56.72,55.13,80.35,27.86,24.47,62.53,54.93,89.08,116.62,54.19,125.89,21,255.35,5.11,317.57C17.91,681.4.84,710.67-14.22,736.5c-13.21,22.66-25.69,44.06-38.54,90.22-10.58,38-42.78,153.76-7.09,281,14.08,50.19,32.45,79.17,50.21,107.18,21.89,34.53,44.53,70.24,51.27,132.14,8.83,81.14-13.89,165-67.53,249.33l-78.95-50.23c41.94-65.92,59.92-129.5,53.44-189-4.38-40.29-17.46-60.92-37.27-92.16-19.37-30.56-43.48-68.59-61.27-132-18-64.19-23.74-133.11-17.05-204.85,5.62-60.15,18.56-106.66,24.08-126.52,16.08-57.79,33-86.73,47.86-112.27,13.71-23.52,25.55-43.83,37.4-90.11,14.39-56.18,41.17-160.76-.4-257.36-18.21-42.3-39.84-61.3-64.89-83.3C-154.11,231.22-189.42,200.2-207,131c-20.13-79.21-3.37-153.61,11.42-219.25A711.93,711.93,0,0,1-140-245.68Z" fill="#db2e1f"/></svg>