<svg xmlns="http://www.w3.org/2000/svg" width="1500" height="1500" viewBox="0 0 1500 1500"><path d="M1582.33,749.67a618.94,618.94,0,0,0-134.19-54.91c-60-16.64-116.73-32.36-174.84-20.58-41.55,8.43-58,25.43-82.94,51.14-25.81,26.64-57.92,59.78-120.83,83.28-128.39,48-256.07,8.54-317.44-10.41-58.12-18-86.53-36.43-111.59-52.74-22-14.3-42.75-27.81-88.23-42.89C514.81,690.13,400.79,652.31,272,681.75c-50.82,11.61-80.65,28.54-109.5,44.91-35.56,20.18-72.33,41-134.49,44.75-81.47,4.86-164.15-21.93-245.73-79.63l54-76.4C-99.95,660.49-37.33,681.55,22.39,678c40.45-2.41,61.7-14.47,93.87-32.72,31.47-17.86,70.63-40.09,134.85-54.76,65-14.85,134.11-17.21,205.43-7,59.81,8.54,105.63,23.74,125.19,30.23,56.94,18.88,85,37.16,109.81,53.28,22.81,14.85,42.52,27.67,88.17,41.77,55.41,17.11,158.56,49,257.07,12.16,43.14-16.12,63.17-36.8,86.38-60.74,28.86-29.79,61.57-63.54,131.55-77.73,80.09-16.24,153.58,4.13,218.43,22.11a712.08,712.08,0,0,1,154.51,63.22Z" fill="#db2e1f"/><path d="M1602.92,561.76a618.73,618.73,0,0,0-134.19-54.91c-60-16.64-116.72-32.36-174.83-20.57-41.56,8.42-58,25.42-82.94,51.13-25.81,26.64-57.93,59.78-120.83,83.28-128.39,48-256.08,8.55-317.44-10.41-58.13-17.95-86.53-36.43-111.6-52.73-22-14.31-42.75-27.82-88.22-42.9-37.47-12.43-151.48-50.25-280.33-20.81-50.81,11.61-80.65,28.54-109.5,44.91-35.56,20.18-72.33,41-134.48,44.75-81.48,4.86-164.16-21.93-245.74-79.62l54-76.41C-79.36,472.58-16.73,493.65,43,490.08c40.45-2.41,61.7-14.47,93.86-32.72,31.47-17.86,70.64-40.08,134.85-54.75,65-14.85,134.11-17.21,205.44-7,59.81,8.55,105.62,23.74,125.19,30.23,56.93,18.89,85,37.16,109.8,53.28C735,494,754.65,506.77,800.3,520.87c55.42,17.11,158.57,49,257.07,12.16,43.14-16.12,63.18-36.79,86.38-60.74,28.87-29.78,61.57-63.54,131.55-77.73,80.1-16.24,153.59,4.13,218.43,22.11a712,712,0,0,1,154.52,63.22Z" fill="#db2e1f"/><path d="M1569.45,1143.59a618.53,618.53,0,0,0-134.19-54.91c-60-16.64-116.72-32.36-174.83-20.58-41.56,8.43-58,25.42-82.94,51.14-25.81,26.63-57.93,59.78-120.84,83.28-128.39,48-256.08,8.54-317.44-10.41-58.12-17.95-86.52-36.43-111.59-52.73-22-14.31-42.75-27.82-88.23-42.9-37.46-12.43-151.48-50.25-280.32-20.81-50.82,11.61-80.65,28.54-109.5,44.91-35.56,20.18-72.33,41-134.49,44.75-81.47,4.86-164.15-21.93-245.73-79.63l54-76.4c63.79,45.11,126.41,66.17,186.13,62.61,40.45-2.41,61.7-14.47,93.87-32.72,31.47-17.86,70.63-40.08,134.85-54.76,65-14.84,134.11-17.21,205.43-7,59.81,8.54,105.63,23.74,125.2,30.23,56.93,18.89,85,37.16,109.8,53.28,22.82,14.85,42.52,27.67,88.17,41.77,55.41,17.11,158.56,49,257.07,12.16,43.14-16.12,63.18-36.8,86.38-60.74,28.86-29.78,61.56-63.54,131.55-77.73,80.09-16.24,153.59,4.13,218.43,22.11a712,712,0,0,1,154.52,63.22Z" fill="#db2e1f"/><path d="M1590,955.68a619.16,619.16,0,0,0-134.18-54.91c-60-16.64-116.73-32.36-174.84-20.57-41.55,8.42-58,25.42-82.94,51.13-25.81,26.63-57.92,59.78-120.83,83.29-128.39,48-256.08,8.54-317.44-10.41-58.12-18-86.53-36.44-111.59-52.74-22-14.31-42.75-27.82-88.23-42.9-37.47-12.43-151.48-50.25-280.32-20.81C228.85,899.37,199,916.3,170.16,932.67c-35.56,20.18-72.33,41.05-134.48,44.75-81.48,4.86-164.16-21.93-245.74-79.62l54-76.41C-92.24,866.5-29.61,887.57,30.11,884c40.45-2.42,61.7-14.48,93.87-32.73,31.46-17.86,70.63-40.08,134.84-54.75,65-14.85,134.12-17.21,205.44-7a704.63,704.63,0,0,1,125.19,30.23c56.94,18.89,85,37.16,109.8,53.29,22.82,14.84,42.53,27.66,88.17,41.76,55.42,17.11,158.57,49,257.07,12.16,43.14-16.12,63.18-36.79,86.38-60.74,28.86-29.78,61.57-63.54,131.55-77.73,80.1-16.24,153.59,4.13,218.43,22.11a712.75,712.75,0,0,1,154.52,63.22Z" fill="#db2e1f"/><path d="M1607.46,381.71a618.16,618.16,0,0,0-134.18-54.91c-60-16.64-116.73-32.36-174.84-20.58-41.55,8.43-58,25.42-82.94,51.14-25.81,26.63-57.92,59.77-120.83,83.28-128.39,48-256.07,8.54-317.44-10.41-58.12-18-86.53-36.43-111.59-52.74-22-14.3-42.75-27.81-88.23-42.9-37.46-12.42-151.48-50.24-280.32-20.8-50.82,11.6-80.65,28.54-109.5,44.91-35.56,20.18-72.33,41-134.49,44.75C-28.37,408.3-111,381.52-192.63,323.82l54-76.41C-74.81,292.52-12.19,313.59,47.53,310c40.45-2.41,61.7-14.47,93.87-32.72,31.47-17.86,70.63-40.09,134.85-54.76,65-14.85,134.11-17.21,205.43-7,59.81,8.55,105.63,23.75,125.19,30.24,56.94,18.88,85,37.16,109.8,53.28,22.82,14.85,42.53,27.67,88.18,41.76,55.41,17.12,158.56,49,257.07,12.17,43.14-16.12,63.17-36.8,86.38-60.74,28.86-29.79,61.56-63.54,131.54-77.73,80.1-16.25,153.59,4.13,218.44,22.11a712.55,712.55,0,0,1,154.51,63.21Z" fill="#db2e1f"/><path d="M1628.06,193.8a619,619,0,0,0-134.19-54.91c-60-16.64-116.72-32.36-174.83-20.58-41.56,8.43-58,25.42-82.94,51.14-25.8,26.63-57.92,59.78-120.83,83.28-128.4,48-256.08,8.54-317.45-10.41-58.12-17.95-86.52-36.43-111.58-52.73-22-14.31-42.76-27.82-88.23-42.9-37.47-12.43-151.49-50.25-280.33-20.81-50.82,11.61-80.65,28.54-109.5,44.91C172.62,191,135.85,211.84,73.69,215.54-7.78,220.4-90.46,193.61-172,135.92l54-76.41C-54.22,104.62,8.4,125.68,68.12,122.12c40.46-2.41,61.71-14.47,93.87-32.72,31.47-17.86,70.64-40.08,134.85-54.76,65-14.84,134.11-17.2,205.43-7,59.81,8.54,105.63,23.74,125.2,30.23,56.93,18.89,85,37.16,109.8,53.28,22.82,14.85,42.53,27.67,88.17,41.77,55.41,17.11,158.56,49,257.07,12.16,43.14-16.12,63.18-36.8,86.38-60.74,28.86-29.79,61.57-63.54,131.55-77.73,80.09-16.24,153.59,4.13,218.43,22.11a712,712,0,0,1,154.52,63.22Z" fill="#db2e1f"/><path d="M1579.12,1357.2a618.16,618.16,0,0,0-134.18-54.91c-60-16.65-116.73-32.36-174.84-20.58-41.55,8.42-58,25.42-82.94,51.14-25.8,26.63-57.92,59.77-120.83,83.28-128.39,48-256.08,8.54-317.44-10.41-58.12-18-86.53-36.44-111.59-52.74-22-14.3-42.75-27.82-88.23-42.9-37.47-12.43-151.48-50.24-280.32-20.81-50.82,11.61-80.65,28.54-109.5,44.91-35.56,20.18-72.33,41-134.49,44.76-81.47,4.85-164.15-21.94-245.73-79.63l54-76.41c63.79,45.11,126.41,66.18,186.13,62.62,40.45-2.41,61.7-14.47,93.87-32.73,31.47-17.85,70.63-40.08,134.84-54.75,65-14.85,134.12-17.21,205.44-7,59.81,8.55,105.63,23.75,125.19,30.24,56.94,18.88,85,37.15,109.8,53.28,22.82,14.84,42.53,27.66,88.17,41.76,55.42,17.12,158.57,49,257.07,12.17,43.14-16.13,63.18-36.8,86.38-60.75,28.87-29.78,61.57-63.54,131.55-77.73,80.1-16.24,153.59,4.14,218.44,22.11a713.08,713.08,0,0,1,154.51,63.22Z" fill="#db2e1f"/><path d="M1521.19,1554.44A618.73,618.73,0,0,0,1387,1499.53c-60-16.64-116.72-32.36-174.83-20.57-41.56,8.42-58,25.41-82.94,51.13-25.82,26.63-57.93,59.78-120.83,83.28-128.4,48-256.08,8.54-317.45-10.41-58.12-18-86.52-36.43-111.59-52.73-22-14.31-42.75-27.82-88.23-42.9-37.46-12.43-151.48-50.25-280.32-20.81-50.82,11.61-80.65,28.54-109.5,44.91-35.56,20.18-72.33,41-134.49,44.75-81.47,4.86-164.15-21.93-245.73-79.62l54-76.41c63.79,45.11,126.41,66.17,186.13,62.61C1.7,1480.35,23,1468.29,55.12,1450c31.47-17.86,70.64-40.08,134.85-54.76,65-14.84,134.11-17.2,205.43-7,59.81,8.54,105.63,23.74,125.2,30.23,56.93,18.89,85,37.16,109.8,53.28,22.82,14.85,42.52,27.67,88.17,41.77,55.41,17.11,158.56,49,257.07,12.16,43.14-16.12,63.18-36.8,86.38-60.74,28.86-29.78,61.57-63.54,131.55-77.73,80.1-16.24,153.59,4.13,218.44,22.11a712.29,712.29,0,0,1,154.51,63.22Z" fill="#db2e1f"/><path d="M1651.77-25.15a618.36,618.36,0,0,0-134.18-54.91c-60-16.64-116.73-32.36-174.84-20.58-41.55,8.43-58,25.42-82.94,51.14C1234-22.87,1201.89,10.27,1139,33.78c-128.39,48-256.08,8.54-317.44-10.41C763.41,5.42,735-13.06,710-29.37c-22-14.3-42.75-27.81-88.23-42.9C584.25-84.7,470.23-122.51,341.4-93.08c-50.82,11.61-80.66,28.54-109.51,44.92C196.33-28,159.56-7.12,97.41-3.41,15.93,1.44-66.74-25.35-148.33-83l54-76.41C-30.5-114.34,32.12-93.27,91.84-96.83c40.45-2.41,61.7-14.47,93.87-32.73,31.47-17.85,70.63-40.08,134.84-54.75,65-14.85,134.12-17.21,205.44-7,59.8,8.55,105.62,23.75,125.19,30.24,56.94,18.88,85,37.15,109.8,53.28C783.8-93,803.51-80.15,849.15-66c55.42,17.12,158.57,49,257.07,12.17,43.15-16.12,63.18-36.8,86.38-60.75,28.86-29.77,61.57-63.53,131.55-77.73,80.1-16.24,153.6,4.14,218.44,22.12A712.75,712.75,0,0,1,1697.1-107Z" fill="#db2e1f"/></svg>