<svg width="207" height="192" viewBox="0 0 207 192" fill="none" xmlns="http://www.w3.org/2000/svg">
<path d="M194.254 99.1468C189.847 96.7057 185.168 94.791 180.313 93.4422C174.08 91.7135 168.186 90.0804 162.149 91.3042C157.833 92.18 156.124 93.9461 153.533 96.6171C150.851 99.3847 147.515 102.828 140.98 105.269C127.641 110.256 114.377 106.156 108.001 104.188C101.963 102.318 99.0116 100.403 96.4081 98.7084C94.1225 97.2228 91.9668 95.8192 87.2419 94.2526C83.3502 92.9612 71.5047 89.0321 58.1248 92.0906C52.8451 93.2968 49.7461 95.0556 46.7489 96.7563C43.0546 98.8528 39.2346 101.016 32.7768 101.405C24.3129 101.91 15.7234 99.1271 7.24805 93.1326L12.8581 85.1955C19.4831 89.8819 25.9887 92.0698 32.193 91.701C36.3953 91.4507 38.6029 90.1978 41.9451 88.3018C45.2145 86.4463 49.2828 84.1368 55.9546 82.6128C62.7074 81.07 69.8872 80.8248 77.2966 81.8856C83.5102 82.7728 88.2704 84.3519 90.3025 85.0261C96.218 86.9876 99.1331 88.8867 101.711 90.5614C104.08 92.1041 106.128 93.436 110.871 94.9008C116.627 96.6784 127.343 99.9914 137.577 96.1641C142.059 94.4894 144.14 92.341 146.551 89.8539C149.55 86.759 152.948 83.2527 160.218 81.7785C168.539 80.0914 176.173 82.2076 182.911 84.0755C188.5 85.6279 193.888 87.8323 198.963 90.6434L194.254 99.1468Z" fill="#DE4A36"/>
<path d="M196.388 79.6249C191.981 77.1836 187.302 75.269 182.447 73.9204C176.214 72.1917 170.322 70.5585 164.285 71.7834C159.967 72.6581 158.259 74.4242 155.668 77.0952C152.987 79.8628 149.65 83.3057 143.115 85.7472C129.777 90.7338 116.511 86.6354 110.136 84.6657C104.097 82.8008 101.147 80.881 98.5422 79.1876C96.2566 77.7009 94.1009 76.2974 89.3771 74.7307C85.4843 73.4394 73.6399 69.5103 60.2537 72.5688C54.9751 73.7749 51.875 75.5338 48.8778 77.2344C45.1835 79.3309 41.3635 81.4939 34.9068 81.8835C26.4418 82.3884 17.8523 79.6052 9.37695 73.6118L14.987 65.6736C21.6172 70.3601 28.1238 72.549 34.3291 72.1781C38.5315 71.9278 40.7391 70.6749 44.0802 68.7789C47.3496 66.9234 51.419 64.615 58.0897 63.0909C64.8425 61.5482 72.0223 61.303 79.4328 62.3637C85.6464 63.252 90.4056 64.83 92.4387 65.5043C98.3531 67.4668 101.269 69.3648 103.846 71.0395C106.221 72.5854 108.262 73.9121 113.005 75.3769C118.762 77.1545 129.478 80.4675 139.712 76.6402C144.193 74.9655 146.275 72.8181 148.685 70.33C151.685 67.2361 155.082 63.7288 162.352 62.2546C170.674 60.5675 178.309 62.6837 185.045 64.5516C190.635 66.1038 196.023 68.3083 201.098 71.1195L196.388 79.6249Z" fill="#DE4A36"/>
<path d="M192.914 140.071C188.507 137.63 183.827 135.715 178.973 134.367C172.74 132.638 166.847 131.005 160.81 132.229C156.492 133.104 154.784 134.869 152.193 137.541C149.512 140.308 146.175 143.752 139.639 146.193C126.301 151.18 113.035 147.081 106.661 145.112C100.623 143.247 97.6721 141.327 95.0676 139.634C92.782 138.147 90.6263 136.744 85.9014 135.177C82.0097 133.886 70.1642 129.956 56.7791 133.015C51.4994 134.221 48.4004 135.98 45.4032 137.681C41.7089 139.777 37.8889 141.94 31.4311 142.33C22.9672 142.835 14.3776 140.051 5.90234 134.057L11.5124 126.12C18.1395 130.806 24.645 132.994 30.8493 132.624C35.0517 132.374 37.2593 131.121 40.6014 129.225C43.8708 127.37 47.9391 125.061 54.6109 123.536C61.3637 121.994 68.5435 121.748 75.9529 122.809C82.1666 123.696 86.9268 125.275 88.9599 125.949C94.8743 127.912 97.7905 129.81 100.367 131.485C102.738 133.027 104.784 134.359 109.527 135.824C115.283 137.602 126 140.915 136.234 137.087C140.716 135.413 142.798 133.264 145.208 130.777C148.206 127.683 151.603 124.176 158.874 122.702C167.195 121.015 174.831 123.131 181.567 124.999C187.157 126.551 192.545 128.756 197.62 131.567L192.914 140.071Z" fill="#DE4A36"/>
<path d="M195.052 120.549C190.645 118.108 185.966 116.194 181.112 114.845C174.879 113.116 168.985 111.483 162.948 112.708C158.632 113.582 156.923 115.348 154.332 118.019C151.65 120.786 148.314 124.23 141.779 126.672C128.44 131.659 115.175 127.56 108.8 125.591C102.762 123.721 99.8105 121.805 97.207 120.112C94.9215 118.625 92.7658 117.222 88.0409 115.655C84.1481 114.364 72.3037 110.435 58.9186 113.493C53.6431 114.699 50.542 116.458 47.5458 118.159C43.8515 120.255 40.0315 122.423 33.5747 122.808C25.1098 123.313 16.5202 120.529 8.04492 114.536L13.655 106.598C20.2852 111.284 26.7918 113.473 32.9961 113.102C37.1984 112.851 39.406 111.598 42.7482 109.702C46.0165 107.847 50.0859 105.538 56.7566 104.014C63.5094 102.471 70.6903 102.226 78.0997 103.287C82.5218 103.935 86.8753 104.986 91.1056 106.428C97.0211 108.39 99.9362 110.288 102.513 111.964C104.883 113.505 106.931 114.837 111.673 116.302C117.43 118.08 128.146 121.393 138.379 117.565C142.861 115.891 144.943 113.743 147.353 111.255C150.352 108.161 153.75 104.654 161.02 103.18C169.342 101.493 176.977 103.609 183.713 105.477C189.303 107.03 194.69 109.234 199.766 112.045L195.052 120.549Z" fill="#DE4A36"/>
<path d="M196.864 60.9199C192.457 58.4782 187.778 56.5635 182.924 55.2153C176.691 53.4866 170.797 51.8534 164.76 53.0773C160.443 53.9531 158.734 55.7181 156.143 58.3902C153.462 61.1567 150.126 64.5996 143.59 67.0421C130.252 72.0288 116.987 67.9293 110.612 65.9606C104.574 64.0906 101.622 62.1759 99.0187 60.4815C96.7332 58.9958 94.5775 57.5923 89.8526 56.0246C85.9609 54.7343 74.1154 50.8052 60.7303 53.8637C55.4506 55.0688 52.3516 56.8287 49.3544 58.5294C45.6601 60.6259 41.8401 62.7889 35.3823 63.1784C26.9184 63.6823 18.334 60.9001 9.85352 54.9057L15.4635 46.9675C22.0938 51.654 28.5993 53.8429 34.8036 53.47C39.0059 53.2196 41.2136 51.9667 44.5557 50.0707C47.8251 48.2152 51.8934 45.9058 58.5652 44.3817C65.318 42.839 72.4978 42.5938 79.9072 43.6545C86.1209 44.5427 90.8811 46.1219 92.9132 46.7961C98.8286 48.7575 101.744 50.6566 104.32 52.3313C106.691 53.8741 108.739 55.206 113.481 56.6698C119.238 58.4483 129.954 61.7603 140.188 57.9341C144.67 56.2594 146.751 54.111 149.162 51.6239C152.16 48.529 155.557 45.0227 162.828 43.5485C171.149 41.8603 178.784 43.9776 185.521 45.8455C191.111 47.398 196.498 49.602 201.573 52.4124L196.864 60.9199Z" fill="#DE4A36"/>
<path d="M199.003 41.3978C194.596 38.9568 189.917 37.0421 185.062 35.6933C178.829 33.9645 172.936 32.3314 166.899 33.5552C162.582 34.431 160.874 36.1961 158.283 38.8681C155.603 41.6347 152.266 45.0786 145.73 47.52C132.39 52.5067 119.126 48.4073 112.75 46.4386C106.712 44.5737 103.762 42.6539 101.158 40.9605C98.8726 39.4738 96.7159 38.0703 91.992 36.5036C88.0993 35.2123 76.2538 31.2831 62.8687 34.3417C57.589 35.5478 54.49 37.3067 51.4928 39.0073C47.7985 41.1069 43.9785 43.272 37.5207 43.6564C29.0568 44.1613 20.4672 41.3781 11.9961 35.3847L17.6061 27.4465C24.2322 32.133 30.7378 34.3209 36.942 33.951C41.1454 33.7007 43.3531 32.4478 46.6941 30.5518C49.9635 28.6963 54.0329 26.3879 60.7036 24.8628C67.4565 23.3211 74.6363 23.0759 82.0457 24.1356C88.2593 25.0228 93.0195 26.6019 95.0526 27.2761C100.967 29.2386 103.883 31.1367 106.46 32.8114C108.83 34.3541 110.878 35.686 115.62 37.1508C121.376 38.9284 132.092 42.2414 142.326 38.4141C146.808 36.7394 148.89 34.591 151.3 32.1039C154.299 29.009 157.697 25.5027 164.967 24.0285C173.288 22.3414 180.924 24.4576 187.66 26.3255C193.25 27.8777 198.638 30.0822 203.713 32.8934L199.003 41.3978Z" fill="#DE4A36"/>
<path d="M193.919 162.263C189.512 159.821 184.833 157.906 179.979 156.558C173.745 154.829 167.852 153.196 161.815 154.42C157.498 155.295 155.789 157.061 153.198 159.733C150.518 162.5 147.181 165.943 140.645 168.385C127.307 173.372 114.041 169.272 107.666 167.304C101.628 165.434 98.6769 163.518 96.0734 161.824C93.7879 160.339 91.6322 158.934 86.9073 157.368C83.0145 156.076 71.1701 152.148 57.785 155.206C52.5053 156.412 49.4063 158.171 46.4091 159.871C42.7148 161.968 38.8947 164.131 32.437 164.521C23.9731 165.025 15.3835 162.242 6.9082 156.249L12.5182 148.311C19.1453 152.997 25.6509 155.186 31.8552 154.816C36.0575 154.566 38.2652 153.313 41.6073 151.416C44.8767 149.561 48.945 147.252 55.6157 145.728C62.3686 144.185 69.5494 143.94 76.9588 145.001C83.1724 145.889 87.9326 147.468 89.9647 148.142C95.8802 150.104 98.7953 152.002 101.372 153.677C103.743 155.219 105.79 156.551 110.532 158.016C116.289 159.794 127.005 163.106 137.239 159.28C141.72 157.605 143.802 155.457 146.213 152.969C149.212 149.875 152.609 146.368 159.879 144.894C168.201 143.206 175.836 145.324 182.573 147.191C188.162 148.744 193.55 150.948 198.625 153.759L193.919 162.263Z" fill="#DE4A36"/>
<path d="M187.9 182.754C183.493 180.313 178.814 178.398 173.959 177.049C167.726 175.321 161.833 173.688 155.796 174.912C151.479 175.787 149.771 177.552 147.18 180.224C144.497 182.991 141.161 186.435 134.627 188.876C121.287 193.863 108.023 189.763 101.647 187.795C95.6089 185.925 92.6584 184.01 90.0539 182.317C87.7683 180.83 85.6126 179.426 80.8877 177.86C76.996 176.568 65.1506 172.639 51.7654 175.698C46.4858 176.904 43.3867 178.663 40.3895 180.364C36.6952 182.46 32.8752 184.623 26.4174 185.013C17.9536 185.518 9.36398 182.734 0.888672 176.741L6.4987 168.803C13.1258 173.489 19.6314 175.677 25.8357 175.307C30.0411 175.057 32.254 173.804 35.5909 171.904C38.8603 170.048 42.9296 167.74 49.6004 166.215C56.3532 164.673 63.533 164.428 70.9424 165.488C77.156 166.375 81.9162 167.954 83.9494 168.628C89.8638 170.591 92.78 172.489 95.3564 174.163C97.7272 175.706 99.7738 177.038 104.516 178.503C110.273 180.28 120.989 183.593 131.223 179.766C135.705 178.091 137.787 175.943 140.197 173.456C143.195 170.362 146.594 166.855 153.864 165.381C162.185 163.693 169.82 165.81 176.557 167.678C182.147 169.23 187.535 171.435 192.609 174.245L187.9 182.754Z" fill="#DE4A36"/>
<path d="M201.467 18.6511C197.06 16.2096 192.381 14.2949 187.527 12.9466C181.293 11.2178 175.4 9.5847 169.363 10.8085C165.046 11.6843 163.337 13.4494 160.746 16.1214C158.065 18.888 154.729 22.3309 148.195 24.7733C134.857 29.76 121.591 25.6606 115.216 23.6919C109.175 21.827 106.224 19.9072 103.627 18.2127C101.341 16.7271 99.1853 15.3236 94.4604 13.7559C90.5624 12.4645 78.717 8.53645 65.3329 11.5939C60.0532 12.8001 56.9532 14.5589 53.9559 16.2606C50.2616 18.3551 46.4416 20.5243 39.9849 20.9097C31.52 21.4136 22.9314 18.6304 14.4551 12.6411L20.0651 4.70293C26.6964 9.38523 33.2019 11.5742 39.4062 11.2043C43.6085 10.954 45.8162 9.70106 49.1583 7.80403C52.4277 5.94961 56.496 3.64014 63.1668 2.11608C69.9196 0.573325 77.1004 0.328146 84.5098 1.38886C90.7224 2.27711 95.4827 3.85623 97.5158 4.53047C103.431 6.49191 106.346 8.38997 108.923 10.0657C111.294 11.6022 113.341 12.9372 118.083 14.4073C123.84 16.1858 134.557 19.4978 144.79 15.6716C149.272 13.9969 151.353 11.8485 153.764 9.3603C156.762 6.26751 160.16 2.7602 167.43 1.28497C175.752 -0.402197 183.388 1.71507 190.124 3.583C195.713 5.13496 201.101 7.33833 206.176 10.1478L201.467 18.6511Z" fill="#DE4A36"/>
</svg>
