<svg width="201" height="214" viewBox="0 0 201 214" fill="none" xmlns="http://www.w3.org/2000/svg">
<path d="M101.301 197.736C103.548 193.227 105.257 188.469 106.393 183.56C107.848 177.257 109.223 171.298 107.738 165.32C106.675 161.046 104.836 159.415 102.054 156.943C99.1725 154.385 95.5876 151.202 92.8637 144.779C87.3007 131.671 90.8184 118.24 92.5075 111.785C94.1126 105.671 95.8969 102.639 97.4763 99.9638C98.861 97.6157 100.169 95.4009 101.529 90.6122C102.649 86.668 106.058 74.6625 102.42 61.4286C100.985 56.2065 99.0927 53.187 97.2631 50.2667C95.0077 46.6673 92.6803 42.9451 92.0098 36.5104C91.1366 28.0766 93.5429 19.3739 99.1624 10.6455L107.336 15.9044C102.943 22.7273 101.041 29.322 101.679 35.5044C102.113 39.6918 103.461 41.8428 105.5 45.0991C107.496 48.2846 109.981 52.2484 111.794 58.8475C113.63 65.5267 114.187 72.689 113.451 80.1375C112.835 86.3839 111.465 91.2084 110.88 93.2679C109.178 99.2632 107.407 102.258 105.847 104.906C104.409 107.341 103.167 109.445 101.91 114.247C100.385 120.075 97.5422 130.926 101.812 140.983C103.68 145.388 105.917 147.373 108.507 149.674C111.73 152.534 115.381 155.777 117.17 162.976C119.218 171.215 117.436 178.935 115.864 185.747C114.556 191.399 112.589 196.877 110.002 202.07L101.301 197.736Z" fill="#DE4A36"/>
<path d="M120.899 199.019C123.146 194.509 124.855 189.751 125.991 184.843C127.446 178.54 128.821 172.582 127.334 166.604C126.272 162.328 124.433 160.699 121.652 158.227C118.77 155.669 115.185 152.485 112.462 146.063C106.898 132.954 110.415 119.523 112.105 113.068C113.705 106.954 115.495 103.922 117.073 101.246C118.459 98.8983 119.767 96.6835 121.126 91.8959C122.247 87.9506 125.656 75.9462 122.017 62.706C120.583 57.4849 118.69 54.4644 116.861 51.5442C114.605 47.9447 112.278 44.2225 111.607 37.7889C110.734 29.354 113.14 20.6514 118.759 11.923L126.934 17.1819C122.541 24.01 120.637 30.6057 121.278 36.789C121.712 40.9765 123.059 43.1274 125.099 46.3827C127.095 49.5682 129.579 53.5331 131.392 60.1311C133.228 66.8103 133.785 73.9726 133.048 81.4222C132.432 87.6687 131.062 92.4921 130.477 94.5526C128.774 100.547 127.005 103.543 125.444 106.19C124.003 108.63 122.767 110.727 121.51 115.529C119.985 121.359 117.142 132.209 121.412 142.266C123.28 146.67 125.516 148.657 128.107 150.956C131.328 153.818 134.98 157.059 136.77 164.258C138.818 172.498 137.036 180.218 135.464 187.029C134.156 192.682 132.189 198.161 129.601 203.353L120.899 199.019Z" fill="#DE4A36"/>
<path d="M60.3589 198.181C62.606 193.671 64.315 188.913 65.4507 184.004C66.9062 177.702 68.2811 171.744 66.7954 165.766C65.7324 161.49 63.8945 159.861 61.1122 157.389C58.2314 154.83 54.6453 151.647 51.9215 145.223C46.3585 132.115 49.8761 118.683 51.5652 112.229C53.1652 106.115 54.9547 103.084 56.5331 100.408C57.9187 98.0601 59.227 95.8453 60.5864 91.0567C61.7069 87.1124 65.1162 75.107 61.4775 61.8678C60.0425 56.6457 58.1503 53.6263 56.3207 50.706C54.0652 47.1065 51.7379 43.3844 51.0673 36.9497C50.1941 28.5159 52.6005 19.8132 58.22 11.0848L66.394 16.3437C62.0007 23.1687 60.0983 29.7634 60.7381 35.9456C61.1713 40.1331 62.5192 42.284 64.559 45.5404C66.5551 48.7259 69.0386 52.6897 70.8529 59.2887C72.6874 65.968 73.2462 73.1302 72.5093 80.5788C71.8936 86.8252 70.5233 91.6497 69.9383 93.7102C68.2354 99.7046 66.4662 102.701 64.9053 105.348C63.4673 107.783 62.2259 109.886 60.969 114.688C59.4439 120.516 56.6009 131.367 60.8704 141.424C62.7388 145.829 64.9759 147.815 67.5657 150.115C70.7872 152.976 74.4391 156.217 76.2287 163.417C78.2768 171.656 76.4952 179.377 74.9225 186.188C73.6153 191.84 71.6477 197.319 69.0602 202.512L60.3589 198.181Z" fill="#DE4A36"/>
<path d="M79.9544 199.465C82.2009 194.956 83.9099 190.198 85.0463 185.29C86.5018 178.987 87.8766 173.028 86.3899 167.05C85.3279 162.776 83.489 161.145 80.7077 158.673C77.8269 156.115 74.2409 152.932 71.5161 146.509C65.953 133.401 69.4706 119.969 71.1598 113.515C72.7649 107.401 74.5503 104.369 76.1286 101.694C77.5143 99.3458 78.8226 97.131 80.1819 92.3424C81.3025 88.3971 84.7118 76.3927 81.0731 63.1535C79.6382 57.9356 77.7459 54.914 75.9164 51.9948C73.6609 48.3953 71.3284 44.6734 70.6631 38.2396C69.7898 29.8047 72.1962 21.102 77.8146 12.3736L85.9897 17.6325C81.5966 24.4606 79.6932 31.0564 80.334 37.2386C80.7682 41.426 82.1161 43.577 84.1559 46.8333C86.152 50.0178 88.6355 53.9827 90.4488 60.5807C92.2842 67.2599 92.842 74.4232 92.1051 81.8718C91.6508 86.3179 90.7902 90.7131 89.5342 95.0022C87.8313 100.998 86.062 103.993 84.5001 106.64C83.0631 109.075 81.8217 111.179 80.5649 115.98C79.0398 121.809 76.1968 132.66 80.4663 142.716C82.3346 147.121 84.5707 149.107 87.1615 151.407C90.383 154.268 94.035 157.51 95.8246 164.709C97.8727 172.949 96.0911 180.669 94.5184 187.48C93.2105 193.132 91.2429 198.611 88.6561 203.804L79.9544 199.465Z" fill="#DE4A36"/>
<path d="M139.606 198.679C141.854 194.17 143.563 189.412 144.698 184.504C146.154 178.201 147.529 172.242 146.043 166.264C144.98 161.989 143.142 160.359 140.36 157.887C137.479 155.328 133.894 152.146 131.169 145.723C125.606 132.614 129.124 119.184 130.813 112.728C132.418 106.614 134.202 103.582 135.782 100.907C137.166 98.5593 138.475 96.3445 139.835 91.5558C140.954 87.6115 144.364 75.6061 140.725 62.367C139.291 57.1448 137.398 54.1254 135.568 51.2051C133.313 47.6057 130.985 43.8835 130.315 37.4488C129.443 29.0149 131.848 20.3175 137.467 11.5839L145.643 16.8428C141.249 23.6709 139.346 30.2656 139.989 36.4478C140.422 40.6352 141.77 42.7862 143.81 46.0425C145.806 49.228 148.29 53.1918 150.104 59.7909C151.939 66.4701 152.497 73.6324 151.76 81.0809C151.143 87.3274 149.773 92.1519 149.188 94.2114C147.486 100.207 145.716 103.202 144.155 105.849C142.717 108.284 141.476 110.388 140.22 115.19C138.694 121.019 135.852 131.869 140.12 141.927C141.988 146.331 144.226 148.317 146.815 150.617C150.038 153.478 153.689 156.719 155.478 163.918C157.528 172.158 155.745 179.878 154.172 186.69C152.865 192.342 150.898 197.821 148.311 203.013L139.606 198.679Z" fill="#DE4A36"/>
<path d="M159.202 199.965C161.449 195.455 163.158 190.697 164.294 185.788C165.75 179.486 167.125 173.527 165.639 167.55C164.576 163.274 162.738 161.645 159.956 159.173C157.075 156.615 153.489 153.432 150.765 147.008C145.202 133.899 148.72 120.468 150.409 114.013C152.009 107.899 153.798 104.868 155.377 102.193C156.762 99.8451 158.071 97.6293 159.43 92.8416C160.551 88.8963 163.96 76.8909 160.321 63.6518C158.886 58.4297 156.994 55.4102 155.164 52.4899C152.906 48.8906 150.576 45.1685 149.911 38.7336C149.038 30.2998 151.444 21.5971 157.063 12.8729L165.238 18.1318C160.844 24.9557 158.942 31.5504 159.582 37.7327C160.015 41.9212 161.363 44.0721 163.403 47.3274C165.399 50.5129 167.882 54.4778 169.697 61.0758C171.531 67.755 172.089 74.9173 171.353 82.3659C170.737 88.6123 169.367 93.4367 168.782 95.4973C167.079 101.492 165.31 104.488 163.749 107.135C162.311 109.57 161.07 111.674 159.813 116.475C158.288 122.303 155.445 133.154 159.714 143.212C161.582 147.616 163.82 149.602 166.409 151.902C169.632 154.763 173.283 158.005 175.072 165.204C177.12 173.443 175.339 181.164 173.766 187.975C172.459 193.627 170.491 199.106 167.904 204.299L159.202 199.965Z" fill="#DE4A36"/>
<path d="M38.2301 200.152C40.4775 195.643 42.1865 190.885 43.3219 185.977C44.7785 179.674 46.1523 173.715 44.6666 167.737C43.6046 163.463 41.7657 161.832 38.9834 159.36C36.1026 156.803 32.5176 153.619 29.7928 147.196C24.2297 134.087 27.7474 120.656 29.4365 114.201C31.0417 108.088 32.827 105.055 34.4054 102.381C35.79 100.033 37.0993 97.8177 38.4587 93.029C39.5792 89.0837 42.9875 77.0794 39.3498 63.8402C37.9148 58.6181 36.0226 55.5986 34.1929 52.6783C31.9375 49.0789 29.6102 45.3567 28.9386 38.9221C28.0664 30.4882 30.4728 21.7855 36.0912 13.0572L44.2663 18.316C39.873 25.141 37.9696 31.7358 38.6093 37.9181C39.0426 42.1055 40.3905 44.2565 42.4313 47.5128C44.4264 50.6983 46.9109 54.6621 48.7241 61.2601C50.5596 67.9393 51.1174 75.1027 50.3805 82.5512C49.7638 88.7977 48.3935 93.6221 47.8085 95.6817C46.1066 101.677 44.3374 104.672 42.7755 107.319C41.3385 109.755 40.0971 111.858 38.8402 116.659C37.3142 122.489 34.4722 133.339 38.7406 143.396C40.61 147.8 42.8461 149.787 45.4369 152.086C48.6584 154.948 52.3104 158.189 54.0999 165.388C56.148 173.628 54.3654 181.348 52.7938 188.16C51.4855 193.812 49.5179 199.291 46.9314 204.483L38.2301 200.152Z" fill="#DE4A36"/>
<path d="M17.4973 195.031C19.7443 190.521 21.4533 185.763 22.5891 180.855C24.0446 174.552 25.4195 168.594 23.9328 162.616C22.8708 158.34 21.033 156.711 18.2506 154.239C15.3698 151.68 11.7838 148.497 9.06 142.075C3.49689 128.965 7.01459 115.535 8.70367 109.079C10.3088 102.965 12.0932 99.9344 13.6715 97.2586C15.0572 94.9104 16.3655 92.6956 17.7248 87.9069C18.8454 83.9627 22.2547 71.9573 18.6159 58.7181C17.1809 53.496 15.2887 50.4765 13.4591 47.5563C11.2036 43.9568 8.87628 40.2346 8.20572 33.8C7.33256 25.3661 9.7389 16.6635 15.3574 7.93509L23.5324 13.194C19.1391 20.0189 17.2367 26.6137 17.8765 32.7959C18.3099 36.9865 19.658 39.1426 21.7017 42.3936C23.6978 45.5791 26.1814 49.544 27.9956 56.142C29.8301 62.8212 30.3878 69.9835 29.652 77.432C29.0363 83.6784 27.6661 88.5029 27.081 90.5635C25.3781 96.5578 23.6089 99.5539 22.048 102.201C20.61 104.637 19.3686 106.739 18.1117 111.541C16.5867 117.37 13.7436 128.22 18.0131 138.278C19.8815 142.682 22.1186 144.669 24.7084 146.968C27.9299 149.829 31.5819 153.071 33.3714 160.27C35.4195 168.51 33.6379 176.23 32.0653 183.042C30.7577 188.694 28.7901 194.173 26.2029 199.365L17.4973 195.031Z" fill="#DE4A36"/>
<path d="M182.036 201.434C184.283 196.925 185.992 192.168 187.128 187.259C188.583 180.957 189.958 174.997 188.473 169.019C187.41 164.745 185.572 163.115 182.789 160.642C179.909 158.084 176.324 154.901 173.599 148.48C168.036 135.372 171.553 121.94 173.242 115.486C174.842 109.369 176.632 106.337 178.211 103.668C179.596 101.32 180.904 99.1053 182.265 94.3166C183.385 90.3661 186.793 78.3608 183.156 65.1226C181.721 59.9005 179.828 56.88 177.998 53.9598C175.744 50.3602 173.411 46.6383 172.744 40.2045C171.872 31.7696 174.279 23.0679 179.893 14.3387L188.068 19.5976C183.679 26.4265 181.776 33.0213 182.415 39.2036C182.849 43.391 184.197 45.542 186.237 48.7983C188.232 51.9838 190.717 55.9476 192.53 62.5456C194.366 69.2248 194.923 76.3882 194.187 83.8367C193.57 90.0821 192.2 94.9066 191.615 96.9672C189.913 102.962 188.143 105.958 186.582 108.605C185.15 111.04 183.905 113.144 182.643 117.945C181.117 123.775 178.275 134.625 182.544 144.682C184.412 149.087 186.649 151.072 189.24 153.372C192.46 156.233 196.112 159.475 197.903 166.674C199.951 174.914 198.168 182.635 196.596 189.446C195.289 195.098 193.322 200.576 190.736 205.769L182.036 201.434Z" fill="#DE4A36"/>
</svg>
