<svg xmlns="http://www.w3.org/2000/svg" width="48" height="48" viewBox="0 0 48 48"><circle cx="23.87" cy="24" r="15.09" fill="#77b3c4"/><path d="M23.69,29.11a3,3,0,0,0-2.9,3.12,2.93,2.93,0,0,0,1,2.1,3,3,0,0,0,2,.74H24a3,3,0,1,0-.3-6Zm.24,4.75a1.87,1.87,0,0,1-1.33-.44A1.75,1.75,0,0,1,22,32.17a1.77,1.77,0,0,1,1.76-1.86,1.8,1.8,0,0,1,2,1.66A1.83,1.83,0,0,1,23.93,33.86Z" fill="#fff"/><path d="M29.17,14.39a7,7,0,0,0-4.85-1.47,6.46,6.46,0,0,0-6.42,7.2.62.62,0,0,0,.2.42.61.61,0,0,0,.43.15l3.6-.18a.6.6,0,0,0,.57-.62,2,2,0,0,1,3.17-1.72,1.58,1.58,0,0,1,.54,1.2A1.69,1.69,0,0,1,25.34,21l-1.05.47c-2.43,1.15-3.29,2.79-2.88,5.5l0,.56a.6.6,0,0,0,.6.57h0l3.16-.16a.6.6,0,0,0,.57-.6v-.59c0-.73.26-.93,1.45-1.4a6.32,6.32,0,0,0,4.07-6.37A6.14,6.14,0,0,0,29.17,14.39Zm-2.37,9.8c-1.07.43-2.28.91-2.2,2.54l-2,.1a.43.43,0,0,0,0,0c-.34-2.22.23-3.34,2.19-4.26l1.05-.47a2.91,2.91,0,0,0,1.77-2.75,2.72,2.72,0,0,0-1-2.06,3.05,3.05,0,0,0-1.94-.63h-.21a3.11,3.11,0,0,0-2.95,2.73l-2.44.12a5.22,5.22,0,0,1,5.29-5.34,5.73,5.73,0,0,1,4,1.19A5,5,0,0,1,30.12,19,5.08,5.08,0,0,1,26.8,24.19Z" fill="#fff"/><path d="M34.58,12.29A15.77,15.77,0,0,0,13.44,35.71,15.64,15.64,0,0,0,24,39.77c.27,0,.55,0,.82,0a.74.74,0,0,0,.71-.78.78.78,0,0,0-.78-.72,14.27,14.27,0,1,1-1.46-28.5,14.27,14.27,0,0,1,15,13.52A.75.75,0,0,0,39,24h0a.76.76,0,0,0,.71-.79A15.66,15.66,0,0,0,34.58,12.29Z" fill="#fff"/></svg>