<svg xmlns="http://www.w3.org/2000/svg" width="48" height="48" viewBox="0 0 48 48"><path d="M26.46,38.94l9.92.12a1.31,1.31,0,0,0,1.34-1.31V20.42a1.3,1.3,0,0,0-.5-1L24.85,9.61a1.34,1.34,0,0,0-1.69,0L10.72,20.34a1.31,1.31,0,0,0-.46,1v16.3a1.33,1.33,0,0,0,1.33,1.31H26.46" fill="#77b3c4"/><path d="M38.2,19.27,24.46,8.41a.77.77,0,0,0-1,0L9.78,20.23a.77.77,0,0,0-.26.57V39a.75.75,0,0,0,.75.74H26.91a.74.74,0,0,0,.75-.74V28.63a.74.74,0,0,0-.75-.74H21.07a.75.75,0,0,0-.75.74v9.63H11V21.14L24,10,37,20.21v8.42a.75.75,0,1,0,1.5,0V19.85A.72.72,0,0,0,38.2,19.27ZM21.82,29.38h4.34v8.88H21.82Z" fill="#fff"/></svg>