<svg xmlns="http://www.w3.org/2000/svg" width="48" height="48" viewBox="0 0 48 48"><path d="M35.39,21.16V36.34a2.7,2.7,0,0,1-2.7,2.7H12.61V9H32.68a2.84,2.84,0,0,1,2.71,2.74C35.42,14.86,35.39,21.16,35.39,21.16Z" fill="#77b3c4"/><path d="M35.39,20.43a.76.76,0,0,0-.75.75v15.1a2,2,0,0,1-2,1.95H13.36V9.77H32.68A.74.74,0,0,0,33.43,9a.75.75,0,0,0-.75-.75H12.61a.75.75,0,0,0-.75.75V39a.75.75,0,0,0,.75.75H32.69a3.45,3.45,0,0,0,3.45-3.44V21.18A.75.75,0,0,0,35.39,20.43Z" fill="#fff"/><path d="M24,12.46a7.21,7.21,0,1,0,7.18,7.21A7.2,7.2,0,0,0,24,12.46Zm0,12.91a5.71,5.71,0,1,1,5.68-5.7A5.7,5.7,0,0,1,24,25.37Z" fill="#fff"/><path d="M18.78,30.36a.76.76,0,0,0-.75.75v3.65a.76.76,0,0,0,.75.75H29.22a.76.76,0,0,0,.75-.75V31.11a.76.76,0,0,0-.75-.75ZM28.47,34H19.53V31.86h8.94Z" fill="#fff"/></svg>