<svg width="30" height="30" viewBox="0 0 30 30" fill="none" xmlns="http://www.w3.org/2000/svg">
<circle cx="15" cy="15" r="15" fill="#E05E48"/>
<path fill-rule="evenodd" clip-rule="evenodd" d="M9.84625 18.568L20.4527 7.96154L22.2204 9.7293L11.614 20.3357L9.84625 18.568ZM8.8682 18.7769C8.80011 18.4567 8.89043 18.1096 9.13915 17.8609L19.7456 7.25443C20.1361 6.8639 20.7693 6.8639 21.1598 7.25443L22.9276 9.02219C23.3181 9.41272 23.3181 10.0459 22.9276 10.4364L12.3211 21.0428C12.0725 21.2915 11.7255 21.3818 11.4053 21.3138L10.8193 21.5741L8.20414 22.7356L6.84105 23.341L7.44646 21.978L8.608 19.3628L8.8682 18.7769ZM10.0617 20.8164L8.80955 21.3725L9.36567 20.1204L10.0617 20.8164Z" fill="white"/>
</svg>
