<svg width="30" height="30" viewBox="0 0 30 30" fill="none" xmlns="http://www.w3.org/2000/svg">
<circle cx="15" cy="15" r="14.5" stroke="#E05E48"/>
<path fill-rule="evenodd" clip-rule="evenodd" d="M9.84635 18.5679L20.4528 7.96144L22.2205 9.72921L11.6141 20.3356L9.84635 18.5679ZM8.86832 18.7769C8.80018 18.4567 8.89049 18.1095 9.13924 17.8608L19.7457 7.25434C20.1362 6.86381 20.7694 6.86381 21.1599 7.25434L22.9276 9.0221C23.3182 9.41263 23.3182 10.0458 22.9276 10.4363L12.3212 21.0427C12.0726 21.2913 11.7258 21.3817 11.4057 21.3138L10.8194 21.5742L8.20423 22.7357L6.84114 23.3411L7.44655 21.9781L8.60809 19.3628L8.86832 18.7769ZM10.0618 20.8165L8.80964 21.3726L9.36577 20.1205L10.0618 20.8165Z" fill="#E05E48"/>
</svg>
