<svg width="30" height="30" viewBox="0 0 30 30" fill="none" xmlns="http://www.w3.org/2000/svg">
<circle cx="15" cy="15" r="15" fill="#E05E48"/>
<g style="mix-blend-mode:multiply" opacity="0.42">
<path d="M14.997 6C13.4086 6.00577 11.8692 6.5308 10.6305 7.48925C9.39177 8.44769 8.52708 9.78284 8.17777 11.2764C7.82846 12.77 8.0152 14.3336 8.70746 15.7116C9.39972 17.0896 10.5565 18.2004 11.9888 18.8625V19.5024C11.8914 19.4814 11.7894 19.4978 11.7043 19.5481C11.6491 19.5828 11.6038 19.6302 11.5726 19.6861C11.5413 19.742 11.525 19.8045 11.5252 19.868V21.2441C11.5249 21.3003 11.5375 21.3558 11.5621 21.4067C11.5867 21.4576 11.6226 21.5027 11.6674 21.5386C11.7673 21.615 11.8749 21.6813 11.9888 21.7367V22.2445C11.9059 22.2281 11.8197 22.2381 11.7433 22.273C11.6668 22.308 11.6042 22.3659 11.565 22.4382C11.5257 22.5104 11.5119 22.593 11.5256 22.6735C11.5394 22.754 11.5799 22.828 11.6411 22.8843C12.535 23.7335 13.7419 24.2065 14.997 24.1995C15.6154 24.2019 16.2281 24.086 16.7997 23.8585C17.3712 23.631 17.8902 23.2964 18.3266 22.8741C18.4006 22.8027 18.4422 22.7059 18.4422 22.605C18.4422 22.5041 18.4006 22.4073 18.3266 22.3359C18.2841 22.2957 18.2324 22.2656 18.1757 22.248C18.119 22.2304 18.0589 22.2257 18 22.2343V21.7265C18.106 21.6751 18.2066 21.6139 18.3003 21.5437C18.3464 21.5075 18.3836 21.4618 18.4091 21.4099C18.4347 21.3581 18.4479 21.3015 18.4478 21.2441V19.868C18.4476 19.8014 18.4295 19.7361 18.3954 19.6782C18.3612 19.6204 18.3121 19.572 18.2529 19.5379C18.1763 19.4955 18.0859 19.4828 18 19.5024V18.6492C18.237 18.4788 18.4481 18.2771 18.6269 18.05C18.6686 17.9962 18.7073 17.9402 18.7428 17.8825C19.549 17.3397 20.2169 16.6277 20.696 15.7999C21.1751 14.9722 21.453 14.0504 21.5087 13.1041C21.5401 13.1093 21.5722 13.1093 21.6036 13.1041C21.7079 13.1028 21.8077 13.0622 21.8815 12.9911C21.9553 12.92 21.9973 12.8238 21.9987 12.7232C21.9903 10.9382 21.2492 9.22896 19.9371 7.96912C18.6251 6.70928 16.849 6.00132 14.997 6Z" fill="#F3CEC9"/>
</g>
<path d="M14.9967 6C13.142 6.00269 11.364 6.71403 10.0526 7.97811C8.74109 9.24219 8.00308 10.9559 8.00029 12.7436C7.99184 13.6312 8.16708 14.5115 8.51576 15.333C8.86443 16.1546 9.37955 16.9009 10.031 17.5283C10.6824 18.1558 11.4571 18.6517 12.3097 18.9872C13.1624 19.3226 14.0758 19.4908 14.9967 19.482C16.6352 19.482 17.8522 18.9996 18.6161 18.05C19.38 17.1005 19.6698 15.5771 19.2378 14.0131C19.079 13.3855 18.7713 12.8021 18.3389 12.3087C17.9064 11.8152 17.3611 11.4252 16.7458 11.1694C16.5549 11.0785 16.3532 11.0103 16.1452 10.9663C15.9041 10.5858 15.6038 10.2433 15.2549 9.95067C15.1745 9.88333 15.0697 9.84951 14.9635 9.85665C14.8573 9.8638 14.7584 9.91131 14.6885 9.98875C14.6186 10.0662 14.5836 10.1672 14.591 10.2696C14.5984 10.372 14.6477 10.4673 14.728 10.5346C14.8648 10.6551 14.9932 10.784 15.1126 10.9206C14.7088 10.9538 14.3135 11.0516 13.943 11.21C13.5495 11.3585 13.1941 11.5875 12.9012 11.8812C12.6084 12.1749 12.385 12.5263 12.2466 12.9111C11.941 13.8963 12.294 15.2775 13.2265 15.6431C13.4884 15.7258 13.766 15.7514 14.0393 15.718C14.3126 15.6846 14.5749 15.5931 14.807 15.4501C15.2576 15.2066 15.6491 14.8731 15.9553 14.472C16.2615 14.071 16.4753 13.6115 16.5825 13.1244C16.671 12.7327 16.6692 12.3271 16.5772 11.9362C17.0519 12.1525 17.4701 12.4687 17.8011 12.8616C18.1321 13.2544 18.3674 13.7139 18.4896 14.206C18.6761 14.7708 18.7289 15.3686 18.6441 15.9557C18.5593 16.5427 18.3391 17.1039 17.9997 17.5981C17.3885 18.3547 16.3823 18.7356 15.002 18.7356C14.1835 18.7437 13.3715 18.5943 12.6138 18.296C11.856 17.9977 11.1676 17.5565 10.5891 16.9984C10.0105 16.4403 9.55344 15.7765 9.2446 15.0458C8.93575 14.3152 8.78139 13.5325 8.79055 12.7436C8.79055 11.1571 9.44441 9.63556 10.6083 8.51374C11.7722 7.39193 13.3507 6.7617 14.9967 6.7617C16.6427 6.7617 18.2212 7.39193 19.3851 8.51374C20.549 9.63556 21.2029 11.1571 21.2029 12.7436C21.2029 12.8446 21.2445 12.9414 21.3186 13.0129C21.3927 13.0843 21.4932 13.1244 21.598 13.1244C21.7028 13.1244 21.8033 13.0843 21.8774 13.0129C21.9515 12.9414 21.9931 12.8446 21.9931 12.7436C21.9903 10.9559 21.2523 9.24219 19.9408 7.97811C18.6294 6.71403 16.8514 6.00269 14.9967 6ZM15.8291 12.967C15.7448 13.3413 15.5803 13.6945 15.3463 14.004C15.1122 14.3136 14.8137 14.5726 14.4699 14.7646C14.3407 14.8506 14.194 14.9091 14.0396 14.9362C13.8852 14.9634 13.7266 14.9585 13.5742 14.922C13.1054 14.7392 12.8367 13.8099 13.0474 13.1143C13.1533 12.8356 13.32 12.5822 13.5364 12.371C13.7527 12.1599 14.0135 11.996 14.3013 11.8905C14.669 11.7374 15.0651 11.6579 15.4656 11.6569H15.65C15.8486 12.0653 15.9112 12.5229 15.8291 12.967Z" fill="white"/>
<path d="M17.7627 22.3452C17.4002 22.6961 16.9691 22.9742 16.4943 23.1634C16.0195 23.3525 15.5105 23.449 14.9968 23.4472C14.4797 23.4465 13.9678 23.3475 13.4904 23.1558C13.0131 22.9641 12.5797 22.6834 12.2151 22.33C12.141 22.2587 12.0406 22.2186 11.9359 22.2186C11.8312 22.2186 11.7307 22.2587 11.6566 22.33C11.5836 22.4029 11.5427 22.5003 11.5427 22.6017C11.5427 22.703 11.5836 22.8004 11.6566 22.8733C12.545 23.7226 13.7456 24.199 14.9968 24.1987C15.6152 24.2011 16.2279 24.0852 16.7994 23.8577C17.371 23.6302 17.89 23.2956 18.3264 22.8733C18.3652 22.8385 18.3964 22.7964 18.418 22.7497C18.4396 22.703 18.4512 22.6526 18.4521 22.6014C18.453 22.5503 18.4433 22.4995 18.4234 22.4521C18.4035 22.4047 18.374 22.3616 18.3364 22.3254C18.2989 22.2893 18.2542 22.2607 18.205 22.2416C18.1558 22.2224 18.1031 22.213 18.0501 22.2139C17.997 22.2148 17.9447 22.226 17.8962 22.2468C17.8478 22.2677 17.8041 22.2977 17.768 22.3351L17.7627 22.3452Z" fill="white"/>
<path d="M17.8556 19.5301C16.7071 20.1344 13.5197 20.1243 12.0604 19.5301C12.0001 19.5048 11.9343 19.4943 11.8688 19.4997C11.8033 19.5051 11.7403 19.5261 11.6853 19.5609C11.6304 19.5957 11.5854 19.6432 11.5543 19.699C11.5231 19.7548 11.507 19.8172 11.5072 19.8805V21.2567C11.5069 21.3128 11.5195 21.3683 11.5441 21.4193C11.5687 21.4702 11.6047 21.5152 11.6495 21.5512C12.2659 22.059 13.6146 22.2824 14.9633 22.2824C16.312 22.2824 17.6554 22.0387 18.2771 21.5563C18.3232 21.52 18.3604 21.4743 18.3859 21.4225C18.4114 21.3707 18.4247 21.314 18.4246 21.2567V19.8653C18.4248 19.7991 18.4071 19.734 18.3732 19.6764C18.3393 19.6188 18.2904 19.5707 18.2314 19.5369C18.1724 19.5031 18.1052 19.4846 18.0365 19.4835C17.9679 19.4823 17.9001 19.4984 17.8398 19.5301H17.8556ZM17.6501 21.0535C16.5965 21.6477 13.3722 21.6477 12.3133 21.0535V20.4036C14.0537 20.8492 15.8833 20.8597 17.6291 20.434L17.6501 21.0535Z" fill="white"/>
</svg>
