<svg width="34" height="46" viewBox="0 0 34 46" fill="none" xmlns="http://www.w3.org/2000/svg">
<g style="mix-blend-mode:multiply" opacity="0.42">
<path d="M16.9939 0.267151C13.1466 0.281653 9.41807 1.60098 6.41789 4.00941C3.41772 6.41784 1.3234 9.77288 0.477357 13.526C-0.368685 17.2791 0.0836082 21.2082 1.76029 24.6709C3.43696 28.1336 6.23882 30.9251 9.70776 32.5888V34.1966C9.47188 34.144 9.2248 34.1852 9.01871 34.3114C8.88512 34.3987 8.77545 34.5179 8.69968 34.6583C8.62391 34.7987 8.58444 34.9558 8.58486 35.1153V38.5734C8.58416 38.7145 8.61469 38.854 8.67425 38.982C8.73382 39.1099 8.82094 39.2231 8.92939 39.3134C9.17126 39.5053 9.43207 39.6721 9.70776 39.8111V41.0871C9.50702 41.0459 9.29831 41.0711 9.11314 41.1589C8.92798 41.2467 8.77641 41.3924 8.68132 41.5739C8.58623 41.7555 8.55278 41.963 8.58602 42.1652C8.61926 42.3674 8.71739 42.5534 8.86558 42.6949C11.0308 44.829 13.9538 46.0175 16.9939 45.9998C18.4916 46.0059 19.9756 45.7146 21.3599 45.1429C22.7442 44.5712 24.0013 43.7305 25.0583 42.6694C25.2375 42.4899 25.3382 42.2467 25.3382 41.9931C25.3382 41.7395 25.2375 41.4962 25.0583 41.3168C24.9552 41.2159 24.8301 41.1403 24.6928 41.0961C24.5555 41.0518 24.4098 41.04 24.2672 41.0616V39.7856C24.5239 39.6564 24.7675 39.5025 24.9945 39.3262C25.1063 39.2352 25.1963 39.1203 25.2581 38.9901C25.32 38.8599 25.3519 38.7175 25.3518 38.5734V35.1153C25.3513 34.9481 25.3076 34.7839 25.2248 34.6385C25.1421 34.4932 25.0232 34.3717 24.8797 34.2859C24.6942 34.1795 24.4753 34.1475 24.2672 34.1966V32.0529C24.8413 31.6245 25.3524 31.1176 25.7856 30.5472C25.8865 30.4118 25.9802 30.2713 26.0664 30.1261C28.019 28.7623 29.6366 26.9729 30.797 24.8929C31.9575 22.813 32.6306 20.4967 32.7655 18.1187C32.8415 18.1318 32.9192 18.1318 32.9952 18.1187C33.248 18.1154 33.4895 18.0135 33.6682 17.8347C33.847 17.656 33.9489 17.4145 33.9522 17.1617C33.932 12.6762 32.1368 8.38107 28.959 5.21527C25.7813 2.04948 21.4794 0.270478 16.9939 0.267151Z" fill="#c21f04"/>
</g>
<path d="M16.9939 0.267151C12.5017 0.273901 8.19547 2.0614 5.01902 5.23785C1.84256 8.4143 0.0550638 12.7206 0.0483137 17.2127C0.0278493 19.4432 0.45228 21.6553 1.29679 23.7197C2.1413 25.7842 3.38893 27.6596 4.96674 29.2362C6.54454 30.8128 8.42085 32.059 10.486 32.902C12.5511 33.7449 14.7635 34.1677 16.9939 34.1455C20.9623 34.1455 23.9099 32.9333 25.7602 30.5472C27.6104 28.161 28.3122 24.3329 27.2659 20.4028C26.8813 18.8259 26.136 17.3598 25.0887 16.1199C24.0414 14.8799 22.7206 13.9 21.2303 13.2571C20.7678 13.0288 20.2794 12.8574 19.7756 12.7467C19.1916 11.7906 18.4643 10.9299 17.6191 10.1946C17.4246 10.0254 17.1707 9.94042 16.9135 9.95836C16.6562 9.97631 16.4166 10.0957 16.2474 10.2903C16.0782 10.4849 15.9932 10.7387 16.0112 10.996C16.0291 11.2532 16.1485 11.4928 16.3431 11.662C16.6744 11.9647 16.9855 12.2887 17.2746 12.6318C16.2965 12.7153 15.3392 12.9611 14.4418 13.3591C13.4887 13.7324 12.6279 14.3078 11.9186 15.0458C11.2092 15.7837 10.6683 16.6667 10.3331 17.6338C9.59296 20.1093 10.4479 23.5801 12.7065 24.4988C13.3406 24.7066 14.013 24.7709 14.675 24.687C15.3371 24.6032 15.9722 24.3733 16.5345 24.0139C17.6259 23.4019 18.5741 22.564 19.3156 21.5561C20.0572 20.5483 20.5751 19.3938 20.8347 18.1697C21.0492 17.1855 21.0448 16.1662 20.822 15.1839C21.9716 15.7275 22.9846 16.5221 23.7862 17.5093C24.5879 18.4965 25.1578 19.651 25.4539 20.8877C25.9056 22.3068 26.0335 23.8092 25.8281 25.2843C25.6227 26.7594 25.0894 28.1697 24.2672 29.4115C22.787 31.3128 20.3498 32.2698 17.0067 32.2698C15.0242 32.2903 13.0577 31.9148 11.2223 31.1652C9.38695 30.4156 7.71975 29.3071 6.31848 27.9046C4.91721 26.5021 3.8101 24.834 3.06207 22.998C2.31404 21.162 1.94016 19.1951 1.96235 17.2127C1.96235 13.2261 3.54602 9.40278 6.36499 6.58382C9.18395 3.76486 13.0073 2.18118 16.9939 2.18118C20.9805 2.18118 24.8038 3.76486 27.6228 6.58382C30.4418 9.40278 32.0254 13.2261 32.0254 17.2127C32.0254 17.4665 32.1263 17.71 32.3057 17.8894C32.4852 18.0689 32.7286 18.1697 32.9825 18.1697C33.2363 18.1697 33.4797 18.0689 33.6592 17.8894C33.8386 17.71 33.9395 17.4665 33.9395 17.2127C33.9327 12.7206 32.1452 8.4143 28.9688 5.23785C25.7923 2.0614 21.4861 0.273901 16.9939 0.267151ZM19.01 17.7742C18.8058 18.7147 18.4075 19.6023 17.8406 20.3801C17.2737 21.158 16.5507 21.8089 15.7179 22.2913C15.405 22.5073 15.0498 22.6543 14.6758 22.7225C14.3018 22.7908 13.9176 22.7786 13.5486 22.6869C12.413 22.2275 11.7622 19.8924 12.2726 18.1442C12.5291 17.4441 12.9329 16.8071 13.4569 16.2766C13.9808 15.746 14.6126 15.3342 15.3095 15.069C16.2001 14.6843 17.1595 14.4846 18.1296 14.482H18.5762C19.0573 15.5083 19.2089 16.6583 19.01 17.7742Z" fill="white"/>
<path d="M23.6937 41.3423C22.8157 42.224 21.7716 42.9228 20.6216 43.3981C19.4717 43.8734 18.2388 44.1158 16.9945 44.1112C15.7421 44.1096 14.5022 43.8607 13.3461 43.379C12.19 42.8973 11.1403 42.1921 10.2571 41.304C10.0777 41.1248 9.83446 41.0241 9.58085 41.0241C9.32724 41.0241 9.084 41.1248 8.90456 41.304C8.72758 41.4872 8.62866 41.7319 8.62866 41.9867C8.62866 42.2414 8.72758 42.4861 8.90456 42.6693C11.0562 44.8034 13.9641 46.0005 16.9945 45.9997C18.4923 46.0058 19.9763 45.7146 21.3606 45.1429C22.7449 44.5712 24.002 43.7304 25.059 42.6693C25.153 42.5817 25.2284 42.4761 25.2808 42.3587C25.3331 42.2413 25.3612 42.1145 25.3635 41.986C25.3657 41.8575 25.3421 41.7299 25.294 41.6107C25.2458 41.4916 25.1742 41.3833 25.0833 41.2925C24.9924 41.2016 24.8842 41.1299 24.765 41.0818C24.6458 41.0337 24.5182 41.01 24.3897 41.0123C24.2612 41.0146 24.1345 41.0427 24.0171 41.095C23.8997 41.1473 23.794 41.2227 23.7064 41.3167L23.6937 41.3423Z" fill="white"/>
<path d="M23.9227 34.273C21.141 35.7914 13.4211 35.7659 9.88647 34.273C9.74057 34.2093 9.58109 34.183 9.42247 34.1965C9.26386 34.21 9.11112 34.2629 8.97808 34.3503C8.84505 34.4377 8.73592 34.557 8.66059 34.6972C8.58525 34.8374 8.54609 34.9942 8.54664 35.1534V38.6115C8.54594 38.7526 8.57647 38.8921 8.63603 39.0201C8.6956 39.148 8.78272 39.2612 8.89117 39.3515C10.3841 40.6276 13.6507 41.189 16.9174 41.189C20.184 41.189 23.4378 40.5765 24.9435 39.3643C25.0553 39.2733 25.1454 39.1584 25.2072 39.0282C25.269 38.898 25.301 38.7556 25.3008 38.6115V35.1152C25.3013 34.9488 25.2584 34.7852 25.1763 34.6405C25.0943 34.4958 24.9759 34.375 24.8329 34.2899C24.6899 34.2049 24.5273 34.1586 24.3609 34.1557C24.1946 34.1527 24.0304 34.1931 23.8844 34.273H23.9227ZM23.4251 38.101C20.873 39.594 13.0638 39.594 10.499 38.101V36.4677C14.7143 37.5876 19.1456 37.6139 23.374 36.5443L23.4251 38.101Z" fill="white"/>
</svg>
