<svg width="35" height="46" viewBox="0 0 35 46" fill="none" xmlns="http://www.w3.org/2000/svg">
<path d="M17.7695 0.0776367C13.9222 0.0921393 10.1937 1.41146 7.19353 3.81989C4.19335 6.22832 2.09903 9.58337 1.25299 13.3365C0.40695 17.0896 0.859243 21.0187 2.53592 24.4814C4.2126 27.9441 7.01446 30.7355 10.4834 32.3993V34.0071C10.2475 33.9545 10.0004 33.9957 9.79434 34.1219C9.66075 34.2091 9.55108 34.3284 9.47531 34.4688C9.39954 34.6092 9.36007 34.7663 9.36049 34.9258V38.3838C9.3598 38.525 9.39032 38.6645 9.44989 38.7925C9.50945 38.9204 9.59658 39.0336 9.70502 39.1239C9.94689 39.3158 10.2077 39.4826 10.4834 39.6216V40.8976C10.2827 40.8564 10.0739 40.8816 9.88878 40.9694C9.70362 41.0572 9.55204 41.2029 9.45695 41.3844C9.36186 41.5659 9.32841 41.7735 9.36165 41.9757C9.39489 42.1779 9.49302 42.3638 9.64122 42.5054C11.8064 44.6395 14.7294 45.8279 17.7695 45.8103C19.2672 45.8163 20.7512 45.5251 22.1355 44.9534C23.5199 44.3817 24.7769 43.541 25.834 42.4799C26.0132 42.3004 26.1138 42.0572 26.1138 41.8036C26.1138 41.55 26.0132 41.3067 25.834 41.1273C25.7308 41.0264 25.6057 40.9508 25.4684 40.9065C25.3311 40.8623 25.1854 40.8505 25.0428 40.8721V39.5961C25.2996 39.4668 25.5431 39.313 25.7701 39.1367C25.8819 39.0456 25.972 38.9308 26.0338 38.8006C26.0956 38.6704 26.1276 38.528 26.1274 38.3838V34.9258C26.1269 34.7586 26.0832 34.5943 26.0005 34.449C25.9177 34.3037 25.7988 34.1822 25.6553 34.0964C25.4699 33.99 25.2509 33.958 25.0428 34.0071V31.8634C25.6169 31.435 26.1281 30.9281 26.5613 30.3577C26.6622 30.2223 26.7559 30.0817 26.842 29.9366C28.7947 28.5727 30.4122 26.7834 31.5727 24.7034C32.7331 22.6235 33.4062 20.3072 33.5411 17.9292C33.6171 17.9423 33.6948 17.9423 33.7708 17.9292C34.0236 17.9259 34.2651 17.824 34.4439 17.6452C34.6226 17.4665 34.7245 17.225 34.7278 16.9722C34.7076 12.4866 32.9124 8.19155 29.7346 5.02576C26.5569 1.85996 22.2551 0.0809637 17.7695 0.0776367Z" fill="white"/>
<path d="M17.7695 0.0776367C13.2774 0.0843868 8.9711 1.87189 5.79465 5.04834C2.6182 8.22479 0.830699 12.531 0.823948 17.0232C0.803484 19.2536 1.22791 21.4658 2.07242 23.5302C2.91693 25.5947 4.16457 27.4701 5.74237 29.0467C7.32018 30.6233 9.19649 31.8695 11.2616 32.7125C13.3267 33.5554 15.5391 33.9782 17.7695 33.956C21.738 33.956 24.6856 32.7438 26.5358 30.3577C28.386 27.9715 29.0879 24.1434 28.0415 20.2133C27.6569 18.6364 26.9117 17.1703 25.8643 15.9304C24.817 14.6904 23.4962 13.7104 22.0059 13.0675C21.5434 12.8392 21.055 12.6679 20.5513 12.5571C19.9672 11.6011 19.2399 10.7404 18.3948 10.0051C18.2002 9.83588 17.9463 9.7509 17.6891 9.76885C17.4319 9.7868 17.1923 9.9062 17.0231 10.1008C16.8538 10.2954 16.7689 10.5492 16.7868 10.8065C16.8048 11.0637 16.9242 11.3033 17.1188 11.4725C17.45 11.7752 17.7612 12.0991 18.0503 12.4423C17.0722 12.5258 16.1148 12.7716 15.2175 13.1696C14.2644 13.5429 13.4035 14.1183 12.6942 14.8563C11.9849 15.5942 11.444 16.4772 11.1087 17.4443C10.3686 19.9198 11.2235 23.3906 13.4821 24.3093C14.1162 24.5171 14.7886 24.5814 15.4507 24.4975C16.1127 24.4137 16.7478 24.1838 17.3102 23.8244C18.4015 23.2124 19.3497 22.3745 20.0913 21.3666C20.8328 20.3588 21.3507 19.2043 21.6104 17.9802C21.8248 16.996 21.8205 15.9767 21.5976 14.9943C22.7472 15.5379 23.7602 16.3326 24.5619 17.3198C25.3635 18.3069 25.9334 19.4614 26.2296 20.6982C26.6812 22.1173 26.8091 23.6197 26.6037 25.0948C26.3984 26.5699 25.865 27.9802 25.0429 29.222C23.5627 31.1233 21.1255 32.0803 17.7823 32.0803C15.7999 32.1008 13.8333 31.7252 11.9979 30.9757C10.1626 30.2261 8.49538 29.1175 7.09411 27.7151C5.69285 26.3126 4.58573 24.6445 3.8377 22.8085C3.08967 20.9725 2.71579 19.0056 2.73798 17.0232C2.73798 13.0366 4.32166 9.21327 7.14062 6.39431C9.95958 3.57535 13.7829 1.99167 17.7695 1.99167C21.7561 1.99167 25.5795 3.57535 28.3984 6.39431C31.2174 9.21327 32.8011 13.0366 32.8011 17.0232C32.8011 17.277 32.9019 17.5205 33.0814 17.6999C33.2609 17.8794 33.5043 17.9802 33.7581 17.9802C34.0119 17.9802 34.2553 17.8794 34.4348 17.6999C34.6143 17.5205 34.7151 17.277 34.7151 17.0232C34.7084 12.531 32.9209 8.22479 29.7444 5.04834C26.568 1.87189 22.2617 0.0843868 17.7695 0.0776367ZM19.7856 17.5847C19.5814 18.5252 19.1831 19.4128 18.6162 20.1906C18.0494 20.9684 17.3264 21.6194 16.4935 22.1018C16.1807 22.3178 15.8255 22.4648 15.4515 22.533C15.0775 22.6012 14.6932 22.5891 14.3243 22.4974C13.1886 22.038 12.5378 19.7029 13.0482 17.9547C13.3047 17.2545 13.7086 16.6176 14.2325 16.0871C14.7565 15.5565 15.3883 15.1447 16.0852 14.8795C16.9757 14.4948 17.9351 14.2951 18.9052 14.2925H19.3518C19.833 15.3188 19.9845 16.4688 19.7856 17.5847Z" fill="#FFB51D"/>
<path d="M24.4693 41.1529C23.5914 42.0346 22.5472 42.7334 21.3972 43.2087C20.2473 43.6841 19.0145 43.9264 17.7702 43.9218C16.5177 43.9202 15.2779 43.6713 14.1217 43.1896C12.9656 42.7079 11.9159 42.0027 11.0328 41.1146C10.8533 40.9354 10.6101 40.8347 10.3565 40.8347C10.1029 40.8347 9.85964 40.9354 9.68019 41.1146C9.50322 41.2978 9.4043 41.5425 9.4043 41.7973C9.4043 42.052 9.50322 42.2967 9.68019 42.4799C11.8318 44.614 14.7397 45.8111 17.7702 45.8104C19.2679 45.8164 20.7519 45.5252 22.1362 44.9535C23.5205 44.3818 24.7776 43.541 25.8346 42.4799C25.9287 42.3923 26.0041 42.2867 26.0564 42.1693C26.1087 42.0519 26.1368 41.9252 26.1391 41.7967C26.1414 41.6682 26.1177 41.5405 26.0696 41.4214C26.0215 41.3022 25.9498 41.1939 25.8589 41.1031C25.7681 41.0122 25.6598 40.9405 25.5406 40.8924C25.4215 40.8443 25.2938 40.8206 25.1653 40.8229C25.0368 40.8252 24.9101 40.8533 24.7927 40.9056C24.6753 40.9579 24.5697 41.0333 24.4821 41.1274L24.4693 41.1529Z" fill="#FFB51D"/>
<path d="M24.6984 34.0835C21.9166 35.602 14.1967 35.5765 10.6621 34.0835C10.5162 34.0198 10.3567 33.9936 10.1981 34.0071C10.0395 34.0206 9.88675 34.0734 9.75372 34.1609C9.62068 34.2483 9.51156 34.3675 9.43622 34.5077C9.36089 34.648 9.32172 34.8048 9.32228 34.964V38.422C9.32158 38.5631 9.35211 38.7027 9.41167 38.8306C9.47123 38.9586 9.55836 39.0718 9.6668 39.1621C11.1598 40.4381 14.4264 40.9996 17.693 40.9996C20.9596 40.9996 24.2135 40.3871 25.7192 39.1749C25.8309 39.0838 25.921 38.969 25.9828 38.8388C26.0446 38.7085 26.0766 38.5662 26.0765 38.422V34.9257C26.0769 34.7593 26.034 34.5957 25.9519 34.451C25.8699 34.3063 25.7515 34.1855 25.6085 34.1005C25.4656 34.0155 25.3029 33.9692 25.1366 33.9662C24.9702 33.9632 24.806 34.0037 24.6601 34.0835H24.6984ZM24.2007 37.9116C21.6487 39.4045 13.8394 39.4045 11.2746 37.9116V36.2783C15.49 37.3981 19.9213 37.4245 24.1497 36.3548L24.2007 37.9116Z" fill="#FFB51D"/>
</svg>
