<svg width="32" height="43" viewBox="0 0 32 43" fill="none" xmlns="http://www.w3.org/2000/svg">
<path opacity="0.27" d="M15.9946 0.669678C12.4335 0.683101 8.98242 1.90427 6.20546 4.13351C3.4285 6.36276 1.49 9.46819 0.706899 12.9421C-0.0761977 16.4159 0.342445 20.0527 1.89438 23.2578C3.44631 26.4629 6.03971 29.0466 9.25056 30.5866V32.0748C9.03223 32.0261 8.80353 32.0643 8.61278 32.1811C8.48912 32.2618 8.38762 32.3722 8.31748 32.5021C8.24735 32.6321 8.21082 32.7775 8.21121 32.9252V36.1259C8.21056 36.2565 8.23882 36.3857 8.29395 36.5041C8.34908 36.6226 8.42972 36.7273 8.5301 36.8109C8.75398 36.9886 8.99538 37.1429 9.25056 37.2716V38.4527C9.06476 38.4145 8.87158 38.4378 8.70019 38.5191C8.5288 38.6004 8.38851 38.7352 8.30049 38.9032C8.21247 39.0713 8.18151 39.2634 8.21228 39.4506C8.24305 39.6377 8.33387 39.8098 8.47104 39.9408C10.4751 41.9161 13.1807 43.0162 15.9946 42.9998C17.3809 43.0054 18.7545 42.7359 20.0358 42.2067C21.3171 41.6776 22.4807 40.8993 23.459 39.9172C23.6249 39.7511 23.7181 39.526 23.7181 39.2912C23.7181 39.0565 23.6249 38.8313 23.459 38.6653C23.3636 38.5719 23.2478 38.5019 23.1207 38.4609C22.9936 38.4199 22.8588 38.409 22.7268 38.429V37.2479C22.9644 37.1283 23.1899 36.9859 23.4 36.8228C23.5034 36.7385 23.5868 36.6322 23.644 36.5117C23.7012 36.3911 23.7308 36.2593 23.7307 36.1259V32.9252C23.7302 32.7704 23.6897 32.6184 23.6132 32.4838C23.5366 32.3493 23.4265 32.2369 23.2937 32.1575C23.1221 32.0589 22.9194 32.0294 22.7268 32.0748V30.0906C23.2582 29.694 23.7313 29.2249 24.1323 28.6969C24.2256 28.5716 24.3124 28.4415 24.3921 28.3071C26.1995 27.0448 27.6967 25.3885 28.7708 23.4633C29.8449 21.5381 30.4679 19.3941 30.5928 17.1931C30.6632 17.2052 30.7351 17.2052 30.8054 17.1931C31.0394 17.19 31.2629 17.0957 31.4284 16.9303C31.5939 16.7648 31.6882 16.5413 31.6912 16.3073C31.6725 12.1555 30.0109 8.17992 27.0695 5.24966C24.1282 2.3194 20.1464 0.672757 15.9946 0.669678Z" fill="#FFD275"/>
<path d="M15.9946 0.669434C11.8366 0.675681 7.85074 2.33019 4.91062 5.27032C1.9705 8.21044 0.315984 12.1963 0.309736 16.3543C0.290794 18.4187 0.683647 20.4663 1.46532 22.3772C2.247 24.288 3.40181 26.0239 4.86223 27.4832C6.32265 28.9425 8.05936 30.096 9.97082 30.8762C11.8823 31.6565 13.9301 32.0478 15.9946 32.0273C19.6678 32.0273 22.3961 30.9053 24.1086 28.6966C25.8212 26.488 26.4708 22.9447 25.5023 19.307C25.1464 17.8475 24.4565 16.4904 23.4871 15.3427C22.5177 14.195 21.2952 13.288 19.9158 12.6929C19.4877 12.4816 19.0356 12.3229 18.5693 12.2205C18.0288 11.3356 17.3556 10.5389 16.5733 9.85829C16.3932 9.70167 16.1582 9.62301 15.9201 9.63962C15.682 9.65624 15.4603 9.76676 15.3036 9.94687C15.147 10.127 15.0684 10.3619 15.085 10.6001C15.1016 10.8382 15.2121 11.0599 15.3922 11.2165C15.6988 11.4967 15.9868 11.7965 16.2544 12.1142C15.3491 12.1915 14.463 12.419 13.6324 12.7874C12.7502 13.1329 11.9534 13.6655 11.2968 14.3485C10.6403 15.0316 10.1396 15.8489 9.8293 16.744C9.14427 19.0353 9.93559 22.2479 12.0261 23.0983C12.6131 23.2906 13.2355 23.3501 13.8482 23.2725C14.461 23.1949 15.0489 22.9821 15.5694 22.6495C16.5796 22.083 17.4572 21.3074 18.1436 20.3745C18.83 19.4417 19.3093 18.3731 19.5496 17.2401C19.7481 16.3291 19.7441 15.3856 19.5378 14.4763C20.6019 14.9795 21.5396 15.715 22.2816 16.6288C23.0236 17.5425 23.5511 18.6111 23.8252 19.7558C24.2433 21.0694 24.3616 22.46 24.1715 23.8253C23.9814 25.1906 23.4878 26.496 22.7268 27.6455C21.3567 29.4053 19.1008 30.2911 16.0064 30.2911C14.1714 30.3101 12.3512 29.9625 10.6524 29.2687C8.95358 28.5748 7.41042 27.5488 6.1134 26.2507C4.81639 24.9526 3.79165 23.4085 3.09927 21.7091C2.40689 20.0097 2.06083 18.1892 2.08137 16.3543C2.08137 12.6643 3.54722 9.12538 6.15645 6.51615C8.76568 3.90692 12.3046 2.44106 15.9946 2.44106C19.6846 2.44106 23.2235 3.90692 25.8327 6.51615C28.4419 9.12538 29.9078 12.6643 29.9078 16.3543C29.9078 16.5892 30.0011 16.8145 30.1672 16.9806C30.3333 17.1468 30.5587 17.2401 30.7936 17.2401C31.0285 17.2401 31.2538 17.1468 31.42 16.9806C31.5861 16.8145 31.6794 16.5892 31.6794 16.3543C31.6732 12.1963 30.0187 8.21044 27.0785 5.27032C24.1384 2.33019 20.1525 0.675681 15.9946 0.669434ZM17.8607 16.8739C17.6717 17.7445 17.303 18.5661 16.7783 19.286C16.2536 20.006 15.5844 20.6085 14.8135 21.055C14.5239 21.255 14.1951 21.391 13.849 21.4542C13.5028 21.5173 13.1471 21.506 12.8056 21.4211C11.7545 20.9959 11.1521 18.8346 11.6245 17.2165C11.8619 16.5684 12.2357 15.9789 12.7207 15.4878C13.2057 14.9967 13.7905 14.6155 14.4355 14.37C15.2598 14.014 16.1478 13.8291 17.0457 13.8267H17.4591C17.9045 14.7766 18.0448 15.8411 17.8607 16.8739Z" fill="#FFD275"/>
<path d="M22.1956 38.6889C21.383 39.505 20.4165 40.1518 19.3521 40.5918C18.2878 41.0317 17.1466 41.2561 15.9949 41.2518C14.8356 41.2503 13.688 41.0199 12.6179 40.5741C11.5478 40.1282 10.5762 39.4755 9.75879 38.6534C9.5927 38.4875 9.36755 38.3944 9.13281 38.3944C8.89807 38.3944 8.67293 38.4875 8.50684 38.6534C8.34302 38.823 8.25146 39.0495 8.25146 39.2853C8.25146 39.5211 8.34302 39.7476 8.50684 39.9172C10.4984 41.8925 13.1899 43.0005 15.9949 42.9998C17.3812 43.0054 18.7548 42.7358 20.0361 42.2067C21.3175 41.6775 22.481 40.8993 23.4594 39.9172C23.5464 39.8361 23.6162 39.7383 23.6646 39.6296C23.7131 39.521 23.7391 39.4037 23.7412 39.2847C23.7433 39.1658 23.7214 39.0477 23.6769 38.9374C23.6323 38.8271 23.566 38.7269 23.4819 38.6428C23.3978 38.5586 23.2976 38.4923 23.1873 38.4478C23.077 38.4032 22.9588 38.3813 22.8399 38.3834C22.721 38.3855 22.6037 38.4116 22.495 38.46C22.3863 38.5084 22.2885 38.5782 22.2074 38.6652L22.1956 38.6889Z" fill="#FFD275"/>
<path d="M22.4079 32.1451C19.8331 33.5506 12.6875 33.527 9.41593 32.1451C9.28089 32.0862 9.13328 32.0618 8.98646 32.0743C8.83965 32.0868 8.69827 32.1358 8.57513 32.2167C8.452 32.2976 8.35099 32.408 8.28126 32.5378C8.21153 32.6676 8.17528 32.8127 8.17579 32.96V36.1608C8.17515 36.2914 8.2034 36.4206 8.25853 36.539C8.31366 36.6574 8.39431 36.7622 8.49469 36.8458C9.87656 38.0269 12.9001 38.5466 15.9237 38.5466C18.9473 38.5466 21.9591 37.9797 23.3528 36.8576C23.4562 36.7734 23.5396 36.6671 23.5968 36.5465C23.654 36.426 23.6836 36.2942 23.6835 36.1608V32.9246C23.6839 32.7706 23.6442 32.6192 23.5682 32.4853C23.4923 32.3513 23.3827 32.2395 23.2504 32.1608C23.118 32.0821 22.9675 32.0393 22.8135 32.0365C22.6595 32.0338 22.5075 32.0712 22.3725 32.1451H22.4079ZM21.9473 35.6884C19.5851 37.0702 12.3568 37.0702 9.98286 35.6884V34.1766C13.8846 35.2131 17.9862 35.2375 21.9 34.2474L21.9473 35.6884Z" fill="#FFD275"/>
</svg>
