<svg xmlns="http://www.w3.org/2000/svg" width="142" height="112" viewBox="0 0 142 112"><path d="M65.62,26.5C64,20.3,62.85,16,65.2,13.28c4.09-4.75,15.8-1.37,22.31,1.86,17.23,8.57,21.08,27.69,21.27,28.71,1,5.6,3,16-3.51,22.71s-19,6.93-26.64,2.07C72.92,65,74.59,61.46,65.62,26.5Z" fill="#077594"/><path d="M98,27.32c.45-2.86,1.25-7.93,5-9.7,4.57-2.19,10.71,2,13.63,4.95,7,7.08,8.55,17.39,7.7,23.76-.68,5.12-2.63,7.43-7.85,8.05-4.74.56-9.1-4.06-10-4.75A24.35,24.35,0,0,1,98,27.32Z" fill="#077594"/><path d="M78.75,60.12c3.12-.23,10.59-.46,10.69-8.07,0-2.87-3.76-9.49-12.39-6.81.22-5,.29-3.8-2-8.62-2.43-5,2.17-5.58-6-13-5.9-6.22-21.91,10.44-27.27,19.43,3.89,1.49,6,.59,8.9,3.75a22.74,22.74,0,0,0,2,6.92c1.47,3.51,4.76,6.28,7.7,8A16.53,16.53,0,0,0,78.75,60.12Z" fill="#fff"/><path d="M59.42,63.21c-2.33-1.36-6.53-4.32-8.41-8.81a25.67,25.67,0,0,1-2-6.82,6.81,6.81,0,0,0-4.13-1.89,22.42,22.42,0,0,1-3.75-1l-1.9-.73,1-1.75C44.59,35,56.48,21.54,64.81,20.62a6.25,6.25,0,0,1,5.39,1.79c5.39,4.89,5.76,7.26,5.71,10.07a6.38,6.38,0,0,0,.65,3.4c.38.8.7,1.43,1,1.94,1.18,2.33,1.4,3,1.34,5.24a10.72,10.72,0,0,1,8.32,1.86,9.56,9.56,0,0,1,4,7.15c-.11,8.77-8.41,9.49-11.76,9.72a18.66,18.66,0,0,1-5.75,2.94A17.78,17.78,0,0,1,59.42,63.21ZM79,58.39c4.39-.31,8.67-1,8.75-6.36a6.28,6.28,0,0,0-2.6-4.36c-1.94-1.45-4.54-1.72-7.53-.8h0l-2.33.72.14-3.11c.14-3.06.14-3.06-.9-5.12-.27-.53-.6-1.18-1-2a9.77,9.77,0,0,1-1-4.95c0-1.82.07-3.26-4.62-7.51l-.09-.09A2.79,2.79,0,0,0,65.18,24c-5.77.63-15.73,10.6-20.78,18.06l1.16.25a9.91,9.91,0,0,1,6.35,3.33l.38.42.06.57a20.86,20.86,0,0,0,1.82,6.41c1.55,3.71,5.4,6.26,7,7.18a14.74,14.74,0,0,0,16.53-1.47l.41-.33Z" fill="#077594"/><path d="M60.49,80.68c3.76-5.79,3.38-10.18,2.7-16.82,3.73,1.84,7.23,1.48,11.92-1.09-1,6.22-1.1,11.89,2,19.1" fill="#fff"/><path d="M75.26,82.66a32.22,32.22,0,0,1-2.58-16.57,12.74,12.74,0,0,1-7.2.69c.41,5.1.2,9.57-3.32,15L58.81,79.6c3.29-5.08,3.08-8.82,2.39-15.53l-.38-3.6,3.25,1.6C67.17,63.59,70,63.3,74.15,61l3.56-1.95-.62,4c-1,6.2-1,11.38,1.85,18Z" fill="#077594"/><path d="M97.65,22.64c3-.53,7.61,5.23,11.23,13.83,3.82,9.06,2,17.35,1,17.64-.24.06.74-1.67-4.37-16.47A49.69,49.69,0,0,0,97.65,22.64Z" fill="#e05e48"/><path d="M30.17,112c-2-7.58,15.75-30.13,30.11-34.8,5.9,6.29,12,2.56,17.3,0,8.68,6.49,22.9,21.57,34.4,34.8C88.36,112,52.94,112,30.17,112Z" fill="#077594"/></svg>