<svg xmlns="http://www.w3.org/2000/svg" width="142" height="112" viewBox="0 0 142 112"><path d="M78.89,81.92c-2.42-8.16-5-20.63-3.84-31.23.32-3-14.25.9-13.52,2.11,6,10.14,3.71,19.78.45,31.86-.2.76,2,7.6,8.23,7C76.55,91.06,79.48,83.9,78.89,81.92Z" fill="#fff"/><path d="M69.46,93.2A8.41,8.41,0,0,1,62.87,90c-1.57-1.86-2.66-4.55-2.34-5.76,3.49-12.92,5.2-21.44-.3-30.7a1.75,1.75,0,0,1,.25-2.07c1.55-1.74,11.55-4.38,14.61-3a2.28,2.28,0,0,1,1.45,2.38c-1.27,11.87,2.23,25.39,3.79,30.65h0c.46,1.54-.32,4.25-1.89,6.57a11,11,0,0,1-8.08,5.09C70.05,93.19,69.76,93.2,69.46,93.2Zm-6-8.34a8.19,8.19,0,0,0,2.49,4,5.29,5.29,0,0,0,4.1,1.26,8,8,0,0,0,5.74-3.57,7.54,7.54,0,0,0,1.64-4.25c-1.59-5.35-5.1-19-4-31.23-1.79-.24-7.7.83-10.09,2C69.14,63.68,66.41,74,63.48,84.86Zm0-.1Z" fill="#077594"/><path d="M54,31.87c-5.64.62-9.16,6.48-10.75,9.12-.7,1.16-3.86,6.41-2.12,8.49,1.43,1.71,5.33,4.18,7.68,1.63a31.32,31.32,0,0,0,3,5.4c3.13,5,9.83,6,10.88,6.18,5.66.86,12.06-1,15.4-5.22,2-2.46,3.13-3.4,4.07-6.84,3.78-.69,5.56-3.74,5.59-5.65s-2.85-4.39-5.35-4.24c-2.66.17-3.17,3-5.75,3.45s-4.35-2.1-7.76-5C65.11,36,59.53,31.27,54,31.87Z" fill="#fff"/><path d="M65.49,64.4a20.58,20.58,0,0,1-3-.23c-2.53-.39-8.76-1.84-11.92-6.86l-.7-1.1c-.69-1.1-1.18-1.85-1.69-2.86a5.1,5.1,0,0,1-2,.36A9.3,9.3,0,0,1,40,50.44c-1.64-1.95-1-5.3,2-10.23,1.65-2.73,5.5-9.13,11.88-9.83h0c6.2-.67,12.13,4.35,16.06,7.67.83.71,1.58,1.4,2.24,2,2,1.87,3.13,2.84,4.31,2.65a3.49,3.49,0,0,0,1.93-1.3,5.87,5.87,0,0,1,4-2.16,7.19,7.19,0,0,1,5.16,2.06A5.18,5.18,0,0,1,89.26,45a7.92,7.92,0,0,1-5.9,6.88,14.34,14.34,0,0,1-3.2,5.44l-.89,1.08C76.27,62.16,71,64.4,65.49,64.4ZM48.78,49.61l.25,0a1.5,1.5,0,0,1,1.12.89,24,24,0,0,0,2.23,4.07l.71,1.13c2.5,4,7.71,5.16,9.83,5.48,5.39.83,11.15-1.09,14-4.66l.92-1.13a11.38,11.38,0,0,0,2.87-5.17,1.49,1.49,0,0,1,1.18-1.08A5,5,0,0,0,86.26,45a2.36,2.36,0,0,0-.87-1.48,4.17,4.17,0,0,0-2.89-1.24c-.77,0-1.22.47-2,1.27a6.27,6.27,0,0,1-3.6,2.17c-2.68.41-4.6-1.36-6.82-3.42-.64-.59-1.35-1.25-2.14-1.92-3.54-3-8.86-7.51-13.8-7h0c-4.89.53-8.09,5.84-9.63,8.39-2.62,4.34-2.62,6.32-2.25,6.75a6.41,6.41,0,0,0,4,2.2,1.69,1.69,0,0,0,1.45-.61A1.52,1.52,0,0,1,48.78,49.61ZM54,31.87h0Z" fill="#077594"/><path d="M61.25,6.06c-5.64-2.59-13.71.37-14.94,4.16-.89,2.74-2,7.15,1.12,8.41,1.94.78,5.89.28,8.59.66a8.49,8.49,0,0,1,4.38,1.85,21.46,21.46,0,0,0-6.15-1.51c-4.35-.46-9.32,1.53-15.84,5.66-4.6,2.91-7.71,13.29-.21,14.51,2.87.47,3.82-6.28,15.46-6.16,7.23.08,7.18.65,9.64,2.65,4.14,3.38,7,5.25,7.44,5.71C74,45.76,74,46.39,75.92,49.52c.75,1.22,4.16-.84,3.61-2.1-1.21-2.8-.49-4.39.83-5.83,1.59-1.75,6.23-1,7.4,3.39,1.28,4.86-7.85,4.67-6.68,9.79,1,4.17,6.12,8.23,9.35,6.5,5.69-3,12-13.88,7-19.15,1,1.67,3,6.09,4.32,9.06,1.43,3.2,7.34-.6,7.48-5.07.17-5.8-3.88-10-8.81-14.42-1.81-1.63-6.74-3.79-8.52-3.22,3.8-10.09.49-10.71-5.32-17.59C83.4,7.09,77.4,5.58,75.44,7.37c-1.61,1.48-3.62,4.34-1.65,7,2.14,2.9,7.42,4,8.74,7.18C79.47,14.8,67.23,8.81,61.25,6.06Z" fill="#077594"/><path d="M33.69,112C33.53,108,49.48,82,63.84,77.34c5.9,6.29,10.75,3.29,16.06.73C88.58,84.56,104,98.73,115.54,112,91.92,111.94,56.46,112,33.69,112Z" fill="#077594"/><path d="M46.7,103.82c2-4.46,7.72-15.29,12.28-17.89a10.44,10.44,0,0,1,.78-5.05c.27-.63,1.89-4.36,5.46-4.75,3.3-.37,6.59,2.28,7,4.85-.63,3.11-3.31,4.7-11.31,8.1-1.46,9.25-3.51,14.13-2.74,22.76h-14C44.24,109.87,44.81,107.92,46.7,103.82Z" fill="#e05e48"/></svg>