<svg xmlns="http://www.w3.org/2000/svg" width="142" height="112" viewBox="0 0 142 112"><path d="M76.73,58.52A47.82,47.82,0,0,0,82,78C78.1,85.44,74,89.68,66.78,84.75c.17-10.63.66-14.17-1.69-20" fill="#fff"/><path d="M72.46,89A11.58,11.58,0,0,1,66,86.62l-.9-.62,0-1.29c0-1.5,0-2.86.08-4.1.17-7.55.24-10.37-1.59-14.92l3-1.93c2.21,5.52,2.13,9.34,2,17q0,1.27-.06,2.73c4.66,2.8,7.75,1.3,11.58-5.56a49.59,49.59,0,0,1-5-19.14l3.32-.48a45.57,45.57,0,0,0,5.07,18.59L84,78l-.6,1.13C80.74,84.25,77.4,89,72.46,89Z" fill="#077594"/><path d="M72,61.93c-4,2.66-11.8,3.51-15.84.68-5.92-4.14-6.89-8.08-9.27-15.56-1.49-.48-2.63-.31-4.23-1.45-2.14-1.51-3.75-4.42-3.56-6.77,5.43-5.89,14.26-9.53,16.73-10.1,7-1.61,15.57-3.6,20.37.94,5.49,5.19,7.92,12.12,6.69,18a14.22,14.22,0,0,1,5.3,4c2,2.94-.66,8.38-4.5,8.71A8.54,8.54,0,0,1,77.43,58C75.6,60.13,74.32,60.35,72,61.93Z" fill="#fff"/><path d="M62.85,65.87a13.35,13.35,0,0,1-7.59-2c-6-4.2-7.3-8.29-9.45-15.07l-.15-.49-.49-.1a7.82,7.82,0,0,1-3.42-1.36c-2.65-1.88-4.41-5.29-4.19-8.1l0-.52.35-.38c5.74-6.23,15-10,17.49-10.54,7.28-1.69,16.35-3.78,21.74,1.31s8.16,12,7.32,18.21a14.52,14.52,0,0,1,4.88,4,6.79,6.79,0,0,1,.11,6.66,7.3,7.3,0,0,1-5.72,4.37A9.31,9.31,0,0,1,77.6,60a13.86,13.86,0,0,1-3,2.08c-.57.32-1.16.66-1.85,1.12h0A18.82,18.82,0,0,1,62.85,65.87ZM40.54,39.44a7.34,7.34,0,0,0,2.94,5,5.13,5.13,0,0,0,2.27.86,12.11,12.11,0,0,1,1.55.39l.73.23.63,2c2.09,6.59,3.14,9.9,8.31,13.52,2.89,2,9.85,2.16,14.16-.71.78-.52,1.44-.9,2-1.23A9.64,9.64,0,0,0,76.29,57l1-1.14,1.14,1a7,7,0,0,0,5.12,2,4.44,4.44,0,0,0,3.29-2.67,3.91,3.91,0,0,0,.1-3.71A12.85,12.85,0,0,0,82.22,49l-1.09-.49.25-1.17c1.15-5.5-1.25-11.85-6.25-16.58-4.23-4-12.43-2.1-19-.57A39.87,39.87,0,0,0,40.54,39.44Z" fill="#077594"/><path d="M57.7,26.88C56,20.13,65.64,4.34,78.15,5.19,91,6.07,97.28,21,99.89,27.25c1.68,4,9.38,22.3,0,32.45-6.83,7.38-20.81,8.42-24.26,3.78-2-2.74-.81-4,1.8-5.52,2.4-1.35,5.75,5.62,10.62-.73,3.27-4.25-2.61-11.07-5.21-9.59s-5.21,2.91-6.38,2.28c-.73-.39,1.49-5.54-.2-11.65C73.81,29.42,69.59,25.62,57.7,26.88Z" fill="#077594"/><path d="M36.22,112c-2-7.58,15.75-30.13,30.11-34.8,5.9,6.29,12,2.56,17.3,0,8.68,6.49,22.9,21.57,34.4,34.8C94.41,112,59,112,36.22,112Z" fill="#077594"/><path d="M94.42,82.67c-3.6-1.43-8.76.79-10.19,1.48C72.85,89.64,71,104.2,72.13,112c2.19,0,4.71,0,7,0,.74-5.31,2-15.9,8-20,5-3.45,9.56-2,12.62.09C102.06,86.87,96.62,83.53,94.42,82.67Z" fill="#e05e48"/><path d="M53.61,85a8.44,8.44,0,0,1,3-5.33c3.21-2.8,8.7-4.12,8.68-2A59.42,59.42,0,0,0,53.61,85Z" fill="#e05e48"/></svg>