<svg xmlns="http://www.w3.org/2000/svg" width="142" height="112" viewBox="0 0 142 112"><path d="M54.87,52.61C57,62,58.4,63.58,62.49,66.76c5.8,4.51,17.28,4.89,21.59.73,1.41-1.35,3.12-3.53,4.68-5,2.79.53,3.47.48,5.19-.19,3.4-1.33,4.15-8,3.82-12a20.81,20.81,0,0,0-5.06-11.67c-5.57-6.43-13.2-7.36-15.8-7.68-2.4-.29-9.39-1.15-14.91,2.76-1.34,1-.92,1-3.49,3.18-4.37-.14-6.71-.87-9.4,7.57C47.46,49.63,51.26,52.69,54.87,52.61Z" fill="#fff"/><path d="M79.46,71.29c-5.71,1.32-13.29.14-17.85-3.4-4.22-3.28-5.86-5.17-7.9-13.92a7.25,7.25,0,0,1-6-9.93c2.7-8.48,5.55-8.8,10-8.61H58a21.27,21.27,0,0,0,1.72-1.62,8,8,0,0,1,1.45-1.27c6-4.23,13.46-3.32,15.91-3,2.68.33,10.79,1.33,16.71,8.17A22.28,22.28,0,0,1,99.2,50.19c.32,3.9-.24,11.74-4.72,13.49a8,8,0,0,1-5.26.39c-.64.65-1.33,1.41-2,2.15s-1.47,1.65-2.15,2.31A11.9,11.9,0,0,1,79.46,71.29ZM54.78,38.39c-1.71.39-2.81,1.83-4.31,6.52a4.45,4.45,0,0,0,4.37,6.26l1.17,0,.26,1.15c2,9.05,3.23,10.32,7.1,13.33,5.22,4.06,15.91,4.51,19.71.84.61-.58,1.29-1.34,2-2.15.88-1,1.8-2,2.69-2.84l.53-.49.71.14c2.69.5,3.06.41,4.41-.12,2.19-.85,3.27-6.16,2.9-10.57a19.32,19.32,0,0,0-4.71-10.85c-5.2-6-12.49-6.9-14.88-7.19-2.19-.27-8.84-1.09-13.91,2.51a6.17,6.17,0,0,0-1,.9A23.66,23.66,0,0,1,59.44,38l-.42.36-.56,0-.88,0A10.8,10.8,0,0,0,54.78,38.39Z" fill="#077594"/><path d="M54.9,39.88c1.12-.4,3.22-1.14,4.84-.33,3.38,1.68,2.11,8.86,3.68,9.16,1.23.24,2.1-4.12,4.64-7.16,5.79-6.91,14.86-9.71,24.65-2.91,1.41,1,4.82,4.31,5.76,12.62C99,56,98,60.93,94,62.67c-3.06,1.33-5.54-.82-6,.21S95.55,72,96.47,74.79c1.43,4.37-1,6-1.71,11.86s3.78,12,9,15c7.06,4.1,16.59,3,21.16-1.94,4.91-5.28,11.52-15.38.47-31.14-7.77-11.07-4.62-16.52-2.6-23.16,2.46-8.07,7.45-8.41,8.59-15.54,1.35-8.32-4-16.94-9.91-21.67C110.6-.44,102.25,1.73,94.65,1.77c-11.28.05-27,8.05-25.83,18.4-4.7,2.29-9.41,1.69-13,5.29C49.41,32,49.15,42.41,50.11,43,50.63,43.23,51.68,41,54.9,39.88Z" fill="#077594"/><path d="M74.6,70.71c-1.4,5.12-1,13.75.59,16.35-3.85,5.34-14.32,4-17.71-3.49.65-2.52,6.66-7.74,4.38-16.76C67.23,69.16,71.28,71.46,74.6,70.71Z" fill="#fff"/><path d="M64.66,91.51a13.14,13.14,0,0,1-8.57-7.19l-.26-.57.16-.61a11.69,11.69,0,0,1,1.53-3c1.84-2.92,4.36-6.92,2.85-12.91L60,64.46l2.44.79c4.43,3,8.59,4.84,11.7,4.14H76l.77.23c-1.45,5.31-1.43,14.66-.32,16.53l.59,1-.68.94c-2,2.8-5.61,4.23-9.6,3.82A12.8,12.8,0,0,1,64.66,91.51Zm-5.46-8a10.25,10.25,0,0,0,7.93,5.09,7.69,7.69,0,0,0,6.23-1.82c-1.12-3.58-.86-9.63,0-14.52-2.74.12-6.9-.41-9.5-2.84.48,5.85-2.13,10-3.79,12.64C59.75,82.55,59.42,83.07,59.2,83.48Z" fill="#077594"/><path d="M22.37,111.68c11.5-11.34,26.47-25.95,35.15-31.51,5.31,2.19,12.32,7.08,18.22,1.69,14.36,4,30.44,23.33,28.44,29.82C81.41,111.68,46,111.66,22.37,111.68Z" fill="#077594"/><path d="M67.84,20.61c-.24-1.3,4.91-7.36,11.93-6.67,6.56.64,9.29,7.19,8.85,8.44a17.5,17.5,0,0,0-11-3.11C71.11,19.28,70,19.9,67.84,20.61Z" fill="#e05e48"/></svg>