<svg xmlns="http://www.w3.org/2000/svg" width="142" height="112" viewBox="0 0 142 112"><path d="M57.71,38.3C49.47,42.86,44.42,54.81,47.19,59c1.2,1.82,4.45,1.71,8.24,1.18,6.71,7.76,10.29,7,15.75,7.05,5.83,0,15.22-6.33,16.57-12.05C92,54,91.47,50.37,91,48.46s-1.33-4.7-5.86-4.72c-9.77-7.09-11.56-7.58-15.45-8A20.58,20.58,0,0,0,57.71,38.3Z" fill="#fff"/><path d="M68.8,68.74c-4.25,0-8.15-.48-14-7-3.54.45-7.25.56-8.9-1.94-1.13-1.7-1.32-4.23-.56-7.31C46.62,47.44,50.79,40.42,57,37h0a22,22,0,0,1,12.91-2.76c4.11.46,6.07,1,15.79,8,5.56.25,6.48,4.32,6.83,5.88,1.14,5.08-1.12,7.28-3.54,8.22-2.16,6.28-11.81,12.38-17.78,12.38H68.8ZM56,58.58l.53.62c5.7,6.61,8.72,6.57,13.3,6.53h1.32c5.93,0,14.06-6.49,15.1-10.89L86.5,54l.84-.24c2.27-.64,2.89-2,2.24-5-.43-1.94-1.06-3.54-4.41-3.55h-.48L84.3,45C74.37,37.75,73,37.6,69.56,37.22a18.87,18.87,0,0,0-11.13,2.39c-5.4,3-9,9.16-10.14,13.62-.54,2.19-.48,4,.15,5,.88,1.34,5.33.72,6.79.52Z" fill="#077594"/><path d="M46.62,4.09c5.4-1.84,14.46.57,20.44,9.2C70.75,9.16,75,6.9,78,8c2.7,1,3.76,6.46,3.21,12.14a19.83,19.83,0,0,1,5,1.35c9.92,4,19,15.48,19.2,28.73.16,9.23-3.89,23.13-13.9,25.9-7.72,2.14-15.43-4-17.9-7.77C71.85,65.62,79.39,64,86.37,55c1.19-1.55,4.41-1.25,2.86-7.07-.55-2-4.63-4.88-8.63.88-2.95-1.44-1.13-6-3.65-6.76-3.35-1-4.88-.37-8.58-.87a15.54,15.54,0,0,1-5.1,1.49c-9.5,1.11-16.22-6.59-16.94-7.44C37.3,24.51,40.73,6.1,46.62,4.09Z" fill="#077594"/><path d="M62.18,65.77c.17,5.32-2.08,15.25-4.37,17.37,2.69,6.17,14,7.6,19.47,1.23,0-2.61-5-9.23-.36-17.38C70.68,67.87,65.47,67.35,62.18,65.77Z" fill="#fff"/><path d="M65.4,90c-4.3-.65-7.71-3-9.12-6.2l-.48-1.09.87-.81c1.64-1.51,4-10.56,3.83-16.09l-.09-2.76,2.49,1.2C66,65.74,71,66.13,76.68,65.34l2.76-.13-1.07,2.61c-3.1,5.4-1.46,9.93-.27,13.24A11.12,11.12,0,0,1,79,84.33V85l-.42.48a14.18,14.18,0,0,1-10.81,4.73A16.74,16.74,0,0,1,65.4,90ZM75,82.2c-1.07-3-2.77-7.69-.79-13.23a29.78,29.78,0,0,1-10.37-.81c-.33,5-1.9,12-4,15.15a8.7,8.7,0,0,0,6.08,3.39,11.4,11.4,0,0,0,9.61-2.87C75.38,83.38,75.16,82.78,75,82.2Z" fill="#077594"/><path d="M28.87,112.42c-2-7.58,15.75-30.13,30.11-34.8,5.9,6.29,12,2.56,17.3,0,8.68,6.49,22.9,21.57,34.4,34.8C87.06,112.4,51.64,112.42,28.87,112.42Z" fill="#077594"/><circle cx="87.6" cy="56.3" r="3.72" fill="#e05e48"/></svg>