<svg width="26" height="34" viewBox="0 0 26 34" fill="none" xmlns="http://www.w3.org/2000/svg">
<g style="mix-blend-mode:overlay" opacity="0.27">
<path d="M12.9125 0.899414C10.1616 0.909784 7.49559 1.85314 5.35036 3.57525C3.20514 5.29736 1.70763 7.69632 1.10268 10.3799C0.497737 13.0635 0.821142 15.873 2.02002 18.3489C3.2189 20.8249 5.22232 22.8208 7.70272 24.0105V25.1601C7.53406 25.1225 7.35739 25.1519 7.21003 25.2422C7.11451 25.3045 7.03609 25.3898 6.98191 25.4902C6.92773 25.5906 6.89951 25.7029 6.89981 25.817V28.2896C6.89931 28.3905 6.92114 28.4903 6.96373 28.5818C7.00632 28.6733 7.06862 28.7542 7.14616 28.8188C7.31911 28.956 7.50559 29.0752 7.70272 29.1746V30.087C7.55919 30.0575 7.40995 30.0756 7.27755 30.1383C7.14516 30.2011 7.03678 30.3053 6.96879 30.4351C6.90079 30.5649 6.87687 30.7133 6.90064 30.8579C6.92441 31.0025 6.99457 31.1354 7.10054 31.2366C8.64872 32.7626 10.7388 33.6124 12.9125 33.5998C13.9834 33.6041 15.0445 33.3958 16.0344 32.987C17.0242 32.5783 17.9231 31.9771 18.6789 31.2184C18.807 31.0901 18.879 30.9162 18.879 30.7348C18.879 30.5535 18.807 30.3796 18.6789 30.2513C18.6051 30.1791 18.5157 30.1251 18.4175 30.0934C18.3193 30.0617 18.2152 30.0533 18.1132 30.0688V29.1564C18.2968 29.064 18.4709 28.954 18.6333 28.8279C18.7132 28.7628 18.7776 28.6807 18.8218 28.5876C18.8659 28.4945 18.8888 28.3927 18.8887 28.2896V25.817C18.8884 25.6974 18.8571 25.58 18.7979 25.4761C18.7388 25.3722 18.6538 25.2853 18.5511 25.2239C18.4186 25.1478 18.262 25.125 18.1132 25.1601V23.6272C18.5237 23.3209 18.8892 22.9585 19.1989 22.5506C19.2711 22.4538 19.3381 22.3533 19.3997 22.2495C20.7959 21.2743 21.9525 19.9949 22.7822 18.5077C23.612 17.0204 24.0933 15.3642 24.1898 13.6639C24.2441 13.6732 24.2996 13.6732 24.354 13.6639C24.5347 13.6615 24.7074 13.5886 24.8352 13.4608C24.9631 13.333 25.0359 13.1603 25.0383 12.9796C25.0238 9.77226 23.7402 6.70113 21.468 4.43748C19.1958 2.17383 16.1198 0.901793 12.9125 0.899414Z" fill="white"/>
</g>
<g style="mix-blend-mode:overlay" opacity="0.35">
<path d="M12.9121 0.899414C9.70002 0.904241 6.62091 2.18236 4.34964 4.45363C2.07837 6.72489 0.800253 9.80401 0.795427 13.0161C0.780794 14.6109 1.08428 16.1926 1.68813 17.6688C2.29198 19.1449 3.18408 20.4859 4.31226 21.6132C5.44044 22.7406 6.78207 23.6316 8.25868 24.2344C9.73529 24.8371 11.3173 25.1394 12.9121 25.1236C15.7496 25.1236 17.8573 24.2568 19.1802 22.5506C20.5032 20.8444 21.005 18.1072 20.2569 15.2971C19.9819 14.1696 19.449 13.1212 18.7001 12.2346C17.9513 11.348 17.0069 10.6473 15.9412 10.1876C15.6105 10.0244 15.2613 9.90183 14.9011 9.82266C14.4835 9.13909 13.9635 8.52366 13.3591 7.99787C13.22 7.87688 13.0385 7.81611 12.8546 7.82895C12.6706 7.84178 12.4993 7.92716 12.3783 8.0663C12.2573 8.20544 12.1966 8.38694 12.2094 8.57088C12.2222 8.75483 12.3076 8.92614 12.4467 9.04713C12.6836 9.26355 12.9061 9.49518 13.1128 9.74055C12.4134 9.80028 11.7289 9.97604 11.0873 10.2606C10.4058 10.5275 9.79023 10.939 9.28304 11.4666C8.77585 11.9943 8.38908 12.6256 8.14935 13.3171C7.62016 15.0872 8.23147 17.5689 9.84641 18.2258C10.2999 18.3744 10.7806 18.4204 11.254 18.3604C11.7274 18.3005 12.1815 18.1361 12.5836 17.8791C13.364 17.4415 14.0419 16.8424 14.5722 16.1217C15.1024 15.4011 15.4728 14.5756 15.6584 13.7004C15.8117 12.9966 15.8086 12.2678 15.6493 11.5653C16.4713 11.954 17.1956 12.5223 17.7688 13.2281C18.342 13.934 18.7495 14.7595 18.9613 15.6438C19.2842 16.6585 19.3757 17.7327 19.2288 18.7875C19.082 19.8422 18.7006 20.8506 18.1127 21.7386C17.0544 23.0981 15.3117 23.7823 12.9212 23.7823C11.5037 23.797 10.0975 23.5285 8.7852 22.9925C7.47286 22.4565 6.28075 21.6639 5.2788 20.6611C4.27685 19.6583 3.48523 18.4655 2.95036 17.1527C2.4155 15.8399 2.14816 14.4335 2.16402 13.0161C2.16402 10.1655 3.2964 7.43169 5.31205 5.41604C7.3277 3.40039 10.0615 2.26801 12.9121 2.26801C15.7626 2.26801 18.4964 3.40039 20.5121 5.41604C22.5277 7.43169 23.6601 10.1655 23.6601 13.0161C23.6601 13.1975 23.7322 13.3716 23.8605 13.4999C23.9889 13.6283 24.1629 13.7004 24.3444 13.7004C24.5259 13.7004 24.7 13.6283 24.8283 13.4999C24.9566 13.3716 25.0287 13.1975 25.0287 13.0161C25.0239 9.80401 23.7458 6.72489 21.4745 4.45363C19.2032 2.18236 16.1241 0.904241 12.9121 0.899414ZM14.3537 13.4175C14.2076 14.09 13.9228 14.7247 13.5175 15.2809C13.1122 15.837 12.5952 16.3025 11.9997 16.6474C11.776 16.8019 11.522 16.907 11.2546 16.9558C10.9871 17.0045 10.7124 16.9958 10.4486 16.9302C9.63656 16.6018 9.17124 14.9321 9.5362 13.6821C9.71957 13.1815 10.0083 12.726 10.383 12.3467C10.7576 11.9673 11.2094 11.6729 11.7077 11.4832C12.3445 11.2081 13.0305 11.0654 13.7241 11.0635H14.0434C14.3875 11.7973 14.4959 12.6196 14.3537 13.4175Z" fill="white"/>
<path d="M17.7026 30.2697C17.0749 30.9002 16.3283 31.3999 15.506 31.7398C14.6838 32.0796 13.8023 32.2529 12.9125 32.2496C12.017 32.2484 11.1305 32.0705 10.3038 31.7261C9.47711 31.3816 8.72654 30.8774 8.09508 30.2424C7.96677 30.1142 7.79285 30.0422 7.61151 30.0422C7.43017 30.0422 7.25625 30.1142 7.12794 30.2424C7.00139 30.3734 6.93066 30.5484 6.93066 30.7305C6.93066 30.9126 7.00139 31.0876 7.12794 31.2186C8.66642 32.7445 10.7457 33.6005 12.9125 33.6C13.9835 33.6043 15.0446 33.3961 16.0344 32.9873C17.0242 32.5785 17.9231 31.9773 18.6789 31.2186C18.7461 31.156 18.8001 31.0804 18.8375 30.9965C18.8749 30.9126 18.895 30.8219 18.8966 30.7301C18.8982 30.6382 18.8813 30.5469 18.8469 30.4617C18.8125 30.3765 18.7612 30.2991 18.6963 30.2341C18.6313 30.1691 18.5539 30.1179 18.4687 30.0835C18.3835 30.0491 18.2922 30.0322 18.2003 30.0338C18.1084 30.0354 18.0178 30.0555 17.9339 30.0929C17.8499 30.1303 17.7744 30.1843 17.7118 30.2515L17.7026 30.2697Z" fill="white"/>
<path d="M17.8665 25.2148C15.8774 26.3006 10.3574 26.2824 7.8301 25.2148C7.72577 25.1693 7.61174 25.1505 7.49833 25.1602C7.38491 25.1698 7.2757 25.2076 7.18057 25.2701C7.08545 25.3327 7.00742 25.4179 6.95355 25.5182C6.89969 25.6184 6.87168 25.7306 6.87208 25.8444V28.317C6.87158 28.4179 6.89341 28.5177 6.936 28.6092C6.97859 28.7007 7.04088 28.7816 7.11843 28.8462C8.18593 29.7586 10.5217 30.16 12.8574 30.16C15.1931 30.16 17.5198 29.7221 18.5964 28.8553C18.6763 28.7902 18.7407 28.7081 18.7849 28.615C18.8291 28.5219 18.852 28.4201 18.8519 28.317V25.817C18.8522 25.6981 18.8215 25.5811 18.7628 25.4776C18.7042 25.3742 18.6195 25.2878 18.5173 25.227C18.4151 25.1662 18.2987 25.1331 18.1798 25.131C18.0609 25.1288 17.9434 25.1578 17.8391 25.2148H17.8665ZM17.5106 27.952C15.6858 29.0195 10.102 29.0195 8.26805 27.952V26.7842C11.2822 27.5849 14.4507 27.6037 17.4741 26.8389L17.5106 27.952Z" fill="white"/>
</g>
</svg>
