<svg xmlns="http://www.w3.org/2000/svg" width="48" height="48" viewBox="0 0 48 48"><path d="M39.16,13.8H26.55a.76.76,0,0,0-.75.75v5.56a.75.75,0,0,0,1.5,0V15.3H39.18a.93.93,0,0,1,.93.93V31.75a1,1,0,0,1-.94,1H27.3V28a.75.75,0,0,0-1.5,0v5.41a.76.76,0,0,0,.75.75H39.17a2.45,2.45,0,0,0,2.44-2.45V16.23A2.44,2.44,0,0,0,39.16,13.8Z" fill="#393d3f"/><path d="M33.71,16.68a4.56,4.56,0,1,0,4.54,4.55A4.55,4.55,0,0,0,33.71,16.68Zm0,8.11a3.56,3.56,0,1,1,3.54-3.56A3.56,3.56,0,0,1,33.71,24.79Z" fill="#393d3f"/><path d="M30.43,27.92a.5.5,0,0,0-.5.5v2.29a.5.5,0,0,0,.5.5H37a.5.5,0,0,0,.5-.5V28.42a.51.51,0,0,0-.5-.5Zm6.06,2.29H30.93V28.92h5.56Z" fill="#393d3f"/><path d="M27.3,24a1.26,1.26,0,0,0-.43-.94l-6.5-5.67a1.26,1.26,0,0,0-2.08,1l0,3.07-10.67.06a1.27,1.27,0,0,0-.89.38,1.19,1.19,0,0,0-.36.89v2.74a1.27,1.27,0,0,0,1.26,1.26h0l9.46-.06h1.2l0,3.07a1.23,1.23,0,0,0,.74,1.14,1.35,1.35,0,0,0,.52.11,1.23,1.23,0,0,0,.82-.32l6.45-5.74A1.24,1.24,0,0,0,27.3,24Zm-7.46,5.19V25.88a.75.75,0,0,0-.75-.75h0L7.9,25.21V22.94l11.18-.07a.75.75,0,0,0,.74-.75l0-3.28L25.68,24Z" fill="#393d3f"/></svg>