<svg xmlns="http://www.w3.org/2000/svg" width="48" height="48" viewBox="0 0 48 48"><path d="M39.82,27.19l-5.65-5a1.19,1.19,0,0,0-2,.9V25.7H20.28c-2.79,0-3.83-1.27-3.83-4.69A.75.75,0,0,0,15,21c0,2.66.55,6.19,5.33,6.19H33a.75.75,0,0,0,.75-.75V23.8l4.87,4.28L33.7,32.37V29.73A.75.75,0,0,0,33,29H20.28A6.5,6.5,0,0,1,15,26.85,9.07,9.07,0,0,1,13.32,21a.75.75,0,1,0-1.5,0,10.34,10.34,0,0,0,2.07,6.8,7.9,7.9,0,0,0,6.39,2.67H32.2v2.58a1.17,1.17,0,0,0,.7,1.08,1.25,1.25,0,0,0,.5.11,1.16,1.16,0,0,0,.78-.3l5.64-5a1.18,1.18,0,0,0,0-1.79Z" fill="#393d3f"/><path d="M9.9,20.17H9.31V18.69l10.22-.06a.75.75,0,0,0,.75-.75V15.62l4.28,3.73L20.3,23.13V20.87a.8.8,0,0,0-.23-.53.74.74,0,0,0-.52-.22H18.48a.75.75,0,0,0-.75.76.78.78,0,0,0,.76.74h.3v2.28a1.14,1.14,0,0,0,.68,1,1.1,1.1,0,0,0,.47.1,1.13,1.13,0,0,0,.76-.29l5.12-4.55a1.16,1.16,0,0,0,.39-.87,1.14,1.14,0,0,0-.39-.86L20.66,14a1.15,1.15,0,0,0-1.9.87v2.29L9,17.19a1.15,1.15,0,0,0-.82.34,1.18,1.18,0,0,0-.33.82v2.18a1.11,1.11,0,0,0,.34.81,1.15,1.15,0,0,0,.82.34h.94a.75.75,0,0,0,0-1.5Z" fill="#393d3f"/></svg>