<svg xmlns="http://www.w3.org/2000/svg" viewBox="0 0 192.39 358.91"><defs><style>.cls-1{fill:#fff;}.cls-2{fill:#077594;}.cls-3{fill:#e05e48;}.cls-4{fill:#eaa69d;}</style></defs><g id="Layer_2" data-name="Layer 2"><g id="Layer_1-2" data-name="Layer 1"><path class="cls-1" d="M121.17,86.74c-2.43-2.37.72-5.78-.87-12.81-1.85-8.22-7.85-11.11-6.3-14.34,1-2.13,4.82-3.27,7.39-2.17,3.94,1.69,2,7.4,6.51,14.77,4.16,6.8,9.18,7.47,8.69,10.43C135.89,86.85,124.77,90.26,121.17,86.74Z"/><path class="cls-2" d="M125.76,90.21a8.4,8.4,0,0,1-6-2h0c-2-1.91-1.63-4.23-1.31-6.47a18.73,18.73,0,0,0-.11-7.33A22.41,22.41,0,0,0,114.2,66c-1.69-2.36-3.28-4.59-2-7.26,1.5-3.1,6.43-4.66,10-3.14,3,1.3,3.64,4.11,4.31,7.09a25.29,25.29,0,0,0,3.12,8.48,22.73,22.73,0,0,0,5.67,6.17c1.83,1.48,3.72,3,3.28,5.62s-3.17,5-7.32,6.35A18,18,0,0,1,125.76,90.21Zm-3.19-4.9c1.14,1.11,4.33,1.19,7.43.18s4.5-2.46,4.62-3.2c0-.32-1-1.14-1.86-1.86a26.52,26.52,0,0,1-6.56-7.2,29.72,29.72,0,0,1-3.62-9.69c-.62-2.81-.94-3.83-2-4.28-1.66-.71-4.27.11-4.8,1.2-.23.5.47,1.54,1.66,3.2a26,26,0,0,1,4.79,9.83,22.68,22.68,0,0,1,.17,8.77c-.29,2-.3,2.61.15,3Z"/><path class="cls-1" d="M130.93,40.94a4.94,4.94,0,0,0-.68.05,18.1,18.1,0,0,0-32.67-4.91c-5.74,1.84-10.81,4.47-10.19,9.41,4.71,6.06,8.46,7.39,10.36,10.44l0,0,.06.08a1.84,1.84,0,0,0,.17.22,18.1,18.1,0,0,0,32.25-5.53,4.92,4.92,0,1,0,.68-9.79Z"/><path class="cls-2" d="M112.81,66.1A20.3,20.3,0,0,1,96.3,57.55c-.08-.1-.15-.2-.23-.32L95.92,57a14.34,14.34,0,0,0-3.16-3.13,40.93,40.93,0,0,1-7-7.09l-.36-.46-.07-.57c-.91-7.19,7.09-10.22,10.94-11.47a20.21,20.21,0,0,1,35.56,4.58,7,7,0,0,1,0,14A20.29,20.29,0,0,1,112.81,66.1ZM99.53,54.76l.2.28a16,16,0,0,0,28.47-4.88l.5-1.79,1.84.25a2.58,2.58,0,0,0,.39,0,2.8,2.8,0,0,0,0-5.59,2.38,2.38,0,0,0-.39,0l-1.84.25-.5-1.79a16,16,0,0,0-28.83-4.33l-.42.64-.72.24c-7.46,2.38-8.77,4.72-8.76,6.58a38.41,38.41,0,0,0,6,5.92A17.9,17.9,0,0,1,99.53,54.76Z"/><path class="cls-2" d="M99.39,30.5c-6.65-8.13.49-32.92,10.55-30.31,2.7.7-.57,15.21,3.59,16.61,3.81,1.29,7.72-18,12.12-8.53,2.31,5-3.79,11-1.57,13.47,1.25,1.42,11.77-6.94,12.34,1.35.2,2.85-4.92,6.36-4,9.43.52,1.8,8.48,2.87,9.63,6,1.3,3.53-2.41,5.45-5.26,5.13-2.42-.28-6.56-1.61-8.41-1.45s-2.47,5.63-3.81,5.61-1-5.26-3.37-9C116.28,31.28,104.08,36.24,99.39,30.5Z"/><path class="cls-1" d="M89.11,268.4c11.46,37.36,29.32,58.05,42.14,72.55,6.53,7.38,11.06,11.5,17.81,13.9,16.71,5.92,38.74-1.67,40.83-11.73,1.29-6.24.39-10.92-6.08-19.12-23-29.09-11-60.35-20-87.31-10.86-32.58-68.26-18.35-79.06-2.6C80.5,240.32,83.37,249.68,89.11,268.4Z"/><path class="cls-2" d="M161.71,358.91a39.78,39.78,0,0,1-13.32-2.18c-7.21-2.56-11.93-6.88-18.64-14.46C117.51,328.43,99,307.52,87.2,269l1.91-.59L87.2,269c-5.93-19.3-8.9-29-4.08-36,7.12-10.38,33.32-20.46,55.19-17.38,14.13,2,23.61,9.07,27.41,20.49,3.47,10.41,3.88,21.12,4.32,32.46.69,18,1.4,36.6,15.34,54.24,6.38,8.08,8,13.32,6.47,20.76-.81,3.87-3.9,7.42-8.94,10.26A45,45,0,0,1,161.71,358.91ZM91,267.82c11.57,37.7,29.72,58.22,41.73,71.8,6.25,7.07,10.59,11.08,17,13.34,11.16,4,24,1.39,31.21-2.66,4-2.23,6.44-4.92,7-7.59,1.14-5.51.58-9.52-5.69-17.47-14.74-18.66-15.48-37.93-16.2-56.57-.42-11-.82-21.47-4.11-31.35-4.16-12.48-15.44-16.57-24.17-17.79-19.94-2.8-44.9,6.28-51.34,15.69-3.73,5.43-1,14.5,4.6,32.58l-1.91.6Z"/><path class="cls-1" d="M69.13,218.34c-30.28,21.19-40.69,53.11-44,63.2-4.71,14.44-5.38,26.1-5.87,34.54-1,16.61-1.31,25,4.56,31.27,7.68,8.15,23.2,10,31,3.59,8.31-6.84,2-18.39,7.5-32.26,5.91-14.89,19.9-18.48,46.26-31.27,33.15-16.09,69.85-48.78,69.39-71.35-.16-8.17-2.09-16-5.21-19.15C150.3,174.13,101.42,195.74,69.13,218.34Z"/><path class="cls-2" d="M42.45,356.79c-7.32,0-15.11-2.81-20.06-8.07-6.58-7-6.06-16.14-5.1-32.76.49-8.59,1.17-20.35,6-35C26.69,270.37,37.16,238.27,68,216.7h0c34.7-24.28,83.32-44.4,106.18-21.2,4,4.11,5.64,13.29,5.78,20.52.47,23.09-36.09,56.48-70.52,73.19-5,2.42-9.62,4.55-13.7,6.42-17.46,8-27.08,12.46-31.57,23.79-2.32,5.83-2.42,11.34-2.52,16.21-.12,6.41-.24,12.47-5.56,16.85C52.53,355.39,47.6,356.79,42.45,356.79ZM146.56,189.18a79.4,79.4,0,0,0-21.39,3.35c-16.69,4.71-36.7,14.72-54.89,27.45h0c-29.74,20.81-39.89,52-43.23,62.18-4.63,14.19-5.29,25.66-5.77,34-1,16.68-1.16,24.29,4,29.79,7,7.44,21.25,9.16,28.22,3.41,3.9-3.21,4-7.67,4.11-13.84.1-5.2.22-11.1,2.8-17.6,5.08-12.82,15.83-17.76,33.62-25.95,4.06-1.87,8.66-4,13.63-6.39,32.63-15.83,68.69-48.27,68.26-69.51-.16-8-2-15.14-4.63-17.79C165.32,192.23,157,189.18,146.56,189.18Z"/><path class="cls-2" d="M119.52,81.18a7.8,7.8,0,0,0,7.82.87c3.53-1.29,4-2.39,5.64-5.21,4.19-1.26,15,12.28,22.16,33.88,9.71,29.24.41,36.06,9.12,56.9,10.48,25.07,28.77,26.78,27.37,40-1.91,18-37.28,32.82-59.51,31.71-28.23-1.41-55.5-25.52-69.09-19.76-9.71-18,2.8-41.89,16.09-56.26,3.11-3.36,4-4.59,7.11-5.86A63.15,63.15,0,0,0,103.77,159c9-.28,23.27-7.77,21.41-10.55-5.23,2.78-16.85,5.93-21.52,5.71-4.08-.19-14.29,2.11-28.45-6.08-21.13-12.22-29.1-39-36.7-46.92,12.05-1.3,18,17.6,39.09,23,10.43,2.68,16.2,1.65,22.41-1.38C116.21,114.92,111.59,92.48,119.52,81.18Z"/><path class="cls-1" d="M38.5,101.16C36.37,99,15.08,91.8,4.62,100.29c-.89.73-2.81,2.33-2.6,4.13.36,3.09,6.9,5.81,12.59,5,4.1-.59,4.69-2.57,10.21-5C33,100.82,33.41,101.93,38.5,101.16Z"/><path class="cls-2" d="M12.54,111.56a17.18,17.18,0,0,1-10-3A5.91,5.91,0,0,1,0,104.65c-.34-2.92,2.33-5.09,3.33-5.91,11.49-9.33,33.74-1.81,36.56,1l2.8,2.8-3.92.59c-1.46.22-2.55.29-3.52.36-2.42.16-4,.27-9.65,2.75a30.46,30.46,0,0,0-4.77,2.65,13,13,0,0,1-6,2.5A16.71,16.71,0,0,1,12.54,111.56Zm5.77-13.28c-4.62,0-9.16.92-12.43,3.57C4.11,103.29,4,104,4,104.19a2.34,2.34,0,0,0,1,1.18,13.79,13.79,0,0,0,9.36,2.07,9.32,9.32,0,0,0,4.34-1.88,32.69,32.69,0,0,1,5.34-3,43.14,43.14,0,0,1,6.77-2.48A48,48,0,0,0,18.31,98.28Z"/><rect class="cls-3" x="2" y="67.5" width="36.5" height="18.97" rx="1.83"/><path class="cls-4" d="M19.55,83.67,2.18,68.53a1.75,1.75,0,0,1,1.65-1H36.62a1.81,1.81,0,0,1,1.66.94L20.81,83.67A1,1,0,0,1,19.55,83.67Z"/></g></g></svg>