<svg xmlns="http://www.w3.org/2000/svg" viewBox="0 0 226.23 262.28"><defs><style>.cls-1{fill:#fff;}.cls-2{fill:#077594;}</style></defs><g id="Layer_2" data-name="Layer 2"><g id="Layer_1-2" data-name="Layer 1"><path class="cls-1" d="M142.34,60.19c.85,10.16-.17,6.18,3,23.66,2.91,15.81,4,19.18,6.46,27.6-2.3,7.49-15.38,3-20.09-.27.2-8.58,1.79-.4-.42-24.13-2-21.67-1.76-18.06-4.26-29.32C129.84,55,139.29,57.31,142.34,60.19Z"/><path class="cls-2" d="M145.08,117.54c-5.42,0-11.7-2.77-14.48-4.72l-.87-.61,0-1.07a26.17,26.17,0,0,1,.48-5c.33-1.67.59-3-.89-18.9-1.68-18-1.77-18.4-3.2-24.59-.29-1.22-.62-2.65-1-4.48l-.24-1.08.78-.77C128,54,132.52,54.4,135,54.88c2.84.55,6.62,1.85,8.73,3.86l.56.52.06.76c.23,2.71.32,4.42.4,5.79.21,3.69.28,4.93,2.62,17.68,2.79,15.16,3.84,18.73,6.16,26.54l.42,1.43-.18.58a7.32,7.32,0,0,1-4.81,4.92A11.87,11.87,0,0,1,145.08,117.54Zm-11.29-7.42c3.67,2.19,10.24,4.29,13.85,3a3.31,3.31,0,0,0,2.1-1.8l-.07-.2c-2.35-8-3.43-11.59-6.25-26.95C141,71.21,141,69.91,140.74,66c-.07-1.21-.15-2.67-.33-4.85-2.69-2-8.58-3.24-11.08-2.5l.7,3.05c1.49,6.43,1.58,6.82,3.29,25.12,1.54,16.48,1.26,17.9.84,20A18.43,18.43,0,0,0,133.79,110.12Z"/><path class="cls-2" d="M123.64,26.63C121.81,18.13,126,8.14,133,3.41c10.67-7.24,27.48-1.95,37.14,6.51,17.5,15.31,7.93,37.83,24.4,48.45,12.14,7.82,24.19,0,29.65,8s-.55,23.89-10.51,32C195.45,113,160.32,103.74,150.91,86c-6.32-11.92,3-20.05-4.72-34.26C138.72,38.05,126.21,38.58,123.64,26.63Z"/><path class="cls-1" d="M161.71,61.34a8.2,8.2,0,0,0-.84-12.55c0-6-8.57,6-13.06,1.39-8-8.24-14.18-27.38-23.47-21.34-4,.28-7.87.53-10.66,3.24-3.27,3.18-10.37,10.2-7.19,13.47a10.67,10.67,0,0,0,7.07,2.75A23.66,23.66,0,0,0,153.7,65.66a21.56,21.56,0,0,0,1.83-2A8.2,8.2,0,0,0,161.71,61.34Z"/><path class="cls-2" d="M116.64,64.45a25.73,25.73,0,0,1-5.29-14.14,12,12,0,0,1-6.47-3.19c-1.52-1.57-2.61-4.53.94-9.63a50.65,50.65,0,0,1,6.29-7c3.24-3.15,7.43-3.55,11.53-3.84a8.09,8.09,0,0,1,5.89-1c5.14,1.11,9,7.12,13,13.48a63.29,63.29,0,0,0,6.87,9.52c1,1,3.26-.2,5.86-1.82,2.28-1.41,4.24-2.63,6.14-1.57A3.31,3.31,0,0,1,163,47.64c.16.15.32.3.47.46A10.49,10.49,0,0,1,163.28,63h0a10.5,10.5,0,0,1-6.7,3c-.43.48-.87.94-1.31,1.38a25.91,25.91,0,0,1-36.64-.54A26.74,26.74,0,0,1,116.64,64.45Zm-.79-18.32,0,2.2a21.41,21.41,0,0,0,36.32,15.72,22.44,22.44,0,0,0,1.66-1.82l.72-.88,1.14,0a5.92,5.92,0,0,0,4.49-1.68h0A5.89,5.89,0,0,0,162,55.5a6,6,0,0,0-1.69-4.27,6.2,6.2,0,0,0-.74-.63L158.7,50c-.36.21-.73.45-1,.64-2.93,1.82-7.84,4.87-11.47,1.13a66.2,66.2,0,0,1-7.44-10.24c-3.38-5.3-6.87-10.78-10.18-11.5a3.73,3.73,0,0,0-3,.71l-.49.32-.68.05c-3.74.26-7,.49-9.15,2.61a48.9,48.9,0,0,0-5.74,6.37c-1.3,1.86-1.88,3.41-1.4,3.91a8.46,8.46,0,0,0,5.54,2.07Z"/><path class="cls-2" d="M84.3,218.54c-19.23-7.74-27.17-7.75-33.25-23.83-17.87-47.29,30-115.56,35.14-113.4-3.29,13.21-11.6,11.77-2,48.08,4.83,18.35,15,30.89,22.34,34.93C104.8,181.45,98.13,211,84.3,218.54Z"/><path class="cls-1" d="M85.82,82.19c5-6.33,11.79-14.92,21.28-12.59,10,2.44,17.32,13.33,16,22.8-.63,4.42-3.41,10.26-6.84,10.43-4.25.21-4.74-8.52-13.68-16.29C94.35,79.41,92.06,82.94,85.82,82.19Z"/><path class="cls-2" d="M116.05,104.83c-3.15,0-4.76-2.82-6.6-6.08a37.34,37.34,0,0,0-8.22-10.7c-5.14-4.47-7.39-4.25-10.49-3.94a22.22,22.22,0,0,1-5.16.07l-3.53-.42L84.24,81c5-6.36,12.47-16,23.34-13.31s19,14.35,17.46,25c-.7,4.89-3.87,11.89-8.72,12.13ZM93,80c2.82,0,6,.84,10.84,5.08a41.42,41.42,0,0,1,9.08,11.75c1.24,2.19,2.35,4.08,3.19,4,1.86-.09,4.36-4.49,5-8.71,1.24-8.62-5.65-18.43-14.46-20.58C99.75,69.86,94.28,75,90,80.17l.35,0A26.21,26.21,0,0,1,93,80Z"/><path class="cls-1" d="M35.53,222.74c-.44-5.38,1.14-13.77-4.4-18.25-7.37-6-19.11-4.24-25.41,1.31-.52.45-4.47,3.92-3.59,5.86,5.05.09,9.13-1.38,19.55,1C31.1,214.78,31.39,219,35.53,222.74Z"/><path class="cls-2" d="M37.93,227.58l-3.74-3.35a25.52,25.52,0,0,1-3.12-3.48c-2-2.57-3.77-4.79-9.83-6.16a44,44,0,0,0-14.86-1.1c-1.44.1-2.8.2-4.28.17l-1.26,0-.53-1.15c-1-2.19.39-4.94,4.09-8.19,6.86-6,19.74-8,28-1.36,5.06,4.09,5,10.63,5,15.88,0,1.36,0,2.65.09,3.76ZM10.74,209.29a50,50,0,0,1,11.38,1.4c6.61,1.5,9.21,4,11.31,6.6,0-4.21-.37-8.66-3.56-11.24C23.3,200.73,12.56,202.44,7,207.3a17.21,17.21,0,0,0-2.2,2.28l1.25-.08C7.47,209.4,9,209.29,10.74,209.29Z"/><path class="cls-2" d="M37.68,226.08c9.58,5.87,26,9.58,45.29-2,16.66-9.94,21.61-21.09,28-59.62,4.5-27,13.35-73.43,20.65-74.1,4.24,4.15,3.32,4.72,7.82,5.25,5.5.64,4.76-1.41,8.34-6.3,17.26,5.43,65.45,106.56,42.36,122.39H168.65c-2.44,12.05-36.84,41.53-64.18,49.19C73.3,269.68,34.75,233.07,37.68,226.08Z"/></g></g></svg>