<svg xmlns="http://www.w3.org/2000/svg" viewBox="0 0 309.04 232.92"><defs><style>.cls-1{fill:#077594;}.cls-2{fill:#e05e48;}.cls-3{fill:#fff;}</style></defs><g id="Layer_2" data-name="Layer 2"><g id="Layer_1-2" data-name="Layer 1"><path class="cls-1" d="M27.35,207.31c1.63-6.29,4.15-12.59-1.19-19.5-4.88-6.33-15-9.78-20.86-5.77-.51,11.19.78,18.92,1.36,26.46,2.6-1.45,4.08-3.09,9.5-3.56C22.13,204.42,24.11,206,27.35,207.31Z"/><path class="cls-1" d="M218.6,232.92c-14.79,0-30.88-6.45-43.14-17.72-18.54-17-26.57-25.15-37.44-43-3.07-5.05-5.4-3.65-7.27-2.53-5.29,3.17-7.8,7.28-10.7,12a79.41,79.41,0,0,1-5.23,7.81c-13,16.56-38.8,16.16-54.24,15.92-3-.05-5.63-.09-7.68,0l-6.48.27,5.2-3.88c5.05-3.75,6.69-5.62,10.67-10.13C64.8,188.84,68.24,185,74,178.94a122.24,122.24,0,0,0,17.9-24.08c4.24-7.1,7.59-12.71,15.12-16.84,11.41-6.27,14.46-7,25.13-5.56,12.2,1.58,18.48,4.59,26.44,8.39a159.2,159.2,0,0,0,19.93,8.26c2.12.71,4.32,1.56,6.45,2.39A74.2,74.2,0,0,0,195.31,155l.49.1.38.33c1.55,1.31,4.74,2.69,8.11,4.16,8.24,3.59,18.43,8,19.12,16.77a232.94,232.94,0,0,0,27,22.71c4.93,3.6,7,5.09,6.87,7.33h0c-.31,7-4.11,13.22-11,18a52,52,0,0,1-18.05,7.55A46.34,46.34,0,0,1,218.6,232.92Zm-84.91-68.34c2.34,0,5.12,1.22,7.74,5.53,10.65,17.5,18.12,25,36.73,42.14,14.08,12.93,33.41,19.12,49.24,15.78,11.52-2.44,25.15-9.55,25.87-21.59a36.44,36.44,0,0,0-5.23-4.17,236.32,236.32,0,0,1-28-23.63l-.6-.59v-.83c0-6.71-9.31-10.75-16.76-14-3.56-1.55-6.66-2.9-8.69-4.45a81.77,81.77,0,0,1-10.5-3.55c-2.09-.81-4.25-1.64-6.27-2.32a162.44,162.44,0,0,1-20.4-8.45c-7.63-3.65-13.66-6.53-25.23-8-9.73-1.26-12.06-.73-22.68,5.1-6.58,3.62-9.53,8.56-13.62,15.39A125.13,125.13,0,0,1,76.86,181.7c-5.67,6-9.08,9.82-11.57,12.64a75.56,75.56,0,0,1-6.75,7.06l2.1,0c14.71.22,39.3.61,51-14.39a73.83,73.83,0,0,0,5-7.43c3.05-5,5.93-9.7,12-13.33A9.91,9.91,0,0,1,133.69,164.58Z"/><path class="cls-1" d="M187.77,231A167.92,167.92,0,0,1,171,229.55c-13.54-1.53-32.07-3.62-52.34-2C84,230.39,54,232.83,45.18,222c-3.8-4.64-3.06-6.67-.46-10.18.55-.74,1.17-1.58,1.83-2.63l.56-.88,1-.05c4.59-.2,10.9-1.3,18.89-2.68,9.33-1.61,20.94-3.62,34.6-5a261,261,0,0,0,31.86-5.08C141,193.9,147,192.62,157,192.57h1l.6.84C169,208,187.37,220.23,196.49,224.52l1.73.81-.74,1.76C196.28,230,193.08,231,187.77,231ZM134,223a323.17,323.17,0,0,1,37.43,2.6c8.24.92,16.7,1.88,20.45,1.08C181.77,221.29,166,210.1,156,196.58c-9,.12-14.33,1.27-21.64,2.85a264.63,264.63,0,0,1-32.29,5.14C88.53,206,77,208,67.73,209.55c-7.57,1.31-13.66,2.36-18.36,2.68-.53.78-1,1.44-1.43,2-1.89,2.55-1.85,2.6.34,5.26,7.51,9.18,39.29,6.6,70,4.1C123.67,223.16,128.91,223,134,223Z"/><path class="cls-1" d="M272.34,45.29c5.13-3.55,8.11-9.26,8.24-10.71-1.65-3-2.71-4.43-6.54-5.42,7.36-4.23,6.1-15.24,3.18-22-3.13-7.26-20.81-10-33.47-3.51C229.37,11,221.67,30.12,226.22,43.18c4.83,13.87,22.55,18.31,20.72,26.78-1.11,5.15-8.21,6-8.61,12.11-.27,4.15,2.7,8.79,6.38,9.88,6.35,1.9,14.87-6.75,17.53-15.3,1.54-5-.14-5.84.32-15C263,53,265.67,49.9,272.34,45.29Z"/><path class="cls-1" d="M304,158.58c-6.16,5.79-21.91,20.71-41.95,21-16.62.23-27.5,2.27-44.16-13.7,14.56,12.82,37.37,11.23,56.36,5.59,10.37-3.08,21.45-9.69,28.47-18.94,19.91-26.2-17.37-75.36-22-80.24-4.18,3.69-8.63,6-11,5-2.1-1.94-2.42-3.39-2.79-6.26-.43-3.35-12.55,19.87-22.3,39.76-3.83,7.81-16.64,27.77-28.13,31.77-3.44,1.2-9.55,2.5-11,4.34-2.3,2.85.94,9.81,4.6,14.15-.87,1.68,14.78,31.28,36.59,40.37,11.87,4.94,4.05,16.05-2.82,22.13,3.45,6.88,27.22,8.72,41.92-.87C311,206.24,313.33,163.41,304,158.58Z"/><path class="cls-2" d="M205.83,152.94,196,151.79a1.71,1.71,0,0,1-1.44-1.3l-7.86-35.39a1.67,1.67,0,0,1,1.82-2l11.11,1.21a1.68,1.68,0,0,1,1.46,1.36l6.6,35.32A1.67,1.67,0,0,1,205.83,152.94Z"/><path class="cls-3" d="M210.14,161c-3,1-9.56-1.5-15.61-6.57-1.63-1.37-12-10-9.45-17.39,1.2-3.44,5.15-6.29,7.53-5.47,2.8,1,.68,6,4.52,12.18,2.93,4.71,4.26,2.29,8.78,9.08A53.77,53.77,0,0,1,210.14,161Z"/><path class="cls-1" d="M208.64,163.23c-4.07,0-10-2.73-15.4-7.25-4.88-4.09-12.66-12.06-10.05-19.58,1.43-4.11,6.24-8,10.07-6.71,2.53.87,2.86,3.27,3.18,5.59a17.47,17.47,0,0,0,2.39,7.43,7.74,7.74,0,0,0,2.89,2.94c1.42.93,3.19,2.08,5.85,6.1a54.31,54.31,0,0,1,4.43,8.54l.78,2-2,.67A6.72,6.72,0,0,1,208.64,163.23Zm-16.94-29.8c-1.18,0-3.85,1.75-4.73,4.29-1.95,5.59,6.27,13,8.84,15.2,4.47,3.74,8.6,5.61,11.27,6.15a47.14,47.14,0,0,0-2.84-5.11c-2.21-3.33-3.48-4.15-4.71-5a11.73,11.73,0,0,1-4.1-4.18,21.09,21.09,0,0,1-3-9,8,8,0,0,0-.52-2.36A.68.68,0,0,0,191.7,133.43Z"/><path class="cls-1" d="M50.25,202.9c-4.57,3-8.7,7.84-19.34,8.31-7.5.34-9.55-4.21-15.43-3.22-9,1.53-17.79,14.55-14.93,21.88,10.7,1.07,31.54,3,51.73.51C49.67,221.69,49.88,212.44,50.25,202.9Z"/><path class="cls-3" d="M279,53.2a30.93,30.93,0,0,0,.46-7c2.86.3,7.38-4.32,5.41-8.6-2.57-5.57-10.23-3.22-10.31,1.58-.33,2.21-1.05,2.9-2.33,3.59-3,1.6-3.31-7.47-8.22-6.58-3.29.6-8.72,6.84-9.83,8.92-2,3.8-3.11,9.57-.89,11.22,1.19.88,2.34-.17,6,.18,1.66,1.86,3.26,5.13,10.34,4.9C273,61.32,278.2,58.21,279,53.2Z"/><path class="cls-1" d="M268.93,63.45c-6.59,0-9-2.93-10.55-4.89l-.07-.09a15.89,15.89,0,0,0-2.52.14,4.67,4.67,0,0,1-3.7-.65c-3.47-2.57-1.9-9.6.33-13.77,1.16-2.17,7-9.16,11.23-9.93s6.06,2.89,7.23,5.07c.25.45.58,1.07.84,1.46.44-.29.67-.65.84-1.76a7.08,7.08,0,0,1,5.86-6.46,7.22,7.22,0,0,1,8.26,4.22,7.71,7.71,0,0,1-1,7.88,8.9,8.9,0,0,1-4.23,3.27,32.22,32.22,0,0,1-.5,5.58h0c-1,6.18-7.3,9.78-11.27,9.92Zm-11.12-9c.5,0,1.06,0,1.68.08l.78.07.52.59c.23.25.46.53.7.83,1.42,1.75,2.88,3.57,8.08,3.4,2.63-.09,6.83-2.69,7.46-6.56h0a28.9,28.9,0,0,0,.43-6.6l0-2.27,2.25.23a4,4,0,0,0,2.8-1.9,3.89,3.89,0,0,0,.59-3.88,3.24,3.24,0,0,0-3.81-2,3.14,3.14,0,0,0-2.68,2.77l0,.26c-.44,2.93-1.61,4.11-3.36,5.05a3.25,3.25,0,0,1-2.52.3c-1.6-.48-2.43-2-3.3-3.63-1.24-2.3-1.95-3.24-3-3-2.27.42-7.27,5.73-8.42,7.89-2.12,4-2.23,8.11-1.47,8.67l.82-.11A20.54,20.54,0,0,1,257.81,54.47Z"/><path class="cls-3" d="M268.12,63.11c1.16,5-.53,6.51-1.3,13.45,2.56,4.46,10.81-.38,12.52-3-1.42-6.09-2.56-7.36-3.59-13C273.49,61,269.9,61.88,268.12,63.11Z"/><path class="cls-1" d="M270.22,79.88H270a5.09,5.09,0,0,1-4.51-2.57l-.24-.42.05-.49a53.56,53.56,0,0,1,1.07-6.1c.57-2.52.91-4,.26-6.85l-.23-1,.83-.58c2.46-1.69,7.29-2.61,8.23-2.77l1.47-.26.27,1.47A40.84,40.84,0,0,0,279,66.85c.54,1.64,1.16,3.5,1.83,6.37l.14.62-.34.53C279.13,76.63,274.18,79.88,270.22,79.88Zm-1.84-3.7a2.26,2.26,0,0,0,1.73.7c2.61.07,6.24-2.19,7.6-3.68-.57-2.33-1.09-3.89-1.59-5.4a47.33,47.33,0,0,1-1.55-5.46,22.87,22.87,0,0,0-4.77,1.53,16.42,16.42,0,0,1-.47,7.08A49.4,49.4,0,0,0,268.38,76.18Z"/></g></g></svg>