<svg width="123" height="196" viewBox="0 0 123 196" fill="none" xmlns="http://www.w3.org/2000/svg">
<path d="M43.653 53.1706C45.1425 51.7178 43.2117 49.6276 44.1863 45.3185C45.3203 40.28 48.9981 38.5085 48.048 36.5287C47.435 35.223 45.0935 34.5243 43.5182 35.1985C41.1031 36.2344 42.2923 39.7344 39.5278 44.252C36.9779 48.4201 33.9008 48.8308 34.2012 50.6452C34.6302 53.238 41.4464 55.3282 43.653 53.1706Z" fill="white"/>
<path d="M40.8386 55.2978C42.1774 55.3839 43.497 54.944 44.5164 54.0719C45.7423 52.9011 45.5155 51.479 45.3193 50.106C45.0457 48.6185 45.0686 47.0916 45.3868 45.613C45.8598 43.735 46.7246 41.9782 47.9244 40.458C48.9603 39.0114 49.9349 37.6445 49.1504 36.0079C48.2309 34.1077 45.209 33.1515 43.0207 34.0832C41.1819 34.88 40.7896 36.6025 40.3789 38.4291C40.0586 40.2625 39.4108 42.0232 38.4664 43.627C37.5523 45.0922 36.3738 46.3746 34.9909 47.409C33.8692 48.3162 32.7107 49.2479 32.9804 50.8538C33.2501 52.4598 34.9235 53.9186 37.4673 54.7461C38.5556 55.1039 39.693 55.29 40.8386 55.2978ZM42.7939 52.2943C42.0952 52.9747 40.1398 53.0237 38.2396 52.4046C36.3395 51.7855 35.4813 50.8967 35.4078 50.4431C35.4078 50.247 36.0207 49.7444 36.5479 49.303C38.1492 48.0928 39.5125 46.5964 40.5689 44.8897C41.65 43.0548 42.4011 41.0445 42.7878 38.9501C43.1678 37.2277 43.364 36.6025 44.0137 36.3266C45.0312 35.8914 46.6311 36.3941 46.956 37.0622C47.0969 37.3687 46.6679 38.0061 45.9384 39.0237C44.5437 40.8013 43.5428 42.8552 43.0023 45.0491C42.6181 46.8171 42.5827 48.6431 42.8981 50.4247C43.0759 51.6507 43.082 52.0246 42.8062 52.2636L42.7939 52.2943Z" fill="#077594"/>
<path d="M37.6707 25.0953C37.8102 25.0959 37.9495 25.1062 38.0875 25.126C38.6625 23.0641 39.8218 21.2126 41.4254 19.7947C43.029 18.3768 45.0086 17.4531 47.1254 17.1349C49.2422 16.8168 51.4059 17.1178 53.3554 18.0017C55.305 18.8856 56.9573 20.3146 58.113 22.1163C61.6314 23.2442 64.7391 24.8563 64.3591 27.8843C61.472 31.5989 59.1734 32.4141 58.0088 34.2836L57.972 34.3327C57.9407 34.3802 57.9059 34.4253 57.8678 34.4675C56.6609 36.1875 54.9904 37.5294 53.0507 38.3371C51.111 39.1448 48.9818 39.3851 46.9108 39.03C44.8399 38.6749 42.9124 37.739 41.3525 36.3312C39.7927 34.9234 38.6647 33.1016 38.0998 31.0778C37.6894 31.1368 37.2712 31.1105 36.8714 31.0005C36.4716 30.8906 36.0988 30.6993 35.7762 30.4388C35.4536 30.1783 35.1882 29.854 34.9966 29.4863C34.805 29.1186 34.6913 28.7153 34.6626 28.3017C34.6338 27.888 34.6907 27.4729 34.8296 27.0822C34.9686 26.6915 35.1866 26.3337 35.47 26.0311C35.7535 25.7285 36.0963 25.4875 36.477 25.3234C36.8578 25.1592 37.2683 25.0753 37.683 25.077L37.6707 25.0953Z" fill="white"/>
<path d="M48.778 40.519C50.7603 40.5147 52.7129 40.0369 54.4732 39.1253C56.2335 38.2137 57.7506 36.8947 58.898 35.2782C58.947 35.2169 58.9899 35.1556 59.039 35.082L59.1309 34.9411C59.6728 34.2047 60.3263 33.5574 61.0679 33.0225C62.6697 31.754 64.1107 30.2946 65.3586 28.6766L65.5793 28.3946L65.6222 28.0453C66.18 23.6381 61.2763 21.7808 58.9164 21.0146C57.6217 19.1544 55.8416 17.685 53.7698 16.7664C51.698 15.8478 49.4139 15.5151 47.1661 15.8046C44.9183 16.0941 42.793 16.9947 41.0216 18.4083C39.2502 19.822 37.9005 21.6944 37.1194 23.8219C35.9815 23.8219 34.8901 24.274 34.0854 25.0787C33.2808 25.8833 32.8287 26.9747 32.8287 28.1127C32.8287 29.2506 33.2808 30.342 34.0854 31.1467C34.8901 31.9513 35.9815 32.4034 37.1194 32.4034C38.0018 34.7846 39.5919 36.8386 41.6761 38.2894C43.7602 39.7402 46.2386 40.5183 48.778 40.519ZM56.9181 33.568L56.7955 33.7397C55.7272 35.2532 54.252 36.4332 52.5407 37.1431C50.8295 37.8529 48.9522 38.0635 47.1262 37.7505C45.3001 37.4375 43.6001 36.6137 42.223 35.3745C40.8458 34.1353 39.8478 32.5314 39.3445 30.7484L39.038 29.6512L37.9102 29.8044C37.8306 29.8105 37.7507 29.8105 37.6711 29.8044C37.2345 29.7783 36.8243 29.5864 36.5243 29.268C36.2244 28.9496 36.0573 28.5287 36.0573 28.0912C36.0573 27.6538 36.2244 27.2328 36.5243 26.9144C36.8243 26.596 37.2345 26.4041 37.6711 26.378C37.7507 26.3715 37.8306 26.3715 37.9102 26.378L39.038 26.5312L39.3445 25.434C39.8582 23.6196 40.8842 21.9917 42.2995 20.7454C43.7148 19.4991 45.4594 18.6873 47.3243 18.4072C49.1892 18.1271 51.0953 18.3906 52.8142 19.1662C54.5332 19.9417 55.9921 21.1964 57.0162 22.7799L57.2736 23.1722L57.715 23.3193C62.2876 24.7782 63.0906 26.2125 63.0845 27.3526C61.9954 28.6934 60.7621 29.9103 59.4067 30.9813C58.4408 31.7011 57.6 32.575 56.9181 33.568Z" fill="#077594"/>
<path d="M57.0036 18.6963C61.0798 13.7129 56.7033 -1.48244 50.5369 0.117394C48.8819 0.546467 50.8863 9.44054 48.3364 10.2987C46.001 11.0894 43.6043 -0.734622 40.9073 5.07012C39.4913 8.13493 43.2304 11.8127 41.8696 13.3267C41.1034 14.1971 34.6551 9.07276 34.3057 14.1542C34.1831 15.9012 37.3214 18.0526 36.7575 19.9344C36.4388 21.0378 31.5596 21.6936 30.8547 23.6122C30.0578 25.776 32.3319 26.9528 34.0789 26.7567C35.5623 26.5851 38.0999 25.7698 39.2339 25.8679C40.3679 25.966 40.7479 29.3189 41.5693 29.3066C42.3906 29.2944 42.1822 26.0824 43.635 23.79C46.6507 19.1744 54.1289 22.2147 57.0036 18.6963Z" fill="#077594"/>
<path d="M63.3052 164.522C56.2807 187.422 45.3332 200.104 37.475 208.992C33.4724 213.516 30.6957 216.041 26.5582 217.512C16.3156 221.141 2.81207 216.489 1.53098 210.322C0.740257 206.497 1.29192 203.629 5.25779 198.602C19.3559 180.771 12.0004 161.61 17.517 145.085C24.1738 125.114 59.3578 133.837 65.9778 143.491C68.5828 147.31 66.8236 153.047 63.3052 164.522Z" fill="white"/>
<path d="M18.8041 220.001C21.5819 220.024 24.3431 219.572 26.9687 218.664C31.3882 217.095 34.2813 214.447 38.3943 209.801C45.897 201.318 57.2429 188.501 64.4758 164.889L63.3051 164.528L64.4758 164.889C68.1107 153.059 69.9312 147.113 66.9767 142.823C62.6124 136.46 46.5528 130.282 33.1474 132.169C24.4862 133.395 18.6753 137.729 16.3461 144.729C14.2191 151.11 13.9678 157.675 13.6981 164.626C13.2752 175.659 12.8399 187.06 4.29527 197.873C0.384567 202.826 -0.608429 206.037 0.329399 210.598C0.825897 212.97 2.71996 215.146 5.80928 216.887C9.82019 218.974 14.2827 220.044 18.8041 220.001ZM62.1466 164.166C55.0546 187.275 43.9294 199.853 36.5677 208.177C32.7367 212.51 30.0764 214.968 26.1473 216.354C19.3067 218.805 11.4363 217.206 7.01682 214.723C4.56497 213.356 3.06934 211.707 2.72608 210.071C2.02731 206.693 2.37057 204.235 6.21384 199.362C15.2489 187.924 15.7025 176.113 16.1438 164.687C16.4013 157.945 16.6464 151.527 18.6631 145.471C21.213 137.821 28.1272 135.314 33.4784 134.566C45.7008 132.85 61.0003 138.416 64.9478 144.184C67.2342 147.512 65.5608 153.071 62.1282 164.154L63.2989 164.522L62.1466 164.166Z" fill="#077594"/>
<path d="M75.5521 133.836C94.1126 146.825 100.494 166.391 102.522 172.575C105.409 181.427 105.82 188.574 106.121 193.747C106.733 203.928 106.923 209.071 103.325 212.914C98.6179 217.91 89.1047 219.044 84.3236 215.115C79.2299 210.922 83.0977 203.843 79.7264 195.341C76.1038 186.214 67.5284 184.013 51.3708 176.173C31.0511 166.311 8.55542 146.273 8.83738 132.439C8.93546 127.431 10.1185 122.631 12.0309 120.7C25.798 106.737 55.7596 119.983 75.5521 133.836Z" fill="white"/>
<path d="M91.9054 218.7C96.3923 218.7 101.167 216.978 104.201 213.754C108.235 209.463 107.916 203.861 107.327 193.673C107.027 188.408 106.61 181.199 103.65 172.22C101.566 165.728 95.148 146.052 76.2442 132.831C54.9744 117.948 25.1723 105.615 11.16 119.836C8.70812 122.355 7.70286 127.982 7.61704 132.414C7.32895 146.567 29.7388 167.034 50.8431 177.277C53.9079 178.76 56.7398 180.066 59.2407 181.212C69.943 186.115 75.8397 188.849 78.5919 195.794C80.0139 199.368 80.0752 202.745 80.1365 205.73C80.2101 209.659 80.2836 213.374 83.5446 216.059C85.7267 217.842 88.7486 218.7 91.9054 218.7ZM28.09 115.962C32.5336 116.045 36.9451 116.736 41.2012 118.015C51.4315 120.902 63.6969 127.038 74.8467 134.841C93.0761 147.597 99.2977 166.715 101.345 172.955C104.183 181.653 104.588 188.684 104.882 193.796C105.495 204.02 105.593 208.685 102.43 212.056C98.1392 216.616 89.4045 217.671 85.1322 214.146C82.7416 212.179 82.6803 209.445 82.6129 205.663C82.5516 202.475 82.478 198.859 80.8966 194.875C77.7827 187.017 71.1934 183.988 60.2888 178.968C57.8002 177.822 54.9806 176.516 51.9342 175.051C31.9332 165.348 9.82983 145.464 10.0934 132.445C10.1915 127.541 11.3193 123.164 12.9314 121.54C16.5908 117.832 21.6906 115.962 28.09 115.962Z" fill="#077594"/>
<path d="M44.6643 49.7607C43.9843 50.2664 43.1821 50.5823 42.3398 50.676C41.4975 50.7697 40.6455 50.6379 39.8709 50.294C37.7072 49.5032 37.4191 48.829 36.4138 47.1004C33.8455 46.3281 27.2194 54.6276 22.8306 67.8676C16.8787 85.7906 22.5793 89.9709 17.2404 102.745C10.8166 118.112 -0.394508 119.16 0.463638 127.264C1.63439 138.297 23.3148 147.381 36.941 146.701C54.2449 145.836 70.9603 131.058 79.2905 134.588C85.2424 123.555 77.5742 108.911 69.4279 100.103C67.5216 98.0437 66.9761 97.2897 65.0698 96.5112C61.548 97.3285 57.929 97.6483 54.3184 97.4613C48.8018 97.2897 40.0548 92.6986 41.1949 90.9946C44.4007 92.6986 51.5233 94.6295 54.3859 94.4946C56.8867 94.3781 63.1451 95.788 71.8246 90.7678C84.7765 83.2774 89.6618 66.8623 94.3203 62.0076C86.9341 61.2108 83.287 72.7958 70.3596 76.1058C63.9665 77.7485 60.4297 77.1171 56.6232 75.2599C46.6932 70.442 49.5251 56.6871 44.6643 49.7607Z" fill="#077594"/>
<path d="M94.3267 62.0081C95.6323 60.6841 108.682 56.2707 115.094 61.4748C115.639 61.9222 116.816 62.903 116.688 64.0063C116.467 65.9004 112.458 67.5676 108.97 67.0711C106.457 66.7095 106.096 65.4958 102.712 64.0063C97.698 61.7996 97.4466 62.48 94.3267 62.0081Z" fill="white"/>
<path d="M110.239 68.3816C112.423 68.4193 114.565 67.7767 116.368 66.5427C116.777 66.2697 117.125 65.9164 117.393 65.5044C117.661 65.0924 117.842 64.6302 117.925 64.146C118.134 62.3562 116.497 61.0261 115.884 60.5234C108.841 54.8045 95.2027 59.414 93.4741 61.1364L91.7578 62.8527L94.1606 63.2143C95.0556 63.3492 95.7237 63.3921 96.3183 63.435C97.8016 63.5331 98.7701 63.6005 102.233 65.1207C103.255 65.5735 104.233 66.1172 105.157 66.745C106.234 67.559 107.499 68.0863 108.835 68.2774C109.3 68.3443 109.769 68.3791 110.239 68.3816ZM106.702 60.2415C109.534 60.2415 112.317 60.8054 114.321 62.4298C115.406 63.3124 115.473 63.7476 115.473 63.8641C115.357 64.1677 115.141 64.4227 114.86 64.5874C113.161 65.6828 111.126 66.133 109.123 65.8562C108.152 65.7072 107.236 65.3103 106.463 64.7038C105.432 63.9898 104.336 63.3741 103.19 62.865C101.851 62.2433 100.463 61.7348 99.0398 61.3448C101.534 60.6412 104.11 60.2702 106.702 60.2415Z" fill="#077594"/>
<path d="M91.3253 30.0508H120.669C121.573 30.0508 122.305 30.837 122.305 31.8068V46.4982C122.305 47.4681 121.573 48.2543 120.669 48.2543H91.3253C90.4222 48.2543 89.6901 47.4681 89.6901 46.4982V31.8068C89.6901 30.837 90.4222 30.0508 91.3253 30.0508Z" fill="#E05E48"/>
<path d="M106.584 42.0208L121.547 30.7934C121.42 30.5635 121.218 30.3706 120.966 30.2388C120.713 30.1069 120.421 30.0419 120.126 30.0518H91.8792C91.5891 30.0419 91.3015 30.1019 91.0489 30.225C90.7962 30.3482 90.5885 30.5296 90.4492 30.7489L105.498 42.0208C105.652 42.128 105.843 42.1865 106.041 42.1865C106.239 42.1865 106.43 42.128 106.584 42.0208Z" fill="#EAA69D"/>
</svg>
