<svg width="154" height="196" viewBox="0 0 154 196" fill="none" xmlns="http://www.w3.org/2000/svg">
<path d="M78.9613 26.3927C79.3526 31.5616 79.6321 29.488 79.2103 38.5145C78.824 46.6769 78.4632 48.4507 77.6855 52.8674C79.8253 56.4658 87.6574 53.274 90.3257 51.2664C89.4108 46.9615 89.1567 51.1952 88.3791 39.0684C87.6675 28.0242 87.8353 29.859 88.3791 24.0141C86.3563 22.8706 80.6181 24.7206 78.9613 26.3927Z" fill="white"/>
<path d="M81.2125 55.5089C80.739 55.5186 80.2657 55.4811 79.7996 55.3971C79.1844 55.301 78.5973 55.0726 78.0787 54.7278C77.5602 54.383 77.1225 53.9299 76.7959 53.3997L76.5977 53.0744L76.7501 52.2511C77.4922 48.1851 77.8327 46.2944 78.1986 38.4826C78.5087 31.9161 78.4375 31.2909 78.2291 29.4307C78.1529 28.7344 78.0563 27.8653 77.9496 26.4829L77.9191 26.0204L78.2444 25.69C80.1656 23.7485 86.3763 21.7003 88.882 23.1488L89.436 23.4792L89.375 24.1196C89.2886 25.07 89.2073 25.8171 89.1412 26.4524C88.8058 29.6493 88.7854 29.8424 89.3801 39.0214C89.8883 47.0924 90.178 47.7277 90.5287 48.5307C90.889 49.3342 91.1485 50.1793 91.3013 51.0465L91.4385 51.6768L90.9302 52.0681C89.1971 53.3641 84.7804 55.5089 81.2125 55.5089ZM78.7374 52.6272C79.1185 53.0399 79.6299 53.309 80.1859 53.3896C82.6814 53.8978 86.8998 52.2917 89.1615 50.8483C89.0442 50.3438 88.8738 49.8532 88.6533 49.3846C88.1705 48.2867 87.8757 47.6209 87.3319 39.184C86.7321 29.8373 86.7525 29.634 87.1082 26.2745C87.154 25.8323 87.2048 25.3343 87.2607 24.7498C85.4717 24.4448 81.5836 25.6392 80.0029 26.8488C80.0893 27.9111 80.1706 28.6328 80.2367 29.2224C80.4553 31.1994 80.5315 31.8653 80.2367 38.5945C79.8606 46.5435 79.515 48.4494 78.7526 52.6323L78.7374 52.6272Z" fill="#077594"/>
<path d="M77.442 35.7292C79.6529 37.6808 85.2487 37.8435 88.6235 36.4966C92.4354 34.9719 95.9016 31.4142 96.4048 28.202C101.065 24.7968 104.191 25.3203 103.942 22.4537C103.434 16.3548 99.4136 14.6674 92.0898 12.797C90.4634 12.3803 81.6554 10.3625 75.6276 15.628C73.6302 17.3814 72.2528 21.4423 69.5032 29.5641C67.394 30.7331 67.0941 33.8842 68.7205 36.0849C69.8285 37.5385 73.498 39.7342 77.442 35.7292Z" fill="white"/>
<path d="M72.7519 38.9464H72.3656C71.5137 38.8842 70.6837 38.6473 69.9273 38.2503C69.1709 37.8533 68.5044 37.3048 67.9693 36.6389C67.4544 35.9588 67.089 35.1775 66.8972 34.3463C66.7054 33.5151 66.6914 32.6527 66.8562 31.8157C67.0846 30.6619 67.7514 29.6417 68.7164 28.9695C71.4457 20.9138 72.8434 16.8427 75.0085 14.952C81.1075 9.60524 89.8036 11.2774 92.3195 11.9025C99.2926 13.6763 104.273 15.4603 104.873 22.3826C105.082 24.7764 103.42 25.5337 101.488 26.4181C100.004 27.0564 98.5855 27.8395 97.2545 28.756C96.5176 32.1105 93.0361 35.7597 88.9701 37.3962C85.0159 38.9718 80.0249 38.4737 77.5244 36.9693C76.2357 38.2004 74.5336 38.9055 72.7519 38.9464ZM86.19 13.0257C83.0389 13.0257 79.2575 13.722 76.2436 16.3598C74.4342 17.9405 72.9959 22.1844 70.3886 29.8843L70.2717 30.2299L69.9515 30.4078C69.6245 30.599 69.3429 30.8589 69.1262 31.1695C68.9094 31.4802 68.7627 31.8342 68.6961 32.207C68.5864 32.7814 68.5989 33.3725 68.7329 33.9417C68.8669 34.5109 69.1193 35.0455 69.4737 35.5106C69.8454 35.9608 70.3046 36.3308 70.8236 36.5981C71.3425 36.8655 71.9104 37.0246 72.4927 37.0659C73.9412 37.1624 75.3795 36.4966 76.7721 35.0786L77.3973 34.4484L78.0631 35.038C79.8725 36.6288 85.021 36.9337 88.2738 35.6326C91.8722 34.1994 95.0335 30.8754 95.4706 28.0699L95.5316 27.6836L95.8467 27.4549C97.3624 26.363 98.9935 25.441 100.711 24.7053C102.744 23.7803 103.084 23.5363 103.003 22.5452C102.495 17.0257 99.069 15.5619 91.8569 13.7271C90.0034 13.263 88.1007 13.0241 86.19 13.0156V13.0257Z" fill="#077594"/>
<path d="M67.2931 34.6308C68.8178 36.7959 66.3071 31.5508 69.4988 29.5483C74.9117 34.829 76.1061 19.5765 80.6295 16.6286C85.036 13.752 88.2888 12.2323 92.0854 12.7812C93.1527 11.0176 91.5466 9.30478 89.4323 7.72922C85.0055 4.43069 76.9853 6.43826 70.1189 14.8447C65.3109 20.7454 65.0618 31.3729 67.2931 34.6308Z" fill="#077594"/>
<path d="M73.2643 16.5604C74.2808 14.746 75.1245 13.1755 74.4638 11.9862C73.5845 10.375 70.4436 10.3394 68.3648 11.0205C65.0612 12.1031 62.0117 15.8692 62.8605 19.4371C63.2264 20.9161 64.3852 22.8373 66.1082 23.1676C69.3051 23.7826 72.2072 18.4867 73.2643 16.5604Z" fill="#077594"/>
<path d="M65.2176 16.0704C65.2947 15.1814 65.0772 14.2918 64.5986 13.5386C64.1201 12.7855 63.4071 12.2106 62.5696 11.9028C60.2367 11.1201 57.6345 13.0057 57.1822 15.2928C56.928 16.5837 57.3143 18.2203 58.4579 19.0284C60.5722 20.5277 64.816 18.8454 65.2176 16.0704Z" fill="#077594"/>
<path d="M59.4719 14.032C58.7705 12.3954 56.4733 11.7499 54.8977 12.3954C52.5598 13.3611 51.9346 17.1983 53.373 18.5503C54.6385 19.7192 57.5406 19.0941 58.8468 17.3356C58.9637 17.1831 60.1276 15.5872 59.4719 14.032Z" fill="#077594"/>
<path d="M55.4045 18.1956C54.5456 16.7776 52.2788 16.0152 51.0895 17.0469C50.0018 17.9872 50.073 20.2032 51.3843 21.2806C52.6955 22.3581 54.8912 21.9261 55.5926 20.6657C56.1923 19.5577 55.435 18.2617 55.4045 18.1956Z" fill="#077594"/>
<path d="M53.9161 21.7834C53.3011 20.7669 51.6798 20.223 50.8311 20.9651C49.9823 21.7071 50.089 23.2217 51.0445 24.0146C52 24.8074 53.5502 24.4771 54.0483 23.5724C54.1722 23.2857 54.2249 22.9732 54.2018 22.6617C54.1788 22.3501 54.0808 22.0488 53.9161 21.7834Z" fill="#077594"/>
<path d="M78.2146 47.1278C79.4293 50.4365 80.8524 52.5508 84.1763 52.7541C87.5003 52.9574 88.4253 51.1836 90.3058 48.1799C93.1317 55.1225 93.0198 60.4337 99.0781 67.3052C105.253 74.314 119.51 75.7879 127.891 69.9532C139.499 61.8771 136.851 41.842 135.84 34.1878C134.691 25.5171 132.15 21.1665 133.166 20.6328C137.695 22.3964 153.649 44.0122 153.344 60.5913C152.988 81.8259 144.998 98.3439 112.989 98.4557C120.496 111.594 124.709 114.847 130.869 139.192C132.811 146.856 137.395 164.97 130.208 177.275C111.881 208.654 22.7088 192.522 19.9185 174.805C18.902 168.279 22.5309 162.973 29.5244 158.398C43.3843 149.336 51.0691 154.607 59.0028 147.802C69.737 138.612 72.0444 119.299 70.2402 118.323C67.5363 124.503 65.61 127.07 59.5365 132.452C44.6855 145.606 22.5106 143.405 20.9096 139.517C29.7379 134.328 32.8026 130.541 46.322 115.563C71.4244 87.6961 72.2579 52.4237 78.2146 47.1278Z" fill="#077594"/>
<path d="M84.73 9.83906C84.0705 9.2351 83.6303 8.42919 83.4785 7.54789C83.3267 6.66659 83.4719 5.75984 83.8914 4.97004C85.0909 2.82015 88.2827 2.46946 90.1581 3.86206C91.2102 4.64985 92.0234 6.11868 91.7235 7.48587C91.1644 10.0169 86.9155 11.623 84.73 9.83906Z" fill="#077594"/>
<path d="M87.6272 4.45071C87.0529 2.76332 88.3184 0.745578 89.9092 0.17634C92.2878 -0.677516 95.3271 1.74174 95.1543 3.73408C95.0069 5.45195 92.4352 6.93604 90.2853 6.51419C90.0973 6.46845 88.1761 6.05677 87.6272 4.45071Z" fill="#077594"/>
<path d="M93.4324 4.80494C93.1173 3.17854 94.2863 1.09473 95.8568 1.05915C97.2951 1.02357 98.7487 2.70079 98.4844 4.39326C98.2201 6.08572 96.3193 7.22928 94.9521 6.76169C93.7577 6.35509 93.4477 4.88117 93.4324 4.80494Z" fill="#077594"/>
<path d="M96.9401 6.47261C96.7114 5.30872 97.55 3.81447 98.6733 3.78906C99.6897 3.78906 100.742 4.9682 100.549 6.17783C100.356 7.38746 99.0239 8.21082 98.0074 7.87029C97.7323 7.73742 97.4924 7.54166 97.3069 7.29885C97.1215 7.05604 96.9959 6.773 96.9401 6.47261Z" fill="#077594"/>
<path d="M133.852 21.7259C132.139 19.9064 131.042 17.7311 125.573 15.9319C122.213 14.829 120.46 15.754 118.783 14.1124C116.943 12.2725 116.587 8.52164 118.122 6.9969C120.328 4.76061 126.625 6.84951 130.208 10.4733C134.33 14.6359 135.072 21.0754 133.852 21.7259Z" fill="white"/>
<path d="M133.644 22.9914L133.11 22.4222C132.821 22.1122 132.546 21.7971 132.267 21.4718C130.94 19.947 129.563 18.3156 125.253 16.8976C124.185 16.5579 123.078 16.353 121.959 16.2877C120.582 16.1606 119.276 16.0437 118.066 14.829C115.835 12.6029 115.495 8.22177 117.395 6.27518C117.86 5.85236 118.403 5.52627 118.995 5.31597C119.587 5.10566 120.214 5.01534 120.841 5.0503C123.998 5.0503 128.241 7.02738 130.93 9.75159C134.534 13.4008 135.692 18.5544 135.337 20.8873C135.319 21.2373 135.217 21.5779 135.04 21.8805C134.864 22.183 134.616 22.4385 134.32 22.6255L133.644 22.9914ZM120.841 7.08329C120.121 7.03355 119.409 7.25472 118.844 7.70335C117.797 8.76559 117.934 11.8252 119.505 13.3906C120.165 14.0565 120.791 14.1378 122.142 14.2598C123.415 14.3421 124.673 14.5793 125.888 14.9662C130.234 16.3944 131.987 18.0767 133.354 19.6167C133.052 16.4492 131.689 13.4765 129.487 11.1798C127.179 8.84691 123.464 7.08329 120.841 7.08329Z" fill="#077594"/>
<path d="M23.848 138.656C21.3067 139.769 19.1721 141.528 12.8343 140.923C8.94108 140.557 7.58405 138.788 5.15971 139.754C2.46092 140.826 0.372016 144.527 1.19538 146.824C2.3796 150.127 9.68312 150.808 14.9638 148.669C21.0425 146.209 24.773 139.881 23.848 138.656Z" fill="white"/>
<path d="M8.43239 150.901C6.60412 150.947 4.78595 150.617 3.0907 149.931C2.45137 149.69 1.86837 149.32 1.37788 148.844C0.887398 148.369 0.499899 147.797 0.239433 147.166C-0.777063 144.381 1.57612 140.086 4.78317 138.81C6.53154 138.114 7.88348 138.571 9.31674 139.059C10.4799 139.497 11.6943 139.784 12.9304 139.913C17.9468 140.391 20.0865 139.344 22.1602 138.327C22.5871 138.119 23.0089 137.911 23.441 137.723L24.1728 137.402L24.6811 138.043C24.8767 138.353 24.997 138.705 25.0323 139.071C25.0676 139.436 25.0169 139.805 24.8844 140.147C24.1779 142.688 20.671 147.466 15.37 149.61C13.1591 150.473 10.8055 150.911 8.43239 150.901ZM6.5722 140.482C6.22282 140.488 5.87771 140.56 5.55571 140.696C3.37024 141.565 1.53547 144.696 2.17077 146.48C2.53247 147.219 3.16639 147.789 3.93948 148.07C6.59253 149.26 11.1769 149.087 14.6127 147.72C18.0522 146.266 20.8849 143.67 22.6328 140.371C20.5185 141.387 17.9773 142.429 12.7677 141.931C11.3777 141.787 10.0115 141.468 8.70176 140.98C8.02396 140.699 7.30453 140.531 6.5722 140.482Z" fill="#077594"/>
</svg>
