<svg width="135" height="120" viewBox="0 0 135 120" fill="none" xmlns="http://www.w3.org/2000/svg">
<path d="M11.1356 21.2734C14.5383 25.7762 18.5719 32.9051 32.3552 41.7112C45.8366 50.3392 52.7821 51.4447 60.4665 54.416C58.6438 56.2494 56.9775 58.6815 58.0345 61.0811C59.4204 64.2412 59.7817 64.349 63.8099 65.6055C65.0717 71.7206 65.8375 75.8998 69.5422 79.9658C74.5087 85.4123 72.7777 93.8462 76.9138 96.9469C90.7942 107.355 102.07 110.73 109.037 113.939C105.489 115.772 83.4387 121.23 69.5152 108.228C63.3353 102.458 63.7614 97.2974 56.654 93.4634C48.7216 89.1871 39.8454 93.0104 31.8861 94.8654C11.1356 99.7187 9.13494 111.852 -0.959888 104.89C-8.60112 99.627 -10.3968 84.8569 -10.9577 73.4624C-11.2542 67.5306 -10.1326 44.8496 -2.09771 42.0455C2.75558 40.3522 6.44946 42.8759 17.8547 50.3176C26.9088 56.2494 35.4991 56.5676 37.6129 55.3705C38.6915 54.7611 27.7068 54.8312 19.9686 47.4704C9.93843 37.931 9.87372 28.2568 11.1356 21.2734Z" fill="#077594"/>
<path d="M67.0066 52.2279C66.2085 51.1117 65.1462 49.9792 66.5967 47.105C67.3625 45.5843 68.5165 44.4573 69.3577 44.2793C71.7898 43.7401 73.4992 44.7808 71.6549 49.0194C71.3476 49.7258 73.0246 49.6449 73.4183 49.4508C76.6538 47.833 77.5867 48.0002 80.461 48.1566C84.5755 48.3831 88.3664 54.2717 87.2663 56.6067C86.8026 57.5989 86.1609 57.9818 85.1579 58.8392C84.5323 60.4569 86.1177 62.0747 83.9877 63.6062C80.434 66.1676 79.5982 63.6062 79.4256 62.8081C77.9616 63.8796 76.1488 64.3626 74.3458 64.1616C70.7005 63.8812 68.4787 62.8404 67.2223 60.3868C66.2516 58.521 65.8795 55.0644 67.0066 52.2279Z" fill="white"/>
<path d="M65.0595 49.6129C65.0965 48.6014 65.3718 47.6129 65.863 46.7279C66.7258 45.0239 68.0578 43.7189 69.1794 43.4924C71.1801 43.061 72.1723 43.6757 72.6576 44.2635C73.4395 45.2234 73.4288 46.701 72.6199 48.7825C72.7728 48.782 72.925 48.762 73.0729 48.7232C76.3084 47.1054 77.4893 47.1863 80.0832 47.3319L80.493 47.3319C83.378 47.4883 85.8424 49.9527 87.0773 52.018C88.2097 53.9054 88.5494 55.7389 87.9886 56.9306C87.5705 57.7573 86.9535 58.467 86.1929 58.9959L85.8424 59.2818C85.7702 59.6938 85.7702 60.1153 85.8424 60.5274C85.9718 61.5736 86.1498 62.9972 84.4295 64.2375C82.8118 65.3861 81.4798 65.7528 80.3905 65.316C79.7694 65.0653 79.2639 64.5924 78.9723 63.9894C77.5295 64.7746 75.8818 65.1019 74.2484 64.9277C70.1501 64.6096 67.8205 63.3531 66.4724 60.7323C65.464 58.7749 65.0272 55.3398 66.0679 52.3092C65.4416 51.5474 65.0868 50.5988 65.0595 49.6129ZM71.6115 46.07C71.6348 45.7885 71.5626 45.5074 71.4066 45.2719C71.1315 44.9376 70.4413 44.8567 69.5192 45.0562C69.0662 45.1533 68.0524 45.9838 67.3082 47.4559C66.1704 49.71 66.769 50.5512 67.497 51.5327L67.9122 52.1097L67.745 52.5195C66.8314 54.9509 66.8971 57.642 67.9284 60.0259C69.0069 62.1128 70.8781 63.0727 74.3994 63.3477C76.013 63.535 77.6375 63.1033 78.9453 62.1398L79.9483 61.4172L80.2072 62.6251C80.2719 62.9217 80.4822 63.6389 80.9999 63.8384C81.5176 64.038 82.4235 63.7198 83.5074 62.9379C84.4511 62.253 84.381 61.6868 84.2624 60.7431C84.1168 60.0086 84.1632 59.2489 84.3972 58.5376L84.4673 58.3435L84.6237 58.214L85.1629 57.7557C85.7335 57.3761 86.1991 56.8586 86.5165 56.2511C86.7807 55.7119 86.6243 54.4285 85.686 52.8592C84.5751 50.9988 82.5098 49.0845 80.4013 48.955L79.9861 48.955C77.4786 48.8148 76.6319 48.7663 73.7631 50.1845C73.3047 50.411 71.811 50.6213 71.1315 49.9742C70.9617 49.8161 70.8474 49.6073 70.8056 49.379C70.7638 49.1507 70.7968 48.915 70.8997 48.707C71.3122 47.8881 71.5578 46.9954 71.6223 46.0808L71.6115 46.07Z" fill="#077594"/>
<path d="M109.037 113.938C111.917 105.601 117.832 107.57 120.96 107.111C125.085 106.502 132.678 105.547 133.692 108.249C133.815 108.622 133.845 109.019 133.777 109.406C133.709 109.793 133.546 110.157 133.303 110.465C132.041 111.975 129.405 110.277 126.525 110.854C125.738 114.963 123.591 118.15 119.579 118.942C115.788 119.676 111.728 116.974 109.037 113.938Z" fill="white"/>
<path d="M108.115 114.122L108.271 113.674C110.789 106.384 115.675 106.384 118.905 106.389C119.553 106.407 120.202 106.38 120.847 106.308C126.929 105.413 133.298 104.906 134.452 107.964C134.623 108.472 134.664 109.015 134.57 109.543C134.475 110.071 134.249 110.566 133.913 110.984C132.92 112.165 131.389 111.96 129.928 111.744C129.029 111.57 128.112 111.512 127.199 111.571C126.169 116.155 123.597 118.97 119.736 119.73C114.483 120.76 109.754 115.955 108.411 114.478L108.115 114.122ZM133.007 108.972C133.009 108.824 132.986 108.676 132.937 108.535C132.618 107.694 130.661 106.497 121.073 107.91C120.357 107.993 119.636 108.025 118.916 108.007C115.734 108.007 112.138 108.007 109.97 113.755C112.413 116.365 116.085 118.797 119.434 118.139C123.624 117.32 125.177 113.642 125.738 110.703L125.84 110.164L126.379 110.056C127.633 109.862 128.91 109.889 130.154 110.137C131.491 110.336 132.268 110.423 132.667 109.943C132.883 109.665 133.002 109.324 133.007 108.972Z" fill="#077594"/>
<path d="M11.1351 21.2725C12.8499 18.7812 15.7673 13.9872 15.1579 9.40893C14.4731 4.20513 9.35016 0.11758 7.60837 0.931854C6.86959 1.27698 4.43216 2.60354 6.5676 8.48141C7.95888 12.3263 7.10686 14.1598 7.64611 15.7775C8.21233 17.4923 8.89179 20.8573 11.1351 21.2725Z" fill="white"/>
<path d="M4.89675 4.40634C4.89675 1.78017 6.2395 0.631563 7.25869 0.17859C7.99207 -0.16114 8.9843 -0.0155416 10.1221 0.609993C11.6655 1.54614 12.9871 2.8064 13.9954 4.30358C15.0038 5.80076 15.6749 7.49913 15.9622 9.2812C16.4314 12.8457 15.0347 17.0357 11.8046 21.7326L11.508 22.164L10.9688 22.0669C8.5529 21.6193 7.67391 18.7235 7.09152 16.8092L6.84886 16.0273C6.63523 15.2721 6.54777 14.4868 6.59002 13.7031C6.64256 12.014 6.366 10.3308 5.77574 8.74733C5.23423 7.36196 4.93684 5.89324 4.89675 4.40634ZM14.4308 10.6671C14.433 10.2739 14.4078 9.88113 14.3553 9.49151C14.1003 7.96234 13.5215 6.50533 12.6575 5.21815C11.7935 3.93098 10.6643 2.84337 9.3456 2.02823C8.53671 1.58604 8.07296 1.58604 7.93815 1.64536C5.81888 2.63759 6.42823 5.75447 7.318 8.19729C7.9729 9.9569 8.28233 11.8263 8.22934 13.7031C8.19438 14.3105 8.25257 14.9197 8.4019 15.5096L8.66075 16.34C9.09754 17.7852 9.67994 19.6996 10.8178 20.3089C13.2174 16.6852 14.4308 13.4496 14.4308 10.6671Z" fill="#077594"/>
<path d="M87.2654 56.6231C88.1228 55.2372 89.2282 52.6218 92.1186 52.0664C94.2433 51.662 98.099 54.0778 100.509 52.8807C103.384 51.4462 99.4309 46.016 96.616 45.3311C94.1732 44.7271 93.1486 46.7871 91.6117 47.321C90.2906 47.7793 92.0593 43.1579 91.6387 39.4371C90.8352 32.292 83.5499 25.7993 80.0825 28.3069C74.841 32.0816 83.7171 37.3987 82.1478 38.6659C80.9345 39.6528 77.0411 34.9451 72.2903 35.4628C68.4454 35.8834 65.857 38.9571 66.1536 40.2567C66.8276 43.2011 73.1261 41.497 73.0992 42.1603C73.0237 43.7781 69.2759 43.5785 69.3567 44.3173C69.8636 44.1879 71.4275 44.1879 71.9667 44.7218C73.2771 46.0321 70.9907 48.7338 71.7726 49.4672C72.8511 50.4918 77.2946 47.4234 80.46 48.1945C84.6284 49.176 87.0658 53.1018 87.2654 56.6231Z" fill="#077594"/>
<path d="M73.4401 54.1559C73.4401 54.6563 73.8457 55.0619 74.346 55.0619C74.8463 55.0619 75.252 54.6563 75.252 54.1559C75.252 53.6556 74.8463 53.25 74.346 53.25C73.8457 53.25 73.4401 53.6556 73.4401 54.1559Z" fill="#077594"/>
<path d="M74.3483 57.9606C74.3483 58.461 74.7539 58.8666 75.2542 58.8666C75.7545 58.8666 76.1602 58.461 76.1602 57.9606C76.1602 57.4603 75.7546 57.0547 75.2542 57.0547C74.7539 57.0547 74.3483 57.4603 74.3483 57.9606Z" fill="#077594"/>
<path d="M70.5182 56.7614C70.5182 57.2618 70.9238 57.6674 71.4241 57.6674C71.9245 57.6674 72.3301 57.2618 72.3301 56.7614C72.3301 56.2611 71.9245 55.8555 71.4241 55.8555C70.9238 55.8555 70.5182 56.2611 70.5182 56.7614Z" fill="#077594"/>
<path d="M54.4011 58.0876C54.3281 56.7069 54.5696 55.3277 55.1075 54.054L55.361 53.5741L55.9002 53.628C60.6187 54.1025 63.5684 53.9515 65.7686 53.1211L66.3402 54.6364C63.989 55.5208 60.9746 55.7149 56.3316 55.2943C55.3771 58.217 56.639 65.6426 58.3538 68.5438C58.796 69.2933 59.1088 69.4497 59.1681 69.4551C59.1889 69.4463 59.2087 69.4354 59.2274 69.4227C60.3437 68.6624 60.8775 67.6863 61.5031 66.5593C62.5816 64.591 63.8111 62.3585 68.3678 61.3663L68.7129 62.9463C64.8788 63.7821 63.9243 65.5078 62.9159 67.3358C62.258 68.5384 61.5732 69.784 60.1334 70.7601C59.7873 70.9984 59.3671 71.1044 58.9494 71.0589C58.5317 71.0134 58.1443 70.8193 57.8577 70.512C56.0404 68.8835 54.4011 62.6713 54.4011 58.0876Z" fill="#077594"/>
</svg>
