<svg width="294" height="114" viewBox="0 0 294 114" fill="none" xmlns="http://www.w3.org/2000/svg">
<path d="M46.5676 84.14C47.9256 84.14 48.9756 83.398 48.9756 82.236C48.9756 81.48 48.5836 80.71 47.3096 80.402L46.3436 80.164C45.8676 80.052 45.3356 79.786 45.3356 79.17C45.3356 78.554 45.8536 78.12 46.6096 78.12C47.2536 78.12 47.8276 78.512 47.8696 79.1H48.7376C48.6956 77.924 47.6876 77.322 46.5956 77.322C45.3496 77.322 44.4396 78.092 44.4396 79.156C44.4396 80.248 45.1816 80.724 46.1056 80.948L47.0436 81.172C47.7156 81.34 48.0796 81.69 48.0796 82.222C48.0796 82.88 47.5056 83.342 46.5676 83.342C45.6156 83.342 45.1116 82.782 45.0136 82.236H44.1876C44.2996 83.482 45.4336 84.14 46.5676 84.14ZM53.5496 77.462H52.0516V74.858H51.1696V77.462H49.9796V78.232H51.1696V84H52.0516V78.232H53.5496V77.462ZM60.2561 77.462V78.722C59.7661 77.84 58.7581 77.322 57.6521 77.322C55.8181 77.322 54.3341 78.736 54.3341 80.724C54.3341 82.712 55.8321 84.14 57.6521 84.14C58.7441 84.14 59.7661 83.622 60.2561 82.726V84H61.1521V77.462H60.2561ZM57.7221 83.286C56.3501 83.286 55.2301 82.166 55.2301 80.71C55.2301 79.268 56.3501 78.176 57.7221 78.176C59.0241 78.176 60.2561 79.17 60.2561 80.752C60.2561 82.264 59.0801 83.286 57.7221 83.286ZM66.3494 77.322C65.3274 77.322 64.6274 77.952 64.3054 79.058V77.462H63.3954V84H64.3054V81.536C64.3054 79.926 64.7814 78.19 66.3354 78.19C66.5734 78.19 66.8814 78.232 67.2174 78.372L67.3854 77.518C67.1334 77.392 66.7134 77.322 66.3494 77.322ZM71.4597 77.462H69.9617V74.858H69.0797V77.462H67.8897V78.232H69.0797V84H69.9617V78.232H71.4597V77.462ZM79.2117 77.462H77.7137V74.858H76.8317V77.462H75.6417V78.232H76.8317V84H77.7137V78.232H79.2117V77.462ZM83.4122 84.14C85.2742 84.14 86.8422 82.782 86.8422 80.71C86.8422 78.638 85.2742 77.322 83.4122 77.322C81.5502 77.322 79.9962 78.638 79.9962 80.71C79.9962 82.782 81.5502 84.14 83.4122 84.14ZM83.4122 83.286C82.0262 83.286 80.8922 82.264 80.8922 80.71C80.8922 79.17 82.0262 78.176 83.4122 78.176C84.7842 78.176 85.9462 79.17 85.9462 80.71C85.9462 82.264 84.7842 83.286 83.4122 83.286ZM40.7684 91.322C39.6764 91.322 38.6404 91.854 38.1644 92.75V91.462H37.2684V101.178H38.1644V96.726C38.6544 97.622 39.6624 98.14 40.7684 98.14C42.6024 98.14 44.0864 96.726 44.0864 94.738C44.0864 92.75 42.6024 91.322 40.7684 91.322ZM40.6984 97.286C39.3964 97.286 38.1644 96.292 38.1644 94.71C38.1644 93.198 39.3404 92.176 40.6984 92.176C42.0844 92.176 43.2044 93.296 43.2044 94.752C43.2044 96.194 42.0844 97.286 40.6984 97.286ZM48.8357 91.322C47.8137 91.322 47.1137 91.952 46.7917 93.058V91.462H45.8817V98H46.7917V95.536C46.7917 93.926 47.2677 92.19 48.8217 92.19C49.0597 92.19 49.3677 92.232 49.7037 92.372L49.8717 91.518C49.6197 91.392 49.1997 91.322 48.8357 91.322ZM56.8939 94.71C56.8939 92.638 55.5359 91.322 53.6739 91.322C51.8259 91.322 50.3419 92.638 50.3419 94.71C50.3419 96.782 51.8259 98.14 53.6739 98.14C54.9059 98.14 56.0259 97.552 56.5999 96.502L55.8299 96.166C55.3959 96.88 54.5979 97.286 53.7019 97.286C52.3859 97.286 51.4059 96.502 51.2519 95.102H56.8799C56.8939 94.976 56.8939 94.836 56.8939 94.71ZM51.2659 94.332C51.4339 92.932 52.3859 92.176 53.6739 92.176C54.9479 92.176 55.8859 92.974 56.0119 94.332H51.2659ZM62.1376 91.322C61.0456 91.322 60.0096 91.854 59.5336 92.75V91.462H58.6376V101.178H59.5336V96.726C60.0236 97.622 61.0316 98.14 62.1376 98.14C63.9716 98.14 65.4556 96.726 65.4556 94.738C65.4556 92.75 63.9716 91.322 62.1376 91.322ZM62.0676 97.286C60.7656 97.286 59.5336 96.292 59.5336 94.71C59.5336 93.198 60.7096 92.176 62.0676 92.176C63.4536 92.176 64.5736 93.296 64.5736 94.752C64.5736 96.194 63.4536 97.286 62.0676 97.286ZM72.7249 91.462V92.722C72.2349 91.84 71.2269 91.322 70.1209 91.322C68.2869 91.322 66.8029 92.736 66.8029 94.724C66.8029 96.712 68.3009 98.14 70.1209 98.14C71.2129 98.14 72.2349 97.622 72.7249 96.726V98H73.6209V91.462H72.7249ZM70.1909 97.286C68.8189 97.286 67.6989 96.166 67.6989 94.71C67.6989 93.268 68.8189 92.176 70.1909 92.176C71.4929 92.176 72.7249 93.17 72.7249 94.752C72.7249 96.264 71.5489 97.286 70.1909 97.286ZM78.8181 91.322C77.7961 91.322 77.0961 91.952 76.7741 93.058V91.462H75.8641V98H76.7741V95.536C76.7741 93.926 77.2501 92.19 78.8041 92.19C79.0421 92.19 79.3501 92.232 79.6861 92.372L79.8541 91.518C79.6021 91.392 79.1821 91.322 78.8181 91.322ZM86.8763 94.71C86.8763 92.638 85.5183 91.322 83.6563 91.322C81.8083 91.322 80.3243 92.638 80.3243 94.71C80.3243 96.782 81.8083 98.14 83.6563 98.14C84.8883 98.14 86.0083 97.552 86.5823 96.502L85.8123 96.166C85.3783 96.88 84.5803 97.286 83.6843 97.286C82.3683 97.286 81.3883 96.502 81.2343 95.102H86.8623C86.8763 94.976 86.8763 94.836 86.8763 94.71ZM81.2483 94.332C81.4163 92.932 82.3683 92.176 83.6563 92.176C84.9303 92.176 85.8683 92.974 85.9943 94.332H81.2483ZM33.1453 105.322C32.3333 105.322 31.2693 105.7 30.8773 106.638V105.462H29.9813V112H30.8773V108.374C30.9053 106.792 32.0113 106.204 33.0613 106.204C34.1113 106.204 34.9093 106.974 34.9093 108.234V112H35.8053V108.192C35.8053 106.386 34.7273 105.322 33.1453 105.322ZM44.056 108.71C44.056 106.638 42.698 105.322 40.836 105.322C38.988 105.322 37.504 106.638 37.504 108.71C37.504 110.782 38.988 112.14 40.836 112.14C42.068 112.14 43.188 111.552 43.762 110.502L42.992 110.166C42.558 110.88 41.76 111.286 40.864 111.286C39.548 111.286 38.568 110.502 38.414 109.102H44.042C44.056 108.976 44.056 108.836 44.056 108.71ZM38.428 108.332C38.596 106.932 39.548 106.176 40.836 106.176C42.11 106.176 43.048 106.974 43.174 108.332H38.428ZM54.343 105.462L52.439 110.642L50.521 105.462H49.597L47.693 110.656L45.775 105.462H44.809L47.315 112H48.099L50.045 106.652L52.075 112H52.859L55.295 105.462H54.343ZM65.0079 105.462L62.7399 110.908L60.4999 105.462H59.5479L62.2779 112H63.2019L65.9739 105.462H65.0079ZM67.8219 103.684C68.2139 103.684 68.5219 103.418 68.5219 103.054C68.5219 102.676 68.2139 102.41 67.8219 102.41C67.4579 102.41 67.1359 102.676 67.1359 103.054C67.1359 103.418 67.4579 103.684 67.8219 103.684ZM67.3739 112H68.2699V105.462H67.3739V112ZM72.3528 112.14C73.7108 112.14 74.7608 111.398 74.7608 110.236C74.7608 109.48 74.3688 108.71 73.0948 108.402L72.1288 108.164C71.6528 108.052 71.1208 107.786 71.1208 107.17C71.1208 106.554 71.6388 106.12 72.3948 106.12C73.0388 106.12 73.6128 106.512 73.6548 107.1H74.5228C74.4808 105.924 73.4728 105.322 72.3808 105.322C71.1348 105.322 70.2248 106.092 70.2248 107.156C70.2248 108.248 70.9668 108.724 71.8908 108.948L72.8288 109.172C73.5008 109.34 73.8648 109.69 73.8648 110.222C73.8648 110.88 73.2908 111.342 72.3528 111.342C71.4008 111.342 70.8968 110.782 70.7988 110.236H69.9728C70.0848 111.482 71.2188 112.14 72.3528 112.14ZM81.9807 105.462V106.722C81.4907 105.84 80.4827 105.322 79.3767 105.322C77.5427 105.322 76.0587 106.736 76.0587 108.724C76.0587 110.712 77.5567 112.14 79.3767 112.14C80.4687 112.14 81.4907 111.622 81.9807 110.726V112H82.8767V105.462H81.9807ZM79.4467 111.286C78.0747 111.286 76.9547 110.166 76.9547 108.71C76.9547 107.268 78.0747 106.176 79.4467 106.176C80.7487 106.176 81.9807 107.17 81.9807 108.752C81.9807 110.264 80.8047 111.286 79.4467 111.286ZM85.386 109.466H86.128L86.198 102.354H85.302L85.386 109.466ZM85.736 112.098C86.142 112.098 86.464 111.818 86.464 111.44C86.464 111.062 86.142 110.768 85.736 110.768C85.358 110.768 85.036 111.062 85.036 111.44C85.036 111.818 85.358 112.098 85.736 112.098Z" fill="#E05E48"/>
<path d="M106.622 75.14C107.98 75.14 109.03 74.398 109.03 73.236C109.03 72.48 108.638 71.71 107.364 71.402L106.398 71.164C105.922 71.052 105.39 70.786 105.39 70.17C105.39 69.554 105.908 69.12 106.664 69.12C107.308 69.12 107.882 69.512 107.924 70.1H108.792C108.75 68.924 107.742 68.322 106.65 68.322C105.404 68.322 104.494 69.092 104.494 70.156C104.494 71.248 105.236 71.724 106.16 71.948L107.098 72.172C107.77 72.34 108.134 72.69 108.134 73.222C108.134 73.88 107.56 74.342 106.622 74.342C105.67 74.342 105.166 73.782 105.068 73.236H104.242C104.354 74.482 105.488 75.14 106.622 75.14ZM116.88 71.71C116.88 69.638 115.522 68.322 113.66 68.322C111.812 68.322 110.328 69.638 110.328 71.71C110.328 73.782 111.812 75.14 113.66 75.14C114.892 75.14 116.012 74.552 116.586 73.502L115.816 73.166C115.382 73.88 114.584 74.286 113.688 74.286C112.372 74.286 111.392 73.502 111.238 72.102H116.866C116.88 71.976 116.88 71.836 116.88 71.71ZM111.252 71.332C111.42 69.932 112.372 69.176 113.66 69.176C114.934 69.176 115.872 69.974 115.998 71.332H111.252ZM121.788 68.322C120.976 68.322 119.912 68.7 119.52 69.638V68.462H118.624V75H119.52V71.374C119.548 69.792 120.654 69.204 121.704 69.204C122.754 69.204 123.552 69.974 123.552 71.234V75H124.448V71.192C124.448 69.386 123.37 68.322 121.788 68.322ZM132.069 64.78V69.722C131.579 68.84 130.571 68.322 129.465 68.322C127.631 68.322 126.147 69.736 126.147 71.724C126.147 73.712 127.645 75.14 129.465 75.14C130.557 75.14 131.579 74.622 132.069 73.726V75H132.965V64.78H132.069ZM129.535 74.286C128.163 74.286 127.043 73.166 127.043 71.71C127.043 70.268 128.163 69.176 129.535 69.176C130.837 69.176 132.069 70.17 132.069 71.752C132.069 73.264 130.893 74.286 129.535 74.286ZM137.056 75.14C138.414 75.14 139.464 74.398 139.464 73.236C139.464 72.48 139.072 71.71 137.798 71.402L136.832 71.164C136.356 71.052 135.824 70.786 135.824 70.17C135.824 69.554 136.342 69.12 137.098 69.12C137.742 69.12 138.316 69.512 138.358 70.1H139.226C139.184 68.924 138.176 68.322 137.084 68.322C135.838 68.322 134.928 69.092 134.928 70.156C134.928 71.248 135.67 71.724 136.594 71.948L137.532 72.172C138.204 72.34 138.568 72.69 138.568 73.222C138.568 73.88 137.994 74.342 137.056 74.342C136.104 74.342 135.6 73.782 135.502 73.236H134.676C134.788 74.482 135.922 75.14 137.056 75.14ZM149.508 68.462L147.24 73.908L145 68.462H144.048L146.778 75H147.702L150.474 68.462H149.508ZM152.322 66.684C152.714 66.684 153.022 66.418 153.022 66.054C153.022 65.676 152.714 65.41 152.322 65.41C151.958 65.41 151.636 65.676 151.636 66.054C151.636 66.418 151.958 66.684 152.322 66.684ZM151.874 75H152.77V68.462H151.874V75ZM156.853 75.14C158.211 75.14 159.261 74.398 159.261 73.236C159.261 72.48 158.869 71.71 157.595 71.402L156.629 71.164C156.153 71.052 155.621 70.786 155.621 70.17C155.621 69.554 156.139 69.12 156.895 69.12C157.539 69.12 158.113 69.512 158.155 70.1H159.023C158.981 68.924 157.973 68.322 156.881 68.322C155.635 68.322 154.725 69.092 154.725 70.156C154.725 71.248 155.467 71.724 156.391 71.948L157.329 72.172C158.001 72.34 158.365 72.69 158.365 73.222C158.365 73.88 157.791 74.342 156.853 74.342C155.901 74.342 155.397 73.782 155.299 73.236H154.473C154.585 74.482 155.719 75.14 156.853 75.14ZM166.481 68.462V69.722C165.991 68.84 164.983 68.322 163.877 68.322C162.043 68.322 160.559 69.736 160.559 71.724C160.559 73.712 162.057 75.14 163.877 75.14C164.969 75.14 165.991 74.622 166.481 73.726V75H167.377V68.462H166.481ZM163.947 74.286C162.575 74.286 161.455 73.166 161.455 71.71C161.455 70.268 162.575 69.176 163.947 69.176C165.249 69.176 166.481 70.17 166.481 71.752C166.481 73.264 165.305 74.286 163.947 74.286ZM104.069 82.462V83.722C103.579 82.84 102.571 82.322 101.465 82.322C99.6306 82.322 98.1466 83.736 98.1466 85.724C98.1466 87.712 99.6446 89.14 101.465 89.14C102.557 89.14 103.579 88.622 104.069 87.726V89H104.965V82.462H104.069ZM101.535 88.286C100.163 88.286 99.0426 87.166 99.0426 85.71C99.0426 84.268 100.163 83.176 101.535 83.176C102.837 83.176 104.069 84.17 104.069 85.752C104.069 87.264 102.893 88.286 101.535 88.286ZM110.708 82.322C109.616 82.322 108.58 82.854 108.104 83.75V82.462H107.208V92.178H108.104V87.726C108.594 88.622 109.602 89.14 110.708 89.14C112.542 89.14 114.026 87.726 114.026 85.738C114.026 83.75 112.542 82.322 110.708 82.322ZM110.638 88.286C109.336 88.286 108.104 87.292 108.104 85.71C108.104 84.198 109.28 83.176 110.638 83.176C112.024 83.176 113.144 84.296 113.144 85.752C113.144 87.194 112.024 88.286 110.638 88.286ZM119.321 82.322C118.229 82.322 117.193 82.854 116.717 83.75V82.462H115.821V92.178H116.717V87.726C117.207 88.622 118.215 89.14 119.321 89.14C121.155 89.14 122.639 87.726 122.639 85.738C122.639 83.75 121.155 82.322 119.321 82.322ZM119.251 88.286C117.949 88.286 116.717 87.292 116.717 85.71C116.717 84.198 117.893 83.176 119.251 83.176C120.637 83.176 121.757 84.296 121.757 85.752C121.757 87.194 120.637 88.286 119.251 88.286ZM124.434 89H125.33V78.78H124.434V89ZM128.013 80.684C128.405 80.684 128.713 80.418 128.713 80.054C128.713 79.676 128.405 79.41 128.013 79.41C127.649 79.41 127.327 79.676 127.327 80.054C127.327 80.418 127.649 80.684 128.013 80.684ZM127.565 89H128.461V82.462H127.565V89ZM133.706 89.126C134.644 89.126 135.47 88.79 136.058 88.23L135.498 87.628C135.05 88.034 134.434 88.272 133.734 88.272C132.306 88.272 131.144 87.25 131.144 85.724C131.144 84.184 132.306 83.176 133.734 83.176C134.434 83.176 135.05 83.428 135.498 83.834L136.058 83.218C135.47 82.672 134.644 82.322 133.706 82.322C131.844 82.322 130.248 83.652 130.248 85.724C130.248 87.796 131.844 89.126 133.706 89.126ZM142.992 82.462V83.722C142.502 82.84 141.494 82.322 140.388 82.322C138.554 82.322 137.07 83.736 137.07 85.724C137.07 87.712 138.568 89.14 140.388 89.14C141.48 89.14 142.502 88.622 142.992 87.726V89H143.888V82.462H142.992ZM140.458 88.286C139.086 88.286 137.966 87.166 137.966 85.71C137.966 84.268 139.086 83.176 140.458 83.176C141.76 83.176 142.992 84.17 142.992 85.752C142.992 87.264 141.816 88.286 140.458 88.286ZM148.96 82.462H147.462V79.858H146.58V82.462H145.39V83.232H146.58V89H147.462V83.232H148.96V82.462ZM150.791 80.684C151.183 80.684 151.491 80.418 151.491 80.054C151.491 79.676 151.183 79.41 150.791 79.41C150.427 79.41 150.105 79.676 150.105 80.054C150.105 80.418 150.427 80.684 150.791 80.684ZM150.343 89H151.239V82.462H150.343V89ZM156.442 89.14C158.304 89.14 159.872 87.782 159.872 85.71C159.872 83.638 158.304 82.322 156.442 82.322C154.58 82.322 153.026 83.638 153.026 85.71C153.026 87.782 154.58 89.14 156.442 89.14ZM156.442 88.286C155.056 88.286 153.922 87.264 153.922 85.71C153.922 84.17 155.056 83.176 156.442 83.176C157.814 83.176 158.976 84.17 158.976 85.71C158.976 87.264 157.814 88.286 156.442 88.286ZM164.813 82.322C164.001 82.322 162.937 82.7 162.545 83.638V82.462H161.649V89H162.545V85.374C162.573 83.792 163.679 83.204 164.729 83.204C165.779 83.204 166.577 83.974 166.577 85.234V89H167.473V85.192C167.473 83.386 166.395 82.322 164.813 82.322Z" fill="#E05E48"/>
<path d="M193.3 93.462L191.396 98.642L189.478 93.462H188.554L186.65 98.656L184.732 93.462H183.766L186.272 100H187.056L189.002 94.652L191.032 100H191.816L194.252 93.462H193.3ZM201.018 93.462V94.722C200.528 93.84 199.52 93.322 198.414 93.322C196.58 93.322 195.096 94.736 195.096 96.724C195.096 98.712 196.594 100.14 198.414 100.14C199.506 100.14 200.528 99.622 201.018 98.726V100H201.914V93.462H201.018ZM198.484 99.286C197.112 99.286 195.992 98.166 195.992 96.71C195.992 95.268 197.112 94.176 198.484 94.176C199.786 94.176 201.018 95.17 201.018 96.752C201.018 98.264 199.842 99.286 198.484 99.286ZM204.605 91.684C204.997 91.684 205.305 91.418 205.305 91.054C205.305 90.676 204.997 90.41 204.605 90.41C204.241 90.41 203.919 90.676 203.919 91.054C203.919 91.418 204.241 91.684 204.605 91.684ZM204.157 100H205.053V93.462H204.157V100ZM210.116 93.462H208.618V90.858H207.736V93.462H206.546V94.232H207.736V100H208.618V94.232H210.116V93.462ZM211.947 91.684C212.339 91.684 212.647 91.418 212.647 91.054C212.647 90.676 212.339 90.41 211.947 90.41C211.583 90.41 211.261 90.676 211.261 91.054C211.261 91.418 211.583 91.684 211.947 91.684ZM211.499 100H212.395V93.462H211.499V100ZM217.794 93.322C216.982 93.322 215.918 93.7 215.526 94.638V93.462H214.63V100H215.526V96.374C215.554 94.792 216.66 94.204 217.71 94.204C218.76 94.204 219.558 94.974 219.558 96.234V100H220.454V96.192C220.454 94.386 219.376 93.322 217.794 93.322ZM228.074 93.462V94.722C227.584 93.84 226.576 93.322 225.47 93.322C223.636 93.322 222.152 94.736 222.152 96.724C222.152 98.712 223.65 100.14 225.47 100.14C226.562 100.14 227.584 99.622 228.074 98.74V99.076C228.074 101.596 227.024 102.408 225.428 102.408C224.644 102.408 223.832 102.016 223.356 101.246L222.6 101.666C223.244 102.73 224.322 103.262 225.428 103.262C227.556 103.262 228.97 102.198 228.97 99.034V93.462H228.074ZM225.54 99.286C224.168 99.286 223.048 98.166 223.048 96.71C223.048 95.268 224.168 94.176 225.54 94.176C226.842 94.176 228.074 95.17 228.074 96.752C228.074 98.264 226.898 99.286 225.54 99.286Z" fill="#E05E48"/>
<path d="M243.486 62.908L241.246 57.462H240.294L243.024 64H243.948L246.72 57.462H245.754L243.486 62.908ZM248.568 55.684C248.96 55.684 249.268 55.418 249.268 55.054C249.268 54.676 248.96 54.41 248.568 54.41C248.204 54.41 247.882 54.676 247.882 55.054C247.882 55.418 248.204 55.684 248.568 55.684ZM249.016 64V57.462H248.12V64H249.016ZM253.099 64.168C254.457 64.168 255.507 63.398 255.507 62.236C255.507 61.48 255.115 60.71 253.841 60.402L252.875 60.164C252.399 60.052 251.867 59.786 251.867 59.17C251.867 58.554 252.385 58.092 253.141 58.092C253.785 58.092 254.359 58.484 254.401 59.072H255.269C255.227 57.896 254.219 57.294 253.127 57.294C251.881 57.294 250.971 58.092 250.971 59.156C250.971 60.248 251.713 60.724 252.637 60.948L253.575 61.172C254.247 61.34 254.611 61.69 254.611 62.222C254.611 62.88 254.037 63.37 253.099 63.37C252.147 63.37 251.643 62.81 251.545 62.264H250.719C250.831 63.51 251.965 64.168 253.099 64.168ZM262.727 58.736C262.237 57.84 261.229 57.294 260.109 57.294C258.247 57.294 256.805 58.82 256.805 60.724C256.805 62.67 258.303 64.168 260.081 64.168C261.243 64.168 262.251 63.538 262.727 62.642V64H263.623V57.462H262.727V58.736ZM260.193 63.314C258.807 63.314 257.687 62.138 257.687 60.724C257.687 59.324 258.807 58.148 260.179 58.148C261.495 58.148 262.727 59.226 262.727 60.752C262.727 62.222 261.551 63.314 260.193 63.314ZM246.594 72.736C246.104 71.84 245.096 71.294 243.976 71.294C242.114 71.294 240.672 72.82 240.672 74.724C240.672 76.67 242.17 78.168 243.948 78.168C245.11 78.168 246.118 77.538 246.594 76.642V78H247.49V71.462H246.594V72.736ZM244.06 77.314C242.674 77.314 241.554 76.138 241.554 74.724C241.554 73.324 242.674 72.148 244.046 72.148C245.362 72.148 246.594 73.226 246.594 74.752C246.594 76.222 245.418 77.314 244.06 77.314ZM252.687 71.294C251.665 71.294 250.965 71.952 250.643 73.058V71.462H249.733V78H250.643V75.536C250.643 73.926 251.119 72.162 252.673 72.162C252.911 72.162 253.219 72.204 253.555 72.344L253.723 71.49C253.471 71.364 253.051 71.294 252.687 71.294ZM257.924 71.294C256.902 71.294 256.202 71.952 255.88 73.058V71.462H254.97V78H255.88V75.536C255.88 73.926 256.356 72.162 257.91 72.162C258.148 72.162 258.456 72.204 258.792 72.344L258.96 71.49C258.708 71.364 258.288 71.294 257.924 71.294ZM260.654 69.684C261.046 69.684 261.354 69.418 261.354 69.054C261.354 68.676 261.046 68.41 260.654 68.41C260.29 68.41 259.968 68.676 259.968 69.054C259.968 69.418 260.29 69.684 260.654 69.684ZM261.102 78V71.462H260.206V78H261.102ZM265.703 76.908L263.463 71.462H262.511L265.241 78H266.165L268.937 71.462H267.971L265.703 76.908ZM276.277 74.71C276.277 72.638 274.905 71.294 273.043 71.294C271.195 71.294 269.725 72.638 269.725 74.71C269.725 76.782 271.195 78.168 273.043 78.168C274.275 78.168 275.395 77.552 275.969 76.502L275.199 76.166C274.765 76.88 273.967 77.314 273.071 77.314C271.755 77.314 270.775 76.502 270.621 75.102H276.249C276.263 74.976 276.277 74.836 276.277 74.71ZM270.635 74.332C270.817 72.932 271.755 72.148 273.043 72.148C274.317 72.148 275.255 72.974 275.381 74.332H270.635ZM279.868 78.168C281.226 78.168 282.276 77.398 282.276 76.236C282.276 75.48 281.884 74.71 280.61 74.402L279.644 74.164C279.168 74.052 278.636 73.786 278.636 73.17C278.636 72.554 279.154 72.092 279.91 72.092C280.554 72.092 281.128 72.484 281.17 73.072H282.038C281.996 71.896 280.988 71.294 279.896 71.294C278.65 71.294 277.74 72.092 277.74 73.156C277.74 74.248 278.482 74.724 279.406 74.948L280.344 75.172C281.016 75.34 281.38 75.69 281.38 76.222C281.38 76.88 280.806 77.37 279.868 77.37C278.916 77.37 278.412 76.81 278.314 76.264H277.488C277.6 77.51 278.734 78.168 279.868 78.168ZM285.03 75.466L285.1 68.354H284.204L284.288 75.466H285.03ZM284.638 78.168C285.044 78.168 285.366 77.888 285.366 77.51C285.366 77.118 285.044 76.838 284.638 76.838C284.26 76.838 283.938 77.118 283.938 77.51C283.938 77.888 284.26 78.168 284.638 78.168Z" fill="#E05E48"/>
<path d="M79.5 68.5C79.5 67.1193 80.6193 66 82 66C83.3807 66 84.5 67.1193 84.5 68.5C84.5 69.8807 83.3807 71 82 71C80.6193 71 79.5 69.8807 79.5 68.5Z" fill="#E05E48"/>
<line x1="82" y1="36" x2="82" y2="66" stroke="#E05E48" stroke-dasharray="2 3"/>
<path d="M151.5 57.5C151.5 56.1193 152.619 55 154 55C155.381 55 156.5 56.1193 156.5 57.5C156.5 58.8807 155.381 60 154 60C152.619 60 151.5 58.8807 151.5 57.5Z" fill="#E05E48"/>
<line x1="153.5" y1="3" x2="153.5" y2="55" stroke="#E05E48" stroke-dasharray="2 3"/>
<path d="M191.5 85.5C191.5 84.1193 192.619 83 194 83C195.381 83 196.5 84.1193 196.5 85.5C196.5 86.8807 195.381 88 194 88C192.619 88 191.5 86.8807 191.5 85.5Z" fill="#E05E48"/>
<line x1="194" y1="45" x2="194" y2="83" stroke="#E05E48" stroke-dasharray="2 3"/>
<path d="M231.096 60.8238C230.19 59.7826 230.299 58.2034 231.34 57.2967C232.381 56.39 233.96 56.4991 234.867 57.5404C235.774 58.5817 235.665 60.1608 234.623 61.0675C233.582 61.9742 232.003 61.8651 231.096 60.8238Z" fill="#E05E48"/>
<line x1="206.386" y1="28.6404" x2="231.34" y2="57.2985" stroke="#E05E48" stroke-dasharray="2 3"/>
<path d="M160 16L160 45H204V40" stroke="#E05E48" stroke-linejoin="round"/>
<path d="M0.5 31C31 31 48.5 31 81.5 31C111.478 25.03 128 1.5 154 1.5C180 1.5 190.855 24.8594 217.5 31C246.5 31 293.5 31 293.5 31" stroke="#077594" stroke-width="2"/>
</svg>
