<svg width="42" height="60" viewBox="0 0 42 60" fill="none" xmlns="http://www.w3.org/2000/svg">
<path d="M5.932 4.462L4.056 9.012L2.18 4.462H0.696L3.3 10.72L1.9 14.178H3.356L7.416 4.462H5.932ZM11.4226 11.14C13.2846 11.14 14.8666 9.782 14.8666 7.71C14.8666 5.638 13.2846 4.322 11.4226 4.322C9.56063 4.322 7.99263 5.638 7.99263 7.71C7.99263 9.782 9.56063 11.14 11.4226 11.14ZM11.4226 9.838C10.3026 9.838 9.36463 8.984 9.36463 7.71C9.36463 6.45 10.3026 5.61 11.4226 5.61C12.5426 5.61 13.4946 6.45 13.4946 7.71C13.4946 8.984 12.5426 9.838 11.4226 9.838ZM21.1547 4.462V7.962C21.1547 9.306 20.1187 9.782 19.2647 9.782C18.4247 9.782 17.7807 9.166 17.7807 8.102V4.462H16.4087V8.2C16.3947 10.062 17.3887 11.14 19.0407 11.14C19.7267 11.14 20.7767 10.804 21.1547 10.006V11H22.5267V4.462H21.1547ZM24.8108 4.98C25.8748 4.098 26.4908 2.6 26.3368 0.962H25.1048C25.2868 2.642 24.8388 3.552 24.0408 4.686L24.8108 4.98ZM30.9236 4.322C30.0836 4.322 29.4256 4.784 29.0896 5.932V4.462H27.7036V11H29.0896V8.648C29.0896 6.884 29.6496 5.638 30.8396 5.638C31.1056 5.638 31.4416 5.694 31.8056 5.862L32.0436 4.56C31.8336 4.434 31.3716 4.322 30.9236 4.322ZM39.2657 7.696C39.2657 5.638 37.8517 4.322 35.9897 4.322C34.1277 4.322 32.6157 5.638 32.6157 7.71C32.6157 9.782 34.0997 11.14 35.9897 11.14C37.2357 11.14 38.4117 10.58 38.9857 9.488L37.8937 8.942C37.5297 9.544 36.8157 9.866 36.0597 9.866C34.9957 9.866 34.2117 9.348 34.0297 8.284H39.2377C39.2517 8.074 39.2657 7.878 39.2657 7.696ZM34.0437 7.178C34.2397 6.1 34.9957 5.596 36.0037 5.596C37.0117 5.596 37.7677 6.156 37.8937 7.178H34.0437ZM5.022 18.322C4.322 18.322 3.272 18.658 2.894 19.456V14.92H1.522V25H2.894V21.514C2.894 20.156 3.93 19.68 4.784 19.68C5.624 19.68 6.268 20.296 6.268 21.36V25H7.64V21.262C7.654 19.4 6.674 18.322 5.022 18.322ZM15.8321 21.696C15.8321 19.638 14.4181 18.322 12.5561 18.322C10.6941 18.322 9.18208 19.638 9.18208 21.71C9.18208 23.782 10.6661 25.14 12.5561 25.14C13.8021 25.14 14.9781 24.58 15.5521 23.488L14.4601 22.942C14.0961 23.544 13.3821 23.866 12.6261 23.866C11.5621 23.866 10.7781 23.348 10.5961 22.284H15.8041C15.8181 22.074 15.8321 21.878 15.8321 21.696ZM10.6101 21.178C10.8061 20.1 11.5621 19.596 12.5701 19.596C13.5781 19.596 14.3341 20.156 14.4601 21.178H10.6101ZM20.6424 18.322C19.8024 18.322 19.1444 18.784 18.8084 19.932V18.462H17.4224V25H18.8084V22.648C18.8084 20.884 19.3684 19.638 20.5584 19.638C20.8244 19.638 21.1604 19.694 21.5244 19.862L21.7624 18.56C21.5524 18.434 21.0904 18.322 20.6424 18.322ZM28.9844 21.696C28.9844 19.638 27.5704 18.322 25.7084 18.322C23.8464 18.322 22.3344 19.638 22.3344 21.71C22.3344 23.782 23.8184 25.14 25.7084 25.14C26.9544 25.14 28.1304 24.58 28.7044 23.488L27.6124 22.942C27.2484 23.544 26.5344 23.866 25.7784 23.866C24.7144 23.866 23.9304 23.348 23.7484 22.284H28.9564C28.9704 22.074 28.9844 21.878 28.9844 21.696ZM23.7624 21.178C23.9584 20.1 24.7144 19.596 25.7224 19.596C26.7304 19.596 27.4864 20.156 27.6124 21.178H23.7624Z" fill="#077594"/>
<path d="M13.5 37.5C13.5 36.1193 14.6193 35 16 35C17.3807 35 18.5 36.1193 18.5 37.5C18.5 38.8807 17.3807 40 16 40C14.6193 40 13.5 38.8807 13.5 37.5Z" fill="#FFCE69"/>
<line x1="16" y1="40" x2="16" y2="60" stroke="#FFD275"/>
</svg>
