<svg xmlns="http://www.w3.org/2000/svg" xmlns:xlink="http://www.w3.org/1999/xlink" width="400" height="400" viewBox="0 0 400 400"><defs><clipPath id="a"><circle cx="200" cy="200" r="200" fill="none"/></clipPath></defs><circle cx="200" cy="200" r="200" fill="#f6f6f6"/><g clip-path="url(#a)"><path d="M93.41,79.34c.91,5.55,1.37,8.32,2.23,9.79,3.39,5.77,11.75,9.15,17.88,7.31,3.65-1.1,4.67-1,8.74-5.12,3.22,1.28,6.68,1.54,9.09-2.88,1.08-2,0-10.3-3.42-11.2.06-2.53-.87-6.09-2.07-7.42C122.37,66,113,58.43,103,69.58c-4.21-3.1-7.79-1.26-9.57.45C91.18,72.16,90.8,76.85,93.41,79.34Z" fill="#fff"/><path d="M109.88,98.87c-6.15,0-12.78-3.46-15.9-8.77-1-1.72-1.46-4.31-2.38-9.86a8.31,8.31,0,0,1-1.93-5.49,8.51,8.51,0,0,1,2.4-6.1,8.8,8.8,0,0,1,10.59-1.53c3.56-3.52,7.38-5.31,11.39-5.31h0c6.45,0,11.39,4.7,13.21,6.72,1.44,1.58,2.35,4.85,2.54,7.5a7.48,7.48,0,0,1,2.52,3.36c1.28,3,1.88,7.8.7,10-2.28,4.18-5.73,5.58-10.29,4.17-3.21,3.07-4.67,3.59-7.61,4.44l-1.06.31A14.7,14.7,0,0,1,109.88,98.87Zm-11.54-29a5.33,5.33,0,0,0-3.61,1.59,4.73,4.73,0,0,0-1.21,3.33A4.45,4.45,0,0,0,94.74,78l.46.45.11.66c.82,5,1.31,7.94,2,9.09,2.91,5,10.38,8,15.67,6.44l1.1-.32c2.65-.76,3.54-1,6.83-4.31l.9-.9,1.17.47c3.31,1.32,5.18.76,6.69-2,.33-.72.24-4.31-1-6.87-.48-1-1-1.48-1.26-1.55L126,78.71l0-1.52c.06-2.27-.82-5.25-1.57-6.08-1.48-1.64-5.45-5.45-10.36-5.45h0c-3.3,0-6.55,1.75-9.66,5.21l-1.17,1.3-1.4-1A5.88,5.88,0,0,0,98.34,69.83Z" fill="#077594"/><path d="M95.16,67.89c2.06-13.5,24.22-27,37.75-27.08,3.48,0,8.3.48,8.56,1.95.4,2.3-10.49,5.87-10.12,7,.27.84,6-1.87,11.67,0,7.07,2.33,12.1,11,10.12,14.4s-11.52.92-12.06,3.11c-.44,1.77,5.76,3.2,7,8.18.62,2.46,0,5.73-1.94,7S141,81.8,133.7,79.57c-7.85-2.42-2.88-5.32-5.48-6.83-5.74-3.33-9-3-12.44-3.52-5.26-.71-9.3,2.73-12.45,7.39C100,75.92,108.84,68.2,95.16,67.89Z" fill="#077594"/><path d="M120.05,229.73c18,16.27,2.94,41.55,7.29,106.81,3.19,47.73,2.58,54.06,7,75.43-6.81,2.82-27.9-18.16-32.59-42.76-2.63-13.8,1.39-20.93-3.35-38.64-3.12-11.68-7.46-18.25-11.86-26.42-7-12.93-31.75-58.89-18.59-75.65C76.86,217.21,105.19,216.28,120.05,229.73Z" fill="#fff"/><path d="M133,414.15a11.44,11.44,0,0,1-5.29-1.61c-5-2.71-11-8.66-16.07-15.92a72.28,72.28,0,0,1-11.72-27.05,71.11,71.11,0,0,1-1-15.89c.13-6.29.27-12.79-2.36-22.62-2.53-9.48-5.91-15.55-9.48-22-.73-1.32-1.47-2.65-2.21-4-8-14.84-32.35-60-18.41-77.75,4-5.07,11.6-8.43,20.9-9.22,12.78-1.09,25.79,2.83,34,10.21h0c11.35,10.27,10.36,23.85,8.72,46.37-1.14,15.7-2.57,35.25-.8,61.74.76,11.37,1.31,20.49,1.75,27.82,1.45,24,1.88,31.2,5.26,47.34l.33,1.56-1.48.61A5.5,5.5,0,0,1,133,414.15ZM91.67,221.76c-1.31,0-2.63.05-4,.17-8.25.7-14.88,3.53-18.21,7.76-10.23,13,4.56,47.19,18.77,73.54.74,1.37,1.47,2.69,2.2,4,3.69,6.64,7.17,12.91,9.83,22.85,2.77,10.35,2.63,17.13,2.49,23.69a66.68,66.68,0,0,0,.89,15.09c3.65,19.18,17.35,35.73,25.83,40.3a10.82,10.82,0,0,0,2.53,1c-3-15-3.52-23.24-4.88-45.72-.44-7.32-1-16.44-1.75-27.79-1.78-26.76-.35-46.46.8-62.28,1.61-22.07,2.5-34.23-7.46-43.24C112.19,225.21,102.08,221.76,91.67,221.76Z" fill="#077594"/><path d="M106,250.9c10.15,22-11,36.82-34.17,98C63.42,371,50.9,392.48,38.88,414.43,31.5,414.35,27.59,393.48,33,369c3-13.72,14.32-14.27,16.93-32.42,1.71-12-3.1-21.18-3.94-30.42-1.33-14.62-6-66.62,12.64-76.87C71.16,222.42,97.57,232.69,106,250.9Z" fill="#fff"/><path d="M40,416.36H38.86a6.76,6.76,0,0,1-5.27-2.9c-5.61-7-6.67-25.9-2.52-44.84,1.46-6.68,4.79-10.51,8-14.21,3.71-4.27,7.54-8.67,8.89-18.07,1.05-7.33-.48-13.62-2-19.71a70.57,70.57,0,0,1-2-10.27c-1.53-16.79-6.17-67.88,13.62-78.72,5.65-3.1,14-3.19,22.85-.27,12.18,4,22.6,12.73,27.21,22.74h0c6.63,14.39.72,25.82-10,46.55a467.29,467.29,0,0,0-24.12,52.92c-7.21,19.06-17.7,38-27.84,56.39q-2.58,4.68-5.17,9.39ZM68.2,229.07A18.12,18.12,0,0,0,59.5,231C45,239,45.15,276.18,47.86,306a66.82,66.82,0,0,0,1.88,9.71c1.5,6.14,3.2,13.1,2,21.17-1.51,10.51-5.91,15.58-9.79,20-3.17,3.65-5.91,6.8-7.16,12.51-4.24,19.34-2.43,36.35,1.77,41.63a4.66,4.66,0,0,0,1.29,1.16l4.48-8.12C52.91,385,62.87,367,70,348.21c9-23.68,17.47-40.12,24.3-53.33,10.5-20.3,15.77-30.49,9.92-43.18-4.17-9.06-13.72-17-24.92-20.68A35.84,35.84,0,0,0,68.2,229.07Z" fill="#077594"/><path d="M85.71,103.19c2.6,5.39-.27,4.17,5.14,7.73,5.17,3.4,9.5,1.4,13.8,1.38,11.79,11.74,10.81,47.49,25.94,81.56,19.94,44.89,55.12,47.77,55.18,47.64s-30,6.48-51.38-3.7c-2.61-11.55-8.4-28.93-14.59-43.86-1,5.52,11.25,31.43,13,47.56.73,6.51,1.48,13.45-.25,18.49-4.55,13.21-31.11,12.79-47.51,10.74-19.44-2.42-44.38-3-46.17-21.62-3-31,34-67.83,34-67.83C68.86,180.54,59.67,200,38.86,216c-15.52,11.87-35,18.07-37,15.68C15,219.84,24.6,208.86,46.43,172.16,67.06,137.46,80.07,102,85.71,103.19Z" fill="#077594"/><path d="M323.4,239.71c-4,3.51-6,5.27-7.52,5.83-5.95,2.19-14.1-.37-17.49-5.4-2-3-2.79-3.57-3.33-9-3.13-1-3.63-3.14-2.74-7.83.4-2.1,5.12-4.74,7.06-5.89,1.48-1.89,4.3-3.94,6-4.19,4.87-.73,16.27-.61,16.91,13.59,6.77-1.32,8,3.75,8.31,6.08C330.93,235.78,326.81,239.45,323.4,239.71Z" fill="#fff"/><path d="M311.17,248.26c-5.6,0-11.44-2.68-14.38-7l-.59-.87c-1.65-2.4-2.42-3.66-2.92-7.85-3.72-1.84-3.59-5.65-2.85-9.55.5-2.59,4-4.84,7.51-6.91l.16-.1c1.69-2,4.72-4.28,7-4.61,2.57-.39,9.06-.86,13.81,3.05,2.86,2.35,4.58,5.81,5.14,10.3a8.09,8.09,0,0,1,5.09,1.43,9.12,9.12,0,0,1,3.38,6.56,6.71,6.71,0,0,1-1.75,4.94,11.31,11.31,0,0,1-6.51,3.94c-4,3.52-5.9,5.14-7.68,5.8A15.64,15.64,0,0,1,311.17,248.26Zm-2.65-33.35a19.84,19.84,0,0,0-2.87.21c-1,.16-3.46,1.82-4.75,3.48l-.23.28-.78.46c-4.41,2.6-5.53,3.79-5.68,4.33-.93,4.88.06,5.19,1.44,5.63l1.2.38L297,231c.43,4.36.92,5.08,2.39,7.21l.61.9c2.9,4.31,10.16,6.54,15.24,4.67,1.18-.43,3.33-2.32,6.89-5.45l.48-.42.67-.07a7.37,7.37,0,0,0,4.51-2.63,3.19,3.19,0,0,0,.9-2,5.62,5.62,0,0,0-1.83-3.9,5.29,5.29,0,0,0-4.2-.51l-2.2.43-.1-2.23c-.19-4.37-1.51-7.59-3.9-9.56A12.43,12.43,0,0,0,308.52,214.91Zm14.88,24.8,1.27,1.45Z" fill="#077594"/><path d="M299.62,214.91c8.69-.67,14-.33,18.11,6.65,2.23,3.81,1.15,5.15.63,7.77,2.58,1.21,5.32-2.81,8.69-1.62,3.06,1.08,2,10.6,3.33,8.77,7.7-10.76.59-15.61.62-16.9,2.12-3,7.5-4.19,10.8-2.37,3.76,2.09,2.47,6.85,7.63,11.06,1.32,1.08,3.27,2.67,5.53,2.37,3.69-.48,6.49-5.73,6.58-10,.16-7.16-7.22-14.71-14.21-15-7.93-.34-12.62,3.63-18.62,8.19-2-2.7-3.48-5.61-8.77-7.14-5.77-1.66-7.24-.74-8.75-.52.49-2.37,4.57-7.84,2.63-11.59-1.31-2.53-6.14-3.81-9.74-1.84-2.86,1.56-4.69,5-3.95,7.63.81,2.85,4.56,4.48,4.77,6.75A10.91,10.91,0,0,0,299.62,214.91Z" fill="#077594"/><path d="M247.31,377.69c2.82,28.86,5.84,68.64,14.21,68.54,9.61-.13,29.26-21.31,22.69-51.5,6.56-1,20,2.65,22,4.19-9.78,37.41,8.13,48.08,13.89,49.56,6.56,1.68,21-39.53,26-68.37C331.67,354.41,264.68,350,247.31,377.69Z" fill="#fff"/><path d="M320.48,450.45a3.23,3.23,0,0,1-.87-.11c-1.34-.34-8.27-2.49-13.32-11.06-5.64-9.57-6.42-22.82-2.33-39.38-3.17-1.3-11.8-3.56-17.44-3.43,3.94,21.67-5.31,36.25-9.59,41.62-4.88,6.15-10.78,10-15.39,10.06h-.06c-8.74,0-11.76-24.88-15.37-62.82-.24-2.54-.48-5-.72-7.45l-.06-.65.35-.56c9.57-15.27,32.44-20.22,50.61-19.77,24,.6,44.21,9.34,51.45,22.27l.33.59-.11.67c-4.53,26.3-17.23,64.17-25,69.24A4.44,4.44,0,0,1,320.48,450.45Zm-33.74-57.81c7.27,0,18.36,3,20.63,4.75l1,.78-.32,1.23c-4.18,16-3.65,29.11,1.54,37.93,4.37,7.41,10.31,9.12,11,9.29,4.25-.65,18-34.76,23.48-66.15-6.8-11.28-25.89-19.17-47.86-19.72-21.49-.54-39.39,6.12-46.9,17.42.21,2.21.43,4.48.65,6.79,1.3,13.65,2.77,29.12,4.84,40.85,3.18,18,6.32,18.51,6.71,18.49,2.81,0,7.75-2.71,12.43-8.6,4.07-5.12,13-19.31,8.41-40.56l-.44-2,2-.32A18.72,18.72,0,0,1,286.74,392.64Z" fill="#077594"/><path d="M300.52,261.82c1.66,2.39,2.72,4.07,6.51,4.88a12.16,12.16,0,0,0,13-5.29c5.58,4.45,5.51,15.08,9.35,25.61,10.22,28.05,54.69,35.44,70.88,38.69-.92,2.82-41.88,11.56-52.47,11.76-5.68.1-12.57-22.08-15.24-28.34-4.37,7,13.68,32.44,15.53,37.37,5.71,15.23,6.48,30.11-2,45-10.87,19-50.42,15.23-65.43,13.82-16.84-1.59-30-2.83-34.14-11.38-7.44-15.33,0-39.42,16.47-65.07-1.55-6.33-6.91-11.66-16.63-19.07C226.88,295,232,295,219.13,263.67c7,4.31,4.41,5.37,24.52,18,14.24,9,20.09,8.33,25.85,6.7C284.28,284.2,294.92,265.86,300.52,261.82Z" fill="#077594"/><path d="M218,264.8c-7,.36-16.86-5.43-19.18-14.46-2.92-11.35,8.09-18.29,10.48-16.7,8.52,5.67-1.06,2.42,1.36,15.7C212.31,258.41,216.41,263.4,218,264.8Z" fill="#fff"/><path d="M217.36,266.74c-7.87,0-18-6.34-20.42-15.92a16,16,0,0,1,6.34-17.33c2.8-2,5.45-2.54,7.08-1.45,4.19,2.79,5.6,4.49,3.43,7.76-.91,1.38-2.29,3.46-1.24,9.19,1.81,9.94,6.52,14.19,6.72,14.37l3.53,3.11-4.71.25Zm-9-31.41c-.67,0-2.84.84-4.91,3.13a12.07,12.07,0,0,0-2.78,11.4c1.59,6.18,7.34,10.9,12.87,12.47a34.74,34.74,0,0,1-4.78-12.64c-1.32-7.26.72-10.35,1.82-12l.28-.43a15.46,15.46,0,0,0-2.5-1.92Zm.08,0Z" fill="#077594"/><path d="M211.54,240.86c1.52-1.27,6.29,1.12,8.67,4.65,3.62,5.36,0,14.93-2.06,15.67C213.53,262.86,206.87,244.78,211.54,240.86Z" fill="#fff"/><path d="M217.52,263.21c-1.51,0-3.64-.91-5.88-4.78-3.2-5.56-5.52-15.53-1.33-19h0a3.83,3.83,0,0,1,3.14-.74c2.8.39,6.39,2.88,8.36,5.79,3.17,4.69,1.46,11.07.86,12.92-.47,1.44-1.79,4.87-3.86,5.63A3.93,3.93,0,0,1,217.52,263.21Zm-4.85-20.77c-1.06,1.12-1.19,5,.45,9.87,1.58,4.68,3.64,6.84,4.33,7,1.3-1.3,4-8.65,1.17-12.76C216.82,243.93,213.6,242.38,212.67,242.44Zm.11-.1Z" fill="#077594"/><path d="M198,241.51c-2.51-.15-7,1-11.71,1.54,1.6,3,8.12,6.34,11.69,7.66C198.28,248.47,197.89,244,198,241.51Z" fill="#fff"/><path d="M199.49,253.33l-2.21-.82c-.11,0-10.24-3.81-12.73-8.56l-1.32-2.5,2.81-.31c1.89-.21,3.81-.54,5.49-.82a32.17,32.17,0,0,1,6.55-.73l1.85.12-.05,1.86c0,.86,0,2,.05,3.27a38,38,0,0,1-.09,6.15Zm-9.29-8.89a32.88,32.88,0,0,0,6,3.44c0-.93,0-2-.07-2.92,0-.49,0-1,0-1.44-1.13.12-2.47.35-3.87.59Z" fill="#077594"/><path d="M12.35,223.88c-.53,4-11.23,15.48-25.41,13.67-4.81-.61-11.41-3.27-11.61-6.63C-25,226.24-12.88,219.37-5,222.24c2.57.94,3.26,2.41,6.54,3.14C7.56,226.72,8,224.73,12.35,223.88Z" fill="#fff"/><path d="M-10,239.67a26.12,26.12,0,0,1-3.27-.21c-5-.63-13-3.48-13.3-8.42-.13-2.26,1.41-4.71,4.35-6.91,4.44-3.3,11.92-5.87,17.86-3.69a13.62,13.62,0,0,1,3,1.56,8.93,8.93,0,0,0,3.34,1.5c3.49.77,4.63.32,6.35-.36A19.34,19.34,0,0,1,12,222l2.63-.51-.35,2.65C13.61,229.08,3.47,239.67-10,239.67Zm.88-16.18a19.51,19.51,0,0,0-10.8,3.73c-2,1.49-2.85,2.87-2.8,3.58.09,1.59,4.79,4.19,9.94,4.85,9.58,1.22,17.42-4.25,21.07-8.4-1.64.53-3.61.8-7.18,0a12.58,12.58,0,0,1-4.61-2,10.28,10.28,0,0,0-2.18-1.17A10,10,0,0,0-9.15,223.49Z" fill="#077594"/><path d="M382.67,327.21c2.64-3.06,17.89-6.76,28.74,2.55,3.68,3.16,7.74,9,6.06,11.93-2.34,4.07-16.2,3.16-21.17-3.55-1.62-2.2-1.4-3.81-3.74-6.21C388.23,327.47,386.82,328.91,382.67,327.21Z" fill="#fff"/><path d="M410.53,346.05c-5.39,0-12.27-2-15.77-6.76a13.72,13.72,0,0,1-1.61-2.93,8.86,8.86,0,0,0-2-3.09c-2.5-2.57-3.69-2.82-5.5-3.2a18.89,18.89,0,0,1-3.74-1.09l-2.47-1,1.75-2c3.52-4.08,19.88-7.57,31.44,2.35,3.81,3.26,8.94,10.05,6.48,14.34-1.13,2-3.77,3.17-7.43,3.38C411.33,346,410.93,346.05,410.53,346.05Zm-22.59-19.4c1.66.45,3.45,1.31,6,3.94a12.35,12.35,0,0,1,2.73,4.23,10.58,10.58,0,0,0,1.18,2.18c2.75,3.71,9.06,5.43,13.63,5.18,2.49-.15,4-.84,4.32-1.45.79-1.38-1.71-6.14-5.64-9.51C402.82,324.92,393.26,325.18,387.94,326.65Z" fill="#077594"/><path d="M106.83,97.33c-3.58,5-3.17,14.08-2.32,17.59-6.55,4.25-16.88-.41-18.08-10.06,1.72-2.49,8.51-4.87,9.21-15.73C99,94.27,102.63,96.75,106.83,97.33Z" fill="#fff"/><path d="M99,118.43a13.9,13.9,0,0,1-5.89-1.35,15.13,15.13,0,0,1-8.62-12l-.09-.73.42-.6a11.9,11.9,0,0,1,2.34-2.3c2.55-2.14,6-5.06,6.53-12.47l.37-5.76,3.16,4.83c2.94,4.5,6.07,6.84,9.84,7.36l3.15.43-1.84,2.59c-3.08,4.33-2.83,12.7-2,16l.32,1.32-1.14.75A12,12,0,0,1,99,118.43Zm-10.56-13a11.31,11.31,0,0,0,6.29,8.15,9.3,9.3,0,0,0,7.6.3c-.57-3.7-.67-10.29,1.55-15.28a16.8,16.8,0,0,1-7.07-4.78,19.33,19.33,0,0,1-7.19,10.58C89.22,104.79,88.79,105.14,88.47,105.45Z" fill="#077594"/><path d="M307,245.8c.26,5.63-3,15.2-5.23,18,2.73,5.89,11.66,7.57,16.88-.64-.09-2.76-7.22-7.77-2.8-17.66C311.17,249,310.27,246.63,307,245.8Z" fill="#fff"/><path d="M309.68,270.74l-.73,0a10.53,10.53,0,0,1-8.89-6.06l-.49-1.06.71-.92c2-2.58,5.06-11.67,4.83-16.78l-.13-2.6,2.53.65a14.77,14.77,0,0,1,2.48.94c1.53.72,2.17,1,4.75-.89l5.9-4.38-3,6.71c-2.77,6.19-.48,9.95,1.35,13a8.46,8.46,0,0,1,1.61,3.86l0,.6-.32.5C317.65,268.4,313.82,270.74,309.68,270.74Zm-5.63-6.81a6.73,6.73,0,0,0,5.16,2.94c2.75.19,5.4-1.27,7.39-4-.21-.43-.59-1.06-.89-1.56-1.56-2.54-3.95-6.47-3-12.07a6.39,6.39,0,0,1-3.89-.62A44.7,44.7,0,0,1,304.05,263.93Z" fill="#077594"/></g></svg>