<svg xmlns="http://www.w3.org/2000/svg" xmlns:xlink="http://www.w3.org/1999/xlink" width="400" height="400" viewBox="0 0 400 400"><defs><clipPath id="a"><circle cx="200" cy="200" r="200" fill="none"/></clipPath></defs><circle cx="200" cy="200" r="200" fill="#f6f6f6"/><g clip-path="url(#a)"><path d="M67.36,468.69c44,36.69,113.2,44.38,151.71,44.37,12.6,0,83.71-.25,121.06-105.81,29.44-83.24-16.28-143.8-33.76-152.48-.1,25.23-11.46,78.08-44.44,83.53-40.32,6.66-61.67-25.23-94.24-54.43-24.45-21.93-35-56.05-45-53.4-1.79,11.41-3.75,10.38-12.84,13.8C101,247.6,95.9,242.68,87,238.18c-15.7,9.86-9.55,64-28.93,115.74C32.41,422.26,46,450.87,67.36,468.69Z" fill="#077594"/><path d="M68.29,224c-7.12,12.4-27.64,18-41.62,13.87-32.94-9.75-61.34-83-30.06-133,27.49-43.9,91-53.6,126-34.68,29.12,15.71,25.71,44.17,52,50.87,36.21,9.21,64.23-39.2,92.49-26.59,16.7,7.44,21.76,31,22,43.93.68,42.39-49,65.8-54.34,68.22-26.77,12.14-62.85,13.52-87.87-2.32-10.48-6.63-13.34-12.69-27.71-18.85-14.2-6.08-40-12.42-48.93-1.71C61.8,193.92,76.64,209.47,68.29,224Z" fill="#077594"/><path d="M75.49,211.61c-5.77,1.33-19.38,5.07-23.81-8.62-1.67-5.18,1.51-19.25,18.59-19.2-3.21-9-2.64-6.7-1.11-16.71,1.59-10.43-7-8.89,3.61-26.8,7.19-14.53,45.39,6.65,60.09,19.9-6.2,4.86-10.6,4.44-14,11.75.54,2.63,1,6.39.34,13.57s-5.1,14-9.45,18.74C101,213.77,87,216.14,75.49,211.61Z" fill="#fff"/><path d="M87.29,217.1a35.37,35.37,0,0,1-12-2.11c-6.18,1.44-21.58,4.76-26.67-11-1.16-3.59-.66-9.86,3.19-15.13,2.34-3.21,6.59-6.93,14-8-1.38-4.09-1.35-5.34-.51-10.21.18-1.08.41-2.39.66-4a12.06,12.06,0,0,0-.72-6.49c-1.67-5.06-2.31-9.56,4.7-21.37a11.82,11.82,0,0,1,8.75-6.25c15.55-3,44.51,14.62,56.35,25.3l2.87,2.58-3,2.37a41.56,41.56,0,0,1-6.2,3.94c-2.9,1.59-4.75,2.6-6.41,5.72a48.18,48.18,0,0,1,.17,13.43c-.89,9.17-6.83,16.85-10.29,20.61A33.64,33.64,0,0,1,87.29,217.1Zm-11.54-8.88.94.38c10.81,4.27,23.14,1.64,30.67-6.55,2.35-2.55,7.88-9.3,8.62-16.86.65-6.71.22-10.14-.29-12.61l-.21-1.05.45-1c2.68-5.77,6-7.62,9.62-9.57.64-.35,1.3-.71,2-1.1-13.28-10.66-36.83-23.11-47.61-21-2.77.53-3.74,1.89-4.23,2.87l-.11.22c-6.11,10.27-5.26,12.86-4.18,16.13a18.34,18.34,0,0,1,1,9.5c-.26,1.7-.49,3.06-.69,4.17-.74,4.3-.74,4.3,1.22,9.75l2,5.55H70.19C64.27,187,59.72,189,57,192.67c-2.52,3.45-2.83,7.53-2.26,9.32,3.1,9.56,11.25,8.51,19.34,6.62Z" fill="#077594"/><path d="M309.79,267.1,306,264.65c-7.66-5-19.46-35.37-3.53-60,5.17-8,16.56-19.39,25.14-15.9,3.89,1.59,6.76,6.19,8.09,13,2,10.35.27,25.3-8.33,33.67a26.14,26.14,0,0,1-5.08,3.77,17.49,17.49,0,0,0-5.52,4.66c-4.35,5.55-4.52,8-4.77,11.59a36.15,36.15,0,0,1-1.1,7.34Zm14.4-72.52c-3.87,0-11.53,6.28-16.26,13.59-10.73,16.58-6.86,36-2.28,45.52.3-3.69,1-7.48,6-13.86a23.9,23.9,0,0,1,7.25-6.21,20.07,20.07,0,0,0,3.93-2.87c6.5-6.33,8.19-19,6.49-27.79-1-5.22-2.89-7.68-4.17-8.2A2.66,2.66,0,0,0,324.19,194.58Z" fill="#077594"/><rect x="313.91" y="164.38" width="56.13" height="83.46" rx="3.08" transform="translate(169.83 566.38) rotate(-95.54)" fill="#e05e48"/><rect x="310.33" y="180.08" width="23.12" height="34.37" rx="1.92" transform="translate(156.61 536.7) rotate(-95.54)" fill="#fff"/><rect x="360.37" y="199.32" width="3.69" height="34.37" rx="0.31" transform="translate(181.67 597.92) rotate(-95.54)" fill="#fff"/><rect x="360.9" y="206.63" width="4.04" height="34.37" rx="0.31" transform="translate(175.17 606.64) rotate(-95.54)" fill="#fff"/><path d="M106.4,209.52c.86,7.75,11.8,20.91,15.56,23.5-2.6,9.5-25.28,14.84-34.52,6.75-.47-3.78,2.81-14.59-5.67-25.41C89.26,216.37,102,212.51,106.4,209.52Z" fill="#fff"/><path d="M100.15,246.17c-5.19,0-10.48-1.22-14.3-4.57l-.7-.6-.12-.92a21.69,21.69,0,0,1,.06-3.9c.32-5,.81-12.6-5.23-20.32l-4.5-5.74,7,1.89c6.69,1.8,18.69-1.85,22.64-4.51l3.33-2.23.44,4c.75,6.68,10.85,19.24,14.52,21.77l1.43,1-.46,1.66c-1.28,4.67-6.38,8.77-13.66,11A37.32,37.32,0,0,1,100.15,246.17Zm-10.32-7.61c4.27,3,12,3.62,19.41,1.4,4.72-1.42,8.29-3.72,9.77-6.21-4.31-3.9-11.71-13.21-14.23-20.58a46.87,46.87,0,0,1-18.16,4.17c4.07,7.56,3.61,14.64,3.31,19.16C89.88,237.25,89.84,238,89.83,238.56Z" fill="#077594"/></g></svg>