<svg xmlns="http://www.w3.org/2000/svg" viewBox="0 0 173.58 301.77"><defs><style>.cls-1{fill:#077594;}.cls-2{fill:#e05e48;}.cls-3{fill:#fff;}</style></defs><g id="Layer_2" data-name="Layer 2"><g id="Layer_1-2" data-name="Layer 1"><path class="cls-1" d="M115.24,53.48a11.33,11.33,0,0,1-6.94-2,4.16,4.16,0,0,1-1-5.51c.51-.93,1-1.81,1.53-2.68,3.07-5.31,5.73-9.9,6.08-20.86l3,.09c-.37,11.72-3.34,16.85-6.49,22.27-.49.86-1,1.72-1.49,2.62s-.26,1.33.27,1.76c2.07,1.73,7.67,1.86,10.84-.22a43.09,43.09,0,0,1,3.4-15c.29-.75.56-1.47.82-2.19l2.83,1c-.27.74-.55,1.48-.84,2.25A40.31,40.31,0,0,0,124,49.77v.69l-.54.44A13.27,13.27,0,0,1,115.24,53.48Z"/><path class="cls-1" d="M108.57,277.67l-1.7-3.49c-.83-1.69-2.21-4.08-4-7.12-7.38-12.79-21.07-36.54-22.73-59.92-12.54-18.85-15.12-58.09-9.81-62.41l.95,1.16-.95-1.16c4.27-3.48,12.35-3.48,21.61,0,15.93,6,24.45,16.87,25.82,25,1.09,6.46-1.72,11.17-4.69,16.16-3.16,5.31-6.42,10.79-5.87,19.41.38,5.9,2,7.88,4,10.38s4.45,5.49,5.88,12.76c2.9,14.74-.64,25.06-4.39,36-1,3-2.12,6.19-3.08,9.49ZM72.26,147.05c-3.17,2.8-2,40.15,10.62,58.74l.23.34,0,.4c1.49,22.82,15.07,46.38,22.37,59,.87,1.52,1.65,2.87,2.33,4.08.67-2.12,1.38-4.17,2.06-6.17,3.78-11,7-20.49,4.29-34.44-1.29-6.54-3.31-9-5.27-11.45-2.17-2.69-4.23-5.22-4.67-12.08-.62-9.54,3-15.7,6.29-21.14,2.79-4.69,5.21-8.75,4.3-14.12-1.69-10.05-13.59-18.81-23.92-22.69C82.79,144.49,75.65,144.3,72.26,147.05Z"/><path class="cls-1" d="M52.14,241.27l-2.19-2c-2.89-2.62-5.74-5.15-8.49-7.59-12.74-11.29-24.78-22-40.06-42.26l-.19-.25-.07-.3c-2.14-9-.74-12.08,0-13.76a3.87,3.87,0,0,0,.17-.39c1.28-3.38,3.36-4.75,10.24-9.3,3.2-2.1,7.57-5,13.49-9.14h0c15.85-11.1,42.67-13.18,45.77-11.44l.82.47-.06.94c-.71,11.44-.83,16.31,1.67,34.15l.09.63-.4.5c-1.54,2-8.35,6.34-14,7.4a51.23,51.23,0,0,1-12.87.76c-1.83-.06-3.91-.12-6.49-.12a3.69,3.69,0,0,0-.88.15c1.47,1.47,2.64,2.59,3.81,3.71,1.77,1.7,3.6,3.46,6.53,6.45,7.55,7.71,6,18.75,4.43,30.44-.36,2.6-.73,5.28-1,8ZM4,187.87c15,19.9,26.89,30.43,39.47,41.57,2.07,1.83,4.19,3.72,6.35,5.65.22-1.76.45-3.49.69-5.18,1.56-11.41,2.92-21.27-3.6-27.93-2.9-3-4.72-4.7-6.47-6.38-1.29-1.25-2.58-2.49-4.29-4.19a2.44,2.44,0,0,1-.71-2.75c.71-1.7,3.3-2.09,4.15-2.09,2.63,0,4.73.06,6.58.12A49.07,49.07,0,0,0,58.38,186a29.72,29.72,0,0,0,11.8-5.88c-2.23-16-2.36-21.33-1.67-32.8-5.2-.55-28.13,1.9-41.74,11.44h0c-5.95,4.17-10.35,7.07-13.55,9.19-6.86,4.52-8.18,5.45-9.1,7.86-.06.16-.14.34-.23.55C3.33,177.58,2.18,180.14,4,187.87Z"/><path class="cls-2" d="M103.59,41.31c-2.37,1.94-2.17,1.68-3.25,3C99,46,94.11,52.76,93.66,54.85c1.72.71,15.33-14,14.5-14.66A5.23,5.23,0,0,0,103.59,41.31Z"/><path class="cls-1" d="M173.35,163.45c-.93-8-18.35-2.83-26.45-18.49-6.63-12.82-1.53-25-9.72-33.17-4.61-.76-11.42-5.78-13.71-9.48-8.33-13.46-6.35-14.56-4.66-17.18.6,1.19,3.1,11.29,8.74,17.21,1,1.08,9.39,6.55,19,4.85,15.68-2.77,19.84-18.53,15.82-38.62-2.17-10.85-11.56-17.89-17.34-24.18C142,56,152.74,74.23,140.46,80.22c-2.72,1.33-.91-23.71-14.78-34.88-9.3,2-12.88-1.9-14.05-6.13-3.29.34-11.52,2.12-29.84,34.66-12,5.59-26.18,4.58-42.51,18.15,15.86,5.52,18.64,8.77,28.76,8.38-.12.26-.24.5-.37.75-4.54,9.41-16.06,18.34-27,21.64-29.76,9-40.45,31.07-14.76,34.72,7.58-2.09,26.69-13.36,57.61-3.09,33.64,11.17,32.15,33.22,59.05,33.64C162.06,188.37,175.55,182.33,173.35,163.45Z"/><path class="cls-3" d="M124.57,36.81c2.59.69,7.25.91,10.45-2.32a13.41,13.41,0,0,0,3.72-9c-.33-8.92-9.14-21.32-17.52-15.67-.66.05-1.46,1.2-1.85,1.6-2.47.42-3.55.34-5.25,1.6-1.52,1.12-3.05,2.8-2.46,4.18.48,1.15,1.77.83,2.5,2-.59,2.28-1.58,2.8-1.52,5.29.09,3.46,1.93,5.21,4,7.88C118.07,34.19,122.1,36.15,124.57,36.81Z"/><path class="cls-1" d="M127.88,38.74a14.46,14.46,0,0,1-3.7-.48h0c-2.56-.69-7-2.77-8.68-4.89-.27-.35-.54-.68-.8-1-1.79-2.19-3.47-4.25-3.56-7.77a7.77,7.77,0,0,1,.89-3.91c.15-.32.29-.63.42-1l-.23-.11a3.34,3.34,0,0,1-1.94-1.78c-.78-1.84.29-4,3-6a8.84,8.84,0,0,1,4.64-1.68l.73-.1a4.69,4.69,0,0,1,2-1.62,9,9,0,0,1,9.38-.4c5.39,2.74,10,10.55,10.23,17.43a14.86,14.86,0,0,1-4.16,10.07A11.32,11.32,0,0,1,127.88,38.74ZM125,35.36c.94.25,5.76,1.34,9-1.92a11.91,11.91,0,0,0,3.29-7.85c-.21-5.8-4.15-12.61-8.59-14.87a6.12,6.12,0,0,0-6.59.38l-.33.22-.21,0a6,6,0,0,0-.69.73c-.15.17-.28.33-.39.44l-.34.35-.48.08-1.31.2a6,6,0,0,0-3.3,1.12c-1.62,1.2-2.06,2.19-2,2.4a2.17,2.17,0,0,0,.41.21,4.06,4.06,0,0,1,2,1.62l.34.54-.17.62a13.77,13.77,0,0,1-.85,2.29,4.84,4.84,0,0,0-.62,2.58c.06,2.5,1.18,3.87,2.88,5.95l.84,1c1.1,1.4,4.72,3.22,7.1,3.86Z"/><path class="cls-1" d="M121.22,9.86c1.5-.88,2.42-1.25,5.37-.35-1.1,2.88-.23,4.48.77,5.69,1.2,1.45,1.63,2.77,6.94,5.36.08,5,2,6.68,3.21,7.59,2.37,1.72,1.8,1.46,3.16-.39,1.83-2.5.62-6.33,2.62-10.15,2.31,1.19,3.24,5.23,7.2-3.22a2.3,2.3,0,0,0,2.31.65,3.45,3.45,0,0,0,2.83-2.83c.89.82,1.59,1.07,2.31.77.89-.36,1.3-1.09,1.29-2.7a2,2,0,0,0,2.7.9c.77-.33,1.07-1.12,1.16-2.31a4.35,4.35,0,0,0,2.82.5c.9,0,2.31-1.77,1.88-2.86s-1.88-2.2-2.83-2a2.48,2.48,0,0,0-1.66,1A1.56,1.56,0,0,0,162,3.64a1.89,1.89,0,0,0-2,1.43c-.72-1.06-.79-3-2.6-3.27-1-.14-2.69,1.84-3.21,3.08C153.71,4,153.71,0,149.59,0c-1.81,0-2.56,1.25-5,4.11a10.81,10.81,0,0,0-7.38-1.45c-2.17.41-2.82.54-4.44,3.25-3.72-.24-3.72-.24-6.82.52S121,9.3,121.22,9.86Z"/><path class="cls-2" d="M139.81,38.72l-6.68-.79a2.16,2.16,0,0,1-1.77-2.5l2.85-20.66a2,2,0,0,1,2.47-1.8l6.18,1.67a2.19,2.19,0,0,1,1.5,2.4L142,36.83A2,2,0,0,1,139.81,38.72Z"/><path class="cls-1" d="M32.08,122.64c-.29,0-.59,0-.88,0a9,9,0,0,1-6.49-3c-1.39-1.74-1.82-4.07-1.28-6.91,1.42-7.56,9.73-17.81,15.67-21.26l1.53-.89.63,1.66c1.15,3.06,1.64,4.64.39,7.23a54.73,54.73,0,0,0-3,8.58c-1.18,3.86-.33,5.79.36,7.34.59,1.36,1.41,3.21-.61,5.11A9.22,9.22,0,0,1,32.08,122.64Zm7-27.59c-5.12,3.81-11.59,12.3-12.7,18.2a5.45,5.45,0,0,0,.67,4.49,6.19,6.19,0,0,0,4.36,1.88,6.73,6.73,0,0,0,4.91-1.33c.48-.45.48-.45-.08-1.72-.79-1.79-2-4.5-.48-9.43a56.52,56.52,0,0,1,3.19-9A3.4,3.4,0,0,0,39.08,95.05Z"/><path class="cls-3" d="M144.18,43.93c-1.69-.12-7.8-6.24-8.62-13.64-.31-2.76-1-8.94,2.8-11.49,2.23-1.51,5.9-1.66,7.24,0,1.6,2-1.71,4.52-1.93,11.68-.08,2.54.37,3,0,7.22C143.4,40.79,143.3,42.07,144.18,43.93Z"/><path class="cls-1" d="M146.63,45.6l-2.56-.18c-2.76-.19-9.15-7.24-10-15-.32-2.95-1.09-9.85,3.46-12.91,2.75-1.85,7.28-2.11,9.24.3,1.34,1.64.68,3.43,0,5.32a21.43,21.43,0,0,0-1.57,7.36,18.3,18.3,0,0,0,.06,2.17,27.86,27.86,0,0,1-.07,5.13c-.27,3.06-.31,4,.38,5.46Zm-4.21-26.48a6.05,6.05,0,0,0-3.23.92c-3,2.05-2.41,7.68-2.14,10.08A19.53,19.53,0,0,0,142,40.45c0-.84.09-1.77.19-2.88a25.58,25.58,0,0,0,.07-4.66,22.49,22.49,0,0,1-.07-2.47,24.4,24.4,0,0,1,1.76-8.31c.54-1.47.74-2.1.5-2.39A2.69,2.69,0,0,0,142.42,19.12Z"/><path class="cls-1" d="M56.22,282.71C62.3,260.47,65,252,65.42,236c-5,2.16-10.31,5.5-14.46,2.16.27,6.4-.78,8.57-2.83,15.6-1.28,4.38-8,8.23-8.36,13.08C39.24,274.31,49.2,284.08,56.22,282.71Z"/><path class="cls-1" d="M72.65,301.77c22.36-5.63,33.32-8.83,47.48-16.31-4.35-3.33-10.57-6.57-11.92-11.94-5.44,3.39-7.19,5.31-14.33,7-4.43,1-11.1-2.94-15.5-.86C71.63,282.85,68,296.33,72.65,301.77Z"/><path class="cls-2" d="M131.16,48.24a4.71,4.71,0,0,0-2.93-3.07C123.9,46,117,49.61,113.76,55c-7.59,12.64-1.86,25.85,3.56,34,.8,1,2.29,1.69,3.24.73-3.11-10.16-7.31-12.66-5.42-22.25,1.79-9.08,8.46-14.29,14.28-18.13a24.6,24.6,0,0,1,2,2.51A13.54,13.54,0,0,0,131.16,48.24Z"/></g></g></svg>