<svg xmlns="http://www.w3.org/2000/svg" viewBox="0 0 222.29 270.05"><defs><style>.cls-1{fill:#077594;}.cls-2{fill:#fff;}</style></defs><g id="Layer_2" data-name="Layer 2"><g id="Layer_1-2" data-name="Layer 1"><path class="cls-1" d="M39.45,229c8.35-6.31,21.57-13.79,37.9-39.35,16-25,18.05-37.88,23.56-52.13,3.4,3.38,7.91,6.47,12.36,4.51,5.86-2.57,6.06-3.24,8.39-10.71,11.34-2.34,19.09-3.76,26.63-10.63,10.1-9.21,25.74-6,31.49-13.67,19.3-25.74,25.56-46.65,31.51-59.57,3.4,6.58,13.52,47.47-10.59,73.29-10.7,11.46-20.27,10.67-27.38,23.85-7.93,14.71-.84,31.17,2.6,45.93,9,38.48,31.5,42.19,18.59,60.91-9.76,14.17-37.15,17.5-58.28,18.54-11,.55-53.06-1.53-58.26-16.43-3.14-9,1.54-15.85,15.34-37,11-16.79,11.59-32.72,9.37-36.64-1.13-2-1,18.37-14.65,32.72C70.34,231.22,52.4,231.34,39.45,229Z"/><path class="cls-2" d="M96.85,125.39c-2.07,1.48-4.17,3.45-9.5.76-2.82-1.42-4.91-3.56-5.24-5.12-1-4.51.93-7.68,8.79-4.26,1.31.57,1.16-2.54.8-3.27-3-6-2.69-7.73-2.4-13.06.42-7.63,11.34-14.66,15.67-12.62,1.84.86,2.55,2.05,4.14,3.91,3,1.16,6-1.78,8.84,2.17,4.75,6.59,0,8.14-1.48,8.46a13.43,13.43,0,0,1,2.51,9.42c-.52,6.76-2.45,10.88-7,13.21C108.52,126.79,102.11,127.48,96.85,125.39Z"/><path class="cls-1" d="M92,129a11.92,11.92,0,0,1-5.35-1.49c-3.16-1.6-5.58-4.07-6-6.15-.8-3.71.34-5.55,1.43-6.45,1.78-1.45,4.52-1.43,8.38.07a3.35,3.35,0,0,0-.11-.84c-3-6-2.85-8.19-2.58-13l0-.76c.29-5.35,4.86-9.92,8.69-12.21,3.5-2.1,6.9-2.73,9.11-1.69a10.36,10.36,0,0,1,3.83,3.33l.53.65a6.69,6.69,0,0,0,2.31,0c1.94-.24,4.58-.57,6.88,2.62,2.13,3,2.81,5.47,2,7.49a5,5,0,0,1-2.46,2.63,15,15,0,0,1,1.74,8.76c-.59,7.6-2.92,11.92-7.78,14.42-3.63,1.87-10,2.68-15.62.75A8.23,8.23,0,0,1,92,129Zm-6.57-12.15a2.33,2.33,0,0,0-1.48.38c-.62.51-.77,1.79-.4,3.5.18.84,1.72,2.72,4.45,4.1,4.18,2.11,5.74,1,7.56-.35l1.07-.77.76.31a18.59,18.59,0,0,0,13.92-.34c3.87-2,5.65-5.47,6.16-12a11.9,11.9,0,0,0-2.24-8.43l-1.34-1.86,2.24-.48c.55-.12,1.88-.51,2.25-1.47s-.22-2.64-1.67-4.65c-1.27-1.75-2.32-1.62-4.07-1.4a8.07,8.07,0,0,1-4.09-.25l-.36-.13-.24-.29-.85-1a7.55,7.55,0,0,0-2.79-2.51c-1-.49-3.38-.2-6.29,1.54-3.45,2.06-7,5.89-7.24,9.8l0,.77c-.26,4.65-.35,6.22,2.28,11.54.42.85.81,3.62-.39,4.88a2,2,0,0,1-2.35.43A12.83,12.83,0,0,0,85.45,116.83Z"/><path class="cls-2" d="M211.29,47.45c-15.46-5.34-11.81-16.31-12.66-22.11-1.13-7.65-2.9-21.73,2.11-23.61a4.4,4.4,0,0,1,4.11.72c2.8,2.34-.35,7.23.72,12.57,7.62,1.46,13.53,5.44,15,12.88C221.93,34.93,216.92,42.46,211.29,47.45Z"/><path class="cls-1" d="M211.63,49.16l-.83-.29c-13.52-4.67-13.52-13.73-13.51-19.72a26.29,26.29,0,0,0-.15-3.6c-1.66-11.28-2.6-23.09,3.07-25.23a5.91,5.91,0,0,1,5.6,1C208,3.16,207.62,6,207.22,8.71a19.79,19.79,0,0,0-.32,5.06c8.5,1.91,13.72,6.68,15.13,13.84,1.91,9.74-7,18.51-9.74,21ZM202.08,3a2.33,2.33,0,0,0-.81.13c-1.56.59-3.78,4.22-1.16,22a28.45,28.45,0,0,1,.18,4c0,5.9,0,12.57,10.66,16.59,4.84-4.53,9.35-11.34,8.13-17.55-1.52-7.77-8.34-10.65-13.79-11.69l-1-.19-.2-1a20.07,20.07,0,0,1,.15-7c.37-2.48.53-3.92-.36-4.66A3,3,0,0,0,202.08,3Z"/><path class="cls-2" d="M39.45,229c-4.62-3.18-13.51-8.59-22-7.46-9.65,1.27-17.23,10.77-15.72,14,.64,1.37,3.1,5.89,14,1.93,7.13-2.58,10.53-1,13.53-2C32.44,234.42,38.68,233.16,39.45,229Z"/><path class="cls-1" d="M8.17,240.57c-4.87,0-7-2.49-7.84-4.38-.63-1.36-.36-3.2.8-5.31a23.11,23.11,0,0,1,16.08-10.83c6.61-.87,14.38,1.72,23.09,7.71l.8.55-.18,1c-.83,4.48-6.2,6.11-9.75,7.19l-1.45.45a13.22,13.22,0,0,1-4.31.48,24.16,24.16,0,0,0-9.19,1.51A23.88,23.88,0,0,1,8.17,240.57Zm11.61-17.68a15.66,15.66,0,0,0-2.18.14,20.17,20.17,0,0,0-13.84,9.29c-.82,1.5-.82,2.36-.71,2.61,1.84,3.93,7.62,2.8,12.15,1.15a27.08,27.08,0,0,1,10.21-1.69,11.06,11.06,0,0,0,3.35-.32l1.54-.48c2.68-.81,6.23-1.89,7.36-4C30.94,225.14,24.94,222.89,19.78,222.89Z"/><path class="cls-1" d="M105,87.82c-2.57-1.59-7.42-3.64-8.45-9-.75-3.94,3.73-11.09,1.51-15.56-2.66-5.33-12.73,2-14,7.22-1.12,4.53,2.7,6.43,3.69,9.28.85,2.45-7.72-.83-14.62-.05-13.25,1.49-25.29,15-20.64,21.43,7,9.72,16.86-6.74,19.21-3.83,1.83,2.25-6.9,9.47-5.94,18.28.78,7.13,6.48,11.93,8.89,11.38,5.46-1.25,2.3-12.93,3.53-12.88,3,.14,2.63,7.09,4,6.94-.24-.94-.24-3.84.75-4.84,2.43-2.43,7.44,1.81,8.8.36,1.9-2-3.79-10.24-2.36-16.11C91.19,92.71,98.47,88.19,105,87.82Z"/><circle class="cls-1" cx="100.43" cy="111.78" r="1.68"/><circle class="cls-1" cx="107.48" cy="110.1" r="1.68"/><circle class="cls-1" cx="105.26" cy="117.2" r="1.68"/><path class="cls-1" d="M107.72,148.77a16.93,16.93,0,0,1-7.48-1.31l-.89-.47.1-1c.88-8.75.6-14.22-.94-18.3l2.81-1.06c1.64,4.36,2,9.95,1.22,18.56,5.42,1.77,19.19-.57,24.57-3.75,1.39-.82,1.68-1.4,1.69-1.51h0a.64.64,0,0,0-.06-.11c-1.41-2.07-3.22-3.06-5.31-4.22-3.65-2-7.79-4.28-9.63-12.73l2.93-.64c1.55,7.11,4.75,8.88,8.14,10.75,2.23,1.22,4.54,2.49,6.35,5.16a3.25,3.25,0,0,1-.46,4.22C127.74,145.73,116.22,148.77,107.72,148.77Z"/></g></g></svg>