<svg xmlns="http://www.w3.org/2000/svg" viewBox="0 0 154.47 311.87"><defs><style>.cls-1{fill:#077594;}.cls-2{fill:#fff;}.cls-3{fill:#e05e48;}</style></defs><g id="Layer_2" data-name="Layer 2"><g id="Layer_1-2" data-name="Layer 1"><path class="cls-1" d="M76,56.33c.78-3.4-6.7-9.13-14.34-11.07C51.45,42.67,38.06,46,30.67,55.68c-11.61,15.18-5.23,44.75,7.6,52.74,2.87,1.79,8.38,7.32,16.17,8.37,35.66,4.76,42.34-13.13,51.82-6.37,8.88,6.33,4,13.87,20.2,35.83,2.78,3.79,7.52,9.82,15.31,11.73,5.06,1.24,11.57.79,12.7-1.95-2.19-4.94-5.88-6.38-5.86-13.36,0-4.9.65-3.39,2.61-9.45-1.38-4.33-9.28-2.51-16.29-6.52-10.49-6-5.49-17.29-16-27.69C110.12,90.23,96.9,88.7,90.29,87.94c-14-1.63-19.42,2.65-24.76-2-6-5.21-6.9-17.39-2-23.13C67.93,57.8,75.23,59.52,76,56.33Z"/><path class="cls-1" d="M71.42,121.7c-5,0-11.33-2.51-13.84-5.56l-.54-.66.29-.8A32.1,32.1,0,0,0,59,99.76q-.09-1.23-.15-2.4l3-.14c0,.76.09,1.53.15,2.32a34.84,34.84,0,0,1-1.58,15.29c3.37,3.21,11.1,4.78,14,3.31.71-.36.76-.73.63-1.28-.34-1.32-.7-2.49-1-3.62-1.58-5.1-2.84-9.13,1-19.94l2.83,1c-3.5,9.86-2.43,13.29-1,18,.36,1.17.72,2.38,1.09,3.78,2.08,8.07-.29,3.73-2.19,4.69A9.91,9.91,0,0,1,71.42,121.7Z"/><path class="cls-1" d="M74.72,95.62c-3.22,0-7.27-2-10.19-4.19-5.48-4.18-8.19-9.59-7.44-14.85,2.77-19.41,14.19-20.91,17.62-20.91h.8l.45.66c.42.64.72,1.14,1,1.55A3,3,0,0,0,79,59.61a28.11,28.11,0,0,0,5.69-.24c2.1-.26,3.75-.46,5.73.93a5.73,5.73,0,0,1,2.37,5.8c-.5,3.55-2.93,5.92-5.51,8.42-.88.86-1.78,1.74-2.63,2.69,2,9.83-3.52,16.22-7.58,18A5.86,5.86,0,0,1,74.72,95.62Zm-.81-36.93C63.4,59.34,60.66,72.81,60.06,77c-.84,5.89,4.12,10.38,6.29,12,3.87,3,8,4.06,9.51,3.38h0c3.27-1.41,7.7-6.81,5.68-15.29l-.18-.74.49-.58c1.09-1.28,2.23-2.38,3.32-3.45,2.29-2.23,4.27-4.16,4.63-6.69a2.8,2.8,0,0,0-1.12-2.92c-1-.7-1.67-.65-3.64-.41a31.75,31.75,0,0,1-6.5.24l-.25,0-.22-.09c-2.38-1-2.82-1.55-3.72-3.07Z"/><path class="cls-2" d="M95.41,115c-1.37-7.15-3-19.52-12.26-20.16a10.62,10.62,0,0,0-8.33,3.27c-4.7,5.08-2.9,14.8-.33,15,5,.44,3.47-3.88,6.33-3.45,2.43.36,2.35,1.7,4.63,4.42C86.35,115.16,92.33,115.69,95.41,115Z"/><path class="cls-1" d="M84.3,115a25.41,25.41,0,0,1-1.68-2.28c-.83-1.22-1-1.48-2-1.63-.13,0-.2,0-.2,0a3.45,3.45,0,0,0-.43.65c-.69,1.19-1.85,3.17-5.61,2.83-.92-.08-2.2-.67-3.11-3-1.33-3.47-1.45-10.26,2.47-14.5a12.15,12.15,0,0,1,9.53-3.75c9.8.68,11.93,12.22,13.35,19.86.09.53.19,1,.28,1.52l.27,1.41-1.4.33a18.62,18.62,0,0,1-4,.37C88.75,116.79,85.33,116.28,84.3,115Zm9.34-1.34c-1.31-7.12-3.12-16.89-10.6-17.41a9.08,9.08,0,0,0-7.12,2.8c-2.4,2.59-2.78,6.68-2.37,9.39a5.75,5.75,0,0,0,1.16,3.13c1.79.14,2.12-.43,2.67-1.36A3.41,3.41,0,0,1,81,108.16c2.33.35,3.13,1.55,4.06,2.93a23.54,23.54,0,0,0,1.44,2c.76.46,4.35.94,7.11.67Z"/><path class="cls-3" d="M35.44,25.11c-2.43-3.33-2.9-6.15,0-9.94l1.28-1.61a4.13,4.13,0,0,0,.49-4.67c-1.31-2.26-3.6-2.59-5.77-1.33a4.55,4.55,0,0,0-1.63,6.31L24.2,17.14c-3.67-6.31-1.49-12.21,4-15.37S39.67-.3,42.88,5.23a10.31,10.31,0,0,1-1.15,12.34c-1.41,1.62-2.38,2.8-1.28,4.69l.46.91L36,26Zm3.41,9.06a4.27,4.27,0,0,1,1.69-5.91,4.33,4.33,0,0,1,6.06,1.41,4.37,4.37,0,0,1-1.75,6A4.33,4.33,0,0,1,38.85,34.17Z"/><path class="cls-1" d="M40.4,130.14C29.26,159.88,9.23,170.78,2,205.07c-5.47,25.76-.74,68.05,30.84,91.22,34.73,25.48,88.09,17.68,109.47-8.68,22.87-28.21,3.91-71.23-30-148.13,0,0-7.17-17.78-15.41-24.8-.64,4.15,3.3,21.4,5.53,31.64,1.62,7.49.24,32.81-12.55,22.16C76.14,157.07,83.53,123,78.08,118c-7,2.38-13.36,5.58-21-2.56C51,117.8,41.33,127.63,40.4,130.14Z"/><path class="cls-2" d="M73.91,58.68C63.41,59.33,60.66,72.79,60.06,77c-.84,5.89,4.12,10.39,6.29,12,3.87,3,8,4.06,9.51,3.38h0c3.27-1.41,7.7-6.81,5.68-15.28l-.17-.74.49-.58c1.09-1.28,2.22-2.38,3.31-3.45,2.3-2.23,4.28-4.16,4.63-6.69a2.8,2.8,0,0,0-1.12-2.93c-1-.69-1.66-.65-3.64-.41a31,31,0,0,1-6.5.24H78.3l-.23-.09c-2.38-1-2.81-1.55-3.72-3.07Z"/></g></g></svg>