<svg xmlns="http://www.w3.org/2000/svg" xmlns:xlink="http://www.w3.org/1999/xlink" viewBox="0 0 560.49 603.79"><defs><style>.cls-1{fill:none;}.cls-2{fill:#f6f6f6;}.cls-3{clip-path:url(#clip-path);}.cls-4{opacity:0.28;}.cls-5{fill:#ffd275;}.cls-6{fill:#fff;}.cls-7{fill:#077594;}.cls-8{fill:#e05e48;}</style><clipPath id="clip-path" transform="translate(189.27 35.6)"><circle class="cls-1" cx="164.9" cy="164.9" r="164.9"/></clipPath></defs><g id="Layer_2" data-name="Layer 2"><g id="Layer_1-2" data-name="Layer 1"><circle class="cls-2" cx="354.17" cy="200.5" r="164.9"/><g class="cls-3"><g class="cls-4"><rect class="cls-5" x="0.04" y="156.17" width="88.06" height="3.86" transform="translate(102.79 94.24) rotate(-37.12)"/><rect class="cls-5" x="78.98" y="97.44" width="88.06" height="3.86" transform="translate(154.23 129.99) rotate(-37.13)"/><rect class="cls-5" x="161.86" y="49.76" width="49.62" height="3.86" transform="translate(195.91 158.75) rotate(-37.13)"/><rect class="cls-5" x="133.19" y="52.24" width="37.5" height="3.86" transform="translate(187.37 138.29) rotate(-37.13)"/><rect class="cls-5" x="50.73" y="93.37" width="85.48" height="3.86" transform="translate(150.79 110.75) rotate(-36.87)"/><rect class="cls-5" x="204.31" y="2.86" width="85.48" height="3.86" transform="translate(235.8 184.78) rotate(-36.87)"/><rect class="cls-5" x="163.71" y="11.5" width="85.48" height="3.86" transform="translate(222.5 162.15) rotate(-36.87)"/><rect class="cls-5" x="14.35" y="135.99" width="39.93" height="3.86" transform="translate(113.38 83.78) rotate(-36.87)"/><rect class="cls-5" x="-9.84" y="108.57" width="88.06" height="3.86" transform="translate(131.13 76.44) rotate(-35.77)"/><rect class="cls-5" x="70.46" y="51.72" width="88.06" height="3.86" transform="translate(179.51 112.63) rotate(-35.76)"/><rect class="cls-5" x="154.45" y="5.55" width="49.62" height="3.86" transform="translate(218.72 141.8) rotate(-35.77)"/><rect class="cls-5" x="125.73" y="7.21" width="37.5" height="3.86" transform="translate(211.18 121.78) rotate(-35.77)"/><rect class="cls-5" x="42.31" y="46.95" width="85.48" height="3.86" transform="translate(176.7 94.1) rotate(-35.51)"/><rect class="cls-5" x="53.5" y="17.23" width="85.48" height="3.86" transform="translate(196.04 95.08) rotate(-35.51)"/><rect class="cls-5" x="-26.02" y="76.01" width="85.48" height="3.86" transform="translate(147.11 59.81) rotate(-35.51)"/><rect class="cls-5" x="4.94" y="88.17" width="39.93" height="3.86" transform="translate(141.57 66.83) rotate(-35.51)"/><rect class="cls-5" x="-16.92" y="278.09" width="88.06" height="3.86" transform="translate(19.46 114.71) rotate(-38.89)"/><rect class="cls-5" x="60.16" y="216.95" width="88.06" height="3.86" transform="translate(74.94 149.55) rotate(-38.89)"/><rect class="cls-5" x="141.54" y="167.31" width="49.62" height="3.86" transform="translate(119.88 177.57) rotate(-38.89)"/><rect class="cls-5" x="112.96" y="170.87" width="37.5" height="3.86" transform="translate(109.97 156.61) rotate(-38.89)"/><rect class="cls-5" x="31.8" y="213.79" width="85.48" height="3.86" transform="translate(70.89 129.36) rotate(-38.64)"/><rect class="cls-5" x="182.5" y="118.57" width="85.48" height="3.86" transform="translate(163.33 202.57) rotate(-38.62)"/><rect class="cls-5" x="142.19" y="128.46" width="85.48" height="3.86" transform="translate(148.33 179.57) rotate(-38.62)"/><rect class="cls-5" x="-3.24" y="258.22" width="39.93" height="3.86" transform="translate(30.54 102.95) rotate(-38.62)"/><rect class="cls-5" x="-28.27" y="230.82" width="88.06" height="3.86" transform="translate(50.71 93.4) rotate(-37.54)"/><rect class="cls-5" x="50.23" y="171.51" width="88.06" height="3.86" transform="translate(103.11 128.97) rotate(-37.54)"/><rect class="cls-5" x="132.76" y="123.36" width="49.62" height="3.86" transform="translate(145.56 157.57) rotate(-37.54)"/><rect class="cls-5" x="104.1" y="126.1" width="37.5" height="3.86" transform="translate(136.7 136.98) rotate(-37.54)"/><rect class="cls-5" x="21.95" y="167.66" width="85.48" height="3.86" transform="translate(99.76 109.45) rotate(-37.29)"/><rect class="cls-5" x="174.86" y="76.01" width="85.48" height="3.86" transform="translate(186.53 183.36) rotate(-37.29)"/><rect class="cls-5" x="134.32" y="84.96" width="85.48" height="3.86" transform="translate(172.83 160.63) rotate(-37.29)"/><rect class="cls-5" x="-14.12" y="210.71" width="39.93" height="3.86" transform="translate(61.65 82.6) rotate(-37.29)"/><rect class="cls-5" x="57.96" y="327.86" width="88.06" height="3.86" transform="translate(1.18 178.27) rotate(-39.99)"/><rect class="cls-5" x="133.86" y="265.25" width="88.06" height="3.86" transform="translate(59.16 212.41) rotate(-39.99)"/><rect class="cls-5" x="214.27" y="214.44" width="49.62" height="3.86" transform="translate(106.13 239.85) rotate(-39.99)"/><rect class="cls-5" x="185.76" y="218.65" width="37.5" height="3.86" transform="translate(95.34 218.63) rotate(-39.99)"/><rect class="cls-5" x="105.43" y="262.66" width="85.48" height="3.86" transform="matrix(0.77, -0.64, 0.64, 0.77, 54.39, 191.38)"/><rect class="cls-5" x="254.29" y="164.57" width="85.48" height="3.86" transform="translate(151.44 263.87) rotate(-39.72)"/><rect class="cls-5" x="214.18" y="175.24" width="85.48" height="3.86" transform="translate(135.37 240.76) rotate(-39.73)"/><rect class="cls-5" x="71.26" y="308.19" width="39.93" height="3.86" transform="translate(12.14 165.49) rotate(-39.72)"/><rect class="cls-5" x="45.7" y="280.81" width="88.06" height="3.86" transform="translate(32.36 153.53) rotate(-38.64)"/><rect class="cls-5" x="123.06" y="220.01" width="88.06" height="3.86" transform="translate(87.26 188.53) rotate(-38.64)"/><rect class="cls-5" x="204.65" y="170.65" width="49.62" height="3.86" transform="translate(131.74 216.68) rotate(-38.64)"/><rect class="cls-5" x="176.05" y="174.06" width="37.5" height="3.86" transform="translate(122.03 195.78) rotate(-38.64)"/><rect class="cls-5" x="94.7" y="216.72" width="85.48" height="3.86" transform="translate(83.21 168.22) rotate(-38.39)"/><rect class="cls-5" x="245.83" y="122.17" width="85.48" height="3.86" transform="translate(174.58 241.61) rotate(-38.38)"/><rect class="cls-5" x="205.48" y="131.89" width="85.48" height="3.86" transform="translate(159.83 218.65) rotate(-38.38)"/><rect class="cls-5" x="59.47" y="260.89" width="39.93" height="3.86" transform="translate(43.25 141.73) rotate(-38.38)"/><rect class="cls-5" x="253.01" y="292.1" width="88.06" height="3.86" transform="translate(68.67 313.52) rotate(-42.5)"/><rect class="cls-5" x="181.22" y="359.59" width="88.06" height="3.86" transform="translate(4.21 282.74) rotate(-42.5)"/><rect class="cls-5" x="217.73" y="315.71" width="49.62" height="3.86" transform="translate(38.4 282.9) rotate(-42.5)"/><rect class="cls-5" x="189.45" y="321.44" width="37.5" height="3.86" transform="translate(25.49 261.26) rotate(-42.51)"/><rect class="cls-5" x="295.54" y="277.31" width="85.48" height="3.86" transform="matrix(0.74, -0.67, 0.67, 0.74, 89.4, 335.54)"/><rect class="cls-5" x="255.52" y="263.36" width="85.48" height="3.86" transform="translate(88.38 305.03) rotate(-42.25)"/><rect class="cls-5" x="215.91" y="275.77" width="85.48" height="3.86" transform="translate(69.75 281.62) rotate(-42.25)"/><rect class="cls-5" x="292.53" y="322.45" width="39.93" height="3.86" transform="translate(52.36 329.95) rotate(-42.25)"/><rect class="cls-5" x="-9.72" y="37.14" width="88.06" height="3.86" transform="translate(173.14 62.07) rotate(-34.68)"/><rect class="cls-5" x="126.83" y="324.43" width="88.06" height="3.86" transform="translate(16.72 228.64) rotate(-41.15)"/><rect class="cls-5" x="206.21" y="272.4" width="49.62" height="3.86" transform="translate(65.82 255.37) rotate(-41.15)"/><rect class="cls-5" x="177.8" y="277.31" width="37.5" height="3.86" transform="translate(54.07 233.93) rotate(-41.15)"/><rect class="cls-5" x="98.37" y="322.45" width="85.48" height="3.86" transform="translate(11.36 207.14) rotate(-40.89)"/><rect class="cls-5" x="245.21" y="221.37" width="85.48" height="3.86" transform="translate(113.37 278.64) rotate(-40.9)"/><rect class="cls-5" x="205.32" y="232.84" width="85.48" height="3.86" transform="translate(96.12 255.33) rotate(-40.9)"/><rect class="cls-5" x="267.99" y="324.43" width="39.93" height="3.86" transform="translate(45.9 303.75) rotate(-40.89)"/><rect class="cls-5" x="258.89" y="30.39" width="37.5" height="3.86" transform="translate(226.04 209.73) rotate(-37.13)"/><rect class="cls-5" x="289.42" y="-10.35" width="85.48" height="3.86" transform="translate(260.76 233.22) rotate(-36.87)"/><rect class="cls-5" x="284.16" y="89.72" width="37.5" height="3.86" transform="translate(195.35 237) rotate(-37.13)"/><rect class="cls-5" x="255.22" y="62.07" width="85.48" height="3.86" transform="translate(210.47 227.18) rotate(-36.87)"/><rect class="cls-5" x="288.13" y="210.71" width="88.06" height="3.86" transform="translate(131.4 306.72) rotate(-41.15)"/><rect class="cls-5" x="284.16" y="187.1" width="37.5" height="3.86" transform="translate(139.71 281.63) rotate(-41.15)"/><rect class="cls-5" x="287.16" y="114.67" width="85.48" height="3.86" transform="translate(190.92 273.35) rotate(-39.72)"/><rect class="cls-5" x="219.95" y="66.39" width="85.48" height="3.86" transform="matrix(0.77, -0.64, 0.64, 0.77, 206.28, 219.31)"/><rect class="cls-5" x="214.18" y="22.12" width="85.48" height="3.86" transform="translate(227.21 196.17) rotate(-37.29)"/><rect class="cls-5" x="-22.3" y="308.19" width="88.06" height="3.86" transform="translate(4.79 113.08) rotate(-37.54)"/><rect class="cls-5" x="-28.27" y="342.53" width="88.06" height="3.86" transform="translate(-17.37 116.55) rotate(-37.54)"/><rect class="cls-5" x="-11.71" y="353.4" width="88.06" height="3.86" transform="translate(-20.57 128.9) rotate(-37.54)"/><rect class="cls-5" x="-16.85" y="15.23" width="88.06" height="3.86" transform="translate(184.44 55.72) rotate(-37.54)"/></g><path class="cls-6" d="M87.39,289.42a21.47,21.47,0,0,0-2.51.14c-19.62,2.24-35,33.81-44.44,91.3C33.76,421.5,31.79,466,31.76,485.69c2.32-2.18,4.58-5.37,7.47-9.44,7-9.82,17.51-24.66,41.26-41.8L82.56,433c7.58-5.39,16.17-11.5,20.78-23,5.9-14.66,10-36.59,10.08-36.81l.89-4.77,3.82,3c3.44,2.69,3.4,8.65,3.33,16.91-.08,9.38-.18,21.06,4.93,29.7,8.55,14.46,26.11,25.74,43.71,28.06,26.59,3.52,52.11-14.83,65.93-31.59,11.76-14.27,17.33-29.56,14.18-38.95-2.23-6.65-8.91-10.31-23.82-18-11.06-5.68-19.34-10.73-26.64-15.2-10.4-6.35-17.92-10.94-27.08-13.33-27.32-7.12-44.15-18.26-57.68-27.2C104.25,294.73,96.22,289.42,87.39,289.42Z" transform="translate(189.27 35.6)"/><path class="cls-6" d="M14,267.92c-1,0-1.95,0-2.92.08-47,2.63-62.66,64-76.49,118.1-4.19,16.41-8.2,32.11-12.88,45.32,3.11-2.19,6.71-4.61,10.7-7.27,20.78-13.93,52.19-35,63.93-61.32a176,176,0,0,0,9-25.58c2.27-8.05,3.77-13.37,9.27-13.61a3.7,3.7,0,0,1,3,1.23c1.54,1.74,1.15,4.14.43,8.48-1.27,7.7-3.63,22,5.21,36.37,5.55,9,8.44,11.7,10.71,12.57,6.76-36.44,14.61-64.28,31.52-88.73C56.63,279.12,34.07,267.92,14,267.92Z" transform="translate(189.27 35.6)"/><path class="cls-7" d="M26.66,495.48l-.1-4.26c-.27-10.71.44-61,8.7-111.28,10.07-61.23,26.76-93.6,49.59-96.2,12-1.36,21.72,5.07,34,13.21,13.16,8.71,29.54,19.55,55.91,26.42,10,2.61,18.24,7.64,28.67,14,7.22,4.41,15.39,9.4,26.26,15,14.74,7.57,23.63,12.14,26.71,21.34,3.84,11.44-2,28.52-15.22,44.57C226.44,436.2,198.89,455.76,170,452c-19.29-2.55-38.59-15-48-30.91-5.48-9.27-5.82-20.69-5.78-30.34a177.4,177.4,0,0,1-6.73,21.52c-5.26,13.06-15,20-22.83,25.57l-2.05,1.46c-22.95,16.57-33.15,30.93-39.9,40.43-4.91,6.92-8.45,11.91-14.06,14.19ZM88,289.45a23.75,23.75,0,0,0-2.51.14c-19.62,2.24-35,33.81-44.44,91.31C34.4,421.53,32.42,466,32.4,485.73c2.31-2.19,4.57-5.37,7.47-9.45,7-9.82,17.51-24.66,41.25-41.8L83.2,433c7.58-5.4,16.17-11.51,20.78-23,5.9-14.65,10-36.59,10.08-36.81l.89-4.77,3.82,3c3.44,2.69,3.39,8.66,3.32,16.91-.07,9.38-.17,21.06,4.94,29.71,8.55,14.46,26.11,25.73,43.71,28.05,26.58,3.52,52.11-14.82,65.92-31.58,11.77-14.28,17.33-29.57,14.19-39-2.23-6.64-8.91-10.31-23.83-18-11.05-5.68-19.33-10.73-26.63-15.19-10.41-6.36-17.92-11-27.08-13.34-27.33-7.12-44.16-18.25-57.68-27.2C104.88,294.76,96.86,289.45,88,289.45Z" transform="translate(189.27 35.6)"/><path class="cls-7" d="M-93.73,453.05l6-13.76c6.31-14.49,11.29-34,16.56-54.64C-56.84,328.56-40.61,265,10.7,262.11c20.92-1.16,50.08,10.06,60.82,30.23l.86,1.61-1.06,1.48C53.85,320,46.07,348.38,39.19,386.22l-.47,2.59-2.63-.18c-6-.41-9.82-2.7-17.9-15.82-8.33-13.52-7.91-26.7-6.73-35.61-.16.54-.32,1.09-.47,1.65a180,180,0,0,1-9.31,26.38C-10.76,393.13-43,414.74-64.37,429c-8.1,5.43-15.09,10.11-18.61,13.54ZM14,267.92c-1,0-1.95,0-2.92.08-47,2.63-62.66,64-76.49,118.1-4.19,16.41-8.2,32.11-12.88,45.32,3.11-2.19,6.71-4.61,10.7-7.27,20.78-13.93,52.19-35,63.93-61.32a176,176,0,0,0,9-25.58c2.27-8.05,3.77-13.37,9.27-13.61a3.7,3.7,0,0,1,3,1.23c1.54,1.74,1.15,4.14.43,8.48-1.27,7.7-3.63,22,5.21,36.37,5.55,9,8.44,11.7,10.71,12.57,6.76-36.44,14.61-64.28,31.52-88.73C56.63,279.12,34.07,267.92,14,267.92Z" transform="translate(189.27 35.6)"/><path class="cls-7" d="M149.85,133.37c-14.94,17.07-28.47,27.65-57.59,65.32-16.05,20.75-13.83,62.22-30.86,65.63-2.22.44-6.23,2.78-11.57,3.49,4.7,4.64,16.34,2.42,18.83,8.12,2.33,5.34-2,4.08-6.81,12.17,1.12,3.1,4.43,4.54,6.6,5.43,19.64,8.07,25.74,1.07,40.1,8,4.76,2.27,26.62,8.29,36.65,24.54,26.78,43.4,39.92,55,53.58,55.55,18,.8,22.21-.29,36.51-9.6,8.28-5.39,14.49-1.74,17.41.41,5.24-2.42,8.6-28,.18-47.91C244,303.57,231.19,301.26,231.26,284c0-8.9-1.16-12.75-1.06-20.75a89,89,0,0,1-33,33.36c-32.13,18.66-52.06-2.66-50.29-1.84,7.32,3.38,17.17,5,22.93,3.64,7.85-1.87,22.55-2.71,43.26-23.14,4.33-4.27,14.61-14.66,19.4-31.42,4-14,1.5-25.89-3.49-49.65-4.9-23.27-11.53-33.06-23.32-45.59-4.42-4.7-9.19-14.13-19.08-12.71-8.33,1.2-11.6,5.09-19.28,4.77C159.11,140.37,154.36,128.22,149.85,133.37Z" transform="translate(189.27 35.6)"/><path class="cls-8" d="M133.25,272,53.11,259.59c-.82-.13-1.39-.48-1.49-.94L37.07,195.51c-.23-1,1.62-1.81,3.35-1.56l85.83,12.77c.87.13,1.46.52,1.53,1l8.86,62.76C136.77,271.42,134.93,272.23,133.25,272Z" transform="translate(189.27 35.6)"/><path class="cls-6" d="M48,215.15c-8.12.47-16.42,20.35-12.55,36.46,1.89,7.88,11.37,16.8,14.35,16.2-2.62-6.61-3.06-7.2.4-17,4.42-12.45,10.13-14.27,9.67-21.36S53.25,214.85,48,215.15Z" transform="translate(189.27 35.6)"/><path class="cls-7" d="M49.66,270.77c-5.43,0-15.07-10.24-17-18.47-3.08-12.77.84-26.89,6.29-34.24,2.71-3.64,5.8-5.67,9-5.85h0c7.46-.44,14.45,9,15,17.09.31,4.79-1.65,7.73-3.92,11.13A46.87,46.87,0,0,0,53,251.84c-3,8.45-2.91,8.67-.65,14.36l1.51,3.8-3.46.7A4.54,4.54,0,0,1,49.66,270.77Zm-1.45-52.68c-1.32.08-3,1.35-4.57,3.48-4.52,6.1-7.92,18.46-5.3,29.36.93,3.83,3.82,7.72,6.51,10.42-.21-2.82.59-5.79,2.6-11.48A52.18,52.18,0,0,1,54,237.16c2.16-3.24,3.11-4.79,2.94-7.48-.37-5.7-5.54-11.75-8.75-11.59Z" transform="translate(189.27 35.6)"/><path class="cls-6" d="M146.76,294.76c-2.24,3.07-22.06-3.1-33.48-18.69-2.78-3.8-11.2-15.29-6.94-25.83,1.6-4,5.38-8.77,10.51-9.47,7.8-1.06,11.37,5.61,14.2,12.9,2.94,7.59,2,14.33,4.4,23.76C138.66,290,141.34,289,146.76,294.76Z" transform="translate(189.27 35.6)"/><path class="cls-7" d="M144.31,298.47c-7.47,0-23.66-7.35-33.41-20.66-3-4.11-12.17-16.61-7.29-28.68,1.88-4.65,6.37-10.39,12.84-11.28,11-1.5,15.3,9.47,17.35,14.75,1.77,4.57,2.23,8.75,2.72,13.18a75,75,0,0,0,1.78,10.92c2.18,8.51,3.81,9.91,6.77,12.45a47.68,47.68,0,0,1,3.83,3.59l1.68,1.78-1.44,2c-1,1.31-2.58,2-4.82,2ZM118.47,243.6a8.66,8.66,0,0,0-1.22.09c-3.7.51-6.83,4.32-8.17,7.65-3.65,9,4,19.53,6.58,23a50.15,50.15,0,0,0,23.17,17.09c-2.44-2.52-4.31-5.72-6.24-13.26a82.1,82.1,0,0,1-1.93-11.74c-.47-4.21-.87-7.84-2.36-11.69C125.19,246.72,122.51,243.6,118.47,243.6Z" transform="translate(189.27 35.6)"/><path class="cls-7" d="M-87.11,438.39c2.28,33.36,10.7,44.54,15.43,58.9-31.29-1.85-83,3.52-113.55-2.46-9.45-16.65-1.12-45,12.35-50s25.74,12.05,50,10.82C-103.16,454.65-96.95,449.77-87.11,438.39Z" transform="translate(189.27 35.6)"/><path class="cls-7" d="M29.5,489.07C40,520.81,49.87,529.53,58,542.27c-30.75,6-79.55,24.1-110.57,25.91-13.3-13.77-12.31-43.33-.51-51.5s27.94,5.25,51.11-2C16.91,508.82,22.82,502.54,29.5,489.07Z" transform="translate(189.27 35.6)"/><path class="cls-7" d="M104.52,81.8c1.33-6.52,5.79-23.79,21-34.31,22.92-15.82,52.49-4.21,58.61-1.8,29.36,11.53,27.83,31.2,51.52,36.64,26.76,6.14,41.76-16,57.88-6.37,13.56,8.08,19.39,33.54,9,51-11.26,18.94-37.35,21.21-53.11,15.93-20.75-7-20.53-26-39.29-27.62-7.44-.64-15.31,1.67-36.12.54-3.73-.21-8.44-.55-9.55-3.19-2-4.62,9.87-9.71,12.34-20.68,2.38-10.54-4.33-24.46-12.34-26-8.85-1.76-13.22,12.7-29.21,18C124.19,87.65,113,85.1,104.52,81.8Z" transform="translate(189.27 35.6)"/><path class="cls-6" d="M173.82,98.82c1.64,9.1,1.87,25.31,10.19,39.77-5.3,12.27-29.34,20.86-29.35,9.09,0-14.7,2.43-26.16-10.49-48.86" transform="translate(189.27 35.6)"/><path class="cls-7" d="M161.12,156.22a13.38,13.38,0,0,1-2.67-.25,8,8,0,0,1-6.74-8.29c0-2.08,0-4.09.09-6.09.28-12.07.52-22.5-10.19-41.31l5.12-2.92c11.52,20.24,11.25,32,11,44.37,0,2-.09,3.92-.09,6a2.17,2.17,0,0,0,2,2.52c5.65,1.16,17.06-4.58,21-11.54C174.52,127.22,173,115,171.86,106c-.32-2.56-.6-4.77-.94-6.67l5.8-1c.37,2,.67,4.44,1,7,1.11,8.87,2.63,21,8.85,31.84l.74,1.28-.59,1.36C182.65,149.16,169.85,156.22,161.12,156.22Z" transform="translate(189.27 35.6)"/><path class="cls-6" d="M168.34,103.86c10.69-10.69,5.82-34-15-38.11-5.77-1.15-20.24-4.35-30,4-16.12,13.76-6.42,47.11,0,49.21,8.52,2.78,10.29-3.08,10.75-5.66,3.41,4.33,4,4,8.57,3.91,6.43-.1,13.46-3.54,15.51-5A95.4,95.4,0,0,0,168.34,103.86Z" transform="translate(189.27 35.6)"/><path class="cls-7" d="M127.39,122.59a16.31,16.31,0,0,1-5-.88c-4.86-1.59-8.3-10.8-9.76-18.21-1.14-5.73-3.86-25.27,8.76-36,10.55-9,25.55-6,32-4.7l.5.1C164.5,65,172.63,72.11,175.61,82c2.7,8.9.71,18.09-5.19,24a96.52,96.52,0,0,1-10.59,8.67c-2.41,1.68-10.06,5.39-17.15,5.49l-.92,0c-3.06.06-4.81-.12-6.65-1.51a9,9,0,0,1-2.8,2.7A9.45,9.45,0,0,1,127.39,122.59Zm13.13-55.46c-5.21,0-10.89,1.07-15.28,4.82-8.91,7.6-8.1,21.59-7.34,27.26,1.3,9.61,4.89,16.21,6.37,16.91,1.53.49,3.66.93,5,.13,1.16-.7,1.66-2.3,1.88-3.52l1.16-6.45,4,5.15c2.26,2.86,2.28,2.87,5.26,2.8l1,0c5.77-.08,12.27-3.32,13.86-4.43a91.51,91.51,0,0,0,9.79-8c4.3-4.3,5.76-11.41,3.72-18.12-2.37-7.84-8.66-13.31-17.25-15l-.51-.11A58.91,58.91,0,0,0,140.52,67.13Z" transform="translate(189.27 35.6)"/><path class="cls-8" d="M179.69,77.17c3,5.87,1.7,12.47-2.82,14.75s-10.57-.63-13.53-6.5-1.7-12.46,2.81-14.74S176.72,71.31,179.69,77.17Z" transform="translate(189.27 35.6)"/><path class="cls-8" d="M166.64,77.92c-3.06-12.68-7-19.56-19.79-27.56-9.46-5.9-16-4.87-21.29-2.87-.19-1.63,3.76-4.66,8.82-5.44,12.37-1.91,23.37,5.62,25.51,7.25,9.65,7.37,13.89,15.25,14.27,25.61A8.07,8.07,0,0,1,166.64,77.92Z" transform="translate(189.27 35.6)"/></g></g></g></svg>