<svg xmlns="http://www.w3.org/2000/svg" viewBox="0 0 253.1 269.24"><defs><style>.cls-1{fill:#077594;}.cls-2{fill:#e05e48;}.cls-3{fill:#fff;}</style></defs><g id="Layer_2" data-name="Layer 2"><g id="Layer_1-2" data-name="Layer 1"><path class="cls-1" d="M109.93,232.23l-.05-2.17a361.47,361.47,0,0,1,4.43-56.66c5.13-31.17,13.62-47.65,25.25-49,6.1-.69,11.05,2.58,17.32,6.73,6.7,4.43,15,10,28.46,13.45,5.09,1.32,9.29,3.88,14.6,7.13,3.67,2.24,7.83,4.79,13.36,7.63,7.51,3.85,12,6.17,13.6,10.86,2,5.82-1,14.52-7.75,22.69-7.52,9.13-21.54,19.09-36.27,17.15-9.82-1.3-19.64-7.62-24.44-15.73-2.79-4.72-3-10.54-2.94-15.45a89.64,89.64,0,0,1-3.43,11c-2.67,6.64-7.63,10.17-11.62,13l-1,.74a80.12,80.12,0,0,0-20.31,20.59c-2.5,3.52-4.31,6.06-7.16,7.22Zm31.24-104.89a11.22,11.22,0,0,0-1.28.07c-10,1.14-17.81,17.21-22.62,46.48a374.06,374.06,0,0,0-4.42,53.37,33.14,33.14,0,0,0,3.8-4.81,82.89,82.89,0,0,1,21-21.28l1.05-.75c3.86-2.75,8.23-5.86,10.58-11.69,3-7.47,5.11-18.63,5.13-18.75l.46-2.42,1.94,1.52c1.75,1.37,1.73,4.4,1.69,8.61,0,4.77-.08,10.72,2.52,15.12,4.35,7.36,13.29,13.1,22.25,14.28,13.53,1.8,26.53-7.54,33.56-16.08,6-7.26,8.82-15,7.22-19.83-1.13-3.38-4.54-5.25-12.13-9.15-5.62-2.89-9.84-5.46-13.56-7.73-5.29-3.24-9.12-5.58-13.78-6.79-13.91-3.63-22.48-9.3-29.37-13.85C149.75,130,145.67,127.34,141.17,127.34Z"/><path class="cls-1" d="M48.64,210.62l3-7c3.22-7.38,5.75-17.31,8.44-27.82,7.29-28.55,15.55-60.91,41.67-62.38,10.65-.59,25.5,5.12,31,15.39l.43.82-.53.75c-8.9,12.51-12.86,27-16.36,46.22l-.24,1.32-1.34-.09c-3.06-.21-5-1.37-9.11-8.05a26.68,26.68,0,0,1-3.43-18.13q-.12.4-.24.84a91.8,91.8,0,0,1-4.74,13.43c-6.33,14.2-22.75,25.2-33.62,32.48-4.12,2.76-7.69,5.15-9.48,6.89Zm54.82-94.24c-.5,0-1,0-1.49,0C78.05,117.76,70.07,149,63,176.54c-2.13,8.36-4.17,16.35-6.55,23.07,1.58-1.11,3.41-2.34,5.44-3.7,10.58-7.09,26.57-17.8,32.55-31.22a88.24,88.24,0,0,0,4.59-13c1.16-4.1,1.93-6.8,4.72-6.93a1.88,1.88,0,0,1,1.52.63c.79.89.59,2.11.22,4.32-.64,3.92-1.85,11.21,2.65,18.51,2.83,4.6,4.3,6,5.45,6.4,3.45-18.55,7.45-32.72,16-45.17C125.19,122.08,113.7,116.38,103.46,116.38Z"/><path class="cls-1" d="M172.65,47.88C165,56.57,158.15,62,143.32,81.13c-8.17,10.57-7,31.68-15.71,33.41-1.12.23-3.17,1.42-5.88,1.78,2.39,2.36,8.31,1.23,9.58,4.14,1.19,2.72-1,2.07-3.46,6.19.56,1.58,2.25,2.31,3.35,2.77,10,4.1,13.11.54,20.42,4.05,2.42,1.16,13.55,4.22,18.66,12.49,13.63,22.1,20.32,28,27.27,28.28,9.19.41,11.31-.15,18.59-4.89a7.2,7.2,0,0,1,8.87.21c2.66-1.23,4.37-14.25.08-24.39-4.5-10.64-11-11.82-11-20.59,0-4.53-.59-6.49-.54-10.57a45.34,45.34,0,0,1-16.79,17c-16.35,9.5-26.5-1.36-25.6-.94,3.73,1.72,8.74,2.55,11.67,1.85,4-.95,11.49-1.37,22-11.77a36.36,36.36,0,0,0,9.87-16c2-7.13.77-13.18-1.77-25.28C210.47,67,207.09,62,201.09,55.65c-2.25-2.39-4.68-7.19-9.72-6.47-4.24.61-5.9,2.59-9.81,2.43C177.36,51.44,174.94,45.26,172.65,47.88Z"/><path class="cls-2" d="M139.5,115.58l-21.64-8a.62.62,0,0,1-.41-.51l-5.23-32.33a.66.66,0,0,1,.87-.72l23.16,8.3a.65.65,0,0,1,.43.54l3.69,32A.65.65,0,0,1,139.5,115.58Z"/><path class="cls-2" d="M140.93,115.33l25.06-1a1.13,1.13,0,0,0,1.08-1.1l.28-34.41A1.12,1.12,0,0,0,166,77.76l-29.59,4.65a1.14,1.14,0,0,0-1,1.22l2.74,31.48C138.27,115.69,140.14,116.79,140.93,115.33Z"/><path class="cls-3" d="M120.81,89.51c-4.14.24-8.36,10.36-6.39,18.57,1,4,5.79,8.54,7.31,8.24-1.34-3.36-1.56-3.67.2-8.63,2.25-6.34,5.15-7.27,4.92-10.88S123.47,89.36,120.81,89.51Z"/><path class="cls-1" d="M121.64,117.83c-2.77,0-7.67-5.22-8.68-9.4-1.56-6.51.43-13.7,3.21-17.44,1.37-1.85,3-2.88,4.55-3h0c3.8-.23,7.36,4.59,7.63,8.69.16,2.45-.84,3.94-2,5.67a24.28,24.28,0,0,0-3,5.81c-1.52,4.3-1.48,4.41-.33,7.31l.77,1.94-1.76.35A2.33,2.33,0,0,1,121.64,117.83ZM120.9,91a3.77,3.77,0,0,0-2.32,1.77c-2.31,3.11-4,9.4-2.7,15a12.36,12.36,0,0,0,3.31,5.3c-.11-1.44.3-2.94,1.33-5.84a26.32,26.32,0,0,1,3.34-6.47c1.1-1.65,1.58-2.44,1.49-3.81-.19-2.9-2.81-6-4.45-5.9Z"/><path class="cls-3" d="M171.07,130c-1.14,1.57-11.23-1.58-17-9.51-1.42-1.94-5.7-7.79-3.53-13.16.81-2,2.73-4.46,5.35-4.81,4-.55,5.78,2.85,7.22,6.56,1.5,3.87,1,7.3,2.24,12.1C167,127.61,168.31,127.12,171.07,130Z"/><path class="cls-1" d="M169.83,131.93c-3.81,0-12.05-3.74-17-10.52-1.54-2.09-6.2-8.45-3.71-14.6.95-2.36,3.24-5.29,6.53-5.74,5.63-.76,7.79,4.82,8.83,7.51a25.18,25.18,0,0,1,1.39,6.71,37,37,0,0,0,.91,5.56c1.1,4.33,1.93,5,3.44,6.34a22.65,22.65,0,0,1,1.95,1.82l.86.91-.74,1a2.85,2.85,0,0,1-2.45,1ZM156.67,104a4.4,4.4,0,0,0-.62,0c-1.88.26-3.48,2.2-4.16,3.9-1.86,4.59,2.06,9.94,3.35,11.7a25.53,25.53,0,0,0,11.8,8.7c-1.25-1.28-2.2-2.91-3.18-6.75a42.83,42.83,0,0,1-1-6,22.23,22.23,0,0,0-1.2-6C160.09,105.58,158.73,104,156.67,104Z"/><path class="cls-1" d="M52,203.16c1.16,17,5.45,22.67,7.85,30-15.92-.94-42.27,1.79-57.8-1.25-4.81-8.48-.57-22.93,6.29-25.46s13.1,6.13,25.44,5.51C43.84,211.44,47,209,52,203.16Z"/><path class="cls-1" d="M111.38,229c5.36,16.16,10.36,20.6,14.52,27.09-15.66,3.05-40.5,12.26-56.3,13.19-6.77-7-6.26-22.06-.25-26.22s14.22,2.67,26-1C105,239,108,235.82,111.38,229Z"/><path class="cls-1" d="M149.57,21.62c.67-3.31,2.94-12.1,10.71-17.46C171.94-3.9,187,2,190.12,3.24c14.94,5.87,14.16,15.89,26.22,18.65C230,25,237.6,13.76,245.81,18.65c6.9,4.12,9.87,17.08,4.6,26-5.73,9.65-19,10.8-27,8.11-10.56-3.54-10.45-13.23-20-14.05-3.79-.33-7.79.85-18.39.27-1.9-.11-4.3-.28-4.86-1.63-1-2.34,5-4.94,6.28-10.52,1.21-5.37-2.21-12.46-6.28-13.27-4.51-.89-6.73,6.47-14.87,9.2C159.58,24.6,153.89,23.3,149.57,21.62Z"/><path class="cls-3" d="M184.85,30.29c.83,4.64,1,12.89,5.18,20.25-2.69,6.24-14.93,10.62-14.94,4.62,0-7.48,1.24-13.31-5.34-24.87"/><path class="cls-1" d="M178.38,59.51a6.61,6.61,0,0,1-1.36-.13,4.07,4.07,0,0,1-3.43-4.21c0-1.06,0-2.09,0-3.1.14-6.15.26-11.46-5.19-21l2.61-1.48c5.86,10.3,5.72,16.27,5.58,22.58,0,1,0,2,0,3a1.11,1.11,0,0,0,1,1.29c2.88.59,8.68-2.34,10.71-5.88-3.14-5.82-3.92-12-4.49-16.62-.16-1.3-.3-2.43-.48-3.39l3-.53c.18,1,.34,2.26.5,3.55.56,4.51,1.34,10.7,4.5,16.21l.38.65-.3.69C189.34,55.92,182.83,59.51,178.38,59.51Z"/><path class="cls-3" d="M182.06,32.85c5.44-5.44,3-17.28-7.66-19.4-2.94-.58-10.3-2.21-15.26,2-8.21,7-3.27,24,0,25.05,4.33,1.41,5.24-1.57,5.47-2.88,1.74,2.2,2,2,4.36,2a17,17,0,0,0,7.9-2.52A47.38,47.38,0,0,0,182.06,32.85Z"/><path class="cls-1" d="M161.21,42.39a8.21,8.21,0,0,1-2.54-.45c-2.47-.81-4.22-5.5-5-9.27-.57-2.92-2-12.86,4.47-18.34,5.37-4.59,13-3.06,16.27-2.4l.25.05a14.14,14.14,0,0,1,11.07,9.72,12.19,12.19,0,0,1-2.64,12.22,51.37,51.37,0,0,1-5.39,4.41,18.76,18.76,0,0,1-8.74,2.8h-.46a4.81,4.81,0,0,1-3.39-.76,4.43,4.43,0,0,1-1.43,1.37A4.8,4.8,0,0,1,161.21,42.39Zm6.69-28.23a11.77,11.77,0,0,0-7.79,2.45c-4.53,3.87-4.12,11-3.73,13.88.66,4.89,2.49,8.25,3.24,8.61a3.44,3.44,0,0,0,2.56.06,2.59,2.59,0,0,0,.95-1.79l.59-3.28,2.07,2.62c1.15,1.46,1.16,1.46,2.68,1.42H169A15.79,15.79,0,0,0,176,35.87a47,47,0,0,0,5-4.08,9.32,9.32,0,0,0,1.89-9.22,11,11,0,0,0-8.78-7.65l-.26-.05A30.08,30.08,0,0,0,167.9,14.16Z"/><path class="cls-2" d="M187.83,19.27c1.51,3,.87,6.35-1.43,7.51s-5.38-.32-6.89-3.31-.87-6.35,1.43-7.51S186.33,16.28,187.83,19.27Z"/><path class="cls-2" d="M181.19,19.65c-1.56-6.45-3.56-10-10.07-14-4.82-3-8.13-2.48-10.84-1.46-.1-.83,1.91-2.37,4.49-2.77,6.3-1,11.9,2.86,13,3.69,4.91,3.75,7.07,7.77,7.26,13A4.13,4.13,0,0,1,181.19,19.65Z"/></g></g></svg>