<svg xmlns="http://www.w3.org/2000/svg" xmlns:xlink="http://www.w3.org/1999/xlink" width="400" height="400" viewBox="0 0 400 400"><defs><clipPath id="a"><circle cx="200" cy="200" r="200" fill="none"/></clipPath></defs><circle cx="200" cy="200" r="200" fill="#f6f6f6"/><g clip-path="url(#a)"><path d="M252.53,229.94c-13.52,9-39.91,11.87-53.55,2.32-20-14-23.3-27.31-31.37-52.6-5-1.65-8.87-1.07-14.27-4.9-7.23-5.13-12.68-14.95-12.05-22.89,18.37-19.93,48.2-32.22,56.54-34.15,23.57-5.44,52.64-12.16,68.9,3.18,18.56,17.53,26.75,40.95,22.6,60.75,7,3.21,14.75,8.68,17.93,13.4C314,205,305,223.37,292,224.48c-8.22.71-15.3-3.14-21-7.94C264.85,223.88,260.53,224.61,252.53,229.94Z" fill="#fff"/><path d="M221.77,243.26c-9.57,0-18.87-2.09-25.69-6.86-20.28-14.18-24.66-28-31.93-50.93l-.52-1.65-1.65-.34a27,27,0,0,1-11.57-4.6c-9-6.37-14.91-17.89-14.16-27.41l.14-1.74,1.18-1.28c19.41-21.06,50.57-33.67,59.13-35.65,24.63-5.69,55.28-12.77,73.49,4.43s27.58,40.55,24.75,61.57c6.26,3.37,13.09,8.36,16.5,13.42,4,6,4.17,14.6.38,22.54-4,8.42-11.44,14.08-19.36,14.75-7,.61-14-1.47-20.85-6.19a45.61,45.61,0,0,1-10,7c-1.93,1.1-3.92,2.23-6.26,3.79h0C246.83,239.8,234.07,243.26,221.77,243.26Zm-75.46-89.35c.35,5.71,4.53,12.88,9.95,16.73,2.75,2,4.82,2.37,7.69,2.93a42.79,42.79,0,0,1,5.24,1.3l2.44.8,2.15,6.75c7.07,22.29,10.61,33.48,28.09,45.71,9.78,6.84,33.31,7.3,47.86-2.39,2.64-1.76,4.88-3,6.87-4.17,4.15-2.36,6.9-3.92,10.59-8.29l3.25-3.86,3.86,3.26c6,5,11.65,7.26,17.3,6.77,4.3-.36,8.66-3.92,11.11-9,2.22-4.64,2.36-9.56.36-12.53-2.45-3.63-9.26-8.63-15.83-11.62l-3.68-1.68.83-4c3.89-18.58-4.2-40.06-21.13-56-14.28-13.49-42-7.09-64.29-1.94C192.44,124.15,164.37,135.24,146.31,153.91Z" fill="#077594"/><path d="M204.33,111.46c-5.91-22.83,26.86-76.19,69.15-73.31,43.37,2.94,64.66,53.56,73.49,74.55,5.69,13.51,31.72,75.39,0,109.71-23.07,25-70.36,28.46-82,12.78-6.86-9.24-2.74-13.69,6.09-18.65,8.1-4.55,19.43,19,35.89-2.46,11.05-14.39-8.82-37.45-17.61-32.43-9.19,5.25-17.61,9.84-21.58,7.7-2.46-1.32,5.06-18.72-.66-39.37C258.79,120,244.54,107.22,204.33,111.46Z" fill="#077594"/><path d="M125,294.67c3.63-21.34,19.9-56,51.51-59.76,22.69-2.67,51.76,10.79,54.26,30.91,1.47,11.76-6.08,26.32-17.17,30.22-13.47,4.74-20.87-10.21-37.77-8.93-25.66,1.95-36.29,18.9-47.39,35C125.61,313.32,123.39,304,125,294.67Z" fill="#fff"/><path d="M126.71,333.5l-3.12-9.84c-2.79-8.8-5.4-19.24-3.59-29.84h0a97.51,97.51,0,0,1,16.13-38.58c10.6-14.76,24.35-23.53,39.76-25.34,12.13-1.43,26.21,1.36,37.66,7.46,12.94,6.89,20.83,16.78,22.2,27.84,1.84,14.74-7.55,31-20.5,35.6-9.07,3.2-16.09-.52-22.28-3.8-5.2-2.76-10.11-5.36-16.79-4.85-22.23,1.69-32,15.89-42.29,30.93ZM183,239.58a49.5,49.5,0,0,0-5.93.35c-28.2,3.32-43.64,35.06-47.13,55.58h0a41.41,41.41,0,0,0,.53,14.8c9.72-13.44,21.92-26.48,44.94-28.23,9.58-.73,16.63,3,22.28,6,6.11,3.23,9.51,4.84,14.2,3.2,8.33-2.94,15.06-15,13.83-24.83C224.1,253.33,204.78,239.58,183,239.58Z" fill="#077594"/><path d="M239.84,286.77c9,.7,12.44,5.83,23.73,4.3,14.51-2,21.18-12.59,26.1-20.61,17.76-3.93,50.33,43.66,65.25,99.59,15,56.41,19.68,91.4-.69,119.51C331.89,520.4,146.93,572.5,116.06,523,84,471.65,177.69,433.94,230.93,318.58,240.79,297.77,238.87,295.83,239.84,286.77Z" fill="#077594"/><path d="M128.41,322.14c-8.55-7.32-44,54.78-52.67,94-6.55,29.49-19.07,73.08,9.37,93.77,69.41,50.51,79.47,27.74,104.09,0,21.1-23.78,19.71-67.44,4.69-75.95-7.34-4.16-12.84,2.95-22.51.93C139.49,428.21,119.05,363.53,128.41,322.14Z" fill="#077594"/><path d="M93.66,123.49c.78-11.58,4.86-18.48,18-21.4l5.68-1.15c5.7-1.3,8.8-5.18,9.49-9.17,1.25-7.24-3.09-12.1-10-13.29a12.81,12.81,0,0,0-14.92,10.66l-18-3.1c3.49-20.24,18.84-29,36.28-26s28.53,16.33,25.48,34.06c-2.47,14.33-12.69,22.47-24.76,24.5-6,1-10.19,1.74-11.23,7.8l-.63,2.78-15.82-2.72Zm-9,25.69c1.2-6.94,7.66-10.85,14.31-9.71s11.72,7,10.52,14-7.83,11-14.62,9.81A12.18,12.18,0,0,1,84.67,149.18Z" fill="#e05e48"/><path d="M274.71,225.37c1.48,13.23,3.07,25.23,16,46.29-11.88,17.75-24.33,27.84-46,16.12.53-25.3,2-33.72-5.09-47.65" fill="#fff"/><path d="M261.82,297.87c-5.75,0-12.21-1.69-19.56-5.65l-2.71-1.47.06-3.08c.07-3.57.17-6.8.25-9.76.52-18,.72-24.67-4.79-35.49l9-4.58c6.67,13.12,6.41,22.23,5.89,40.37-.06,2-.12,4.19-.18,6.5,14,6.64,23.38,3.07,34.93-13.23-12.25-20.79-13.66-33.37-15-45.54l10-1.13C281.09,237,282.38,248.44,295,269l1.7,2.76-1.8,2.69C286.81,286.57,276.72,297.87,261.82,297.87Z" fill="#077594"/></g></svg>