<svg xmlns="http://www.w3.org/2000/svg" width="448.6" height="654.5" viewBox="0 0 448.6 654.5"><path d="M241,120.2c6.69-1.91,10.4-.24,12.89,5.71,2.18,5.21-3.39,13.88-10.56,17.45-7.83,3.9-18.84,2.34-24.33-5.05-6.9-9.3-.82-22.09,5.51-28,7.41-6.94,18.91-7.94,20.2-5.51S246.08,114.62,241,120.2Z" fill="#077594"/><path d="M307.72,286.24c-11.76,71.21-14.34,90.41-14.44,181-.1,88.51,9.3,116,18.18,141.49-24.11-6.86-61.83-58.17-61.25-126.29.15-16.76.63-19.37,1-46.77-4.45-40.72-19.74-47.43-22-78.35-2.49-33.81,12.16-75.07,33.49-80.68C274.42,273.52,298.94,274.49,307.72,286.24Z" fill="#fff"/><path d="M315.4,612.42l-4.62-1.32c-13.45-3.82-29.3-19.67-41.39-41.36-14.24-25.56-21.94-56.58-21.68-87.35.07-7.76.21-12.52.37-18,.19-6.55.41-14,.59-28.6-2.29-20.76-7.33-32.23-12.21-43.33-4.46-10.14-8.67-19.73-9.79-34.95a122,122,0,0,1,8-52c6.84-17.32,16.56-28.42,27.37-31.27,11.24-2.95,37.63-2.92,47.7,10.55l.64.85-.17,1.05c-11.81,71.48-14.31,89.77-14.41,180.57-.1,88.64,9.54,116.28,18,140.66ZM276.12,277.63a53,53,0,0,0-12.83,1.4c-18.85,5-34.23,42.9-31.64,78.08,1.06,14.37,4.92,23.14,9.39,33.31,4.8,10.94,10.25,23.33,12.62,44.95v.3c-.18,14.78-.4,22.25-.59,28.83-.16,5.49-.3,10.23-.37,17.93-.55,65,32.93,110.82,54.59,121.91-8.14-23.74-16.61-53.81-16.52-137.13.1-90.44,2.82-110.78,14.29-180.28C299.17,280.05,286.7,277.63,276.12,277.63Z" fill="#077594"/><path d="M189.92,277.78c-15.64,41.35-20.35,80.82-39.35,136.88-12.85,6.3-16-3.15-37.35,17.24C88.93,455.1,64.82,485.31,50.91,525c28.48-18.61,56.29-31.56,125.62-78.8,18.48-14.26,69.55-99.23,81.34-147.33C264,273.74,211.54,262.66,189.92,277.78Z" fill="#fff"/><path d="M46.11,531.08l2.44-6.94c12-34.33,32.63-65.09,63-94.05,14.6-13.95,21.34-14.56,27.86-15.15a26.07,26.07,0,0,0,9.19-2.09c9.11-27,14.78-49.74,20.26-71.7C174.35,319,179.59,298,187.59,276.9l.27-.73.63-.44c16.49-11.54,46.82-8.48,61.9,1.85,8.43,5.76,11.95,13.52,9.91,21.84-11.87,48.39-63.1,134-82.25,148.72l-.12.09C132.73,479,105.45,495.1,83.53,508c-11.47,6.75-21.37,12.59-31.25,19ZM192,279.41c-7.74,20.61-12.88,41.19-18.31,62.95-5.32,21.29-11.35,45.42-20.73,73.11l-.33,1-.94.46a30.13,30.13,0,0,1-11.86,3c-5.92.54-11.52,1-24.86,13.79-27.66,26.42-47,54.33-59.1,85.12,7.93-5,16.05-9.77,25.14-15.13,21.85-12.86,49-28.88,94.07-59.56,18.25-14.18,69-99.4,80.38-145.91,1.93-7.88-3.21-13.34-7.87-16.53C232.78,271.58,205.56,270.52,192,279.41Z" fill="#077594"/><path d="M185.44,169c-2.49,24.88,37.15,58.61-22.46,85.5,1.81,16.46-24.23,33.21-37.64,37.51-64.14,20.56,200,120.4,201.18,39.53.68-45.8-26.26-140.14-48.52-161.73-4.42-4.29-20.19-25.94-35.27-36-6.35,3.13-10.33,7.95-17.4,8.84-8,1-6.89-4.93-16.44-7C196.49,145.16,186.16,161.73,185.44,169Z" fill="#077594"/><path d="M246.49,146.68c10.25-9,41.45,23.74,56.46,13.4,19.36-13.34,19.33-42.11,50.93-47.64-8.69,18.72-6.43,14.58-6.11,40.92.17,13.68,1.5,31.13-19.1,48.82-15.73,13.5-44,6.39-60.3-1C236.47,186.84,236.77,155.2,246.49,146.68Z" fill="#077594"/><path d="M190,158.11c-16.11,7-24.51,34.75-69.4,57-37.05,18.4-46.41,16.61-61,15.88-1.28,10,35.39,32.88,71.16,30.22,7.29-.54,49.51-12.15,68.44-44C214.23,192,201.49,162.7,190,158.11Z" fill="#077594"/><path d="M201.39,114a7.29,7.29,0,0,1-2.84-12.89,25.1,25.1,0,0,1,27.93-35.74c.63.14,1.26.32,1.87.51h0c5.6.57,19.75,2.54,19.84,8.3,0,2-1.69,4.28-4.16,5.8a24.94,24.94,0,0,1,1.41,15.38c-3,13.52-16,23.83-29.53,20.79a19.3,19.3,0,0,1-6-2.55C208.2,115.57,204.12,114.61,201.39,114Z" fill="#fff"/><path d="M220.55,119a23.25,23.25,0,0,1-5.16-.57,19.18,19.18,0,0,1-5.32-2c-2.69,1.38-6.43.53-9.06-.06l-.13,0a9.62,9.62,0,0,1-5.14-15.7A27.41,27.41,0,0,1,227,63.1c.56.12,1.13.27,1.79.47,14.34,1.5,21.65,5.05,21.75,10.56,0,2.31-1.34,4.76-3.67,6.68a27.26,27.26,0,0,1,.86,15.06C244.68,109.38,232.9,119,220.55,119Zm-11.17-8.37,1.67,1a16.89,16.89,0,0,0,5.37,2.3c11.59,2.61,23.84-6.1,26.75-19a22.56,22.56,0,0,0-1.29-14L241.09,79,242.81,78c2-1.23,3.07-2.86,3.05-3.77,0-2-5.75-4.65-16.65-5.9l-.2.21-1.34-.41c-.56-.17-1.12-.33-1.7-.46a22.75,22.75,0,0,0-25.33,32.41l.86,1.72L200,103a4.87,4.87,0,0,0-1.81,2.85,5,5,0,0,0,.64,3.74,4.91,4.91,0,0,0,3.11,2.18l.12,0c1.46.33,5.34,1.2,6.1.32Z" fill="#077594"/><path d="M231.83,113.73c-.24,7.41,2.9,21.26,6.09,24.21-3.75,8.61-19.55,10.6-27.15,1.72.07-3.64,7-12.86.51-24.22C220,116.66,227.23,115.93,231.83,113.73Z" fill="#fff"/><path d="M224.08,147.76A19.75,19.75,0,0,1,209,141.17l-.58-.67,0-.89a15.32,15.32,0,0,1,1.19-4.56c1.67-4.61,3.94-10.93-.37-18.45l-2.37-4.14,4.72.67c7.9,1.11,14.91.56,19.21-1.51l3.47-1.66-.13,3.84c-.25,7.7,3.06,20.32,5.34,22.43l1.22,1.13-.66,1.52c-2,4.51-6.73,7.75-12.72,8.64A22.45,22.45,0,0,1,224.08,147.76Zm-10.83-8.85c3.85,3.83,9.36,4.6,13.4,4,3.8-.57,6.87-2.3,8.49-4.72-2.91-4.43-5.09-14.22-5.56-21.13a41.37,41.37,0,0,1-14.45,1.14c2.76,7.71.39,14.28-1.11,18.43C213.73,137.45,213.43,138.28,213.25,138.91Z" fill="#077594"/><path d="M353.88,112.44c4.23-5.22,12.69-10.16,21.06-11.57,7.33-1.24,22-2.61,28.12,7.46,4,6.68,2.34,14.18-2,17.06-3,2-12.75-1-20.36-6.75C374.8,114.2,360.94,112.44,353.88,112.44Z" fill="#fff"/><path d="M398.32,128.49c-5.42,0-13.35-3.45-19.16-7.86-5.13-3.88-18.12-5.69-25.28-5.69h-5.24l3.3-4.08c4.85-6,13.93-11,22.58-12.46,15.1-2.55,25.71.43,30.68,8.64s2.41,17-2.79,20.44A7.43,7.43,0,0,1,398.32,128.49Zm-38.55-18.27c7.63.68,17.39,2.63,22.41,6.43,7.85,5.95,16.09,7.57,17.47,6.66,3.29-2.18,4.59-8.19,1.27-13.68-4.82-8-16.56-7.82-25.56-6.3A36.79,36.79,0,0,0,359.77,110.22Z" fill="#077594"/><path d="M59.65,231C48,225,35.36,218.86,22.49,227.23,18.13,230.07,8,237.76,9,245.24c1.36,9.64,11.21,16.3,19.48,10.35,3.74-2.7,4.94-2.28,9.86-12.75C44,231,51.93,234.65,59.65,231Z" fill="#fff"/><path d="M21.82,260.33a13.35,13.35,0,0,1-5.29-1.1,17.55,17.55,0,0,1-10-13.64c-1.28-9.07,9.77-17.33,14.59-20.46,14.49-9.43,29.05-1.85,39.68,3.69l4.49,2.34-4.59,2.14a29.38,29.38,0,0,1-7.94,2.16c-5,.83-8.87,1.48-12.14,8.44-4.32,9.19-6.06,10.62-9.27,12.75-.43.29-.89.6-1.4,1A13.94,13.94,0,0,1,21.82,260.33Zm14.07-34.72a21.58,21.58,0,0,0-12,3.71c-6.15,4-13.07,10.48-12.36,15.57a12.51,12.51,0,0,0,7,9.75A8.38,8.38,0,0,0,27,253.56c.57-.41,1.08-.75,1.55-1.07,2.39-1.59,3.59-2.39,7.51-10.72,4.39-9.33,10.48-10.35,15.85-11.25l.82-.13C46.84,227.57,41.31,225.61,35.89,225.61Z" fill="#077594"/><path d="M310.52,602.16c6.48,9.32,11.51,14.55,18,16.14,8.81,2.16,21.55-9.29,33-11.26,14.58-2.5,28.12,19.12,26.34,30.27-19.21,11.77-68.75,22.08-90.18,14.73C304.51,639,308.17,616.8,310.52,602.16Z" fill="#077594"/><path d="M54.61,526c-9,6.87-11.74,10.65-15.1,18.07-3.75,8.27.65,11.52,18.43,21.39s-2.4,40.48-13.62,39.17c-53-19.76-46.51-67.57-40.08-89.29C17.6,521.55,39.89,524.26,54.61,526Z" fill="#077594"/><path d="M229.21,68.31c.79-.76,4.5-4.63,2.53-15.92-1.66-9.52-9.94-18.3-16.52-17.45-8.91,1.17-23.76,12.56-20.2,23.42-7.12-7.1-16.06-5.09-22-.92s-14,16.4-6,28.47c-11,.8-13.87,15.54-12.4,21.57,2.36,9.63,14.47,21.38,28.47,17.45-14.79,6.75-13.34,19.13-10.56,24.79,3.25,6.6,23.63,9.48,35.35-1.38,11.23-10.4,9.67-28.15,2-34.75-7.71,5.5-11.1,1.13-13.09-1.32-3.53-4.36,1.37-9.28,3.83-12.21,5.22-6.25,2-13,4.94-18.75C207.41,77.78,216.41,69.5,229.21,68.31Z" fill="#077594"/><path d="M385.33,9.14a26.54,26.54,0,0,0-11.39,50.47v2.52a1.41,1.41,0,0,0-1.06.17,1.49,1.49,0,0,0-.68,1.26V69a1.49,1.49,0,0,0,.54,1.15,7.74,7.74,0,0,0,1.2.77v2a1.47,1.47,0,0,0-1.31.39,1.5,1.5,0,0,0,0,2.11,17.81,17.81,0,0,0,12.64,5.24h.05a17.64,17.64,0,0,0,12.58-5.2,1.48,1.48,0,0,0,0-2.11,1.46,1.46,0,0,0-1.23-.41v-2a6.75,6.75,0,0,0,1.14-.73,1.49,1.49,0,0,0,.56-1.16V63.56a1.51,1.51,0,0,0-.73-1.29,1.43,1.43,0,0,0-1-.15V58.79a13,13,0,0,0,2.38-2.36c.16-.21.29-.44.44-.66A24.6,24.6,0,0,0,409.94,37a1.45,1.45,0,0,0,.35.07,1.5,1.5,0,0,0,1.5-1.49A26.49,26.49,0,0,0,385.33,9.14Z" fill="#ffd275"/><path d="M385.33,9.14A26.49,26.49,0,0,0,358.87,35.6c0,13,9.9,26.45,26.46,26.45h0c6.19,0,10.8-1.89,13.7-5.62,3.06-3.94,3.91-9.71,2.34-15.84-1.31-5.1-4.31-8.66-9.43-11.17a10.18,10.18,0,0,0-2.27-.8,16.65,16.65,0,0,0-3.37-4,1.49,1.49,0,0,0-1.91,2.3,11.86,11.86,0,0,1,1.45,1.5,14.73,14.73,0,0,0-4.41,1.14A11.08,11.08,0,0,0,375,36.2c-1.17,3.87.17,9.28,3.71,10.72a7,7,0,0,0,5.95-.76A13.74,13.74,0,0,0,391.42,37a11,11,0,0,0-.14-4.6,13.18,13.18,0,0,1,7.21,8.9c1.32,5.15.65,10.11-1.8,13.27-2.31,3-6.12,4.47-11.34,4.47h0c-11.54,0-23.47-8.79-23.47-23.47a23.47,23.47,0,0,1,46.94,0,1.5,1.5,0,0,0,3,0A26.49,26.49,0,0,0,385.33,9.14Zm3.15,27.35a10.84,10.84,0,0,1-5.23,7,4.25,4.25,0,0,1-3.38.61c-1.78-.73-2.8-4.37-2-7.09a8.08,8.08,0,0,1,4.75-4.8,11.1,11.1,0,0,1,4.39-.93l.71,0A8.59,8.59,0,0,1,388.48,36.49Z" fill="#e05e48"/><path d="M395.79,73.29a14.73,14.73,0,0,1-10.47,4.32h-.05a14.85,14.85,0,0,1-10.52-4.37,1.5,1.5,0,1,0-2.12,2.11,17.81,17.81,0,0,0,12.64,5.24h.05a17.64,17.64,0,0,0,12.58-5.2,1.49,1.49,0,1,0-2.11-2.11Z" fill="#e05e48"/><path d="M396.16,62.24c-4.36,2.38-16.41,2.35-21.87-.05a1.47,1.47,0,0,0-1.41.11,1.49,1.49,0,0,0-.68,1.26V69a1.49,1.49,0,0,0,.54,1.15C375.07,72,380.16,73,385.26,73s10.19-.95,12.55-2.86a1.49,1.49,0,0,0,.56-1.16V63.56a1.5,1.5,0,0,0-2.21-1.32Zm-.78,5.94c-4.06,2.34-16.19,2.34-20.19,0V65.67c5.63,1.66,14.62,1.91,20.19.12Z" fill="#e05e48"/><path d="M353.34,18.25l-25-12.72a.4.4,0,0,1-.13-.59L332,.15a.4.4,0,0,1,.56-.06l21.24,17.52A.38.38,0,0,1,353.34,18.25Z" fill="#ffd275"/><path d="M354.11,43.46,323.2,42.41a.35.35,0,0,0-.33.5l3.78,8.19a.36.36,0,0,0,.41.19l27.13-7.14A.35.35,0,0,0,354.11,43.46Z" fill="#ffd275"/><path d="M359.53,54.26l-17.1,9a.18.18,0,0,0-.05.29l5.3,5.57a.18.18,0,0,0,.27,0l11.81-14.53A.19.19,0,0,0,359.53,54.26Z" fill="#ffd275"/><path d="M417.46,18.92,442.27,6.29a.41.41,0,0,0,.14-.62L438.69.92a.41.41,0,0,0-.58-.07L417,18.24A.41.41,0,0,0,417.46,18.92Z" fill="#ffd275"/><path d="M417.67,44.17l29.5-1a.51.51,0,0,1,.48.73l-3.6,7.82a.52.52,0,0,1-.61.28l-25.88-6.81A.52.52,0,0,1,417.67,44.17Z" fill="#ffd275"/><path d="M412,55.5,428,63.84a.4.4,0,0,1,.1.63l-4.93,5.18a.4.4,0,0,1-.6,0l-11-13.51A.4.4,0,0,1,412,55.5Z" fill="#ffd275"/></svg>