<svg id="Layer_1" data-name="Layer 1" xmlns="http://www.w3.org/2000/svg" xmlns:xlink="http://www.w3.org/1999/xlink" viewBox="0 0 476.58 476.58"><defs><style>.cls-1{fill:none;}.cls-2{fill:#f6f6f6;}.cls-3{clip-path:url(#clip-path);}.cls-4{opacity:0.23;}.cls-5{fill:#ffd275;}.cls-6{fill:#fff;}.cls-7{fill:#077594;}.cls-8{fill:#e05e48;}</style><clipPath id="clip-path"><circle class="cls-1" cx="238.29" cy="238.29" r="238.29"/></clipPath></defs><circle class="cls-2" cx="238.29" cy="238.29" r="238.29"/><g class="cls-3"><g class="cls-4"><rect class="cls-5" x="-11.95" y="223.94" width="135.89" height="5.96" transform="translate(-125.6 79.78) rotate(-37.12)"/><rect class="cls-5" x="109.87" y="133.3" width="135.89" height="5.96" transform="matrix(0.8, -0.6, 0.6, 0.8, -46.22, 134.94)"/><rect class="cls-5" x="237.77" y="59.72" width="76.57" height="5.96" transform="translate(18.11 179.33) rotate(-37.13)"/><rect class="cls-5" x="193.53" y="63.55" width="57.87" height="5.96" transform="translate(4.93 147.75) rotate(-37.13)"/><rect class="cls-5" x="66.27" y="127.02" width="131.92" height="5.96" transform="translate(-51.56 105.34) rotate(-36.87)"/><rect class="cls-5" x="303.28" y="-12.66" width="131.92" height="5.96" transform="translate(79.64 219.58) rotate(-36.87)"/><rect class="cls-5" x="240.63" y="0.68" width="131.92" height="5.96" transform="translate(59.11 184.66) rotate(-36.87)"/><rect class="cls-5" x="10.12" y="192.8" width="61.62" height="5.96" transform="translate(-109.28 63.71) rotate(-36.87)"/><rect class="cls-5" x="-27.21" y="150.48" width="135.89" height="5.96" transform="translate(-82.02 52.77) rotate(-35.77)"/><rect class="cls-5" x="96.72" y="62.74" width="135.89" height="5.96" transform="translate(-7.36 108.63) rotate(-35.76)"/><rect class="cls-5" x="226.33" y="-8.51" width="76.57" height="5.96" transform="translate(53.15 153.64) rotate(-35.77)"/><rect class="cls-5" x="182.01" y="-5.94" width="57.87" height="5.96" transform="translate(41.52 122.75) rotate(-35.77)"/><rect class="cls-5" x="53.28" y="55.39" width="131.92" height="5.96" transform="translate(-11.73 80.11) rotate(-35.51)"/><rect class="cls-5" x="70.55" y="9.53" width="131.92" height="5.96" transform="translate(18.13 81.62) rotate(-35.51)"/><rect class="cls-5" x="-52.17" y="100.24" width="131.92" height="5.96" transform="translate(-57.39 27.21) rotate(-35.51)"/><rect class="cls-5" x="-4.4" y="118.99" width="61.62" height="5.96" transform="translate(-65.94 38.04) rotate(-35.51)"/><rect class="cls-5" x="-38.14" y="412.09" width="135.89" height="5.96" transform="matrix(0.78, -0.63, 0.63, 0.78, -254.01, 110.74)"/><rect class="cls-5" x="80.82" y="317.73" width="135.89" height="5.96" transform="translate(-168.39 164.51) rotate(-38.89)"/><rect class="cls-5" x="206.4" y="241.14" width="76.57" height="5.96" transform="translate(-99.03 207.76) rotate(-38.89)"/><rect class="cls-5" x="162.3" y="246.63" width="57.87" height="5.96" transform="translate(-114.33 175.41) rotate(-38.89)"/><rect class="cls-5" x="37.05" y="312.86" width="131.92" height="5.96" transform="translate(-174.66 133.45) rotate(-38.64)"/><rect class="cls-5" x="269.63" y="165.91" width="131.92" height="5.96" transform="translate(-32.02 246.43) rotate(-38.62)"/><rect class="cls-5" x="207.42" y="181.18" width="131.92" height="5.96" transform="translate(-55.16 210.93) rotate(-38.62)"/><rect class="cls-5" x="-17.02" y="381.43" width="61.62" height="5.96" transform="translate(-236.94 92.7) rotate(-38.62)"/><rect class="cls-5" x="-55.65" y="339.14" width="135.89" height="5.96" transform="translate(-205.92 78.34) rotate(-37.54)"/><rect class="cls-5" x="65.5" y="247.61" width="135.89" height="5.96" transform="translate(-125.07 133.22) rotate(-37.54)"/><rect class="cls-5" x="192.86" y="173.3" width="76.57" height="5.96" transform="matrix(0.79, -0.61, 0.61, 0.79, -59.55, 177.36)"/><rect class="cls-5" x="148.64" y="177.53" width="57.87" height="5.96" transform="translate(-73.22 145.58) rotate(-37.54)"/><rect class="cls-5" x="21.85" y="241.66" width="131.92" height="5.96" transform="translate(-130.26 103.19) rotate(-37.29)"/><rect class="cls-5" x="257.83" y="100.24" width="131.92" height="5.96" transform="translate(3.65 217.25) rotate(-37.29)"/><rect class="cls-5" x="195.27" y="114.04" width="131.92" height="5.96" transform="translate(-17.5 182.17) rotate(-37.29)"/><rect class="cls-5" x="-33.81" y="308.11" width="61.62" height="5.96" transform="matrix(0.8, -0.61, 0.61, 0.8, -189.07, 61.76)"/><rect class="cls-5" x="77.42" y="488.89" width="135.89" height="5.96" transform="translate(-282.12 208.45) rotate(-39.99)"/><rect class="cls-5" x="194.55" y="392.27" width="135.89" height="5.96" transform="translate(-192.63 261.14) rotate(-39.99)"/><rect class="cls-5" x="318.65" y="313.86" width="76.57" height="5.96" transform="translate(-120.15 303.49) rotate(-39.99)"/><rect class="cls-5" x="274.66" y="320.37" width="57.87" height="5.96" transform="translate(-136.81 270.73) rotate(-39.99)"/><rect class="cls-5" x="150.69" y="388.28" width="131.92" height="5.96" transform="translate(-200.03 228.78) rotate(-39.72)"/><rect class="cls-5" x="380.42" y="236.91" width="131.92" height="5.96" transform="translate(-50.26 340.64) rotate(-39.72)"/><rect class="cls-5" x="318.51" y="253.36" width="131.92" height="5.96" transform="translate(-75.06 304.97) rotate(-39.73)"/><rect class="cls-5" x="97.95" y="458.54" width="61.62" height="5.96" transform="translate(-265.22 188.83) rotate(-39.72)"/><rect class="cls-5" x="58.51" y="416.29" width="135.89" height="5.96" transform="translate(-234.12 170.75) rotate(-38.64)"/><rect class="cls-5" x="177.88" y="322.46" width="135.89" height="5.96" transform="translate(-149.4 224.76) rotate(-38.64)"/><rect class="cls-5" x="303.8" y="246.29" width="76.57" height="5.96" transform="translate(-80.76 268.2) rotate(-38.64)"/><rect class="cls-5" x="259.68" y="251.54" width="57.87" height="5.96" transform="translate(-95.75 235.95) rotate(-38.64)"/><rect class="cls-5" x="134.13" y="317.38" width="131.92" height="5.96" transform="translate(-155.69 193.5) rotate(-38.39)"/><rect class="cls-5" x="367.36" y="171.47" width="131.92" height="5.96" transform="translate(-14.67 306.77) rotate(-38.38)"/><rect class="cls-5" x="305.08" y="186.46" width="131.92" height="5.96" transform="translate(-37.44 271.34) rotate(-38.38)"/><rect class="cls-5" x="79.76" y="385.55" width="61.62" height="5.96" transform="translate(-217.35 152.63) rotate(-38.38)"/><rect class="cls-5" x="378.43" y="433.71" width="135.89" height="5.96" transform="translate(-177.75 416.29) rotate(-42.5)"/><rect class="cls-5" x="324" y="470.16" width="76.57" height="5.96" transform="translate(-224.46 369.04) rotate(-42.5)"/><rect class="cls-5" x="280.34" y="478.99" width="57.87" height="5.96" transform="translate(-244.38 335.63) rotate(-42.51)"/><rect class="cls-5" x="444.07" y="410.89" width="131.92" height="5.96" transform="translate(-145.78 450.36) rotate(-42.24)"/><rect class="cls-5" x="382.31" y="389.37" width="131.92" height="5.96" transform="translate(-147.35 403.28) rotate(-42.25)"/><rect class="cls-5" x="321.19" y="408.52" width="131.92" height="5.96" transform="translate(-176.1 367.15) rotate(-42.25)"/><rect class="cls-5" x="439.43" y="480.54" width="61.62" height="5.96" transform="translate(-202.94 441.73) rotate(-42.25)"/><rect class="cls-5" x="-27.02" y="40.25" width="135.89" height="5.96" transform="translate(-17.33 30.97) rotate(-34.68)"/><rect class="cls-5" x="183.72" y="483.61" width="135.89" height="5.96" transform="translate(-258.02 285.78) rotate(-41.15)"/><rect class="cls-5" x="306.21" y="403.3" width="76.57" height="5.96" transform="translate(-182.25 327.03) rotate(-41.15)"/><rect class="cls-5" x="262.36" y="410.89" width="57.87" height="5.96" transform="translate(-200.39 293.93) rotate(-41.15)"/><rect class="cls-5" x="139.78" y="480.54" width="131.92" height="5.96" transform="translate(-266.32 252.69) rotate(-40.89)"/><rect class="cls-5" x="366.41" y="324.56" width="131.92" height="5.96" transform="translate(-108.9 363.03) rotate(-40.9)"/><rect class="cls-5" x="304.84" y="342.27" width="131.92" height="5.96" transform="translate(-135.52 327.05) rotate(-40.9)"/><rect class="cls-5" x="401.55" y="483.61" width="61.62" height="5.96" transform="translate(-213.02 401.78) rotate(-40.89)"/><rect class="cls-5" x="387.52" y="29.83" width="57.87" height="5.96" transform="translate(64.6 258) rotate(-37.13)"/><rect class="cls-5" x="434.62" y="-33.04" width="131.92" height="5.96" transform="translate(118.15 294.34) rotate(-36.87)"/><rect class="cls-5" x="426.5" y="121.4" width="57.87" height="5.96" transform="translate(17.24 300.09) rotate(-37.13)"/><rect class="cls-5" x="381.85" y="78.71" width="131.92" height="5.96" transform="translate(40.55 285.02) rotate(-36.87)"/><rect class="cls-5" x="432.63" y="308.11" width="135.89" height="5.96" transform="translate(-81.05 406.26) rotate(-41.15)"/><rect class="cls-5" x="426.5" y="271.68" width="57.87" height="5.96" transform="matrix(0.75, -0.66, 0.66, 0.75, -68.23, 367.56)"/><rect class="cls-5" x="431.14" y="159.89" width="131.92" height="5.96" transform="translate(10.67 355.28) rotate(-39.72)"/><rect class="cls-5" x="327.42" y="85.38" width="131.92" height="5.96" transform="translate(34.38 271.87) rotate(-39.73)"/><rect class="cls-5" x="318.51" y="17.07" width="131.92" height="5.96" transform="matrix(0.8, -0.61, 0.61, 0.8, 66.43, 237.01)"/><rect class="cls-5" x="-46.43" y="458.54" width="135.89" height="5.96" transform="translate(-276.78 108.7) rotate(-37.54)"/><rect class="cls-5" x="-55.65" y="511.54" width="135.89" height="5.96" transform="translate(-310.99 114.06) rotate(-37.54)"/><rect class="cls-5" x="-38.02" y="6.44" width="135.89" height="5.96" transform="translate(0.46 20.19) rotate(-37.54)"/></g><rect class="cls-6" x="311.53" y="132.74" width="68.23" height="88.7"/><path class="cls-6" d="M158,281.94c-5.77-2.47-6.5-6.75-17.69-42-5.9-18.58-8-24.72-4.42-31s11.72-10.8,17.69-8.84c6.76,2.21,6.75,11.59,12.16,27.64,10.05,29.83,23.45,37,18.8,46.44C180.66,282.06,167,285.76,158,281.94Z"/><path class="cls-7" d="M165.93,286.83a23.67,23.67,0,0,1-9.25-1.77h0c-6.57-2.81-7.86-6.91-16.26-33.56-1-3.17-2.1-6.67-3.34-10.55l-.52-1.65c-5.7-18-7.84-24.68-3.6-32,4.08-7.1,13.76-13,21.68-10.38,6.52,2.13,8.29,8.62,10.72,17.61,1,3.55,2,7.57,3.61,12.17a135.7,135.7,0,0,0,13.78,28.86c4.73,7.84,8.14,13.5,4.84,20.17S174.91,286.83,165.93,286.83Zm-6.59-8c7.53,3.22,19.13,0,22.16-6.12,1.59-3.21-.14-6.32-4.56-13.65a142.26,142.26,0,0,1-14.41-30.2c-1.61-4.79-2.73-8.92-3.72-12.56-2.24-8.28-3.36-12-6.28-12.94-4.1-1.34-10.76,2.22-13.69,7.32-2.63,4.56-1.3,9.28,4.19,26.59l.52,1.64c1.24,3.89,2.34,7.4,3.34,10.57,7.76,24.63,8.89,27.83,12.45,29.35Z"/><path class="cls-6" d="M320.52,302.14c-8.5-20.83,4.77-60.71,40.33-60.08,11,.19,28.56.5,33.17,11.06,4.27,9.76,2.06,22.12-8.53,25.5-9.75,3.11-15.57-9.56-33.87-6.9C329.2,275,328.53,288.31,320.52,302.14Z"/><path class="cls-7" d="M320,309.83l-2.61-6.41c-5.42-13.27-2.68-32.07,6.66-45.7a42.45,42.45,0,0,1,36.87-19.05c11.49.2,30.73.54,36.22,13.09,2.95,6.75,3.11,14.34.42,20.29a17.69,17.69,0,0,1-11,9.8c-5.72,1.83-10.37-.51-14.86-2.77-5-2.49-10.57-5.3-19.55-4-15.87,2.3-19.34,9.68-24.14,19.89-1.35,2.86-2.75,5.82-4.51,8.87Zm40-64.38c-15.95,0-25.31,8.72-30.36,16.1a48.2,48.2,0,0,0-8,30.92l.18-.39c5.05-10.74,9.83-20.89,29.31-23.72,11.09-1.61,18,1.86,23.58,4.66,4.38,2.2,6.81,3.3,9.75,2.36a10.94,10.94,0,0,0,6.91-6.13c1.88-4.16,1.7-9.82-.46-14.77-3.74-8.56-20.25-8.85-30.12-9Z"/><path class="cls-6" d="M112.81,219.29c13.31,5.81,20,8.72,24.36,8.91,17.3.76,36.38-12.62,41-28.52,2.76-9.46,4.3-11.58,1.19-26.15,7.31-5.18,12.74-12.34,6.54-23.78-2.79-5.14-22.44-14.37-29.12-8.32-5.42-3.69-14.45-6.68-19-5.94-13.26,2.13-42.79,11.89-32.69,49.33-12.64,4.76-13.69,15.11-12.48,21.39C94.1,214,103.73,221.43,112.81,219.29Z"/><path class="cls-7" d="M138.62,232.36c-.55,0-1.09,0-1.63,0-5-.22-11.28-2.9-24.67-8.75a20.52,20.52,0,0,1-14.27-3.34c-5-3.23-8.53-8.18-9.5-13.25-1.61-8.37.78-18.82,11.71-24.53-2.77-12.7-1.35-23.51,4.25-32.16,8.88-13.75,25.76-17.79,32.6-18.89,5.4-.86,13.78,1.83,19.67,5.16,2.83-1.29,6.48-1.58,10.74-.86,8,1.37,19.17,6.83,22,12.08,5.72,10.54,3.83,19.77-5.6,27.45,2.24,11.47,1.32,15.3-1,22.84-.26.85-.54,1.76-.82,2.75C177.06,218.25,157.39,232.36,138.62,232.36ZM113.2,215l1.28.56c12.41,5.42,19.25,8.4,22.87,8.56,15.33.7,32.77-11.51,36.87-25.56.3-1,.58-2,.85-2.84,2.11-7,2.82-9.31.26-21.29l-.56-2.66,2.21-1.57c7.85-5.56,9.38-10.9,5.3-18.44-1-1.71-8.73-6.65-16.28-7.9-3-.49-5.43-.24-6.44.67l-2.41,2.18-2.69-1.83c-5-3.42-13-5.77-16-5.28-5.75.93-19.9,4.26-27,15.22-4.77,7.38-5.57,17.12-2.37,29l1,3.62-3.5,1.32c-10.64,4-10.76,12.22-9.89,16.75.55,2.86,2.81,5.88,5.89,7.88a12.09,12.09,0,0,0,9.32,2Z"/><path class="cls-7" d="M107.88,237.92c27-11.42,11.64-32.15,12.21-41.66,1.07-17.79-5.88-26.11,12.1-49.09,10.81-13.84,15.29-11.39,23-10.59-2.47-8.46-17-18.24-25.83-18.23-12.14,0-47-.91-64.75,32.73-15.82,30-10.7,67.54,6.47,78.86C74.07,231.92,95.5,243.16,107.88,237.92Z"/><path class="cls-7" d="M54.17,176.31c-6.66-5.56-10.26-29.67,2.54-45S92,113.62,98.61,119.19s-5,16.93-17.79,32.26S60.83,181.87,54.17,176.31Z"/><path class="cls-7" d="M45.31,154.15c-4.07-3.4-6.27-18.13,1.55-27.49s21.53-10.81,25.6-7.41-3,10.35-10.87,19.71S49.38,157.55,45.31,154.15Z"/><path class="cls-7" d="M312.71,464.73c-2-7.29-5.56-17.92-8.45-26.42,5.66,5.37,33.61,1.88,53.4-23.59,42.38-54.54-30.19-110.4-41.9-117.36,7.83,37.44-12,55.55-23,56.18-20.68,1.2-50.12-9.21-68.27-32.06-14.13-17.78-36.05-63.87-49.3-76.92-6.62,2.61-.1,12.15-12.79,15.26-11.09,2.72-13.65-9.53-19-5.87-13.08,26.88-32.11,83.63-68.36,136.71-3,4.35-4.81,8.79-8.86,12.49C126,464.28,216.23,496.53,312.71,464.73Z"/><path class="cls-8" d="M384.77,119H310.39a4.57,4.57,0,0,0-4.57,4.57V227.29a4.57,4.57,0,0,0,4.57,4.57h74.38a4.58,4.58,0,0,0,4.57-4.57V123.53A4.58,4.58,0,0,0,384.77,119Zm-37.19,20.6A22.43,22.43,0,1,1,325.15,162,22.43,22.43,0,0,1,347.58,139.56Zm27.05,73.13H320.52v-5.92h54.11Z"/><polygon class="cls-5" points="402.53 253.55 424.18 289.41 402.65 289.49 402.53 253.55"/><polygon class="cls-5" points="412.2 238.4 458.55 262.33 457.42 236.42 412.2 238.4"/><polygon class="cls-5" points="462.07 276.96 408.57 248.17 439.77 299.15 462.07 276.96"/><polygon class="cls-5" points="298.64 106.8 283 67.93 304.26 71.3 298.64 106.8"/><polygon class="cls-5" points="286.67 120.2 244.73 89.17 241.71 114.93 286.67 120.2"/><polygon class="cls-5" points="243.6 74.17 291.81 111.14 269.16 55.82 243.6 74.17"/></g></svg>