<svg xmlns="http://www.w3.org/2000/svg" viewBox="0 0 233.49 390.91"><defs><style>.cls-1{fill:#077594;}.cls-2{fill:#fff;}</style></defs><g id="Layer_2" data-name="Layer 2"><g id="Layer_1-2" data-name="Layer 1"><path class="cls-1" d="M27.29,74.81C22.51,70.15,16,61.48,17.6,56.38c1.49-4.71,2.93-8.8,11.72-9.12-5.62-8.64-1.64-21.78,5.54-30.63,4.31-5.3,14.17-8.14,28-8.14C65.89-3.16,80,.05,84.06,1.65c11.71,4.56,24,20.44,16.29,52.77,14.17.57,29.58,11.64,31.6,22.81,1.85,10.23-1.71,18.24-9.21,27.37,16.23,4.8,18.21,20.66,16,29.64-1.52,6.31-11.81,17.11-29,12.06-2,13.84-22.61,4.73-26.71.65-7.44-7.41-10.91-16-3.58-32.26-5.62,3.18-14-.38-18.57-6.19-4.44-5.61-4-11.55-1-20.36C57.83,81.89,51.46,77.77,27.29,74.81Z"/><path class="cls-2" d="M42.57,83c.65,18,1.11,24.93-2.39,34.32-1.36,3.65,17.76,11.51,16.94,7C55,112.09,50.39,90.88,50.83,80.38,51,77.25,44.53,81.49,42.57,83Z"/><path class="cls-1" d="M55.26,127.63a18.93,18.93,0,0,1-6.19-1.39,30.83,30.83,0,0,1-8.64-4.66c-2-1.7-2.72-3.37-2.12-5,3.18-8.55,2.94-15.11,2.36-30.95L40.54,82l.82-.63c2.62-2,7.38-5.13,10-3.79a2.89,2.89,0,0,1,1.51,2.86c-.34,8.32,2.66,24.21,4.86,35.81.52,2.77,1,5.36,1.41,7.63a2.93,2.93,0,0,1-1.43,3.2A4.79,4.79,0,0,1,55.26,127.63Zm-13.09-9.94c1.15,2,9.66,5.86,12.82,6-.37-2-.79-4.27-1.24-6.66-2.25-11.87-5-26.52-5-35.46A26.29,26.29,0,0,0,44.61,84l.06,1.53C45.26,101.73,45.51,108.55,42.17,117.69Z"/><path class="cls-1" d="M41.05,112.74c3,2.64,3.23,4.57,7.17,4.56s5.57-1.52,7.82-5.21c6.63,6.94,26.15,77.06,54.3,80.79,49.08,6.52,69.07-26.93,80.58-52.77,15.51,8.7,11.72,67.16-20.2,92.52-25,19.88-39.53,18.87-58,21.5,16.72,23.89,41.11,52,88.83,58.21,19.51,2.54,27.4,8,31.06,14.77,5.77,10.7-17.84,40.1-44.31,53.43-46.1,23.22-117.28,6-155.73-37.14C-41.32,260.52,32.4,112,41.05,112.74Z"/><path class="cls-2" d="M191.44,141.94c-6.95-3.26-10.05-12.05-16.49-28.45-2.26-5.77-9.68-9.2-7.36-14,.78-1.6,5.7.8,7.35,1.94,4.15,2.89,3.31,6.12,7,7.11,2.26.61,3.92-4.08,8.61-4.64,3.67-.43,6.73,2,7.62,2.65,6.77,5.29,10.59,18.83,4.1,26.75C201.37,134.32,197.1,140.62,191.44,141.94Z"/><path class="cls-1" d="M191.23,143.87l-.57-.27c-7.23-3.39-10.48-11.7-16.39-26.8l-1-2.64a19.45,19.45,0,0,0-3.87-5.45c-2.51-2.83-5.36-6-3.44-10a2.72,2.72,0,0,1,1.82-1.46c3-.78,8.18,2.65,8.24,2.68a13.2,13.2,0,0,1,4.07,4.62c.75,1.28,1.1,1.87,2.25,2.2a7.93,7.93,0,0,0,1.43-1.15,11.38,11.38,0,0,1,6.56-3.51c2.93-.35,5.94.67,9,3,4.18,3.27,7.32,9.36,8,15.52.59,5.36-.69,10.27-3.62,13.84l-.32.42c-1.42,1.87-5.74,7.54-11.48,8.87Zm-22.17-43.08c-.35,1.44.74,2.87,3.06,5.47a22.84,22.84,0,0,1,4.54,6.55l1,2.65c5.37,13.74,8.42,21.51,13.94,24.52,4.16-1.31,7.59-5.82,8.76-7.35l.41-.52a14.73,14.73,0,0,0,2.8-11.1c-.58-5.23-3.17-10.34-6.61-13-2.23-1.73-4.33-2.5-6.27-2.27s-3.25,1.42-4.5,2.57-2.79,2.56-4.81,2c-2.65-.72-3.65-2.42-4.53-3.91a9.73,9.73,0,0,0-3-3.47A15.38,15.38,0,0,0,169.06,100.79Z"/><path class="cls-2" d="M189.37,103.37c-4.63,2.14-6.08,9.64-5.6,14.23.89,8.48,5.67,16.82,14,16,6-.62,7-2.5,7.66-8.32C206.78,113.53,196.86,99.91,189.37,103.37Z"/><path class="cls-1" d="M196.6,135.46c-8.78,0-13.74-9-14.66-17.67-.5-4.8.86-13.41,6.66-16.09h0c2.87-1.32,6.18-.8,9.33,1.48,5.4,3.89,10.37,13.29,9.36,22.27-.73,6.41-2.18,9.2-9.3,9.94C197.52,135.43,197.05,135.46,196.6,135.46ZM190.14,105c-3.63,1.68-5,8.26-4.54,12.36.78,7.42,4.9,15.06,12,14.33,4.93-.51,5.43-1.48,6-6.69.85-7.55-3.41-15.68-7.85-18.88-1.44-1-3.58-2.07-5.64-1.12Z"/><path class="cls-2" d="M30.68,67.25c11.57,0,10.46-7.94,15.66-9.57,3.8-1.18,5.33-2.88,13.36-.33,6.13,1.95,9.19,2.92,11.55,5.61,4.6,5.26,5,14.08,2,16.16-1.88,1.29-3.62,2.31-6.59.66-1,3.46-2.12,4.86-4,7.92-4.08,6.77-18.36,8.61-25.4,3.29-2.5-1.89-1.53-2.75-5.6-6.92-9.58-.17-9.45-6.21-9.57-8.91C22,72.72,22.93,67.25,30.68,67.25Z"/><path class="cls-1" d="M48,96.09a19.93,19.93,0,0,1-11.88-3.5,9,9,0,0,1-2.66-3.07A17.76,17.76,0,0,0,30.78,86c-10.27-.55-10.55-7.73-10.66-10.48l0-.31a9.71,9.71,0,0,1,2.48-7c1.87-2,4.59-3,8.1-3,6.25,0,8-2.45,9.88-5,1.23-1.7,2.62-3.62,5.19-4.43.6-.19,1.14-.39,1.66-.58,2.86-1.07,5.56-2.07,12.9.25,6.27,2,9.72,3.09,12.44,6.2a18.71,18.71,0,0,1,4.31,13.84c-.31,2.46-1.25,4.29-2.71,5.29s-3.52,2.41-6.5,1.66a28,28,0,0,1-2.54,4.8c-.29.46-.6,1-.93,1.5-2,3.36-6.2,5.87-11.47,6.88A26.28,26.28,0,0,1,48,96.09ZM52.9,58a10.74,10.74,0,0,0-4.1.91c-.58.21-1.19.44-1.86.65-1.24.39-2,1.33-3.13,2.95-2,2.83-4.84,6.71-13.13,6.71-2.37,0-4.12.57-5.21,1.71a5.8,5.8,0,0,0-1.37,4.11v.33c.11,2.76.27,6.54,7.59,6.67h.82l.58.59a22.75,22.75,0,0,1,3.74,4.8,5.32,5.32,0,0,0,1.64,1.93c3.15,2.38,8.52,3.28,13.67,2.28,4.1-.79,7.39-2.66,8.81-5l.95-1.55a19.84,19.84,0,0,0,2.79-5.88l.7-2.42L67.6,78c2,1.08,2.79.61,4.49-.56a3.71,3.71,0,0,0,1-2.49,14.64,14.64,0,0,0-3.35-10.7c-2-2.27-4.7-3.13-10.64-5A21,21,0,0,0,52.9,58Z"/></g></g></svg>