<svg id="Layer_1" data-name="Layer 1" xmlns="http://www.w3.org/2000/svg" xmlns:xlink="http://www.w3.org/1999/xlink" viewBox="0 0 364.67 364.45"><defs><style>.cls-1{fill:none;}.cls-2{fill:#f6f6f6;}.cls-3{clip-path:url(#clip-path);}.cls-4{fill:#077594;}.cls-5{fill:#fff;}.cls-6{fill:#e05e48;}.cls-7{fill:#eaa69d;}</style><clipPath id="clip-path"><circle class="cls-1" cx="182.22" cy="182.22" r="182.22"/></clipPath></defs><circle class="cls-2" cx="182.22" cy="182.22" r="182.22"/><g class="cls-3"><path class="cls-4" d="M-8.66,241c8.86-61.38,78.1-88.71,102.19-93.6,2.59,18.23,10.57,22.39,16.65,25.87,7,3,13.87,7.84,22.18,2.51,15.69,48.88,46.72,91.18,72.48,96.71,30.48,6.54,76.11-63.25,82.5-85,10.81,16.8,27.52,113.46-20.15,143C184.51,376.77,151.38,306.22,148.51,311c-5.94,9.88,40.36,30.61,43.1,69.16C193,398.94,116,404.89,63.14,373.87,21.73,349.54-16.81,297.46-8.66,241Z"/><path class="cls-5" d="M103.21,106.47c-.12,16.83,1.69,20,7.39,27,8.08,9.92,27.4,15.07,36.34,9.7,2.92-1.74,6.67-4.76,9.88-6.59,4.52,2,5.71,2.19,8.89,1.72,6.29-.93,10.17-11.93,11.18-18.92a36.18,36.18,0,0,0-4-21.79c-6.93-13.08-19.5-17.64-23.79-19.2-4-1.44-15.47-5.63-26.37-1.15-2.66,1.09-1.95,1.33-7.17,4-7.37-1.95-11-4.09-18.92,9.18C91.81,98.52,97.05,105.19,103.21,106.47Z"/><path class="cls-4" d="M137.62,147.8c-10.21,0-22.61-5-29-12.76-5.88-7.22-7.92-11.08-8-26.7a13.26,13.26,0,0,1-7.46-6.88c-1.67-3.8-1.24-8.17,1.22-12.32,7.91-13.33,12.85-12.75,20.27-10.7l.51.13a39.28,39.28,0,0,0,3.54-2.07,14.63,14.63,0,0,1,3-1.58c11.79-4.85,24.12-.37,28.17,1.11,4.41,1.6,17.78,6.46,25.15,20.38a38.78,38.78,0,0,1,4.28,23.32c-1,6.74-5,19.81-13.29,21-3.41.51-5.07.29-9.06-1.39-1.36.85-2.81,1.87-4.23,2.87-1.61,1.14-3.14,2.22-4.55,3.07A20.78,20.78,0,0,1,137.62,147.8Zm-29-65.48c-3.05,0-5.48,2-9.85,9.37-1.64,2.76-2,5.44-1,7.75a8.29,8.29,0,0,0,5.9,4.58l2,.42,0,2c-.11,16.14,1.43,18.77,6.83,25.39,7.27,8.93,25.22,13.88,33.12,9.14,1.25-.75,2.7-1.78,4.24-2.86,1.89-1.33,3.84-2.71,5.68-3.76l1.09-.63,1.16.51c4.35,1.91,5,1.9,7.51,1.54,4.06-.6,8-9.18,9.07-16.81a33.77,33.77,0,0,0-3.75-20.26c-6.47-12.22-18.48-16.59-22.43-18-3.61-1.32-14.57-5.3-24.57-1.19a10.5,10.5,0,0,0-2.12,1.13,44.64,44.64,0,0,1-4.86,2.8l-.85.44-.93-.25-1.48-.4A19.17,19.17,0,0,0,108.62,82.32Z"/><path class="cls-4" d="M108.25,84.89c2.06-.24,5.91-.67,8.33,1.33,5.09,4.18.12,15.86,2.67,17,2,.89,5.17-6.18,10.66-10.33,12.53-9.46,29-10.66,43,4.7,2,2.22,7.78,9.58,6.13,24-.94,8.29-5.95,15.84-13.38,17.23-5.72,1.06-9.09-3.56-10.33-2-1.13,1.41,9.36,18.36,9.82,23.55.7,8-4,9.78-7.54,19.45s1.71,21.84,9.33,29c10.37,9.73,27,11.54,36.65,5,10.4-7,25.57-21.58,13-52.64-8.84-21.83-1.37-29.85,4.67-40.32,7.33-12.72,15.92-11.35,20.65-23,5.54-13.6-.14-30.31-8.33-40.65-15-18.94-30-18.52-42.92-21.43-19.16-4.33-49,3.08-51,21.1-8.85,2.05-16.62-.81-24,3.89-13.49,8.54-18,26.14-16.6,27.43C99.68,88.91,102.34,85.55,108.25,84.89Z"/><path class="cls-5" d="M287.34,187.45c-9.44-4.42-13.67-16.37-22.41-38.66-3.08-7.84-13.15-12.5-10-19,1-2.18,7.75,1.09,10,2.64,5.64,3.92,4.5,8.31,9.47,9.65,3.07.84,5.32-5.54,11.7-6.3,5-.58,9.14,2.66,10.35,3.6,9.2,7.19,14.39,25.59,5.57,36.35C300.84,177.1,295,185.66,287.34,187.45Z"/><path class="cls-4" d="M287.06,190.08l-.78-.37c-9.82-4.6-14.25-15.9-22.27-36.42l-1.41-3.59c-1.06-2.7-3.19-5.09-5.25-7.41-3.42-3.84-7.3-8.19-4.67-13.63a3.73,3.73,0,0,1,2.46-2c4.05-1.06,11.12,3.6,11.2,3.65a17.77,17.77,0,0,1,5.53,6.28c1,1.73,1.5,2.54,3.06,3a10.6,10.6,0,0,0,1.94-1.56c2-1.81,4.66-4.28,8.92-4.78,4-.47,8.08.91,12.18,4.11,5.68,4.44,9.95,12.72,10.88,21.09.81,7.28-.94,14-4.91,18.82l-.45.57c-1.93,2.53-7.8,10.24-15.59,12Zm-30.14-58.55c-.47,1.95,1,3.9,4.16,7.44,2.25,2.52,4.79,5.37,6.17,8.9l1.41,3.6c7.31,18.67,11.44,29.24,18.95,33.32,5.66-1.78,10.32-7.9,11.91-10,.23-.31.42-.55.55-.71,3.12-3.8,4.47-9.16,3.81-15.09-.78-7.11-4.31-14.06-9-17.7-3-2.36-5.88-3.4-8.52-3.09s-4.41,1.93-6.12,3.49-3.78,3.48-6.53,2.74c-3.61-1-5-3.28-6.16-5.31a13.16,13.16,0,0,0-4.08-4.71A20.61,20.61,0,0,0,256.92,131.53Z"/><path class="cls-5" d="M284.53,135c-6.3,2.91-8.27,13.1-7.61,19.33,1.21,11.53,7.7,22.86,19.06,21.69,8.15-.84,9.52-3.39,10.41-11.3C308.19,148.84,294.71,130.33,284.53,135Z"/><path class="cls-4" d="M294.36,178.65c-11.94,0-18.68-12.16-19.93-24-.68-6.52,1.17-18.22,9.05-21.86h0c3.89-1.8,8.4-1.09,12.68,2,7.34,5.3,14.1,18.07,12.72,30.27-1,8.71-3,12.51-12.64,13.51C295.6,178.61,295,178.65,294.36,178.65Zm-8.78-41.35c-4.94,2.29-6.76,11.23-6.18,16.81,1.06,10.08,6.66,20.47,16.33,19.46,6.7-.68,7.38-2,8.18-9.09,1.16-10.25-4.64-21.3-10.68-25.65-2-1.41-4.85-2.82-7.65-1.53Z"/><path class="cls-6" d="M268.13,102.73c-.33-3.11,4-6.71,8.21-7.12,3.62-.36,5.11,1.89,7.12.82,3-1.61,3.65-4.44,3.83-8.48a4.38,4.38,0,0,1,3.83,2.73c1.61,3.29-.46,8.46-3.83,10.13-4,2-7.64-2.06-11.22.28-2.64,1.71-3.16,2.88-4.38,5.2C269.91,106.29,268.73,104.42,268.13,102.73Z"/><path class="cls-7" d="M47.48,130.35c-3,.9-7.35-2.72-8.53-6.74-1-3.49.89-5.37-.53-7.14-2.15-2.68-5.05-2.76-9-2.18a4.37,4.37,0,0,1,2-4.27c2.92-2.2,8.39-1.13,10.67,1.86,2.71,3.57-.6,7.89,2.37,11,2.17,2.26,3.42,2.55,5.93,3.33C50.64,127.93,49,129.44,47.48,130.35Z"/><path class="cls-6" d="M209.81,258.38c-2.32-2.08-1.5-7.68,1.31-10.78,2.45-2.7,5.06-2,5.83-4.17,1.17-3.24-.27-5.75-2.85-8.87a4.39,4.39,0,0,1,4.68-.54c3.39,1.35,5.33,6.58,3.95,10.08-1.63,4.17-7,3.6-8.13,7.74-.81,3-.4,4.25.24,6.79C213.52,259.83,211.39,259.23,209.81,258.38Z"/><path class="cls-6" d="M331.51,205.25c-2.32-2.09-1.5-7.69,1.31-10.79,2.45-2.69,5.06-2,5.83-4.17,1.17-3.23-.28-5.74-2.86-8.86a4.38,4.38,0,0,1,4.68-.54c3.4,1.35,5.33,6.58,4,10.08-1.63,4.17-7,3.6-8.14,7.73-.8,3-.4,4.26.25,6.8C335.22,206.69,333.09,206.1,331.51,205.25Z"/><path class="cls-7" d="M176.44,16.7c-2.33-2.09-1.5-7.68,1.31-10.79,2.45-2.69,5.06-2,5.83-4.16,1.16-3.24-.28-5.75-2.86-8.87a4.38,4.38,0,0,1,4.68-.54c3.4,1.35,5.33,6.58,4,10.08-1.64,4.17-7,3.6-8.14,7.74-.8,3-.4,4.25.25,6.79C180.15,18.14,178,17.55,176.44,16.7Z"/><path class="cls-6" d="M307.5,91.8c-1.63-1.46-1.05-5.39.92-7.56,1.72-1.9,3.55-1.43,4.09-2.93.82-2.27-.19-4-2-6.22a3.07,3.07,0,0,1,3.28-.38c2.38,1,3.74,4.62,2.78,7.07-1.15,2.93-4.94,2.53-5.71,5.43A7.61,7.61,0,0,0,311,92C310.11,92.82,308.61,92.4,307.5,91.8Z"/><path class="cls-6" d="M58.61,91.48c-.15-2.19,3-4.59,5.94-4.77,2.55-.16,3.54,1.45,5,.76,2.17-1,2.68-3,2.91-5.85a3.07,3.07,0,0,1,2.61,2c1,2.34-.54,5.91-3,7-2.86,1.29-5.3-1.64-7.87-.1A7.56,7.56,0,0,0,61,94.07C59.76,94,59,92.68,58.61,91.48Z"/><path class="cls-6" d="M227.7,30.43c-2.15.39-4.9-2.48-5.41-5.37-.44-2.52,1.05-3.68.2-5-1.29-2-3.3-2.32-6.14-2.24A3.08,3.08,0,0,1,218.07,15c2.21-1.3,5.93-.12,7.28,2.14,1.61,2.7-1,5.45.79,7.84A7.55,7.55,0,0,0,230,27.75C230.1,29,228.85,29.92,227.7,30.43Z"/><path class="cls-7" d="M187.78,243.61c-2.16.39-4.91-2.48-5.41-5.37-.44-2.52,1-3.68.2-5-1.29-2-3.3-2.32-6.14-2.23a3.05,3.05,0,0,1,1.71-2.82c2.21-1.3,5.94-.13,7.29,2.14,1.6,2.7-1,5.45.78,7.84a7.63,7.63,0,0,0,3.87,2.79C190.17,242.17,188.93,243.09,187.78,243.61Z"/><path class="cls-6" d="M310.3,259.57c1.57-1.54,5.45-.72,7.5,1.39,1.78,1.83,1.2,3.63,2.66,4.26,2.22,1,4,.06,6.33-1.61a3.08,3.08,0,0,1,.18,3.3c-1.1,2.32-4.84,3.44-7.23,2.33-2.85-1.33-2.21-5.09-5.06-6a7.6,7.6,0,0,0-4.77-.12C309.13,262.1,309.64,260.64,310.3,259.57Z"/><path class="cls-6" d="M237.36,147.8c1.56-1.54,5.45-.72,7.5,1.39,1.78,1.83,1.2,3.63,2.66,4.26,2.21,1,4,.06,6.33-1.61a3.07,3.07,0,0,1,.17,3.3c-1.09,2.32-4.83,3.45-7.23,2.33-2.84-1.33-2.21-5.09-5.06-6a7.57,7.57,0,0,0-4.76-.12C236.19,150.33,236.7,148.87,237.36,147.8Z"/><path class="cls-6" d="M229.77,207.49c.82-.85,3.13-.14,4.43,1.26,1.14,1.21.9,2.27,1.79,2.73,1.34.71,2.35.26,3.59-.62a2,2,0,0,1,.29,2c-.51,1.34-2.63,1.82-4.08,1-1.73-1-1.57-3.21-3.28-3.94a4.4,4.4,0,0,0-2.78-.35A1.93,1.93,0,0,1,229.77,207.49Z"/><path class="cls-7" d="M290.78,118c1.09-.44,2.91,1.14,3.55,3,.55,1.56-.1,2.44.52,3.22.95,1.19,2,1.19,3.54.88a2,2,0,0,1-.55,2c-1,1-3.13.61-4.14-.72-1.19-1.58-.13-3.57-1.4-4.93a4.37,4.37,0,0,0-2.41-1.44A1.94,1.94,0,0,1,290.78,118Z"/><path class="cls-7" d="M315.06,201.42c1.1-.44,2.92,1.14,3.55,3,.55,1.56-.09,2.44.53,3.22.94,1.19,2,1.19,3.54.88a2,2,0,0,1-.56,1.95c-1,1-3.13.61-4.13-.72-1.2-1.58-.14-3.57-1.41-4.93a4.38,4.38,0,0,0-2.4-1.44A1.92,1.92,0,0,1,315.06,201.42Z"/><path class="cls-6" d="M133.3,27.84c1.1-.44,2.92,1.14,3.55,2.95.55,1.56-.09,2.44.53,3.22.94,1.18,2,1.19,3.54.88a2,2,0,0,1-.55,2c-1,1-3.14.61-4.14-.72-1.19-1.58-.14-3.57-1.41-4.93a4.31,4.31,0,0,0-2.4-1.44A1.94,1.94,0,0,1,133.3,27.84Z"/><path class="cls-7" d="M76.3,119.74c1.09-.44,2.91,1.15,3.55,3,.55,1.56-.1,2.44.52,3.22.95,1.19,2,1.19,3.54.88a2,2,0,0,1-.55,2c-1,1-3.13.6-4.14-.73-1.19-1.58-.13-3.57-1.4-4.93a4.34,4.34,0,0,0-2.41-1.43A2,2,0,0,1,76.3,119.74Z"/><path class="cls-7" d="M260.36,38.35c.53,1.06-.9,3-2.64,3.79-1.51.68-2.44.11-3.16.8-1.11,1-1,2.14-.58,3.6a2.06,2.06,0,0,1-2-.38c-1.1-.92-.87-3.08.37-4.19,1.47-1.32,3.55-.44,4.8-1.82a4.33,4.33,0,0,0,1.22-2.51A1.94,1.94,0,0,1,260.36,38.35Z"/><path class="cls-6" d="M332.78,129c.9.77.32,3.11-1,4.5-1.14,1.2-2.21,1-2.63,1.94-.62,1.38-.12,2.36.84,3.55a2,2,0,0,1-2,.4c-1.37-.43-2-2.51-1.24-4,.86-1.78,3.11-1.75,3.75-3.5a4.44,4.44,0,0,0,.18-2.8A1.93,1.93,0,0,1,332.78,129Z"/><path class="cls-6" d="M71.54,32.9c1.57-1.54,5.45-.71,7.5,1.39,1.78,1.83,1.2,3.63,2.66,4.26,2.21,1,4,.06,6.33-1.6a3.07,3.07,0,0,1,.18,3.29c-1.1,2.32-4.84,3.45-7.24,2.33-2.84-1.32-2.21-5.09-5.06-6a7.5,7.5,0,0,0-4.76-.13C70.37,35.43,70.88,34,71.54,32.9Z"/></g><path class="cls-5" d="M124.76,142.79c-5,7.07,4.18,29.45,5.38,34.37-9.2,6-34.5-13.6-36.18-27.15,3-4.47,11.35-7,12.33-22.26C110.6,133.46,116.35,139.93,124.76,142.79Z"/><path class="cls-4" d="M126,180.77a23,23,0,0,1-9.42-2.46c-11.06-5.16-23.77-17.64-25.06-28l-.11-.93.52-.77a21,21,0,0,1,3.59-3.81c3.6-3.26,7.67-6.94,8.33-17.22l.43-6.73,4.06,5.39c3.92,5.19,9.42,11.5,17.28,14.18l3.17,1.08-1.94,2.73c-3.31,4.66,2,20.67,4.26,27.51.7,2.1,1.25,3.76,1.51,4.82l.42,1.73-1.49,1A10,10,0,0,1,126,180.77ZM96.6,150.67c1.75,8.22,12.78,18.79,22,23.1,3.41,1.59,6.37,2.25,8.45,1.91-.22-.7-.49-1.5-.77-2.35-3.52-10.62-7-22.24-4.92-29.17A39.74,39.74,0,0,1,108,133.8c-1.81,8.08-6,11.83-9.14,14.71A26,26,0,0,0,96.6,150.67Z"/></svg>