<svg id="Layer_1" data-name="Layer 1" xmlns="http://www.w3.org/2000/svg" xmlns:xlink="http://www.w3.org/1999/xlink" viewBox="0 0 364.23 364.45"><defs><style>.cls-1{fill:none;}.cls-2{fill:#f6f6f6;}.cls-3{clip-path:url(#clip-path);}.cls-4{opacity:0.54;}.cls-5{fill:#f3cec9;}.cls-6{fill:#fff;}.cls-7{fill:#077594;}</style><clipPath id="clip-path"><circle class="cls-1" cx="182.22" cy="182.22" r="182.22"/></clipPath></defs><circle class="cls-2" cx="182.22" cy="182.22" r="182.22"/><g class="cls-3"><g class="cls-4"><path class="cls-5" d="M160.75,406.75c-26.05-15.73-39.43-31.89-39.78-48-.33-15.39,10.81-26.42,21.59-37.1s21.18-21,20-35.06c-1-11.54-9.24-18.75-17.22-25.73-8.23-7.19-16.74-14.63-16.24-26.54.5-11.63,9-18.63,17.33-25.4,8.07-6.61,15.7-12.85,15.9-23,.21-10.41-7.55-17.23-15.77-24.45-8.46-7.43-17.2-15.11-17.07-27.18.11-11.19,7.69-18.36,15-25.3,7-6.67,13.7-13,12.94-22.25-.65-7.92-6.15-12.49-12.53-17.77S131.55,57.84,128.6,47.64C124.65,34,129.6,17.7,143.32-.73l.52-.69L145.91.14c-13.62,18-18.58,33.77-14.82,46.78,2.73,9.43,9.22,14.81,15.49,20,6.54,5.43,12.71,10.55,13.45,19.56.86,10.53-6.56,17.55-13.74,24.34-6.94,6.57-14.12,13.36-14.22,23.44-.11,10.88,7.81,17.84,16.19,25.21s16.88,14.83,16.66,26.45c-.23,11.35-8.68,18.27-16.86,25s-15.93,13-16.37,23.5c-.46,10.67,7.22,17.38,15.34,24.48,8.38,7.31,17,14.88,18.1,27.46,1.3,15.29-9.91,26.39-20.75,37.12-10.38,10.29-21.12,20.93-20.81,35.2.32,15.2,13.29,30.64,38.52,45.88Z"/><path class="cls-5" d="M180.63,403.51c-26-15.72-39.43-31.89-39.77-48-.33-15.38,10.81-26.42,21.58-37.09s21.18-21,20-35.07c-1-11.53-9.23-18.75-17.22-25.72C157,250.4,148.47,243,149,231.05c.49-11.64,9.05-18.63,17.32-25.4,8.08-6.61,15.71-12.85,15.91-23,.2-10.42-7.56-17.24-15.78-24.46-8.45-7.43-17.2-15.11-17.07-27.18.11-11.19,7.7-18.36,15-25.3,7-6.66,13.7-12.95,12.94-22.24-.65-7.92-6.15-12.49-12.52-17.78S151.44,54.6,148.49,44.4c-4-13.66,1-29.93,14.71-48.36l.52-.69,2.07,1.56-.51.68c-13.21,17.75-18,33.25-14.3,46.09,2.73,9.44,9.21,14.82,15.48,20,6.54,5.42,12.72,10.55,13.45,19.56.87,10.52-6.56,17.55-13.74,24.34C159.23,114.16,152.06,121,152,131c-.11,10.88,7.81,17.84,16.2,25.21S185,171.08,184.8,182.7c-.22,11.35-8.68,18.27-16.86,25s-15.93,13-16.37,23.5c-.46,10.67,7.22,17.37,15.35,24.47,8.37,7.32,17,14.88,18.1,27.46,1.29,15.29-9.92,26.39-20.75,37.13-10.39,10.29-21.13,20.93-20.82,35.2.33,15.2,13.29,30.64,38.52,45.87Z"/><path class="cls-5" d="M141.08,403c-26.05-15.73-39.43-31.9-39.78-48.05-.33-15.38,10.81-26.42,21.58-37.09s21.19-21,20-35.07c-1-11.53-9.24-18.74-17.23-25.72-8.23-7.19-16.74-14.63-16.23-26.54.49-11.64,9-18.63,17.32-25.4,8.08-6.61,15.71-12.85,15.91-23,.2-10.41-7.56-17.23-15.77-24.45-8.46-7.43-17.2-15.12-17.08-27.19.12-11.18,7.7-18.36,15-25.29,7-6.67,13.7-13,12.94-22.25-.65-7.92-6.15-12.49-12.52-17.77s-13.37-11.1-16.32-21.3c-4-13.83,1.16-30.33,15.23-49l2.07,1.56-.51.69c-13.2,17.74-18,33.24-14.3,46.08,2.73,9.44,9.21,14.82,15.49,20,6.53,5.42,12.71,10.55,13.45,19.56.86,10.53-6.56,17.55-13.74,24.34-6.94,6.57-14.12,13.36-14.22,23.44-.12,10.88,7.8,17.84,16.19,25.21s16.88,14.83,16.65,26.45c-.22,11.35-8.68,18.27-16.86,25s-15.92,13-16.37,23.5c-.45,10.67,7.22,17.38,15.35,24.48,8.37,7.31,17,14.88,18.1,27.46,1.29,15.28-9.91,26.39-20.75,37.12-10.38,10.29-21.12,20.93-20.82,35.2.33,15.2,13.29,30.64,38.53,45.88Z"/><path class="cls-5" d="M220.07,407.22c-26-15.73-39.43-31.89-39.77-48-.34-15.39,10.81-26.42,21.58-37.1s21.18-21,20-35.06c-1-11.54-9.23-18.75-17.22-25.73-8.23-7.19-16.74-14.62-16.23-26.53.49-11.64,9-18.64,17.32-25.41,8.07-6.6,15.71-12.85,15.91-23,.2-10.41-7.56-17.23-15.78-24.45-8.45-7.43-17.2-15.11-17.07-27.18.11-11.19,7.7-18.36,15-25.3,7-6.66,13.7-13,12.94-22.24-.65-7.93-6.15-12.49-12.53-17.78s-13.36-11.09-16.31-21.29c-4-13.66,1-29.94,14.71-48.36.17-.24.34-.46.52-.7L205.23.62c-13.61,18-18.58,33.76-14.81,46.77,2.73,9.43,9.21,14.81,15.48,20C212.44,72.83,218.61,78,219.35,87c.86,10.52-6.56,17.54-13.74,24.34-6.94,6.56-14.11,13.35-14.22,23.43-.11,10.88,7.81,17.84,16.19,25.21s16.89,14.84,16.66,26.46c-.23,11.34-8.68,18.26-16.86,25s-15.93,13-16.37,23.51c-.46,10.66,7.22,17.37,15.35,24.47,8.37,7.32,17,14.88,18.09,27.46,1.3,15.29-9.91,26.39-20.75,37.13-10.38,10.28-21.12,20.92-20.81,35.19.32,15.21,13.29,30.64,38.52,45.88Z"/><path class="cls-5" d="M240,404c-26.05-15.73-39.43-31.9-39.78-48.05-.33-15.38,10.81-26.41,21.58-37.09s21.19-21,20-35.07c-1-11.53-9.23-18.74-17.22-25.72-8.23-7.19-16.74-14.63-16.23-26.54.5-11.63,9-18.63,17.32-25.4,8.08-6.61,15.71-12.85,15.91-23,.2-10.41-7.56-17.23-15.77-24.45-8.46-7.43-17.2-15.12-17.08-27.19.12-11.18,7.7-18.36,15-25.29,7-6.67,13.7-13,12.94-22.25C236,76,230.5,71.45,224.13,66.16s-13.37-11.09-16.32-21.29c-3.95-13.66,1-29.93,14.71-48.36l.52-.69,2.07,1.56-.51.68c-13.2,17.75-18,33.25-14.3,46.09,2.73,9.44,9.21,14.82,15.48,20,6.54,5.42,12.72,10.55,13.46,19.56.86,10.52-6.57,17.55-13.75,24.34-6.94,6.57-14.11,13.35-14.22,23.44-.11,10.88,7.81,17.84,16.2,25.21s16.88,14.83,16.65,26.45c-.22,11.35-8.68,18.27-16.86,25s-15.92,13-16.37,23.5c-.46,10.67,7.22,17.37,15.35,24.47,8.37,7.32,17,14.89,18.1,27.47,1.29,15.28-9.91,26.38-20.75,37.12-10.39,10.29-21.13,20.93-20.82,35.2.33,15.2,13.29,30.64,38.53,45.88Z"/><path class="cls-5" d="M200.4,403.46c-26.05-15.73-39.43-31.89-39.78-48-.33-15.39,10.81-26.43,21.59-37.1s21.18-21,20-35.06c-1-11.54-9.24-18.75-17.22-25.73-8.24-7.19-16.75-14.63-16.24-26.54.5-11.63,9-18.63,17.32-25.4,8.08-6.61,15.71-12.85,15.91-23,.21-10.41-7.56-17.23-15.77-24.45C177.74,150.71,169,143,169.12,131c.12-11.19,7.7-18.36,15-25.3,7-6.67,13.71-13,12.94-22.25-.64-7.92-6.15-12.49-12.52-17.77S171.2,54.55,168.25,44.35C164.3,30.68,169.25,14.41,183-4l.51-.69,2.08,1.56C172,14.87,167,30.62,170.74,43.62c2.73,9.44,9.22,14.82,15.49,20,6.53,5.43,12.71,10.55,13.45,19.56.86,10.53-6.56,17.55-13.74,24.34C179,114.11,171.82,120.9,171.72,131c-.12,10.88,7.8,17.84,16.19,25.21s16.88,14.83,16.65,26.45c-.22,11.35-8.68,18.27-16.86,25s-15.92,13-16.37,23.5c-.45,10.67,7.22,17.38,15.35,24.48,8.38,7.31,17,14.88,18.1,27.46,1.3,15.29-9.91,26.39-20.75,37.12-10.38,10.29-21.12,20.93-20.82,35.2.33,15.2,13.29,30.64,38.53,45.88Z"/><path class="cls-5" d="M40.07,406.25C14,390.52.64,374.35.29,358.2,0,342.82,11.1,331.78,21.88,321.11s21.18-21,20-35.07c-1-11.53-9.24-18.74-17.22-25.72-8.23-7.19-16.74-14.63-16.24-26.54.5-11.64,9.05-18.63,17.33-25.4,8.07-6.61,15.71-12.85,15.9-23,.21-10.42-7.55-17.24-15.77-24.46-8.46-7.42-17.2-15.11-17.07-27.18.11-11.18,7.69-18.36,15-25.29,7-6.67,13.7-13,12.94-22.25-.65-7.92-6.15-12.49-12.53-17.78S10.88,57.33,7.92,47.13C4,33.47,8.92,17.2,22.64-1.22c.17-.24.34-.47.52-.7L25.23-.36l-.52.69c-13.2,17.74-18,33.24-14.29,46.08,2.72,9.44,9.21,14.82,15.48,20C32.44,71.85,38.61,77,39.35,86c.86,10.52-6.56,17.55-13.74,24.34-6.94,6.57-14.12,13.36-14.22,23.44-.11,10.88,7.81,17.84,16.19,25.21s16.89,14.83,16.66,26.45c-.23,11.35-8.68,18.27-16.86,25s-15.93,13-16.37,23.5c-.46,10.67,7.22,17.37,15.34,24.48,8.38,7.31,17,14.88,18.1,27.46,1.3,15.28-9.91,26.38-20.75,37.12-10.38,10.29-21.12,20.93-20.81,35.2.32,15.2,13.29,30.64,38.52,45.88Z"/><path class="cls-5" d="M60,403c-26-15.73-39.43-31.89-39.77-48-.33-15.38,10.81-26.42,21.58-37.09s21.18-21,20-35.07c-1-11.53-9.23-18.75-17.22-25.73-8.23-7.19-16.74-14.62-16.23-26.53.49-11.64,9.05-18.64,17.32-25.4,8.08-6.61,15.71-12.86,15.91-23,.2-10.42-7.56-17.24-15.78-24.46-8.45-7.43-17.2-15.11-17.07-27.18.12-11.19,7.7-18.36,15-25.3,7-6.66,13.7-13,12.94-22.24C56,75,50.5,70.48,44.13,65.19S30.76,54.1,27.81,43.9c-4-13.84,1.12-30.37,15.23-49l2.07,1.56-.51.68c-13.21,17.74-18,33.25-14.3,46.09C33,52.61,39.51,58,45.78,63.19c6.54,5.43,12.72,10.55,13.46,19.57.86,10.52-6.57,17.54-13.75,24.34-6.94,6.56-14.11,13.35-14.22,23.43-.11,10.89,7.81,17.84,16.2,25.21s16.88,14.84,16.65,26.46c-.22,11.34-8.68,18.26-16.86,25s-15.93,13-16.37,23.51c-.46,10.66,7.22,17.37,15.35,24.47,8.37,7.32,17,14.88,18.1,27.46,1.29,15.29-9.92,26.39-20.75,37.13C33.2,330,22.46,340.64,22.77,354.91c.33,15.21,13.29,30.64,38.52,45.88Z"/><path class="cls-5" d="M20.4,402.48c-26-15.72-39.43-31.89-39.78-48C-19.71,339.06-8.57,328,2.2,317.35s21.19-21,20-35.07C21.22,270.75,13,263.53,5,256.56c-8.23-7.2-16.74-14.63-16.23-26.54.5-11.64,9.05-18.64,17.32-25.4,8.08-6.61,15.71-12.85,15.91-23,.21-10.42-7.56-17.24-15.77-24.46C-2.26,149.73-11,142.05-10.88,130c.12-11.19,7.7-18.36,15-25.3,7-6.66,13.7-13,12.94-22.24C16.44,74.51,10.94,70,4.57,64.66S-8.8,53.57-11.75,43.37C-15.7,29.71-10.75,13.44,3-5l.51-.69L5.55-4.12C-8,13.89-13,29.64-9.26,42.65c2.73,9.44,9.21,14.82,15.48,20,6.54,5.42,12.72,10.55,13.46,19.56.86,10.52-6.56,17.54-13.74,24.34C-1,113.13-8.18,119.92-8.28,130c-.12,10.88,7.8,17.84,16.19,25.21s16.88,14.83,16.65,26.45c-.22,11.34-8.68,18.26-16.86,25s-15.92,13-16.37,23.51C-9.12,240.8-1.45,247.5,6.68,254.6c8.38,7.32,17,14.88,18.1,27.46,1.29,15.29-9.91,26.39-20.75,37.13-10.38,10.29-21.12,20.93-20.82,35.2.33,15.2,13.29,30.63,38.53,45.87Z"/><path class="cls-5" d="M99.39,406.72c-26-15.73-39.43-31.89-39.78-48-.33-15.39,10.81-26.42,21.59-37.1s21.18-21,20-35.06C100.21,275,92,267.77,84,260.79c-8.23-7.19-16.74-14.63-16.24-26.54.5-11.63,9-18.63,17.33-25.4,8.08-6.61,15.71-12.85,15.91-23,.2-10.41-7.56-17.23-15.78-24.45C76.74,154,68,146.28,68.12,134.21c.11-11.18,7.7-18.36,15-25.29,7-6.67,13.7-13,12.94-22.25-.65-7.92-6.15-12.49-12.53-17.77S70.2,57.81,67.25,47.61c-4-13.67,1-29.94,14.71-48.37l.52-.69L84.55.11C71,18.14,66,33.88,69.74,46.88c2.73,9.44,9.21,14.82,15.48,20,6.54,5.43,12.71,10.55,13.45,19.56C99.53,97,92.11,104,84.93,110.8c-6.94,6.57-14.11,13.36-14.22,23.44-.11,10.88,7.81,17.84,16.19,25.21s16.89,14.83,16.66,26.45c-.23,11.35-8.68,18.27-16.86,25s-15.93,13-16.37,23.5c-.46,10.67,7.22,17.38,15.35,24.48,8.37,7.31,17,14.88,18.09,27.46,1.3,15.28-9.91,26.39-20.75,37.12-10.38,10.29-21.12,20.93-20.81,35.2.32,15.2,13.29,30.64,38.52,45.88Z"/><path class="cls-5" d="M119.28,403.48c-26-15.72-39.43-31.89-39.78-48-.33-15.38,10.81-26.42,21.58-37.09s21.19-21,20-35.07c-1-11.53-9.23-18.75-17.22-25.72-8.23-7.2-16.74-14.63-16.23-26.54.5-11.64,9-18.64,17.32-25.4,8.08-6.61,15.71-12.85,15.91-23,.2-10.42-7.56-17.24-15.77-24.46C96.62,150.73,87.88,143.05,88,131c.12-11.19,7.7-18.36,15-25.3,7-6.66,13.7-13,12.94-22.24-.65-7.93-6.15-12.49-12.52-17.78S90.08,54.57,87.13,44.37c-3.95-13.66,1-29.93,14.71-48.36l.52-.69,2.07,1.56-.51.68c-13.2,17.75-18,33.25-14.3,46.09,2.73,9.43,9.21,14.81,15.48,20,6.54,5.42,12.72,10.54,13.46,19.56.86,10.52-6.57,17.54-13.75,24.34C97.87,114.13,90.7,120.92,90.59,131c-.11,10.88,7.81,17.84,16.2,25.2s16.88,14.84,16.65,26.46c-.22,11.34-8.68,18.26-16.86,25s-15.92,13-16.37,23.51c-.46,10.66,7.22,17.37,15.35,24.47,8.37,7.32,17,14.88,18.1,27.46,1.29,15.29-9.91,26.39-20.75,37.13-10.39,10.29-21.12,20.93-20.82,35.19.33,15.21,13.29,30.65,38.53,45.88Z"/><path class="cls-5" d="M79.72,403c-26-15.73-39.43-31.9-39.78-48-.33-15.38,10.81-26.42,21.59-37.09s21.18-21,20-35.07C80.54,271.22,72.28,264,64.3,257c-8.24-7.19-16.75-14.63-16.24-26.54.5-11.64,9-18.63,17.32-25.4,8.08-6.61,15.71-12.85,15.91-23,.21-10.42-7.55-17.24-15.77-24.46-8.46-7.43-17.2-15.11-17.08-27.18.12-11.18,7.7-18.36,15-25.29,7-6.67,13.7-13,12.93-22.25C75.77,75,70.26,70.42,63.89,65.13S50.52,54,47.57,43.84C43.57,30,48.72,13.5,62.81-5.21l2.07,1.56c-13.6,18-18.58,33.76-14.82,46.77,2.73,9.44,9.22,14.82,15.49,20C72.09,68.56,78.26,73.69,79,82.7c.86,10.52-6.56,17.55-13.74,24.34-6.94,6.57-14.12,13.35-14.22,23.44-.12,10.88,7.8,17.84,16.19,25.21s16.88,14.83,16.65,26.45c-.22,11.35-8.68,18.27-16.86,25s-15.92,13-16.37,23.5C50.2,241.27,57.87,248,66,255.07c8.38,7.32,17,14.89,18.1,27.47,1.29,15.28-9.91,26.38-20.75,37.12C53,330,42.23,340.59,42.53,354.86c.33,15.2,13.29,30.64,38.53,45.88Z"/><path class="cls-5" d="M380.27,399.26c-26-15.73-39.43-31.89-39.78-48-.33-15.39,10.81-26.42,21.59-37.1s21.18-21,20-35.06c-1-11.54-9.24-18.75-17.22-25.73-8.23-7.19-16.74-14.62-16.24-26.53.5-11.64,9.05-18.64,17.33-25.41,8.07-6.6,15.7-12.85,15.9-23,.21-10.41-7.55-17.23-15.77-24.45-8.46-7.43-17.2-15.11-17.07-27.18.11-11.19,7.69-18.36,15-25.3,7-6.67,13.7-13,12.94-22.24-.65-7.93-6.16-12.49-12.53-17.78s-13.37-11.09-16.32-21.29c-4-13.84,1.15-30.36,15.24-49.06l2.07,1.56c-13.58,18-18.58,33.77-14.81,46.78,2.72,9.43,9.21,14.81,15.48,20C372.64,64.87,378.81,70,379.55,79c.86,10.53-6.56,17.55-13.74,24.34-6.94,6.57-14.12,13.36-14.22,23.44-.11,10.88,7.81,17.84,16.19,25.21s16.88,14.84,16.66,26.46c-.23,11.34-8.68,18.26-16.86,25s-15.93,13-16.38,23.51c-.45,10.66,7.23,17.37,15.35,24.47,8.38,7.32,17,14.88,18.1,27.46,1.3,15.29-9.91,26.39-20.75,37.13-10.38,10.28-21.12,20.92-20.81,35.19.32,15.21,13.28,30.64,38.52,45.88Z"/><path class="cls-5" d="M279.27,402.52c-26-15.73-39.44-31.89-39.78-48-.33-15.39,10.81-26.43,21.58-37.1s21.19-21,20-35.06c-1-11.54-9.23-18.75-17.22-25.73-8.23-7.19-16.74-14.63-16.23-26.54.49-11.63,9.05-18.63,17.32-25.4,8.08-6.61,15.71-12.85,15.91-23,.2-10.41-7.56-17.23-15.78-24.45-8.45-7.43-17.2-15.11-17.07-27.18.12-11.19,7.7-18.36,15-25.3,7.05-6.67,13.7-13,12.94-22.24-.65-7.93-6.15-12.5-12.52-17.78s-13.37-11.09-16.32-21.29c-4-13.84,1.15-30.35,15.23-49.06l2.07,1.56c-13.6,18-18.57,33.77-14.81,46.78,2.73,9.43,9.21,14.81,15.48,20,6.54,5.43,12.72,10.55,13.46,19.56.86,10.53-6.57,17.55-13.75,24.34-6.94,6.57-14.11,13.36-14.22,23.44-.11,10.88,7.81,17.84,16.2,25.21s16.88,14.83,16.65,26.45c-.22,11.35-8.68,18.27-16.86,25s-15.92,13-16.37,23.5c-.46,10.67,7.22,17.38,15.35,24.48,8.37,7.31,17,14.88,18.1,27.46,1.29,15.29-9.92,26.39-20.75,37.12-10.39,10.29-21.13,20.93-20.82,35.2.33,15.2,13.29,30.64,38.53,45.88Z"/><path class="cls-5" d="M299.15,399.28c-26-15.72-39.43-31.89-39.78-48-.33-15.38,10.81-26.42,21.59-37.09s21.18-21,20-35.07c-1-11.53-9.24-18.75-17.22-25.72-8.24-7.19-16.75-14.63-16.24-26.54.5-11.64,9.05-18.63,17.32-25.4,8.08-6.61,15.71-12.85,15.91-23C300.93,168,293.16,161.18,285,154c-8.46-7.43-17.2-15.11-17.08-27.18.12-11.19,7.7-18.36,15-25.29,7.05-6.67,13.71-13,12.94-22.25-.65-7.92-6.15-12.49-12.52-17.78S270,50.37,267,40.17c-4-13.83,1.15-30.35,15.23-49.05l2.08,1.56-.52.69c-13.2,17.74-18,33.24-14.3,46.08,2.73,9.44,9.22,14.82,15.49,20C291.51,64.89,297.69,70,298.43,79c.86,10.52-6.56,17.55-13.74,24.34-6.94,6.57-14.12,13.35-14.22,23.44-.12,10.88,7.8,17.84,16.19,25.21s16.88,14.83,16.65,26.45c-.22,11.35-8.68,18.27-16.86,25s-15.92,13-16.37,23.5c-.45,10.67,7.22,17.37,15.35,24.47,8.38,7.32,17,14.89,18.1,27.46,1.29,15.29-9.91,26.39-20.75,37.13-10.38,10.29-21.12,20.93-20.82,35.2.33,15.2,13.29,30.64,38.53,45.88Z"/><path class="cls-5" d="M259.59,398.76c-26-15.73-39.43-31.89-39.78-48.05-.33-15.38,10.81-26.42,21.59-37.09s21.18-21,20-35.06c-1-11.54-9.24-18.75-17.22-25.73-8.23-7.19-16.74-14.63-16.24-26.54.5-11.63,9-18.63,17.33-25.4,8.07-6.61,15.7-12.85,15.9-23,.21-10.41-7.55-17.23-15.77-24.45-8.46-7.43-17.2-15.12-17.07-27.19.11-11.18,7.69-18.36,15-25.29,7-6.67,13.7-13,12.94-22.25-.65-7.92-6.16-12.49-12.53-17.77s-13.37-11.09-16.32-21.3c-3.95-13.66,1-29.93,14.72-48.36l.52-.69,2.07,1.56-.51.68c-13.21,17.75-18,33.25-14.31,46.09,2.73,9.44,9.22,14.82,15.49,20,6.54,5.42,12.71,10.55,13.45,19.56.86,10.52-6.56,17.55-13.74,24.34-6.94,6.57-14.12,13.36-14.22,23.44-.11,10.88,7.81,17.84,16.19,25.21s16.88,14.83,16.66,26.45c-.23,11.35-8.68,18.27-16.86,25s-15.93,13-16.38,23.5c-.45,10.67,7.23,17.38,15.35,24.48,8.38,7.31,17,14.88,18.1,27.46,1.3,15.28-9.91,26.39-20.75,37.12-10.38,10.29-21.12,20.93-20.81,35.2.32,15.2,13.28,30.64,38.52,45.88Z"/><path class="cls-5" d="M338.59,403c-26-15.73-39.43-31.89-39.78-48-.33-15.39,10.81-26.42,21.58-37.1s21.19-21,20-35.06c-1-11.54-9.23-18.75-17.22-25.73-8.23-7.19-16.74-14.62-16.23-26.53.49-11.64,9.05-18.64,17.32-25.4,8.08-6.61,15.71-12.85,15.91-23,.2-10.41-7.56-17.23-15.77-24.45-8.46-7.43-17.2-15.11-17.08-27.18.12-11.19,7.7-18.36,15-25.3,7.05-6.66,13.7-13,12.94-22.24-.65-7.93-6.15-12.49-12.52-17.78s-13.37-11.09-16.32-21.29c-3.95-13.66,1-29.94,14.71-48.36.18-.24.35-.46.52-.7l2.07,1.57-.51.68c-13.2,17.74-18,33.24-14.3,46.09,2.73,9.43,9.21,14.81,15.48,20,6.54,5.43,12.72,10.55,13.46,19.57.86,10.52-6.57,17.54-13.75,24.34-6.94,6.56-14.11,13.35-14.22,23.43-.11,10.88,7.81,17.84,16.2,25.21s16.88,14.84,16.65,26.46c-.22,11.34-8.68,18.26-16.86,24.95s-15.92,13-16.37,23.51c-.46,10.66,7.22,17.37,15.35,24.47,8.37,7.32,17,14.88,18.1,27.46,1.29,15.29-9.91,26.39-20.75,37.13C311.83,330,301.1,340.62,301.4,354.89c.33,15.21,13.29,30.64,38.53,45.88Z"/><path class="cls-5" d="M358.47,399.76C332.42,384,319,367.86,318.69,351.71c-.33-15.38,10.81-26.42,21.59-37.09s21.18-21,20-35.07c-1-11.53-9.24-18.74-17.22-25.72-8.23-7.19-16.75-14.63-16.24-26.54.5-11.64,9.05-18.63,17.32-25.4,8.08-6.61,15.71-12.85,15.91-23,.21-10.41-7.55-17.23-15.77-24.45-8.46-7.43-17.2-15.12-17.08-27.19.12-11.18,7.7-18.36,15-25.29,7-6.67,13.7-13,12.94-22.25-.65-7.92-6.16-12.49-12.53-17.77s-13.37-11.1-16.32-21.3C322.37,27,327.32,10.71,341-7.72l.52-.69,2.07,1.56c-13.59,18-18.58,33.77-14.82,46.77,2.73,9.44,9.22,14.82,15.49,20,6.54,5.42,12.71,10.55,13.45,19.56.86,10.52-6.56,17.55-13.74,24.34-6.94,6.57-14.12,13.36-14.22,23.44-.12,10.88,7.81,17.84,16.19,25.21s16.88,14.83,16.66,26.45c-.23,11.35-8.69,18.27-16.86,25s-15.93,13-16.38,23.5c-.45,10.67,7.22,17.37,15.35,24.48,8.38,7.31,17,14.88,18.1,27.46,1.3,15.28-9.91,26.39-20.75,37.12-10.38,10.29-21.12,20.93-20.82,35.2.33,15.2,13.29,30.64,38.53,45.88Z"/><path class="cls-5" d="M318.91,399.23c-26-15.73-39.43-31.89-39.78-48-.33-15.39,10.82-26.42,21.59-37.1s21.18-21,20-35.06c-1-11.54-9.23-18.75-17.22-25.73-8.23-7.19-16.74-14.63-16.24-26.54.5-11.63,9.05-18.63,17.33-25.4,8.07-6.61,15.71-12.85,15.91-23,.2-10.41-7.56-17.23-15.78-24.45-8.45-7.43-17.2-15.11-17.07-27.18.11-11.19,7.7-18.36,15-25.3,7-6.67,13.7-13,12.94-22.25-.65-7.92-6.15-12.49-12.53-17.77s-13.36-11.09-16.31-21.29c-4-13.67,1-29.94,14.71-48.37l.52-.69,2.07,1.56c-13.61,18-18.58,33.77-14.81,46.78,2.73,9.43,9.21,14.81,15.48,20C311.28,64.84,317.45,70,318.19,79c.86,10.53-6.56,17.55-13.74,24.34-6.94,6.57-14.11,13.36-14.22,23.44-.11,10.88,7.81,17.84,16.19,25.21s16.89,14.83,16.66,26.45c-.23,11.35-8.68,18.27-16.86,25s-15.93,13-16.37,23.5c-.46,10.67,7.22,17.38,15.35,24.48,8.37,7.31,17,14.88,18.09,27.46,1.3,15.29-9.91,26.39-20.75,37.12-10.38,10.29-21.12,20.93-20.81,35.2.32,15.2,13.29,30.64,38.52,45.88Z"/></g><path class="cls-6" d="M177.76,101.87c0-.45,0-.91,0-1.37a30.5,30.5,0,0,0-51.52-22.11,8.44,8.44,0,0,0-3.84-.93A8.6,8.6,0,0,0,114,85.91c-.13,2.78.25,7.28,3.12,9.43-.62,2.43-.15,5.87-.15,8.48,0,16.85,13.48,27.19,30.33,27.19a30.36,30.36,0,0,0,18.15-6c4.81,2.61,10.57,2.93,13.42.66C183.64,121.87,181.85,109.42,177.76,101.87Z"/><path class="cls-7" d="M147.28,133.51c-19.33,0-32.83-12.21-32.83-29.69,0-.73,0-1.52-.08-2.34a32.64,32.64,0,0,1,0-5.23c-2.8-3.07-3.05-7.76-2.92-10.47a11.16,11.16,0,0,1,11-10.82,11,11,0,0,1,3.33.52,33,33,0,0,1,54.53,25c0,.27,0,.53,0,.8,4,7.91,6.33,21.4.12,26.35-3.32,2.65-9.33,2.71-14.74.28A32.73,32.73,0,0,1,147.28,133.51ZM122.43,80a6.09,6.09,0,0,0-6,6.07c-.06,1.29-.1,5.65,2.12,7.31l1.34,1L119.52,96a21,21,0,0,0-.15,5.28c0,.9.08,1.78.08,2.58,0,14.54,11.45,24.69,27.83,24.69A27.81,27.81,0,0,0,163.94,123l1.28-1,1.41.76c4.32,2.36,8.9,2.31,10.66.91,3.22-2.57,2.33-13.19-1.73-20.68l-.33-.61,0-.69q0-.63,0-1.26A28,28,0,0,0,128,80.2l-1.28,1.22-1.58-.8A5.82,5.82,0,0,0,122.43,80Z"/><path class="cls-6" d="M267.69,119.61A8.37,8.37,0,0,0,254,113.18a28.79,28.79,0,0,0-47,22.26c0,.75,0,1.49.1,2.22h0c-.77,6.41-2.13,22.75,4.29,24.3,2.21.54,5.21-.81,7.54-3.2a28.66,28.66,0,0,0,16.86,5.46c15.9,0,30.7-11.93,30.7-27.83a22.08,22.08,0,0,0-1.34-7.37C267.74,127.62,267.69,122.81,267.69,119.61Z"/><path class="cls-7" d="M235.73,166.72a31,31,0,0,1-16.64-4.8c-2.73,2.16-5.79,3.09-8.35,2.47-6.05-1.47-8.14-10.49-6.21-26.82-.05-.77-.08-1.47-.08-2.13a31.29,31.29,0,0,1,49.63-25.34,10.86,10.86,0,0,1,16.11,9.51v.15c0,3.1,0,7.5-2.23,10.11a21.81,21.81,0,0,1,1,6.53C268.93,152.83,253.73,166.72,235.73,166.72Zm-17.15-11.26,1.76,1.27a26,26,0,0,0,15.39,5c15.29,0,28.2-11.6,28.2-25.32a19.57,19.57,0,0,0-1.23-6.64l-.6-2,1.82-1c1.27-.68,1.27-5.15,1.27-7.06v-.15a5.87,5.87,0,0,0-9.61-4.51L254,116.43l-1.6-1.31a26.28,26.28,0,0,0-42.94,20.32c0,.61,0,1.28.09,2l.13,1.67-.3.15c-1.42,13.13.29,19.7,2.55,20.24,1.07.26,3.23-.53,5.16-2.52Z"/><path class="cls-7" d="M104.05,133.32c3.22,15.29,2.94,13.12,7,17.07,3.43,3.38,6.46,5.46,22.62,4.28,17.15,24,32.92,52.53,52.25,62.19,27,13.47,82.72-32.13,93.95-39,1.42,11.72-21.19,53.83-53.28,76.58-29.56,21-55.12-8.84-74,6.53-9.26,40.37-8.94,68.12-.39,110.74,4.13,20.59,6.91,25.85,3.15,30C138.72,420.21,27,382.55,9.08,307.5c-8-33.6,5.49-63.1,18.13-90.64C51.17,164.63,82,143,104.05,133.32Z"/><path class="cls-7" d="M257.12,174.25c0,21.08-6,39.65-4.78,83.51,1.21,42.38-10.51,89.95-13.73,103-5.7,23.1-9.11,29.32-5.16,33.48,14.36,15.15,106.68-17,123.19-81.12,8.39-32.56-6.29-59.69-33.91-110.74-19.39-35.85-33.84-46.26-43.35-45.93-3.22,7-.73,7.42-7.87,14.47C265.7,176.66,261.09,173.83,257.12,174.25Z"/><path class="cls-7" d="M176.86,93c10.57.68,17.31-11.32,13.86-30.4-1.35-7.52-5.72-16.12-9.8-16-4.9.17-5.78,12.82-11.25,13.43-6,.67-7.66-14.26-18.87-20.33-14.93-8.08-39.32,3.59-39.2,10.53.07,4.81,11.93,7.58,11.25,10.16-.91,3.43-21.26-3.57-29.4,5.45C88.63,71.21,88.84,81.3,92.72,84c5,3.51,15.83-5.37,18.15-2.54,1.25,1.54-1.8,4.28-2.18,10.17-.42,6.55,5,14.2,6.62,14,1.84-.19-1.62-10.35-1.35-13.33.63-7,1.66-9.09,3.44-10.88,2.63-2.63,6.46-4,9.51-.93,4.17,4.23,3.25,13.88,5.38,14.73,2.75,1.09,7.29-12.84,14.51-13.43C156.11,81.09,166.72,92.35,176.86,93Z"/><path class="cls-7" d="M205.17,129.78c1,.87,1.34-8.37,7.43-9.83,7.05-1.69,8.05,3.74,13.86,5.19,5.65,1.41,7.77-12.61,23.2,1.72,7.67-3.64,3.94-7.17,3.43-13.12,6.8-7.16,7.88-3.33,9.56-2.91,4.21,1,8,13.1,4.16,20.21,3,1.36,9.65-.31,10.89-3,1.47-3.12,1.77-11.8-4.27-13,1.14-3,1.32-8.71-.61-13.83-2.61-6.94-11.18-12.2-18.51-11.6-4.64.39-6.63.68-8.95,2.65-1.75-7-10.15-10.4-15.67-10C223.78,82.77,215,89.2,215,97.77c-3.5-4-9.15-2-13.83.82-5.62,3.4-6.25,12.61-5.49,17.9C196.05,118.77,200.39,125.56,205.17,129.78Z"/><path class="cls-6" d="M291.76,158.79c-.18-1.82,2.7-4.14,5.23-4.54,4.76-.74,10.74,4.91,12.22,11.17,1.66,7-2,16.1-7.33,16.76-4.67.59-10.66-5.36-10.65-10.47,0-4.13,3.94-7.94,2.1-10.82C292.7,159.9,291.85,159.73,291.76,158.79Z"/><path class="cls-7" d="M301.24,184.72a11.73,11.73,0,0,1-7.53-3.24c-3.08-2.71-5-6.46-5-9.78a15.55,15.55,0,0,1,1.61-6.07c.57-1.34,1.22-2.87.88-3.4a1.73,1.73,0,0,0-.39-.4,4.21,4.21,0,0,1-1.56-2.79h0c-.34-3.39,3.67-6.69,7.34-7.26,5.44-.85,13,4.56,15,13.07a20.33,20.33,0,0,1-2.86,15.35,9.63,9.63,0,0,1-6.6,4.46A7.46,7.46,0,0,1,301.24,184.72Zm-6.77-26.34a6.08,6.08,0,0,1,1,1.16c1.76,2.76.52,5.69-.48,8a11.61,11.61,0,0,0-1.22,4.13c0,1.87,1.32,4.29,3.29,6,1.55,1.38,3.3,2.13,4.55,2a5,5,0,0,0,3.12-2.36A15.26,15.26,0,0,0,306.78,166c-1.29-5.48-6.35-9.75-9.4-9.28A5.48,5.48,0,0,0,294.47,158.38Zm-.24.38Z"/></g><path class="cls-6" d="M136.06,129.33c-6.3,9.09-6.79,17.15-4.19,26.92-2.41,7-28.5-5.45-27.3-20.47,4.56-6,7.14-14.36,13.62-21.15C121.85,118.47,129.76,127.1,136.06,129.33Z"/><path class="cls-7" d="M128.1,160.77a14.83,14.83,0,0,1-3-.34c-10-2.08-24-12.8-23-24.85l.06-.73.44-.59a60.49,60.49,0,0,0,4.77-7.9c2.32-4.3,5-9.18,9-13.45l1.81-1.9,2.55,2.68c3.51,3.7,10.81,11.39,16.15,13.28l3.08,1.1-1.86,2.68c-5.43,7.84-6.5,14.81-3.82,24.86l.19.74-.24.72C133.82,158.29,132.43,160.77,128.1,160.77ZM107,136.65c-.13,9.25,12.09,17.44,19.06,18.89a6.71,6.71,0,0,0,3,.1c-2.35-9.71-1.37-17.48,3.26-25.25-5.15-2.87-10.56-8.31-14.14-12a64.21,64.21,0,0,0-6.51,10.4A69.73,69.73,0,0,1,107,136.65Z"/><path class="cls-6" d="M253.23,160.46c6.91,7.91,7.14,14.92,6.52,25,3.23,6.54,25.08-9.23,21.56-23.83-4.9-5.15-8.49-13-15.18-18.58C263.63,147.42,258.27,157.22,253.23,160.46Z"/><path class="cls-7" d="M262.55,189.46a5.35,5.35,0,0,1-5-2.91l-.3-.6,0-.67c.59-9.53.49-15.85-5.9-23.18l-1.91-2.18,2.44-1.56c4.2-2.71,9.18-11.47,11.58-15.68l2-3.49,2.29,1.93c4.22,3.54,7.29,7.92,10,11.78a62.11,62.11,0,0,0,5.4,7l.46.49.15.65c2.85,11.81-8.63,24.49-17.47,27.7A11.08,11.08,0,0,1,262.55,189.46Zm-.24-5c.79.1,2.8-.27,5.82-2.29,6.32-4.2,12.14-12.31,10.88-19.34a71.43,71.43,0,0,1-5.37-7,67.3,67.3,0,0,0-6.9-8.77c-3,5.21-6.39,10.57-10,13.85C262.5,168.46,262.81,175.6,262.31,184.44Z"/></svg>