<svg xmlns="http://www.w3.org/2000/svg" viewBox="0 0 236.62 219.22"><defs><style>.cls-1{fill:#fff;}.cls-2{fill:#077594;}.cls-3{fill:#e05e48;}</style></defs><g id="Layer_2" data-name="Layer 2"><g id="Layer_1-2" data-name="Layer 1"><path class="cls-1" d="M78.77,105.21c6.18,6.51,20.06,11.28,28.58,7.8,12.52-5.1,15.9-11.87,23.35-24.52,2.9-.27,4.91.51,8.29-.9,4.53-1.88,8.66-6.5,9.29-10.86-7.46-13-22-23.27-26.3-25.33-12-5.82-26.89-13-37.53-6.71C72.3,51.87,65,63.5,64.83,74.68c-4.19.86-9,2.87-11.3,5-4.83,4.53-2.26,15.54,4.6,17.73,4.35,1.38,8.64.17,12.29-1.72C72.87,100.44,75.1,101.36,78.77,105.21Z"/><path class="cls-2" d="M100.67,116.69c-8.66,0-18.5-4.27-23.72-9.76h0c-1.07-1.13-2-2-2.92-2.82A24.5,24.5,0,0,1,69.4,99a17.25,17.25,0,0,1-12,.87c-4.09-1.3-7.32-5.18-8.44-10.11-1-4.64.05-9.17,2.88-11.83,2.47-2.32,6.81-4.17,10.61-5.2,1-11.65,8.76-23.06,20.74-30.14,11.8-7,27.38.56,39.9,6.61,4.34,2.1,19.53,12.66,27.38,26.33l.43.75-.12.86C150,82.22,145.47,87.61,140,89.9a14.62,14.62,0,0,1-6.68,1l-1.1,0-.57,1c-6.69,11.41-10.73,18.3-23.3,23.43A20.25,20.25,0,0,1,100.67,116.69Zm-20.09-13.2c5.5,5.79,18.26,10.3,25.83,7.21,11-4.49,14.3-10.12,20.87-21.33l1.91-3.24,1.27-.13a24.93,24.93,0,0,1,2.95,0,9.88,9.88,0,0,0,4.62-.66c3.51-1.46,6.75-5,7.61-8.12-7.47-12.38-21.39-21.89-24.75-23.52-11.44-5.53-25.69-12.41-35.17-6.81-11.17,6.6-18.21,17.28-18.39,27.88l0,2-2,.4c-4,.82-8.3,2.72-10.1,4.41C53.7,83,53.16,85.68,53.82,88.6c.57,2.52,2.2,5.54,5.07,6.46,3.08,1,6.47.47,10.38-1.56l2.22-1.15,1.15,2.22a18.2,18.2,0,0,0,4.76,5.85c.93.85,2,1.81,3.18,3.07Z"/><path class="cls-2" d="M236.62,219.22H34C33.58,211.74,53.57,204,69.81,185c14.94-17.49,11.89-33.39,17.15-46,7.86,1.17,12.6,4.09,26.39.48,11-2.88,11.59-4,18.23-9.6,10.06,7.83,15.07,32.25,39.34,50.86,25.9,19.86,45.84,28.71,65.7,26.39Z"/><path class="cls-2" d="M68.62,76.16c14.7-9.3,15.78-18,25.83-23.49,14.52-7.86,24.77,3.27,34.17-3.7,11-8.19,11.94-34.65,0-44.48-13.76-11.33-43.44.43-53.94,16.89-3,4.62-3.46,8.16-8.23,12.76-8.93,8.6-19,7.67-28,10.3C18.46,50.29,2.4,74.35,1,93.85-.8,118,20.78,123.74,17.44,147,14.54,167.15-3.37,174.12.56,188.56c2.44,9,11.7,15,19.35,16.88,20.79,5.09,48.28-16.08,54.36-38.7,2.88-10.73.14-18.75,7.41-30.89,5.52-9.21,12.68-13.67,13.17-19.95-9.76-2.59-19.52-10.55-24.35-21.82C59.79,95.59,58.77,87,58.62,84S60,73.88,68.62,76.16Z"/><path class="cls-1" d="M115.71,110.31c1.94,17.39,2.24,14.54,11,28.71-17.39,5.75-31.57,5.59-37.44-.89.81-17.64,1-8.5,1-24.68C96.53,114.18,107.32,114.7,115.71,110.31Z"/><path class="cls-2" d="M104.55,145.7c-7.65,0-13.55-2-17.09-5.89l-.69-.77,0-1c.33-7.13.55-9.91.7-11.76.2-2.61.25-3.23.25-12.8v-2.81l2.79.33c9.9,1.15,18.2.16,24-2.87l3.24-1.69.41,3.62c1.51,13.56,1.79,14,6.54,21.23,1.11,1.69,2.48,3.78,4.13,6.45l1.68,2.69-3,1C118.84,144.27,111.06,145.7,104.55,145.7Zm-12.69-8.56c5.12,4.54,16.71,4.71,31,.47-.88-1.38-1.66-2.57-2.34-3.6-4.76-7.27-5.61-8.85-6.94-20-5.69,2.12-12.78,2.89-20.86,2.24a103.83,103.83,0,0,1-.27,10.44C92.36,128.36,92.15,130.9,91.86,137.14Z"/><path class="cls-3" d="M110.73,140c0-6.69,8.51-10.23,13.63-11.18,7.14-1.33,16.9,1.82,19.65,9.57,3.7,10.45,3.24,16.36-2.39,20.4C128.56,154,119.58,148.49,110.73,140Z"/><path class="cls-3" d="M133.92,147.66c1.4,13.25,15.77,51.74,16.53,71.56,16.28,0,26.78-.2,36.35,0C197.1,201.91,147.93,141.35,133.92,147.66Z"/></g></g></svg>