<svg xmlns="http://www.w3.org/2000/svg" viewBox="0 0 263 217.01"><defs><style>.cls-1{fill:#077594;}.cls-2{fill:#fff;}.cls-3{fill:#e05e48;}</style></defs><g id="Layer_2" data-name="Layer 2"><g id="Layer_1-2" data-name="Layer 1"><path class="cls-1" d="M53.54,217c-10.79-16.56-5-30-.77-44.37,17.68,13.12,37.4,29.88,56.18,22.47s5.54-48.67,36-82.59c9.64,3.1,26-4.93,33.15-19.66,19.78,4.1,22.69,41.32,55.23,79.93C255,198.55,263.75,207.38,263,217Z"/><path class="cls-1" d="M53.86,175.89l-2.13-1c-3.72-1.71-5.71-4.37-8-7.44A43.25,43.25,0,0,0,28.44,154a77.67,77.67,0,0,0-14-6.05c-4.82-1.64-8.3-2.83-9.73-7.08A17.68,17.68,0,0,1,8.07,123.7a11.24,11.24,0,0,1,11-3.72,53.64,53.64,0,0,1,21.65,10.34c3.23,2.45,5.79,2.2,8.5,1.93s6.21-.61,9.16,2.73c8.61,9.7,1.52,29.65-3.44,38.84Zm-37.28-51.2a6.53,6.53,0,0,0-4.81,2.37,12.77,12.77,0,0,0-2.3,12.17c.62,1.82,2.18,2.44,6.61,4a82.43,82.43,0,0,1,14.8,6.41,48.29,48.29,0,0,1,16.83,14.88,25.2,25.2,0,0,0,4.06,4.63c5.37-11.09,8.09-25,2.9-30.81-1.21-1.37-2.32-1.32-4.93-1.06-3.05.29-7.23.7-12-2.93A48.79,48.79,0,0,0,18,124.86,5.74,5.74,0,0,0,16.58,124.69Z"/><path class="cls-1" d="M102.38,48C96.44,43.46,98.11,32,99.71,26.62,105.64,6.81,132.32.06,148.21,0c4.3,0,17.45.12,28.7,8.79,6.17,4.75,12,12.28,10.3,15-2.41,3.78-18.32-3.21-19.49-.62-.7,1.55,5.11,3.77,9.44,10.71.75,1.2,6.65,11,2.93,20.88-.94,2.49-2.33,6.18-4.74,6.48a41.22,41.22,0,0,1-25.88-5.64C132.48,45.75,114.2,57.1,102.38,48Z"/><path class="cls-2" d="M122.58,81.84c8.51,10.82,17.54,13.28,24.51,10.44,19.62-8,26.11-25.58,23.06-35.75,6.79-3.07,4.89-9.72,3.12-13.45-3.32-7-6-8.35-12.88-6.2-2-1.44.12,9.2-7.61,9.15-32.22-13.78-34.53-9.71-46.24,7.64C99,64.83,92.42,74.59,95.73,79.29,98.84,83.69,107,78.46,122.58,81.84Z"/><path class="cls-1" d="M141.46,95.9c-6.87,0-14-4.07-20.27-11.8a56.69,56.69,0,0,0-16.49-.66c-4.82.37-8.63.66-11-2.71-4.3-6.11,2.35-16,10.78-28.46l.36-.53c12.19-18.08,16.35-21.89,48.43-8.23,2.14-.17,2.82-1.78,3.47-5.12.33-1.69.64-3.29,2.27-3.94a2.77,2.77,0,0,1,1.39-.18c7.53-2.17,11.41-.14,15.14,7.74,1.38,2.91,2.72,7.2,1.29,11.09A9.4,9.4,0,0,1,173,57.79c2.31,12.26-6.14,29.13-25,36.81A17.42,17.42,0,0,1,141.46,95.9ZM111.25,78.12a55.74,55.74,0,0,1,11.86,1.27l.88.19.55.71c7,8.89,14.88,12.42,21.61,9.68,11.74-4.78,25.77-18.81,21.61-32.72l-.63-2.1,2-.9a5.19,5.19,0,0,0,3-2.88c.87-2.38-.33-5.54-1.12-7.22-2.71-5.71-4.18-6.59-9.32-5.06,0,.09,0,.18-.05.26-.54,2.75-1.79,9.18-8.79,9.18h-.59l-.46-.19c-16-6.84-23.86-8.94-29.09-7.76s-8.35,6-13.74,14l-.36.53c-6.16,9.14-13.15,19.49-10.83,22.78.7,1,2.73.89,6.54.6C106.3,78.3,108.6,78.12,111.25,78.12Z"/><path class="cls-3" d="M84.08,153.66,66.15,165a3.58,3.58,0,0,1-4.13-.22L1.35,116.51a3.58,3.58,0,0,1,.29-5.81L21.75,97.78a3.56,3.56,0,0,1,4.25.29l58.49,49.84A3.58,3.58,0,0,1,84.08,153.66Z"/><path class="cls-2" d="M142.86,93.37c7.43,8.56,6.12,13.81,3.52,24.72,7.76,10.2,31.88-10.23,37.46-16.48-4.23-11.23-13.36-18.92-17.34-24.24C160,87.39,149.88,91.7,142.86,93.37Z"/><path class="cls-1" d="M152.47,123.4H152a9.65,9.65,0,0,1-7.57-3.79l-.72-.94.32-1.32c2.57-10.76,3.53-14.79-3-22.33l-2.7-3.12,4-1c5.48-1.3,15.64-5,22.12-14.94l1.95-3,2.15,2.87c1,1.35,2.41,2.91,4,4.71,4.39,4.86,10.4,11.52,13.65,20.14l.54,1.42-1,1.13C181,108.5,164,123.4,152.47,123.4Zm-3.35-6a4.89,4.89,0,0,0,3,1c8.36.32,23.08-11.52,28.77-17.33-3-7.06-8-12.61-12.11-17.14-.78-.86-1.51-1.68-2.19-2.45a40.93,40.93,0,0,1-19.51,13.29C152.41,102.38,151.25,108.41,149.12,117.36Z"/></g></g></svg>