<svg id="Layer_1" data-name="Layer 1" xmlns="http://www.w3.org/2000/svg" xmlns:xlink="http://www.w3.org/1999/xlink" viewBox="0 0 324.89 324.89"><defs><style>.cls-1{fill:none;}.cls-2{fill:#f6f6f6;}.cls-3{clip-path:url(#clip-path);}.cls-4{fill:#077594;}.cls-5{fill:#fff;}.cls-6{fill:#e05e48;}</style><clipPath id="clip-path"><circle class="cls-1" cx="162.44" cy="162.44" r="162.44"/></clipPath></defs><circle class="cls-2" cx="162.44" cy="162.44" r="162.44"/><g class="cls-3"><path class="cls-4" d="M153.36,178.42c4.11,6,4.11,6,8.73,6.43s7.18-2.57,10.1-6c8.73,15.59,16.45,41.27,32.28,39.74,22.45-2.17,26-18.47,32-26,12.47-15.48,13.18-22.54,19.44-26.42-2.58,20.77-.85,52.8-8,68.2-5.34,11.54-24,20.36-35.36,16.07-7.4-2.8-7.14-11.75-11.48-11-.5.08,7.16,9.89,14.7,23,7,12.12,6.44,14.19,11.48,20.2,8.85,10.56,15.87,22.48,16.07,26.69.42,8.85-30.15,18.89-58.32,22.5-6.64.85-59.42,7.28-65.19-8.72-2.39-6.63,8.09-23.36,11.59-46.06,2.49-16.21,8-27.08,4.93-27.93-1.34-.38.27,8-8.54,14.63-9.71,7.3-31.94,1.87-37.34-3.12C72.87,244.38,67,234.41,68.42,221.58c9.39,8.51,18.16,14.66,37.66,13.71,16.55-.82,29.22-14.15,35.69-31.47C146,192.53,150,186.48,153.36,178.42Z"/><path class="cls-5" d="M68.42,221.58c-.71-6.86-2-16.89-10.53-20.83-9.45-4.38-22.68.77-25.64,8.87-1.4,3.83-.73,9,1.44,9.82,3.1,1.23,6-7.52,13.66-9.34C57.28,207.72,65.29,219.66,68.42,221.58Z"/><path class="cls-4" d="M70.22,224.44l-2.58-1.58a21.67,21.67,0,0,1-3.34-3c-3.93-4-9.88-9.93-16.6-8.31-3.69.88-6.24,3.68-8.29,5.94s-3.89,4.28-6.27,3.34c-3.24-1.29-3.89-7.36-2.29-11.74,1.46-4,5.19-7.51,10.22-9.6,5.85-2.42,12.37-2.46,17.45-.11,9.58,4.45,10.76,15.89,11.39,22Zm-20-23.79a20.89,20.89,0,0,0-8,1.63C38,204,34.83,207,33.66,210.13c-1.29,3.54-.39,7.53.58,7.92.46.18,2-1.54,2.95-2.57,2.21-2.43,5.22-5.75,9.81-6.84,8.36-2,15.29,5,19.43,9.11h0c-1-6.46-3-12.79-9.18-15.65A16.85,16.85,0,0,0,50.23,200.65Z"/><path class="cls-5" d="M255.91,166.24c-2.13-3.66,4.24-20.56,13-24.9,8.11-4,19.07-2.73,20.61,1.19.89,2.28-1.26,5.78-3.84,7.43-4.05,2.59-6.76-.1-11.74,1.2-2.63.69-7,3.22-10.14,7.93A30.48,30.48,0,0,1,255.91,166.24Z"/><path class="cls-4" d="M255.4,168.35l-.79-1.35c-1.18-2-.44-5.71.38-8.43,2.05-6.8,7.09-15.52,13.31-18.58,6.46-3.19,14.26-3.14,18.62-1.45a6.59,6.59,0,0,1,4,3.45c1.2,3.06-1.31,7.25-4.42,9.23-2.72,1.75-5,1.49-7.17,1.24a12.55,12.55,0,0,0-5,.15,18,18,0,0,0-9.28,7.31,31.53,31.53,0,0,1-8.37,7.59Zm24.47-27.95a23.66,23.66,0,0,0-10.24,2.28c-5.18,2.55-9.84,10.36-11.77,16.76a19.36,19.36,0,0,0-.85,4.21,26.45,26.45,0,0,0,5.6-5.4c3.41-5.07,8.06-7.77,11-8.54a15.52,15.52,0,0,1,6.1-.23c2,.23,3.39.39,5.22-.78,2.15-1.38,3.79-4.22,3.24-5.62a4,4,0,0,0-2.33-1.74A17,17,0,0,0,279.87,140.4Z"/><path class="cls-5" d="M154.09,157.22c4.84,2.11,7.26,3.16,8.85,3.24,6.29.27,13.22-4.59,14.91-10.37,1-3.44,1.56-4.21.43-9.51,2.66-1.88,4.63-4.48,2.38-8.64-1-1.87-8.16-5.22-10.59-3-2-1.34-5.25-2.43-6.91-2.16-4.82.77-15.55,4.32-11.88,17.93a6.59,6.59,0,0,0-4.54,7.77A6.49,6.49,0,0,0,154.09,157.22Z"/><path class="cls-4" d="M163.47,162l-.59,0c-1.83-.08-4.1-1-9-3.17a7.46,7.46,0,0,1-5.18-1.22,7.75,7.75,0,0,1-3.46-4.81,8,8,0,0,1,4.26-8.92c-1-4.62-.49-8.54,1.54-11.69,3.23-5,9.36-6.46,11.85-6.86,2-.32,5,.66,7.15,1.87a6.74,6.74,0,0,1,3.9-.31c2.93.5,7,2.48,8,4.39,2.07,3.83,1.39,7.18-2,10,.81,4.17.48,5.56-.35,8.3-.1.31-.2.64-.3,1C177.44,156.84,170.29,162,163.47,162Zm-9.24-6.33.47.21c4.51,2,7,3.05,8.31,3.11,5.57.25,11.91-4.19,13.4-9.29.11-.37.21-.71.31-1,.76-2.54,1-3.39.09-7.74l-.2-1,.8-.57c2.86-2,3.41-4,1.93-6.7-.35-.62-3.17-2.42-5.92-2.87a3.14,3.14,0,0,0-2.34.24l-.88.79-1-.66c-1.83-1.25-4.74-2.1-5.83-1.92-2.09.34-7.23,1.55-9.81,5.53-1.73,2.68-2,6.22-.86,10.53l.35,1.31-1.27.48c-3.86,1.46-3.91,4.44-3.59,6.09a4.74,4.74,0,0,0,2.14,2.86,4.38,4.38,0,0,0,3.38.72Z"/><path class="cls-4" d="M168.83,123.64a6,6,0,0,0,.09-1,5.49,5.49,0,0,0-5.5-5.49,5.39,5.39,0,0,0-2.34.53,2,2,0,0,0-3.72-.21,5.55,5.55,0,0,0-1.84-.32,6,6,0,0,0-1.13.11,3.61,3.61,0,0,0-6.09,2.36,1.88,1.88,0,0,0-.92-.24,2,2,0,0,0-2,2s0,.11,0,.16a2.06,2.06,0,0,0-.79-.16,2,2,0,0,0-2,1.63,5.52,5.52,0,0,0-2.84,2.46,3.6,3.6,0,0,0-4.44,3.52,3.63,3.63,0,0,0,1,2.45,2,2,0,0,0-.93,3.68l-.1.3a3.63,3.63,0,0,0-3.56,3.62,3.56,3.56,0,0,0,.72,2.14,5.19,5.19,0,0,0-.21,1.48,5.48,5.48,0,0,0,1.8,4.06,2,2,0,0,0-1,1.74,2,2,0,0,0,.78,1.58,3.62,3.62,0,0,0,.43,4.6,2,2,0,0,0,1,2.49,2,2,0,0,0,.92.19,6,6,0,0,0,1.15.84,5.48,5.48,0,0,0,8.25,3.24,3.6,3.6,0,0,0,6.13-2.12c1.29-.35,2.21-.76,2.33-1.23.41-1.63-6.42-2.85-7.28-5.63-1.21-3.94.79-7.29,3.57-7.72,3.18-.5,5.28,4.6,6.41,3.93.57-.33-1.23-3-1.48-5.21-.53-4.55.86-10.87,4.35-12.49,2.49-1.16,5.57-1.95,7.93-3.45l.23-.14.16,0a2,2,0,0,0,.92-3.76Z"/><circle class="cls-6" cx="204.93" cy="55.68" r="28.46"/><circle class="cls-6" cx="266.97" cy="113.01" r="11.47"/><circle class="cls-6" cx="98.84" cy="78.61" r="7.31"/><circle class="cls-6" cx="51.76" cy="146.96" r="20.24"/></g><path class="cls-5" d="M167.53,159.81c-.38,8.35.12,8.67,3.26,19.58-2.69,7.88-15,8.6-15.76-.84,4.17-9.53,4.17-9.53,4.17-18.84A17.3,17.3,0,0,0,167.53,159.81Z"/><path class="cls-4" d="M162.16,187a11,11,0,0,1-1.16-.07c-4.24-.54-7.1-3.69-7.46-8.22l0-.38.15-.34c4-9.25,4-9.25,4-18.24v-1.83l1.79.35a15.73,15.73,0,0,0,7.76.11l1.87-.37-.09,1.91c-.32,7.07,0,8,2.15,15.49.32,1.06.67,2.25,1.06,3.61l.13.45-.16.45A10.66,10.66,0,0,1,162.16,187Zm-5.6-8.17a5.36,5.36,0,0,0,4.82,5.12,7.65,7.65,0,0,0,7.84-4.58c-.34-1.15-.64-2.18-.91-3.12-2-6.88-2.53-8.61-2.35-14.61a16.23,16.23,0,0,1-5.27-.1C160.67,169.2,160.38,170.05,156.56,178.79Z"/></svg>