<svg xmlns="http://www.w3.org/2000/svg" viewBox="0 0 347.99 319.36"><defs><style>.cls-1{fill:#fff;}.cls-2{fill:#077594;}</style></defs><g id="Layer_2" data-name="Layer 2"><g id="Layer_1-2" data-name="Layer 1"><path class="cls-1" d="M93.56,30c.71,4.32,1.07,6.48,1.74,7.62,2.64,4.51,9.16,7.14,13.94,5.7,2.85-.85,3.64-.81,6.81-4,2.51,1,5.21,1.2,7.09-2.24.84-1.55,0-8-2.67-8.73,0-2-.68-4.75-1.62-5.79-2.71-3-10-8.88-17.84-.18a5.46,5.46,0,0,0-7.46.35A5.37,5.37,0,0,0,93.56,30Z"/><path class="cls-2" d="M106.4,45.26A14.88,14.88,0,0,1,94,38.42c-.79-1.34-1.14-3.36-1.86-7.69a6.47,6.47,0,0,1-1.51-4.27,6.66,6.66,0,0,1,1.87-4.76,6.87,6.87,0,0,1,8.27-1.19c2.76-2.75,5.75-4.14,8.87-4.14h0c5,0,8.88,3.66,10.3,5.24,1.11,1.23,1.83,3.78,2,5.85a5.77,5.77,0,0,1,2,2.62c1,2.32,1.47,6.08.55,7.77-1.78,3.26-4.47,4.35-8,3.25a11.43,11.43,0,0,1-5.93,3.46l-.83.24A11.43,11.43,0,0,1,106.4,45.26Zm-9-22.64a4.16,4.16,0,0,0-2.82,1.24,3.72,3.72,0,0,0-1,2.6,3.45,3.45,0,0,0,1,2.49l.36.35.08.52c.64,3.85,1,6.18,1.55,7.09,2.27,3.86,8.09,6.26,12.22,5l.86-.26c2.06-.59,2.76-.79,5.32-3.36l.7-.69.92.36c2.58,1,4,.59,5.21-1.57a9.56,9.56,0,0,0-.75-5.35c-.38-.8-.77-1.16-1-1.21l-1.14-.31,0-1.18a9,9,0,0,0-1.23-4.74c-1.15-1.28-4.25-4.25-8.07-4.25h0c-2.58,0-5.11,1.37-7.53,4.06l-.91,1-1.1-.8A4.51,4.51,0,0,0,97.41,22.62Z"/><path class="cls-2" d="M94.92,21.11C96.53,10.59,113.81.08,124.35,0c2.72,0,6.47.37,6.68,1.52.31,1.79-8.18,4.57-7.89,5.46.21.65,4.66-1.46,9.1,0,5.51,1.81,9.43,8.6,7.89,11.22s-9,.72-9.41,2.43c-.34,1.37,4.49,2.49,5.46,6.37.48,1.92,0,4.47-1.51,5.46s-4-.51-9.7-2.25c-6.12-1.88-2.24-4.14-4.27-5.32-4.47-2.6-7-2.38-9.7-2.74-4.1-.56-7.25,2.13-9.7,5.76C98.67,27.37,105.59,21.35,94.92,21.11Z"/><path class="cls-1" d="M114.33,147.27c14,12.69,2.29,32.4,5.68,83.27,2.49,37.21,2,42.15,5.5,58.8-5.31,2.21-21.75-14.15-25.41-33.33-2-10.76,1.09-16.32-2.61-30.12-2.43-9.1-5.81-14.23-9.25-20.6-5.43-10.08-24.75-45.91-14.49-59C80.66,137.52,102.74,136.79,114.33,147.27Z"/><path class="cls-2" d="M124.42,291a8.88,8.88,0,0,1-4.13-1.25c-3.92-2.11-8.6-6.75-12.53-12.41a56.31,56.31,0,0,1-9.13-21.09,55.38,55.38,0,0,1-.75-12.38A56.05,56.05,0,0,0,96,226.27c-2-7.39-4.6-12.12-7.39-17.13-.57-1-1.15-2.06-1.73-3.14-6.23-11.57-25.21-46.77-14.35-60.61,3.1-3.95,9-6.57,16.3-7.19,10-.85,20.1,2.2,26.47,8h0c8.84,8,8.07,18.6,6.79,36.15-.89,12.24-2,27.48-.62,48.13.59,8.86,1,16,1.36,21.69,1.13,18.68,1.47,24.32,4.1,36.91l.26,1.21-1.15.48A4.3,4.3,0,0,1,124.42,291Zm-32.21-150c-1,0-2.06,0-3.09.13-6.43.55-11.6,2.76-14.19,6.05C67,157.4,78.49,184,89.56,204.58l1.71,3.11c2.88,5.17,5.6,10.06,7.67,17.81A58.41,58.41,0,0,1,100.88,244a51.7,51.7,0,0,0,.7,11.76c2.84,15,13.52,27.86,20.13,31.42a8.08,8.08,0,0,0,2,.8c-2.37-11.68-2.75-18.11-3.81-35.64-.34-5.71-.77-12.82-1.36-21.67a322.45,322.45,0,0,1,.62-48.55c1.26-17.21,2-26.68-5.81-33.7C108.2,143.75,100.32,141.06,92.21,141.06Z"/><path class="cls-1" d="M103.34,163.78c7.92,17.18-8.58,28.71-26.64,76.39-6.52,17.22-16.28,34-25.65,51.09-5.75-.06-8.8-16.32-4.62-35.4,2.34-10.7,11.16-11.12,13.19-25.27,1.34-9.32-2.41-16.51-3.06-23.72-1-11.39-4.72-51.93,9.85-59.92C76.21,141.58,96.81,149.59,103.34,163.78Z"/><path class="cls-2" d="M51.93,292.77H51a5.28,5.28,0,0,1-4.11-2.26c-4.37-5.49-5.19-20.19-2-35,1.14-5.2,3.74-8.19,6.25-11.08,2.89-3.32,5.88-6.76,6.93-14.08.82-5.72-.38-10.62-1.54-15.36a55.35,55.35,0,0,1-1.54-8c-1.19-13.09-4.8-52.92,10.63-61.37,4.4-2.42,10.89-2.49,17.8-.21,9.5,3.14,17.63,9.93,21.22,17.72h0c5.17,11.23.56,20.13-7.8,36.3a362.29,362.29,0,0,0-18.8,41.25c-5.63,14.86-13.8,29.65-21.71,44q-2,3.66-4,7.32Zm22-146a14,14,0,0,0-6.78,1.51c-11.33,6.21-11.19,35.22-9.08,58.47a52.48,52.48,0,0,0,1.47,7.57c1.17,4.78,2.49,10.2,1.59,16.5C59.93,239,56.5,243,53.47,246.43c-2.47,2.84-4.6,5.3-5.58,9.75-3.3,15.08-1.89,28.34,1.38,32.46a3.56,3.56,0,0,0,1,.9l3.49-6.33c8.22-14.87,16-28.92,21.53-43.57a367,367,0,0,1,18.94-41.57c8.19-15.83,12.3-23.77,7.74-33.66-3.25-7.07-10.7-13.25-19.43-16.13A28,28,0,0,0,73.91,146.76Z"/><path class="cls-2" d="M87.56,48.63c2,4.2-.21,3.25,4,6,4,2.65,7.4,1.09,10.75,1.08,9.2,9.15,8.43,37,20.23,63.58,15.54,35,43,37.25,43,37.14s-23.35,5.06-40-2.88c-2-9-6.55-22.56-11.38-34.2-.82,4.31,8.78,24.51,10.18,37.08.56,5.08,1.15,10.49-.2,14.41-3.54,10.3-24.25,10-37,8.38-15.15-1.89-34.6-2.36-36-16.85-2.32-24.19,26.5-52.89,26.5-52.89-3.15-.57-10.32,14.62-26.55,27-12.1,9.26-27.31,14.09-28.83,12.23,10.23-9.19,17.72-17.76,34.73-46.37C73,75.34,83.16,47.7,87.56,48.63Z"/><path class="cls-1" d="M272.86,155.06c-3.12,2.73-4.68,4.1-5.86,4.54-4.65,1.71-11-.28-13.64-4.21-1.57-2.34-2.18-2.78-2.6-7-2.43-.77-2.83-2.45-2.13-6.11.31-1.64,4-3.69,5.5-4.59,1.15-1.47,3.35-3.07,4.66-3.27,3.8-.57,12.69-.47,13.18,10.6,5.28-1,6.27,2.92,6.49,4.74C278.73,152,275.52,154.85,272.86,155.06Z"/><path class="cls-2" d="M263.32,161.72c-4.36,0-8.91-2.08-11.21-5.5l-.46-.67a10.89,10.89,0,0,1-2.28-6.12c-2.89-1.44-2.79-4.41-2.22-7.45.39-2,3.11-3.77,5.86-5.39l.13-.07c1.31-1.57,3.68-3.33,5.43-3.6,2-.3,7.06-.67,10.77,2.38a11.88,11.88,0,0,1,4,8,6.33,6.33,0,0,1,4,1.12,7.16,7.16,0,0,1,2.64,5.11,5.26,5.26,0,0,1-1.37,3.85,8.85,8.85,0,0,1-5.08,3.08c-3.12,2.73-4.59,4-6,4.52A12.31,12.31,0,0,1,263.32,161.72Zm-2.07-26a14.89,14.89,0,0,0-2.23.17,8.56,8.56,0,0,0-3.71,2.71l-.17.22-.61.36c-3.44,2-4.31,2.95-4.43,3.38-.72,3.79.05,4,1.12,4.38l.94.3.1,1c.33,3.41.72,4,1.86,5.63l.48.7c2.26,3.36,7.92,5.1,11.88,3.64.92-.34,2.59-1.81,5.37-4.25l.38-.33.51-.05a5.74,5.74,0,0,0,3.52-2.05,2.57,2.57,0,0,0,.71-1.6,4.42,4.42,0,0,0-1.43-3,4.16,4.16,0,0,0-3.28-.4l-1.71.34-.08-1.74c-.15-3.41-1.17-5.91-3-7.45A9.7,9.7,0,0,0,261.25,135.72Zm11.61,19.34,1,1.12Z"/><path class="cls-2" d="M254.32,135.72c6.77-.52,10.93-.26,14.11,5.18,1.74,3,.9,4,.5,6.06,2,.95,4.15-2.19,6.77-1.26,2.38.84,1.57,8.27,2.59,6.84,6-8.39.47-12.17.49-13.17a7.17,7.17,0,0,1,8.42-1.85c2.93,1.62,1.93,5.34,5.95,8.62,1,.84,2.55,2.08,4.31,1.85,2.88-.38,5.06-4.47,5.13-7.8.12-5.58-5.63-11.47-11.08-11.7-6.18-.26-9.83,2.83-14.51,6.39-1.54-2.11-2.72-4.38-6.84-5.57-4.5-1.3-5.64-.58-6.82-.41.38-1.84,3.56-6.11,2.05-9-1-2-4.79-3-7.6-1.44-2.23,1.22-3.65,3.93-3.07,5.95.63,2.23,3.55,3.49,3.72,5.27A8.48,8.48,0,0,0,254.32,135.72Z"/><path class="cls-1" d="M213.54,262.62c2.19,22.5,4.55,53.52,11.07,53.43,7.5-.09,22.82-16.61,17.69-40.14,5.12-.81,15.59,2.07,17.15,3.26-7.63,29.16,6.33,37.49,10.83,38.64,5.11,1.31,16.37-30.81,20.24-53.3C279.31,244.47,227.08,241,213.54,262.62Z"/><path class="cls-2" d="M270.58,319.35a2.59,2.59,0,0,1-.67-.09c-1.05-.27-6.46-1.94-10.39-8.62-4.4-7.47-5-17.79-1.82-30.7-2.47-1-9.2-2.78-13.6-2.68,3.07,16.9-4.14,28.27-7.47,32.45-3.81,4.79-8.4,7.8-12,7.84h0c-6.82,0-9.17-19.4-12-49-.19-2-.37-3.93-.56-5.81l0-.51.28-.43c7.46-11.9,25.29-15.76,39.45-15.41,18.73.46,34.47,7.28,40.11,17.35l.26.47-.09.52c-3.53,20.5-13.43,50-19.53,54A3.43,3.43,0,0,1,270.58,319.35Zm-26.31-45.07c5.68,0,14.32,2.34,16.09,3.7l.79.61-.25,1c-3.26,12.47-2.85,22.69,1.2,29.57,3.4,5.78,8,7.1,8.55,7.24,3.31-.51,14-27.1,18.3-51.57-5.3-8.79-20.18-15-37.3-15.37-16.76-.43-30.71,4.77-36.57,13.58.17,1.72.34,3.49.51,5.29,1,10.64,2.16,22.7,3.77,31.85,2.48,14,4.93,14.43,5.23,14.41,2.2,0,6-2.11,9.69-6.7,3.18-4,10.16-15.06,6.56-31.62l-.34-1.55,1.57-.25A13.5,13.5,0,0,1,244.27,274.28Z"/><path class="cls-2" d="M255,172.29c1.29,1.87,2.12,3.18,5.07,3.8A9.46,9.46,0,0,0,270.23,172c4.35,3.48,4.3,11.76,7.29,20,8,21.87,42.63,27.63,55.26,30.16-.73,2.2-32.65,9-40.91,9.17-4.42.08-9.8-17.22-11.88-22.1-3.41,5.45,10.67,25.29,12.11,29.14,4.45,11.87,5,23.47-1.59,35.06-8.47,14.78-39.31,11.87-51,10.77-13.13-1.24-23.38-2.2-26.62-8.87-5.8-12,0-30.74,12.84-50.73-1.21-4.94-5.39-9.09-13-14.86-15.15-11.54-11.19-11.52-21.19-35.94,5.45,3.35,3.44,4.18,19.11,14,11.1,7,15.67,6.49,20.16,5.22C242.36,189.74,250.65,175.45,255,172.29Z"/><path class="cls-2" d="M126.67,288.3c3.73,7.95,8.13,8.18,13.7,9.41,7.38,1.64,11.41-5.51,16.91-4.14,7.07,1.77,13,16.75,8.28,24.16-18.34,1-38.51-.91-50-5.87C124.74,303.14,122.56,297.81,126.67,288.3Z"/><path class="cls-2" d="M52.9,290.54c-1.09,6.94.57,9.79,3.25,11.74,4.33,3.16,10-2.29,15.59-.3,6.24,2.2,10.62,12.93,7.64,17.12C64.8,320.76,37.66,314.18,33.53,305,41.2,302.36,47.66,294.87,52.9,290.54Z"/><path class="cls-1" d="M190.68,174.61c-5.45.29-13.14-4.23-15-11.27-2.28-8.85,6.3-14.26,8.17-13,6.64,4.42-.83,1.89,1.06,12.24C186.25,169.64,189.45,173.52,190.68,174.61Z"/><path class="cls-2" d="M190.19,176.13c-6.14,0-14-4.94-15.92-12.42a12.5,12.5,0,0,1,4.94-13.51c2.19-1.55,4.25-2,5.52-1.13,3.27,2.18,4.37,3.5,2.68,6.06-.71,1.07-1.79,2.7-1,7.16,1.41,7.75,5.08,11.06,5.24,11.2l2.75,2.43-3.67.19Zm-7-24.49a7,7,0,0,0-3.82,2.44,9.4,9.4,0,0,0-2.17,8.89c1.24,4.82,5.72,8.5,10,9.72a27.22,27.22,0,0,1-3.72-9.86c-1-5.65.56-8.06,1.42-9.36a3.87,3.87,0,0,0,.21-.34,12.08,12.08,0,0,0-1.94-1.49Z"/><path class="cls-1" d="M185.65,156c1.19-1,4.9.88,6.76,3.63,2.82,4.18,0,11.64-1.6,12.21C187.2,173.1,182,159,185.65,156Z"/><path class="cls-2" d="M190.32,173.38c-1.18,0-2.85-.71-4.59-3.73-2.49-4.33-4.3-12.11-1-14.84h0a3,3,0,0,1,2.46-.58,10.94,10.94,0,0,1,6.51,4.51c2.47,3.66,1.13,8.64.67,10.08-.37,1.12-1.39,3.79-3,4.38A2.88,2.88,0,0,1,190.32,173.38Zm-3.78-16.2c-.83.88-.93,3.92.34,7.7s2.84,5.33,3.38,5.49c1-1,3.08-6.74.91-10C189.77,158.34,187.26,157.14,186.54,157.18Zm.08-.08Z"/><path class="cls-1" d="M175.07,156.46c-2-.12-5.45.8-9.13,1.2,1.24,2.37,6.33,4.94,9.11,6C175.31,161.88,175,158.37,175.07,156.46Z"/><path class="cls-2" d="M176.26,165.67l-1.73-.63c-.08,0-8-3-9.92-6.68l-1-2,2.19-.24c1.48-.16,3-.42,4.28-.64a24.24,24.24,0,0,1,5.11-.56l1.45.09-.05,1.44c0,.67,0,1.59.05,2.56a30.61,30.61,0,0,1-.08,4.79ZM169,158.75a27,27,0,0,0,4.64,2.68c0-.73,0-1.53,0-2.28,0-.38,0-.76,0-1.13-.87.1-1.92.28-3,.47Z"/><path class="cls-1" d="M30.37,142.71c-.41,3.12-8.75,12.07-19.81,10.67-3.75-.48-8.9-2.55-9.06-5.17-.22-3.66,9.2-9,15.3-6.77,2,.73,2.55,1.88,5.1,2.44C26.63,144.93,26.94,143.38,30.37,142.71Z"/><path class="cls-2" d="M12.92,155a20.35,20.35,0,0,1-2.55-.17C6.49,154.37.24,152.15,0,148.3c-.11-1.77,1.09-3.68,3.39-5.39,3.46-2.57,9.29-4.58,13.92-2.88a10.74,10.74,0,0,1,2.3,1.22,7,7,0,0,0,2.61,1.17c2.72.6,3.61.25,4.95-.28a15.54,15.54,0,0,1,2.9-.9l2.05-.39-.27,2.06C31.35,146.77,23.45,155,12.92,155Zm.68-12.62a15.19,15.19,0,0,0-8.41,2.91C3.63,146.48,3,147.56,3,148.11c.08,1.24,3.74,3.27,7.75,3.78,7.47,1,13.59-3.31,16.43-6.55a10,10,0,0,1-5.6,0A9.86,9.86,0,0,1,18,143.76a8.09,8.09,0,0,0-1.7-.91A7.91,7.91,0,0,0,13.6,142.41Z"/><path class="cls-1" d="M319.06,223.27c2.06-2.38,13.95-5.27,22.41,2,2.87,2.47,6,7,4.72,9.3-1.82,3.18-12.63,2.47-16.5-2.76-1.27-1.71-1.09-3-2.92-4.84C323.4,223.47,322.29,224.6,319.06,223.27Z"/><path class="cls-2" d="M340.78,238c-4.2,0-9.56-1.59-12.29-5.28a10.27,10.27,0,0,1-1.26-2.28A7,7,0,0,0,325.7,228c-1.95-2-2.88-2.2-4.29-2.49a15.26,15.26,0,0,1-2.92-.85l-1.92-.79,1.36-1.57c2.75-3.18,15.5-5.9,24.52,1.83,3,2.54,7,7.83,5,11.18-.88,1.53-2.94,2.47-5.79,2.63C341.4,238,341.1,238,340.78,238Zm-17.61-15.13A11.51,11.51,0,0,1,330,229.2a7.86,7.86,0,0,0,.92,1.7c2.14,2.9,7.06,4.24,10.63,4,1.94-.11,3.08-.65,3.36-1.13.62-1.08-1.33-4.78-4.4-7.42C334.77,221.48,327.32,221.68,323.17,222.83Z"/><path class="cls-1" d="M104,44.06c-2.78,3.92-2.47,11-1.81,13.71-5.1,3.31-13.16-.32-14.09-7.84,1.34-1.94,6.64-3.8,7.18-12.27C97.92,41.67,100.75,43.61,104,44.06Z"/><path class="cls-2" d="M97.94,60.5a10.87,10.87,0,0,1-4.59-1,11.83,11.83,0,0,1-6.72-9.34l-.07-.57.33-.47a9.39,9.39,0,0,1,1.82-1.79,12.23,12.23,0,0,0,5.09-9.72l.29-4.49,2.46,3.76c2.3,3.51,4.74,5.33,7.68,5.74l2.45.33-1.44,2c-2.4,3.38-2.2,9.9-1.57,12.49l.25,1L103,59A9.3,9.3,0,0,1,97.94,60.5ZM89.71,50.39a8.8,8.8,0,0,0,4.91,6.35,7.23,7.23,0,0,0,5.92.24c-.45-2.89-.53-8,1.2-11.91a13.14,13.14,0,0,1-5.5-3.73,15.06,15.06,0,0,1-5.61,8.25C90.29,49.87,90,50.15,89.71,50.39Z"/><path class="cls-1" d="M260.09,159.8c.21,4.39-2.36,11.85-4.07,14.07,2.12,4.59,9.09,5.9,13.16-.5-.07-2.15-5.63-6.06-2.18-13.77C263.32,162.32,262.62,160.45,260.09,159.8Z"/><path class="cls-2" d="M262.16,179.24h-.57a8.21,8.21,0,0,1-6.93-4.73l-.38-.82.55-.72c1.55-2,3.95-9.1,3.76-13.09l-.09-2,2,.5a10.57,10.57,0,0,1,1.93.74c1.2.56,1.69.79,3.7-.7l4.6-3.41-2.33,5.23c-2.16,4.83-.38,7.75,1.05,10.11a6.42,6.42,0,0,1,1.25,3l0,.47-.25.39C268.38,177.42,265.39,179.24,262.16,179.24Zm-4.39-5.3a5.27,5.27,0,0,0,4,2.29,6.64,6.64,0,0,0,5.76-3.14c-.16-.34-.46-.83-.69-1.22-1.21-2-3.07-5-2.32-9.41a4.94,4.94,0,0,1-3-.48A34.59,34.59,0,0,1,257.77,173.94Z"/></g></g></svg>