<svg xmlns="http://www.w3.org/2000/svg" viewBox="0 0 248.58 279.03"><defs><style>.cls-1{fill:#077594;}.cls-2{fill:#fff;}.cls-3{fill:#e05e48;}</style></defs><g id="Layer_2" data-name="Layer 2"><g id="Layer_1-2" data-name="Layer 1"><path class="cls-1" d="M52,251.64C79.18,274.28,121.9,279,145.68,279c7.78,0,51.67-.16,74.73-65.32,18.17-51.39-10-88.77-20.84-94.13-.07,15.57-7.08,48.2-27.43,51.57-24.89,4.11-38.07-15.58-58.18-33.61C98.87,124,92.33,103,86.16,104.58c-1.1,7-2.31,6.41-7.92,8.52s-8.59-1-14.1-3.76c-9.7,6.09-5.9,39.54-17.87,71.45C30.46,223,38.84,240.63,52,251.64Z"/><path class="cls-1" d="M52.6,100.59c-4.39,7.66-17.06,11.12-25.69,8.57C6.57,103.13-11,57.91,8.35,27.08,25.32,0,64.5-6,86.15,5.67c18,9.7,15.87,27.27,32.11,31.4,22.36,5.69,39.65-24.2,57.1-16.41,10.31,4.6,13.43,19.11,13.56,27.12.42,26.17-30.25,40.61-33.54,42.11-16.53,7.49-38.8,8.34-54.25-1.43C94.67,84.37,92.9,80.63,84,76.82s-24.68-7.66-30.21-1.06C48.6,82,57.75,91.62,52.6,100.59Z"/><path class="cls-2" d="M57.05,92.94c-3.56.82-12,3.13-14.7-5.33-1-3.19.93-11.88,11.47-11.85-2-5.54-1.63-4.13-.68-10.31,1-6.44-4.34-5.49,2.23-16.54,4.44-9,28,4.1,37.09,12.28-3.83,3-6.54,2.74-8.64,7.25A26.65,26.65,0,0,1,84,76.82c-.43,4.42-3.15,8.65-5.84,11.57A19.29,19.29,0,0,1,57.05,92.94Z"/><path class="cls-1" d="M64.33,96.33A21.74,21.74,0,0,1,56.91,95c-3.82.9-13.32,2.94-16.46-6.79a11.13,11.13,0,0,1,2-9.34A12.44,12.44,0,0,1,51.06,74c-.85-2.52-.83-3.3-.31-6.3.11-.67.25-1.48.41-2.5a7.42,7.42,0,0,0-.45-4c-1-3.12-1.42-5.9,2.9-13.19A7.32,7.32,0,0,1,59,44.09c9.59-1.83,27.47,9,34.78,15.62l1.77,1.59L93.7,62.77a26.29,26.29,0,0,1-3.83,2.43c-1.79,1-2.93,1.6-4,3.53A29.68,29.68,0,0,1,86,77c-.55,5.66-4.22,10.4-6.35,12.72A20.82,20.82,0,0,1,64.33,96.33Zm-7.12-5.48.58.23a17.19,17.19,0,0,0,18.93-4c1.45-1.58,4.86-5.74,5.32-10.41a24.41,24.41,0,0,0-.18-7.78l-.13-.65.28-.6C83.66,64,85.75,62.9,88,61.69L89.16,61C81,54.43,66.42,46.75,59.77,48a3.27,3.27,0,0,0-2.61,1.78l-.07.13c-3.77,6.34-3.24,7.94-2.58,10a11.18,11.18,0,0,1,.6,5.86c-.16,1-.3,1.89-.42,2.58-.46,2.65-.46,2.65.75,6l1.23,3.42h-2.9c-3.65,0-6.46,1.21-8.12,3.49A7.31,7.31,0,0,0,44.25,87c1.91,5.9,7,5.25,11.94,4.08Z"/><path class="cls-1" d="M201.68,127.2l-2.33-1.52c-4.72-3.09-12-21.83-2.18-37,3.19-4.93,10.23-12,15.52-9.81,2.4,1,4.18,3.82,5,8,1.25,6.39.18,15.62-5.14,20.79a16.52,16.52,0,0,1-3.13,2.33,10.78,10.78,0,0,0-3.41,2.87c-2.69,3.43-2.79,4.91-2.95,7.16a22.08,22.08,0,0,1-.67,4.53Zm8.89-44.77c-2.39,0-7.12,3.87-10,8.38-6.62,10.24-4.23,22.24-1.41,28.11.19-2.28.64-4.62,3.73-8.56a14.54,14.54,0,0,1,4.48-3.83,12.55,12.55,0,0,0,2.42-1.77c4-3.91,5.06-11.76,4-17.16-.63-3.22-1.78-4.74-2.57-5.06A1.56,1.56,0,0,0,210.57,82.43Z"/><rect class="cls-3" x="204.22" y="63.79" width="34.65" height="51.52" rx="3.08" transform="translate(153.8 318.7) rotate(-95.54)"/><rect class="cls-2" x="202.02" y="73.48" width="14.27" height="21.22" rx="1.92" transform="translate(145.64 300.38) rotate(-95.54)"/><rect class="cls-2" x="232.9" y="85.35" width="2.28" height="21.22" rx="0.31" transform="translate(161.11 338.17) rotate(-95.54)"/><rect class="cls-2" x="233.23" y="89.86" width="2.5" height="21.22" rx="0.31" transform="translate(157.1 343.55) rotate(-95.54)"/><path class="cls-2" d="M76.13,91.65c.53,4.78,7.28,12.91,9.6,14.51-1.6,5.86-15.6,9.15-21.3,4.16-.3-2.33,1.73-9-3.51-15.68C65.55,95.88,73.38,93.49,76.13,91.65Z"/><path class="cls-1" d="M72.27,114.27a13.26,13.26,0,0,1-8.83-2.82l-.43-.37-.07-.57a14,14,0,0,1,0-2.4c.2-3.1.51-7.78-3.23-12.55L57,92l4.34,1.17c4.13,1.11,11.54-1.15,14-2.79l2-1.38.28,2.46c.46,4.13,6.7,11.88,9,13.44l.88.6-.28,1c-.79,2.88-3.94,5.41-8.44,6.76A22.88,22.88,0,0,1,72.27,114.27Zm-6.37-4.7c2.64,1.87,7.44,2.24,12,.87,2.91-.88,5.12-2.29,6-3.83-2.66-2.41-7.23-8.16-8.78-12.71a29.13,29.13,0,0,1-11.21,2.58,20.52,20.52,0,0,1,2,11.82C65.93,108.77,65.9,109.21,65.9,109.57Z"/></g></g></svg>