<svg id="Layer_1" data-name="Layer 1" xmlns="http://www.w3.org/2000/svg" xmlns:xlink="http://www.w3.org/1999/xlink" viewBox="0 0 355.03 355.03"><defs><style>.cls-1{fill:none;}.cls-2{clip-path:url(#clip-path);}.cls-3{fill:#f6f6f6;}.cls-4{opacity:0.28;}.cls-5{fill:#ffd275;}.cls-10,.cls-6{fill:#fff;}.cls-7{fill:#077594;}.cls-8{fill:#187595;}.cls-9{fill:#dd6046;}.cls-10,.cls-9{fill-rule:evenodd;}</style><clipPath id="clip-path"><circle class="cls-1" cx="177.52" cy="177.52" r="177.52"/></clipPath></defs><g class="cls-2"><circle class="cls-3" cx="177.52" cy="177.52" r="177.52"/><g class="cls-2"><g class="cls-4"><path class="cls-5" d="M331.51,302.4c-27.18,13.67-48,16.39-61.85,8.08-13.19-7.91-16.6-23.22-19.9-38-3.33-15-6.48-29.11-19-35.59-10.29-5.32-20.79-2.17-30.95.87-10.47,3.14-21.3,6.38-31.11-.39-9.58-6.61-10.95-17.58-12.27-28.19-1.3-10.35-2.51-20.14-11-25.71-8.71-5.72-18.61-2.78-29.1.33-10.79,3.2-22,6.51-32.1,0-9.41-6.06-11.44-16.3-13.41-26.2-1.89-9.51-3.67-18.49-11.93-22.79C51.8,131.1,45,133.32,37.14,135.9s-16.51,5.41-26.71,2.47c-13.67-3.93-24.8-16.78-33.1-38.2l-.31-.81,2.42-.92c8,21.12,18.69,33.7,31.71,37.44,9.44,2.72,17.44.09,25.18-2.44,8.08-2.65,15.7-5.15,23.72-1,9.37,4.87,11.36,14.89,13.29,24.59,1.86,9.37,3.79,19.06,12.27,24.52,9.14,5.89,19.25,2.89,30-.29s21.54-6.39,31.25,0c9.49,6.23,10.84,17.08,12.15,27.56s2.55,20.42,11.18,26.38c8.78,6.06,18.55,3.14,28.88,0,10.66-3.19,21.67-6.49,32.89-.7C245.55,241.61,249,257,252.29,271.9c3.18,14.26,6.47,29,18.71,36.36,13,7.82,33,5.07,59.34-8.18Z"/><path class="cls-5" d="M339.36,283.84c-27.18,13.68-48,16.4-61.85,8.09-13.19-7.91-16.6-23.22-19.9-38-3.33-15-6.48-29.11-19-35.6-10.29-5.31-20.79-2.16-31,.88-10.47,3.14-21.3,6.38-31.11-.39-9.58-6.62-11-17.58-12.27-28.19-1.3-10.35-2.51-20.14-11-25.71-8.71-5.72-18.61-2.78-29.1.33-10.79,3.2-22,6.51-32.1,0-9.41-6.06-11.44-16.3-13.41-26.2-1.89-9.51-3.67-18.5-11.93-22.8-7.06-3.67-13.85-1.44-21.72,1.14s-16.5,5.41-26.71,2.47C4.61,115.89-6.52,103-14.82,81.61c-.1-.26-.21-.53-.31-.8l2.43-.92.3.79c8,20.63,18.55,33,31.4,36.65,9.44,2.71,17.44.09,25.18-2.45,8.08-2.64,15.7-5.14,23.72-1,9.37,4.88,11.36,14.9,13.29,24.6C83.05,147.88,85,157.57,93.46,163c9.14,5.89,19.25,2.9,30-.28s21.54-6.39,31.25,0c9.49,6.23,10.84,17.08,12.15,27.56s2.55,20.42,11.18,26.38c8.78,6.06,18.55,3.13,28.88,0,10.66-3.2,21.67-6.5,32.89-.7,13.63,7.05,17,22.44,20.37,37.33,3.18,14.27,6.47,29,18.71,36.37,13,7.82,33,5.06,59.34-8.18Z"/><path class="cls-5" d="M317.85,317.05c-27.18,13.67-48,16.39-61.85,8.08-13.2-7.91-16.6-23.22-19.9-38-3.33-15-6.48-29.11-19-35.6-10.28-5.31-20.78-2.16-30.94.88-10.47,3.14-21.3,6.38-31.11-.39-9.59-6.62-10.95-17.58-12.27-28.19-1.3-10.35-2.52-20.14-11-25.71-8.71-5.72-18.61-2.78-29.1.33-10.79,3.2-22,6.51-32.1,0-9.41-6.06-11.44-16.3-13.41-26.2-1.89-9.51-3.67-18.5-11.93-22.79-7.06-3.68-13.85-1.45-21.72,1.13S7,156-3.23,153c-13.84-4-25.06-17.13-33.41-39l2.42-.92c.11.26.21.53.31.8,8,20.62,18.55,33,31.39,36.64,9.44,2.72,17.45.09,25.19-2.45,8.08-2.64,15.7-5.14,23.72-1,9.37,4.88,11.36,14.9,13.29,24.6,1.86,9.37,3.78,19.06,12.26,24.52,9.15,5.89,19.26,2.89,30-.29s21.55-6.39,31.26,0c9.49,6.23,10.84,17.08,12.15,27.56s2.55,20.42,11.18,26.38c8.78,6.06,18.55,3.14,28.88,0,10.66-3.19,21.67-6.5,32.88-.7,13.63,7,17.06,22.44,20.38,37.34,3.18,14.26,6.46,29,18.7,36.36,13.05,7.82,33,5.06,59.35-8.18Z"/><path class="cls-5" d="M363.5,252.44c-27.19,13.67-48,16.39-61.85,8.08-13.2-7.91-16.61-23.22-19.9-38-3.34-15-6.48-29.11-19-35.59-10.28-5.32-20.78-2.17-30.94.87-10.47,3.14-21.3,6.38-31.11-.39-9.58-6.61-10.95-17.58-12.27-28.19-1.3-10.35-2.52-20.14-11-25.71-8.71-5.72-18.61-2.78-29.1.33-10.79,3.2-21.95,6.51-32.1,0-9.41-6.06-11.44-16.29-13.41-26.2-1.89-9.51-3.67-18.49-11.93-22.79C83.79,81.14,77,83.36,69.13,85.94s-16.51,5.41-26.71,2.47c-13.67-3.93-24.81-16.78-33.1-38.2L9,49.4l2.42-.92c8,21.12,18.69,33.7,31.7,37.44,9.44,2.72,17.45.09,25.19-2.44,8.08-2.65,15.7-5.15,23.72-1,9.37,4.87,11.36,14.89,13.29,24.59,1.86,9.37,3.78,19.06,12.26,24.52,9.15,5.89,19.26,2.89,30-.29s21.55-6.39,31.26,0c9.49,6.24,10.84,17.08,12.15,27.56s2.55,20.42,11.17,26.38c8.79,6.06,18.56,3.14,28.89,0,10.66-3.19,21.67-6.49,32.88-.7,13.63,7.05,17.06,22.45,20.38,37.34,3.18,14.26,6.46,29,18.7,36.36,13,7.82,33,5.07,59.35-8.18Z"/><path class="cls-5" d="M371.35,233.88c-27.19,13.68-48,16.4-61.85,8.09-13.2-7.91-16.6-23.22-19.9-38-3.33-15-6.48-29.11-19-35.6-10.28-5.31-20.78-2.16-30.94.88-10.47,3.14-21.3,6.38-31.11-.39-9.58-6.62-10.95-17.58-12.27-28.19-1.3-10.35-2.51-20.14-11-25.71-8.71-5.72-18.61-2.78-29.1.33-10.79,3.2-21.95,6.51-32.1,0-9.41-6.06-11.44-16.3-13.41-26.2-1.89-9.51-3.67-18.5-11.93-22.8C91.64,62.58,84.85,64.81,77,67.39S60.47,72.8,50.27,69.86C36.6,65.93,25.46,53.08,17.17,31.65c-.1-.26-.21-.53-.31-.8l2.42-.92.31.79c8,20.63,18.54,33,31.39,36.65,9.44,2.72,17.45.09,25.19-2.45,8.08-2.64,15.7-5.14,23.72-1,9.37,4.88,11.36,14.9,13.29,24.6,1.86,9.37,3.78,19.06,12.26,24.51,9.15,5.89,19.26,2.9,30-.28s21.55-6.39,31.26,0c9.49,6.23,10.84,17.08,12.15,27.56s2.55,20.42,11.18,26.38c8.78,6.06,18.55,3.14,28.88,0,10.66-3.2,21.67-6.5,32.89-.7,13.62,7,17.05,22.44,20.37,37.33,3.18,14.27,6.46,29,18.71,36.37,13,7.82,33,5.06,59.34-8.18Z"/><path class="cls-5" d="M349.84,267.09c-27.19,13.67-48,16.39-61.85,8.08-13.2-7.91-16.61-23.22-19.9-38-3.34-15-6.48-29.11-19-35.59-10.28-5.32-20.78-2.17-30.94.87-10.47,3.14-21.3,6.38-31.11-.39-9.58-6.62-10.95-17.58-12.28-28.19-1.29-10.35-2.51-20.14-11-25.71-8.71-5.72-18.61-2.78-29.1.33-10.79,3.2-21.95,6.51-32.1,0-9.41-6.06-11.44-16.3-13.41-26.2-1.89-9.51-3.67-18.5-11.94-22.79-7.05-3.68-13.84-1.45-21.71,1.13S39,106,28.76,103.06C15.09,99.13,4,86.28-4.34,64.86c-.11-.27-.21-.54-.31-.81l2.42-.92c8,21.1,18.69,33.7,31.7,37.44,9.44,2.72,17.45.09,25.19-2.44,8.07-2.65,15.7-5.15,23.72-1,9.37,4.88,11.36,14.9,13.29,24.6,1.86,9.37,3.78,19.06,12.26,24.52,9.15,5.89,19.26,2.89,30-.29s21.55-6.39,31.26,0c9.49,6.23,10.84,17.08,12.15,27.56s2.54,20.42,11.17,26.38c8.79,6.06,18.55,3.14,28.89,0,10.65-3.19,21.67-6.5,32.88-.7,13.63,7.05,17.06,22.44,20.38,37.33,3.18,14.27,6.46,29,18.7,36.37,13.05,7.82,33,5.07,59.35-8.18Z"/><path class="cls-5" d="M266.82,404.27c-27.18,13.68-48,16.4-61.85,8.09-13.19-7.91-16.6-23.22-19.9-38-3.33-15-6.48-29.11-19-35.6-10.29-5.31-20.79-2.16-30.95.88-10.47,3.14-21.3,6.38-31.11-.39C94.4,332.61,93,321.65,91.71,311c-1.29-10.35-2.51-20.14-11-25.71-8.71-5.72-18.61-2.78-29.1.33-10.79,3.2-21.95,6.51-32.1,0-9.4-6.06-11.44-16.3-13.4-26.2-1.89-9.51-3.68-18.5-11.94-22.8-7.06-3.67-13.85-1.44-21.72,1.14s-16.5,5.41-26.71,2.47c-13.67-3.93-24.8-16.78-33.1-38.2-.1-.27-.2-.54-.31-.81l2.43-.92.3.8c8,20.62,18.55,32.95,31.4,36.64,9.44,2.71,17.44.09,25.18-2.45,8.08-2.64,15.7-5.14,23.73-1,9.36,4.88,11.35,14.9,13.28,24.6,1.86,9.37,3.79,19.06,12.27,24.51,9.15,5.89,19.25,2.9,30-.28s21.54-6.39,31.26,0c9.48,6.23,10.83,17.08,12.14,27.56s2.55,20.42,11.18,26.38c8.78,6.06,18.55,3.13,28.89,0,10.65-3.2,21.66-6.5,32.88-.7,13.62,7.05,17.05,22.44,20.37,37.33,3.18,14.27,6.46,29,18.71,36.37,13,7.82,33,5.06,59.34-8.18Z"/><path class="cls-5" d="M274.67,385.72c-27.18,13.67-48,16.39-61.85,8.09-13.19-7.91-16.6-23.22-19.9-38-3.33-15-6.48-29.11-19-35.6-10.29-5.31-20.79-2.17-30.95.88-10.47,3.14-21.29,6.38-31.11-.39-9.58-6.62-11-17.58-12.27-28.19-1.29-10.36-2.51-20.14-11-25.71-8.71-5.72-18.61-2.78-29.1.33-10.79,3.2-22,6.51-32.1,0C18,261,15.92,250.79,14,240.89c-1.89-9.51-3.68-18.5-11.94-22.8-7.06-3.67-13.85-1.44-21.72,1.14s-16.5,5.41-26.71,2.47c-13.84-4-25.1-17.12-33.41-39l2.43-.93.3.8c8,20.63,18.55,32.95,31.4,36.65,9.44,2.71,17.44.09,25.18-2.45,8.08-2.64,15.7-5.14,23.73-1,9.36,4.88,11.35,14.9,13.28,24.59,1.86,9.38,3.79,19.07,12.27,24.52,9.15,5.89,19.25,2.89,30-.28s21.54-6.39,31.26,0c9.48,6.23,10.83,17.07,12.14,27.56s2.55,20.42,11.18,26.37c8.78,6.07,18.55,3.14,28.89,0,10.65-3.19,21.66-6.49,32.88-.69,13.63,7,17.06,22.44,20.37,37.33,3.18,14.27,6.47,29,18.71,36.36,13,7.82,33,5.07,59.35-8.17Z"/><path class="cls-5" d="M253.16,418.92c-27.18,13.68-48,16.4-61.85,8.09-13.19-7.91-16.6-23.22-19.9-38-3.33-15-6.48-29.11-19-35.6-10.29-5.31-20.79-2.16-30.95.88-10.47,3.14-21.3,6.38-31.11-.39-9.58-6.62-10.95-17.58-12.27-28.19-1.3-10.36-2.52-20.14-11-25.71-8.71-5.72-18.61-2.78-29.1.33-10.79,3.2-22,6.51-32.1,0-9.4-6-11.44-16.29-13.41-26.19-1.89-9.51-3.67-18.5-11.93-22.8-7.06-3.67-13.85-1.44-21.72,1.14s-16.51,5.41-26.71,2.47c-13.67-3.93-24.8-16.78-33.1-38.21-.1-.27-.21-.53-.31-.8l2.43-.92c8,21.09,18.68,33.7,31.7,37.44,9.44,2.71,17.44.09,25.18-2.45,8.08-2.64,15.7-5.14,23.72-1,9.37,4.88,11.36,14.9,13.29,24.6C-3.15,283-1.22,292.65,7.26,298.1c9.14,5.89,19.25,2.9,30-.28s21.54-6.39,31.25,0C78,304,79.31,314.88,80.62,325.37s2.55,20.42,11.18,26.38c8.78,6.06,18.55,3.13,28.88,0,10.66-3.2,21.67-6.5,32.89-.7,13.63,7,17.05,22.44,20.37,37.33,3.18,14.27,6.47,29,18.71,36.37,13,7.82,33,5.06,59.34-8.18Z"/><path class="cls-5" d="M298.81,354.31c-27.18,13.68-48,16.4-61.85,8.09-13.2-7.91-16.6-23.22-19.9-38-3.33-15-6.48-29.11-19-35.6-10.28-5.31-20.78-2.16-30.94.88-10.47,3.14-21.3,6.38-31.11-.39-9.58-6.62-11-17.58-12.27-28.19-1.3-10.35-2.52-20.14-11-25.71-8.71-5.72-18.61-2.78-29.1.33-10.79,3.2-21.95,6.51-32.1,0-9.41-6.06-11.44-16.3-13.41-26.2C36.2,200,34.42,191,26.16,186.68c-7.06-3.67-13.85-1.44-21.72,1.14s-16.51,5.41-26.71,2.47c-13.67-3.93-24.81-16.78-33.1-38.21-.1-.26-.21-.53-.31-.8l2.42-.92c8,21.11,18.69,33.7,31.71,37.44,9.44,2.72,17.44.09,25.18-2.45,8.08-2.64,15.7-5.14,23.72-1,9.37,4.88,11.36,14.9,13.29,24.6C42.5,218.35,44.43,228,52.9,233.5c9.15,5.88,19.26,2.89,30-.29s21.55-6.39,31.26,0c9.49,6.23,10.84,17.08,12.15,27.56s2.55,20.42,11.18,26.38c8.78,6.06,18.55,3.14,28.88,0,10.66-3.2,21.67-6.5,32.89-.7,13.62,7,17.05,22.44,20.37,37.33,3.18,14.27,6.47,29,18.71,36.37,13,7.82,33,5.06,59.34-8.18Z"/><path class="cls-5" d="M306.66,335.76c-27.18,13.67-48,16.39-61.85,8.09-13.2-7.91-16.6-23.22-19.9-38-3.33-15-6.48-29.11-19-35.6-10.29-5.31-20.79-2.16-30.95.88-10.47,3.14-21.3,6.38-31.11-.39-9.58-6.62-10.95-17.58-12.27-28.19-1.29-10.36-2.51-20.14-11-25.71-8.71-5.72-18.61-2.78-29.1.33-10.79,3.2-22,6.51-32.1,0-9.4-6.05-11.44-16.29-13.41-26.19-1.89-9.51-3.67-18.5-11.93-22.8-7.06-3.67-13.85-1.44-21.72,1.14s-16.51,5.41-26.71,2.47c-13.67-3.93-24.8-16.78-33.1-38.21-.1-.27-.21-.53-.31-.8l2.42-.93c.11.27.21.54.31.8,8,20.63,18.55,33,31.4,36.65,9.44,2.71,17.44.09,25.18-2.45,8.08-2.64,15.7-5.14,23.72-1,9.37,4.88,11.36,14.9,13.29,24.6,1.86,9.37,3.79,19,12.26,24.51,9.15,5.89,19.26,2.89,30-.28s21.55-6.39,31.26,0c9.49,6.23,10.84,17.07,12.15,27.56s2.55,20.42,11.18,26.37,18.55,3.14,28.88.05c10.66-3.2,21.67-6.5,32.89-.7,13.62,7,17.05,22.44,20.37,37.33,3.18,14.27,6.47,29,18.71,36.36,13,7.82,33,5.07,59.34-8.17Z"/><path class="cls-5" d="M285.15,369c-27.18,13.68-48,16.4-61.85,8.09-13.2-7.91-16.61-23.22-19.9-38-3.34-15-6.48-29.11-19-35.6-10.28-5.31-20.78-2.16-30.94.88-10.47,3.14-21.3,6.38-31.11-.39-9.58-6.62-11-17.58-12.27-28.19-1.3-10.35-2.52-20.14-11-25.71-8.71-5.72-18.61-2.78-29.1.33-10.79,3.2-21.95,6.51-32.1,0-9.41-6-11.44-16.29-13.41-26.19-1.89-9.51-3.67-18.5-11.93-22.8-7.06-3.67-13.85-1.44-21.72,1.14s-16.51,5.41-26.71,2.47c-13.84-4-25.08-17.13-33.41-39l2.42-.92c8,21.1,18.69,33.7,31.7,37.44,9.44,2.71,17.45.09,25.19-2.45,8.08-2.64,15.7-5.14,23.72-1,9.37,4.88,11.36,14.9,13.29,24.6,1.86,9.37,3.78,19.06,12.26,24.51,9.15,5.89,19.26,2.9,30-.28s21.55-6.39,31.26,0c9.49,6.23,10.84,17.08,12.15,27.56s2.55,20.42,11.18,26.38,18.55,3.13,28.88,0c10.66-3.2,21.67-6.5,32.88-.7,13.63,7.05,17.06,22.44,20.38,37.33,3.18,14.27,6.46,29,18.7,36.37,13.05,7.81,33,5.06,59.35-8.18Z"/><path class="cls-5" d="M442.07,112.6c-27.19,13.67-48,16.39-61.85,8.09-13.2-7.92-16.61-23.22-19.9-38s-6.48-29.1-19-35.59C331,41.76,320.5,44.9,310.34,48c-10.47,3.14-21.3,6.38-31.11-.39-9.59-6.62-11-17.58-12.28-28.19C265.66,9,264.44-.77,256-6.34c-8.71-5.72-18.61-2.79-29.1.33-10.79,3.2-22,6.51-32.1,0-9.41-6-11.44-16.29-13.41-26.19-1.89-9.51-3.67-18.5-11.93-22.8-7.06-3.67-13.85-1.44-21.72,1.14s-16.51,5.4-26.71,2.47c-13.84-4-25.09-17.13-33.41-39L90-91.36c8,21.1,18.69,33.71,31.7,37.45,9.44,2.71,17.45.09,25.19-2.45,8.07-2.64,15.7-5.14,23.72-1C180-52.45,182-42.43,183.9-32.74c1.86,9.37,3.78,19.06,12.26,24.52,9.15,5.89,19.26,2.89,30-.28s21.55-6.39,31.26,0c9.49,6.23,10.84,17.07,12.15,27.56s2.54,20.42,11.17,26.37c8.79,6.07,18.55,3.14,28.89,0,10.66-3.19,21.67-6.49,32.88-.69,13.63,7,17.06,22.44,20.38,37.33,3.18,14.27,6.46,29,18.7,36.36,13.05,7.82,33,5.07,59.35-8.17Z"/><path class="cls-5" d="M391,199.83c-27.18,13.67-48,16.39-61.85,8.09-13.2-7.92-16.6-23.23-19.9-38-3.33-15-6.48-29.1-19-35.59-10.28-5.31-20.78-2.17-30.94.88-10.47,3.13-21.3,6.38-31.11-.39-9.58-6.62-10.95-17.58-12.27-28.19-1.29-10.36-2.51-20.14-11-25.71-8.71-5.72-18.61-2.79-29.1.32-10.79,3.21-22,6.52-32.1,0-9.41-6-11.44-16.29-13.4-26.19-1.9-9.51-3.68-18.5-11.94-22.8-7.06-3.67-13.85-1.44-21.72,1.13S80.16,38.74,70,35.81c-13.84-4-25.08-17.13-33.41-39L39-4.13C47,17,57.66,29.58,70.68,33.32c9.43,2.71,17.44.09,25.18-2.45,8.08-2.64,15.7-5.14,23.72-1,9.37,4.87,11.36,14.9,13.29,24.59,1.86,9.37,3.79,19.06,12.27,24.52,9.14,5.89,19.25,2.89,30-.28s21.55-6.39,31.26,0c9.49,6.23,10.84,17.07,12.15,27.56s2.55,20.42,11.18,26.37c8.78,6.07,18.55,3.14,28.88,0,10.66-3.19,21.67-6.49,32.89-.69,13.62,7,17.05,22.44,20.37,37.33,3.18,14.27,6.46,29,18.71,36.36,13,7.82,33,5.07,59.34-8.18Z"/><path class="cls-5" d="M398.89,181.28c-27.18,13.67-48,16.39-61.85,8.08-13.19-7.91-16.6-23.21-19.9-38-3.33-15-6.48-29.1-19-35.59-10.29-5.32-20.79-2.17-30.95.88-10.47,3.13-21.3,6.38-31.11-.39-9.58-6.62-11-17.59-12.27-28.19-1.29-10.36-2.51-20.14-11-25.72-8.71-5.72-18.61-2.78-29.1.33-10.79,3.2-22,6.51-32.1,0-9.4-6-11.44-16.29-13.4-26.19-1.9-9.52-3.68-18.5-11.94-22.8-7.06-3.67-13.85-1.45-21.72,1.13S88,20.19,77.81,17.26C64,13.28,52.73.12,44.4-21.76l2.43-.92.3.8c8,20.62,18.55,33,31.4,36.65,9.44,2.71,17.44.09,25.18-2.45,8.08-2.65,15.7-5.15,23.72-1,9.37,4.87,11.36,14.9,13.29,24.59C142.58,45.31,144.51,55,153,60.46c9.14,5.89,19.25,2.89,29.95-.28s21.55-6.39,31.26,0c9.49,6.23,10.84,17.07,12.15,27.56s2.55,20.41,11.18,26.37c8.78,6.07,18.55,3.14,28.89,0,10.65-3.19,21.66-6.49,32.88-.69,13.62,7,17.05,22.44,20.37,37.33,3.18,14.27,6.46,29,18.71,36.36,13,7.82,33,5.07,59.34-8.18Z"/><path class="cls-5" d="M377.38,214.48c-27.18,13.67-48,16.39-61.85,8.09-13.2-7.92-16.6-23.22-19.9-38s-6.48-29.1-19-35.59c-10.28-5.32-20.78-2.17-30.94.88-10.47,3.13-21.3,6.38-31.11-.39-9.58-6.62-10.95-17.59-12.27-28.19-1.3-10.36-2.52-20.14-11-25.72-8.71-5.71-18.61-2.78-29.1.33-10.79,3.2-21.95,6.51-32.1,0-9.41-6-11.44-16.29-13.41-26.19-1.89-9.51-3.67-18.5-11.93-22.8C97.67,43.18,90.88,45.41,83,48S66.5,53.39,56.3,50.46C42.63,46.53,31.49,33.67,23.2,12.25l-.31-.81,2.42-.92c.1.27.21.53.31.8,8,20.62,18.54,33,31.39,36.65,9.44,2.71,17.45.09,25.19-2.45,8.08-2.65,15.7-5.15,23.72-1,9.37,4.87,11.36,14.9,13.29,24.59,1.86,9.37,3.78,19.06,12.26,24.52,9.15,5.89,19.26,2.89,30-.28s21.55-6.39,31.26,0c9.49,6.23,10.84,17.07,12.15,27.56s2.55,20.42,11.18,26.37,18.55,3.14,28.88,0c10.66-3.19,21.67-6.49,32.88-.69,13.63,7,17.06,22.44,20.38,37.33,3.18,14.27,6.46,29,18.71,36.36,13,7.82,33,5.07,59.34-8.18Z"/><path class="cls-5" d="M423,149.87c-27.19,13.67-48,16.39-61.85,8.09-13.2-7.91-16.61-23.22-19.9-38-3.34-15-6.48-29.1-19-35.59C312,79,301.46,82.17,291.3,85.22c-10.47,3.14-21.3,6.38-31.11-.39-9.58-6.62-10.95-17.58-12.27-28.19-1.3-10.36-2.52-20.14-11-25.71-8.71-5.72-18.61-2.79-29.1.33-10.79,3.2-21.95,6.51-32.1,0C166.31,25.18,164.28,14.94,162.31,5c-1.89-9.51-3.67-18.5-11.93-22.8-7.06-3.67-13.85-1.44-21.72,1.14s-16.51,5.4-26.71,2.47c-13.67-3.93-24.81-16.79-33.1-38.21-.11-.27-.21-.53-.31-.81L71-54.09c.1.27.21.54.31.8,8,20.63,18.54,33,31.39,36.65,9.44,2.71,17.45.09,25.19-2.45,8.08-2.64,15.7-5.14,23.72-1,9.37,4.88,11.36,14.9,13.29,24.59,1.86,9.37,3.78,19.06,12.26,24.52,9.15,5.89,19.26,2.89,30-.28s21.55-6.39,31.26,0c9.49,6.23,10.84,17.07,12.15,27.56S253,76.74,261.67,82.69s18.55,3.14,28.88,0c10.66-3.19,21.67-6.49,32.88-.69,13.63,7,17.06,22.44,20.38,37.33,3.18,14.27,6.46,29,18.7,36.36,13.05,7.82,33,5.07,59.35-8.17Z"/><path class="cls-5" d="M430.88,131.32c-27.18,13.67-48,16.39-61.85,8.08-13.2-7.91-16.61-23.22-19.9-38-3.33-15-6.48-29.1-19-35.59-10.28-5.32-20.78-2.17-30.94.88-10.47,3.13-21.3,6.38-31.11-.39-9.58-6.62-11-17.59-12.27-28.19-1.3-10.36-2.52-20.14-11-25.72-8.71-5.72-18.61-2.78-29.1.33-10.79,3.2-21.95,6.51-32.1,0-9.41-6-11.44-16.29-13.41-26.19-1.89-9.52-3.67-18.5-11.93-22.8-7.06-3.67-13.85-1.45-21.72,1.13S120-29.77,109.8-32.7C96.13-36.63,85-49.49,76.7-70.91l-.31-.81,2.42-.92c8,21.09,18.69,33.7,31.7,37.45,9.44,2.71,17.45.09,25.19-2.45,8.08-2.65,15.7-5.15,23.72-1,9.37,4.87,11.36,14.9,13.29,24.59C174.57-4.65,176.49,5,185,10.5c9.15,5.89,19.26,2.89,30-.28s21.55-6.39,31.26,0c9.49,6.23,10.84,17.07,12.15,27.56s2.55,20.41,11.18,26.37c8.78,6.07,18.55,3.14,28.88,0,10.66-3.19,21.67-6.49,32.88-.69,13.63,7,17.06,22.44,20.38,37.33,3.18,14.27,6.46,29,18.7,36.36,13.05,7.82,33,5.07,59.35-8.18Z"/><path class="cls-5" d="M409.37,164.52c-27.19,13.67-48,16.39-61.85,8.09-13.2-7.92-16.6-23.22-19.9-38-3.34-15-6.48-29.1-19-35.59-10.28-5.32-20.78-2.17-30.94.88-10.47,3.13-21.3,6.38-31.11-.39-9.58-6.62-10.95-17.59-12.28-28.19-1.29-10.36-2.51-20.14-11-25.71-8.71-5.72-18.61-2.79-29.1.32-10.79,3.2-21.95,6.51-32.1,0-9.41-6.05-11.44-16.29-13.41-26.19-1.89-9.51-3.67-18.5-11.94-22.8C129.66-6.78,122.87-4.55,115-2S98.49,3.43,88.29.5C74.62-3.43,63.48-16.29,55.19-37.71c-.11-.27-.21-.54-.31-.81l2.42-.92C65.3-18.33,76-5.74,89-2c9.44,2.71,17.45.09,25.19-2.45,8.07-2.65,15.7-5.15,23.72-1,9.37,4.87,11.36,14.9,13.29,24.59,1.86,9.37,3.78,19.06,12.26,24.52,9.15,5.89,19.26,2.89,30-.28s21.55-6.39,31.26,0c9.49,6.23,10.84,17.07,12.15,27.56S239.37,91.39,248,97.34c8.79,6.07,18.55,3.14,28.89,0,10.65-3.19,21.67-6.49,32.88-.69,13.63,7,17.06,22.44,20.38,37.33,3.18,14.27,6.46,29,18.7,36.36,13,7.82,33,5.07,59.35-8.18Z"/></g></g><path class="cls-6" d="M311.63,122.58a5.42,5.42,0,0,0-.81.06,21.28,21.28,0,0,0-38.42-5.78c-6.76,2.16-12.72,5.25-12,11.07,5.53,7.13,9.94,8.69,12.18,12.28,0,0,0,0,0,0a.61.61,0,0,1,.07.1c.07.09.13.18.2.26a21.28,21.28,0,0,0,37.93-6.51,5.42,5.42,0,0,0,.81.06,5.79,5.79,0,0,0,0-11.57Z"/><path class="cls-7" d="M290.32,152.17a23.87,23.87,0,0,1-19.43-10.06,4,4,0,0,1-.27-.37l-.17-.26a17.22,17.22,0,0,0-3.72-3.68,49.28,49.28,0,0,1-8.29-8.34l-.42-.54-.08-.68c-1.07-8.45,8.34-12,12.87-13.49a23.78,23.78,0,0,1,41.83,5.39,8.29,8.29,0,0,1,0,16.45A23.86,23.86,0,0,1,290.32,152.17Zm-15.63-13.33.24.32a18.79,18.79,0,0,0,33.49-5.74l.58-2.11,2.17.31a3.44,3.44,0,0,0,.46,0,3.29,3.29,0,0,0,0-6.57,3.42,3.42,0,0,0-.46,0l-2.17.3-.58-2.11a18.79,18.79,0,0,0-33.92-5.1L274,119l-.86.27c-8.77,2.81-10.32,5.55-10.31,7.74a44.94,44.94,0,0,0,7.07,7A21,21,0,0,1,274.69,138.84Z"/><path class="cls-6" d="M106.76,126.83c-2-4.25-6-9.46-9.51-11.2a21.26,21.26,0,0,0-37.11,5.62,5.78,5.78,0,0,0-.79,11.5,21.3,21.3,0,0,0,38.37,7.73c4.37-1,8.18.89,10.56-2.51C110.54,134.73,108.15,129.73,106.76,126.83Z"/><path class="cls-7" d="M80.2,152.17a23.91,23.91,0,0,1-22.93-17.4A8.22,8.22,0,0,1,51.94,127,8.33,8.33,0,0,1,58.35,119,23.84,23.84,0,0,1,80.2,104.56a23.6,23.6,0,0,1,18.71,9.12c3.92,2.25,8,7.67,10.1,12.07h0l-2.25,1.08,2.26-1.08c1.54,3.23,4.41,9.22,1.31,13.65-2.29,3.28-5.61,3.27-8.26,3.25a22,22,0,0,0-2.92.12A23.82,23.82,0,0,1,80.2,152.17Zm0-42.61a18.83,18.83,0,0,0-17.71,12.53l-.58,1.63-1.73,0a3.28,3.28,0,0,0-.45,6.52l1.71.27.36,1.69a18.8,18.8,0,0,0,33.86,6.83l.56-.8,1-.21a21.4,21.4,0,0,1,4.92-.4c2.54,0,3.41-.07,4.14-1.11,1.43-2-.62-6.33-1.72-8.63l2.25-1.08-2.26,1.08c-2.06-4.32-5.74-8.73-8.36-10l-.53-.26-.36-.47A18.65,18.65,0,0,0,80.2,109.56Z"/><path class="cls-6" d="M213.22,289.13c-8.09,4.89-23.54,4.3-32.06-5-10.71-11.64-2-26.93,1.81-26.56,13.75,1.31.28,3.55,11.65,17.81C202.38,285.16,210.44,288.47,213.22,289.13Z"/><path class="cls-7" d="M200.9,294.68c-7.71,0-16-2.74-21.58-8.82a21.5,21.5,0,0,1-3.51-24.55c2.05-4.12,4.82-6.42,7.4-6.19,8.19.78,9.35,2.69,8.95,6.94-.21,2.24-.52,5.62,4.41,11.8,8.52,10.69,16.87,12.75,17.22,12.83l6,1.4-5.24,3.17A26.61,26.61,0,0,1,200.9,294.68Zm-18-34.56c-.77.38-2.84,2.72-3.88,6.76a16.41,16.41,0,0,0,3.95,15.6c5.92,6.44,16,8.36,23.61,6.59a46.74,46.74,0,0,1-14-12.09c-6.18-7.76-5.74-12.53-5.48-15.38,0-.24,0-.54.06-.77A19.26,19.26,0,0,0,182.93,260.12Zm.09,0"/><path class="cls-6" d="M190.26,264.77c1-2.48,8.19-2.68,13.28,0,7.72,4.06,9.5,17.77,7.55,20C206.66,289.67,187.21,272.41,190.26,264.77Z"/><path class="cls-7" d="M208.87,288.09c-1.77,0-4.13-.65-7.23-2.57-7.32-4.55-16.42-14.88-13.7-21.68h0a5.11,5.11,0,0,1,3.22-2.83c3.55-1.31,9.38-.65,13.55,1.55,6.73,3.54,8.76,12.19,9.22,14.76.36,2,1,6.88-1,9.06A5.27,5.27,0,0,1,208.87,288.09Zm-16.34-22.24c-.66,2.22,2.11,7.53,7.89,12.55,4.63,4,8,4.93,8.74,4.68.75-2.26-.85-13-6.78-16.1C198.44,264.91,193.6,265.12,192.53,265.85Z"/><path class="cls-6" d="M174.52,274.21c-3.09,1.42-7.66,5.67-13,9.31,3.84,2.6,13.71,2.36,18.79,1.64C179.33,282.28,176,277.16,174.52,274.21Z"/><path class="cls-7" d="M172.75,288.14c-4.4,0-9.57-.51-12.58-2.55l-3-2,3-2.08c2.13-1.46,4.19-3.07,6-4.49a42.76,42.76,0,0,1,7.3-5l2.2-1,1.08,2.16c.52,1,1.32,2.42,2.16,3.88a52.91,52.91,0,0,1,3.81,7.35l1,2.89-3,.43A64.78,64.78,0,0,1,172.75,288.14Zm-5.83-5.43a45.37,45.37,0,0,0,9.68.32c-.62-1.15-1.34-2.39-2-3.56-.35-.62-.7-1.22-1-1.79-1.28.87-2.77,2-4.31,3.23Z"/><path class="cls-7" d="M68,158.8c1.49,4.52,2.3,4,6.21,5a9.31,9.31,0,0,0,9.32-2.48c8.23,1-4,52,16.78,83.27,18.37,27.73,48.51,37.3,57.65,38.65-1.56,6.34-28.93,31.38-55.65-1.56-2.63,5.13,21,17.33,45.38,52.52,19.64,28.35,23.93,40.5,22.23,44.63C163.56,394.14,99,382,61.75,371.34c-16.73-4.77-25.09-7.15-29.83-11.19C-18.69,317.07,58.08,156.46,68,158.8Z"/><path class="cls-7" d="M288.59,163.77c2.09,2.81,3.64,5.11,8.08,5.6,4.23.46,5-1.87,8.7-4.35,10.72,3.84,29.48,79.43,37.28,113.1,12.52,54,14.93,61.66,9.33,72.71-19.22,37.89-95.82,43.36-108.14,23-4.69-7.77-1.23-31.39,12.68-69.72,5.38-14.84,31.5-34.56,27.5-38.21-2.2-2-19.57,25.66-32.75,31.21-13,5.49-37-4.51-38.05-8,14.53-6.05,26.44-5.12,43.67-24.06,22.44-24.67,25.58-66.42,26.1-73.33C283.56,184.15,284,169.51,288.59,163.77Z"/><path class="cls-7" d="M274.52,110.29c-7.81-9.55.58-38.72,12.41-35.65,3.19.83-.67,17.89,4.23,19.54,4.49,1.52,9.08-21.18,14.26-10C308.13,90,301,97,303.57,100c1.47,1.67,13.84-8.17,14.52,1.59.24,3.35-5.79,7.48-4.75,11.09.61,2.12,10,3.38,11.32,7,1.54,4.16-2.83,6.42-6.18,6-2.85-.32-7.72-1.89-9.89-1.7-2.35.21-2.91,6.62-4.49,6.61s-1.13-6.2-4-10.57C294.4,111.21,280,117,274.52,110.29Z"/><path class="cls-7" d="M109,68.64c-6.9-2.35-18.51.74-26.18,11.79-4.72-5.29-10.18-8.19-14-6.74C65.35,75,64,82,64.7,89.24A24.82,24.82,0,0,0,58.25,91C45.55,96.13,34,110.8,33.67,127.76c-.21,11.83,5,29.63,17.79,33.18,9.89,2.74,19.77-5.12,22.92-10,2.31-3.53-7.34-5.56-16.28-17.19-1.53-2-5.52-6.39-3.66-9,1.55-2.21,5.92-7.54,11-.15,3.77-1.86,1.45-6.42,4.67-7.39,4.29-1.3,6.25-.48,11-1.12A19.86,19.86,0,0,0,87.69,118c12.15,1.42,20.76-8.44,21.69-9.54C120.94,94.8,116.55,71.22,109,68.64Z"/></g><path class="cls-6" d="M80.2,149.67c-2.79,3.93,2,11.82,2.68,14.56-5.11,3.31-14,2.09-14.91-5.43a69.72,69.72,0,0,1,0-13C72,147.87,73.47,149.78,80.2,149.67Z"/><path class="cls-7" d="M76.78,168.46a12.85,12.85,0,0,1-5.41-1.15,10.08,10.08,0,0,1-5.88-8.2l0-.14c0-.28,0-.57-.07-.88a74.59,74.59,0,0,1,.07-12.44l.25-3.78,3.37,1.71c.94.47,1.75.94,2.46,1.35,2.41,1.4,4,2.3,8.61,2.24l4.94-.08-2.86,4c-1.29,1.81.76,6.67,1.86,9.28a25.91,25.91,0,0,1,1.21,3.23l.42,1.73-1.49,1A13.79,13.79,0,0,1,76.78,168.46Zm-6.32-9.9a5.1,5.1,0,0,0,3,4.22,8.77,8.77,0,0,0,6.27.19c-.08-.21-.17-.42-.26-.63-1.21-2.87-2.87-6.8-2.62-10.3A16.33,16.33,0,0,1,70.26,150a55.42,55.42,0,0,0,.13,7.73C70.41,158,70.44,158.27,70.46,158.56Z"/><path class="cls-6" d="M288.23,150.33c3.2,3.39,2.49,16.19,2.35,19,5.21,2.39,13.09,2.25,12.66-5.32A90.64,90.64,0,0,0,301,148.66C297.66,151.37,294.38,149.29,288.23,150.33Z"/><path class="cls-7" d="M296.62,173.21a17.59,17.59,0,0,1-7.08-1.61l-1.54-.71.09-1.84c.7-13.75-1.27-16.58-1.67-17l-3.22-3.4,4.62-.78a30.25,30.25,0,0,1,6.76-.28c2.5.11,3.65.12,4.86-.86l3.1-2.51.91,3.88a85.6,85.6,0,0,1,2.15,14.21c0,.58.08,1.06.12,1.44v.13c.25,4.33-1.7,6.6-3.37,7.74A10.1,10.1,0,0,1,296.62,173.21Zm-3.46-5.57c2.49.78,5,.74,6.39-.16.32-.23,1.31-.9,1.2-3.27-.05-.42-.09-.93-.13-1.54a78.72,78.72,0,0,0-1.37-10.37,16.18,16.18,0,0,1-4.89.27c-.74,0-1.49-.07-2.26-.06C292.92,155.31,293.46,159.88,293.16,167.64Z"/><circle class="cls-8" cx="183.52" cy="142.57" r="51.34"/><path class="cls-9" d="M186.31,137.54s13.33-3.48,24,4.3a25.73,25.73,0,0,1,10.62,19.44s-13-.11-22.81-6.07C189.57,150,186.31,137.54,186.31,137.54Z"/><path class="cls-10" d="M143.61,110.37a42.08,42.08,0,0,0-4.09,5.78,61.73,61.73,0,0,1,8.69-3.51c3.68-1.15,7.76-2,11.1-1.33,7.78,1.48,14.2,5.87,23.12,26.76,6.85,16,19.75,22.71,30.95,24.63,7,1.2,14-.51,18.18-2a42,42,0,0,0,1.46-4.48c-2.73,1.26-10.8,4.25-19,2.85a36.57,36.57,0,0,1-28.21-22.46c-9.78-22.89-17.28-27.29-25.8-28.92-3.89-.74-8.61.1-12.89,1.43C145.89,109.52,144.72,109.94,143.61,110.37Z"/><path class="cls-9" d="M221,168.76a1.83,1.83,0,1,1-3.64-.35,44.62,44.62,0,0,0-.31-10.28,13.77,13.77,0,0,0-1.25-4,3.48,3.48,0,0,0-1.8-1.82,1.83,1.83,0,1,1,1.21-3.46c2.32.82,3.93,3.09,4.82,6C221.78,160.55,221,168.76,221,168.76Zm0,0"/></svg>