<svg xmlns="http://www.w3.org/2000/svg" xmlns:xlink="http://www.w3.org/1999/xlink" width="400" height="400" viewBox="0 0 400 400"><defs><clipPath id="a"><circle cx="200" cy="200" r="200" fill="none"/></clipPath></defs><circle cx="200" cy="200" r="200" fill="#f6f6f6"/><g clip-path="url(#a)"><path d="M285.26,348.7c44.39-27.1,58.4-63.24,29.44-129.87-10.8,24.45-1.72,57.1-54.66,85-22.26,11.74-30.63,6.9-37.67,4.91-4.57-1.28-.11,8.67-18.08,11.19-13.95,1.95-12.89-11-19.32-10.22-19.43,2.33-41.56,7-56.21-6.81-30.11-28.31-35.51-48.52-40.65-84.09-20.55,25.22-19.32,68.72-8.87,93.43,12.37,29.28,28.9,36.57,42.45,41.71-3.13,34.91-23.62,43.92-29.92,73.27-8.47,39.41,36.08,57.84,73,73.06,86.14,35.48,185.83-36.65,185.83-64.59C350.62,411.55,288.06,380.73,285.26,348.7Z" fill="#077594"/><path d="M314.54,228.3c-.62-13.4-1.43-24.16,12.76-38.8,3.45-3.55,13.79-14.22,22.94-10.57,6.33,2.53,10.65,11.34,8.45,17.11s-9.72,4.75-20.63,10.64C321.37,215.68,320.14,222.78,314.54,228.3Z" fill="#fff"/><path d="M312,234.67l-.32-7.06c-.63-13.33-1.16-24.85,13.58-40.05,3.73-3.85,15.08-15.57,26-11.22,7.71,3.08,12.77,13.52,10,20.69-1.8,4.72-6,6.08-10.92,7.65a61.54,61.54,0,0,0-11,4.45c-11.42,6.16-15.15,11.26-18.44,15.75a42.51,42.51,0,0,1-4.44,5.41Zm34.2-53.7c-6.78,0-14.24,7.7-16.93,10.47-10.76,11.09-12.36,19.43-12.25,29.3,3.37-4.57,7.88-10.15,19.67-16.52a65.92,65.92,0,0,1,11.93-4.85c4.56-1.46,6.6-2.2,7.42-4.33,1.67-4.37-2-11.57-6.88-13.52A8,8,0,0,0,346.24,181Z" fill="#077594"/><path d="M87.18,230.71c-.05-13.41.23-24.2-14.67-38.12-3.62-3.38-14.48-13.51-23.43-9.42C42.89,186,39,195,41.49,200.67s9.94,4.27,21.13,9.61C79.73,218.45,81.31,225.48,87.18,230.71Z" fill="#fff"/><path d="M90,237l-4.67-4.16a42.21,42.21,0,0,1-4.7-5.17c-3.51-4.33-7.49-9.23-19.2-14.82a60.4,60.4,0,0,0-11.2-3.9c-5-1.33-9.24-2.47-11.28-7.1-3.1-7,1.44-17.71,9-21.16,10.65-4.88,22.58,6.26,26.5,9.92C89.89,205,89.93,216.54,90,229.89ZM53.63,185a8.15,8.15,0,0,0-3.39.71c-4.78,2.19-8.08,9.56-6.2,13.84.93,2.09,3,2.72,7.63,4a66.51,66.51,0,0,1,12.16,4.25c12.09,5.77,16.87,11.13,20.46,15.53-.38-9.86-2.39-18.11-13.68-28.66C67.85,192.06,60.29,185,53.63,185Z" fill="#077594"/><path d="M175.77,282.25a8.71,8.71,0,0,1-3.4-15.42,30,30,0,0,1,33.41-42.75c.76.17,1.5.38,2.24.6h0c6.69.68,23.62,3,23.74,9.93,0,2.37-2,5.11-5,6.93a29.88,29.88,0,0,1,1.7,18.41c-3.64,16.17-19.17,28.5-35.34,24.86a22.82,22.82,0,0,1-7.19-3.05C183.9,284.13,179,283,175.77,282.25Z" fill="#fff"/><path d="M198.68,288.22a28.09,28.09,0,0,1-6.16-.68,22.78,22.78,0,0,1-6.38-2.46c-3.21,1.65-7.68.64-10.84-.07l-.15,0A11.51,11.51,0,0,1,169,266.19a32.78,32.78,0,0,1,12.65-40.55,32.54,32.54,0,0,1,24.74-4.28c.66.15,1.35.33,2.14.56,17.16,1.79,25.91,6,26,12.64,0,2.76-1.6,5.69-4.39,8a32.55,32.55,0,0,1,1,18C227.55,276.72,213.45,288.22,198.68,288.22Zm-13.36-10,2,1.14a20.38,20.38,0,0,0,6.42,2.75c13.87,3.12,28.53-7.3,32-22.75a27.11,27.11,0,0,0-1.54-16.7l-1-2.21,2.06-1.27c2.4-1.47,3.68-3.42,3.66-4.51,0-2.42-6.89-5.56-19.92-7.06l-.25.25-1.6-.49c-.67-.2-1.34-.39-2-.55a27.23,27.23,0,0,0-30.31,38.78l1,2.06-1.83,1.4a5.86,5.86,0,0,0-2.18,3.4,5.93,5.93,0,0,0,4.49,7.09l.15,0c1.74.39,6.38,1.43,7.29.37Z" fill="#077594"/><path d="M200.43,221c.66,1.2-8.83-.55-11.71,5.31-3.33,6.78,2,9,2.11,15.29.15,6.07-14.61,5-3.56,24-5.46,7-8.19,2.36-14.13.49-8.84,5.27-5.2,7.25-5.15,9.05.1,4.52,11.49,11.13,19.61,8.87.7,3.31-2.53,9.74-5.5,10.4-3.52.78-12.42-.91-12.27-7.33-3.35.46-9.17-.65-13.94-3.79-6.46-4.24-9.85-14.17-7.56-21.49,1.46-4.63,2.21-6.59,4.74-8.5-6.77-3.39-8.25-12.7-6.55-18.22,1.82-5.91,10.38-13.41,19.08-11.36-3.31-4.49,0-9.78,4-13.89,4.74-4.93,14.26-3.47,19.47-1.49C191.31,209.17,197.23,215.14,200.43,221Z" fill="#077594"/><path d="M232.47,70.63H168.36a3.94,3.94,0,0,0-3.93,3.94V164a3.93,3.93,0,0,0,3.93,3.94h64.11a3.93,3.93,0,0,0,3.94-3.94V74.57A3.94,3.94,0,0,0,232.47,70.63ZM200.42,88.38a19.34,19.34,0,1,1-19.33,19.34A19.34,19.34,0,0,1,200.42,88.38Zm23.32,63H177.1v-5.1h46.64Z" fill="#e05e48"/><polygon points="139.14 94.65 79.1 64.07 88.11 52.57 139.14 94.65" fill="#eaa69d"/><polygon points="139.14 144.39 67.98 141.98 76.69 160.84 139.14 144.39" fill="#eaa69d"/><polygon points="147.19 166.05 109.12 185.99 120.91 198.38 147.19 166.05" fill="#eaa69d"/><polygon points="260.26 96.22 320.3 65.65 311.29 54.14 260.26 96.22" fill="#eaa69d"/><polygon points="260.26 145.97 331.42 143.56 322.71 162.42 260.26 145.97" fill="#eaa69d"/><polygon points="252.21 167.63 290.28 187.56 278.49 199.95 252.21 167.63" fill="#eaa69d"/><path d="M212.18,281.93c-.29,8.87,3.47,25.44,7.28,29C215,321.19,196.08,323.58,187,313c.08-4.34,8.41-15.38.62-29C198,285.44,206.68,284.57,212.18,281.93Z" fill="#fff"/><path d="M202.91,322.65a23.73,23.73,0,0,1-18-7.88l-.69-.81,0-1.06a18.51,18.51,0,0,1,1.43-5.46c2-5.51,4.72-13.07-.44-22.08l-2.84-4.94,5.65.79c9.45,1.33,17.83.68,23-1.8l4.14-2L215,282c-.3,9.21,3.66,24.31,6.39,26.84l1.45,1.34L222,312c-2.35,5.4-8,9.27-15.21,10.34A25.79,25.79,0,0,1,202.91,322.65Zm-13-10.59c4.6,4.58,11.19,5.5,16,4.78,4.55-.68,8.22-2.74,10.15-5.64-3.47-5.3-6.08-17-6.64-25.28a49.51,49.51,0,0,1-17.29,1.36c3.3,9.23.47,17.08-1.33,22.06C190.52,310.31,190.16,311.31,190,312.06Z" fill="#077594"/></g></svg>