<svg width="73" height="54" viewBox="0 0 73 54" fill="none" xmlns="http://www.w3.org/2000/svg">
<path d="M71.835 51.9531L2.98291 51.9531C2.73457 51.9531 2.49626 51.8377 2.31989 51.632C2.14352 51.4262 2.04335 51.1468 2.04119 50.8545V1.70767L71.835 1.70767V51.9531Z" fill="#B4D5DE"/>
<path d="M70.9549 53.6665H29.8932C29.6578 53.6842 29.4212 53.653 29.1984 53.5751C28.9755 53.4972 28.7712 53.3741 28.5981 53.2135C28.425 53.0529 28.287 52.8584 28.1926 52.642C28.0981 52.4256 28.0494 52.1921 28.0494 51.956C28.0494 51.7199 28.0981 51.4863 28.1926 51.27C28.287 51.0536 28.425 50.859 28.5981 50.6984C28.7712 50.5379 28.9755 50.4148 29.1984 50.3368C29.4212 50.2589 29.6578 50.2278 29.8932 50.2455H69.2396V3.42101H3.42102V27.5126C3.38861 27.9441 3.19434 28.3474 2.87713 28.6417C2.55992 28.9359 2.14321 29.0995 1.71052 29.0995C1.27783 29.0995 0.86112 28.9359 0.54391 28.6417C0.2267 28.3474 0.0324229 27.9441 1.40423e-05 27.5126V1.71532C1.40423e-05 1.26039 0.180735 0.824092 0.50242 0.502406C0.824106 0.180721 1.2604 0 1.71534 0H70.9549C71.4082 0.00254644 71.842 0.184391 72.1616 0.505801C72.4812 0.827211 72.6606 1.26206 72.6606 1.71532V51.9511C72.6606 52.4044 72.4812 52.8393 72.1616 53.1607C71.842 53.4821 71.4082 53.6639 70.9549 53.6665Z" fill="#077594"/>
<path d="M42.9517 45.512H34.7317C34.3002 45.4796 33.8969 45.2853 33.6026 44.9681C33.3084 44.6509 33.1448 44.2342 33.1448 43.8015C33.1448 43.3688 33.3084 42.9521 33.6026 42.6349C33.8969 42.3177 34.3002 42.1234 34.7317 42.091H41.2364V26.1905H30.0771V30.2958V34.401C30.0771 34.8559 29.8964 35.2922 29.5747 35.6139C29.253 35.9356 28.8167 36.1163 28.3618 36.1163C27.9069 36.1163 27.4706 35.9356 27.1489 35.6139C26.8272 35.2922 26.6465 34.8559 26.6465 34.401V29.4381V24.4752C26.6489 24.0269 26.8268 23.5974 27.142 23.2786C27.4572 22.9598 27.8847 22.7771 28.3329 22.7695H42.8746C43.327 22.7695 43.7609 22.9492 44.0807 23.2691C44.4006 23.589 44.5803 24.0228 44.5803 24.4752V43.7967C44.5833 44.2377 44.4153 44.6627 44.1116 44.9825C43.808 45.3023 43.3923 45.4921 42.9517 45.512Z" fill="white"/>
<path d="M20.2846 43.2383H7.98821C7.55674 43.2059 7.15345 43.0116 6.85917 42.6944C6.56489 42.3772 6.40137 41.9605 6.40137 41.5278C6.40137 41.0951 6.56489 40.6784 6.85917 40.3612C7.15345 40.044 7.55674 39.8497 7.98821 39.8173H20.2846C20.52 39.7996 20.7565 39.8307 20.9794 39.9087C21.2022 39.9866 21.4066 40.1097 21.5797 40.2703C21.7527 40.4309 21.8908 40.6254 21.9852 40.8418C22.0796 41.0582 22.1284 41.2917 22.1284 41.5278C22.1284 41.7639 22.0796 41.9975 21.9852 42.2138C21.8908 42.4302 21.7527 42.6248 21.5797 42.7853C21.4066 42.9459 21.2022 43.069 20.9794 43.147C20.7565 43.2249 20.52 43.256 20.2846 43.2383Z" fill="white"/>
<path d="M62.6176 43.4258H50.3212C49.8897 43.3934 49.4865 43.1991 49.1922 42.8819C48.8979 42.5647 48.7344 42.148 48.7344 41.7153C48.7344 41.2826 48.8979 40.8659 49.1922 40.5487C49.4865 40.2315 49.8897 40.0372 50.3212 40.0048H62.6176C62.853 39.9871 63.0895 40.0182 63.3124 40.0962C63.5352 40.1741 63.7396 40.2972 63.9127 40.4578C64.0857 40.6184 64.2238 40.8129 64.3182 41.0293C64.4126 41.2457 64.4614 41.4792 64.4614 41.7153C64.4614 41.9514 64.4126 42.185 64.3182 42.4013C64.2238 42.6177 64.0857 42.8123 63.9127 42.9728C63.7396 43.1334 63.5352 43.2565 63.3124 43.3345C63.0895 43.4124 62.853 43.4435 62.6176 43.4258Z" fill="white"/>
<path d="M20.2846 36.5547H7.98821C7.55674 36.5223 7.15345 36.328 6.85917 36.0108C6.56489 35.6936 6.40137 35.2769 6.40137 34.8442C6.40137 34.4115 6.56489 33.9948 6.85917 33.6776C7.15345 33.3604 7.55674 33.1661 7.98821 33.1337H20.2846C20.52 33.116 20.7565 33.1471 20.9794 33.2251C21.2022 33.303 21.4066 33.4261 21.5797 33.5867C21.7527 33.7473 21.8908 33.9418 21.9852 34.1582C22.0796 34.3746 22.1284 34.6081 22.1284 34.8442C22.1284 35.0803 22.0796 35.3139 21.9852 35.5302C21.8908 35.7466 21.7527 35.9412 21.5797 36.1017C21.4066 36.2623 21.2022 36.3854 20.9794 36.4634C20.7565 36.5413 20.52 36.5724 20.2846 36.5547Z" fill="white"/>
<path d="M62.6176 36.5547H50.3212C49.8897 36.5223 49.4865 36.328 49.1922 36.0108C48.8979 35.6936 48.7344 35.2769 48.7344 34.8442C48.7344 34.4115 48.8979 33.9948 49.1922 33.6776C49.4865 33.3604 49.8897 33.1661 50.3212 33.1337H62.6176C62.853 33.116 63.0895 33.1471 63.3124 33.2251C63.5352 33.303 63.7396 33.4261 63.9127 33.5867C64.0857 33.7473 64.2238 33.9418 64.3182 34.1582C64.4126 34.3746 64.4614 34.6081 64.4614 34.8442C64.4614 35.0803 64.4126 35.3139 64.3182 35.5302C64.2238 35.7466 64.0857 35.9412 63.9127 36.1017C63.7396 36.2623 63.5352 36.3854 63.3124 36.4634C63.0895 36.5413 62.853 36.5724 62.6176 36.5547Z" fill="white"/>
<path d="M22.9668 13.8008C22.9668 12.5824 23.3977 11.414 24.1648 10.5525C24.9318 9.69104 25.9722 9.20706 27.0569 9.20706C27.6933 9.20444 28.321 9.3726 28.8878 9.69754C29.4545 10.0225 29.944 10.4948 30.3154 11.0752L29.0883 12.0705C28.8691 11.7092 28.5741 11.4141 28.2294 11.2112C27.8846 11.0082 27.5007 10.9037 27.1115 10.9067C26.4587 10.96 25.8481 11.2889 25.4023 11.8272C24.9566 12.3655 24.7089 13.0733 24.7089 13.8084C24.7089 14.5435 24.9566 15.2514 25.4023 15.7897C25.8481 16.328 26.4587 16.6568 27.1115 16.7101C27.5044 16.7154 27.8924 16.6103 28.24 16.4044C28.5876 16.1985 28.8839 15.8983 29.102 15.531L30.329 16.5417C29.9576 17.122 29.4682 17.5943 28.9014 17.9193C28.3346 18.2442 27.7069 18.4124 27.0706 18.4098C26.5311 18.4118 25.9967 18.294 25.498 18.063C24.9993 17.8321 24.5462 17.4927 24.1648 17.0643C23.7833 16.6359 23.4811 16.127 23.2755 15.5669C23.0699 15.0068 22.965 14.4066 22.9668 13.8008Z" fill="#077594"/>
<path d="M36.7437 16.2112H33.1603L32.3948 18.4098H30.3262L33.8933 9.20703H35.9781L39.5289 18.4098H37.5092L36.7437 16.2112ZM36.1573 14.6407L34.9357 11.1701L33.7304 14.6407H36.1573Z" fill="#077594"/>
<path d="M39.5312 15.6472H41.5948C41.6184 15.8251 41.6827 15.9971 41.7841 16.1529C41.8854 16.3088 42.0216 16.4454 42.1846 16.5546C42.3477 16.6638 42.5342 16.7435 42.7333 16.7889C42.9324 16.8343 43.1398 16.8445 43.3435 16.8189C44.2703 16.8189 44.8824 16.4081 44.8824 15.769C44.8824 15.1299 44.4627 14.9321 43.5883 14.6886L42.3292 14.3843C40.0209 13.8669 39.6886 12.68 39.6886 11.8888C39.7082 11.5113 39.8153 11.1412 40.0036 10.8008C40.1919 10.4603 40.4574 10.1565 40.7842 9.90774C41.111 9.65894 41.4922 9.47027 41.905 9.35308C42.3178 9.23589 42.7536 9.19261 43.1861 9.22585C43.627 9.18052 44.0738 9.2173 44.4971 9.33374C44.9203 9.45018 45.3103 9.64361 45.641 9.9012C45.9718 10.1588 46.2358 10.4747 46.4156 10.8278C46.5953 11.181 46.6867 11.5634 46.6836 11.9496H44.5152C44.5045 11.6425 44.3624 11.35 44.1167 11.1293C43.8711 10.9087 43.5395 10.7758 43.1871 10.7568C42.8348 10.7377 42.4869 10.8339 42.2117 11.0264C41.9366 11.2189 41.754 11.4939 41.6997 11.7975C41.6997 12.0257 41.6997 12.4822 42.8539 12.7409L43.9905 13.03C45.5469 13.4104 46.8935 14.1104 46.8935 15.632C46.8801 16.0315 46.7708 16.4241 46.5725 16.7845C46.3741 17.145 46.0912 17.4652 45.7419 17.7247C45.3926 17.9842 44.9848 18.1771 44.5446 18.2911C44.1044 18.405 43.6416 18.4374 43.1861 18.3862C42.7371 18.426 42.2834 18.3856 41.8529 18.2678C41.4223 18.1499 41.0239 17.9569 40.6818 17.7006C40.3398 17.4443 40.0614 17.13 39.8636 16.777C39.6658 16.424 39.5527 16.0396 39.5312 15.6472Z" fill="#077594"/>
</svg>
