<svg width="56" height="70" viewBox="0 0 56 70" fill="none" xmlns="http://www.w3.org/2000/svg">
<path d="M3.41291 1.83621H52.4581C52.624 1.83306 52.789 1.85742 52.9434 1.90787C53.0978 1.95832 53.2384 2.03384 53.3571 2.12998C53.4757 2.22613 53.57 2.34096 53.6343 2.46773C53.6987 2.5945 53.7318 2.73066 53.7318 2.86819V67.0639C53.7318 67.3376 53.6006 67.6001 53.3671 67.7936C53.1336 67.9871 52.8169 68.0958 52.4866 68.0958H4.09727C3.5931 68.0958 3.10957 67.9299 2.75307 67.6344C2.39657 67.3389 2.19629 66.9382 2.19629 66.5203V2.86819C2.1962 2.59854 2.32347 2.33957 2.55084 2.1467C2.77822 1.95383 3.08765 1.84238 3.41291 1.83621Z" fill="#B4D5DE"/>
<path d="M53.9652 69.7886H40.8883H27.8114C27.3641 69.7886 26.9351 69.6185 26.6189 69.3157C26.3026 69.0129 26.1249 68.6022 26.1249 68.174C26.1249 67.7458 26.3026 67.3351 26.6189 67.0323C26.9351 66.7295 27.3641 66.5594 27.8114 66.5594H52.2499V3.22922H3.37283V42.9025C3.37283 43.3307 3.19515 43.7414 2.87889 44.0442C2.56262 44.347 2.13368 44.5171 1.68641 44.5171C1.23915 44.5171 0.810202 44.347 0.493939 44.0442C0.177675 43.7414 0 43.3307 0 42.9025V1.61461C0 1.18639 0.177675 0.775706 0.493939 0.472908C0.810202 0.17011 1.23915 0 1.68641 0H53.9652C54.4125 0 54.8414 0.17011 55.1577 0.472908C55.4739 0.775706 55.6516 1.18639 55.6516 1.61461V68.174C55.6516 68.6022 55.4739 69.0129 55.1577 69.3157C54.8414 69.6185 54.4125 69.7886 53.9652 69.7886Z" fill="#077594"/>
<path d="M46.6423 34.6706H8.98231C8.53504 34.6706 8.1061 34.5005 7.78984 34.1977C7.47357 33.8949 7.2959 33.4842 7.2959 33.056C7.2959 32.6278 7.47357 32.2171 7.78984 31.9143C8.1061 31.6115 8.53504 31.4414 8.98231 31.4414H46.6423C47.0895 31.4414 47.5185 31.6115 47.8347 31.9143C48.151 32.2171 48.3287 32.6278 48.3287 33.056C48.3287 33.4842 48.151 33.8949 47.8347 34.1977C47.5185 34.5005 47.0895 34.6706 46.6423 34.6706Z" fill="white"/>
<path d="M46.6414 46.4143H8.98138C8.55489 46.3834 8.15632 46.1994 7.8655 45.8992C7.57468 45.5989 7.41309 45.2045 7.41309 44.795C7.41309 44.3855 7.57468 43.9911 7.8655 43.6909C8.15632 43.3906 8.55489 43.2066 8.98138 43.1758H46.6414C47.0679 43.2066 47.4664 43.3906 47.7572 43.6909C48.0481 43.9911 48.2097 44.3855 48.2097 44.795C48.2097 45.2045 48.0481 45.5989 47.7572 45.8992C47.4664 46.1994 47.0679 46.3834 46.6414 46.4143Z" fill="white"/>
<path d="M46.6414 57.7579H8.98138C8.55489 57.7271 8.15632 57.5431 7.8655 57.2428C7.57468 56.9426 7.41309 56.5482 7.41309 56.1387C7.41309 55.7292 7.57468 55.3349 7.8655 55.0346C8.15632 54.7344 8.55489 54.5504 8.98138 54.5195H46.6414C47.0679 54.5504 47.4664 54.7344 47.7572 55.0346C48.0481 55.3349 48.2097 55.7292 48.2097 56.1387C48.2097 56.5482 48.0481 56.9426 47.7572 57.2428C47.4664 57.5431 47.0679 57.7271 46.6414 57.7579Z" fill="white"/>
<path d="M13.2789 19.8124V20.9472H9.16406V14.7656H13.1922V15.8635H10.465V17.3305H12.8549V18.4377H10.465V19.8124H13.2789Z" fill="#077594"/>
<path d="M19.2731 14.7656V20.9472H18.136L15.8136 17.0999V20.9472H14.5127V14.7656H15.7173L18.0108 18.5761V14.7656H19.2731Z" fill="#077594"/>
<path d="M20.4778 17.8472C20.4726 17.433 20.5537 17.022 20.7163 16.6382C20.8789 16.2543 21.1198 15.9053 21.4248 15.6116C21.7298 15.3178 22.0929 15.0852 22.4929 14.9273C22.8928 14.7693 23.3216 14.6893 23.7542 14.6918C24.1991 14.6853 24.6403 14.7691 25.0489 14.9377C25.4575 15.1063 25.8242 15.3558 26.1249 15.6698L25.1612 16.4448C24.9799 16.2525 24.7584 16.0989 24.511 15.9939C24.2636 15.889 23.9959 15.8352 23.7253 15.8358C23.457 15.843 23.1928 15.9007 22.9478 16.0057C22.7028 16.1107 22.4818 16.2609 22.2974 16.4477C22.1131 16.6345 21.9689 16.8542 21.8733 17.0943C21.7777 17.3345 21.7325 17.5903 21.7402 17.8472C21.7245 18.3687 21.9241 18.8752 22.2956 19.2568C22.6672 19.6385 23.1809 19.8646 23.7253 19.8863C24.0832 19.9213 24.443 19.8391 24.7458 19.6531C25.0486 19.4671 25.2766 19.1882 25.3925 18.8621C25.3979 18.81 25.3979 18.7574 25.3925 18.7053H23.6386V17.6996H26.8765C26.8765 19.9693 25.5948 20.9934 23.7542 20.9934C23.3228 20.9947 22.8954 20.9141 22.4966 20.7563C22.0979 20.5985 21.7358 20.3666 21.4312 20.0741C21.1265 19.7816 20.8854 19.4342 20.7218 19.052C20.5582 18.6697 20.4752 18.2603 20.4778 17.8472Z" fill="#077594"/>
<path d="M27.9463 14.7656H29.2376V19.8124H31.6757V20.9472H27.9463V14.7656Z" fill="#077594"/>
<path d="M32.5918 14.7656H33.8927V20.9472H32.5918V14.7656Z" fill="#077594"/>
<path d="M35.0879 19.1H36.3888C36.418 19.34 36.5443 19.5596 36.7407 19.7114C36.9372 19.8633 37.188 19.9352 37.4392 19.9119C38.0174 19.9119 38.4029 19.6259 38.4029 19.1922C38.4029 18.7586 38.1427 18.611 37.5934 18.4449L36.8129 18.2327C35.4059 17.8729 35.1553 17.0702 35.1553 16.5166C35.1672 16.2537 35.2348 15.9959 35.3541 15.7588C35.4734 15.5218 35.6419 15.3105 35.8493 15.1378C36.0567 14.9652 36.2986 14.8348 36.5604 14.7546C36.8221 14.6744 37.0982 14.6461 37.3718 14.6714C37.6421 14.6427 37.9157 14.6692 38.1746 14.749C38.4335 14.8288 38.6718 14.9602 38.8739 15.1345C39.0759 15.3087 39.2372 15.522 39.347 15.7602C39.4569 15.9984 39.5128 16.2562 39.5111 16.5166H38.2102C38.1989 16.3057 38.1059 16.1063 37.9494 15.9575C37.7928 15.8087 37.5839 15.7211 37.3635 15.7119C37.1431 15.7027 36.927 15.7725 36.7575 15.9076C36.5879 16.0428 36.4771 16.2336 36.4467 16.4428C36.4467 16.5904 36.4467 16.9133 37.1694 17.0886L37.8825 17.2916C38.8462 17.5499 39.6942 18.0389 39.6942 19.0815C39.6791 19.35 39.6066 19.6126 39.4812 19.8531C39.3558 20.0937 39.1801 20.307 38.9651 20.48C38.7502 20.653 38.5004 20.7818 38.2313 20.8587C37.9622 20.9355 37.6795 20.9587 37.4007 20.9268C37.1226 20.9573 36.841 20.9339 36.5726 20.8578C36.3042 20.7818 36.0545 20.6547 35.8386 20.4841C35.6227 20.3136 35.4449 20.1031 35.3159 19.8653C35.187 19.6274 35.1094 19.3672 35.0879 19.1Z" fill="#077594"/>
<path d="M45.8523 14.7656V20.9472H44.561V18.41H42.1711V20.9472H40.8701V14.7656H42.1711V17.3028H44.561V14.7656H45.8523Z" fill="#077594"/>
</svg>
