<svg width="57" height="68" viewBox="0 0 57 68" fill="none" xmlns="http://www.w3.org/2000/svg">
<path d="M39.0278 1.41016H1.37988V57.7901H39.0278C39.695 57.7912 40.3559 57.6606 40.9725 57.4057C41.5891 57.1509 42.1494 56.7769 42.6212 56.3051C43.093 55.8333 43.467 55.2731 43.7218 54.6564C43.9766 54.0398 44.1072 53.379 44.1061 52.7118V4.09571C44.1061 3.38346 43.8232 2.70038 43.3195 2.19674C42.8159 1.6931 42.1328 1.41016 41.4206 1.41016H39.0278Z" fill="white"/>
<path d="M39.0367 59.1909H1.38879C1.01893 59.1865 0.665714 59.0365 0.405735 58.7734C0.145756 58.5103 -2.62082e-05 58.1553 3.53404e-09 57.7854V1.40552C3.53404e-09 1.03276 0.148081 0.675255 0.411668 0.411668C0.675255 0.148081 1.03276 0 1.40552 0L39.0535 0C39.4262 0 39.7837 0.148081 40.0473 0.411668C40.3109 0.675255 40.459 1.03276 40.459 1.40552C40.459 1.77829 40.3109 2.13579 40.0473 2.39938C39.7837 2.66297 39.4262 2.81105 39.0535 2.81105H2.81105V56.3548H39.0367C39.9999 56.346 40.9209 55.9584 41.6004 55.2757C42.2799 54.5931 42.6633 53.6703 42.6677 52.7071V24.262C42.6677 23.8892 42.8158 23.5317 43.0793 23.2682C43.3429 23.0046 43.7004 22.8565 44.0732 22.8565C44.446 22.8565 44.8035 23.0046 45.0671 23.2682C45.3306 23.5317 45.4787 23.8892 45.4787 24.262V52.7071C45.4788 54.4195 44.8014 56.0624 43.5945 57.2771C42.3876 58.4919 40.7491 59.1799 39.0367 59.1909Z" fill="#B4D5DE"/>
<path d="M22.7554 33.4775C29.4089 33.4775 34.8027 28.0837 34.8027 21.4302C34.8027 14.7766 29.4089 9.38281 22.7554 9.38281C16.1018 9.38281 10.708 14.7766 10.708 21.4302C10.708 28.0837 16.1018 33.4775 22.7554 33.4775Z" fill="#B4D5DE"/>
<path d="M22.7564 34.842C20.0836 34.8519 17.468 34.0684 15.2409 32.5907C13.0137 31.1131 11.2752 29.0077 10.2455 26.5412C9.21574 24.0747 8.94116 21.3581 9.4565 18.7355C9.97183 16.1129 11.2539 13.7022 13.1403 11.8087C15.0267 9.91523 17.4327 8.6242 20.0534 8.0991C22.6741 7.574 25.3916 7.83846 27.8619 8.85898C30.3322 9.8795 32.4441 11.6102 33.9301 13.8318C35.416 16.0535 36.2092 18.6661 36.2093 21.3389C36.2137 24.9128 34.7994 28.3424 32.277 30.8742C29.7545 33.406 26.3303 34.8331 22.7564 34.842ZM22.7564 10.6469C20.6396 10.637 18.5675 11.2556 16.8026 12.4244C15.0377 13.5932 13.6595 15.2595 12.8425 17.2124C12.0256 19.1652 11.8067 21.3165 12.2135 23.3939C12.6204 25.4712 13.6347 27.3811 15.128 28.8814C16.6213 30.3817 18.5263 31.405 20.6018 31.8217C22.6772 32.2383 24.8295 32.0295 26.7862 31.2218C28.7428 30.414 30.4156 29.0436 31.5927 27.2843C32.7698 25.5249 33.3982 23.4557 33.3982 21.3389C33.4027 18.5105 32.2845 15.796 30.2892 13.7913C28.294 11.7867 25.5848 10.6558 22.7564 10.6469Z" fill="#B4D5DE"/>
<path d="M32.537 51.0369H12.9768C12.604 51.0369 12.2465 50.8888 11.983 50.6252C11.7194 50.3616 11.5713 50.0041 11.5713 49.6313V42.7961C11.5713 42.4234 11.7194 42.0659 11.983 41.8023C12.2465 41.5387 12.604 41.3906 12.9768 41.3906H32.537C32.9098 41.3906 33.2673 41.5387 33.5309 41.8023C33.7945 42.0659 33.9425 42.4234 33.9425 42.7961V49.623C33.9436 49.8083 33.9081 49.9919 33.838 50.1634C33.7678 50.3349 33.6645 50.4908 33.5338 50.6222C33.4032 50.7536 33.2479 50.8579 33.0768 50.9291C32.9057 51.0002 32.7223 51.0369 32.537 51.0369ZM14.3823 48.2258H31.1148V44.21H14.3823V48.2258Z" fill="#77B3C4"/>
<path d="M49.6694 9.67578H12.0215V66.0975H49.6694C51.0141 66.0975 52.3036 65.5634 53.2544 64.6126C54.2052 63.6618 54.7394 62.3722 54.7394 61.0276V12.3613C54.7394 11.6491 54.4564 10.966 53.9528 10.4624C53.4491 9.95872 52.7661 9.67578 52.0538 9.67578H49.6694Z" fill="#B4D5DE"/>
<path d="M49.6774 67.4566H12.0294C11.6667 67.4524 11.3196 67.3082 11.0608 67.054C10.8019 66.7999 10.6514 66.4555 10.6406 66.0929V9.67115C10.6406 9.29838 10.7887 8.94088 11.0523 8.67729C11.3159 8.41371 11.6734 8.26562 12.0461 8.26562H49.6941C50.0669 8.26562 50.4244 8.41371 50.688 8.67729C50.9515 8.94088 51.0996 9.29838 51.0996 9.67115C51.0996 10.0439 50.9515 10.4014 50.688 10.665C50.4244 10.9286 50.0669 11.0767 49.6941 11.0767H13.4517V64.6204H49.6774C50.6485 64.6182 51.5793 64.2314 52.266 63.5447C52.9528 62.858 53.3396 61.9272 53.3418 60.956V32.5109C53.3418 32.1381 53.4898 31.7806 53.7534 31.517C54.017 31.2535 54.3745 31.1054 54.7473 31.1054C55.1201 31.1054 55.4776 31.2535 55.7411 31.517C56.0047 31.7806 56.1528 32.1381 56.1528 32.5109V60.956C56.155 61.8082 55.9892 62.6524 55.6649 63.4405C55.3405 64.2285 54.864 64.9449 54.2626 65.5486C53.6612 66.1524 52.9467 66.6316 52.1599 66.959C51.3731 67.2864 50.5295 67.4555 49.6774 67.4566Z" fill="#077594"/>
<path d="M33.3979 41.7314C40.0515 41.7314 45.4453 36.3376 45.4453 29.6841C45.4453 23.0305 40.0515 17.6367 33.3979 17.6367C26.7444 17.6367 21.3506 23.0305 21.3506 29.6841C21.3506 36.3376 26.7444 41.7314 33.3979 41.7314Z" fill="white"/>
<path d="M33.396 43.092C30.7229 43.1019 28.107 42.3182 25.8796 40.8402C23.6523 39.3621 21.9138 37.2562 20.8843 34.7893C19.8548 32.3223 19.5807 29.6053 20.0968 26.9824C20.6128 24.3596 21.8957 21.9489 23.7829 20.0557C25.6702 18.1626 28.0769 16.8722 30.6981 16.3481C33.3194 15.8239 36.0372 16.0896 38.5074 17.1114C40.9775 18.1332 43.0888 19.8652 44.5738 22.0879C46.0587 24.3107 46.8505 26.9241 46.8489 29.5973C46.8511 33.1697 45.4358 36.5971 42.9136 39.1272C40.3915 41.6572 36.9685 43.0831 33.396 43.092ZM33.396 18.9053C31.2789 18.8937 29.206 19.5109 27.44 20.6787C25.674 21.8464 24.2945 23.5122 23.4762 25.4649C22.658 27.4175 22.4379 29.5692 22.8438 31.6471C23.2497 33.725 24.2634 35.6356 25.7563 37.1367C27.2493 38.6379 29.1543 39.662 31.2299 40.0794C33.3056 40.4967 35.4584 40.2884 37.4155 39.4809C39.3726 38.6734 41.046 37.303 42.2234 35.5435C43.4009 33.7839 44.0295 31.7144 44.0295 29.5973C44.0317 26.771 42.914 24.059 40.921 22.0551C38.9281 20.0511 36.2223 18.9185 33.396 18.9053Z" fill="#077594"/>
<path d="M43.1776 59.2874H23.6174C23.4329 59.2874 23.2501 59.2511 23.0796 59.1804C22.909 59.1098 22.7541 59.0063 22.6236 58.8758C22.4931 58.7452 22.3895 58.5903 22.3189 58.4198C22.2483 58.2492 22.2119 58.0665 22.2119 57.8819V51.0383C22.2119 50.6656 22.36 50.3081 22.6236 50.0445C22.8872 49.7809 23.2447 49.6328 23.6174 49.6328H43.1776C43.5504 49.6328 43.9079 49.7809 44.1715 50.0445C44.4351 50.3081 44.5832 50.6656 44.5832 51.0383V57.8652C44.5854 58.0511 44.5507 58.2357 44.481 58.4082C44.4114 58.5806 44.3082 58.7376 44.1775 58.8699C44.0467 59.0021 43.891 59.1072 43.7194 59.1789C43.5478 59.2505 43.3636 59.2874 43.1776 59.2874ZM25.023 56.4764H41.7554V52.4606H25.023V56.4764Z" fill="#077594"/>
</svg>
