<svg xmlns="http://www.w3.org/2000/svg" viewBox="0 0 233.13 328.73"><defs><style>.cls-1{fill:#fff;}.cls-2{fill:#077594;}.cls-3{fill:#e05e48;}</style></defs><g id="Layer_2" data-name="Layer 2"><g id="Layer_1-2" data-name="Layer 1"><path class="cls-1" d="M104.78,30.51c-1.26,4.54-2,9.65-6.63,16.68,1.74,6.34,12.26,11.38,12.92,5.46.84-7.41.36-13.25,7.56-24.3"/><path class="cls-2" d="M108.15,56.78c-4.05,0-10.06-4.14-11.44-9.19l-.18-.66.37-.56a41.24,41.24,0,0,0,5.83-13.94c.2-.79.39-1.56.6-2.32l2.89.81c-.2.73-.39,1.48-.59,2.25A43.66,43.66,0,0,1,99.8,47.41c1.42,3.7,6.14,6.56,8.54,6.37.68-.06,1.13-.29,1.24-1.3s.21-2,.3-3c.57-6.23,1.1-12.12,7.49-21.94l2.51,1.64c-6,9.19-6.46,14.47-7,20.58-.09,1-.19,2-.3,3.07a4.18,4.18,0,0,1-4,4Z"/><path class="cls-2" d="M119.73,13.82c-1-4.11-4.8-7.48-7.8-10.63-2.3-2.42-5.14-3.68-6.17-3s1.9,3.5,1.48,6.26c-4.45-2.16-6-3-12.53-2.49-5.3.39-10.56,3-9.76,5.84,1.13,4.06,10.41,2,12.34,3.82C85.43,16.23,82.64,22,83,23.56c1.26,5,6.49,1.29,8.42,1-2,2.83-2.07,5.38-1.28,6.28C93,34,96.77,27.73,100.35,26.72c4.71-1.82,5.8-2.83,6.32-3.35,2.43-2.49,1.76-4.28,3.92-5.93C113.77,15,121,15.62,119.73,13.82Z"/><path class="cls-1" d="M104.4,33.36c-2.48,2.67-8,.76-8.69-1s-3.13-8.24,6.68-10.9c-.24-3.37,0-3.93,1.71-4.85a5.46,5.46,0,0,1,4.28-.17c.77-2.55,1.34-2.69,2.91-3.59.54-.31,2.56-.42,5.48.67,3.11.63,9.1,4.58,9.25,9.94a5.21,5.21,0,0,1-4.45,5.32c.09,4.79-4,7.44-6.17,8.21a7.47,7.47,0,0,1-4.62.51C107.9,36.94,104.4,33.36,104.4,33.36Z"/><path class="cls-2" d="M112.24,39.2a8.63,8.63,0,0,1-1.76-.2c-2.34-.48-4.83-2.45-6.17-3.67a7.4,7.4,0,0,1-5.16.68c-2-.38-4.23-1.48-4.84-3.08-.41-1.09-1.68-4.4,0-7.61,1.12-2.19,3.32-3.85,6.57-4.93-.09-2.71.41-3.89,2.55-5.06a6.06,6.06,0,0,1,4-.61,5.24,5.24,0,0,1,2.79-3l.35-.19c1.21-.7,3.87-.49,6.64.52,3.68.82,10.16,5.23,10.33,11.35A6.74,6.74,0,0,1,123,30c-.52,4.77-4.6,7.51-7.1,8.42A10.67,10.67,0,0,1,112.24,39.2Zm-7.86-8,1.1,1.13c.88.9,3.61,3.35,5.6,3.75a6,6,0,0,0,3.81-.45c1.82-.66,5.25-2.92,5.18-6.77l0-1.31,1.31-.2a3.75,3.75,0,0,0,3.17-3.8c-.12-4.47-5.38-8-8-8.51l-.23-.07a8.76,8.76,0,0,0-4.26-.74l-.31.18c-1.14.64-1.31.74-1.85,2.52l-.43,1.4L108,17.92a4,4,0,0,0-3.16,0c-1,.58-1.13.62-.93,3.42l.08,1.24-1.19.32c-3,.82-5,2.08-5.84,3.74-1,2-.19,4.23.17,5.18a5.27,5.27,0,0,0,3.13,1.28,3.65,3.65,0,0,0,3.06-.81Zm7.66-17h0Z"/><path class="cls-2" d="M28.91,143.09l-.57-.38c-1.77-1.17.09-7.74.11-7.81,1.43-4.19,4.46-6.32,8.54-6a7.36,7.36,0,0,1,6.42,5c.54,1.46.75,3.38-.28,4.42l-.57.58-1-.21c-5.7-1.2-7.52-1.41-8.1-1.39-.41.3-1.15,1.27-2.5,4.05-.48,1-.7,1.44-1.4,1.63Zm4.7-5.94h0Zm-.16-2.92a44,44,0,0,1,7.31,1.16,5.45,5.45,0,0,0-.76-1.66,4.22,4.22,0,0,0-3.23-1.87,4.63,4.63,0,0,0-4,1.44,6.59,6.59,0,0,0-1,1.49,3.27,3.27,0,0,1,.59-.35A2.32,2.32,0,0,1,33.45,134.23Z"/><path class="cls-3" d="M59.74,156.08l-10.21-2.51a1.86,1.86,0,0,1-1.36-2.29,41.12,41.12,0,0,0,1.41-9.93,1.83,1.83,0,0,0-.56-1.42c-2.86-2.71-9.78-5.76-15.78-5.14a1.86,1.86,0,0,0-1.34.84A44.65,44.65,0,0,0,27,146.36a1.87,1.87,0,0,1-2.21,1.21l-9.73-2.37a7.31,7.31,0,0,0-8.83,5.38l-6,24.69a7.3,7.3,0,0,0,5.37,8.83l42.87,10.44a7.32,7.32,0,0,0,8.84-5.38l6.45-26.5A5.44,5.44,0,0,0,59.74,156.08ZM34.26,141.77c3.31-2.28,9.22-1.28,10.26,2.44a13,13,0,0,1-.19,6.26,1.88,1.88,0,0,1-2.25,1.31l-10-2.45a1.85,1.85,0,0,1-1.36-2.28C31.42,144.16,31.93,143.38,34.26,141.77Z"/><path class="cls-1" d="M51.61,139.71a21.84,21.84,0,0,0-1.92-7.37,15.63,15.63,0,0,1-8,6.5,13.84,13.84,0,0,1-3.79.43,18.73,18.73,0,0,0-2.62,0c-2.21.57-4.13,4.37-3.35,6.85,1.16,3.69,6.89,5.07,12.33,3C48.86,147.43,51.62,143.92,51.61,139.71Z"/><path class="cls-2" d="M39.19,151.61a11.69,11.69,0,0,1-5.09-1.09,6.65,6.65,0,0,1-3.6-4,7.4,7.4,0,0,1,.84-5.64,6.13,6.13,0,0,1,3.57-3.11,4,4,0,0,1,1.43-.08c.34,0,.77,0,1.52,0a12.61,12.61,0,0,0,3.33-.35,14.13,14.13,0,0,0,7.2-5.82L49.85,129l1.21,2.7a23.21,23.21,0,0,1,2,8h0c0,4.84-3.1,8.9-8.33,10.85A15.92,15.92,0,0,1,39.19,151.61Zm-3.41-10.9-.13,0A3.36,3.36,0,0,0,34,142.39a4.56,4.56,0,0,0-.6,3.28,3.77,3.77,0,0,0,2.06,2.15c2.17,1.07,5.36,1,8.31-.07,4-1.49,6.38-4.5,6.38-8h0a15.59,15.59,0,0,0-.84-4.24,17.76,17.76,0,0,1-7.07,4.78,14.77,14.77,0,0,1-4.26.52,17,17,0,0,1-1.82,0Z"/><path class="cls-2" d="M153.16,173.55c-1.66,0-3.48-1.13-5.15-3.22-2.69-3.37-4.9-9.14-3.36-13.82a10.41,10.41,0,0,1,1.14-2.34,7.05,7.05,0,0,0,1.08-2.65c.51-2.75.13-3.62-.45-4.94a14.76,14.76,0,0,1-1-2.87l-.46-2,2.07.2c4.18.41,13.78,9.24,12.68,21.07-.36,3.89-2.36,10.21-6.21,10.58Zm-3.54-27.07a9.87,9.87,0,0,1,.2,5.59,10,10,0,0,1-1.46,3.65,8,8,0,0,0-.86,1.73c-1.12,3.42.63,8.22,2.85,11,1.22,1.52,2.32,2.15,2.87,2.09,1.23-.11,3.13-3.85,3.51-7.87C157.42,155.16,153,149.2,149.62,146.48Z"/><path class="cls-2" d="M51.27,298.39l-.86-6.2c-.23-1.66-.46-3.3-.69-4.9-3.27-23-5.86-41.11,9.84-64.86a52.31,52.31,0,0,1,6.71-8.26c2.77-2.87,4.45-4.6,6.34-11.8,2-7.45,1.26-11.3-.42-20.58-.57-3.13-1.28-7-2-11.82-2.62-17-2.78-31.58-.45-41l.15-.6.53-.32c1.83-1.12,4.25-1.24,7.17-.36,10.35,3.13,25.91,18.45,32,31.53l.19.4-.06.44c-2.79,20.37-7.59,38.15-22.84,63.78-18.58,39.82-25.8,53-29.27,59.39a47.9,47.9,0,0,0-4.28,9.24Zm21.21-168c-2.07,9.06-1.84,22.91.66,39.14.73,4.77,1.43,8.64,2,11.74,1.72,9.47,2.5,13.79.37,21.88s-4.19,10.13-7.08,13.13a48.11,48.11,0,0,0-6.36,7.83c-15,22.59-12.73,39.27-9.47,62.18C53.23,285,54,283.66,55,281.8c3.46-6.33,10.65-19.51,29.22-59.29l.07-.13c14.91-25,19.66-42.45,22.42-62.28-5.84-12.15-20.56-26.68-30-29.52A7.07,7.07,0,0,0,72.48,130.37Z"/><path class="cls-2" d="M186,294.72c-12.54,0-35.35-23.86-48.21-58.35-2-5.41-1.24-10.27-.62-14.17.56-3.53,1-6.32-.53-8.51a135.83,135.83,0,0,0-12.41-14.77c-7.09-7.63-13.2-14.21-16-25a8.1,8.1,0,0,0-.26-.8c-.72-2.07-1.92-5.52-.79-14.27h0c1.07-8.29,7.92-19.88,14.37-24.31,2.46-1.68,4.72-2.29,6.75-1.79a22.34,22.34,0,0,0,2.95.52c2.67.33,3,1,4.6,4.39.3.64.66,1.4,1.1,2.31,8.09,16.6,12.34,38.38,16.08,57.61,1,5.31,2,10.33,3,14.91,8.52,39,16.69,53.43,24.6,67.35,2.26,4,4.59,8.1,6.87,12.69l1,2.13-2.37,0ZM126.85,135.6a7.06,7.06,0,0,0-3.66,1.44c-5.77,4-12.13,14.75-13.1,22.21h0c-1,8.05,0,11.09.65,12.9.14.38.25.72.33,1,2.65,10,8.53,16.37,15.34,23.7A141.13,141.13,0,0,1,139.07,212c2.24,3.19,1.66,6.84,1,10.71s-1.27,8,.47,12.65c12.1,32.43,31.93,53.13,42.92,56.05-1.81-3.49-3.63-6.69-5.52-10-8-14.12-16.3-28.72-24.92-68.19-1-4.61-2-9.65-3-15-3.71-19-7.92-40.62-15.84-56.87-.44-.92-.81-1.69-1.11-2.33a14.08,14.08,0,0,0-1.35-2.55,5.21,5.21,0,0,0-.91-.15,25.81,25.81,0,0,1-3.29-.59A3.08,3.08,0,0,0,126.85,135.6Z"/><path class="cls-2" d="M124.29,78.36a167.72,167.72,0,0,1-3.69-16.87c-.49-3.05-1.84-8.48-8.33-13.63-5.15,3.09-9.57-.64-12.16-5.65-8.62,4-16.55,11.7-22.72,20.81-19.32,28.53-28.74,55.44-27.7,69.32.79-4.27,15-11.39,19.33-24.29,2.57-7.76,2.6-11.62,7.7-15.91,4.37-3.68,6.7-3.5,11.7-7.83,5.8-5,5.53-8.42,6.85-7.9,1.73.68-.21,4.84-3.23,8.44-6,7.15-9.83,3.53-16.63,12.7C72.87,101,72.12,106,70.62,116,69,126.65,67.4,130,68,136.67c3.52,13.14,21.53,24.3,38.25,23.19,1.81-.12,17-1.32,26-13.46A26.41,26.41,0,0,0,137,135.88c4.38,5.1,8.56,8.16,9.86,7.5C143.55,138.87,141.74,121.2,124.29,78.36Z"/><path class="cls-2" d="M186.12,293.22c8.82,6.09,12.74,8.35,21.37,8.36,7.42,0,11.34-5,16.26-3.71,6,1.62,10.69,12.82,9.05,18.52-13.37,1.85-41.77,5.56-53.08,4.53C184.66,313.1,186.12,301.78,186.12,293.22Z"/><path class="cls-2" d="M51.9,292c0,10.68.59,15,4.14,16.41,4.18,1.62,9.41-2,14.07,0,5.69,2.48,8.7,14.25,6.23,19.64-19.57.1-33.59,7.41-44.57-28C40.43,297.88,47.3,297.67,51.9,292Z"/><path class="cls-3" d="M105.47,48.19a9.18,9.18,0,0,0,7.2-1.27c3.63,3,3.52,10.52,1.61,11.32C110.53,53.94,108.7,51.38,105.47,48.19Z"/><path class="cls-3" d="M111.49,52.58c8.56,6.58,11.65,12.65,16.53,23.26,1.38,3,10.13,23.81,4.63,38.28-4.63-.21-9.85-5.33-11.48-6.27C119.65,90.52,115.93,63.94,111.49,52.58Z"/></g></g></svg>