<svg xmlns="http://www.w3.org/2000/svg" viewBox="0 0 187.28 340.14"><defs><style>.cls-1{fill:#077594;}.cls-2{fill:#fff;}.cls-3{fill:#e05e48;}</style></defs><g id="Layer_2" data-name="Layer 2"><g id="Layer_1-2" data-name="Layer 1"><path class="cls-1" d="M115.92,300.74l-1.09-3.18c-2.63-7.77-2.87-13.35-3.12-19.26-.35-8.08-.74-17.24-7-34.94C97.42,223,96.62,222,90.37,214.31c-2.75-3.38-6.51-8-12.25-16l-.52-.72.38-.8c4.09-8.59,20-12.78,33-13,11.86-.24,20.5,2.59,23.11,7.55l.16.3V192c.48,12.46-1.33,16.9-3.09,21.2-1.48,3.63-2.89,7.07-3,15.6-.12,6.48.66,8.85,1.63,11.86a48,48,0,0,1,2.37,11c2.17,19.46-4.74,30.4-10.84,40-1.33,2.12-2.6,4.12-3.75,6.17ZM81.11,197.36c5.38,7.43,9,11.82,11.59,15,6.53,8,7.37,9.05,14.8,30,6.45,18.12,6.85,27.52,7.2,35.81a62.43,62.43,0,0,0,2,15.21c.67-1.1,1.37-2.2,2.09-3.34,6.11-9.69,12.44-19.7,10.38-38.12a45.39,45.39,0,0,0-2.23-10.35c-1-3.15-1.9-5.86-1.78-12.84.15-9.09,1.73-12.95,3.26-16.69,1.68-4.14,3.28-8,2.88-19.58-2.24-3.65-10.13-5.87-20.24-5.67C95.28,187.1,84.32,192.22,81.11,197.36Z"/><path class="cls-1" d="M159.92,314.7l-.7-4.71c-.68-4.58-1.48-8.7-2.41-13.48-2.22-11.42-5.26-27.06-9.19-62.43-2.22-6.23-4.51-11.45-6.52-16.07-5-11.52-8.37-19.13-4.63-28.28h0c4.39-10.75,16.23-17.73,26-19.89,6.14-1.35,11.2-.72,13.85,1.75,3,2.81,2,8,.59,15.15-1.38,7-3.1,15.74-2,25.86.93,8.52,1.91,11,3.26,14.32.45,1.14,1,2.44,1.54,4.09,9.91,28.93-1.9,50.42-12.32,69.38-1.92,3.49-3.73,6.79-5.36,10.05Zm8.53-142.56a24.72,24.72,0,0,0-5.32.63c-8.73,1.92-19.92,8.41-23.88,18.09h0c-3.27,8-.31,14.74,4.59,25.95,2.06,4.7,4.39,10,6.67,16.43l.08.34c3.92,35.37,6.95,51,9.16,62.35.63,3.22,1.2,6.14,1.71,9.12,1.06-2,2.17-4,3.32-6.11,10.12-18.41,21.59-39.28,12.11-67-.54-1.58-1-2.78-1.49-3.95-1.38-3.45-2.47-6.17-3.45-15.1-1.16-10.58.68-19.94,2-26.77,1.18-6,2.11-10.7.31-12.37C173.11,172.7,171.06,172.14,168.45,172.14Z"/><path class="cls-1" d="M104.67,32.4c13.31,4,19.3,9,24.85,13.8,12.1,10.49,27.69,24,27.8,44,.09,16.23-10,30.11-14.08,34.86-20.56,24.13-27,29.84-55.32,32.29.3,1.62,11.14.85,13.25.39,17.58-3.81,25.42-9.31,39.41-23.29,8.5-8.5,11.28-15.68,15.3-20.78,2.43,6.42,2.8,5.08,6.86,13,5.62,11,16,16.57,20.15,22.15,10.43,14,.42,26.07-10.85,35.88-25.6,22.28-70.18,33.67-92.7,12.73-4.52-4.19-8.3-5-11.1-10.73-16.42-33.66,9-56.29,13.09-85.05,1.66-11.62,6.83-27.62,12-35.91.87-1.4,3.41-6.51.81-19.47C99,50.63,104.06,34.8,104.67,32.4Z"/><path class="cls-1" d="M75.15,49.47l-1.3-1.22C69.4,44.05,61.78,33.5,62.44,27.43a4.8,4.8,0,0,1,2.22-3.71c4.36-3.08,6.14-3,8.17-2.47a4.29,4.29,0,0,0,2.36.07L76.7,21a6.12,6.12,0,0,1,3.72-.2,7.89,7.89,0,0,1,2.67-5.43A7.15,7.15,0,0,1,89,13.59c6.31,1.49,5.58,7.5,5.21,10A13.35,13.35,0,0,1,92,38.06c-1.34,1.45-4.12,4-7.65,4.62a18.68,18.68,0,0,1-5.08.35,4.74,4.74,0,0,0-1.8,2.44A16,16,0,0,1,76.13,48ZM71,24c-.92,0-2.14.43-4.65,2.21l-.09.06a1.75,1.75,0,0,0-.84,1.49c-.43,4,4.75,12.2,9.11,16.92l.18-.42a7.55,7.55,0,0,1,3.45-4.07l.43-.24.5.06a15,15,0,0,0,4.71-.28c2.77-.5,5.1-2.75,6-3.7a10.34,10.34,0,0,0,1.5-11.54l-.21-.42.11-.72c.55-3.66.26-6.08-2.9-6.83a4.3,4.3,0,0,0-3.23,1.08c-1.28,1.1-1.83,2.77-1.64,5l.17,2.12L81.05,24c-2.06-.55-2.06-.55-3.6-.16-.42.11-.92.24-1.57.39a7.22,7.22,0,0,1-3.76-.08A4.45,4.45,0,0,0,71,24Z"/><path class="cls-2" d="M78.78,134.86c1.21.48,7.81,2.86,10.88-1.26L94.85,136c1.71-4.24,4.36-11,.87-16.62-4.45-7.13-16.45-4.28-20.68-.77-6.43,1.12-4.29,7-3.31,9.25A12.81,12.81,0,0,0,78.78,134.86Z"/><path class="cls-2" d="M110.21,174.81c3.08-6.08,5.26-6.28,9.61-8.84,2.43-1.43,8.37-7.21,10.56-5.39,2.41,2,.82,9.87-4,13.8C120.82,178.87,114,177.14,110.21,174.81Z"/><path class="cls-1" d="M87.2,118.4c2.57-.22,6.74,5.83,10.24,7.15,3.76,1.41,7.37-3.46,7.41-6.4.05-4.93-2.07-4.51-4.06-6.05,3.26-5.21-.19-9-2.53-11-3-2.69-8-4-13.94-.81-2.49-2.37-4.28-3.1-6.45-2.54a6,6,0,0,0-4.61,4.5c-5-.13-6.76-.57-9.45,1.61-2.25,1.83-3.36,3.44-3.11,7.83-3.35,2-3.91,2.7-5,5.53-.09.25-1.23,3.46.23,5a4,4,0,0,0,4.26,1.15c.46,3.58.37,4.32,2.08,6.22,1.93,2.14,9.6-.32,11.94-2.76-1.14-1.75-3.22-2.26-2.56-5.47.59-2.9,4.1-2.51,5.93-.93-.49,3.84,3.79-1.17,5.42-.86S85.32,118.57,87.2,118.4Z"/><path class="cls-2" d="M79.21,98.52c1.62,0,3.14.85,5.11,2.72a14.35,14.35,0,0,1,6.81-1.88,10.64,10.64,0,0,1,7.13,2.69c2.34,2.07,5.79,5.84,2.53,11,2,1.54,4.11,1.12,4.06,6.05,0,2.58-2.82,6.65-6,6.65a3.88,3.88,0,0,1-1.36-.25c-3.44-1.3-7.51-7.15-10.1-7.15H87.2c-1.76.16-2.46,2.1-3.86,2.1l-.29,0-.15,0c-1.23,0-3.62,2.34-4.73,2.34-.44,0-.68-.39-.54-1.46a5.16,5.16,0,0,0-3.21-1.22,2.56,2.56,0,0,0-2.72,2.15c-.66,3.21,1.42,3.72,2.56,5.47-1.71,1.79-6.27,3.58-9.35,3.58a3.46,3.46,0,0,1-2.59-.82c-1.71-1.9-1.62-2.64-2.08-6.22a3.74,3.74,0,0,1-1.23.21,4.27,4.27,0,0,1-3-1.36c-1.46-1.5-.32-4.71-.23-5,1-2.83,1.6-3.53,5-5.53-.25-4.39.86-6,3.11-7.83a7.29,7.29,0,0,1,5.32-1.73c1.12,0,2.44.08,4.13.12a6,6,0,0,1,4.61-4.5,5.75,5.75,0,0,1,1.34-.18m0-3a8.61,8.61,0,0,0-2.1.28,8.94,8.94,0,0,0-5.81,4.33c-.8,0-1.5,0-2.17,0a10.2,10.2,0,0,0-7.2,2.4A10,10,0,0,0,57.68,111c-2.69,1.77-3.62,3.08-4.75,6.15-.31.87-1.77,5.34.9,8.08a7.47,7.47,0,0,0,3.78,2.13,8.79,8.79,0,0,0,2.48,5.15,6.15,6.15,0,0,0,4.82,1.82c3.84,0,9.22-2.11,11.52-4.5l1.64-1.72-1.3-2a8.55,8.55,0,0,0-.9-1.14,3.5,3.5,0,0,0,2.3.84,7.33,7.33,0,0,0,3.89-1.61c.31-.21.79-.52,1.1-.69h.18a5.47,5.47,0,0,0,3.73-1.7l.33-.29a24.45,24.45,0,0,1,3,2.48c1.9,1.75,3.86,3.55,6,4.36a6.74,6.74,0,0,0,2.42.45c5.18,0,9-5.74,9-9.61.05-4.33-1.44-6.12-3.2-7.27,1.09-3.36.67-7.63-4.4-12.12a13.75,13.75,0,0,0-9.12-3.44,16.35,16.35,0,0,0-6.33,1.33,9,9,0,0,0-5.59-2.17Zm-3.78,29-.19-.18c-.64-.64-.73-.73-.65-1.19l.16,0a3.78,3.78,0,0,0,.68,1.34Z"/><path class="cls-1" d="M92.63,23.82c2,2.58,4.43,2.62,4.29-5.94-.1-6.32-3.54-13.08-7.41-13.17-2,0-3.47,0-4.7,2.47-4-5.61-10.28-8-15.76-6.94-3.62.7-8.49,3.85-9.4,12.35-6.09,3.52-7.08,5.47-7.41,8.93a8.1,8.1,0,0,0,2.47,6.94c-3.44,5.81-5.63,7.12,2,12.7.45.87-1.66,6.17,3.06,10.06,1.86,1.53,5.25,1.58,6.43,1.58,5.82,0,6.63-4.6,7.09-7.24-4.81-5.65-6.83-9.69-6.48-13.7.29-3.31,4.66-10.15,13.85-6.89,5.15,1.84,2.19-2.21,2.07-4.63C82.68,18.66,86,15.9,89.48,17,93.64,18.31,91.61,22.48,92.63,23.82Z"/><path class="cls-1" d="M153.11,318.32c-5.34,1.22-6.55.66-9.76-.37-9.14-2.92-9.95-3.77-13.67-2.74-8.31,2.28-15.25,18.07-10.72,24.82,17.42.73,40.2-2,58.11-13.26-3.82-3.3-11.13-9.33-16.37-17C159.16,313,158.24,317.15,153.11,318.32Z"/><path class="cls-1" d="M107.93,303.49c-5.48.28-8.46.45-11.44-1.11-8.5-4.46-7.74-3.72-11.58-3.35-8.58.82-17.41,13.65-14.11,21.08,17,3.73,36.63,2.63,56.21-5.34-3.19-3.9-6-8.8-9.87-17.26C115.06,300.38,113.18,303.23,107.93,303.49Z"/><path class="cls-1" d="M24.47,311.26,24,307.83c-.6-4-1.74-8.46-2.86-12.81-3.39-13.28-6.89-27,3-32.2,6.9-3.63,18.48.9,22.94,9l.35.63-.28.67c-8.32,20.07-10.17,22.4-20.42,35.36Zm5.16-46.71a8.88,8.88,0,0,0-4.14.92c-7.79,4.1-4.58,16.66-1.48,28.8.83,3.27,1.69,6.61,2.33,9.79,8.4-10.66,10.35-13.71,17.71-31.43A18.44,18.44,0,0,0,29.63,264.55Z"/><path class="cls-1" d="M18.66,321.53c4.3-6.51,5.18-9.82,6.78-13.92,5.32,3.44,5.32,3.44,11.25,3.92,6.86.56,9.39-4.83,14.28-3.57s9,8.09,7.5,12.32C48.29,324,32.43,324,18.66,321.53Z"/><path class="cls-1" d="M66.18,328.33c4.3-6.51,5.17-9.82,6.78-13.91,5.31,3.43,5.31,3.43,11.25,3.91,6.85.56,9.39-4.83,14.28-3.57s9,8.09,7.49,12.32C95.81,330.76,79.94,330.76,66.18,328.33Z"/><path class="cls-2" d="M73,314.42c5.31,3.43,5.31,3.43,11.25,3.91.33,0,.66,0,1,0,5.45,0,8-3.8,11.82-3.8a6.07,6.07,0,0,1,1.48.19c4.77,1.24,9,8.09,7.49,12.32-5.61,2-13,2.94-20.73,2.94a111.46,111.46,0,0,1-19.07-1.69c4.3-6.51,5.17-9.82,6.78-13.91M71.5,309.9l-1.34,3.42c-.26.68-.51,1.34-.75,2a48.14,48.14,0,0,1-5.74,11.37l-2.52,3.81,4.51.79A114.2,114.2,0,0,0,85.25,333c8.59,0,16.11-1.08,21.75-3.12l1.33-.48.48-1.33c.92-2.58.49-5.86-1.16-9-1.93-3.63-5.15-6.41-8.41-7.25a9,9,0,0,0-2.23-.29,12.94,12.94,0,0,0-6.21,2,11.4,11.4,0,0,1-5.61,1.8l-.74,0c-5.18-.42-5.18-.42-9.87-3.44l-3.08-2Z"/><path class="cls-1" d="M73.82,317.29l-1.74-2.63c-.87-1.32-1.76-2.61-2.62-3.88-6.69-9.74-13-18.95-6.1-30.69a12.73,12.73,0,0,1,16.82-4.83l.83.45-.05.94c-.64,12.79-1.06,21.23-6.19,37.63Zm.52-40.47A9.61,9.61,0,0,0,66,281.61c-6,10.1-.68,17.77,6,27.48l.89,1.29c4-13.68,4.52-21.29,5.1-32.88A9.7,9.7,0,0,0,74.34,276.82Z"/><path class="cls-3" d="M115.42,243.82c-2.66-4.75-8.87-5.25-18-11.32-6.19-4.13-5.57-15-7.74-24A140.87,140.87,0,0,1,86.27,188a19.73,19.73,0,0,0,7.53-.37,25.18,25.18,0,0,0,16.41-12.81c-2.82-.65-8.23-1.09-11.77-2.43-11-4.13-12.1-8.07-16.41-15.82h0a78.37,78.37,0,0,0-8.15-15c-1,1.36-8.08,0-9.82-7.59-11,5.18-21.54,22.71-23.24,25.77-17.3,31.32-8,44.5-18.78,74.79C14.27,256.24-2.16,259.8.24,270.37c3,13.13,25.19,19.12,37.56,20.46C74,294.74,97,277.48,110.05,263.11,113,259.84,117.91,248.26,115.42,243.82Z"/><path class="cls-2" d="M87.92,157.39c-1-1.06-6.47-2.31-13.89.17-15.72,5.25-16,7.46-16.91,10.67-1,3.41,1.69,5.84,4.66,6.39s3.26-3.22,9-4.92c4.53-1.35,9.4-.09,12.28-2.26C86.77,164.61,86.37,163.06,87.92,157.39Z"/><path class="cls-1" d="M62.35,176.18a5.18,5.18,0,0,1-.85-.08,7.81,7.81,0,0,1-5.2-3.36,6,6,0,0,1-.62-4.93l.07-.23c1.1-3.87,2.47-6.31,17.8-11.44,7.85-2.62,13.85-1.43,15.44.21l.6.61-.23.83c-.3,1.12-.53,2.08-.73,2.91-.82,3.45-1.28,5.35-4.71,7.94-2,1.52-4.58,1.65-7.3,1.79a22.76,22.76,0,0,0-5.45.71,11.28,11.28,0,0,0-5,3C65.12,175.16,64,176.18,62.35,176.18Zm19.93-18.56A24.53,24.53,0,0,0,74.5,159c-14.58,4.87-15.15,6.87-15.87,9.41l-.06.24a3,3,0,0,0,.28,2.53,4.79,4.79,0,0,0,3.2,2c.63.11.94-.1,2.07-1.16a14.43,14.43,0,0,1,6.19-3.73,26.48,26.48,0,0,1,6.15-.83c2.35-.12,4.37-.22,5.66-1.19,2.56-1.94,2.8-2.93,3.59-6.24l.46-1.87A12.76,12.76,0,0,0,82.28,157.62Z"/><circle class="cls-1" cx="79.77" cy="129.52" r="0.89"/><circle class="cls-1" cx="83.5" cy="128.63" r="0.89"/><circle class="cls-1" cx="82.33" cy="132.39" r="0.89"/><path class="cls-1" d="M95.24,52.86V51.3c0-5.59-3.58-9.17-6.27-11.38l1.91-2.32c1.67,1.37,6.48,5.32,7.26,11.89,3.14-1.1,7.93-4.87,10.52-8.49,1.23-1.73,1.36-2.63,1.3-2.81-5.4-2.45-5.4-2.45-16.81-8.64l1.44-2.64c11.31,6.15,11.31,6.15,16.62,8.59a3.05,3.05,0,0,1,1.67,3.61C112,43.76,102.35,52.58,96.8,52.8Z"/><path class="cls-2" d="M80.15,133.76c-2,1.83-4.46,3.43-6.32,8-4,1.13-8.6-1.13-9.78-7.85,3.73-2.16,8.27-2.65,11.22-9.82"/></g></g></svg>