<svg xmlns="http://www.w3.org/2000/svg" viewBox="0 0 196.27 275.12"><defs><style>.cls-1{fill:#e05e48;}.cls-2{fill:#077594;}.cls-3{fill:#fff;}.cls-4{fill:#f3cec9;}</style></defs><g id="Layer_2" data-name="Layer 2"><g id="Layer_1-2" data-name="Layer 1"><path class="cls-1" d="M153.9,130.61l40.34-7.05a1.3,1.3,0,0,0,1.08-1.25l1-45.48a1.29,1.29,0,0,0-.92-1.27l-50.2-15.5a1.31,1.31,0,0,0-1.69,1.28l.93,36a1.29,1.29,0,0,1-1.1,1.32l-31.73,5a1.3,1.3,0,0,0-.45,2.41L153,130.45A1.28,1.28,0,0,0,153.9,130.61Z"/><path class="cls-2" d="M68.26,44.79a14.38,14.38,0,0,1-6.66-1.93l-.35-.19h-.06c-5.33,0-8-2.69-9.39-5-3.9-6.59-1.4-17.15,1.52-22.21,3.64-6.31,11.44-9,17.6-8.93C81.47,6.74,89,15.14,91.61,22.87a23.14,23.14,0,0,1-1.24,17c-1.08,2-2.43,3.26-3.89,3.65-1.75.46-2.81-.49-3.67-1.26a8.73,8.73,0,0,0-3.43-2.07A20.39,20.39,0,0,1,73,43.66l-.86.35A10.14,10.14,0,0,1,68.26,44.79Zm-6.77-5.12A3.23,3.23,0,0,1,63,40.2c1.5.79,4.64,2.43,8,1h0l.91-.36c1.85-.74,4.65-1.85,5.81-3.33l.6-.77,1,.24a11.75,11.75,0,0,1,5.54,3,4.16,4.16,0,0,0,.78.62h0a.26.26,0,0,0,.13,0,4.3,4.3,0,0,0,2-2.18,20.18,20.18,0,0,0,1-14.6C86.52,17.06,80,9.71,70.87,9.56c-5.09-.08-11.94,2.21-15,7.43-2.6,4.51-4.65,13.93-1.54,19.18,1.43,2.43,3.77,3.58,7.08,3.5Z"/><path class="cls-2" d="M42.93,43.83C47.85,46,46,48.71,51.25,50.49,59,53.12,62,53.09,64.72,55.58c1.12-2.09,3.25-8.18-2-22.2.4-5.43,0-7.77-1.57-10.43-2.25-1.65-5.33-5.88-2.15-9.2,1.15-1.2,7.75-2.47,9.91,3.27,1.66,2,4.9,1.17,8,.82,3.25-.36,6.21-.86,4.66,5,.43.73,5.56,1.64,9.55,6,4.21-.45,6.39-10.36,2.88-15A4.77,4.77,0,0,0,89,12.26C88.73,4.72,82-.53,66.75,0,50.56.66,36.71,38.87,42.93,43.83Z"/><path class="cls-2" d="M101.19,271.9a168.26,168.26,0,0,1-23.69-1.79l-.76-.12-.34-.67c-3.54-6.9-1.87-22.83,6.86-29.43,12.62-9.53,31.55-5.9,39.64-4.35.79.16,1.59.31,2.22.42a2.42,2.42,0,0,0-.12-.23c-1.23-1.78-6.94-2.32-12-2.8-8-.76-16.35-1.55-17.5-7.16-2.08-10.2,23.61-28.53,43.59-34.25,13.16-3.77,22-1.66,24.81,5.94.35.94.71,1.89,1.07,2.84,2.3,6.07,4.67,12.35,5.16,17.22,1.71,17.32-7.28,30.14-11.22,34.85-12.25,14.62-29,16.71-46.69,18.93A91.43,91.43,0,0,1,101.19,271.9Zm-22.43-4.63c5.74.84,21.54,2.49,33.1,1.05,17.12-2.14,33.28-4.16,44.77-17.88,3.7-4.42,12.13-16.44,10.53-32.63-.44-4.47-2.75-10.56-5-16.45l-1.07-2.85c-3-8-14.55-6-21.18-4.11-19.39,5.56-43,23.1-41.47,30.78.7,3.42,8.54,4.17,14.84,4.77,6.52.61,12.15,1.15,14.17,4.09a4.39,4.39,0,0,1,.52,3.83c-.45,1.62-1.87,1.35-5.66.62-7.69-1.48-25.7-4.93-37.26,3.8C78,247.64,76.25,261.15,78.76,267.27Z"/><path class="cls-3" d="M105,107.07c2.35-7.5,6.77-13.77,18.16-14.9,5.57-.55,13.46,1.29,14.44,5.59.61,2.65-1.48,6-4.19,7.45-3.66,1.91-6.54-.72-12.81-1.17C111.22,103.37,110.31,105.6,105,107.07Z"/><path class="cls-2" d="M102.78,109.26l.82-2.64c2.12-6.74,6.23-14.64,19.45-16,5.71-.56,14.77,1.19,16,6.75.82,3.59-1.93,7.53-5,9.11-2.74,1.44-5.09.82-7.82.09a29.39,29.39,0,0,0-5.79-1.08c-6.38-.45-8.49.43-11.16,1.55a30.66,30.66,0,0,1-3.93,1.42Zm22.46-15.69c-.65,0-1.28,0-1.9.09-9.62,1-13.63,5.74-15.83,11l.7-.29c2.8-1.17,5.45-2.28,12.53-1.77a32.51,32.51,0,0,1,6.35,1.17c2.67.71,4,1,5.65.16,2.22-1.17,3.85-3.92,3.43-5.79C135.53,95.31,130.17,93.57,125.24,93.57Z"/><path class="cls-3" d="M130.18,137.57c1.4-9.42,5-15.36,15.13-19.09,2.24-.83,7.51-2.77,11.18,0,.13.1,3.22,2.49,2.79,5.35-.53,3.57-5.81,3-13.27,8.62-4.74,3.57-6,6.35-10,6.75A10.91,10.91,0,0,1,130.18,137.57Z"/><path class="cls-2" d="M135.68,140.71a13,13,0,0,1-6.23-1.83l-.91-.51.16-1c1.6-10.78,6.26-16.66,16.09-20.28,2.48-.91,8.28-3,12.6.21.16.12,3.94,3,3.38,6.77-.41,2.76-2.67,3.73-5.52,5a37.13,37.13,0,0,0-8.34,4.65,46.28,46.28,0,0,0-3.66,3.12c-2.19,2-3.91,3.61-7.1,3.92A3.71,3.71,0,0,1,135.68,140.71Zm-3.85-4a8.66,8.66,0,0,0,4,1c2.19-.22,3.39-1.32,5.37-3.15a48,48,0,0,1,3.89-3.31,39.52,39.52,0,0,1,9-5c2.69-1.16,3.58-1.62,3.73-2.64.29-2-2.19-3.92-2.22-3.94-3-2.27-7.73-.53-9.75.21C137.28,123,133.4,127.66,131.83,136.73Z"/><path class="cls-2" d="M141.61,178.76c-5.87-5.95-10.47-7.18-21.08-11.85-18.4,19.5-37,20.38-59.09,16.57-33.52-8.11-31.6-63.12-27.62-64.68,1.09-.43-.68,10.8,2.79,27.54,4.52,22,12.42,25.8,21.55,31.48,15.53,5.28,33.25,5.65,53.18-7.18,9.39-6,20.44-22.24,18.84-33.07-6.15.86-19.32.17-35.77,12.46l-4.22-2.66c-2.69-3.16-5.4-6.21-8-9.31,12.5,1.56,27.81-23.22,22.79-31-18.73,10.64-24.54,5.77-35.56,8.13a43.57,43.57,0,0,1-1-5.18C66.57,95.11,69,95.61,67,77.76c-.52-4.86-2.77-8.75-4.78-14.11-4,.69-11,1-15.62-6.43C23.8,78.19,13.91,113.89,7,151c-11.14,60-6.39,80.6-3.51,87,3.18,7.12,9.91,29.88,34,35.92,16.09,4,36.48-3.54,40.19-5.33,6.12-20.45,17.23-27.35,39.78-45.46,21.92-17.61,30.77-26.1,46.4-26.3C158.87,186.2,151.51,188.77,141.61,178.76Z"/><polygon class="cls-4" points="192.93 120.98 146.75 98.58 145.75 62.86 193.85 77.36 192.93 120.98"/><path class="cls-2" d="M57,71.62c-4.38,0-11-4.33-12.69-9.49l-.23-.71.43-.61A37.39,37.39,0,0,0,50.48,47c.2-.8.39-1.57.6-2.33l2.89.8c-.2.73-.39,1.48-.58,2.25a39.89,39.89,0,0,1-5.93,14.19c1.72,3.86,7.3,7,9.91,6.73.78-.08,1.09-.4,1.16-1.2.1-1,.17-2,.24-3,.44-6.29.85-12.24,7.56-22L68.8,44.1c-6.24,9.07-6.61,14.36-7,20.49-.07,1-.14,2-.24,3.09a4.1,4.1,0,0,1-3.83,3.91C57.48,71.61,57.26,71.62,57,71.62Z"/></g></g></svg>