<svg width="20" height="19" viewBox="0 0 20 19" fill="none" xmlns="http://www.w3.org/2000/svg">
<path d="M12.5593 9.52295L19.2434 2.8388C19.396 2.6966 19.5184 2.52512 19.6033 2.33459C19.6882 2.14406 19.7339 1.93838 19.7375 1.72982C19.7412 1.52127 19.7029 1.31411 19.6247 1.1207C19.5466 0.927291 19.4303 0.751601 19.2829 0.604106C19.1354 0.456612 18.9597 0.340337 18.7663 0.262217C18.5729 0.184096 18.3657 0.145732 18.1571 0.149412C17.9486 0.153091 17.7429 0.19874 17.5524 0.283634C17.3618 0.368529 17.1904 0.490929 17.0482 0.643535L10.364 7.32769L3.67986 0.643535C3.53766 0.490929 3.36618 0.368529 3.17565 0.283634C2.98512 0.19874 2.77944 0.153091 2.57089 0.149412C2.36233 0.145732 2.15517 0.184096 1.96176 0.262217C1.76836 0.340337 1.59266 0.456612 1.44517 0.604106C1.29768 0.751601 1.1814 0.927291 1.10328 1.1207C1.02516 1.31411 0.986796 1.52127 0.990476 1.72982C0.994156 1.93838 1.0398 2.14406 1.1247 2.33459C1.20959 2.52512 1.33199 2.6966 1.4846 2.8388L8.16875 9.52295L1.4846 16.2071C1.19373 16.4983 1.03035 16.8931 1.03035 17.3047C1.03035 17.7163 1.19373 18.1111 1.4846 18.4024C1.77583 18.6932 2.17062 18.8566 2.58223 18.8566C2.99384 18.8566 3.38862 18.6932 3.67986 18.4024L10.364 11.7182L17.0482 18.4024C17.1904 18.555 17.3618 18.6774 17.5524 18.7623C17.7429 18.8472 17.9486 18.8928 18.1571 18.8965C18.3657 18.9002 18.5729 18.8618 18.7663 18.7837C18.9597 18.7056 19.1354 18.5893 19.2829 18.4418C19.4303 18.2943 19.5466 18.1186 19.6247 17.9252C19.7029 17.7318 19.7412 17.5246 19.7375 17.3161C19.7339 17.1075 19.6882 16.9018 19.6033 16.7113C19.5184 16.5208 19.396 16.3493 19.2434 16.2071L12.5593 9.52295Z" fill="white"/>
</svg>
