<svg width="5" height="26" viewBox="0 0 5 26" fill="none" xmlns="http://www.w3.org/2000/svg">
<path d="M2.49664 19.3475C1.93861 19.3475 1.40343 19.1259 1.00884 18.7313C0.614256 18.3367 0.392578 17.8015 0.392578 17.2435L0.392578 3.06207C0.392578 2.50404 0.614256 1.96886 1.00884 1.57427C1.40343 1.17969 1.93861 0.958008 2.49664 0.958008C3.05468 0.958008 3.58985 1.17969 3.98444 1.57427C4.37903 1.96886 4.60071 2.50404 4.60071 3.06207V17.2435C4.60071 17.8015 4.37903 18.3367 3.98444 18.7313C3.58985 19.1259 3.05468 19.3475 2.49664 19.3475Z" fill="#E05E48"/>
<path d="M2.51067 25.1126C3.68046 25.1126 4.62876 24.1643 4.62876 22.9946C4.62876 21.8248 3.68046 20.8765 2.51067 20.8765C1.34088 20.8765 0.392578 21.8248 0.392578 22.9946C0.392578 24.1643 1.34088 25.1126 2.51067 25.1126Z" fill="#E05E48"/>
</svg>
