<svg width="19" height="20" viewBox="0 0 19 20" fill="none" xmlns="http://www.w3.org/2000/svg">
<path d="M6.65887 19.7642H6.62438C6.33307 19.7584 6.04796 19.679 5.79567 19.5332C5.54338 19.3875 5.33213 19.1802 5.18165 18.9307L0.456854 11.102C0.339856 10.908 0.262212 10.6929 0.228357 10.4689C0.194501 10.2449 0.205097 10.0164 0.259539 9.79653C0.313981 9.57663 0.411203 9.36961 0.545654 9.18728C0.680105 9.00495 0.849152 8.85088 1.04314 8.73388C1.43493 8.4976 1.90453 8.42662 2.34864 8.53657C2.79275 8.64652 3.175 8.92839 3.41129 9.32017L6.71635 14.8037L15.4819 1.43402C15.7468 1.08706 16.1333 0.853441 16.5636 0.780269C16.9939 0.707098 17.4359 0.799821 17.8005 1.03974C18.1651 1.27965 18.4252 1.64891 18.5283 2.07304C18.6313 2.49716 18.5697 2.94459 18.3559 3.32508L8.1016 18.9882C7.94432 19.227 7.73011 19.423 7.47826 19.5584C7.22641 19.6939 6.94483 19.7646 6.65887 19.7642Z" fill="white"/>
</svg>
